<?xml version="1.0" encoding="UTF-8" standalone="no"?>
<svg
   xmlns:dc="http://purl.org/dc/elements/1.1/"
   xmlns:cc="http://creativecommons.org/ns#"
   xmlns:rdf="http://www.w3.org/1999/02/22-rdf-syntax-ns#"
   xmlns:svg="http://www.w3.org/2000/svg"
   xmlns="http://www.w3.org/2000/svg"
   version="1.1"
   id="svg_ffbsee"
   viewBox="0 0 394.53293 350.62485"
   height="350.62485mm"
   width="394.53293mm">
  <defs
     id="defs4941" />
  <metadata
     id="metadata4944">
    <rdf:RDF>
      <cc:Work
         rdf:about="">
        <dc:format>image/svg+xml</dc:format>
        <dc:type
           rdf:resource="http://purl.org/dc/dcmitype/StillImage" />
        <dc:title></dc:title>
      </cc:Work>
    </rdf:RDF>
  </metadata>
  <flowRoot
     xml:space="preserve"
     id="flowRoot5900"
     style="font-style:normal;font-weight:normal;line-height:0.01%;font-family:sans-serif;letter-spacing:0px;word-spacing:0px;fill:#000000;fill-opacity:1;stroke:none;stroke-width:1px;stroke-linecap:butt;stroke-linejoin:miter;stroke-opacity:1"
     transform="translate(60.29,-1151.3916)"><flowRegion
       id="flowRegion5902"><rect
         id="rect5904"
         width="1999.4039"
         height="179.43582"
         x="-4.5352678"
         y="1220.6235" /></flowRegion><flowPara
       id="flowPara5906"
       style="font-style:normal;font-variant:normal;font-weight:normal;font-stretch:normal;font-size:40px;line-height:1.25;font-family:Lato;-inkscape-font-specification:Lato"> </flowPara></flowRoot>  <rect
     y="2.4023439e-06"
     x="-3.9062497e-06"
     height="350.62485"
     width="394.53293"
     id="rect4177"
     style="opacity:1;fill:#000000;fill-opacity:1;stroke:none;stroke-width:0.03884429;stroke-miterlimit:3.5999999;stroke-dasharray:none;stroke-opacity:1" />
  <rect
     style="opacity:1;fill:#000000;fill-opacity:1;stroke:none;stroke-width:0.03465098;stroke-miterlimit:3.5999999;stroke-dasharray:none;stroke-opacity:1"
     id="rect4173"
     width="282.22168"
     height="199.5843"
     x="55.873409"
     y="73.505554" />
  <path
     style="color:#000000;font-style:normal;font-variant:normal;font-weight:normal;font-stretch:normal;font-size:medium;line-height:normal;font-family:sans-serif;text-indent:0;text-align:start;text-decoration:none;text-decoration-line:none;text-decoration-style:solid;text-decoration-color:#000000;letter-spacing:normal;word-spacing:normal;text-transform:none;writing-mode:lr-tb;direction:ltr;baseline-shift:baseline;text-anchor:start;white-space:normal;clip-rule:nonzero;display:inline;overflow:visible;visibility:visible;opacity:1;isolation:auto;mix-blend-mode:normal;color-interpolation:sRGB;color-interpolation-filters:linearRGB;solid-color:#000000;solid-opacity:1;fill:#de2c68;fill-opacity:1;fill-rule:nonzero;stroke:none;stroke-width:0.1989027;stroke-linecap:butt;stroke-linejoin:miter;stroke-miterlimit:4;stroke-dasharray:none;stroke-dashoffset:0;stroke-opacity:1;color-rendering:auto;image-rendering:auto;shape-rendering:auto;text-rendering:auto;enable-background:accumulate"
     d="m 263.52519,93.76779 c -27.18562,0 -49.22952,22.4332 -49.22952,50.0513 0,27.6181 22.0439,50.0513 49.22952,50.0513 27.18563,0 49.22951,-22.4332 49.22951,-50.0513 0,-27.6181 -22.04388,-50.0513 -49.22951,-50.0513 z m 0,2.3406 c 25.89906,0 46.8889,21.3363 46.8889,47.7107 0,26.3744 -20.98984,47.711 -46.8889,47.711 -25.89905,0 -46.8889,-21.3366 -46.8889,-47.711 0,-26.3744 20.98985,-47.7107 46.8889,-47.7107 z"
     id="circle3878" />
  <polygon
     id="polygon5867"
     transform="matrix(1.1826562,0,0,1.2239771,216.20418,91.52659)"
     points="81,41 73,41 64,50 73,59 81,59 75,53 88,53 88,47 75,47 "
     style="fill:#ffcc33;fill-opacity:1;stroke:#000000" />
  <path
     style="color:#000000;font-style:normal;font-variant:normal;font-weight:normal;font-stretch:normal;font-size:medium;line-height:normal;font-family:sans-serif;text-indent:0;text-align:start;text-decoration:none;text-decoration-line:none;text-decoration-style:solid;text-decoration-color:#000000;letter-spacing:normal;word-spacing:normal;text-transform:none;writing-mode:lr-tb;direction:ltr;baseline-shift:baseline;text-anchor:start;white-space:normal;clip-rule:nonzero;display:inline;overflow:visible;visibility:visible;opacity:1;isolation:auto;mix-blend-mode:normal;color-interpolation:sRGB;color-interpolation-filters:linearRGB;solid-color:#000000;solid-opacity:1;fill:#de2c68;fill-opacity:1;fill-rule:nonzero;stroke:#000000;stroke-width:0.1989027;stroke-linecap:butt;stroke-linejoin:miter;stroke-miterlimit:4;stroke-dasharray:none;stroke-dashoffset:0;stroke-opacity:1;color-rendering:auto;image-rendering:auto;shape-rendering:auto;text-rendering:auto;enable-background:accumulate"
     d="m 195.53879,98.05649 c -23.63282,0 -42.79378,19.5488 -42.79378,43.6089 0,24.0602 19.16096,43.6087 42.79378,43.6087 23.63283,0 42.79351,-19.5485 42.79351,-43.6087 0,-24.0601 -19.16068,-43.6089 -42.79351,-43.6089 z m 0,2.1922 c 22.42495,0 40.60128,18.5186 40.60128,41.4167 0,22.8982 -18.17633,41.4167 -40.60128,41.4167 -22.42494,0 -40.60155,-18.5185 -40.60155,-41.4167 0,-22.8981 18.17661,-41.4167 40.60155,-41.4167 z"
     id="ellipse5364" />
  <path
     id="path3338"
     d="m 263.3591,243.84739 c -1.08728,-0.149 -2.12824,-0.3838 -2.31338,-0.5218 -0.18506,-0.138 -1.36059,-1.0224 -2.61224,-1.9654 -2.65587,-2.0009 -4.8324,-2.9641 -7.00754,-3.1011 -0.97689,-0.062 -1.8453,-0.3917 -2.33192,-0.8865 -0.42643,-0.4338 -1.66596,-0.9873 -2.75455,-1.2301 -2.22099,-0.4955 -2.75989,-0.9906 -3.5439,-3.2564 -0.49079,-1.4185 -0.72342,-1.6413 -2.3397,-2.2415 -2.88835,-1.0725 -4.33788,-1.7427 -5.83134,-2.6961 -0.77103,-0.4922 -1.53699,-0.868 -1.70209,-0.8351 -0.16509,0.033 -1.86881,-0.9389 -3.78604,-2.1598 -1.91728,-1.2208 -4.14139,-2.4825 -4.94246,-2.8038 -1.75484,-0.7037 -2.75612,-2.4374 -2.91332,-5.0443 -0.0574,-0.9516 -0.33632,-2.3385 -0.61963,-3.0821 -0.44135,-1.1575 -0.81342,-1.474 -2.58775,-2.2014 -1.13971,-0.4673 -2.32055,-0.8001 -2.62406,-0.7395 -0.30345,0.061 -0.65808,0 -0.788,-0.1432 -0.12992,-0.1394 -1.85795,-0.6914 -3.84015,-1.2268 -1.98217,-0.5353 -3.84324,-1.1673 -4.13572,-1.4044 -0.29246,-0.2371 -0.78684,-0.3826 -1.09853,-0.3233 -0.3117,0.059 -0.94721,-0.017 -1.41224,-0.1701 -3.67027,-1.2058 -5.49906,-1.9546 -7.70866,-3.1563 -5.4966,-2.9895 -5.61633,-3.0357 -10.66234,-4.1191 -1.7118,-0.3675 -8.01679,-2.0637 -11.26664,-3.0311 -1.58501,-0.4718 -3.60496,-0.814 -4.48879,-0.7605 -1.64107,0.099 -5.36538,-0.6165 -5.83671,-1.122 -0.33533,-0.3596 -5.48276,-1.7801 -6.04444,-1.668 -0.23381,0.047 -1.62047,-0.2231 -3.08142,-0.5994 -2.89621,-0.7461 -5.14861,-2.3116 -6.12939,-4.2602 -0.3094,-0.6146 -0.85029,-1.3096 -1.20198,-1.5443 -0.96251,-0.6424 -4.58317,0.1946 -6.35386,1.4688 -3.5147,2.529 -5.01155,3.1773 -7.40963,3.2089 -1.23466,0.016 -3.82891,0.2418 -5.76499,0.5012 -3.26148,0.4369 -3.65195,0.4099 -5.31384,-0.3671 -1.57402,-0.736 -1.95832,-0.776 -3.13718,-0.3264 -0.73892,0.2818 -5.72826,1.3603 -11.0874,2.3966 -9.69334,1.8745 -9.75121,1.8903 -11.14201,3.0372 -0.76896,0.6341 -2.1748,1.5113 -3.12419,1.9494 -1.94841,0.8992 -3.84364,2.2986 -4.29129,3.1686 -0.92576,1.7993 -4.06386,5.3949 -5.05691,5.7943 -0.61581,0.2476 -1.55352,0.9271 -2.08378,1.5099 -0.53029,0.5828 -1.1646,1.0996 -1.40959,1.1485 -0.245,0.049 -0.89529,0.5033 -1.44509,1.0098 -0.54979,0.5065 -1.5741,1.0361 -2.27618,1.1769 -0.86984,0.1745 -1.5643,0.616 -2.17989,1.3861 -0.59451,0.7437 -1.45058,1.3005 -2.50386,1.6286 -0.96896,0.3018 -1.86195,0.8539 -2.26313,1.3991 -0.9475,1.2876 -4.16952,1.9193 -5.73586,1.1244 -0.61319,-0.3112 -1.58011,-0.5748 -2.14872,-0.5857 -0.56856,-0.011 -1.3552,-0.2584 -1.74803,-0.5499 -0.40706,-0.302 -1.46222,-0.4848 -2.45332,-0.4251 -2.1518,0.1298 -3.09912,-0.4723 -2.24855,-1.4291 0.45052,-0.5068 1.18686,-0.7235 3.31405,-0.9752 1.50414,-0.1779 3.1672,-0.2509 3.69573,-0.1621 1.66263,0.2793 3.43774,-0.2986 6.08832,-1.982 1.41144,-0.8963 3.50309,-2.1098 4.64819,-2.6966 1.14502,-0.5868 2.21969,-1.2734 2.38815,-1.5258 0.1685,-0.2525 0.56399,-0.5104 0.87896,-0.5732 0.31495,-0.063 1.19713,-0.9808 1.96037,-2.0399 0.76325,-1.0591 1.97734,-2.345 2.69802,-2.8576 0.72067,-0.5126 1.38121,-1.1222 1.46781,-1.3547 0.0866,-0.2325 0.5701,-0.5051 1.0744,-0.6057 1.52682,-0.3046 9.17341,-12.4332 8.85256,-14.0415 -0.0834,-0.4181 -0.62697,-1.019 -1.20791,-1.3353 -0.58093,-0.3163 -1.38153,-0.7726 -1.77913,-1.0139 -0.39763,-0.2413 -1.34505,-0.4316 -2.1054,-0.4229 -0.76036,0.01 -1.80774,-0.2 -2.32755,-0.4637 -0.51978,-0.2638 -1.46727,-0.4861 -2.10557,-0.494 -0.6383,-0.01 -1.43453,-0.1651 -1.76944,-0.3492 -0.33492,-0.1841 -1.27378,-0.4065 -2.08641,-0.4942 -0.81262,-0.088 -1.72888,-0.2914 -2.03611,-0.4527 -0.57732,-0.303 -2.53932,-0.9204 -5.32767,-1.6764 -0.88249,-0.2392 -2.03344,-0.8388 -2.55774,-1.3322 l -0.95326,-0.8972 1.23495,-1.6751 c 1.34222,-1.8205 5.01398,-4.1229 6.46663,-4.0548 4.38246,0.2054 4.72712,0.2689 9.08409,1.6722 3.0061,0.9682 4.70315,0.9293 4.49718,-0.1031 -0.106,-0.5313 -3.21207,-2.3118 -3.82108,-2.1903 -0.31039,0.062 -3.62614,-1.3902 -4.15709,-1.8206 -0.38415,-0.3114 -0.37441,-0.6409 0.0433,-1.464 0.29645,-0.5842 0.73902,-1.1021 0.98342,-1.1509 0.47574,-0.095 3.33168,0.7038 5.10431,1.4273 2.59537,1.0595 5.98067,2.0767 10.66567,3.2047 1.04407,0.2514 2.84144,0.6891 3.99414,0.9727 1.15273,0.2836 2.28971,0.4769 2.52663,0.4297 0.23693,-0.047 1.07684,0.1104 1.86651,0.3505 0.78962,0.24 1.67496,0.3887 1.96743,0.3303 0.2924,-0.058 1.15208,0.082 1.91035,0.313 0.7583,0.2306 2.07465,0.4652 2.92519,0.5215 3.36713,0.223 9.83755,3.8728 10.21437,5.7616 0.29718,1.4896 -0.76984,2.0737 -4.76701,2.6094 l -3.56585,0.4779 -2.06512,-1.2145 c -3.66461,-2.155 -4.3162,-2.3656 -6.89291,-2.228 -3.5078,0.1873 -3.3615,0.098 -3.01434,1.8382 0.47363,2.3742 1.15858,3.0783 3.12174,3.209 0.93353,0.062 1.99244,0.2782 2.35314,0.4801 0.36067,0.202 1.60659,0.3329 2.76871,0.291 1.1621,-0.042 2.57469,0.015 3.13911,0.1263 0.58134,0.1147 1.57471,-0.011 2.29155,-0.2892 0.69593,-0.2704 2.56699,-0.9309 4.15791,-1.4678 3.99188,-1.3473 4.55687,-1.1732 7.15415,2.2042 1.63658,2.1282 2.31218,2.7215 3.63195,3.1895 l 1.62136,0.575 1.82714,-1.1886 c 1.00492,-0.6537 2.12849,-1.582 2.49679,-2.0629 0.59737,-0.7799 1.06464,-0.9432 4.32807,-1.5119 2.58197,-0.4501 4.01852,-0.5332 4.88228,-0.2827 1.19978,0.3479 9.14774,-0.4982 10.06518,-1.0716 0.63535,-0.397 0.1462,-1.9149 -1.05822,-3.2842 -0.60806,-0.6913 -1.32312,-1.8077 -1.58902,-2.4809 -0.62269,-1.5765 -3.20036,-3.7429 -6.35636,-5.3421 -1.41879,-0.719 -2.79925,-1.7168 -3.2015,-2.3141 -0.38895,-0.5775 -1.1473,-1.3356 -1.68518,-1.6847 -0.97246,-0.631 -1.1543,-1.0169 -3.48572,-7.399 -0.94897,-2.5979 -2.11179,-3.8622 -4.5162,-4.9103 -6.17036,-2.6899 -5.95308,-2.6325 -8.63019,-2.2773 -2.74911,0.3648 -4.17431,-0.01 -7.31397,-1.8985 -2.18883,-1.32 -4.40272,-2.0197 -8.67918,-2.7429 -1.95436,-0.3305 -3.74979,-0.6806 -3.98983,-0.7781 -0.24007,-0.098 -0.94982,-0.3942 -1.57722,-0.6593 -1.306,-0.552 -14.28468,-9.3161 -14.36302,-9.6989 -0.0277,-0.139 -0.47489,-0.4231 -0.99221,-0.6316 -1.10768,-0.4464 -2.1566,-2.8863 -1.77778,-4.1353 0.12971,-0.4276 1.01458,-1.3558 1.9664,-2.0627 1.39538,-1.0363 2.02428,-1.2962 3.24673,-1.342 1.74565,-0.065 2.53013,0.2013 5.98142,2.0323 3.74697,1.9879 4.83728,2.4913 5.22686,2.4136 0.19406,-0.039 0.86877,0.2111 1.49927,0.555 0.63051,0.344 1.56158,0.6685 2.06907,0.7212 0.50748,0.053 1.33792,0.3047 1.84541,0.5599 0.50754,0.2552 1.38438,0.473 1.9486,0.4839 0.56424,0.011 1.462,0.3309 1.99503,0.7112 0.53305,0.3803 1.11829,0.6617 1.30054,0.6254 0.18223,-0.036 1.66104,0.7926 3.28623,1.8422 5.14555,3.3231 4.96302,3.2514 7.58556,2.9783 1.55997,-0.1626 2.76487,-0.071 3.47534,0.2628 0.59818,0.2814 1.28101,0.4731 1.5174,0.4259 0.23646,-0.047 1.05907,0.1709 1.82808,0.4846 3.77704,1.5408 5.29482,2.0701 5.70269,1.9887 0.24552,-0.049 1.1006,0.187 1.90021,0.5245 0.79963,0.3374 1.83755,0.5369 2.30639,0.4434 0.46893,-0.093 1.31266,0.063 1.875,0.3488 0.56237,0.2854 1.25483,0.4725 1.53877,0.4159 0.67561,-0.1348 3.59946,0.9532 5.58979,2.0801 1.12525,0.6371 1.70536,1.2461 2.02514,2.1259 0.24648,0.6782 0.80622,1.8936 1.24387,2.7008 0.43762,0.8072 1.01557,2.0484 1.28436,2.7581 0.38955,1.0289 1.10651,1.692 3.53567,3.2703 1.67587,1.0889 3.8144,2.2801 4.75227,2.6471 0.93793,0.367 2.51669,1.0657 3.50833,1.5527 0.99167,0.4869 2.4145,1.097 3.16185,1.3557 0.74732,0.2587 2.15429,0.7892 3.12654,1.179 0.9723,0.3898 3.14895,1.1099 4.83704,1.6002 1.68808,0.4904 3.50058,1.1094 4.02776,1.3757 0.5272,0.2663 1.21129,0.4344 1.5202,0.3735 0.30888,-0.061 1.59354,0.1702 2.8547,0.5134 1.26116,0.3433 2.46444,0.5905 2.67393,0.5495 0.20942,-0.041 0.7093,0.169 1.11066,0.4668 0.40137,0.2978 1.31372,0.5348 2.0274,0.5266 0.71368,-0.01 2.14263,0.2326 3.17545,0.5351 2.30754,0.6757 4.51128,0.1118 7.1456,-1.8286 0.95325,-0.7021 2.0128,-1.334 2.3546,-1.4041 0.34189,-0.07 1.14349,-0.5356 1.78149,-1.0343 1.38986,-1.0864 3.34674,-1.815 6.88771,-2.5643 2.95028,-0.6244 5.59555,-0.214 6.85096,1.0628 0.71482,0.727 1.94673,0.9405 7.06375,1.2244 6.38201,0.3541 6.67906,0.3384 8.2441,-0.4335 0.81063,-0.3999 1.92499,-0.8171 2.47636,-0.9271 1.80951,-0.361 5.31445,0.9755 8.64108,3.295 2.99272,2.0866 3.24329,2.3612 5.0268,5.5093 1.31337,2.3183 2.14631,3.4218 2.77374,3.6746 1.00277,0.4042 1.58696,1.2071 2.92079,4.0143 0.77298,1.6269 1.28618,2.1626 3.34273,3.4895 2.19722,1.4177 3.05207,1.8149 5.9835,2.7803 2.45052,0.807 7.07021,-0.4789 9.15376,-2.5481 1.10336,-1.0958 1.62141,-1.3752 2.56972,-1.3861 1.38014,-0.016 3.61924,1.4124 4.21855,2.6908 0.22806,0.4865 0.76738,1.0954 1.19845,1.353 0.43108,0.2576 0.82465,0.6733 0.87462,0.9237 0.17357,0.87 1.67113,0.9851 3.89583,0.2993 1.99218,-0.614 2.18219,-0.6108 2.71576,0.047 0.73984,0.9118 1.23825,1.1043 2.31819,0.8957 0.55219,-0.1065 1.63449,0.2902 2.91882,1.0702 l 2.04126,1.2398 4.45391,-0.6182 c 4.12798,-0.573 4.56102,-0.5659 5.91691,0.097 0.80462,0.3934 1.44049,0.9082 1.41298,1.144 -0.0275,0.2358 -0.57979,0.8254 -1.22727,1.3102 -1.57778,1.1813 -1.24997,2.0879 0.67434,1.8651 1.23338,-0.1428 1.4819,-0.3304 2.21948,-1.6757 0.54286,-0.9903 1.33155,-1.7806 2.27712,-2.2819 3.35672,-1.7794 5.94625,-1.2505 9.08955,1.8564 1.17017,1.1566 2.76742,2.4632 3.54939,2.9035 0.78194,0.4404 2.61461,1.4572 4.07247,2.2597 2.78125,1.5308 3.58625,2.464 4.02565,4.6665 0.1961,0.983 0.0585,1.6842 -0.52428,2.671 l -0.79026,1.3379 -6.01906,1.216 c -3.31044,0.6689 -6.2148,1.2888 -6.45399,1.3779 -0.23928,0.089 -1.03554,0.9892 -1.76951,2.0003 -1.46594,2.0191 -3.8435,4.2546 -4.70888,4.4272 -0.30387,0.061 -0.93813,-0.2194 -1.40942,-0.6224 -0.47126,-0.4029 -1.11863,-0.6804 -1.43846,-0.6166 -0.72287,0.1442 -2.3922,2.7615 -2.90542,4.5553 -0.21113,0.7378 -0.78541,1.9096 -1.27621,2.6038 l -0.89243,1.2624 -1.69167,-1.289 c -1.64274,-1.2517 -1.69781,-1.3477 -1.90683,-3.3241 l -0.21516,-2.0353 -1.03742,0.207 c -0.57059,0.1138 -1.01052,0.3421 -0.97754,0.5074 0.10384,0.5204 -2.70052,4.5412 -3.74095,5.3637 -0.54749,0.4328 -1.52748,1.5117 -2.17773,2.3976 -1.84031,2.5071 -3.24382,2.8895 -8.17214,2.2261 -2.11142,-0.2842 -2.80528,-0.5573 -3.69379,-1.4539 -1.06723,-1.0771 -2.48717,-1.2913 -2.81034,-0.4241 -0.0747,0.2007 -0.69005,0.3848 -1.36737,0.4092 -1.12569,0.041 -1.23513,0.1343 -1.27409,1.0912 -0.0234,0.5757 -0.23288,1.4913 -0.46552,2.0347 -0.23257,0.5434 -0.49546,1.6071 -0.58419,2.364 -0.22297,1.9017 -2.53086,4.5813 -4.80028,5.5734 -0.95326,0.4167 -3.19384,1.1808 -4.97912,1.6979 -1.78525,0.5172 -3.46193,1.0803 -3.72601,1.2514 -0.264,0.1712 -1.3696,0.1893 -2.45683,0.04 z"
     style="fill:#009ee0;fill-opacity:1;stroke:#000000;stroke-width:0.78673851;stroke-linecap:square;stroke-linejoin:miter;stroke-miterlimit:4;stroke-dasharray:none" />
  <path
     style="color:#000000;font-style:normal;font-variant:normal;font-weight:normal;font-stretch:normal;font-size:medium;line-height:normal;font-family:sans-serif;text-indent:0;text-align:start;text-decoration:none;text-decoration-line:none;text-decoration-style:solid;text-decoration-color:#000000;letter-spacing:normal;word-spacing:normal;text-transform:none;writing-mode:lr-tb;direction:ltr;baseline-shift:baseline;text-anchor:start;white-space:normal;clip-rule:nonzero;display:inline;overflow:visible;visibility:visible;opacity:1;isolation:auto;mix-blend-mode:normal;color-interpolation:sRGB;color-interpolation-filters:linearRGB;solid-color:#000000;solid-opacity:1;fill:#de2c68;fill-opacity:1;fill-rule:nonzero;stroke:#000000;stroke-width:0.97860134;stroke-linecap:butt;stroke-linejoin:miter;stroke-miterlimit:4;stroke-dasharray:none;stroke-dashoffset:0;stroke-opacity:1;color-rendering:auto;image-rendering:auto;shape-rendering:auto;text-rendering:auto;enable-background:accumulate"
     d="m 263.32009,73.99399 c -18.36929,0 -35.98814,7.3744 -48.95972,20.4731 -12.97158,13.0987 -20.24902,30.852 -20.24902,49.352 0,18.5 7.27744,36.253 20.24902,49.3518 12.97158,13.0987 30.59043,20.4731 48.95972,20.4731 18.3693,0 35.98815,-7.3744 48.95973,-20.4731 12.97157,-13.0988 20.24901,-30.852 20.24901,-49.3521 0,-18.5 -7.27744,-36.253 -20.24901,-49.3517 -12.97158,-13.0987 -30.59043,-20.4731 -48.95973,-20.4731 z m 0,12.6628 c 14.98288,0 29.35034,6.0047 39.96231,16.7207 10.61195,10.716 16.58363,25.2626 16.58363,40.4416 0,15.179 -5.97168,29.7254 -16.58363,40.4413 -10.61197,10.716 -24.97943,16.7208 -39.96231,16.7208 -14.98287,0 -29.35005,-6.0048 -39.96202,-16.7208 -10.61197,-10.7159 -16.58365,-25.2623 -16.58365,-40.4413 0,-15.179 5.97168,-29.7256 16.58365,-40.4416 10.61197,-10.716 24.97915,-16.7207 39.96202,-16.7207 z"
     id="ellipse5485" />
  <polygon
     style="fill:#ffcc33;fill-opacity:1"
     points="75,53 88,53 88,47 75,47 81,41 73,41 64,50 73,59 81,59 "
     transform="matrix(-1.0237983,0,0,1.0595688,252.12678,100.17969)"
     id="polygon5366" />
  <path
     id="path914"
     style="font-style:normal;font-variant:normal;font-weight:bold;font-stretch:normal;font-size:21.93343925px;line-height:1.25;font-family:Lato;-inkscape-font-specification:'Lato, Bold';font-variant-ligatures:normal;font-variant-caps:normal;font-variant-numeric:normal;font-feature-settings:normal;text-align:start;letter-spacing:0px;word-spacing:0px;writing-mode:lr-tb;text-anchor:start;opacity:1;vector-effect:none;fill:#de2c68;fill-opacity:1;stroke:none;stroke-width:1.06606531;stroke-linecap:butt;stroke-linejoin:miter;stroke-miterlimit:4;stroke-dasharray:none;stroke-dashoffset:0;stroke-opacity:1"
     d="m 58.531515,258.31648 v 5.11332 h 6.475221 v 2.56853 h -6.475221 v 7.03672 H 55.30586 v -17.27512 h 10.895562 v 2.55655 z" />
  <path
     id="path916"
     style="font-style:normal;font-variant:normal;font-weight:bold;font-stretch:normal;font-size:21.93343925px;line-height:1.25;font-family:Lato;-inkscape-font-specification:'Lato, Bold';font-variant-ligatures:normal;font-variant-caps:normal;font-variant-numeric:normal;font-feature-settings:normal;text-align:start;letter-spacing:0px;word-spacing:0px;writing-mode:lr-tb;text-anchor:start;opacity:1;vector-effect:none;fill:#de2c68;fill-opacity:1;stroke:none;stroke-width:1.06606531;stroke-linecap:butt;stroke-linejoin:miter;stroke-miterlimit:4;stroke-dasharray:none;stroke-dashoffset:0;stroke-opacity:1"
     d="m 70.177123,262.90417 q 0.573448,-1.09918 1.361939,-1.72045 0.788501,-0.63314 1.863716,-0.63314 0.848232,0 1.361949,0.37038 l -0.191153,2.21013 q -0.0597,0.21504 -0.179202,0.31069 -0.107522,0.0839 -0.298675,0.0839 -0.179202,0 -0.537607,-0.0599 -0.346465,-0.0599 -0.680969,-0.0599 -0.489827,0 -0.872122,0.14336 -0.382306,0.14337 -0.69292,0.41811 -0.298674,0.26286 -0.537618,0.64512 -0.226983,0.38227 -0.430086,0.87216 v 7.55036 h -2.950881 v -12.25745 h 1.732305 q 0.453975,0 0.633178,0.16722 0.179202,0.15535 0.238944,0.57345 z" />
  <path
     id="path918"
     style="font-style:normal;font-variant:normal;font-weight:bold;font-stretch:normal;font-size:21.93343925px;line-height:1.25;font-family:Lato;-inkscape-font-specification:'Lato, Bold';font-variant-ligatures:normal;font-variant-caps:normal;font-variant-numeric:normal;font-feature-settings:normal;text-align:start;letter-spacing:0px;word-spacing:0px;writing-mode:lr-tb;text-anchor:start;opacity:1;vector-effect:none;fill:#de2c68;fill-opacity:1;stroke:none;stroke-width:1.06606531;stroke-linecap:butt;stroke-linejoin:miter;stroke-miterlimit:4;stroke-dasharray:none;stroke-dashoffset:0;stroke-opacity:1"
     d="m 83.877209,265.49656 q 0,-0.57344 -0.167252,-1.07521 -0.155313,-0.51364 -0.477877,-0.89601 -0.322565,-0.38227 -0.824331,-0.59731 -0.489828,-0.22703 -1.146907,-0.22703 -1.278318,0 -2.019028,0.7288 -0.72875,0.72879 -0.931853,2.06676 z m -5.626978,1.78015 q 0.07168,0.94373 0.334514,1.63668 0.262823,0.68097 0.69292,1.13491 0.430086,0.44207 1.015484,0.6691 0.597338,0.21504 1.314159,0.21504 0.716809,0 1.230527,-0.16722 0.525656,-0.16733 0.907962,-0.37038 0.394245,-0.20317 0.680969,-0.37039 0.298675,-0.16722 0.573448,-0.16722 0.370355,0 0.549558,0.27474 l 0.848232,1.07521 q -0.489827,0.57345 -1.099116,0.9677 -0.609288,0.38237 -1.278317,0.62127 -0.65708,0.22702 -1.349999,0.32256 -0.68097,0.0959 -1.326098,0.0959 -1.278318,0 -2.377434,-0.41811 -1.099115,-0.43008 -1.911496,-1.25441 -0.812391,-0.83632 -1.278318,-2.05489 -0.465937,-1.23056 -0.465937,-2.84338 0,-1.25442 0.406196,-2.35349 0.406196,-1.11106 1.158846,-1.92352 0.7646,-0.82433 1.851776,-1.30213 1.099105,-0.47791 2.473005,-0.47791 1.158846,0 2.138489,0.37039 0.979644,0.37028 1.684514,1.08709 0.704859,0.70494 1.099116,1.74431 0.406184,1.02739 0.406184,2.35349 0,0.66909 -0.143362,0.90799 -0.143361,0.22703 -0.549557,0.22703 z" />
  <path
     id="path920"
     style="font-style:normal;font-variant:normal;font-weight:bold;font-stretch:normal;font-size:21.93343925px;line-height:1.25;font-family:Lato;-inkscape-font-specification:'Lato, Bold';font-variant-ligatures:normal;font-variant-caps:normal;font-variant-numeric:normal;font-feature-settings:normal;text-align:start;letter-spacing:0px;word-spacing:0px;writing-mode:lr-tb;text-anchor:start;opacity:1;vector-effect:none;fill:#de2c68;fill-opacity:1;stroke:none;stroke-width:1.06606531;stroke-linecap:butt;stroke-linejoin:miter;stroke-miterlimit:4;stroke-dasharray:none;stroke-dashoffset:0;stroke-opacity:1"
     d="m 91.778957,260.7776 v 12.25745 H 88.816126 V 260.7776 Z m 0.406196,-3.57217 q 0,0.38237 -0.155312,0.71681 -0.155302,0.33454 -0.418136,0.58543 -0.250883,0.25088 -0.597349,0.40623 -0.346454,0.14336 -0.74071,0.14336 -0.382295,0 -0.72876,-0.14336 -0.334504,-0.15535 -0.585388,-0.40623 -0.250894,-0.25089 -0.406195,-0.58543 -0.143362,-0.33444 -0.143362,-0.71681 0,-0.39425 0.143362,-0.74067 0.155301,-0.34642 0.406195,-0.5973 0.250884,-0.25089 0.585388,-0.39425 0.346465,-0.15535 0.72876,-0.15535 0.394256,0 0.74071,0.15535 0.346466,0.14336 0.597349,0.39425 0.262834,0.25088 0.418136,0.5973 0.155312,0.34642 0.155312,0.74067 z" />
  <path
     id="path922"
     style="font-style:normal;font-variant:normal;font-weight:bold;font-stretch:normal;font-size:21.93343925px;line-height:1.25;font-family:Lato;-inkscape-font-specification:'Lato, Bold';font-variant-ligatures:normal;font-variant-caps:normal;font-variant-numeric:normal;font-feature-settings:normal;text-align:start;letter-spacing:0px;word-spacing:0px;writing-mode:lr-tb;text-anchor:start;opacity:1;vector-effect:none;fill:#de2c68;fill-opacity:1;stroke:none;stroke-width:1.06606531;stroke-linecap:butt;stroke-linejoin:miter;stroke-miterlimit:4;stroke-dasharray:none;stroke-dashoffset:0;stroke-opacity:1"
     d="m 95.647507,273.03505 v -10.03534 l -1.063275,-0.16722 q -0.346454,-0.0719 -0.561497,-0.23901 -0.203103,-0.1792 -0.203103,-0.50176 v -1.2066 h 1.827875 v -0.90799 q 0,-1.05136 0.310614,-1.88756 0.322575,-0.83632 0.907963,-1.42175 0.597348,-0.58532 1.44558,-0.89601 0.848233,-0.31058 1.911496,-0.31058 0.84823,0 1.57699,0.22702 l -0.0597,1.48134 q -0.012,0.16733 -0.0955,0.27485 -0.0837,0.0959 -0.22699,0.15523 -0.13142,0.0479 -0.31062,0.0719 -0.1792,0.012 -0.3823,0.012 -0.52566,0 -0.943809,0.11951 -0.406185,0.10785 -0.69292,0.39424 -0.286724,0.27475 -0.442025,0.74067 -0.143362,0.45395 -0.143362,1.13491 v 0.81246 h 3.189816 v 2.10261 h -3.094245 v 10.04732 z" />
  <path
     id="path924"
     style="font-style:normal;font-variant:normal;font-weight:bold;font-stretch:normal;font-size:21.93343925px;line-height:1.25;font-family:Lato;-inkscape-font-specification:'Lato, Bold';font-variant-ligatures:normal;font-variant-caps:normal;font-variant-numeric:normal;font-feature-settings:normal;text-align:start;letter-spacing:0px;word-spacing:0px;writing-mode:lr-tb;text-anchor:start;opacity:1;vector-effect:none;fill:#de2c68;fill-opacity:1;stroke:none;stroke-width:1.06606531;stroke-linecap:butt;stroke-linejoin:miter;stroke-miterlimit:4;stroke-dasharray:none;stroke-dashoffset:0;stroke-opacity:1"
     d="m 113.93521,260.7776 v 12.25745 h -1.80399 q -0.5854,0 -0.7407,-0.53761 l -0.2031,-0.97957 q -0.75265,0.76453 -1.66061,1.24244 -0.90797,0.46592 -2.13849,0.46592 -1.00355,0 -1.7801,-0.33454 -0.7646,-0.34643 -1.29026,-0.9677 -0.52566,-0.62116 -0.80044,-1.46946 -0.26283,-0.86017 -0.26283,-1.88756 v -7.78937 h 2.95088 v 7.78937 q 0,1.12293 0.51372,1.7442 0.52565,0.60929 1.56504,0.60929 0.7646,0 1.43363,-0.33444 0.66902,-0.34653 1.26637,-0.94384 v -8.86458 z" />
  <path
     id="path926"
     style="font-style:normal;font-variant:normal;font-weight:bold;font-stretch:normal;font-size:21.93343925px;line-height:1.25;font-family:Lato;-inkscape-font-specification:'Lato, Bold';font-variant-ligatures:normal;font-variant-caps:normal;font-variant-numeric:normal;font-feature-settings:normal;text-align:start;letter-spacing:0px;word-spacing:0px;writing-mode:lr-tb;text-anchor:start;opacity:1;vector-effect:none;fill:#de2c68;fill-opacity:1;stroke:none;stroke-width:1.06606531;stroke-linecap:butt;stroke-linejoin:miter;stroke-miterlimit:4;stroke-dasharray:none;stroke-dashoffset:0;stroke-opacity:1"
     d="m 119.6208,262.2829 q 0.37036,-0.37039 0.77655,-0.68097 0.41814,-0.32256 0.87212,-0.5376 0.46593,-0.22703 0.99159,-0.34653 0.52567,-0.13138 1.14691,-0.13138 1.00353,0 1.78008,0.34642 0.77655,0.33455 1.29026,0.95582 0.52567,0.60929 0.7885,1.46946 0.27477,0.84819 0.27477,1.87569 v 7.80124 h -2.95088 v -7.80124 q 0,-1.12304 -0.51371,-1.73233 -0.51371,-0.62127 -1.56505,-0.62127 -0.7646,0 -1.43361,0.34653 -0.66903,0.34642 -1.26637,0.94372 v 8.86459 h -2.95088 V 260.7776 h 1.80397 q 0.57345,0 0.75265,0.53761 z" />
  <path
     id="path928"
     style="font-style:normal;font-variant:normal;font-weight:bold;font-stretch:normal;font-size:21.93343925px;line-height:1.25;font-family:Lato;-inkscape-font-specification:'Lato, Bold';font-variant-ligatures:normal;font-variant-caps:normal;font-variant-numeric:normal;font-feature-settings:normal;text-align:start;letter-spacing:0px;word-spacing:0px;writing-mode:lr-tb;text-anchor:start;opacity:1;vector-effect:none;fill:#de2c68;fill-opacity:1;stroke:none;stroke-width:1.06606531;stroke-linecap:butt;stroke-linejoin:miter;stroke-miterlimit:4;stroke-dasharray:none;stroke-dashoffset:0;stroke-opacity:1"
     d="m 133.29886,255.28202 v 10.16683 h 0.54956 q 0.29868,0 0.46593,-0.0719 0.1792,-0.0839 0.35841,-0.32257 l 3.04645,-3.76336 q 0.19116,-0.25088 0.41814,-0.38226 0.23894,-0.13138 0.6093,-0.13138 h 2.7 l -3.81107,4.55175 q -0.40619,0.5376 -0.88407,0.82433 0.2509,0.1792 0.44204,0.4181 0.2031,0.23901 0.3823,0.51375 l 4.08584,5.94952 h -2.66416 q -0.34646,0 -0.59735,-0.10785 -0.25088,-0.11939 -0.41813,-0.4181 l -3.13008,-4.64739 q -0.16727,-0.27474 -0.34647,-0.3584 -0.1792,-0.0839 -0.53761,-0.0839 h -0.66903 v 5.61498 h -2.95088 v -17.75303 z" />
  <path
     id="path930"
     style="font-style:normal;font-variant:normal;font-weight:bold;font-stretch:normal;font-size:21.93343925px;line-height:1.25;font-family:Lato;-inkscape-font-specification:'Lato, Bold';font-variant-ligatures:normal;font-variant-caps:normal;font-variant-numeric:normal;font-feature-settings:normal;text-align:start;letter-spacing:0px;word-spacing:0px;writing-mode:lr-tb;text-anchor:start;opacity:1;vector-effect:none;fill:#009ee0;fill-opacity:1;stroke:none;stroke-width:0.85705441;stroke-linecap:square;stroke-linejoin:miter;stroke-miterlimit:4;stroke-dasharray:none;stroke-dashoffset:0;stroke-opacity:1"
     d="m 155.85085,270.52621 q 0.89601,0 1.50531,-0.21504 0.60929,-0.21504 0.9677,-0.57345 0.37035,-0.3584 0.52566,-0.83631 0.16726,-0.4778 0.16726,-1.01541 0,-0.56157 -0.17921,-1.00353 -0.1792,-0.45405 -0.56151,-0.76464 -0.38229,-0.32256 -0.99158,-0.48978 -0.59735,-0.16733 -1.44558,-0.16733 h -3.2376 v 5.06549 z M 152.6013,258.2448 v 4.99381 h 2.55663 q 1.64867,0 2.48496,-0.5973 0.84823,-0.59742 0.84823,-1.89955 0,-1.35006 -0.7646,-1.92351 -0.7646,-0.57345 -2.38939,-0.57345 z m 2.73583,-2.48487 q 1.69647,0 2.90309,0.32257 1.20664,0.32256 1.97124,0.91987 0.77655,0.5973 1.13496,1.4456 0.3584,0.84819 0.3584,1.91142 0,0.60929 -0.1792,1.17086 -0.1792,0.54948 -0.5615,1.03938 -0.37035,0.47791 -0.95575,0.87215 -0.57345,0.39425 -1.37389,0.66899 3.56017,0.80047 3.56017,3.84691 0,1.09907 -0.41815,2.03093 -0.41813,0.93185 -1.21857,1.61282 -0.80044,0.66909 -1.97124,1.05136 -1.1708,0.38226 -2.67611,0.38226 h -6.52299 v -17.27512 z" />
  <path
     id="path932"
     style="font-style:normal;font-variant:normal;font-weight:bold;font-stretch:normal;font-size:21.93343925px;line-height:1.25;font-family:Lato;-inkscape-font-specification:'Lato, Bold';font-variant-ligatures:normal;font-variant-caps:normal;font-variant-numeric:normal;font-feature-settings:normal;text-align:start;letter-spacing:0px;word-spacing:0px;writing-mode:lr-tb;text-anchor:start;opacity:1;vector-effect:none;fill:#009ee0;fill-opacity:1;stroke:none;stroke-width:0.85705441;stroke-linecap:square;stroke-linejoin:miter;stroke-miterlimit:4;stroke-dasharray:none;stroke-dashoffset:0;stroke-opacity:1"
     d="m 169.88583,260.58642 q 1.36194,0 2.47301,0.44207 1.123,0.44196 1.91149,1.25441 0.80044,0.81235 1.23054,1.98321 0.43009,1.17075 0.43009,2.61636 0,1.45747 -0.43009,2.62823 -0.4301,1.17086 -1.23054,1.99519 -0.78849,0.82433 -1.91149,1.2664 -1.11107,0.44196 -2.47301,0.44196 -1.37389,0 -2.4969,-0.44196 -1.12301,-0.44207 -1.92345,-1.2664 -0.78849,-0.82433 -1.23053,-1.99519 -0.43008,-1.17076 -0.43008,-2.62823 0,-1.44561 0.43008,-2.61636 0.44204,-1.17086 1.23053,-1.98321 0.80044,-0.81245 1.92345,-1.25441 1.12301,-0.44207 2.4969,-0.44207 z m 0,10.35801 q 1.5292,0 2.25796,-1.0275 0.7407,-1.0274 0.7407,-3.01061 0,-1.9832 -0.7407,-3.02258 -0.72876,-1.03937 -2.25796,-1.03937 -1.5531,0 -2.30575,1.05135 -0.74071,1.03938 -0.74071,3.0106 0,1.97123 0.74071,3.01061 0.75265,1.0275 2.30575,1.0275 z" />
  <path
     id="path934"
     style="font-style:normal;font-variant:normal;font-weight:bold;font-stretch:normal;font-size:21.93343925px;line-height:1.25;font-family:Lato;-inkscape-font-specification:'Lato, Bold';font-variant-ligatures:normal;font-variant-caps:normal;font-variant-numeric:normal;font-feature-settings:normal;text-align:start;letter-spacing:0px;word-spacing:0px;writing-mode:lr-tb;text-anchor:start;opacity:1;vector-effect:none;fill:#009ee0;fill-opacity:1;stroke:none;stroke-width:0.85705441;stroke-linecap:square;stroke-linejoin:miter;stroke-miterlimit:4;stroke-dasharray:none;stroke-dashoffset:0;stroke-opacity:1"
     d="m 185.87599,263.90771 q -0.50176,-0.60929 -1.09911,-0.86017 -0.5854,-0.25089 -1.26637,-0.25089 -0.66902,0 -1.20664,0.25089 -0.5376,0.25088 -0.9199,0.76452 -0.3823,0.50177 -0.5854,1.29026 -0.2031,0.77661 -0.2031,1.83985 0,1.07521 0.16726,1.82786 0.17921,0.74067 0.50177,1.21858 0.32256,0.46592 0.78849,0.68097 0.46593,0.20316 1.03939,0.20316 0.9199,0 1.56504,-0.38237 0.64513,-0.38226 1.21857,-1.08719 z m 2.95089,-8.62569 v 17.75303 h -1.80398 q -0.5854,0 -0.74071,-0.53761 l -0.25088,-1.18274 q -0.74071,0.8483 -1.70841,1.37393 -0.95575,0.52562 -2.23407,0.52562 -1.00353,0 -1.83981,-0.4181 -0.83629,-0.41811 -1.44558,-1.2066 -0.59734,-0.80047 -0.93186,-1.97133 -0.32256,-1.17075 -0.32256,-2.67605 0,-1.36194 0.37035,-2.5327 0.37036,-1.17086 1.06327,-2.03103 0.69292,-0.86017 1.66062,-1.33808 0.96769,-0.48978 2.17433,-0.48978 1.02744,0 1.7562,0.32256 0.72876,0.32256 1.3022,0.87215 v -6.46327 z" />
  <path
     id="path936"
     style="font-style:normal;font-variant:normal;font-weight:bold;font-stretch:normal;font-size:21.93343925px;line-height:1.25;font-family:Lato;-inkscape-font-specification:'Lato, Bold';font-variant-ligatures:normal;font-variant-caps:normal;font-variant-numeric:normal;font-feature-settings:normal;text-align:start;letter-spacing:0px;word-spacing:0px;writing-mode:lr-tb;text-anchor:start;opacity:1;vector-effect:none;fill:#009ee0;fill-opacity:1;stroke:none;stroke-width:0.85705441;stroke-linecap:square;stroke-linejoin:miter;stroke-miterlimit:4;stroke-dasharray:none;stroke-dashoffset:0;stroke-opacity:1"
     d="m 199.65934,265.49656 q 0,-0.57344 -0.16726,-1.07521 -0.1553,-0.51364 -0.47787,-0.89601 -0.32257,-0.38227 -0.82434,-0.59731 -0.48982,-0.22703 -1.1469,-0.22703 -1.27831,0 -2.01902,0.7288 -0.72876,0.72879 -0.93186,2.06676 z m -5.62699,1.78015 q 0.0717,0.94373 0.33452,1.63668 0.26283,0.68097 0.69292,1.13491 0.43008,0.44207 1.01548,0.6691 0.59735,0.21504 1.31416,0.21504 0.71681,0 1.23053,-0.16722 0.52566,-0.16733 0.90796,-0.37038 0.39425,-0.20317 0.68098,-0.37039 0.29867,-0.16722 0.57345,-0.16722 0.37035,0 0.54955,0.27474 l 0.84824,1.07521 q -0.48983,0.57345 -1.09912,0.9677 -0.60929,0.38237 -1.27832,0.62127 -0.65708,0.22702 -1.35,0.32256 -0.68097,0.0959 -1.3261,0.0959 -1.27832,0 -2.37743,-0.41811 -1.09911,-0.43008 -1.9115,-1.25441 -0.8124,-0.83632 -1.27832,-2.05489 -0.46593,-1.23056 -0.46593,-2.84338 0,-1.25442 0.4062,-2.35349 0.40619,-1.11106 1.15884,-1.92352 0.7646,-0.82433 1.85177,-1.30213 1.09911,-0.47791 2.473,-0.47791 1.15885,0 2.1385,0.37039 0.97965,0.37028 1.68451,1.08709 0.70487,0.70494 1.09911,1.74431 0.4062,1.02739 0.4062,2.35349 0,0.66909 -0.14336,0.90799 -0.14337,0.22703 -0.54956,0.22703 z" />
  <path
     id="path938"
     style="font-style:normal;font-variant:normal;font-weight:bold;font-stretch:normal;font-size:21.93343925px;line-height:1.25;font-family:Lato;-inkscape-font-specification:'Lato, Bold';font-variant-ligatures:normal;font-variant-caps:normal;font-variant-numeric:normal;font-feature-settings:normal;text-align:start;letter-spacing:0px;word-spacing:0px;writing-mode:lr-tb;text-anchor:start;opacity:1;vector-effect:none;fill:#009ee0;fill-opacity:1;stroke:none;stroke-width:0.85705441;stroke-linecap:square;stroke-linejoin:miter;stroke-miterlimit:4;stroke-dasharray:none;stroke-dashoffset:0;stroke-opacity:1"
     d="m 207.26242,262.2829 q 0.37034,-0.37039 0.77654,-0.68097 0.41814,-0.32256 0.87212,-0.5376 0.46593,-0.22703 0.99159,-0.34653 0.52567,-0.13138 1.14691,-0.13138 1.00353,0 1.78008,0.34642 0.77654,0.33455 1.29026,0.95582 0.52567,0.60929 0.7885,1.46946 0.27478,0.84819 0.27478,1.87569 v 7.80124 h -2.95089 v -7.80124 q 0,-1.12304 -0.51371,-1.73233 -0.51372,-0.62127 -1.56505,-0.62127 -0.7646,0 -1.43361,0.34653 -0.66903,0.34642 -1.26638,0.94372 v 8.86459 h -2.95088 V 260.7776 h 1.80398 q 0.57345,0 0.75265,0.53761 z" />
  <path
     id="path940"
     style="font-style:normal;font-variant:normal;font-weight:bold;font-stretch:normal;font-size:21.93343925px;line-height:1.25;font-family:Lato;-inkscape-font-specification:'Lato, Bold';font-variant-ligatures:normal;font-variant-caps:normal;font-variant-numeric:normal;font-feature-settings:normal;text-align:start;letter-spacing:0px;word-spacing:0px;writing-mode:lr-tb;text-anchor:start;opacity:1;vector-effect:none;fill:#009ee0;fill-opacity:1;stroke:none;stroke-width:0.85705441;stroke-linecap:square;stroke-linejoin:miter;stroke-miterlimit:4;stroke-dasharray:none;stroke-dashoffset:0;stroke-opacity:1"
     d="m 225.46835,263.16693 q -0.11948,0.19119 -0.25089,0.27485 -0.13141,0.0719 -0.33451,0.0719 -0.21504,0 -0.46593,-0.1195 -0.23893,-0.11951 -0.56151,-0.26287 -0.32256,-0.15524 -0.7407,-0.27474 -0.40619,-0.11951 -0.9677,-0.11951 -0.87212,0 -1.37389,0.37039 -0.48981,0.37039 -0.48981,0.96769 0,0.39425 0.25088,0.66899 0.26282,0.26287 0.68097,0.46593 0.43008,0.20317 0.96769,0.37038 0.53762,0.15535 1.08718,0.34643 0.56149,0.19118 1.0991,0.44207 0.53762,0.2389 0.95575,0.62127 0.43009,0.37028 0.68097,0.89601 0.26284,0.52562 0.26284,1.26629 0,0.88414 -0.32257,1.63679 -0.31061,0.74067 -0.93185,1.29026 -0.62124,0.5376 -1.54115,0.84818 -0.90796,0.29871 -2.10265,0.29871 -0.63319,0 -1.24248,-0.1195 -0.59735,-0.10785 -1.15884,-0.31058 -0.54956,-0.20306 -1.02744,-0.47791 -0.46592,-0.27474 -0.82434,-0.59731 l 0.68098,-1.12304 q 0.13141,-0.20306 0.31061,-0.31058 0.17921,-0.10785 0.45399,-0.10785 0.27477,0 0.51372,0.15535 0.25088,0.15523 0.57345,0.33444 0.32256,0.1792 0.75265,0.33454 0.44203,0.15535 1.11106,0.15535 0.52566,0 0.89601,-0.11951 0.38231,-0.13137 0.62124,-0.33454 0.25089,-0.20306 0.35841,-0.46593 0.11947,-0.27474 0.11947,-0.56146 0,-0.43009 -0.26283,-0.70494 -0.25089,-0.27474 -0.68097,-0.4778 -0.41815,-0.20317 -0.96771,-0.3584 -0.5376,-0.16733 -1.11105,-0.35841 -0.56151,-0.19118 -1.11107,-0.44207 -0.53761,-0.26286 -0.96769,-0.65711 -0.41814,-0.39425 -0.68097,-0.96769 -0.25088,-0.57345 -0.25088,-1.3858 0,-0.75265 0.29866,-1.43362 0.29867,-0.68097 0.87212,-1.18273 0.5854,-0.51375 1.44558,-0.81246 0.87212,-0.31058 2.00708,-0.31058 1.26637,0 2.30574,0.4181 1.03939,0.41821 1.73231,1.09918 z" />
  <path
     id="path942"
     style="font-style:normal;font-variant:normal;font-weight:bold;font-stretch:normal;font-size:21.93343925px;line-height:1.25;font-family:Lato;-inkscape-font-specification:'Lato, Bold';font-variant-ligatures:normal;font-variant-caps:normal;font-variant-numeric:normal;font-feature-settings:normal;text-align:start;letter-spacing:0px;word-spacing:0px;writing-mode:lr-tb;text-anchor:start;opacity:1;vector-effect:none;fill:#009ee0;fill-opacity:1;stroke:none;stroke-width:0.85705441;stroke-linecap:square;stroke-linejoin:miter;stroke-miterlimit:4;stroke-dasharray:none;stroke-dashoffset:0;stroke-opacity:1"
     d="m 236.38668,265.49656 q 0,-0.57344 -0.16726,-1.07521 -0.15531,-0.51364 -0.47787,-0.89601 -0.32257,-0.38227 -0.82433,-0.59731 -0.48983,-0.22703 -1.14691,-0.22703 -1.27832,0 -2.01902,0.7288 -0.72876,0.72879 -0.93186,2.06676 z m -5.62698,1.78015 q 0.0717,0.94373 0.33451,1.63668 0.26284,0.68097 0.69292,1.13491 0.43009,0.44207 1.01549,0.6691 0.59734,0.21504 1.31416,0.21504 0.71681,0 1.23052,-0.16722 0.52567,-0.16733 0.90797,-0.37038 0.39424,-0.20317 0.68096,-0.37039 0.29868,-0.16722 0.57346,-0.16722 0.37035,0 0.54956,0.27474 l 0.84822,1.07521 q -0.48981,0.57345 -1.09911,0.9677 -0.60929,0.38237 -1.27832,0.62127 -0.65707,0.22702 -1.34999,0.32256 -0.68098,0.0959 -1.32611,0.0959 -1.27832,0 -2.37743,-0.41811 -1.09912,-0.43008 -1.9115,-1.25441 -0.81239,-0.83632 -1.27832,-2.05489 -0.46592,-1.23056 -0.46592,-2.84338 0,-1.25442 0.40618,-2.35349 0.4062,-1.11106 1.15886,-1.92352 0.7646,-0.82433 1.85177,-1.30213 1.09911,-0.47791 2.473,-0.47791 1.15885,0 2.13849,0.37039 0.97964,0.37028 1.68451,1.08709 0.70487,0.70494 1.09912,1.74431 0.40619,1.02739 0.40619,2.35349 0,0.66909 -0.14336,0.90799 -0.14337,0.22703 -0.54956,0.22703 z" />
  <path
     id="path944"
     style="font-style:normal;font-variant:normal;font-weight:bold;font-stretch:normal;font-size:21.93343925px;line-height:1.25;font-family:Lato;-inkscape-font-specification:'Lato, Bold';font-variant-ligatures:normal;font-variant-caps:normal;font-variant-numeric:normal;font-feature-settings:normal;text-align:start;letter-spacing:0px;word-spacing:0px;writing-mode:lr-tb;text-anchor:start;opacity:1;vector-effect:none;fill:#009ee0;fill-opacity:1;stroke:none;stroke-width:0.85705441;stroke-linecap:square;stroke-linejoin:miter;stroke-miterlimit:4;stroke-dasharray:none;stroke-dashoffset:0;stroke-opacity:1"
     d="m 249.12691,265.49656 q 0,-0.57344 -0.16725,-1.07521 -0.15531,-0.51364 -0.47788,-0.89601 -0.32256,-0.38227 -0.82434,-0.59731 -0.48981,-0.22703 -1.14689,-0.22703 -1.27832,0 -2.01903,0.7288 -0.72876,0.72879 -0.93185,2.06676 z m -5.62698,1.78015 q 0.0717,0.94373 0.33451,1.63668 0.26283,0.68097 0.69292,1.13491 0.43009,0.44207 1.01549,0.6691 0.59734,0.21504 1.31415,0.21504 0.71682,0 1.23054,-0.16722 0.52566,-0.16733 0.90796,-0.37038 0.39425,-0.20317 0.68097,-0.37039 0.29867,-0.16722 0.57345,-0.16722 0.37035,0 0.54956,0.27474 l 0.84823,1.07521 q -0.48983,0.57345 -1.09912,0.9677 -0.60929,0.38237 -1.27832,0.62127 -0.65707,0.22702 -1.34999,0.32256 -0.68097,0.0959 -1.3261,0.0959 -1.27832,0 -2.37744,-0.41811 -1.09911,-0.43008 -1.9115,-1.25441 -0.81238,-0.83632 -1.27831,-2.05489 -0.46594,-1.23056 -0.46594,-2.84338 0,-1.25442 0.4062,-2.35349 0.40619,-1.11106 1.15884,-1.92352 0.76461,-0.82433 1.85177,-1.30213 1.09912,-0.47791 2.47302,-0.47791 1.15884,0 2.13849,0.37039 0.97964,0.37028 1.68451,1.08709 0.70486,0.70494 1.0991,1.74431 0.4062,1.02739 0.4062,2.35349 0,0.66909 -0.14336,0.90799 -0.14336,0.22703 -0.54956,0.22703 z" />
  <g
     style="fill:#ffffff;stroke:none"
     transform="matrix(0.00499443,0,0,-0.00499443,228.08121,165.68501)"
     id="g6">
    <path
       d="m 6525,9566 c -167.545,-119.186 -121.8645,-736.6748 -81.7992,-557.3827 3.3716,-541.1257 5.2062,-1079.7169 -76.1437,-1613.7381 C 6311.5198,6671.7759 6269.2287,5945.0006 6311,5220 c -1098.6667,0 -2197.3333,0 -3296,0 C 2578.7711,6142.526 2027.5224,7020.1819 1416,7828 1078.8218,8274.7824 868.01309,8826.4808 525.07812,9263.3438 -202.16913,9345.684 1597.1853,7196.2158 827.10156,8170.6426 1206.6039,7484.8483 1523.1439,6765.1189 1906.252,6078.9082 1945.1409,5833.0217 2127.8225,5121.116 2306.2464,5220.9237 2092.7052,5199.7663 1861.5272,5253.0006 1659,5187 1197.6692,4787.4869 1189.3347,4125.8849 1003.0156,3582.0312 836.11492,2897.4943 607.17985,2220.996 465,1533.8267 406.82711,1191.2152 642.82549,268.93134 552.125,626.5 766.88068,160.61544 2296.386,288.78329 1874.5613,382.24533 5294.9204,386.57984 8716.292,361.95778 12136,396 c 343.27,314.85457 278.595,1134.3653 264,1007.5198 -25.186,455.527 -218.535,890.1598 -314.439,1335.8552 -210.244,701.8803 -340.132,1433.2934 -600.499,2116.8906 -478.264,574.367 -717,401.5602 -981.331,374.1143 -75.514,139.2016 864.953,1569.3089 516.393,1039.4724 439.086,803.9944 793.662,1646.4624 1278.392,2424.9602 256.409,161.8645 249.008,795.1034 -90.84,462.3887 C 11867.687,8606.9219 11588.237,8017.295 11173.652,7519.9855 10671.845,6792.8972 10189.277,6046.5793 9820,5242 c -977.5375,-42.0577 -1958.1,-14.5505 -2937,-22 0.371,1005.63 -61.3444,2012.7336 -122.6094,3012.3125 -0.6991,419.8954 -0.2722,839.7917 -0.3906,1259.6875 -56.0193,67.6455 -148.5151,111.3451 -235,74 z M 701,423 c 38.72193,-45.68741 -66.71942,52.35091 0,0 z"
       id="path4-4"
       style="fill:#ffffff" />
  </g>
  <g
     transform="matrix(1.0893765,0,0,1.0893765,-4.9430417,-22.779235)"
     id="text889"
     style="font-style:normal;font-weight:normal;font-size:23.32428551px;line-height:1.25;font-family:sans-serif;letter-spacing:0px;word-spacing:0px;fill:#ffffff;fill-opacity:1;stroke:none;stroke-width:0.58310711"
     aria-label="Router">
    <path
       id="path891"
       style="font-style:normal;font-variant:normal;font-weight:bold;font-stretch:normal;font-size:23.32428551px;font-family:Lato;-inkscape-font-specification:'Lato, Bold';font-variant-ligatures:normal;font-variant-caps:normal;font-variant-numeric:normal;font-feature-settings:normal;text-align:start;writing-mode:lr-tb;text-anchor:start;fill:#ffffff;stroke-width:0.58310711"
       d="m 249.544,262.89197 q 0.88632,0 1.5394,-0.22158 0.66474,-0.22158 1.08458,-0.60643 0.4315,-0.39652 0.64142,-0.93298 0.20992,-0.53645 0.20992,-1.17787 0,-1.28284 -0.85134,-1.9709 -0.83967,-0.68807 -2.57733,-0.68807 h -2.00589 v 5.59783 z m 8.0702,8.8399 h -2.8339 q -0.80469,0 -1.16621,-0.62975 l -3.54529,-5.39958 q -0.19826,-0.30321 -0.44317,-0.43149 -0.23324,-0.12829 -0.69972,-0.12829 h -1.34115 v 6.58911 h -3.13712 v -16.86346 h 5.14301 q 1.71433,0 2.93886,0.36153 1.23618,0.34986 2.01755,0.99128 0.79302,0.64142 1.16621,1.53941 0.37319,0.88632 0.37319,1.95924 0,0.85133 -0.25657,1.60937 -0.2449,0.75804 -0.72305,1.37613 -0.46648,0.6181 -1.16621,1.08458 -0.68807,0.46649 -1.57439,0.73472 0.30321,0.17493 0.55978,0.41984 0.25657,0.23324 0.46649,0.55978 z" />
    <path
       id="path893"
       style="font-style:normal;font-variant:normal;font-weight:bold;font-stretch:normal;font-size:23.32428551px;font-family:Lato;-inkscape-font-specification:'Lato, Bold';font-variant-ligatures:normal;font-variant-caps:normal;font-variant-numeric:normal;font-feature-settings:normal;text-align:start;writing-mode:lr-tb;text-anchor:start;fill:#ffffff;stroke-width:0.58310711"
       d="m 263.50067,259.57992 q 1.32948,0 2.41406,0.4315 1.09624,0.4315 1.86595,1.22452 0.78136,0.79303 1.2012,1.93592 0.41983,1.14289 0.41983,2.55401 0,1.42278 -0.41983,2.56567 -0.41984,1.14289 -1.2012,1.94758 -0.76971,0.80469 -1.86595,1.23619 -1.08458,0.43149 -2.41406,0.43149 -1.34115,0 -2.43739,-0.43149 -1.09624,-0.4315 -1.8776,-1.23619 -0.76971,-0.80469 -1.2012,-1.94758 -0.41984,-1.14289 -0.41984,-2.56567 0,-1.41112 0.41984,-2.55401 0.43149,-1.14289 1.2012,-1.93592 0.78136,-0.79302 1.8776,-1.22452 1.09624,-0.4315 2.43739,-0.4315 z m 0,10.11108 q 1.49275,0 2.20414,-1.00295 0.72306,-1.00294 0.72306,-2.93886 0,-1.93591 -0.72306,-2.95052 -0.71139,-1.01461 -2.20414,-1.01461 -1.51608,0 -2.25079,1.02627 -0.72306,1.01461 -0.72306,2.93886 0,1.92426 0.72306,2.93886 0.73471,1.00295 2.25079,1.00295 z" />
    <path
       id="path895"
       style="font-style:normal;font-variant:normal;font-weight:bold;font-stretch:normal;font-size:23.32428551px;font-family:Lato;-inkscape-font-specification:'Lato, Bold';font-variant-ligatures:normal;font-variant-caps:normal;font-variant-numeric:normal;font-feature-settings:normal;text-align:start;writing-mode:lr-tb;text-anchor:start;fill:#ffffff;stroke-width:0.58310711"
       d="m 281.90863,259.76651 v 11.96536 h -1.76098 q -0.57145,0 -0.72305,-0.52479 l -0.19826,-0.9563 q -0.73471,0.74638 -1.62104,1.21286 -0.88632,0.45483 -2.08752,0.45483 -0.97962,0 -1.73766,-0.32654 -0.74638,-0.33821 -1.25951,-0.94464 -0.51314,-0.60643 -0.78137,-1.43444 -0.25656,-0.83967 -0.25656,-1.84262 v -7.60372 h 2.88055 v 7.60372 q 0,1.09624 0.50147,1.70267 0.51313,0.59477 1.52774,0.59477 0.74638,0 1.39946,-0.32654 0.65308,-0.3382 1.23618,-0.92131 v -8.65331 z" />
    <path
       id="path897"
       style="font-style:normal;font-variant:normal;font-weight:bold;font-stretch:normal;font-size:23.32428551px;font-family:Lato;-inkscape-font-specification:'Lato, Bold';font-variant-ligatures:normal;font-variant-caps:normal;font-variant-numeric:normal;font-feature-settings:normal;text-align:start;writing-mode:lr-tb;text-anchor:start;fill:#ffffff;stroke-width:0.58310711"
       d="m 288.75322,271.91847 q -1.56273,0 -2.4024,-0.87466 -0.82802,-0.88633 -0.82802,-2.43739 v -6.68241 h -1.22452 q -0.23324,0 -0.39651,-0.15161 -0.16327,-0.15161 -0.16327,-0.45482 v -1.14289 l 1.92425,-0.31488 0.60643,-3.2654 q 0.0583,-0.23324 0.22158,-0.36153 0.16327,-0.12828 0.41984,-0.12828 h 1.49275 v 3.76687 h 3.19543 v 2.05254 h -3.19543 v 6.48415 q 0,0.55978 0.26823,0.87466 0.27989,0.31488 0.75804,0.31488 0.26823,0 0.44316,-0.0583 0.1866,-0.07 0.31488,-0.13995 0.13995,-0.07 0.24491,-0.12828 0.10496,-0.07 0.20992,-0.07 0.12828,0 0.20991,0.07 0.0816,0.0583 0.17494,0.18659 l 0.86299,1.39946 q -0.62975,0.5248 -1.4461,0.79303 -0.81635,0.26823 -1.69101,0.26823 z" />
    <path
       id="path899"
       style="font-style:normal;font-variant:normal;font-weight:bold;font-stretch:normal;font-size:23.32428551px;font-family:Lato;-inkscape-font-specification:'Lato, Bold';font-variant-ligatures:normal;font-variant-caps:normal;font-variant-numeric:normal;font-feature-settings:normal;text-align:start;writing-mode:lr-tb;text-anchor:start;fill:#ffffff;stroke-width:0.58310711"
       d="m 301.03783,264.37306 q 0,-0.55978 -0.16327,-1.04959 -0.15161,-0.50147 -0.46649,-0.87466 -0.31488,-0.37319 -0.80469,-0.58311 -0.47815,-0.22158 -1.11956,-0.22158 -1.24785,0 -1.97091,0.71139 -0.71139,0.71139 -0.90964,2.01755 z m -5.49287,1.73766 q 0.07,0.92131 0.32654,1.59771 0.25656,0.66475 0.6764,1.10791 0.41984,0.4315 0.99128,0.65308 0.58311,0.20992 1.28284,0.20992 0.69973,0 1.2012,-0.16327 0.51313,-0.16327 0.88632,-0.36153 0.38485,-0.19826 0.66474,-0.36153 0.29156,-0.16327 0.55979,-0.16327 0.36152,0 0.53646,0.26823 l 0.82801,1.04959 q -0.47815,0.55979 -1.07292,0.94464 -0.59477,0.37319 -1.24785,0.60643 -0.64142,0.22158 -1.31782,0.31488 -0.66474,0.0933 -1.2945,0.0933 -1.24785,0 -2.32076,-0.40817 -1.07292,-0.41984 -1.86595,-1.22453 -0.79302,-0.81635 -1.24785,-2.00588 -0.45482,-1.2012 -0.45482,-2.77559 0,-1.22453 0.39651,-2.29745 0.39652,-1.08458 1.13123,-1.8776 0.74638,-0.80469 1.80763,-1.27117 1.07292,-0.46649 2.41407,-0.46649 1.13122,0 2.08752,0.36153 0.9563,0.36152 1.64436,1.06125 0.68807,0.68807 1.07292,1.70267 0.39651,1.00295 0.39651,2.29745 0,0.65308 -0.13994,0.88632 -0.13995,0.22158 -0.53646,0.22158 z" />
    <path
       id="path901"
       style="font-style:normal;font-variant:normal;font-weight:bold;font-stretch:normal;font-size:23.32428551px;font-family:Lato;-inkscape-font-specification:'Lato, Bold';font-variant-ligatures:normal;font-variant-caps:normal;font-variant-numeric:normal;font-feature-settings:normal;text-align:start;writing-mode:lr-tb;text-anchor:start;fill:#ffffff;stroke-width:0.58310711"
       d="m 308.48301,261.84238 q 0.55978,-1.07292 1.32948,-1.67935 0.76971,-0.6181 1.8193,-0.6181 0.82801,0 1.32948,0.36153 l -0.18659,2.1575 q -0.0583,0.20991 -0.17493,0.30321 -0.10496,0.0816 -0.29156,0.0816 -0.17493,0 -0.52479,-0.0583 -0.33821,-0.0583 -0.66475,-0.0583 -0.47814,0 -0.85133,0.13994 -0.37319,0.13995 -0.67641,0.40818 -0.29155,0.25656 -0.52479,0.62975 -0.22158,0.37319 -0.41984,0.85134 v 7.37047 h -2.88055 v -11.96536 h 1.69101 q 0.44316,0 0.61809,0.16327 0.17494,0.15161 0.23325,0.55979 z" />
  </g>
</svg>
