<?xml version="1.0" encoding="UTF-8" standalone="no"?>
<svg
   xmlns:dc="http://purl.org/dc/elements/1.1/"
   xmlns:cc="http://creativecommons.org/ns#"
   xmlns:rdf="http://www.w3.org/1999/02/22-rdf-syntax-ns#"
   xmlns:svg="http://www.w3.org/2000/svg"
   xmlns="http://www.w3.org/2000/svg"
   width="394.53293mm"
   height="350.62485mm"
   viewBox="0 0 394.53293 350.62485"
   id="svg_ffbsee"
   version="1.1">
  <defs
     id="defs4941" />
  <metadata
     id="metadata4944">
    <rdf:RDF>
      <cc:Work
         rdf:about="">
        <dc:format>image/svg+xml</dc:format>
        <dc:type
           rdf:resource="http://purl.org/dc/dcmitype/StillImage" />
        <dc:title></dc:title>
      </cc:Work>
    </rdf:RDF>
  </metadata>
  <g
     id="layer1"
     transform="translate(741.44775,-963.90521)">
    <flowRoot
       xml:space="preserve"
       id="flowRoot5900"
       style="font-style:normal;font-weight:normal;line-height:0.01%;font-family:sans-serif;letter-spacing:0px;word-spacing:0px;fill:#000000;fill-opacity:1;stroke:none;stroke-width:1px;stroke-linecap:butt;stroke-linejoin:miter;stroke-opacity:1"
       transform="translate(-681.15775,-187.48634)"><flowRegion
         id="flowRegion5902"><rect
           id="rect5904"
           width="1999.4039"
           height="179.43582"
           x="-4.5352678"
           y="1220.6235" /></flowRegion><flowPara
         id="flowPara5906"
         style="font-style:normal;font-variant:normal;font-weight:normal;font-stretch:normal;font-size:40px;line-height:1.25;font-family:Lato;-inkscape-font-specification:Lato"> </flowPara></flowRoot>    <rect
       y="963.90521"
       x="-741.44775"
       height="350.62485"
       width="394.53293"
       id="rect4177"
       style="opacity:1;fill:#000000;fill-opacity:1;stroke:none;stroke-width:0.03884429;stroke-miterlimit:3.5999999;stroke-dasharray:none;stroke-opacity:1" />
    <rect
       style="opacity:1;fill:#000000;fill-opacity:1;stroke:none;stroke-width:0.03465098;stroke-miterlimit:3.5999999;stroke-dasharray:none;stroke-opacity:1"
       id="rect4173"
       width="282.22168"
       height="199.5843"
       x="-685.57434"
       y="1037.4108" />
    <path
       style="color:#000000;font-style:normal;font-variant:normal;font-weight:normal;font-stretch:normal;font-size:medium;line-height:normal;font-family:sans-serif;text-indent:0;text-align:start;text-decoration:none;text-decoration-line:none;text-decoration-style:solid;text-decoration-color:#000000;letter-spacing:normal;word-spacing:normal;text-transform:none;writing-mode:lr-tb;direction:ltr;baseline-shift:baseline;text-anchor:start;white-space:normal;clip-rule:nonzero;display:inline;overflow:visible;visibility:visible;opacity:1;isolation:auto;mix-blend-mode:normal;color-interpolation:sRGB;color-interpolation-filters:linearRGB;solid-color:#000000;solid-opacity:1;fill:#de2c68;fill-opacity:1;fill-rule:nonzero;stroke:none;stroke-width:0.1989027;stroke-linecap:butt;stroke-linejoin:miter;stroke-miterlimit:4;stroke-dasharray:none;stroke-dashoffset:0;stroke-opacity:1;color-rendering:auto;image-rendering:auto;shape-rendering:auto;text-rendering:auto;enable-background:accumulate"
       d="m -477.92256,1057.673 c -27.18562,0 -49.22952,22.4332 -49.22952,50.0513 0,27.6181 22.0439,50.0513 49.22952,50.0513 27.18563,0 49.22951,-22.4332 49.22951,-50.0513 0,-27.6181 -22.04388,-50.0513 -49.22951,-50.0513 z m 0,2.3406 c 25.89906,0 46.8889,21.3363 46.8889,47.7107 0,26.3744 -20.98984,47.711 -46.8889,47.711 -25.89905,0 -46.8889,-21.3366 -46.8889,-47.711 0,-26.3744 20.98985,-47.7107 46.8889,-47.7107 z"
       id="circle3878" />
    <polygon
       id="polygon5867"
       transform="matrix(1.1826562,0,0,1.2239771,-525.24357,1055.4318)"
       points="88,47 75,47 81,41 73,41 64,50 73,59 81,59 75,53 88,53 "
       style="fill:#ffcc33;fill-opacity:1;stroke:#000000" />
    <path
       style="color:#000000;font-style:normal;font-variant:normal;font-weight:normal;font-stretch:normal;font-size:medium;line-height:normal;font-family:sans-serif;text-indent:0;text-align:start;text-decoration:none;text-decoration-line:none;text-decoration-style:solid;text-decoration-color:#000000;letter-spacing:normal;word-spacing:normal;text-transform:none;writing-mode:lr-tb;direction:ltr;baseline-shift:baseline;text-anchor:start;white-space:normal;clip-rule:nonzero;display:inline;overflow:visible;visibility:visible;opacity:1;isolation:auto;mix-blend-mode:normal;color-interpolation:sRGB;color-interpolation-filters:linearRGB;solid-color:#000000;solid-opacity:1;fill:#de2c68;fill-opacity:1;fill-rule:nonzero;stroke:#000000;stroke-width:0.1989027;stroke-linecap:butt;stroke-linejoin:miter;stroke-miterlimit:4;stroke-dasharray:none;stroke-dashoffset:0;stroke-opacity:1;color-rendering:auto;image-rendering:auto;shape-rendering:auto;text-rendering:auto;enable-background:accumulate"
       d="m -545.90896,1061.9617 c -23.63282,0 -42.79378,19.5488 -42.79378,43.6089 0,24.0602 19.16096,43.6087 42.79378,43.6087 23.63283,0 42.79351,-19.5485 42.79351,-43.6087 0,-24.0601 -19.16068,-43.6089 -42.79351,-43.6089 z m 0,2.1922 c 22.42495,0 40.60128,18.5186 40.60128,41.4167 0,22.8982 -18.17633,41.4167 -40.60128,41.4167 -22.42494,0 -40.60155,-18.5185 -40.60155,-41.4167 0,-22.8981 18.17661,-41.4167 40.60155,-41.4167 z"
       id="ellipse5364" />
    <path
       id="path3338"
       d="m -478.08865,1207.7526 c -1.08728,-0.149 -2.12824,-0.3838 -2.31338,-0.5218 -0.18506,-0.138 -1.36059,-1.0224 -2.61224,-1.9654 -2.65587,-2.0009 -4.8324,-2.9641 -7.00754,-3.1011 -0.97689,-0.062 -1.8453,-0.3917 -2.33192,-0.8865 -0.42643,-0.4338 -1.66596,-0.9873 -2.75455,-1.2301 -2.22099,-0.4955 -2.75989,-0.9906 -3.5439,-3.2564 -0.49079,-1.4185 -0.72342,-1.6413 -2.3397,-2.2415 -2.88835,-1.0725 -4.33788,-1.7427 -5.83134,-2.6961 -0.77103,-0.4922 -1.53699,-0.868 -1.70209,-0.8351 -0.16509,0.033 -1.86881,-0.9389 -3.78604,-2.1598 -1.91728,-1.2208 -4.14139,-2.4825 -4.94246,-2.8038 -1.75484,-0.7037 -2.75612,-2.4374 -2.91332,-5.0443 -0.0574,-0.9516 -0.33632,-2.3385 -0.61963,-3.0821 -0.44135,-1.1575 -0.81342,-1.474 -2.58775,-2.2014 -1.13971,-0.4673 -2.32055,-0.8001 -2.62406,-0.7395 -0.30345,0.061 -0.65808,0 -0.788,-0.1432 -0.12992,-0.1394 -1.85795,-0.6914 -3.84015,-1.2268 -1.98217,-0.5353 -3.84324,-1.1673 -4.13572,-1.4044 -0.29246,-0.2371 -0.78684,-0.3826 -1.09853,-0.3233 -0.3117,0.059 -0.94721,-0.017 -1.41224,-0.1701 -3.67027,-1.2058 -5.49906,-1.9546 -7.70866,-3.1563 -5.4966,-2.9895 -5.61633,-3.0357 -10.66234,-4.1191 -1.7118,-0.3675 -8.01679,-2.0637 -11.26664,-3.0311 -1.58501,-0.4718 -3.60496,-0.814 -4.48879,-0.7605 -1.64107,0.099 -5.36538,-0.6165 -5.83671,-1.122 -0.33533,-0.3596 -5.48276,-1.7801 -6.04444,-1.668 -0.23381,0.047 -1.62047,-0.2231 -3.08142,-0.5994 -2.89621,-0.7461 -5.14861,-2.3116 -6.12939,-4.2602 -0.3094,-0.6146 -0.85029,-1.3096 -1.20198,-1.5443 -0.96251,-0.6424 -4.58317,0.1946 -6.35386,1.4688 -3.5147,2.529 -5.01155,3.1773 -7.40963,3.2089 -1.23466,0.016 -3.82891,0.2418 -5.76499,0.5012 -3.26148,0.4369 -3.65195,0.4099 -5.31384,-0.3671 -1.57402,-0.736 -1.95832,-0.776 -3.13718,-0.3264 -0.73892,0.2818 -5.72826,1.3603 -11.0874,2.3966 -9.69334,1.8745 -9.75121,1.8903 -11.14201,3.0372 -0.76896,0.6341 -2.1748,1.5113 -3.12419,1.9494 -1.94841,0.8992 -3.84364,2.2986 -4.29129,3.1686 -0.92576,1.7993 -4.06386,5.3949 -5.05691,5.7943 -0.61581,0.2476 -1.55352,0.9271 -2.08378,1.5099 -0.53029,0.5828 -1.1646,1.0996 -1.40959,1.1485 -0.245,0.049 -0.89529,0.5033 -1.44509,1.0098 -0.54979,0.5065 -1.5741,1.0361 -2.27618,1.1769 -0.86984,0.1745 -1.5643,0.616 -2.17989,1.3861 -0.59451,0.7437 -1.45058,1.3005 -2.50386,1.6286 -0.96896,0.3018 -1.86195,0.8539 -2.26313,1.3991 -0.9475,1.2876 -4.16952,1.9193 -5.73586,1.1244 -0.61319,-0.3112 -1.58011,-0.5748 -2.14872,-0.5857 -0.56856,-0.011 -1.3552,-0.2584 -1.74803,-0.5499 -0.40706,-0.302 -1.46222,-0.4848 -2.45332,-0.4251 -2.1518,0.1298 -3.09912,-0.4723 -2.24855,-1.4291 0.45052,-0.5068 1.18686,-0.7235 3.31405,-0.9752 1.50414,-0.1779 3.1672,-0.2509 3.69573,-0.1621 1.66263,0.2793 3.43774,-0.2986 6.08832,-1.982 1.41144,-0.8963 3.50309,-2.1098 4.64819,-2.6966 1.14502,-0.5868 2.21969,-1.2734 2.38815,-1.5258 0.1685,-0.2525 0.56399,-0.5104 0.87896,-0.5732 0.31495,-0.063 1.19713,-0.9808 1.96037,-2.0399 0.76325,-1.0591 1.97734,-2.345 2.69802,-2.8576 0.72067,-0.5126 1.38121,-1.1222 1.46781,-1.3547 0.0866,-0.2325 0.5701,-0.5051 1.0744,-0.6057 1.52682,-0.3046 9.17341,-12.4332 8.85256,-14.0415 -0.0834,-0.4181 -0.62697,-1.019 -1.20791,-1.3353 -0.58093,-0.3163 -1.38153,-0.7726 -1.77913,-1.0139 -0.39763,-0.2413 -1.34505,-0.4316 -2.1054,-0.4229 -0.76036,0.01 -1.80774,-0.2 -2.32755,-0.4637 -0.51978,-0.2638 -1.46727,-0.4861 -2.10557,-0.494 -0.6383,-0.01 -1.43453,-0.1651 -1.76944,-0.3492 -0.33492,-0.1841 -1.27378,-0.4065 -2.08641,-0.4942 -0.81262,-0.088 -1.72888,-0.2914 -2.03611,-0.4527 -0.57732,-0.303 -2.53932,-0.9204 -5.32767,-1.6764 -0.88249,-0.2392 -2.03344,-0.8388 -2.55774,-1.3322 l -0.95326,-0.8972 1.23495,-1.6751 c 1.34222,-1.8205 5.01398,-4.1229 6.46663,-4.0548 4.38246,0.2054 4.72712,0.2689 9.08409,1.6722 3.0061,0.9682 4.70315,0.9293 4.49718,-0.1031 -0.106,-0.5313 -3.21207,-2.3118 -3.82108,-2.1903 -0.31039,0.062 -3.62614,-1.3902 -4.15709,-1.8206 -0.38415,-0.3114 -0.37441,-0.6409 0.0433,-1.464 0.29645,-0.5842 0.73902,-1.1021 0.98342,-1.1509 0.47574,-0.095 3.33168,0.7038 5.10431,1.4273 2.59537,1.0595 5.98067,2.0767 10.66567,3.2047 1.04407,0.2514 2.84144,0.6891 3.99414,0.9727 1.15273,0.2836 2.28971,0.4769 2.52663,0.4297 0.23693,-0.047 1.07684,0.1104 1.86651,0.3505 0.78962,0.24 1.67496,0.3887 1.96743,0.3303 0.2924,-0.058 1.15208,0.082 1.91035,0.313 0.7583,0.2306 2.07465,0.4652 2.92519,0.5215 3.36713,0.223 9.83755,3.8728 10.21437,5.7616 0.29718,1.4896 -0.76984,2.0737 -4.76701,2.6094 l -3.56585,0.4779 -2.06512,-1.2145 c -3.66461,-2.155 -4.3162,-2.3656 -6.89291,-2.228 -3.5078,0.1873 -3.3615,0.098 -3.01434,1.8382 0.47363,2.3742 1.15858,3.0783 3.12174,3.209 0.93353,0.062 1.99244,0.2782 2.35314,0.4801 0.36067,0.202 1.60659,0.3329 2.76871,0.291 1.1621,-0.042 2.57469,0.015 3.13911,0.1263 0.58134,0.1147 1.57471,-0.011 2.29155,-0.2892 0.69593,-0.2704 2.56699,-0.9309 4.15791,-1.4678 3.99188,-1.3473 4.55687,-1.1732 7.15415,2.2042 1.63658,2.1282 2.31218,2.7215 3.63195,3.1895 l 1.62136,0.575 1.82714,-1.1886 c 1.00492,-0.6537 2.12849,-1.582 2.49679,-2.0629 0.59737,-0.7799 1.06464,-0.9432 4.32807,-1.5119 2.58197,-0.4501 4.01852,-0.5332 4.88228,-0.2827 1.19978,0.3479 9.14774,-0.4982 10.06518,-1.0716 0.63535,-0.397 0.1462,-1.9149 -1.05822,-3.2842 -0.60806,-0.6913 -1.32312,-1.8077 -1.58902,-2.4809 -0.62269,-1.5765 -3.20036,-3.7429 -6.35636,-5.3421 -1.41879,-0.719 -2.79925,-1.7168 -3.2015,-2.3141 -0.38895,-0.5775 -1.1473,-1.3356 -1.68518,-1.6847 -0.97246,-0.631 -1.1543,-1.0169 -3.48572,-7.399 -0.94897,-2.5979 -2.11179,-3.8622 -4.5162,-4.9103 -6.17036,-2.6899 -5.95308,-2.6325 -8.63019,-2.2773 -2.74911,0.3648 -4.17431,-0.01 -7.31397,-1.8985 -2.18883,-1.32 -4.40272,-2.0197 -8.67918,-2.7429 -1.95436,-0.3305 -3.74979,-0.6806 -3.98983,-0.7781 -0.24007,-0.098 -0.94982,-0.3942 -1.57722,-0.6593 -1.306,-0.552 -14.28468,-9.3161 -14.36302,-9.6989 -0.0277,-0.139 -0.47489,-0.4231 -0.99221,-0.6316 -1.10768,-0.4464 -2.1566,-2.8863 -1.77778,-4.1353 0.12971,-0.4276 1.01458,-1.3558 1.9664,-2.0627 1.39538,-1.0363 2.02428,-1.2962 3.24673,-1.342 1.74565,-0.065 2.53013,0.2013 5.98142,2.0323 3.74697,1.9879 4.83728,2.4913 5.22686,2.4136 0.19406,-0.039 0.86877,0.2111 1.49927,0.555 0.63051,0.344 1.56158,0.6685 2.06907,0.7212 0.50748,0.053 1.33792,0.3047 1.84541,0.5599 0.50754,0.2552 1.38438,0.473 1.9486,0.4839 0.56424,0.011 1.462,0.3309 1.99503,0.7112 0.53305,0.3803 1.11829,0.6617 1.30054,0.6254 0.18223,-0.036 1.66104,0.7926 3.28623,1.8422 5.14555,3.3231 4.96302,3.2514 7.58556,2.9783 1.55997,-0.1626 2.76487,-0.071 3.47534,0.2628 0.59818,0.2814 1.28101,0.4731 1.5174,0.4259 0.23646,-0.047 1.05907,0.1709 1.82808,0.4846 3.77704,1.5408 5.29482,2.0701 5.70269,1.9887 0.24552,-0.049 1.1006,0.187 1.90021,0.5245 0.79963,0.3374 1.83755,0.5369 2.30639,0.4434 0.46893,-0.093 1.31266,0.063 1.875,0.3488 0.56237,0.2854 1.25483,0.4725 1.53877,0.4159 0.67561,-0.1348 3.59946,0.9532 5.58979,2.0801 1.12525,0.6371 1.70536,1.2461 2.02514,2.1259 0.24648,0.6782 0.80622,1.8936 1.24387,2.7008 0.43762,0.8072 1.01557,2.0484 1.28436,2.7581 0.38955,1.0289 1.10651,1.692 3.53567,3.2703 1.67587,1.0889 3.8144,2.2801 4.75227,2.6471 0.93793,0.367 2.51669,1.0657 3.50833,1.5527 0.99167,0.4869 2.4145,1.097 3.16185,1.3557 0.74732,0.2587 2.15429,0.7892 3.12654,1.179 0.9723,0.3898 3.14895,1.1099 4.83704,1.6002 1.68808,0.4904 3.50058,1.1094 4.02776,1.3757 0.5272,0.2663 1.21129,0.4344 1.5202,0.3735 0.30888,-0.061 1.59354,0.1702 2.8547,0.5134 1.26116,0.3433 2.46444,0.5905 2.67393,0.5495 0.20942,-0.041 0.7093,0.169 1.11066,0.4668 0.40137,0.2978 1.31372,0.5348 2.0274,0.5266 0.71368,-0.01 2.14263,0.2326 3.17545,0.5351 2.30754,0.6757 4.51128,0.1118 7.1456,-1.8286 0.95325,-0.7021 2.0128,-1.334 2.3546,-1.4041 0.34189,-0.07 1.14349,-0.5356 1.78149,-1.0343 1.38986,-1.0864 3.34674,-1.815 6.88771,-2.5643 2.95028,-0.6244 5.59555,-0.214 6.85096,1.0628 0.71482,0.727 1.94673,0.9405 7.06375,1.2244 6.38201,0.3541 6.67906,0.3384 8.2441,-0.4335 0.81063,-0.3999 1.92499,-0.8171 2.47636,-0.9271 1.80951,-0.361 5.31445,0.9755 8.64108,3.295 2.99272,2.0866 3.24329,2.3612 5.0268,5.5093 1.31337,2.3183 2.14631,3.4218 2.77374,3.6746 1.00277,0.4042 1.58696,1.2071 2.92079,4.0143 0.77298,1.6269 1.28618,2.1626 3.34273,3.4895 2.19722,1.4177 3.05207,1.8149 5.9835,2.7803 2.45052,0.807 7.07021,-0.4789 9.15376,-2.5481 1.10336,-1.0958 1.62141,-1.3752 2.56972,-1.3861 1.38014,-0.016 3.61924,1.4124 4.21855,2.6908 0.22806,0.4865 0.76738,1.0954 1.19845,1.353 0.43108,0.2576 0.82465,0.6733 0.87462,0.9237 0.17357,0.87 1.67113,0.9851 3.89583,0.2993 1.99218,-0.614 2.18219,-0.6108 2.71576,0.047 0.73984,0.9118 1.23825,1.1043 2.31819,0.8957 0.55219,-0.1065 1.63449,0.2902 2.91882,1.0702 l 2.04126,1.2398 4.45391,-0.6182 c 4.12798,-0.573 4.56102,-0.5659 5.91691,0.097 0.80462,0.3934 1.44049,0.9082 1.41298,1.144 -0.0275,0.2358 -0.57979,0.8254 -1.22727,1.3102 -1.57778,1.1813 -1.24997,2.0879 0.67434,1.8651 1.23338,-0.1428 1.4819,-0.3304 2.21948,-1.6757 0.54286,-0.9903 1.33155,-1.7806 2.27712,-2.2819 3.35672,-1.7794 5.94625,-1.2505 9.08955,1.8564 1.17017,1.1566 2.76742,2.4632 3.54939,2.9035 0.78194,0.4404 2.61461,1.4572 4.07247,2.2597 2.78125,1.5308 3.58625,2.464 4.02565,4.6665 0.1961,0.983 0.0585,1.6842 -0.52428,2.671 l -0.79026,1.3379 -6.01906,1.216 c -3.31044,0.6689 -6.2148,1.2888 -6.45399,1.3779 -0.23928,0.089 -1.03554,0.9892 -1.76951,2.0003 -1.46594,2.0191 -3.8435,4.2546 -4.70888,4.4272 -0.30387,0.061 -0.93813,-0.2194 -1.40942,-0.6224 -0.47126,-0.4029 -1.11863,-0.6804 -1.43846,-0.6166 -0.72287,0.1442 -2.3922,2.7615 -2.90542,4.5553 -0.21113,0.7378 -0.78541,1.9096 -1.27621,2.6038 l -0.89243,1.2624 -1.69167,-1.289 c -1.64274,-1.2517 -1.69781,-1.3477 -1.90683,-3.3241 l -0.21516,-2.0353 -1.03742,0.207 c -0.57059,0.1138 -1.01052,0.3421 -0.97754,0.5074 0.10384,0.5204 -2.70052,4.5412 -3.74095,5.3637 -0.54749,0.4328 -1.52748,1.5117 -2.17773,2.3976 -1.84031,2.5071 -3.24382,2.8895 -8.17214,2.2261 -2.11142,-0.2842 -2.80528,-0.5573 -3.69379,-1.4539 -1.06723,-1.0771 -2.48717,-1.2913 -2.81034,-0.4241 -0.0747,0.2007 -0.69005,0.3848 -1.36737,0.4092 -1.12569,0.041 -1.23513,0.1343 -1.27409,1.0912 -0.0234,0.5757 -0.23288,1.4913 -0.46552,2.0347 -0.23257,0.5434 -0.49546,1.6071 -0.58419,2.364 -0.22297,1.9017 -2.53086,4.5813 -4.80028,5.5734 -0.95326,0.4167 -3.19384,1.1808 -4.97912,1.6979 -1.78525,0.5172 -3.46193,1.0803 -3.72601,1.2514 -0.264,0.1712 -1.3696,0.1893 -2.45683,0.04 z"
       style="fill:#009ee0;fill-opacity:1;stroke:#000000;stroke-width:0.78673851;stroke-linecap:square;stroke-linejoin:miter;stroke-miterlimit:4;stroke-dasharray:none" />
    <path
       style="color:#000000;font-style:normal;font-variant:normal;font-weight:normal;font-stretch:normal;font-size:medium;line-height:normal;font-family:sans-serif;text-indent:0;text-align:start;text-decoration:none;text-decoration-line:none;text-decoration-style:solid;text-decoration-color:#000000;letter-spacing:normal;word-spacing:normal;text-transform:none;writing-mode:lr-tb;direction:ltr;baseline-shift:baseline;text-anchor:start;white-space:normal;clip-rule:nonzero;display:inline;overflow:visible;visibility:visible;opacity:1;isolation:auto;mix-blend-mode:normal;color-interpolation:sRGB;color-interpolation-filters:linearRGB;solid-color:#000000;solid-opacity:1;fill:#de2c68;fill-opacity:1;fill-rule:nonzero;stroke:#000000;stroke-width:0.97860134;stroke-linecap:butt;stroke-linejoin:miter;stroke-miterlimit:4;stroke-dasharray:none;stroke-dashoffset:0;stroke-opacity:1;color-rendering:auto;image-rendering:auto;shape-rendering:auto;text-rendering:auto;enable-background:accumulate"
       d="m -478.12766,1037.8992 c -18.36929,0 -35.98814,7.3744 -48.95972,20.4731 -12.97158,13.0987 -20.24902,30.852 -20.24902,49.352 0,18.5 7.27744,36.253 20.24902,49.3518 12.97158,13.0987 30.59043,20.4731 48.95972,20.4731 18.3693,0 35.98815,-7.3744 48.95973,-20.4731 12.97157,-13.0988 20.24901,-30.852 20.24901,-49.3521 0,-18.5 -7.27744,-36.253 -20.24901,-49.3517 -12.97158,-13.0987 -30.59043,-20.4731 -48.95973,-20.4731 z m 0,12.6628 c 14.98288,0 29.35034,6.0047 39.96231,16.7207 10.61195,10.716 16.58363,25.2626 16.58363,40.4416 0,15.179 -5.97168,29.7254 -16.58363,40.4413 -10.61197,10.716 -24.97943,16.7208 -39.96231,16.7208 -14.98287,0 -29.35005,-6.0048 -39.96202,-16.7208 -10.61197,-10.7159 -16.58365,-25.2623 -16.58365,-40.4413 0,-15.179 5.97168,-29.7256 16.58365,-40.4416 10.61197,-10.716 24.97915,-16.7207 39.96202,-16.7207 z"
       id="ellipse5485" />
    <polygon
       style="fill:#ffcc33;fill-opacity:1"
       points="73,59 81,59 75,53 88,53 88,47 75,47 81,41 73,41 64,50 "
       transform="matrix(-1.0237983,0,0,1.0595688,-489.32097,1064.0849)"
       id="polygon5366" />
    <path
       id="path914"
       style="font-style:normal;font-variant:normal;font-weight:bold;font-stretch:normal;font-size:21.93343925px;line-height:1.25;font-family:Lato;-inkscape-font-specification:'Lato, Bold';font-variant-ligatures:normal;font-variant-caps:normal;font-variant-numeric:normal;font-feature-settings:normal;text-align:start;letter-spacing:0px;word-spacing:0px;writing-mode:lr-tb;text-anchor:start;opacity:1;vector-effect:none;fill:#de2c68;fill-opacity:1;stroke:none;stroke-width:0.97860134;stroke-linecap:butt;stroke-linejoin:miter;stroke-miterlimit:4;stroke-dasharray:none;stroke-dashoffset:0;stroke-opacity:1"
       d="m -683.18088,1221.9388 v 4.6938 h 5.94397 v 2.3578 h -5.94397 v 6.4594 h -2.96101 v -15.8578 h 10.00165 v 2.3468 z" />
    <path
       id="path916"
       style="font-style:normal;font-variant:normal;font-weight:bold;font-stretch:normal;font-size:21.93343925px;line-height:1.25;font-family:Lato;-inkscape-font-specification:'Lato, Bold';font-variant-ligatures:normal;font-variant-caps:normal;font-variant-numeric:normal;font-feature-settings:normal;text-align:start;letter-spacing:0px;word-spacing:0px;writing-mode:lr-tb;text-anchor:start;opacity:1;vector-effect:none;fill:#de2c68;fill-opacity:1;stroke:none;stroke-width:0.97860134;stroke-linecap:butt;stroke-linejoin:miter;stroke-miterlimit:4;stroke-dasharray:none;stroke-dashoffset:0;stroke-opacity:1"
       d="m -672.49072,1226.1501 q 0.5264,-1.009 1.2502,-1.5793 0.72381,-0.5812 1.71081,-0.5812 0.77864,0 1.25021,0.34 l -0.17547,2.0288 q -0.0548,0.1974 -0.1645,0.2852 -0.0987,0.077 -0.27417,0.077 -0.1645,0 -0.4935,-0.055 -0.31804,-0.055 -0.6251,-0.055 -0.44964,0 -0.80057,0.1316 -0.35094,0.1316 -0.63607,0.3838 -0.27417,0.2413 -0.49351,0.5922 -0.20836,0.3509 -0.3948,0.8006 v 6.9309 h -2.70878 v -11.2518 h 1.59018 q 0.41673,0 0.58123,0.1535 0.1645,0.1426 0.21934,0.5264 z" />
    <path
       id="path918"
       style="font-style:normal;font-variant:normal;font-weight:bold;font-stretch:normal;font-size:21.93343925px;line-height:1.25;font-family:Lato;-inkscape-font-specification:'Lato, Bold';font-variant-ligatures:normal;font-variant-caps:normal;font-variant-numeric:normal;font-feature-settings:normal;text-align:start;letter-spacing:0px;word-spacing:0px;writing-mode:lr-tb;text-anchor:start;opacity:1;vector-effect:none;fill:#de2c68;fill-opacity:1;stroke:none;stroke-width:0.97860134;stroke-linecap:butt;stroke-linejoin:miter;stroke-miterlimit:4;stroke-dasharray:none;stroke-dashoffset:0;stroke-opacity:1"
       d="m -659.91464,1228.5298 q 0,-0.5264 -0.15353,-0.987 -0.14257,-0.4715 -0.43867,-0.8225 -0.2961,-0.3509 -0.7567,-0.5483 -0.44964,-0.2084 -1.05281,-0.2084 -1.17344,0 -1.85338,0.669 -0.66896,0.669 -0.8554,1.8972 z m -5.16532,1.6341 q 0.0658,0.8663 0.30707,1.5024 0.24126,0.6251 0.63607,1.0418 0.3948,0.4058 0.93217,0.6142 0.54833,0.1974 1.20634,0.1974 0.658,0 1.12957,-0.1535 0.48253,-0.1536 0.83347,-0.34 0.3619,-0.1865 0.6251,-0.34 0.27417,-0.1535 0.5264,-0.1535 0.33997,0 0.50447,0.2522 l 0.77864,0.987 q -0.44964,0.5264 -1.00894,0.8883 -0.5593,0.351 -1.17344,0.5703 -0.60317,0.2084 -1.23924,0.2961 -0.6251,0.088 -1.2173,0.088 -1.17344,0 -2.18238,-0.3838 -1.00894,-0.3948 -1.75467,-1.1515 -0.74574,-0.7677 -1.17344,-1.8863 -0.42771,-1.1296 -0.42771,-2.6101 0,-1.1515 0.37287,-2.1604 0.37287,-1.0199 1.06377,-1.7657 0.70187,-0.7567 1.69985,-1.1953 1.00893,-0.4387 2.27011,-0.4387 1.06377,0 1.96304,0.34 0.89927,0.3399 1.54631,0.9979 0.64703,0.6471 1.00894,1.6012 0.37286,0.9431 0.37286,2.1604 0,0.6142 -0.1316,0.8335 -0.1316,0.2084 -0.50447,0.2084 z" />
    <path
       id="path920"
       style="font-style:normal;font-variant:normal;font-weight:bold;font-stretch:normal;font-size:21.93343925px;line-height:1.25;font-family:Lato;-inkscape-font-specification:'Lato, Bold';font-variant-ligatures:normal;font-variant-caps:normal;font-variant-numeric:normal;font-feature-settings:normal;text-align:start;letter-spacing:0px;word-spacing:0px;writing-mode:lr-tb;text-anchor:start;opacity:1;vector-effect:none;fill:#de2c68;fill-opacity:1;stroke:none;stroke-width:0.97860134;stroke-linecap:butt;stroke-linejoin:miter;stroke-miterlimit:4;stroke-dasharray:none;stroke-dashoffset:0;stroke-opacity:1"
       d="m -652.66118,1224.198 v 11.2518 h -2.71975 v -11.2518 z m 0.37287,-3.2791 q 0,0.351 -0.14257,0.658 -0.14256,0.3071 -0.38383,0.5374 -0.2303,0.2303 -0.54834,0.3729 -0.31803,0.1316 -0.67994,0.1316 -0.35093,0 -0.66897,-0.1316 -0.30706,-0.1426 -0.53736,-0.3729 -0.23031,-0.2303 -0.37287,-0.5374 -0.1316,-0.307 -0.1316,-0.658 0,-0.3619 0.1316,-0.6799 0.14256,-0.318 0.37287,-0.5483 0.2303,-0.2303 0.53736,-0.3619 0.31804,-0.1426 0.66897,-0.1426 0.36191,0 0.67994,0.1426 0.31804,0.1316 0.54834,0.3619 0.24127,0.2303 0.38383,0.5483 0.14257,0.318 0.14257,0.6799 z" />
    <path
       id="path922"
       style="font-style:normal;font-variant:normal;font-weight:bold;font-stretch:normal;font-size:21.93343925px;line-height:1.25;font-family:Lato;-inkscape-font-specification:'Lato, Bold';font-variant-ligatures:normal;font-variant-caps:normal;font-variant-numeric:normal;font-feature-settings:normal;text-align:start;letter-spacing:0px;word-spacing:0px;writing-mode:lr-tb;text-anchor:start;opacity:1;vector-effect:none;fill:#de2c68;fill-opacity:1;stroke:none;stroke-width:0.97860134;stroke-linecap:butt;stroke-linejoin:miter;stroke-miterlimit:4;stroke-dasharray:none;stroke-dashoffset:0;stroke-opacity:1"
       d="m -649.11002,1235.4498 v -9.212 l -0.97604,-0.1535 q -0.31803,-0.066 -0.51543,-0.2194 -0.18644,-0.1645 -0.18644,-0.4606 v -1.1076 h 1.67791 v -0.8335 q 0,-0.9651 0.28513,-1.7327 0.29611,-0.7677 0.83347,-1.3051 0.54834,-0.5373 1.32698,-0.8225 0.77864,-0.2851 1.75467,-0.2851 0.77864,0 1.44761,0.2084 l -0.0548,1.3598 q -0.011,0.1536 -0.0877,0.2523 -0.0768,0.088 -0.20836,0.1425 -0.12064,0.044 -0.28514,0.066 -0.1645,0.011 -0.35093,0.011 -0.48254,0 -0.86638,0.1097 -0.37286,0.099 -0.63607,0.3619 -0.2632,0.2522 -0.40576,0.6799 -0.1316,0.4167 -0.1316,1.0418 v 0.7458 h 2.92811 v 1.9301 h -2.84038 v 9.223 z" />
    <path
       id="path924"
       style="font-style:normal;font-variant:normal;font-weight:bold;font-stretch:normal;font-size:21.93343925px;line-height:1.25;font-family:Lato;-inkscape-font-specification:'Lato, Bold';font-variant-ligatures:normal;font-variant-caps:normal;font-variant-numeric:normal;font-feature-settings:normal;text-align:start;letter-spacing:0px;word-spacing:0px;writing-mode:lr-tb;text-anchor:start;opacity:1;vector-effect:none;fill:#de2c68;fill-opacity:1;stroke:none;stroke-width:0.97860134;stroke-linecap:butt;stroke-linejoin:miter;stroke-miterlimit:4;stroke-dasharray:none;stroke-dashoffset:0;stroke-opacity:1"
       d="m -632.32271,1224.198 v 11.2518 h -1.65598 q -0.53737,0 -0.67993,-0.4935 l -0.18644,-0.8992 q -0.6909,0.7018 -1.52437,1.1405 -0.83347,0.4277 -1.96304,0.4277 -0.92121,0 -1.63405,-0.3071 -0.70187,-0.318 -1.1844,-0.8883 -0.48254,-0.5702 -0.73477,-1.3489 -0.24127,-0.7896 -0.24127,-1.7327 v -7.1503 h 2.70878 v 7.1503 q 0,1.0308 0.47157,1.6011 0.48253,0.5593 1.43664,0.5593 0.70187,0 1.31601,-0.307 0.61413,-0.3181 1.16247,-0.8664 v -8.1373 z" />
    <path
       id="path926"
       style="font-style:normal;font-variant:normal;font-weight:bold;font-stretch:normal;font-size:21.93343925px;line-height:1.25;font-family:Lato;-inkscape-font-specification:'Lato, Bold';font-variant-ligatures:normal;font-variant-caps:normal;font-variant-numeric:normal;font-feature-settings:normal;text-align:start;letter-spacing:0px;word-spacing:0px;writing-mode:lr-tb;text-anchor:start;opacity:1;vector-effect:none;fill:#de2c68;fill-opacity:1;stroke:none;stroke-width:0.97860134;stroke-linecap:butt;stroke-linejoin:miter;stroke-miterlimit:4;stroke-dasharray:none;stroke-dashoffset:0;stroke-opacity:1"
       d="m -627.10358,1225.5798 q 0.33997,-0.34 0.71283,-0.6251 0.38384,-0.2961 0.80057,-0.4935 0.42771,-0.2084 0.91024,-0.3181 0.48254,-0.1206 1.05281,-0.1206 0.9212,0 1.63404,0.318 0.71284,0.3071 1.1844,0.8774 0.48254,0.5593 0.72381,1.3489 0.25223,0.7786 0.25223,1.7218 v 7.1612 h -2.70878 v -7.1612 q 0,-1.0309 -0.47157,-1.5902 -0.47156,-0.5703 -1.43664,-0.5703 -0.70187,0 -1.316,0.3181 -0.61414,0.318 -1.16247,0.8663 v 8.1373 h -2.70878 v -11.2518 h 1.65597 q 0.5264,0 0.6909,0.4935 z" />
    <path
       id="path928"
       style="font-style:normal;font-variant:normal;font-weight:bold;font-stretch:normal;font-size:21.93343925px;line-height:1.25;font-family:Lato;-inkscape-font-specification:'Lato, Bold';font-variant-ligatures:normal;font-variant-caps:normal;font-variant-numeric:normal;font-feature-settings:normal;text-align:start;letter-spacing:0px;word-spacing:0px;writing-mode:lr-tb;text-anchor:start;opacity:1;vector-effect:none;fill:#de2c68;fill-opacity:1;stroke:none;stroke-width:0.97860134;stroke-linecap:butt;stroke-linejoin:miter;stroke-miterlimit:4;stroke-dasharray:none;stroke-dashoffset:0;stroke-opacity:1"
       d="m -614.54772,1219.1533 v 9.3327 h 0.50447 q 0.27417,0 0.4277,-0.066 0.1645,-0.077 0.32901,-0.2961 l 2.79651,-3.4546 q 0.17547,-0.2303 0.38383,-0.3509 0.21934,-0.1206 0.55931,-0.1206 h 2.47848 l -3.49839,4.1783 q -0.37287,0.4935 -0.81154,0.7567 0.23031,0.1645 0.40577,0.3838 0.18644,0.2194 0.35094,0.4716 l 3.75062,5.4614 h -2.44558 q -0.31804,0 -0.54834,-0.099 -0.2303,-0.1096 -0.38383,-0.3838 l -2.87328,-4.2661 q -0.15354,-0.2522 -0.31804,-0.329 -0.1645,-0.077 -0.4935,-0.077 h -0.61414 v 5.1543 h -2.70878 v -16.2965 z" />
    <path
       id="path930"
       style="font-style:normal;font-variant:normal;font-weight:bold;font-stretch:normal;font-size:21.93343925px;line-height:1.25;font-family:Lato;-inkscape-font-specification:'Lato, Bold';font-variant-ligatures:normal;font-variant-caps:normal;font-variant-numeric:normal;font-feature-settings:normal;text-align:start;letter-spacing:0px;word-spacing:0px;writing-mode:lr-tb;text-anchor:start;opacity:1;vector-effect:none;fill:#009ee0;fill-opacity:1;stroke:none;stroke-width:0.78673851;stroke-linecap:square;stroke-linejoin:miter;stroke-miterlimit:4;stroke-dasharray:none;stroke-dashoffset:0;stroke-opacity:1"
       d="m -593.84598,1233.1468 q 0.8225,0 1.38181,-0.1974 0.5593,-0.1974 0.8883,-0.5264 0.33997,-0.329 0.48254,-0.7677 0.15353,-0.4386 0.15353,-0.9321 0,-0.5155 -0.1645,-0.9212 -0.1645,-0.4168 -0.51544,-0.7019 -0.35093,-0.2961 -0.91023,-0.4496 -0.54834,-0.1536 -1.32698,-0.1536 h -2.97198 v 4.6499 z m -2.98295,-11.2738 v 4.5841 h 2.34688 q 1.51341,0 2.28108,-0.5483 0.77864,-0.5484 0.77864,-1.7437 0,-1.2393 -0.70187,-1.7657 -0.70187,-0.5264 -2.19335,-0.5264 z m 2.51138,-2.281 q 1.55728,0 2.66491,0.2961 1.10764,0.2961 1.80951,0.8444 0.71284,0.5483 1.04184,1.327 0.329,0.7786 0.329,1.7546 0,0.5593 -0.1645,1.0748 -0.1645,0.5044 -0.51543,0.9541 -0.33997,0.4387 -0.87734,0.8006 -0.5264,0.3619 -1.26117,0.6141 3.26808,0.7348 3.26808,3.5313 0,1.0089 -0.38384,1.8643 -0.38383,0.8554 -1.1186,1.4805 -0.73477,0.6142 -1.80951,0.9651 -1.07474,0.3509 -2.45655,0.3509 h -5.98782 v -15.8578 z" />
    <path
       id="path932"
       style="font-style:normal;font-variant:normal;font-weight:bold;font-stretch:normal;font-size:21.93343925px;line-height:1.25;font-family:Lato;-inkscape-font-specification:'Lato, Bold';font-variant-ligatures:normal;font-variant-caps:normal;font-variant-numeric:normal;font-feature-settings:normal;text-align:start;letter-spacing:0px;word-spacing:0px;writing-mode:lr-tb;text-anchor:start;opacity:1;vector-effect:none;fill:#009ee0;fill-opacity:1;stroke:none;stroke-width:0.78673851;stroke-linecap:square;stroke-linejoin:miter;stroke-miterlimit:4;stroke-dasharray:none;stroke-dashoffset:0;stroke-opacity:1"
       d="m -580.96248,1224.0225 q 1.2502,0 2.27011,0.4058 1.03087,0.4057 1.75467,1.1515 0.73477,0.7457 1.12958,1.8205 0.3948,1.0747 0.3948,2.4017 0,1.3379 -0.3948,2.4126 -0.39481,1.0748 -1.12958,1.8315 -0.7238,0.7567 -1.75467,1.1625 -1.01991,0.4057 -2.27011,0.4057 -1.26117,0 -2.29205,-0.4057 -1.03087,-0.4058 -1.76564,-1.1625 -0.7238,-0.7567 -1.12957,-1.8315 -0.3948,-1.0747 -0.3948,-2.4126 0,-1.327 0.3948,-2.4017 0.40577,-1.0748 1.12957,-1.8205 0.73477,-0.7458 1.76564,-1.1515 1.03088,-0.4058 2.29205,-0.4058 z m 0,9.5082 q 1.40374,0 2.07271,-0.9432 0.67993,-0.9431 0.67993,-2.7636 0,-1.8205 -0.67993,-2.7746 -0.66897,-0.9541 -2.07271,-0.9541 -1.42568,0 -2.11658,0.9651 -0.67994,0.9541 -0.67994,2.7636 0,1.8095 0.67994,2.7636 0.6909,0.9432 2.11658,0.9432 z" />
    <path
       id="path934"
       style="font-style:normal;font-variant:normal;font-weight:bold;font-stretch:normal;font-size:21.93343925px;line-height:1.25;font-family:Lato;-inkscape-font-specification:'Lato, Bold';font-variant-ligatures:normal;font-variant-caps:normal;font-variant-numeric:normal;font-feature-settings:normal;text-align:start;letter-spacing:0px;word-spacing:0px;writing-mode:lr-tb;text-anchor:start;opacity:1;vector-effect:none;fill:#009ee0;fill-opacity:1;stroke:none;stroke-width:0.78673851;stroke-linecap:square;stroke-linejoin:miter;stroke-miterlimit:4;stroke-dasharray:none;stroke-dashoffset:0;stroke-opacity:1"
       d="m -566.28421,1227.0713 q -0.4606,-0.5593 -1.00894,-0.7896 -0.53737,-0.2303 -1.16247,-0.2303 -0.61413,0 -1.10764,0.2303 -0.4935,0.2303 -0.84443,0.7018 -0.35094,0.4606 -0.53737,1.1844 -0.18644,0.7129 -0.18644,1.6889 0,0.987 0.15354,1.6779 0.1645,0.6799 0.4606,1.1186 0.2961,0.4277 0.7238,0.6251 0.4277,0.1865 0.95411,0.1865 0.84443,0 1.43664,-0.351 0.5922,-0.3509 1.1186,-0.998 z m 2.70878,-7.918 v 16.2965 h -1.65597 q -0.53737,0 -0.67994,-0.4935 l -0.2303,-1.0857 q -0.67994,0.7787 -1.56824,1.2612 -0.87734,0.4825 -2.05078,0.4825 -0.9212,0 -1.68887,-0.3838 -0.76767,-0.3838 -1.32698,-1.1076 -0.54833,-0.7348 -0.8554,-1.8096 -0.2961,-1.0747 -0.2961,-2.4565 0,-1.2502 0.33997,-2.3249 0.33997,-1.0748 0.97603,-1.8644 0.63607,-0.7896 1.52438,-1.2283 0.8883,-0.4496 1.99594,-0.4496 0.94314,0 1.61211,0.2961 0.66897,0.2961 1.19537,0.8006 v -5.933 z" />
    <path
       id="path936"
       style="font-style:normal;font-variant:normal;font-weight:bold;font-stretch:normal;font-size:21.93343925px;line-height:1.25;font-family:Lato;-inkscape-font-specification:'Lato, Bold';font-variant-ligatures:normal;font-variant-caps:normal;font-variant-numeric:normal;font-feature-settings:normal;text-align:start;letter-spacing:0px;word-spacing:0px;writing-mode:lr-tb;text-anchor:start;opacity:1;vector-effect:none;fill:#009ee0;fill-opacity:1;stroke:none;stroke-width:0.78673851;stroke-linecap:square;stroke-linejoin:miter;stroke-miterlimit:4;stroke-dasharray:none;stroke-dashoffset:0;stroke-opacity:1"
       d="m -553.6317,1228.5298 q 0,-0.5264 -0.15354,-0.987 -0.14256,-0.4715 -0.43866,-0.8225 -0.29611,-0.3509 -0.75671,-0.5483 -0.44963,-0.2084 -1.0528,-0.2084 -1.17344,0 -1.85338,0.669 -0.66897,0.669 -0.8554,1.8972 z m -5.16533,1.6341 q 0.0658,0.8663 0.30707,1.5024 0.24127,0.6251 0.63607,1.0418 0.3948,0.4058 0.93217,0.6142 0.54834,0.1974 1.20634,0.1974 0.658,0 1.12957,-0.1535 0.48254,-0.1536 0.83347,-0.34 0.36191,-0.1865 0.62511,-0.34 0.27417,-0.1535 0.5264,-0.1535 0.33997,0 0.50447,0.2522 l 0.77864,0.987 q -0.44964,0.5264 -1.00894,0.8883 -0.5593,0.351 -1.17344,0.5703 -0.60317,0.2084 -1.23924,0.2961 -0.6251,0.088 -1.21731,0.088 -1.17344,0 -2.18237,-0.3838 -1.00894,-0.3948 -1.75468,-1.1515 -0.74574,-0.7677 -1.17344,-1.8863 -0.4277,-1.1296 -0.4277,-2.6101 0,-1.1515 0.37287,-2.1604 0.37287,-1.0199 1.06377,-1.7657 0.70187,-0.7567 1.69984,-1.1953 1.00894,-0.4387 2.27011,-0.4387 1.06377,0 1.96305,0.34 0.89927,0.3399 1.5463,0.9979 0.64704,0.6471 1.00894,1.6012 0.37287,0.9431 0.37287,2.1604 0,0.6142 -0.1316,0.8335 -0.1316,0.2084 -0.50447,0.2084 z" />
    <path
       id="path938"
       style="font-style:normal;font-variant:normal;font-weight:bold;font-stretch:normal;font-size:21.93343925px;line-height:1.25;font-family:Lato;-inkscape-font-specification:'Lato, Bold';font-variant-ligatures:normal;font-variant-caps:normal;font-variant-numeric:normal;font-feature-settings:normal;text-align:start;letter-spacing:0px;word-spacing:0px;writing-mode:lr-tb;text-anchor:start;opacity:1;vector-effect:none;fill:#009ee0;fill-opacity:1;stroke:none;stroke-width:0.78673851;stroke-linecap:square;stroke-linejoin:miter;stroke-miterlimit:4;stroke-dasharray:none;stroke-dashoffset:0;stroke-opacity:1"
       d="m -546.65241,1225.5798 q 0.33996,-0.34 0.71283,-0.6251 0.38384,-0.2961 0.80057,-0.4935 0.42771,-0.2084 0.91024,-0.3181 0.48254,-0.1206 1.05281,-0.1206 0.9212,0 1.63404,0.318 0.71283,0.3071 1.1844,0.8774 0.48254,0.5593 0.72381,1.3489 0.25223,0.7786 0.25223,1.7218 v 7.1612 h -2.70878 v -7.1612 q 0,-1.0309 -0.47157,-1.5902 -0.47157,-0.5703 -1.43664,-0.5703 -0.70187,0 -1.316,0.3181 -0.61414,0.318 -1.16248,0.8663 v 8.1373 h -2.70878 v -11.2518 h 1.65598 q 0.5264,0 0.6909,0.4935 z" />
    <path
       id="path940"
       style="font-style:normal;font-variant:normal;font-weight:bold;font-stretch:normal;font-size:21.93343925px;line-height:1.25;font-family:Lato;-inkscape-font-specification:'Lato, Bold';font-variant-ligatures:normal;font-variant-caps:normal;font-variant-numeric:normal;font-feature-settings:normal;text-align:start;letter-spacing:0px;word-spacing:0px;writing-mode:lr-tb;text-anchor:start;opacity:1;vector-effect:none;fill:#009ee0;fill-opacity:1;stroke:none;stroke-width:0.78673851;stroke-linecap:square;stroke-linejoin:miter;stroke-miterlimit:4;stroke-dasharray:none;stroke-dashoffset:0;stroke-opacity:1"
       d="m -529.94016,1226.3913 q -0.10967,0.1755 -0.2303,0.2523 -0.12063,0.066 -0.30707,0.066 -0.1974,0 -0.4277,-0.1097 -0.21933,-0.1097 -0.51544,-0.2413 -0.2961,-0.1425 -0.67993,-0.2522 -0.37287,-0.1097 -0.88831,-0.1097 -0.80057,0 -1.26117,0.34 -0.44963,0.34 -0.44963,0.8883 0,0.3619 0.2303,0.6141 0.24126,0.2413 0.6251,0.4277 0.3948,0.1865 0.8883,0.34 0.49351,0.1426 0.99798,0.318 0.51543,0.1755 1.00893,0.4058 0.49351,0.2193 0.87734,0.5703 0.3948,0.3399 0.6251,0.8225 0.24127,0.4825 0.24127,1.1624 0,0.8116 -0.2961,1.5025 -0.28513,0.6799 -0.8554,1.1844 -0.57027,0.4935 -1.41471,0.7786 -0.83347,0.2742 -1.93014,0.2742 -0.58124,0 -1.14054,-0.1097 -0.54834,-0.099 -1.06377,-0.2851 -0.50447,-0.1864 -0.94314,-0.4387 -0.4277,-0.2522 -0.75671,-0.5483 l 0.62511,-1.0309 q 0.12063,-0.1864 0.28513,-0.2851 0.1645,-0.099 0.41674,-0.099 0.25223,0 0.47157,0.1426 0.2303,0.1425 0.5264,0.307 0.2961,0.1645 0.6909,0.3071 0.40577,0.1426 1.01991,0.1426 0.48253,0 0.8225,-0.1097 0.35094,-0.1206 0.57027,-0.3071 0.2303,-0.1864 0.329,-0.4277 0.10967,-0.2522 0.10967,-0.5154 0,-0.3948 -0.24127,-0.6471 -0.2303,-0.2522 -0.6251,-0.4386 -0.38384,-0.1865 -0.88831,-0.329 -0.4935,-0.1536 -1.0199,-0.329 -0.51544,-0.1755 -1.01991,-0.4058 -0.4935,-0.2413 -0.8883,-0.6032 -0.38383,-0.3619 -0.6251,-0.8883 -0.2303,-0.5264 -0.2303,-1.2721 0,-0.6909 0.27416,-1.316 0.27417,-0.6251 0.80057,-1.0857 0.53737,-0.4716 1.32698,-0.7458 0.80057,-0.2851 1.84241,-0.2851 1.16247,0 2.11657,0.3838 0.95411,0.3839 1.59018,1.009 z" />
    <path
       id="path942"
       style="font-style:normal;font-variant:normal;font-weight:bold;font-stretch:normal;font-size:21.93343925px;line-height:1.25;font-family:Lato;-inkscape-font-specification:'Lato, Bold';font-variant-ligatures:normal;font-variant-caps:normal;font-variant-numeric:normal;font-feature-settings:normal;text-align:start;letter-spacing:0px;word-spacing:0px;writing-mode:lr-tb;text-anchor:start;opacity:1;vector-effect:none;fill:#009ee0;fill-opacity:1;stroke:none;stroke-width:0.78673851;stroke-linecap:square;stroke-linejoin:miter;stroke-miterlimit:4;stroke-dasharray:none;stroke-dashoffset:0;stroke-opacity:1"
       d="m -519.91761,1228.5298 q 0,-0.5264 -0.15353,-0.987 -0.14257,-0.4715 -0.43867,-0.8225 -0.2961,-0.3509 -0.7567,-0.5483 -0.44964,-0.2084 -1.05281,-0.2084 -1.17344,0 -1.85337,0.669 -0.66897,0.669 -0.85541,1.8972 z m -5.16532,1.6341 q 0.0658,0.8663 0.30707,1.5024 0.24127,0.6251 0.63607,1.0418 0.3948,0.4058 0.93217,0.6142 0.54833,0.1974 1.20634,0.1974 0.658,0 1.12957,-0.1535 0.48254,-0.1536 0.83347,-0.34 0.3619,-0.1865 0.6251,-0.34 0.27417,-0.1535 0.52641,-0.1535 0.33996,0 0.50447,0.2522 l 0.77863,0.987 q -0.44963,0.5264 -1.00894,0.8883 -0.5593,0.351 -1.17344,0.5703 -0.60316,0.2084 -1.23923,0.2961 -0.62511,0.088 -1.21731,0.088 -1.17344,0 -2.18238,-0.3838 -1.00894,-0.3948 -1.75467,-1.1515 -0.74574,-0.7677 -1.17344,-1.8863 -0.4277,-1.1296 -0.4277,-2.6101 0,-1.1515 0.37286,-2.1604 0.37287,-1.0199 1.06378,-1.7657 0.70187,-0.7567 1.69984,-1.1953 1.00894,-0.4387 2.27011,-0.4387 1.06377,0 1.96304,0.34 0.89927,0.3399 1.54631,0.9979 0.64704,0.6471 1.00894,1.6012 0.37287,0.9431 0.37287,2.1604 0,0.6142 -0.1316,0.8335 -0.13161,0.2084 -0.50447,0.2084 z" />
    <path
       id="path944"
       style="font-style:normal;font-variant:normal;font-weight:bold;font-stretch:normal;font-size:21.93343925px;line-height:1.25;font-family:Lato;-inkscape-font-specification:'Lato, Bold';font-variant-ligatures:normal;font-variant-caps:normal;font-variant-numeric:normal;font-feature-settings:normal;text-align:start;letter-spacing:0px;word-spacing:0px;writing-mode:lr-tb;text-anchor:start;opacity:1;vector-effect:none;fill:#009ee0;fill-opacity:1;stroke:none;stroke-width:0.78673851;stroke-linecap:square;stroke-linejoin:miter;stroke-miterlimit:4;stroke-dasharray:none;stroke-dashoffset:0;stroke-opacity:1"
       d="m -508.22263,1228.5298 q 0,-0.5264 -0.15353,-0.987 -0.14257,-0.4715 -0.43867,-0.8225 -0.2961,-0.3509 -0.75671,-0.5483 -0.44963,-0.2084 -1.0528,-0.2084 -1.17344,0 -1.85338,0.669 -0.66897,0.669 -0.8554,1.8972 z m -5.16532,1.6341 q 0.0658,0.8663 0.30706,1.5024 0.24127,0.6251 0.63607,1.0418 0.39481,0.4058 0.93218,0.6142 0.54833,0.1974 1.20633,0.1974 0.65801,0 1.12958,-0.1535 0.48253,-0.1536 0.83347,-0.34 0.3619,-0.1865 0.6251,-0.34 0.27417,-0.1535 0.5264,-0.1535 0.33997,0 0.50447,0.2522 l 0.77864,0.987 q -0.44964,0.5264 -1.00894,0.8883 -0.5593,0.351 -1.17344,0.5703 -0.60317,0.2084 -1.23924,0.2961 -0.6251,0.088 -1.2173,0.088 -1.17344,0 -2.18238,-0.3838 -1.00894,-0.3948 -1.75468,-1.1515 -0.74573,-0.7677 -1.17343,-1.8863 -0.42771,-1.1296 -0.42771,-2.6101 0,-1.1515 0.37287,-2.1604 0.37287,-1.0199 1.06377,-1.7657 0.70187,-0.7567 1.69984,-1.1953 1.00894,-0.4387 2.27012,-0.4387 1.06377,0 1.96304,0.34 0.89927,0.3399 1.54631,0.9979 0.64703,0.6471 1.00893,1.6012 0.37287,0.9431 0.37287,2.1604 0,0.6142 -0.1316,0.8335 -0.1316,0.2084 -0.50447,0.2084 z" />
    <path
       id="path946"
       style="font-style:normal;font-variant:normal;font-weight:bold;font-stretch:normal;font-size:21.93343925px;line-height:1.25;font-family:Lato;-inkscape-font-specification:'Lato, Bold';font-variant-ligatures:normal;font-variant-caps:normal;font-variant-numeric:normal;font-feature-settings:normal;text-align:start;letter-spacing:0px;word-spacing:0px;writing-mode:lr-tb;text-anchor:start;fill:#ffffff;fill-opacity:1;stroke:none;stroke-width:0.54833597"
       d="m -492.10394,1233.1468 q 0.8225,0 1.3818,-0.1974 0.5593,-0.1974 0.88831,-0.5264 0.33996,-0.329 0.48253,-0.7677 0.15354,-0.4386 0.15354,-0.9321 0,-0.5155 -0.1645,-0.9212 -0.16451,-0.4168 -0.51544,-0.7019 -0.35094,-0.2961 -0.91024,-0.4496 -0.54833,-0.1536 -1.32697,-0.1536 h -2.97198 v 4.6499 z m -2.98295,-11.2738 v 4.5841 h 2.34688 q 1.5134,0 2.28107,-0.5483 0.77864,-0.5484 0.77864,-1.7437 0,-1.2393 -0.70187,-1.7657 -0.70187,-0.5264 -2.19334,-0.5264 z m 2.51138,-2.281 q 1.55727,0 2.66491,0.2961 1.10764,0.2961 1.80951,0.8444 0.71283,0.5483 1.04184,1.327 0.329,0.7786 0.329,1.7546 0,0.5593 -0.1645,1.0748 -0.1645,0.5044 -0.51544,0.9541 -0.33997,0.4387 -0.87734,0.8006 -0.5264,0.3619 -1.26117,0.6141 3.26808,0.7348 3.26808,3.5313 0,1.0089 -0.38383,1.8643 -0.38384,0.8554 -1.11861,1.4805 -0.73477,0.6142 -1.80951,0.9651 -1.07473,0.3509 -2.45654,0.3509 h -5.98783 v -15.8578 z" />
    <path
       id="path948"
       style="font-style:normal;font-variant:normal;font-weight:bold;font-stretch:normal;font-size:21.93343925px;line-height:1.25;font-family:Lato;-inkscape-font-specification:'Lato, Bold';font-variant-ligatures:normal;font-variant-caps:normal;font-variant-numeric:normal;font-feature-settings:normal;text-align:start;letter-spacing:0px;word-spacing:0px;writing-mode:lr-tb;text-anchor:start;fill:#ffffff;fill-opacity:1;stroke:none;stroke-width:0.54833597"
       d="m -478.25538,1230.6464 q -1.17343,0.055 -1.974,0.2084 -0.80058,0.1425 -1.28311,0.3728 -0.48254,0.2303 -0.6909,0.5374 -0.20837,0.3071 -0.20837,0.669 0,0.7128 0.41673,1.0199 0.42771,0.3071 1.10764,0.3071 0.83347,0 1.43664,-0.2961 0.61414,-0.3071 1.19537,-0.9213 z m -6.20716,-4.8802 q 1.94111,-1.7766 4.67182,-1.7766 0.98701,0 1.76565,0.329 0.77863,0.318 1.316,0.8993 0.53737,0.5702 0.81154,1.3708 0.28513,0.8006 0.28513,1.7547 v 7.1064 h -1.22827 q -0.38383,0 -0.5922,-0.1096 -0.20837,-0.1207 -0.329,-0.4716 l -0.24127,-0.8115 q -0.4277,0.3838 -0.83347,0.6799 -0.40577,0.2851 -0.84444,0.4825 -0.43867,0.1974 -0.94314,0.2961 -0.4935,0.1097 -1.09667,0.1097 -0.71284,0 -1.31601,-0.1864 -0.60316,-0.1974 -1.04183,-0.5813 -0.43867,-0.3838 -0.67994,-0.9541 -0.24127,-0.5702 -0.24127,-1.327 0,-0.4277 0.14257,-0.8444 0.14257,-0.4277 0.4606,-0.8115 0.329,-0.3839 0.84444,-0.7238 0.51543,-0.34 1.26117,-0.5922 0.75671,-0.2523 1.75468,-0.4058 0.99797,-0.1645 2.28107,-0.1974 v -0.658 q 0,-1.1296 -0.48253,-1.6669 -0.48254,-0.5484 -1.39277,-0.5484 -0.65801,0 -1.09668,0.1536 -0.4277,0.1535 -0.7567,0.3509 -0.329,0.1864 -0.60317,0.34 -0.2632,0.1535 -0.5922,0.1535 -0.28514,0 -0.48254,-0.1426 -0.1974,-0.1535 -0.31803,-0.3509 z" />
    <path
       id="path950"
       style="font-style:normal;font-variant:normal;font-weight:bold;font-stretch:normal;font-size:21.93343925px;line-height:1.25;font-family:Lato;-inkscape-font-specification:'Lato, Bold';font-variant-ligatures:normal;font-variant-caps:normal;font-variant-numeric:normal;font-feature-settings:normal;text-align:start;letter-spacing:0px;word-spacing:0px;writing-mode:lr-tb;text-anchor:start;fill:#ffffff;fill-opacity:1;stroke:none;stroke-width:0.54833597"
       d="m -465.00072,1226.5778 q -0.12064,0.1535 -0.24127,0.2412 -0.10967,0.088 -0.329,0.088 -0.20837,0 -0.40577,-0.1207 -0.1974,-0.1316 -0.47157,-0.2851 -0.27417,-0.1645 -0.658,-0.2851 -0.37287,-0.1316 -0.93217,-0.1316 -0.71284,0 -1.25021,0.2632 -0.53737,0.2522 -0.89927,0.7347 -0.35094,0.4826 -0.5264,1.1735 -0.17547,0.6799 -0.17547,1.5463 0,0.8992 0.18643,1.6011 0.19741,0.7019 0.55931,1.1844 0.3619,0.4716 0.87733,0.7238 0.51544,0.2413 1.16248,0.2413 0.64703,0 1.04183,-0.1535 0.40577,-0.1645 0.67994,-0.351 0.27417,-0.1974 0.47157,-0.3509 0.20837,-0.1645 0.4606,-0.1645 0.329,0 0.49351,0.2522 l 0.77863,0.987 q -0.44963,0.5264 -0.97604,0.8883 -0.5264,0.351 -1.09667,0.5703 -0.5593,0.2084 -1.16247,0.2961 -0.5922,0.088 -1.18441,0.088 -1.04183,0 -1.96304,-0.3838 -0.9212,-0.3948 -1.61211,-1.1405 -0.6909,-0.7458 -1.09667,-1.8205 -0.3948,-1.0857 -0.3948,-2.4675 0,-1.2393 0.35093,-2.2921 0.36191,-1.0637 1.05281,-1.8314 0.6909,-0.7787 1.71081,-1.2173 1.0199,-0.4387 2.34688,-0.4387 1.26117,0 2.20431,0.4058 0.9541,0.4057 1.71081,1.1624 z" />
    <path
       id="path952"
       style="font-style:normal;font-variant:normal;font-weight:bold;font-stretch:normal;font-size:21.93343925px;line-height:1.25;font-family:Lato;-inkscape-font-specification:'Lato, Bold';font-variant-ligatures:normal;font-variant-caps:normal;font-variant-numeric:normal;font-feature-settings:normal;text-align:start;letter-spacing:0px;word-spacing:0px;writing-mode:lr-tb;text-anchor:start;fill:#ffffff;fill-opacity:1;stroke:none;stroke-width:0.54833597"
       d="m -459.77132,1219.1533 v 9.3327 h 0.50447 q 0.27417,0 0.4277,-0.066 0.1645,-0.077 0.329,-0.2961 l 2.79652,-3.4546 q 0.17546,-0.2303 0.38383,-0.3509 0.21934,-0.1206 0.5593,-0.1206 h 2.47848 l -3.49838,4.1783 q -0.37287,0.4935 -0.81154,0.7567 0.2303,0.1645 0.40577,0.3838 0.18644,0.2194 0.35094,0.4716 l 3.75061,5.4614 h -2.44557 q -0.31804,0 -0.54834,-0.099 -0.2303,-0.1096 -0.38384,-0.3838 l -2.87328,-4.2661 q -0.15353,-0.2522 -0.31803,-0.329 -0.1645,-0.077 -0.4935,-0.077 h -0.61414 v 5.1543 h -2.70878 v -16.2965 z" />
    <path
       id="path954"
       style="font-style:normal;font-variant:normal;font-weight:bold;font-stretch:normal;font-size:21.93343925px;line-height:1.25;font-family:Lato;-inkscape-font-specification:'Lato, Bold';font-variant-ligatures:normal;font-variant-caps:normal;font-variant-numeric:normal;font-feature-settings:normal;text-align:start;letter-spacing:0px;word-spacing:0px;writing-mode:lr-tb;text-anchor:start;fill:#ffffff;fill-opacity:1;stroke:none;stroke-width:0.54833597"
       d="m -448.0335,1232.5327 q 0.46061,0.5593 0.99798,0.7896 0.54833,0.2303 1.1515,0.2303 0.6251,0 1.11861,-0.2193 0.50447,-0.2303 0.8554,-0.7019 0.35094,-0.4826 0.53737,-1.2173 0.18643,-0.7458 0.18643,-1.7766 0,-1.8534 -0.61413,-2.6759 -0.61414,-0.8335 -1.76564,-0.8335 -0.77864,0 -1.35988,0.3619 -0.58123,0.351 -1.10764,0.998 z m 0,-6.9529 q 0.67994,-0.7129 1.50244,-1.1296 0.83348,-0.4277 1.89725,-0.4277 0.97604,0 1.75467,0.3838 0.78961,0.3839 1.33794,1.1077 0.5593,0.7128 0.85541,1.7327 0.2961,1.0199 0.2961,2.2921 0,1.3708 -0.33997,2.4894 -0.33997,1.1186 -0.97604,1.9192 -0.6251,0.7896 -1.51341,1.2283 -0.8883,0.4386 -1.97401,0.4386 -0.5264,0 -0.9541,-0.1096 -0.4277,-0.099 -0.7896,-0.2852 -0.36191,-0.1864 -0.66897,-0.4496 -0.29611,-0.2742 -0.57027,-0.6032 l -0.12064,0.7567 q -0.0658,0.2852 -0.2303,0.4058 -0.15353,0.1206 -0.4277,0.1206 h -1.78758 v -16.2965 h 2.70878 z" />
    <path
       id="path956"
       style="font-style:normal;font-variant:normal;font-weight:bold;font-stretch:normal;font-size:21.93343925px;line-height:1.25;font-family:Lato;-inkscape-font-specification:'Lato, Bold';font-variant-ligatures:normal;font-variant-caps:normal;font-variant-numeric:normal;font-feature-settings:normal;text-align:start;letter-spacing:0px;word-spacing:0px;writing-mode:lr-tb;text-anchor:start;fill:#ffffff;fill-opacity:1;stroke:none;stroke-width:0.54833597"
       d="m -433.29731,1224.0225 q 1.25021,0 2.27012,0.4058 1.03087,0.4057 1.75467,1.1515 0.73477,0.7457 1.12957,1.8205 0.3948,1.0747 0.3948,2.4017 0,1.3379 -0.3948,2.4126 -0.3948,1.0748 -1.12957,1.8315 -0.7238,0.7567 -1.75467,1.1625 -1.01991,0.4057 -2.27012,0.4057 -1.26117,0 -2.29204,-0.4057 -1.03087,-0.4058 -1.76564,-1.1625 -0.7238,-0.7567 -1.12957,-1.8315 -0.39481,-1.0747 -0.39481,-2.4126 0,-1.327 0.39481,-2.4017 0.40577,-1.0748 1.12957,-1.8205 0.73477,-0.7458 1.76564,-1.1515 1.03087,-0.4058 2.29204,-0.4058 z m 0,9.5082 q 1.40374,0 2.07271,-0.9432 0.67994,-0.9431 0.67994,-2.7636 0,-1.8205 -0.67994,-2.7746 -0.66897,-0.9541 -2.07271,-0.9541 -1.42567,0 -2.11657,0.9651 -0.67994,0.9541 -0.67994,2.7636 0,1.8095 0.67994,2.7636 0.6909,0.9432 2.11657,0.9432 z" />
    <path
       id="path958"
       style="font-style:normal;font-variant:normal;font-weight:bold;font-stretch:normal;font-size:21.93343925px;line-height:1.25;font-family:Lato;-inkscape-font-specification:'Lato, Bold';font-variant-ligatures:normal;font-variant-caps:normal;font-variant-numeric:normal;font-feature-settings:normal;text-align:start;letter-spacing:0px;word-spacing:0px;writing-mode:lr-tb;text-anchor:start;fill:#ffffff;fill-opacity:1;stroke:none;stroke-width:0.54833597"
       d="m -423.14831,1225.5798 q 0.33997,-0.34 0.71284,-0.6251 0.38383,-0.2961 0.80057,-0.4935 0.4277,-0.2084 0.91024,-0.3181 0.48253,-0.1206 1.0528,-0.1206 0.9212,0 1.63404,0.318 0.71284,0.3071 1.18441,0.8774 0.48253,0.5593 0.7238,1.3489 0.25224,0.7786 0.25224,1.7218 v 7.1612 h -2.70878 v -7.1612 q 0,-1.0309 -0.47157,-1.5902 -0.47157,-0.5703 -1.43664,-0.5703 -0.70187,0 -1.31601,0.3181 -0.61414,0.318 -1.16247,0.8663 v 8.1373 h -2.70878 v -11.2518 h 1.65597 q 0.52641,0 0.69091,0.4935 z" />
    <path
       id="path960"
       style="font-style:normal;font-variant:normal;font-weight:bold;font-stretch:normal;font-size:21.93343925px;line-height:1.25;font-family:Lato;-inkscape-font-specification:'Lato, Bold';font-variant-ligatures:normal;font-variant-caps:normal;font-variant-numeric:normal;font-feature-settings:normal;text-align:start;letter-spacing:0px;word-spacing:0px;writing-mode:lr-tb;text-anchor:start;fill:#ffffff;fill-opacity:1;stroke:none;stroke-width:0.54833597"
       d="m -406.05222,1228.5298 q 0,-0.5264 -0.15353,-0.987 -0.14257,-0.4715 -0.43867,-0.8225 -0.2961,-0.3509 -0.75671,-0.5483 -0.44963,-0.2084 -1.0528,-0.2084 -1.17344,0 -1.85338,0.669 -0.66897,0.669 -0.8554,1.8972 z m -5.16532,1.6341 q 0.0658,0.8663 0.30706,1.5024 0.24127,0.6251 0.63607,1.0418 0.39481,0.4058 0.93218,0.6142 0.54833,0.1974 1.20633,0.1974 0.65801,0 1.12958,-0.1535 0.48253,-0.1536 0.83347,-0.34 0.3619,-0.1865 0.6251,-0.34 0.27417,-0.1535 0.5264,-0.1535 0.33997,0 0.50447,0.2522 l 0.77864,0.987 q -0.44964,0.5264 -1.00894,0.8883 -0.5593,0.351 -1.17344,0.5703 -0.60317,0.2084 -1.23924,0.2961 -0.6251,0.088 -1.2173,0.088 -1.17344,0 -2.18238,-0.3838 -1.00894,-0.3948 -1.75468,-1.1515 -0.74573,-0.7677 -1.17343,-1.8863 -0.42771,-1.1296 -0.42771,-2.6101 0,-1.1515 0.37287,-2.1604 0.37287,-1.0199 1.06377,-1.7657 0.70187,-0.7567 1.69985,-1.1953 1.00893,-0.4387 2.27011,-0.4387 1.06377,0 1.96304,0.34 0.89927,0.3399 1.54631,0.9979 0.64703,0.6471 1.00893,1.6012 0.37287,0.9431 0.37287,2.1604 0,0.6142 -0.1316,0.8335 -0.1316,0.2084 -0.50447,0.2084 z" />
  </g>
  <g
     id="g6"
     transform="matrix(0.00499443,0,0,-0.00499443,228.08121,165.68501)"
     style="fill:#ffffff;stroke:none">
    <path
       style="fill:#ffffff"
       id="path4-4"
       d="m 6525,9566 c -167.545,-119.186 -121.8645,-736.6748 -81.7992,-557.3827 3.3716,-541.1257 5.2062,-1079.7169 -76.1437,-1613.7381 C 6311.5198,6671.7759 6269.2287,5945.0006 6311,5220 c -1098.6667,0 -2197.3333,0 -3296,0 C 2578.7711,6142.526 2027.5224,7020.1819 1416,7828 1078.8218,8274.7824 868.01309,8826.4808 525.07812,9263.3438 -202.16913,9345.684 1597.1853,7196.2158 827.10156,8170.6426 1206.6039,7484.8483 1523.1439,6765.1189 1906.252,6078.9082 1945.1409,5833.0217 2127.8225,5121.116 2306.2464,5220.9237 2092.7052,5199.7663 1861.5272,5253.0006 1659,5187 1197.6692,4787.4869 1189.3347,4125.8849 1003.0156,3582.0312 836.11492,2897.4943 607.17985,2220.996 465,1533.8267 406.82711,1191.2152 642.82549,268.93134 552.125,626.5 766.88068,160.61544 2296.386,288.78329 1874.5613,382.24533 5294.9204,386.57984 8716.292,361.95778 12136,396 c 343.27,314.85457 278.595,1134.3653 264,1007.5198 -25.186,455.527 -218.535,890.1598 -314.439,1335.8552 -210.244,701.8803 -340.132,1433.2934 -600.499,2116.8906 -478.264,574.367 -717,401.5602 -981.331,374.1143 -75.514,139.2016 864.953,1569.3089 516.393,1039.4724 439.086,803.9944 793.662,1646.4624 1278.392,2424.9602 256.409,161.8645 249.008,795.1034 -90.84,462.3887 C 11867.687,8606.9219 11588.237,8017.295 11173.652,7519.9855 10671.845,6792.8972 10189.277,6046.5793 9820,5242 c -977.5375,-42.0577 -1958.1,-14.5505 -2937,-22 0.371,1005.63 -61.3444,2012.7336 -122.6094,3012.3125 -0.6991,419.8954 -0.2722,839.7917 -0.3906,1259.6875 -56.0193,67.6455 -148.5151,111.3451 -235,74 z M 701,423 c 38.72193,-45.68741 -66.71942,52.35091 0,0 z" />
  </g>
</svg>
