<?xml version="1.0" encoding="UTF-8" standalone="no"?>
<!-- Created with Inkscape (http://www.inkscape.org/) -->

<svg
   xmlns:dc="http://purl.org/dc/elements/1.1/"
   xmlns:cc="http://creativecommons.org/ns#"
   xmlns:rdf="http://www.w3.org/1999/02/22-rdf-syntax-ns#"
   xmlns:svg="http://www.w3.org/2000/svg"
   xmlns="http://www.w3.org/2000/svg"
   xmlns:sodipodi="http://sodipodi.sourceforge.net/DTD/sodipodi-0.dtd"
   xmlns:inkscape="http://www.inkscape.org/namespaces/inkscape"
   width="282.22168mm"
   height="210.0632mm"
   viewBox="0 0 282.22168 210.0632"
   id="svg_ffbsee"
   version="1.1"
   inkscape:version="0.92.1 r"
   sodipodi:docname="FreifunkCamp.svg"
   inkscape:export-filename="../../Bilder/FreifunkCamp.svg.png"
   inkscape:export-xdpi="230"
   inkscape:export-ydpi="230">
  <defs
     id="defs4941" />
  <sodipodi:namedview
     id="base"
     pagecolor="#ffffff"
     bordercolor="#666666"
     borderopacity="1.0"
     inkscape:pageopacity="0.0"
     inkscape:pageshadow="2"
     inkscape:zoom="0.51529008"
     inkscape:cx="388.28919"
     inkscape:cy="378.69111"
     inkscape:document-units="px"
     inkscape:current-layer="layer1"
     showgrid="false"
     showguides="true"
     inkscape:guide-bbox="true"
     fit-margin-top="0"
     fit-margin-left="0"
     fit-margin-right="0"
     fit-margin-bottom="0"
     inkscape:window-width="2560"
     inkscape:window-height="1346"
     inkscape:window-x="0"
     inkscape:window-y="0"
     inkscape:window-maximized="1">
    <sodipodi:guide
       position="8.2031263e-07,10.478978"
       orientation="1,0"
       id="guide5871"
       inkscape:locked="false" />
    <sodipodi:guide
       position="282.42396,210.06443"
       orientation="0,1"
       id="guide5877"
       inkscape:locked="false" />
    <sodipodi:guide
       position="282.22169,-3.0517578e-05"
       orientation="0,1"
       id="guide5990"
       inkscape:locked="false" />
    <sodipodi:guide
       position="282.22224,10.477875"
       orientation="1,0"
       id="guide4175"
       inkscape:locked="false" />
  </sodipodi:namedview>
  <metadata
     id="metadata4944">
    <rdf:RDF>
      <cc:Work
         rdf:about="">
        <dc:format>image/svg+xml</dc:format>
        <dc:type
           rdf:resource="http://purl.org/dc/dcmitype/StillImage" />
        <dc:title />
      </cc:Work>
    </rdf:RDF>
  </metadata>
  <g
     inkscape:label="Ebene 1"
     inkscape:groupmode="layer"
     id="layer1"
     transform="translate(685.57434,-1037.4108)"
     style="opacity:1">
    <rect
       y="997.89764"
       x="-741.44775"
       height="279.00967"
       width="394.53293"
       id="rect4177"
       style="opacity:1;fill:#ffffff;fill-opacity:1;stroke:none;stroke-width:0.03465098;stroke-miterlimit:3.5999999;stroke-dasharray:none;stroke-opacity:1" />
    <rect
       style="opacity:1;fill:#ffffff;fill-opacity:1;stroke:none;stroke-width:0.035549;stroke-miterlimit:3.5999999;stroke-dasharray:none;stroke-opacity:1"
       id="rect4173"
       width="282.22168"
       height="210.0632"
       x="-685.57434"
       y="1037.4108" />
    <path
       style="color:#000000;font-style:normal;font-variant:normal;font-weight:normal;font-stretch:normal;font-size:medium;line-height:normal;font-family:sans-serif;text-indent:0;text-align:start;text-decoration:none;text-decoration-line:none;text-decoration-style:solid;text-decoration-color:#000000;letter-spacing:normal;word-spacing:normal;text-transform:none;writing-mode:lr-tb;direction:ltr;baseline-shift:baseline;text-anchor:start;white-space:normal;clip-rule:nonzero;display:inline;overflow:visible;visibility:visible;opacity:1;isolation:auto;mix-blend-mode:normal;color-interpolation:sRGB;color-interpolation-filters:linearRGB;solid-color:#000000;solid-opacity:1;fill:#de2c68;fill-opacity:1;fill-rule:nonzero;stroke:#ffffff;stroke-width:0.1989027;stroke-linecap:butt;stroke-linejoin:miter;stroke-miterlimit:4;stroke-dasharray:none;stroke-dashoffset:0;stroke-opacity:1;color-rendering:auto;image-rendering:auto;shape-rendering:auto;text-rendering:auto;enable-background:accumulate"
       d="m -477.92256,1057.673 c -27.18562,0 -49.22952,22.4332 -49.22952,50.0513 0,27.6181 22.0439,50.0513 49.22952,50.0513 27.18563,0 49.22951,-22.4332 49.22951,-50.0513 0,-27.6181 -22.04388,-50.0513 -49.22951,-50.0513 z m 0,2.3406 c 25.89906,0 46.8889,21.3363 46.8889,47.7107 0,26.3744 -20.98984,47.711 -46.8889,47.711 -25.89905,0 -46.8889,-21.3366 -46.8889,-47.711 0,-26.3744 20.98985,-47.7107 46.8889,-47.7107 z"
       id="circle3878"
       inkscape:connector-curvature="0" />
    <path
       style="color:#000000;font-style:normal;font-variant:normal;font-weight:normal;font-stretch:normal;font-size:medium;line-height:normal;font-family:sans-serif;text-indent:0;text-align:start;text-decoration:none;text-decoration-line:none;text-decoration-style:solid;text-decoration-color:#000000;letter-spacing:normal;word-spacing:normal;text-transform:none;writing-mode:lr-tb;direction:ltr;baseline-shift:baseline;text-anchor:start;white-space:normal;clip-rule:nonzero;display:inline;overflow:visible;visibility:visible;opacity:1;isolation:auto;mix-blend-mode:normal;color-interpolation:sRGB;color-interpolation-filters:linearRGB;solid-color:#000000;solid-opacity:1;fill:#de2c68;fill-opacity:1;fill-rule:nonzero;stroke:#ffffff;stroke-width:0.1989027;stroke-linecap:butt;stroke-linejoin:miter;stroke-miterlimit:4;stroke-dasharray:none;stroke-dashoffset:0;stroke-opacity:1;color-rendering:auto;image-rendering:auto;shape-rendering:auto;text-rendering:auto;enable-background:accumulate"
       d="m -545.90896,1061.9617 c -23.63282,0 -42.79378,19.5488 -42.79378,43.6089 0,24.0602 19.16096,43.6087 42.79378,43.6087 23.63283,0 42.79351,-19.5485 42.79351,-43.6087 0,-24.0601 -19.16068,-43.6089 -42.79351,-43.6089 z m 0,2.1922 c 22.42495,0 40.60128,18.5186 40.60128,41.4167 0,22.8982 -18.17633,41.4167 -40.60128,41.4167 -22.42494,0 -40.60155,-18.5185 -40.60155,-41.4167 0,-22.8981 18.17661,-41.4167 40.60155,-41.4167 z"
       id="ellipse5364"
       inkscape:connector-curvature="0" />
    <path
       inkscape:connector-curvature="0"
       id="path3338"
       d="m -478.08865,1207.7526 c -1.08728,-0.149 -2.12824,-0.3838 -2.31338,-0.5218 -0.18506,-0.138 -1.36059,-1.0224 -2.61224,-1.9654 -2.65587,-2.0009 -4.8324,-2.9641 -7.00754,-3.1011 -0.97689,-0.062 -1.8453,-0.3917 -2.33192,-0.8865 -0.42643,-0.4338 -1.66596,-0.9873 -2.75455,-1.2301 -2.22099,-0.4955 -2.75989,-0.9906 -3.5439,-3.2564 -0.49079,-1.4185 -0.72342,-1.6413 -2.3397,-2.2415 -2.88835,-1.0725 -4.33788,-1.7427 -5.83134,-2.6961 -0.77103,-0.4922 -1.53699,-0.868 -1.70209,-0.8351 -0.16509,0.033 -1.86881,-0.9389 -3.78604,-2.1598 -1.91728,-1.2208 -4.14139,-2.4825 -4.94246,-2.8038 -1.75484,-0.7037 -2.75612,-2.4374 -2.91332,-5.0443 -0.0574,-0.9516 -0.33632,-2.3385 -0.61963,-3.0821 -0.44135,-1.1575 -0.81342,-1.474 -2.58775,-2.2014 -1.13971,-0.4673 -2.32055,-0.8001 -2.62406,-0.7395 -0.30345,0.061 -0.65808,0 -0.788,-0.1432 -0.12992,-0.1394 -1.85795,-0.6914 -3.84015,-1.2268 -1.98217,-0.5353 -3.84324,-1.1673 -4.13572,-1.4044 -0.29246,-0.2371 -0.78684,-0.3826 -1.09853,-0.3233 -0.3117,0.059 -0.94721,-0.017 -1.41224,-0.1701 -3.67027,-1.2058 -5.49906,-1.9546 -7.70866,-3.1563 -5.4966,-2.9895 -5.61633,-3.0357 -10.66234,-4.1191 -1.7118,-0.3675 -8.01679,-2.0637 -11.26664,-3.0311 -1.58501,-0.4718 -3.60496,-0.814 -4.48879,-0.7605 -1.64107,0.099 -5.36538,-0.6165 -5.83671,-1.122 -0.33533,-0.3596 -5.48276,-1.7801 -6.04444,-1.668 -0.23381,0.047 -1.62047,-0.2231 -3.08142,-0.5994 -2.89621,-0.7461 -5.14861,-2.3116 -6.12939,-4.2602 -0.3094,-0.6146 -0.85029,-1.3096 -1.20198,-1.5443 -0.96251,-0.6424 -4.58317,0.1946 -6.35386,1.4688 -3.5147,2.529 -5.01155,3.1773 -7.40963,3.2089 -1.23466,0.016 -3.82891,0.2418 -5.76499,0.5012 -3.26148,0.4369 -3.65195,0.4099 -5.31384,-0.3671 -1.57402,-0.736 -1.95832,-0.776 -3.13718,-0.3264 -0.73892,0.2818 -5.72826,1.3603 -11.0874,2.3966 -9.69334,1.8745 -9.75121,1.8903 -11.14201,3.0372 -0.76896,0.6341 -2.1748,1.5113 -3.12419,1.9494 -1.94841,0.8992 -3.84364,2.2986 -4.29129,3.1686 -0.92576,1.7993 -4.06386,5.3949 -5.05691,5.7943 -0.61581,0.2476 -1.55352,0.9271 -2.08378,1.5099 -0.53029,0.5828 -1.1646,1.0996 -1.40959,1.1485 -0.245,0.049 -0.89529,0.5033 -1.44509,1.0098 -0.54979,0.5065 -1.5741,1.0361 -2.27618,1.1769 -0.86984,0.1745 -1.5643,0.616 -2.17989,1.3861 -0.59451,0.7437 -1.45058,1.3005 -2.50386,1.6286 -0.96896,0.3018 -1.86195,0.8539 -2.26313,1.3991 -0.9475,1.2876 -4.16952,1.9193 -5.73586,1.1244 -0.61319,-0.3112 -1.58011,-0.5748 -2.14872,-0.5857 -0.56856,-0.011 -1.3552,-0.2584 -1.74803,-0.5499 -0.40706,-0.302 -1.46222,-0.4848 -2.45332,-0.4251 -2.1518,0.1298 -3.09912,-0.4723 -2.24855,-1.4291 0.45052,-0.5068 1.18686,-0.7235 3.31405,-0.9752 1.50414,-0.1779 3.1672,-0.2509 3.69573,-0.1621 1.66263,0.2793 3.43774,-0.2986 6.08832,-1.982 1.41144,-0.8963 3.50309,-2.1098 4.64819,-2.6966 1.14502,-0.5868 2.21969,-1.2734 2.38815,-1.5258 0.1685,-0.2525 0.56399,-0.5104 0.87896,-0.5732 0.31495,-0.063 1.19713,-0.9808 1.96037,-2.0399 0.76325,-1.0591 1.97734,-2.345 2.69802,-2.8576 0.72067,-0.5126 1.38121,-1.1222 1.46781,-1.3547 0.0866,-0.2325 0.5701,-0.5051 1.0744,-0.6057 1.52682,-0.3046 9.17341,-12.4332 8.85256,-14.0415 -0.0834,-0.4181 -0.62697,-1.019 -1.20791,-1.3353 -0.58093,-0.3163 -1.38153,-0.7726 -1.77913,-1.0139 -0.39763,-0.2413 -1.34505,-0.4316 -2.1054,-0.4229 -0.76036,0.01 -1.80774,-0.2 -2.32755,-0.4637 -0.51978,-0.2638 -1.46727,-0.4861 -2.10557,-0.494 -0.6383,-0.01 -1.43453,-0.1651 -1.76944,-0.3492 -0.33492,-0.1841 -1.27378,-0.4065 -2.08641,-0.4942 -0.81262,-0.088 -1.72888,-0.2914 -2.03611,-0.4527 -0.57732,-0.303 -2.53932,-0.9204 -5.32767,-1.6764 -0.88249,-0.2392 -2.03344,-0.8388 -2.55774,-1.3322 l -0.95326,-0.8972 1.23495,-1.6751 c 1.34222,-1.8205 5.01398,-4.1229 6.46663,-4.0548 4.38246,0.2054 4.72712,0.2689 9.08409,1.6722 3.0061,0.9682 4.70315,0.9293 4.49718,-0.1031 -0.106,-0.5313 -3.21207,-2.3118 -3.82108,-2.1903 -0.31039,0.062 -3.62614,-1.3902 -4.15709,-1.8206 -0.38415,-0.3114 -0.37441,-0.6409 0.0433,-1.464 0.29645,-0.5842 0.73902,-1.1021 0.98342,-1.1509 0.47574,-0.095 3.33168,0.7038 5.10431,1.4273 2.59537,1.0595 5.98067,2.0767 10.66567,3.2047 1.04407,0.2514 2.84144,0.6891 3.99414,0.9727 1.15273,0.2836 2.28971,0.4769 2.52663,0.4297 0.23693,-0.047 1.07684,0.1104 1.86651,0.3505 0.78962,0.24 1.67496,0.3887 1.96743,0.3303 0.2924,-0.058 1.15208,0.082 1.91035,0.313 0.7583,0.2306 2.07465,0.4652 2.92519,0.5215 3.36713,0.223 9.83755,3.8728 10.21437,5.7616 0.29718,1.4896 -0.76984,2.0737 -4.76701,2.6094 l -3.56585,0.4779 -2.06512,-1.2145 c -3.66461,-2.155 -4.3162,-2.3656 -6.89291,-2.228 -3.5078,0.1873 -3.3615,0.098 -3.01434,1.8382 0.47363,2.3742 1.15858,3.0783 3.12174,3.209 0.93353,0.062 1.99244,0.2782 2.35314,0.4801 0.36067,0.202 1.60659,0.3329 2.76871,0.291 1.1621,-0.042 2.57469,0.015 3.13911,0.1263 0.58134,0.1147 1.57471,-0.011 2.29155,-0.2892 0.69593,-0.2704 2.56699,-0.9309 4.15791,-1.4678 3.99188,-1.3473 4.55687,-1.1732 7.15415,2.2042 1.63658,2.1282 2.31218,2.7215 3.63195,3.1895 l 1.62136,0.575 1.82714,-1.1886 c 1.00492,-0.6537 2.12849,-1.582 2.49679,-2.0629 0.59737,-0.7799 1.06464,-0.9432 4.32807,-1.5119 2.58197,-0.4501 4.01852,-0.5332 4.88228,-0.2827 1.19978,0.3479 9.14774,-0.4982 10.06518,-1.0716 0.63535,-0.397 0.1462,-1.9149 -1.05822,-3.2842 -0.60806,-0.6913 -1.32312,-1.8077 -1.58902,-2.4809 -0.62269,-1.5765 -3.20036,-3.7429 -6.35636,-5.3421 -1.41879,-0.719 -2.79925,-1.7168 -3.2015,-2.3141 -0.38895,-0.5775 -1.1473,-1.3356 -1.68518,-1.6847 -0.97246,-0.631 -1.1543,-1.0169 -3.48572,-7.399 -0.94897,-2.5979 -2.11179,-3.8622 -4.5162,-4.9103 -6.17036,-2.6899 -5.95308,-2.6325 -8.63019,-2.2773 -2.74911,0.3648 -4.17431,-0.01 -7.31397,-1.8985 -2.18883,-1.32 -4.40272,-2.0197 -8.67918,-2.7429 -1.95436,-0.3305 -3.74979,-0.6806 -3.98983,-0.7781 -0.24007,-0.098 -0.94982,-0.3942 -1.57722,-0.6593 -1.306,-0.552 -14.28468,-9.3161 -14.36302,-9.6989 -0.0277,-0.139 -0.47489,-0.4231 -0.99221,-0.6316 -1.10768,-0.4464 -2.1566,-2.8863 -1.77778,-4.1353 0.12971,-0.4276 1.01458,-1.3558 1.9664,-2.0627 1.39538,-1.0363 2.02428,-1.2962 3.24673,-1.342 1.74565,-0.065 2.53013,0.2013 5.98142,2.0323 3.74697,1.9879 4.83728,2.4913 5.22686,2.4136 0.19406,-0.039 0.86877,0.2111 1.49927,0.555 0.63051,0.344 1.56158,0.6685 2.06907,0.7212 0.50748,0.053 1.33792,0.3047 1.84541,0.5599 0.50754,0.2552 1.38438,0.473 1.9486,0.4839 0.56424,0.011 1.462,0.3309 1.99503,0.7112 0.53305,0.3803 1.11829,0.6617 1.30054,0.6254 0.18223,-0.036 1.66104,0.7926 3.28623,1.8422 5.14555,3.3231 4.96302,3.2514 7.58556,2.9783 1.55997,-0.1626 2.76487,-0.071 3.47534,0.2628 0.59818,0.2814 1.28101,0.4731 1.5174,0.4259 0.23646,-0.047 1.05907,0.1709 1.82808,0.4846 3.77704,1.5408 5.29482,2.0701 5.70269,1.9887 0.24552,-0.049 1.1006,0.187 1.90021,0.5245 0.79963,0.3374 1.83755,0.5369 2.30639,0.4434 0.46893,-0.093 1.31266,0.063 1.875,0.3488 0.56237,0.2854 1.25483,0.4725 1.53877,0.4159 0.67561,-0.1348 3.59946,0.9532 5.58979,2.0801 1.12525,0.6371 1.70536,1.2461 2.02514,2.1259 0.24648,0.6782 0.80622,1.8936 1.24387,2.7008 0.43762,0.8072 1.01557,2.0484 1.28436,2.7581 0.38955,1.0289 1.10651,1.692 3.53567,3.2703 1.67587,1.0889 3.8144,2.2801 4.75227,2.6471 0.93793,0.367 2.51669,1.0657 3.50833,1.5527 0.99167,0.4869 2.4145,1.097 3.16185,1.3557 0.74732,0.2587 2.15429,0.7892 3.12654,1.179 0.9723,0.3898 3.14895,1.1099 4.83704,1.6002 1.68808,0.4904 3.50058,1.1094 4.02776,1.3757 0.5272,0.2663 1.21129,0.4344 1.5202,0.3735 0.30888,-0.061 1.59354,0.1702 2.8547,0.5134 1.26116,0.3433 2.46444,0.5905 2.67393,0.5495 0.20942,-0.041 0.7093,0.169 1.11066,0.4668 0.40137,0.2978 1.31372,0.5348 2.0274,0.5266 0.71368,-0.01 2.14263,0.2326 3.17545,0.5351 2.30754,0.6757 4.51128,0.1118 7.1456,-1.8286 0.95325,-0.7021 2.0128,-1.334 2.3546,-1.4041 0.34189,-0.07 1.14349,-0.5356 1.78149,-1.0343 1.38986,-1.0864 3.34674,-1.815 6.88771,-2.5643 2.95028,-0.6244 5.59555,-0.214 6.85096,1.0628 0.71482,0.727 1.94673,0.9405 7.06375,1.2244 6.38201,0.3541 6.67906,0.3384 8.2441,-0.4335 0.81063,-0.3999 1.92499,-0.8171 2.47636,-0.9271 1.80951,-0.361 5.31445,0.9755 8.64108,3.295 2.99272,2.0866 3.24329,2.3612 5.0268,5.5093 1.31337,2.3183 2.14631,3.4218 2.77374,3.6746 1.00277,0.4042 1.58696,1.2071 2.92079,4.0143 0.77298,1.6269 1.28618,2.1626 3.34273,3.4895 2.19722,1.4177 3.05207,1.8149 5.9835,2.7803 2.45052,0.807 7.07021,-0.4789 9.15376,-2.5481 1.10336,-1.0958 1.62141,-1.3752 2.56972,-1.3861 1.38014,-0.016 3.61924,1.4124 4.21855,2.6908 0.22806,0.4865 0.76738,1.0954 1.19845,1.353 0.43108,0.2576 0.82465,0.6733 0.87462,0.9237 0.17357,0.87 1.67113,0.9851 3.89583,0.2993 1.99218,-0.614 2.18219,-0.6108 2.71576,0.047 0.73984,0.9118 1.23825,1.1043 2.31819,0.8957 0.55219,-0.1065 1.63449,0.2902 2.91882,1.0702 l 2.04126,1.2398 4.45391,-0.6182 c 4.12798,-0.573 4.56102,-0.5659 5.91691,0.097 0.80462,0.3934 1.44049,0.9082 1.41298,1.144 -0.0275,0.2358 -0.57979,0.8254 -1.22727,1.3102 -1.57778,1.1813 -1.24997,2.0879 0.67434,1.8651 1.23338,-0.1428 1.4819,-0.3304 2.21948,-1.6757 0.54286,-0.9903 1.33155,-1.7806 2.27712,-2.2819 3.35672,-1.7794 5.94625,-1.2505 9.08955,1.8564 1.17017,1.1566 2.76742,2.4632 3.54939,2.9035 0.78194,0.4404 2.61461,1.4572 4.07247,2.2597 2.78125,1.5308 3.58625,2.464 4.02565,4.6665 0.1961,0.983 0.0585,1.6842 -0.52428,2.671 l -0.79026,1.3379 -6.01906,1.216 c -3.31044,0.6689 -6.2148,1.2888 -6.45399,1.3779 -0.23928,0.089 -1.03554,0.9892 -1.76951,2.0003 -1.46594,2.0191 -3.8435,4.2546 -4.70888,4.4272 -0.30387,0.061 -0.93813,-0.2194 -1.40942,-0.6224 -0.47126,-0.4029 -1.11863,-0.6804 -1.43846,-0.6166 -0.72287,0.1442 -2.3922,2.7615 -2.90542,4.5553 -0.21113,0.7378 -0.78541,1.9096 -1.27621,2.6038 l -0.89243,1.2624 -1.69167,-1.289 c -1.64274,-1.2517 -1.69781,-1.3477 -1.90683,-3.3241 l -0.21516,-2.0353 -1.03742,0.207 c -0.57059,0.1138 -1.01052,0.3421 -0.97754,0.5074 0.10384,0.5204 -2.70052,4.5412 -3.74095,5.3637 -0.54749,0.4328 -1.52748,1.5117 -2.17773,2.3976 -1.84031,2.5071 -3.24382,2.8895 -8.17214,2.2261 -2.11142,-0.2842 -2.80528,-0.5573 -3.69379,-1.4539 -1.06723,-1.0771 -2.48717,-1.2913 -2.81034,-0.4241 -0.0747,0.2007 -0.69005,0.3848 -1.36737,0.4092 -1.12569,0.041 -1.23513,0.1343 -1.27409,1.0912 -0.0234,0.5757 -0.23288,1.4913 -0.46552,2.0347 -0.23257,0.5434 -0.49546,1.6071 -0.58419,2.364 -0.22297,1.9017 -2.53086,4.5813 -4.80028,5.5734 -0.95326,0.4167 -3.19384,1.1808 -4.97912,1.6979 -1.78525,0.5172 -3.46193,1.0803 -3.72601,1.2514 -0.264,0.1712 -1.3696,0.1893 -2.45683,0.04 z"
       style="fill:#009ee0;fill-opacity:1;stroke:#ffffff;stroke-width:0.78673851;stroke-linecap:square;stroke-linejoin:miter;stroke-miterlimit:4;stroke-dasharray:none"
       inkscape:export-filename="/home/kr0l/pixelflutffbsee.png"
       inkscape:export-xdpi="7.1930156"
       inkscape:export-ydpi="7.1930156" />
    <path
       style="color:#000000;font-style:normal;font-variant:normal;font-weight:normal;font-stretch:normal;font-size:medium;line-height:normal;font-family:sans-serif;text-indent:0;text-align:start;text-decoration:none;text-decoration-line:none;text-decoration-style:solid;text-decoration-color:#000000;letter-spacing:normal;word-spacing:normal;text-transform:none;writing-mode:lr-tb;direction:ltr;baseline-shift:baseline;text-anchor:start;white-space:normal;clip-rule:nonzero;display:inline;overflow:visible;visibility:visible;opacity:1;isolation:auto;mix-blend-mode:normal;color-interpolation:sRGB;color-interpolation-filters:linearRGB;solid-color:#000000;solid-opacity:1;fill:#de2c68;fill-opacity:1;fill-rule:nonzero;stroke:#ffffff;stroke-width:0.97860134;stroke-linecap:butt;stroke-linejoin:miter;stroke-miterlimit:4;stroke-dasharray:none;stroke-dashoffset:0;stroke-opacity:1;color-rendering:auto;image-rendering:auto;shape-rendering:auto;text-rendering:auto;enable-background:accumulate"
       d="m -478.12766,1037.8992 c -18.36929,0 -35.98814,7.3744 -48.95972,20.4731 -12.97158,13.0987 -20.24902,30.852 -20.24902,49.352 0,18.5 7.27744,36.253 20.24902,49.3518 12.97158,13.0987 30.59043,20.4731 48.95972,20.4731 18.3693,0 35.98815,-7.3744 48.95973,-20.4731 12.97157,-13.0988 20.24901,-30.852 20.24901,-49.3521 0,-18.5 -7.27744,-36.253 -20.24901,-49.3517 -12.97158,-13.0987 -30.59043,-20.4731 -48.95973,-20.4731 z m 0,12.6628 c 14.98288,0 29.35034,6.0047 39.96231,16.7207 10.61195,10.716 16.58363,25.2626 16.58363,40.4416 0,15.179 -5.97168,29.7254 -16.58363,40.4413 -10.61197,10.716 -24.97943,16.7208 -39.96231,16.7208 -14.98287,0 -29.35005,-6.0048 -39.96202,-16.7208 -10.61197,-10.7159 -16.58365,-25.2623 -16.58365,-40.4413 0,-15.179 5.97168,-29.7256 16.58365,-40.4416 10.61197,-10.716 24.97915,-16.7207 39.96202,-16.7207 z"
       id="ellipse5485"
       inkscape:connector-curvature="0" />
    <polygon
       style="fill:#ffcc33;fill-opacity:1"
       points="73,41 64,50 73,59 81,59 75,53 88,53 88,47 75,47 81,41 "
       transform="matrix(-1.0237983,0,0,1.0595688,-489.32097,1064.0849)"
       id="polygon5366"
       inkscape:transform-center-x="-735.76717"
       inkscape:transform-center-y="6.0807202" />
    <g
       id="g4701">
      <g
         id="g4685">
        <path
           inkscape:connector-curvature="0"
           id="path4616"
           style="font-style:normal;font-variant:normal;font-weight:bold;font-stretch:normal;font-size:medium;line-height:1.25;font-family:Lato;-inkscape-font-specification:'Lato Bold';letter-spacing:0px;word-spacing:0px;fill:#de2c68;fill-opacity:1;stroke:none;stroke-width:1.09804356"
           d="m -679.3221,1211.1346 v 9.3993 h 11.9028 v 4.7216 h -11.9028 v 12.9349 h -5.92943 v -31.7554 h 20.02831 v 4.6996 z" />
        <path
           inkscape:connector-curvature="0"
           id="path4618"
           style="font-style:normal;font-variant:normal;font-weight:bold;font-stretch:normal;font-size:medium;line-height:1.25;font-family:Lato;-inkscape-font-specification:'Lato Bold';letter-spacing:0px;word-spacing:0px;fill:#de2c68;fill-opacity:1;stroke:none;stroke-width:1.09804356"
           d="m -657.91505,1219.5676 q 1.05412,-2.0204 2.50354,-3.1624 1.44942,-1.1639 3.4259,-1.1639 1.55922,0 2.50354,0.6808 l -0.35138,4.0628 q -0.1098,0.3953 -0.32941,0.5709 -0.19765,0.1538 -0.54902,0.1538 -0.32942,0 -0.98824,-0.1098 -0.63687,-0.1098 -1.25177,-0.1098 -0.9004,0 -1.60315,0.2635 -0.70274,0.2635 -1.27373,0.7686 -0.54902,0.4832 -0.98824,1.1859 -0.41725,0.7028 -0.79059,1.6032 v 13.8792 h -5.42433 v -22.5318 h 3.18432 q 0.83452,0 1.16393,0.3074 0.32941,0.2855 0.43922,1.0541 z" />
        <path
           inkscape:connector-curvature="0"
           id="path4620"
           style="font-style:normal;font-variant:normal;font-weight:bold;font-stretch:normal;font-size:medium;line-height:1.25;font-family:Lato;-inkscape-font-specification:'Lato Bold';letter-spacing:0px;word-spacing:0px;fill:#de2c68;fill-opacity:1;stroke:none;stroke-width:1.09804356"
           d="m -632.73142,1224.3331 q 0,-1.0541 -0.30745,-1.9765 -0.28549,-0.9443 -0.87843,-1.647 -0.59295,-0.7028 -1.5153,-1.0981 -0.9004,-0.4172 -2.10825,-0.4172 -2.34981,0 -3.71139,1.3396 -1.33961,1.3396 -1.71294,3.7992 z m -10.34357,3.2722 q 0.13177,1.7349 0.61491,3.0086 0.48314,1.2518 1.27373,2.0863 0.79059,0.8126 1.86667,1.2298 1.09804,0.3953 2.4157,0.3953 1.31765,0 2.26197,-0.3074 0.96628,-0.3075 1.66902,-0.6808 0.72471,-0.3734 1.25177,-0.6808 0.54902,-0.3075 1.05412,-0.3075 0.68079,0 1.0102,0.5051 l 1.55923,1.9765 q -0.9004,1.0541 -2.0204,1.7788 -1.12001,0.7028 -2.34982,1.142 -1.20784,0.4173 -2.48158,0.593 -1.25177,0.1756 -2.43765,0.1756 -2.34982,0 -4.37022,-0.7686 -2.0204,-0.7906 -3.51374,-2.3059 -1.49334,-1.5372 -2.34981,-3.7772 -0.85647,-2.262 -0.85647,-5.2267 0,-2.3059 0.74667,-4.3263 0.74667,-2.0424 2.1302,-3.5357 1.4055,-1.5153 3.40394,-2.3938 2.0204,-0.8784 4.5459,-0.8784 2.1302,0 3.93099,0.6808 1.80079,0.6808 3.09649,1.9984 1.29569,1.2957 2.0204,3.2063 0.74667,1.8886 0.74667,4.3263 0,1.2298 -0.26353,1.669 -0.26353,0.4173 -1.0102,0.4173 z" />
        <path
           inkscape:connector-curvature="0"
           id="path4622"
           style="font-style:normal;font-variant:normal;font-weight:bold;font-stretch:normal;font-size:medium;line-height:1.25;font-family:Lato;-inkscape-font-specification:'Lato Bold';letter-spacing:0px;word-spacing:0px;fill:#de2c68;fill-opacity:1;stroke:none;stroke-width:1.09804356"
           d="m -618.20636,1215.6586 v 22.5318 h -5.44629 v -22.5318 z m 0.74667,-6.5663 q 0,0.7027 -0.28549,1.3176 -0.28549,0.6149 -0.76863,1.0761 -0.46118,0.4612 -1.09804,0.7467 -0.63687,0.2635 -1.36158,0.2635 -0.70275,0 -1.33961,-0.2635 -0.61491,-0.2855 -1.07608,-0.7467 -0.46118,-0.4612 -0.74667,-1.0761 -0.26353,-0.6149 -0.26353,-1.3176 0,-0.7247 0.26353,-1.3616 0.28549,-0.6369 0.74667,-1.098 0.46117,-0.4612 1.07608,-0.7248 0.63686,-0.2854 1.33961,-0.2854 0.72471,0 1.36158,0.2854 0.63686,0.2636 1.09804,0.7248 0.48314,0.4611 0.76863,1.098 0.28549,0.6369 0.28549,1.3616 z" />
        <path
           inkscape:connector-curvature="0"
           id="path4624"
           style="font-style:normal;font-variant:normal;font-weight:bold;font-stretch:normal;font-size:medium;line-height:1.25;font-family:Lato;-inkscape-font-specification:'Lato Bold';letter-spacing:0px;word-spacing:0px;fill:#de2c68;fill-opacity:1;stroke:none;stroke-width:1.09804356"
           d="m -611.09515,1238.1904 v -18.4471 l -1.95452,-0.3075 q -0.63686,-0.1317 -1.03216,-0.4392 -0.37333,-0.3294 -0.37333,-0.9223 v -2.2181 h 3.36001 v -1.669 q 0,-1.9326 0.57098,-3.4698 0.59295,-1.5373 1.66903,-2.6134 1.09804,-1.076 2.65726,-1.647 1.55923,-0.571 3.51374,-0.571 1.55923,0 2.89884,0.4172 l -0.10981,2.7232 q -0.022,0.3074 -0.17568,0.5051 -0.15373,0.1757 -0.41726,0.2855 -0.24157,0.088 -0.57098,0.1317 -0.32942,0.022 -0.70275,0.022 -0.96628,0 -1.73491,0.2196 -0.74667,0.1977 -1.27373,0.7247 -0.52706,0.5051 -0.81255,1.3616 -0.26353,0.8345 -0.26353,2.0863 v 1.4933 h 5.86355 v 3.8651 h -5.68787 v 18.4691 z" />
        <path
           inkscape:connector-curvature="0"
           id="path4626"
           style="font-style:normal;font-variant:normal;font-weight:bold;font-stretch:normal;font-size:medium;line-height:1.25;font-family:Lato;-inkscape-font-specification:'Lato Bold';letter-spacing:0px;word-spacing:0px;fill:#de2c68;fill-opacity:1;stroke:none;stroke-width:1.09804356"
           d="m -577.47855,1215.6586 v 22.5318 h -3.31609 q -1.07609,0 -1.36158,-0.9882 l -0.37333,-1.8008 q -1.38354,1.4055 -3.05256,2.2839 -1.66903,0.8565 -3.931,0.8565 -1.84471,0 -3.27217,-0.6149 -1.4055,-0.6369 -2.37177,-1.7788 -0.96628,-1.142 -1.47138,-2.7012 -0.48314,-1.5812 -0.48314,-3.4698 v -14.3185 h 5.42433 v 14.3185 q 0,2.0643 0.94432,3.2063 0.96628,1.12 2.87688,1.12 1.40549,0 2.6353,-0.6149 1.22981,-0.6369 2.32785,-1.735 v -16.2949 z" />
        <path
           inkscape:connector-curvature="0"
           id="path4628"
           style="font-style:normal;font-variant:normal;font-weight:bold;font-stretch:normal;font-size:medium;line-height:1.25;font-family:Lato;-inkscape-font-specification:'Lato Bold';letter-spacing:0px;word-spacing:0px;fill:#de2c68;fill-opacity:1;stroke:none;stroke-width:1.09804356"
           d="m -567.02723,1218.4256 q 0.68079,-0.6807 1.42746,-1.2517 0.76863,-0.593 1.60314,-0.9883 0.85647,-0.4172 1.82275,-0.6368 0.96628,-0.2416 2.10825,-0.2416 1.84471,0 3.27217,0.6369 1.42745,0.6149 2.37177,1.7568 0.96628,1.12 1.44942,2.7012 0.5051,1.5592 0.5051,3.4479 v 14.3404 h -5.42434 V 1223.85 q 0,-2.0643 -0.94432,-3.1843 -0.94431,-1.142 -2.87687,-1.142 -1.4055,0 -2.6353,0.6369 -1.22981,0.6368 -2.32786,1.7349 v 16.2949 h -5.42433 v -22.5318 h 3.31609 q 1.05412,0 1.38353,0.9882 z" />
        <path
           inkscape:connector-curvature="0"
           id="path4630"
           style="font-style:normal;font-variant:normal;font-weight:bold;font-stretch:normal;font-size:medium;line-height:1.25;font-family:Lato;-inkscape-font-specification:'Lato Bold';letter-spacing:0px;word-spacing:0px;fill:#de2c68;fill-opacity:1;stroke:none;stroke-width:1.09804356"
           d="m -541.88409,1205.5566 v 18.6887 h 1.0102 q 0.54902,0 0.85647,-0.1318 0.32941,-0.1537 0.65883,-0.5929 l 5.60002,-6.9177 q 0.35137,-0.4612 0.76863,-0.7028 0.43922,-0.2415 1.12,-0.2415 h 4.96316 l -7.00552,8.3671 q -0.74667,0.9882 -1.6251,1.5153 0.46118,0.3294 0.81255,0.7686 0.37334,0.4392 0.70275,0.9443 l 7.51062,10.9365 h -4.89728 q -0.63686,0 -1.09804,-0.1976 -0.46118,-0.2196 -0.76863,-0.7686 l -5.75375,-8.5428 q -0.30745,-0.5051 -0.63687,-0.6589 -0.32941,-0.1537 -0.98823,-0.1537 h -1.22981 v 10.3216 h -5.42434 v -32.6338 z" />
      </g>
      <g
         id="g4657">
        <path
           inkscape:connector-curvature="0"
           id="path4632"
           style="font-style:normal;font-variant:normal;font-weight:bold;font-stretch:normal;font-size:medium;line-height:1.25;font-family:Lato;-inkscape-font-specification:'Lato Bold';letter-spacing:0px;word-spacing:0px;fill:#000000;fill-opacity:1;stroke:none;stroke-width:1.09804356"
           d="m -490.50251,1230.7018 q 0.48314,0 0.85648,0.3733 l 2.32785,2.5255 q -1.93256,2.3937 -4.76551,3.6675 -2.81099,1.2737 -6.76395,1.2737 -3.5357,0 -6.36865,-1.2078 -2.81099,-1.2079 -4.80943,-3.3601 -1.99844,-2.1521 -3.07452,-5.1388 -1.05412,-2.9867 -1.05412,-6.5224 0,-3.5796 1.14196,-6.5443 1.14197,-2.9867 3.20629,-5.1389 2.08628,-2.1521 4.96316,-3.338 2.87687,-1.2079 6.36865,-1.2079 3.46982,0 6.14904,1.142 2.70119,1.142 4.58982,2.9867 l -1.97647,2.7451 q -0.17569,0.2635 -0.46118,0.4612 -0.26353,0.1976 -0.74667,0.1976 -0.32941,0 -0.68079,-0.1757 -0.35137,-0.1976 -0.76863,-0.4612 -0.41726,-0.2854 -0.96628,-0.6149 -0.54902,-0.3294 -1.27373,-0.5929 -0.72471,-0.2855 -1.69099,-0.4612 -0.94431,-0.1976 -2.19608,-0.1976 -2.13021,0 -3.90904,0.7686 -1.75687,0.7467 -3.0306,2.1961 -1.27373,1.4274 -1.97648,3.5137 -0.70274,2.0644 -0.70274,4.7216 0,2.6792 0.74666,4.7655 0.76864,2.0863 2.06433,3.5138 1.29569,1.4274 3.05256,2.1961 1.75687,0.7466 3.77727,0.7466 1.20785,0 2.17412,-0.1317 0.98824,-0.1318 1.8008,-0.4173 0.83451,-0.2855 1.55922,-0.7247 0.74667,-0.4612 1.47138,-1.12 0.21961,-0.1977 0.46117,-0.3075 0.24157,-0.1317 0.5051,-0.1317 z" />
        <path
           inkscape:connector-curvature="0"
           id="path4634"
           style="font-style:normal;font-variant:normal;font-weight:bold;font-stretch:normal;font-size:medium;line-height:1.25;font-family:Lato;-inkscape-font-specification:'Lato Bold';letter-spacing:0px;word-spacing:0px;fill:#000000;fill-opacity:1;stroke:none;stroke-width:1.09804356"
           d="m -472.18234,1228.5716 q -2.34981,0.1098 -3.95296,0.4172 -1.60314,0.2855 -2.56942,0.7467 -0.96628,0.4612 -1.38353,1.0761 -0.41726,0.6149 -0.41726,1.3396 0,1.4274 0.83451,2.0424 0.85648,0.6149 2.21805,0.6149 1.66903,0 2.87688,-0.593 1.2298,-0.6149 2.39373,-1.8447 z m -12.42985,-9.7726 q 3.88707,-3.5577 9.35533,-3.5577 1.97648,0 3.5357,0.6588 1.55922,0.6369 2.6353,1.8008 1.07609,1.142 1.62511,2.7451 0.57098,1.6032 0.57098,3.5138 v 14.2306 h -2.45962 q -0.76863,0 -1.18588,-0.2196 -0.41726,-0.2415 -0.65883,-0.9443 l -0.48314,-1.6251 q -0.85647,0.7686 -1.66903,1.3616 -0.81255,0.571 -1.69098,0.9663 -0.87844,0.3952 -1.88864,0.5929 -0.98824,0.2196 -2.19608,0.2196 -1.42746,0 -2.63531,-0.3733 -1.20785,-0.3953 -2.08628,-1.164 -0.87844,-0.7686 -1.36158,-1.9106 -0.48314,-1.1419 -0.48314,-2.6572 0,-0.8565 0.2855,-1.691 0.28549,-0.8565 0.92235,-1.6251 0.65883,-0.7686 1.69099,-1.4494 1.03216,-0.6808 2.5255,-1.1859 1.5153,-0.5051 3.51374,-0.8126 1.99844,-0.3294 4.56786,-0.3953 v -1.3176 q 0,-2.262 -0.96628,-3.3381 -0.96628,-1.098 -2.78903,-1.098 -1.31765,0 -2.19609,0.3074 -0.85647,0.3075 -1.5153,0.7028 -0.65882,0.3733 -1.20784,0.6808 -0.52706,0.3074 -1.18589,0.3074 -0.57098,0 -0.96628,-0.2855 -0.3953,-0.3074 -0.63686,-0.7027 z" />
        <path
           inkscape:connector-curvature="0"
           id="path4636"
           style="font-style:normal;font-variant:normal;font-weight:bold;font-stretch:normal;font-size:medium;line-height:1.25;font-family:Lato;-inkscape-font-specification:'Lato Bold';letter-spacing:0px;word-spacing:0px;fill:#000000;fill-opacity:1;stroke:none;stroke-width:1.09804356"
           d="m -461.78112,1238.1904 v -22.5318 h 3.3161 q 1.05412,0 1.38353,0.9882 l 0.35137,1.669 q 0.59295,-0.6588 1.22981,-1.2078 0.65883,-0.549 1.38354,-0.9443 0.74667,-0.3953 1.58118,-0.6149 0.85648,-0.2416 1.86668,-0.2416 2.1302,0 3.49177,1.1639 1.38354,1.142 2.06433,3.0526 0.52706,-1.12 1.31765,-1.9106 0.79059,-0.8126 1.73491,-1.3177 0.94432,-0.5051 1.99844,-0.7466 1.07608,-0.2416 2.15216,-0.2416 1.86668,0 3.31609,0.571 1.44942,0.571 2.43766,1.669 0.98824,1.0981 1.49334,2.6792 0.52706,1.5812 0.52706,3.6236 v 14.3404 h -5.42433 V 1223.85 q 0,-2.1522 -0.94432,-3.2283 -0.94432,-1.098 -2.76707,-1.098 -0.83451,0 -1.55922,0.2855 -0.70275,0.2855 -1.25177,0.8345 -0.52706,0.5271 -0.83452,1.3396 -0.30745,0.8126 -0.30745,1.8667 v 14.3404 h -5.44629 V 1223.85 q 0,-2.262 -0.92236,-3.2942 -0.9004,-1.0321 -2.65727,-1.0321 -1.18588,0 -2.21805,0.5929 -1.0102,0.571 -1.88863,1.5812 v 16.4926 z" />
        <path
           inkscape:connector-curvature="0"
           id="path4638"
           style="font-style:normal;font-variant:normal;font-weight:bold;font-stretch:normal;font-size:medium;line-height:1.25;font-family:Lato;-inkscape-font-specification:'Lato Bold';letter-spacing:0px;word-spacing:0px;fill:#000000;fill-opacity:1;stroke:none;stroke-width:1.09804356"
           d="m -419.55516,1232.3488 q 0.92236,1.12 1.99844,1.5812 1.09804,0.4612 2.37177,0.4612 1.22981,0 2.21805,-0.4612 0.98824,-0.4612 1.66903,-1.4055 0.70275,-0.9443 1.07608,-2.3717 0.37334,-1.4495 0.37334,-3.404 0,-1.9765 -0.32942,-3.338 -0.30745,-1.3836 -0.90039,-2.24 -0.59295,-0.8565 -1.44942,-1.2518 -0.83451,-0.3953 -1.9106,-0.3953 -1.69098,0 -2.87687,0.7247 -1.18589,0.7027 -2.24001,1.9984 z m -0.28549,-13.6157 q 1.38353,-1.5592 3.1404,-2.5255 1.75687,-0.9663 4.12865,-0.9663 1.84471,0 3.36001,0.7686 1.53726,0.7687 2.63531,2.2401 1.12,1.4494 1.71294,3.6015 0.61491,2.1302 0.61491,4.8973 0,2.5255 -0.68079,4.6777 -0.68079,2.1521 -1.95452,3.7333 -1.25177,1.5812 -3.05256,2.4816 -1.77883,0.8784 -3.99688,0.8784 -1.88863,0 -3.22824,-0.5709 -1.33962,-0.593 -2.39374,-1.6251 v 9.2235 h -5.42434 v -29.8887 h 3.3161 q 1.05412,0 1.38353,0.9882 z" />
      </g>
    </g>
    <flowRoot
       xml:space="preserve"
       id="flowRoot5900"
       style="font-style:normal;font-weight:normal;line-height:0.01%;font-family:sans-serif;letter-spacing:0px;word-spacing:0px;fill:#ffcc33;fill-opacity:1;stroke:#ffffff;stroke-width:1px;stroke-linecap:butt;stroke-linejoin:miter;stroke-opacity:1"
       transform="matrix(0.26547619,0,0,0.26547619,-444.20164,755.89119)"><flowRegion
         id="flowRegion5902"
         style="fill:#ffcc33;fill-opacity:1;stroke:#ffffff"><rect
           id="rect5904"
           width="1999.4039"
           height="179.43582"
           x="-4.5352678"
           y="1220.6235"
           style="fill:#ffcc33;fill-opacity:1;stroke:#ffffff" /></flowRegion><flowPara
         id="flowPara5906"
         style="font-style:normal;font-variant:normal;font-weight:normal;font-stretch:normal;font-size:40px;line-height:1.25;font-family:Lato;-inkscape-font-specification:Lato;fill:#ffcc33;fill-opacity:1;stroke:#ffffff"> </flowPara></flowRoot>    <g
       id="g4614"
       transform="matrix(1.0715993,0,0,1.0715993,35.055095,-78.0116)">
      <g
         id="g4602">
        <path
           style="fill:#ffcc33;fill-opacity:1;stroke:#ffffff;stroke-width:0.07024057px;stroke-linecap:butt;stroke-linejoin:miter;stroke-opacity:1"
           d="m -467.11071,1081.0719 c 20.16182,28.0468 -2.47362,28.3794 -4.11692,38.9263 v 0 c -24.10056,-18.5409 6.87139,-26.7737 4.11692,-38.9263 z"
           id="path4610"
           inkscape:connector-curvature="0"
           sodipodi:nodetypes="cccc" />
        <path
           style="fill:#ffcc33;fill-opacity:1;stroke:#ffffff;stroke-width:0.07024057px;stroke-linecap:butt;stroke-linejoin:miter;stroke-opacity:1"
           d="m -456.88174,1094.5626 c 7.1436,7.4666 6.46036,15.8287 4.11612,19.4827 -3.27706,5.1081 -10.70846,4.2458 -14.22979,5.546 -1.28551,-5.4054 6.12744,-7.6805 9.1689,-12.7622 2.49357,-4.1662 1.1616,-10.0362 0.94477,-12.2665 z"
           id="path4612"
           inkscape:connector-curvature="0"
           sodipodi:nodetypes="cscsc" />
        <path
           style="fill:#ffcc33;fill-opacity:1;stroke:#ffffff;stroke-width:0.07024057px;stroke-linecap:butt;stroke-linejoin:miter;stroke-opacity:1"
           d="m -481.64611,1100.2602 c -14.56574,10.4041 -0.55409,20.0961 6.5491,19.1435 -9.32873,-5.337 -8.55115,-12.7338 -6.5491,-19.1435 z"
           id="path4614"
           inkscape:connector-curvature="0"
           sodipodi:nodetypes="ccc" />
      </g>
      <g
         transform="matrix(0.26547619,0,0,0.26547619,-263.37048,805.66435)"
         id="g4526"
         style="stroke:#ffffff">
        <path
           style="fill:#000000;fill-opacity:0.984975;stroke:#ffffff;stroke-width:0.26458332px;stroke-linecap:butt;stroke-linejoin:miter;stroke-opacity:1"
           d="m -837.57604,1188.4203 c 52.07371,7.3068 51.85581,6.4682 62.82806,10.1883 11.9893,4.065 43.64049,10.5896 57.38618,11.5023 -13.9774,5.6894 -8.73152,13.4974 -8.45131,18.6511 -17.92121,-6.0157 -28.9629,-6.5315 -46.82517,-8.9534 -5.14562,-0.7204 -15.95143,-2.1612 -23.05239,-5.1456 -7.10096,-2.9845 -20.99414,-6.7922 -31.28539,-7.9243 -10.29124,-1.132 -10.00423,-1.4978 -16.77472,-1.7495 -2.90878,-8.7055 1.18617,-13.7265 6.17474,-16.5689 z"
           id="path4505"
           inkscape:connector-curvature="0"
           sodipodi:nodetypes="csccccccc" />
        <ellipse
           style="opacity:1;fill:#000000;fill-opacity:0.984975;stroke:#ffffff;stroke-width:0.03670848;stroke-miterlimit:3.5999999;stroke-dasharray:none"
           id="path4507"
           cx="-196.24063"
           cy="1395.2845"
           rx="8.1119089"
           ry="9.4990005"
           transform="matrix(0.93544233,0.35347935,-0.37979925,0.92506893,0,0)" />
        <path
           style="opacity:1;fill:#000000;fill-opacity:0.984975;stroke:#ffffff;stroke-width:0.26458332px;stroke-linecap:butt;stroke-linejoin:miter;stroke-opacity:1"
           d="m -716.28332,1184.9644 c -43.22544,6.1854 -50.6046,9.4255 -54.18875,10.7265 12.48007,3.6022 23.6617,6.3745 34.8319,8.1209 11.86153,-2.7652 23.18718,-4.966 27.83715,-6.2803 1.61406,-4.5045 0.17934,-10.384 -8.4803,-12.5671 z"
           id="path4513"
           inkscape:connector-curvature="0"
           sodipodi:nodetypes="ccccc" />
        <path
           style="opacity:1;fill:#000000;fill-opacity:0.984975;stroke:#ffffff;stroke-width:0.26458332px;stroke-linecap:butt;stroke-linejoin:miter;stroke-opacity:1"
           d="m -837.16439,1214.3028 c 9.31358,-2.5214 8.07863,-2.5214 12.40095,-3.6019 10.86744,0.8716 19.61843,5.516 30.30772,8.5931 -8.28445,3.602 -29.94752,12.1952 -35.5048,14.2534 4.20587,-11.7558 -1.47384,-15.9838 -7.20387,-19.2446 z"
           id="path4515"
           inkscape:connector-curvature="0"
           sodipodi:nodetypes="ccccc" />
        <ellipse
           style="opacity:1;fill:#000000;fill-opacity:0.984975;stroke:#ffffff;stroke-width:0.02759779;stroke-miterlimit:3.5999999;stroke-dasharray:none"
           id="path4517"
           cx="-1406.7489"
           cy="524.77802"
           rx="9.1488924"
           ry="10.252341"
           transform="matrix(0.82039547,-0.57179652,0.59377557,0.8046307,0,0)" />
      </g>
    </g>
  </g>
</svg>
