<?xml version="1.0" encoding="UTF-8" standalone="no"?>
<!-- Created with Inkscape (http://www.inkscape.org/) -->

<svg
   xmlns:dc="http://purl.org/dc/elements/1.1/"
   xmlns:cc="http://creativecommons.org/ns#"
   xmlns:rdf="http://www.w3.org/1999/02/22-rdf-syntax-ns#"
   xmlns:svg="http://www.w3.org/2000/svg"
   xmlns="http://www.w3.org/2000/svg"
   xmlns:sodipodi="http://sodipodi.sourceforge.net/DTD/sodipodi-0.dtd"
   xmlns:inkscape="http://www.inkscape.org/namespaces/inkscape"
   width="200.0mm"
   height="142.5mm"
   viewBox="0 0 2000.0 1425"
   id="svg_ffbsee"
   version="1.1"
   inkscape:version="0.91 r13725"
   sodipodi:docname="Logo_FFBSee.svg">
  <defs
     id="defs4941" />
  <sodipodi:namedview
     id="base"
     pagecolor="#ffffff"
     bordercolor="#666666"
     borderopacity="1.0"
     inkscape:pageopacity="0.0"
     inkscape:pageshadow="2"
     inkscape:zoom="0.44136617"
     inkscape:cx="1051.0744"
     inkscape:cy="626.5258"
     inkscape:document-units="px"
     inkscape:current-layer="layer1"
     showgrid="false"
     showguides="true"
     inkscape:guide-bbox="true"
     fit-margin-top="0"
     fit-margin-left="0"
     fit-margin-right="0"
     fit-margin-bottom="0"
     inkscape:window-width="1920"
     inkscape:window-height="1017"
     inkscape:window-x="-8"
     inkscape:window-y="-8"
     inkscape:window-maximized="1">
    <sodipodi:guide
       position="2134.2823,849.63472"
       orientation="0,1"
       id="guide5869" />
    <sodipodi:guide
       position="-4.5352708,1475.9146"
       orientation="1,0"
       id="guide5871" />
    <sodipodi:guide
       position="1355.3652,1422.6529"
       orientation="0,1"
       id="guide5873" />
    <sodipodi:guide
       position="1994.8686,857.50922"
       orientation="1,0"
       id="guide5875" />
    <sodipodi:guide
       position="1280.3381,203.8579"
       orientation="0,1"
       id="guide5877" />
    <sodipodi:guide
       position="897.16842,-3.2041732"
       orientation="0,1"
       id="guide5990" />
  </sodipodi:namedview>
  <metadata
     id="metadata4944">
    <rdf:RDF>
      <cc:Work
         rdf:about="">
        <dc:format>image/svg+xml</dc:format>
        <dc:type
           rdf:resource="http://purl.org/dc/dcmitype/StillImage" />
        <dc:title />
      </cc:Work>
    </rdf:RDF>
  </metadata>
  <g
     inkscape:label="Ebene 1"
     inkscape:groupmode="layer"
     id="layer1"
     transform="translate(681.15775,187.48634)">
    <flowRoot
       xml:space="preserve"
       id="flowRoot5900"
       style="font-style:normal;font-weight:normal;font-size:40px;line-height:125%;font-family:sans-serif;letter-spacing:0px;word-spacing:0px;fill:#000000;fill-opacity:1;stroke:none;stroke-width:1px;stroke-linecap:butt;stroke-linejoin:miter;stroke-opacity:1"
       transform="translate(-681.15775,-187.48634)"><flowRegion
         id="flowRegion5902"><rect
           id="rect5904"
           width="1999.4039"
           height="179.43582"
           x="-4.5352678"
           y="1220.6235" /></flowRegion><flowPara
         id="flowPara5906"
         style="font-style:normal;font-variant:normal;font-weight:normal;font-stretch:normal;font-family:Lato;-inkscape-font-specification:Lato" /></flowRoot>    <ellipse
       ry="346.78555"
       rx="340.95471"
       id="circle3878"
       stroke-miterlimit="4"
       cy="319.88745"
       cx="787.6076"
       style="fill:none;stroke:#de2c68;stroke-width:16.60513496;stroke-miterlimit:4;stroke-dasharray:none;stroke-opacity:1" />
    <ellipse
       style="fill:none;stroke:#de2c68;stroke-width:15.55206966;stroke-miterlimit:4;stroke-dasharray:none;stroke-opacity:1"
       cx="305.27835"
       cy="304.60675"
       stroke-miterlimit="4"
       id="ellipse5364"
       rx="295.82196"
       ry="301.60593" />
    <path
       inkscape:connector-curvature="0"
       id="path3338"
       d="m 786.42911,1029.5351 c -7.71372,-1.0569 -15.09879,-2.7224 -16.41228,-3.7015 -1.31286,-0.9789 -9.65264,-7.2535 -18.53244,-13.9436 -18.84204,-14.1954 -34.28336,-21.0287 -49.71487,-22.00057 -6.93052,-0.43655 -13.09146,-2.77879 -16.54376,-6.28965 -3.02533,-3.07726 -11.81914,-7.0041 -19.5421,-8.72686 -15.75677,-3.51488 -19.57995,-7.02769 -25.1421,-23.10219 -3.48192,-10.06359 -5.13232,-11.6445 -16.59898,-15.90231 -20.49133,-7.60902 -30.775,-12.3635 -41.37029,-19.12749 -5.47006,-3.49197 -10.90416,-6.15796 -12.07549,-5.92424 -1.17121,0.23359 -13.25825,-6.66167 -26.85998,-15.32284 -13.60208,-8.66113 -29.38096,-17.61233 -35.06414,-19.8914 -12.44974,-4.99263 -19.55326,-17.29205 -20.66851,-35.78727 -0.40729,-6.75086 -2.38606,-16.59032 -4.39597,-21.86539 -3.13117,-8.21189 -5.7708,-10.45735 -18.3587,-15.61813 -8.08565,-3.31491 -16.4631,-5.67584 -18.61637,-5.24627 -2.15282,0.42948 -4.66872,-0.0278 -5.59043,-1.01619 -0.92174,-0.98838 -13.18118,-4.90465 -27.24386,-8.70286 -14.06247,-3.79824 -27.26584,-8.282 -29.34083,-9.96393 -2.07481,-1.68198 -5.58218,-2.71422 -7.7935,-2.29376 -2.21129,0.42049 -6.71993,-0.12251 -10.01906,-1.20631 -26.03867,-8.55469 -39.01303,-13.86701 -54.68898,-22.39273 -38.9955,-21.20883 -39.84493,-21.53677 -75.64375,-29.22248 -12.14432,-2.60714 -56.87495,-14.64123 -79.93089,-21.50411 -11.24484,-3.34703 -25.57537,-5.77486 -31.84563,-5.39516 -11.64258,0.70503 -38.064586,-4.37436 -41.408471,-7.9605 -2.378977,-2.55102 -38.897313,-12.62845 -42.882139,-11.8335 -1.658748,0.33092 -11.49639,-1.58273 -21.861081,-4.2526 -20.5470861,-5.29285 -36.526692,-16.39908 -43.484805,-30.22337 -2.195038,-4.36087 -6.032366,-9.29127 -8.527473,-10.9565 -6.828479,-4.55702 -32.515183,1.38082 -45.077271,10.42023 -24.935,17.94234 -35.55438,22.54146 -52.56747,22.76598 -8.75928,0.11525 -27.16417,1.71558 -40.89962,3.55552 -23.13854,3.09962 -25.90871,2.90825 -37.69891,-2.6046 -11.16685,-5.22107 -13.89332,-5.50467 -22.25669,-2.31515 -5.24222,1.99916 -40.639,9.65043 -78.65932,17.00278 -68.76925,13.29858 -69.17977,13.41051 -79.04677,21.54698 -5.45538,4.49843 -15.4291,10.72194 -22.1645,13.83009 -13.82299,6.37903 -27.26864,16.30699 -30.4445,22.47959 -6.56777,12.76489 -28.83091,38.27422 -35.87614,41.10747 -4.36879,1.7569 -11.02138,6.5772 -14.78335,10.71178 -3.76211,4.13464 -8.26221,7.8012 -10.00024,8.14794 -1.7382,0.34676 -6.35165,3.57051 -10.25221,7.16392 -3.90046,3.59334 -11.16744,7.35076 -16.14832,8.34968 -6.17104,1.23827 -11.09789,4.37029 -15.46518,9.83352 -4.21772,5.27616 -10.29109,9.22655 -17.76354,11.55418 -6.87428,2.1413 -13.20957,6.05797 -16.05572,9.9259 -6.72204,9.13519 -29.58064,13.61631 -40.69295,7.97723 -4.3503,-2.20772 -11.21011,-4.07768 -15.24411,-4.1555 -4.03359,-0.0781 -9.61439,-1.83334 -12.40133,-3.90114 -2.88785,-2.14258 -10.3737,-3.43955 -17.40504,-3.01558 -15.26589,0.92071 -21.98666,-3.35104 -15.95225,-10.13911 3.19618,-3.5954 8.4201,-5.13254 23.5114,-6.91803 10.67113,-1.26257 22.46967,-1.78017 26.21931,-1.15044 11.79552,1.98126 24.38896,-2.11831 43.19345,-14.06082 10.01341,-6.35934 24.85265,-14.96843 32.97651,-19.13136 8.1233,-4.16282 15.74753,-9.03404 16.94265,-10.82489 1.19548,-1.79105 4.00126,-3.62095 6.23576,-4.06669 2.23445,-0.44578 8.49304,-6.95814 13.90785,-14.47191 5.41484,-7.51373 14.02819,-16.6366 19.14102,-20.27301 5.11281,-3.63639 9.79901,-7.96135 10.41336,-9.61087 0.61467,-1.64961 4.04453,-3.58314 7.62231,-4.2969 10.83198,-2.16093 65.08058,-88.20753 62.80433,-99.61754 -0.59172,-2.96603 -4.44809,-7.22885 -8.56951,-9.47303 -4.12138,-2.24419 -9.80124,-5.48106 -12.62203,-7.19309 -2.82095,-1.71199 -9.54244,-3.06212 -14.93667,-3.0003 -5.39439,0.0618 -12.82502,-1.41866 -16.5128,-3.29002 -3.68756,-1.87135 -10.40951,-3.44848 -14.93792,-3.50467 -4.52836,-0.0562 -10.17724,-1.17087 -12.55326,-2.477 -2.37604,-1.30612 -9.03681,-2.8839 -14.80197,-3.50614 -5.76516,-0.62218 -12.2655,-2.06745 -14.44512,-3.21164 -4.09585,-2.14998 -18.01522,-6.52985 -37.79707,-11.89324 -6.2608,-1.69737 -14.42618,-5.95053 -18.1458,-9.45134 l -6.76295,-6.3651 8.76134,-11.88373 c 9.52235,-12.91595 35.57163,-29.24973 45.87738,-28.76675 31.09125,1.45715 33.53646,1.90727 64.44689,11.86309 21.32674,6.86917 33.36639,6.59327 31.90519,-0.73118 -0.75206,-3.76979 -22.78802,-16.4014 -27.10857,-15.53946 -2.2021,0.4393 -25.72562,-9.86268 -29.4924,-12.91596 -2.72538,-2.20925 -2.65627,-4.54665 0.30726,-10.38643 2.10314,-4.14457 5.24297,-7.81867 6.97684,-8.16456 3.3751,-0.67332 23.63653,4.9924 36.21239,10.12588 18.4128,7.51621 42.4298,14.73261 75.66738,22.73572 7.40715,1.78348 20.15859,4.8888 28.3364,6.90065 8.17798,2.01181 16.24426,3.38353 17.92511,3.04819 1.68085,-0.33531 7.63957,0.78364 13.24188,2.4865 5.60195,1.70296 11.88301,2.75761 13.95788,2.3437 2.07449,-0.41386 8.17346,0.58545 13.55301,2.22074 5.37974,1.63533 14.71855,3.30017 20.75264,3.6998 23.88804,1.58175 69.79235,27.47482 72.46568,40.87526 2.10829,10.568 -5.46164,14.71158 -33.8195,18.51212 l -25.29782,3.39034 -14.65094,-8.61566 c -25.9985,-15.28877 -30.62121,-16.78294 -48.90162,-15.8069 -24.886,1.32864 -23.8481,0.69577 -21.38517,13.04152 3.36018,16.84338 8.21948,21.83834 22.14711,22.76548 6.62291,0.44087 14.13532,1.9738 16.69429,3.40644 2.55881,1.43271 11.39792,2.36168 19.64256,2.06445 8.24448,-0.29723 18.26612,0.10588 22.27034,0.89585 4.12432,0.81363 11.17176,-0.0756 16.25736,-2.05149 4.9373,-1.91825 18.21146,-6.60434 29.49823,-10.41366 28.32031,-9.55813 32.32864,-8.32317 50.75495,15.63806 11.61068,15.09813 16.40374,19.30744 25.76681,22.62794 l 11.50271,4.07934 12.96262,-8.43254 c 7.12937,-4.63787 15.100499,-11.22383 17.713436,-14.63541 4.237971,-5.5332 7.553051,-6.69124 30.705376,-10.72641 18.317739,-3.19261 28.509339,-3.78272 34.637225,-2.00554 8.511864,2.46853 64.89847,-3.53431 71.407253,-7.60194 4.50742,-2.81671 1.037213,-13.58555 -7.507564,-23.29972 -4.313883,-4.90431 -9.386802,-12.82468 -11.273237,-17.60079 -4.417685,-11.18458 -22.70492434,-26.55395 -45.095071,-37.89974 -10.065571,-5.10047 -19.859254,-12.1793 -22.712997,-16.41678 -2.759384,-4.09748 -8.139506,-9.47596 -11.955486,-11.95227 -6.899052,-4.47691 -8.189149,-7.21466 -24.729368,-52.49236 -6.732451,-18.43036 -14.982055,-27.39981 -32.040077,-34.8359 -43.77546,-19.0831 -42.23396,-18.67632 -61.2267,-16.15612 -19.50351,2.58799 -29.61453,-0.0365 -51.88879,-13.46928 -15.52861,-9.3645 -31.23505,-14.32824 -61.57431,-19.45887 -13.86514,-2.34484 -26.60279,-4.82906 -28.30574,-5.5206 -1.70314,-0.69148 -6.73845,-2.79639 -11.18959,-4.67756 -9.26538,-3.91562 -101.34233,-66.09234 -101.89813,-68.80857 -0.19664,-0.98595 -3.36909,-3.00118 -7.03921,-4.48045 -7.85841,-3.16724 -15.29997,-20.47695 -12.61239,-29.33769 0.92021,-3.03389 7.19791,-9.61931 13.95057,-14.63422 9.89951,-7.35195 14.36119,-9.19605 23.03382,-9.52041 12.38452,-0.46317 17.94999,1.42761 42.43507,14.41769 26.58285,14.10302 34.31799,17.67495 37.08184,17.12358 1.37679,-0.27467 6.16349,1.49717 10.63659,3.93747 4.4731,2.44029 11.07858,4.74276 14.67894,5.11663 3.60034,0.37384 9.49183,2.16125 13.09222,3.972 3.60074,1.81063 9.82151,3.35537 13.82432,3.43265 4.00299,0.0774 10.37215,2.34789 14.15371,5.04596 3.78174,2.69804 7.9337,4.69453 9.22666,4.43658 1.29281,-0.25791 11.78422,5.62344 23.31407,13.06972 36.505,23.5757 35.21005,23.06725 53.81565,21.12908 11.06717,-1.15289 19.61528,-0.50628 24.65572,1.86498 4.24377,1.99629 9.08807,3.35588 10.7651,3.02133 1.67758,-0.33468 7.51361,1.21247 12.96931,3.43802 26.7961,10.93082 37.563998,14.68594 40.457627,14.10865 1.741829,-0.34746 7.808176,1.32691 13.480987,3.72087 5.672984,2.3939 13.036477,3.80952 16.362671,3.14596 3.326753,-0.66367 9.312632,0.44985 13.302144,2.47449 3.989697,2.0246 8.902331,3.35223 10.916724,2.95038 4.793139,-0.95621 25.536314,6.76296 39.6566479,14.75742 7.9831061,4.51972 12.0986961,8.84028 14.3673681,15.08251 1.748601,4.81152 5.719651,13.43377 8.824572,19.1605 3.104733,5.72675 7.204947,14.53223 9.111859,19.56763 2.76365,7.29886 7.850121,12.0035 25.083779,23.20103 11.889421,7.7251 27.061141,16.17599 33.714869,18.77969 6.654092,2.60368 17.854582,7.56048 24.889792,11.01516 7.03538,3.45466 17.12962,7.78283 22.43165,9.61813 5.30185,1.83537 15.28354,5.59939 22.1812,8.36455 6.89797,2.76507 22.34016,7.87379 34.31623,11.35256 11.97608,3.4788 24.83479,7.8708 28.57487,9.76006 3.74026,1.88922 8.59351,3.08155 10.78502,2.64966 2.19137,-0.43359 11.30538,1.20715 20.25264,3.64237 8.94728,2.43521 17.48393,4.18937 18.97015,3.89819 1.4857,-0.29282 5.03211,1.1992 7.87956,3.31197 2.84749,2.11283 9.32015,3.7939 14.38334,3.73586 5.06318,-0.058 15.20084,1.65006 22.52818,3.79584 16.37077,4.79399 32.00513,0.79317 50.6943,-12.9727 6.76277,-4.98119 14.27975,-9.46375 16.70469,-9.96132 2.42553,-0.49463 8.11243,-3.79951 12.63868,-7.33768 9.86036,-7.70759 23.7434,-12.87638 48.86474,-18.19283 20.93074,-4.42971 39.69754,-1.51812 48.60403,7.54054 5.07128,5.15728 13.81103,6.67223 50.1136,8.68624 45.27701,2.51192 47.38446,2.40109 58.48761,-3.07573 5.75096,-2.83686 13.6568,-5.79638 17.56847,-6.57673 12.83755,-2.56103 37.70329,6.9205 61.30395,23.37587 21.23179,14.80376 23.00946,16.75206 35.66254,39.08597 9.3177,16.44702 15.22699,24.27553 19.67824,26.06958 7.11418,2.86732 11.25867,8.5634 20.72151,28.47929 5.48387,11.54174 9.12475,15.34254 23.71494,24.75616 15.58814,10.0576 21.65285,12.87557 42.44982,19.72476 17.38514,5.72528 50.15947,-3.39806 64.94115,-18.07785 7.82772,-7.7736 11.50308,-9.75606 18.23083,-9.83318 9.79135,-0.11231 25.67658,10.0199 29.92839,19.08973 1.61801,3.45158 5.44415,7.77097 8.5024,9.59869 3.05831,1.82752 5.85048,4.77632 6.20496,6.55291 1.23137,6.17259 11.85582,6.98904 27.63892,2.12391 14.13345,-4.35657 15.48145,-4.33341 19.26685,0.33195 5.2488,6.46816 8.7848,7.83413 16.4464,6.35405 3.9175,-0.75526 11.5958,2.05873 20.7075,7.59289 l 14.4817,8.79556 31.5982,-4.38603 c 29.2858,-4.0651 32.358,-4.0146 41.9773,0.68791 5.7084,2.79061 10.2195,6.44267 10.0244,8.11584 -0.1951,1.673 -4.1133,5.85587 -8.7068,9.29493 -11.1936,8.38073 -8.868,14.81306 4.784,13.23222 8.7502,-1.01299 10.5133,-2.34427 15.7461,-11.88856 3.8513,-7.02553 9.4467,-12.63222 16.155,-16.18832 23.8141,-12.62398 42.1855,-8.8722 64.4856,13.16963 8.3017,8.20563 19.6334,17.4755 25.1811,20.59949 5.5475,3.12401 18.5492,10.33803 28.8921,16.03098 19.7315,10.86062 25.4425,17.48116 28.5598,33.10627 1.3913,6.97422 0.4147,11.9489 -3.7195,18.94922 l -5.6064,9.49219 -42.7022,8.62674 c -23.4858,4.74538 -44.0907,9.14343 -45.7877,9.7755 -1.6975,0.63192 -7.3466,7.01778 -12.5537,14.19077 -10.4001,14.32498 -27.2677,30.18423 -33.4071,31.40894 -2.1557,0.43013 -6.6555,-1.55674 -9.9991,-4.41544 -3.3433,-2.85865 -7.936,-4.82715 -10.2051,-4.37439 -5.1284,1.02302 -16.9714,19.59114 -20.6124,32.31716 -1.4979,5.23476 -5.5721,13.54759 -9.0541,18.47288 l -6.3313,8.95561 -12.0015,-9.14421 c -11.6544,-8.88016 -12.0451,-9.56165 -13.528,-23.58339 l -1.5264,-14.43918 -7.36,1.46835 c -4.0481,0.80779 -7.1691,2.42758 -6.9351,3.59978 0.7367,3.69235 -19.1588,32.21744 -26.5401,38.05262 -3.8842,3.07053 -10.8367,10.72512 -15.4499,17.00989 -13.056,17.78705 -23.0132,20.49951 -57.97704,15.79335 -14.97944,-2.01615 -19.902,-3.9539 -26.20553,-10.31513 -7.57143,-7.64085 -17.64518,-9.16069 -19.9379,-3.00815 -0.53023,1.4233 -4.89556,2.72963 -9.70079,2.90261 -7.98617,0.28805 -8.76263,0.95297 -9.03898,7.74151 -0.16625,4.0843 -1.65219,10.58016 -3.30262,14.43498 -1.64995,3.85509 -3.51507,11.40199 -4.14451,16.77145 -1.58187,13.4916 -17.95515,32.50234 -34.05553,39.54034 -6.7629,2.9562 -22.65865,8.3771 -35.32423,12.0458 -12.66541,3.6692 -24.56064,7.6645 -26.4341,8.8784 -1.87295,1.214 -9.71666,1.3427 -17.42999,0.2862 z"
       style="fill:#009ee0;fill-opacity:1;stroke:#ffffff;stroke-width:5.58150053;stroke-linecap:square;stroke-linejoin:miter;stroke-miterlimit:4;stroke-dasharray:none" />
    <path
       id="ellipse4260"
       stroke-miterlimit="4"
       style="fill:none;stroke:#ffffff;stroke-width:100.5;stroke-miterlimit:4;stroke-dasharray:none;stroke-opacity:1"
       sodipodi:type="arc"
       sodipodi:cx="786.15302"
       sodipodi:cy="319.88574"
       sodipodi:rx="446.08142"
       sodipodi:ry="450.4537"
       sodipodi:start="0"
       sodipodi:end="3.1415927"
       sodipodi:open="true"
       d="M 1232.2344,319.88574 A 446.08142,450.4537 0 0 1 1009.1937,709.9901 446.08142,450.4537 0 0 1 563.11229,709.99009 446.08142,450.4537 0 0 1 340.07159,319.88572" />
    <ellipse
       style="fill:none;stroke:#de2c68;stroke-width:89.83679199;stroke-miterlimit:4;stroke-dasharray:none;stroke-opacity:1"
       cx="786.15302"
       cy="319.88574"
       stroke-miterlimit="4"
       id="ellipse5485"
       rx="446.08142"
       ry="450.4537" />
    <g
       id="g4252"
       transform="translate(0,138)">
      <polygon
         inkscape:transform-center-y="6.0807202"
         inkscape:transform-center-x="-735.76717"
         id="polygon5366"
         transform="matrix(-7.2633158,0,0,7.5170891,706.74163,-127.7118)"
         points="73,41 64,50 73,59 81,59 75,53 88,53 88,47 75,47 81,41 "
         style="fill:#ffcc33;fill-opacity:1" />
      <polygon
         style="fill:#ffcc33;fill-opacity:1"
         points="88,53 88,47 75,47 81,41 73,41 64,50 73,59 81,59 75,53 "
         transform="matrix(14.898881,0,0,15.419433,-240.62554,-520.72469)"
         id="polygon5867"
         inkscape:transform-center-x="1509.2428"
         inkscape:transform-center-y="12.473066" />
    </g>
    <path
       d="m -650.19584,1202.5581 q 4.30288,6.2279 9.3229,8.7924 5.12248,2.5644 10.7572,2.5644 5.83961,0 10.44984,-2.4423 4.71267,-2.5645 7.99106,-7.8155 3.27838,-5.3731 5.02002,-13.5549 1.74164,-8.304 1.74164,-19.783 0,-20.6377 -5.73717,-29.7965 -5.73717,-9.2809 -16.49436,-9.2809 -7.27391,0 -12.70373,4.0299 -5.42982,3.9077 -10.3474,11.1126 l 0,56.1738 z m 0,-77.4221 q 6.35187,-7.9376 14.03558,-12.578 7.78616,-4.7626 17.72375,-4.7626 9.118,0 16.39191,4.2741 7.37637,4.2741 12.49884,12.3338 5.22492,7.9376 7.99105,19.2945 2.76614,11.3568 2.76614,25.5224 0,15.2646 -3.17593,27.7205 -3.17594,12.4559 -9.118,21.3704 -5.83962,8.7925 -14.13803,13.6771 -8.2984,4.8847 -18.4409,4.8847 -4.91757,0 -8.9131,-1.2212 -3.99553,-1.099 -7.37636,-3.175 -3.38083,-2.076 -6.24942,-5.0068 -2.76613,-3.0529 -5.32737,-6.7164 l -1.12694,8.426 q -0.6147,3.1751 -2.15144,4.5184 -1.43429,1.3433 -3.99553,1.3433 l -16.69926,0 0,-181.4657 25.30501,0 0,71.5605 z"
       style="font-style:normal;font-variant:normal;font-weight:bold;font-stretch:normal;font-size:200px;line-height:100%;font-family:Lato;-inkscape-font-specification:'Lato Bold';letter-spacing:0px;word-spacing:0px;fill:#009ee0;fill-opacity:1;stroke:none;stroke-width:1px;stroke-linecap:butt;stroke-linejoin:miter;stroke-opacity:1"
       id="path3419"
       inkscape:connector-curvature="0" />
    <path
       d="m -512.53258,1107.7954 q 11.67923,0 21.20703,4.5183 9.63025,4.5184 16.39191,12.8223 6.86412,8.3039 10.5523,20.2714 3.68818,11.9674 3.68818,26.7436 0,14.8982 -3.68818,26.8657 -3.68818,11.9674 -10.5523,20.3935 -6.76166,8.4261 -16.39191,12.9444 -9.5278,4.5183 -21.20703,4.5183 -11.78169,0 -21.41194,-4.5183 -9.63025,-4.5183 -16.49436,-12.9444 -6.76166,-8.4261 -10.55229,-20.3935 -3.68818,-11.9675 -3.68818,-26.8657 0,-14.7762 3.68818,-26.7436 3.79063,-11.9675 10.55229,-20.2714 6.86411,-8.3039 16.49436,-12.8223 9.63025,-4.5183 21.41194,-4.5183 z m 0,105.8753 q 13.11353,0 19.36294,-10.502 6.35187,-10.5021 6.35187,-30.7735 0,-20.2714 -6.35187,-30.8955 -6.24941,-10.6242 -19.36294,-10.6242 -13.31843,0 -19.77275,10.7463 -6.35186,10.6241 -6.35186,30.7734 0,20.1493 6.35186,30.7735 6.45432,10.502 19.77275,10.502 z"
       style="font-style:normal;font-variant:normal;font-weight:bold;font-stretch:normal;font-size:200px;line-height:100%;font-family:Lato;-inkscape-font-specification:'Lato Bold';letter-spacing:0px;word-spacing:0px;fill:#009ee0;fill-opacity:1;stroke:none;stroke-width:1px;stroke-linecap:butt;stroke-linejoin:miter;stroke-opacity:1"
       id="path3421"
       inkscape:connector-curvature="0" />
    <path
       d="m -375.4104,1141.7439 q -4.30288,-6.228 -9.42535,-8.7924 -5.02002,-2.5645 -10.85964,-2.5645 -5.73717,0 -10.34739,2.5645 -4.61023,2.5644 -7.88861,7.8155 -3.27838,5.1289 -5.02003,13.1886 -1.74164,7.9376 -1.74164,18.806 0,10.9905 1.4343,18.6838 1.53674,7.5713 4.30287,12.456 2.76614,4.7625 6.76167,6.9606 3.99553,2.076 8.9131,2.076 7.88861,0 13.42088,-3.9077 5.53227,-3.9078 10.44984,-11.1127 l 0,-56.1737 z m 25.30502,-88.1684 0,181.4657 -15.46987,0 q -5.02002,0 -6.35187,-5.4953 l -2.15144,-12.0896 q -6.35186,8.6703 -14.65027,14.0435 -8.19595,5.3731 -19.15804,5.3731 -8.60576,0 -15.77722,-4.2741 -7.17146,-4.2741 -12.39638,-12.3338 -5.12248,-8.1818 -7.99106,-20.1493 -2.76614,-11.9674 -2.76614,-27.3541 0,-13.9214 3.17594,-25.8888 3.17593,-11.9675 9.118,-20.7599 5.94207,-8.7924 14.24047,-13.677 8.29841,-5.0068 18.6458,-5.0068 8.81065,0 15.06007,3.2971 6.24942,3.2972 11.16699,8.9145 l 0,-66.0652 25.30502,0 z"
       style="font-style:normal;font-variant:normal;font-weight:bold;font-stretch:normal;font-size:200px;line-height:100%;font-family:Lato;-inkscape-font-specification:'Lato Bold';letter-spacing:0px;word-spacing:0px;fill:#009ee0;fill-opacity:1;stroke:none;stroke-width:1px;stroke-linecap:butt;stroke-linejoin:miter;stroke-opacity:1"
       id="path3423"
       inkscape:connector-curvature="0" />
    <path
       d="m -257.21255,1157.9854 q 0,-5.8616 -1.43429,-10.9905 -1.33185,-5.251 -4.09798,-9.1587 -2.76614,-3.9078 -7.06901,-6.1059 -4.20043,-2.3202 -9.83515,-2.3202 -10.96209,0 -17.31396,7.4491 -6.24942,7.4491 -7.99106,21.1262 l 47.74145,0 z m -48.25369,18.1954 q 0.61469,9.6473 2.86858,16.73 2.25389,6.9607 5.94207,11.6011 3.68818,4.5184 8.7082,6.8386 5.12247,2.1981 11.26944,2.1981 6.14697,0 10.5523,-1.7096 4.50777,-1.7097 7.78615,-3.7857 3.38084,-2.076 5.83962,-3.7856 2.56124,-1.7096 4.91758,-1.7096 3.17593,0 4.71267,2.8087 l 7.27391,10.9905 q -4.20043,5.8616 -9.42535,9.8914 -5.22492,3.9078 -10.96209,6.3501 -5.63472,2.3202 -11.57679,3.2972 -5.83962,0.9769 -11.37189,0.9769 -10.96209,0 -20.38744,-4.2741 -9.42535,-4.3962 -16.39191,-12.8223 -6.96656,-8.5481 -10.96209,-21.004 -3.99553,-12.5781 -3.99553,-29.0639 0,-12.8222 3.48328,-24.057 3.48328,-11.3568 9.9376,-19.6608 6.55676,-8.426 15.87966,-13.3107 9.42535,-4.8847 21.20704,-4.8847 9.9376,0 18.33845,3.7856 8.40086,3.7857 14.44537,11.1127 6.04452,7.2049 9.42535,17.829 3.48329,10.5021 3.48329,24.057 0,6.8386 -1.2294,9.2809 -1.22939,2.3202 -4.71267,2.3202 l -65.0554,0 z"
       style="font-style:normal;font-variant:normal;font-weight:bold;font-stretch:normal;font-size:200px;line-height:100%;font-family:Lato;-inkscape-font-specification:'Lato Bold';letter-spacing:0px;word-spacing:0px;fill:#009ee0;fill-opacity:1;stroke:none;stroke-width:1px;stroke-linecap:butt;stroke-linejoin:miter;stroke-opacity:1"
       id="path3425"
       inkscape:connector-curvature="0" />
    <path
       d="m -192.01308,1125.136 q 3.17594,-3.7856 6.65922,-6.9607 3.58573,-3.2971 7.47881,-5.4952 3.99553,-2.3202 8.5033,-3.5414 4.50778,-1.3433 9.83515,-1.3433 8.60575,0 15.26497,3.5414 6.65921,3.4193 11.06454,9.7693 4.50777,6.228 6.76166,15.0204 2.35634,8.6703 2.35634,19.1724 l 0,79.7423 -25.30502,0 0,-79.7423 q 0,-11.479 -4.40532,-17.707 -4.40533,-6.3501 -13.42088,-6.3501 -6.55677,0 -12.29393,3.5414 -5.73717,3.5414 -10.85965,9.6473 l 0,90.6107 -25.30501,0 0,-125.2919 15.46987,0 q 4.91757,0 6.45431,5.4952 l 1.74164,9.8915 z"
       style="font-style:normal;font-variant:normal;font-weight:bold;font-stretch:normal;font-size:200px;line-height:100%;font-family:Lato;-inkscape-font-specification:'Lato Bold';letter-spacing:0px;word-spacing:0px;fill:#009ee0;fill-opacity:1;stroke:none;stroke-width:1px;stroke-linecap:butt;stroke-linejoin:miter;stroke-opacity:1"
       id="path3427"
       inkscape:connector-curvature="0" />
    <path
       d="m -35.889725,1134.1726 q -1.024495,1.9539 -2.151439,2.8087 -1.126944,0.7327 -2.868584,0.7327 -1.84409,0 -3.995529,-1.2211 -2.048989,-1.2212 -4.815124,-2.6866 -2.766135,-1.5875 -6.351866,-2.8087 -3.483281,-1.2212 -8.298405,-1.2212 -7.47881,0 -11.781687,3.7857 -4.200427,3.7856 -4.200427,9.8914 0,4.0299 2.151438,6.8386 2.253888,2.6865 5.839619,4.7625 3.68818,2.076 8.298405,3.7856 4.610225,1.5876 9.3229,3.5414 4.815124,1.9539 9.425349,4.5184 4.610226,2.4423 8.195956,6.35 3.688181,3.7857 5.839619,9.1588 2.253888,5.3731 2.253888,12.9444 0,9.0366 -2.766135,16.73 -2.663686,7.5712 -7.991057,13.1886 -5.327372,5.4953 -13.215979,8.6703 -7.786158,3.0529 -18.031103,3.0529 -5.429821,0 -10.654743,-1.2211 -5.122473,-1.0991 -9.937597,-3.1751 -4.712675,-2.076 -8.810654,-4.8847 -3.99553,-2.8086 -7.06901,-6.1058 l 5.83962,-11.479 q 1.12694,-2.076 2.663684,-3.175 1.536741,-1.0991 3.893079,-1.0991 2.356337,0 4.405326,1.5875 2.151439,1.5876 4.917574,3.4193 2.766135,1.8318 6.454315,3.4193 3.79063,1.5875 9.527799,1.5875 4.507776,0 7.683709,-1.2212 3.278382,-1.3432 5.327371,-3.4192 2.151439,-2.076 3.073484,-4.7626 1.024494,-2.8087 1.024494,-5.7395 0,-4.3962 -2.253888,-7.2049 -2.151438,-2.8087 -5.839618,-4.8846 -3.585731,-2.076 -8.298406,-3.6636 -4.610225,-1.7096 -9.527799,-3.6635 -4.815124,-1.9538 -9.527799,-4.5183 -4.610225,-2.6865 -8.298405,-6.7164 -3.58573,-4.0299 -5.83962,-9.8915 -2.15144,-5.8616 -2.15144,-14.1655 0,-7.6934 2.56124,-14.654 2.561235,-6.9607 7.478809,-12.0896 5.020023,-5.251 12.396383,-8.3039 7.47881,-3.1751 17.211508,-3.1751 10.859642,0 19.772744,4.2741 8.913102,4.2741 14.85517,11.2348 l -5.737169,10.8683 z"
       style="font-style:normal;font-variant:normal;font-weight:bold;font-stretch:normal;font-size:200px;line-height:100%;font-family:Lato;-inkscape-font-specification:'Lato Bold';letter-spacing:0px;word-spacing:0px;fill:#009ee0;fill-opacity:1;stroke:none;stroke-width:1px;stroke-linecap:butt;stroke-linejoin:miter;stroke-opacity:1"
       id="path3429"
       inkscape:connector-curvature="0" />
    <path
       d="m 57.739473,1157.9854 q 0,-5.8616 -1.434293,-10.9905 -1.331842,-5.251 -4.097978,-9.1587 -2.766135,-3.9078 -7.069012,-6.1059 -4.200427,-2.3202 -9.835147,-2.3202 -10.962091,0 -17.313957,7.4491 -6.249416,7.4491 -7.991057,21.1262 l 47.741444,0 z m -48.2536913,18.1954 q 0.6146963,9.6473 2.8685843,16.73 2.253888,6.9607 5.942068,11.6011 3.688181,4.5184 8.708204,6.8386 5.122472,2.1981 11.269439,2.1981 6.146967,0 10.552294,-1.7096 4.507775,-1.7097 7.786158,-3.7857 3.380832,-2.076 5.839618,-3.7856 2.561237,-1.7096 4.917574,-1.7096 3.175933,0 4.712675,2.8087 l 7.273911,10.9905 q -4.200428,5.8616 -9.42535,9.8914 -5.224922,3.9078 -10.962091,6.3501 -5.63472,2.3202 -11.576788,3.2972 -5.839618,0.9769 -11.371889,0.9769 -10.962091,0 -20.38744,-4.2741 -9.4253497,-4.3962 -16.3919123,-12.8223 -6.9665626,-8.5481 -10.9620907,-21.004 -3.995529,-12.5781 -3.995529,-29.0639 0,-12.8222 3.483281,-24.057 3.4832816,-11.3568 9.937597,-19.6608 6.5567648,-8.426 15.879665,-13.3107 9.425349,-4.8847 21.207036,-4.8847 9.937597,0 18.338451,3.7856 8.400855,3.7857 14.445373,11.1127 6.044517,7.2049 9.425349,17.829 3.483282,10.5021 3.483282,24.057 0,6.8386 -1.229394,9.2809 -1.229393,2.3202 -4.712675,2.3202 l -65.0554003,0 z"
       style="font-style:normal;font-variant:normal;font-weight:bold;font-stretch:normal;font-size:200px;line-height:100%;font-family:Lato;-inkscape-font-specification:'Lato Bold';letter-spacing:0px;word-spacing:0px;fill:#009ee0;fill-opacity:1;stroke:none;stroke-width:1px;stroke-linecap:butt;stroke-linejoin:miter;stroke-opacity:1"
       id="path3431"
       inkscape:connector-curvature="0" />
    <path
       d="m 166.9922,1157.9854 q 0,-5.8616 -1.43429,-10.9905 -1.33184,-5.251 -4.09798,-9.1587 -2.76613,-3.9078 -7.06901,-6.1059 -4.20043,-2.3202 -9.83515,-2.3202 -10.96209,0 -17.31396,7.4491 -6.24941,7.4491 -7.99105,21.1262 l 47.74144,0 z m -48.25369,18.1954 q 0.6147,9.6473 2.86858,16.73 2.25389,6.9607 5.94207,11.6011 3.68818,4.5184 8.70821,6.8386 5.12247,2.1981 11.26944,2.1981 6.14696,0 10.55229,-1.7096 4.50777,-1.7097 7.78616,-3.7857 3.38083,-2.076 5.83962,-3.7856 2.56123,-1.7096 4.91757,-1.7096 3.17593,0 4.71267,2.8087 l 7.27392,10.9905 q -4.20043,5.8616 -9.42535,9.8914 -5.22493,3.9078 -10.9621,6.3501 -5.63472,2.3202 -11.57678,3.2972 -5.83962,0.9769 -11.37189,0.9769 -10.96209,0 -20.38744,-4.2741 -9.42535,-4.3962 -16.39191,-12.8223 -6.96657,-8.5481 -10.962096,-21.004 -3.995528,-12.5781 -3.995528,-29.0639 0,-12.8222 3.483281,-24.057 3.483283,-11.3568 9.937593,-19.6608 6.55677,-8.426 15.87967,-13.3107 9.42535,-4.8847 21.20703,-4.8847 9.9376,0 18.33846,3.7856 8.40085,3.7857 14.44537,11.1127 6.04452,7.2049 9.42535,17.829 3.48328,10.5021 3.48328,24.057 0,6.8386 -1.22939,9.2809 -1.2294,2.3202 -4.71268,2.3202 l -65.0554,0 z"
       style="font-style:normal;font-variant:normal;font-weight:bold;font-stretch:normal;font-size:200px;line-height:100%;font-family:Lato;-inkscape-font-specification:'Lato Bold';letter-spacing:0px;word-spacing:0px;fill:#009ee0;fill-opacity:1;stroke:none;stroke-width:1px;stroke-linecap:butt;stroke-linejoin:miter;stroke-opacity:1"
       id="path3433"
       inkscape:connector-curvature="0" />
    <path
       d="m 204.83767,1218.4333 q 0,-3.7857 1.12695,-7.2049 1.22939,-3.4193 3.27838,-5.8616 2.04899,-2.4424 4.91757,-3.9078 2.86859,-1.4654 6.14697,-1.4654 3.27838,0 6.04452,1.4654 2.86858,1.4654 4.91757,3.9078 2.15144,2.4423 3.38083,5.8616 1.2294,3.4192 1.2294,7.2049 0,3.9077 -1.2294,7.327 -1.22939,3.2971 -3.38083,5.7395 -2.04899,2.4423 -4.91757,3.7856 -2.76614,1.4654 -6.04452,1.4654 -3.27838,0 -6.14697,-1.4654 -2.86858,-1.3433 -4.91757,-3.7856 -2.04899,-2.4424 -3.27838,-5.7395 -1.12695,-3.4193 -1.12695,-7.327 z"
       style="font-style:normal;font-variant:normal;font-weight:bold;font-stretch:normal;font-size:200px;line-height:100%;font-family:Lato;-inkscape-font-specification:'Lato Bold';text-align:start;letter-spacing:0px;word-spacing:0px;writing-mode:lr-tb;text-anchor:start;fill:#000000;fill-opacity:1;stroke:none;stroke-width:1px;stroke-linecap:butt;stroke-linejoin:miter;stroke-opacity:1"
       id="path3435"
       inkscape:connector-curvature="0" />
    <path
       d="m 264.72578,1235.0412 0,-102.5782 -9.118,-1.7096 q -2.97103,-0.7327 -4.81513,-2.4424 -1.74164,-1.8317 -1.74164,-5.1289 l 0,-12.3338 15.67477,0 0,-9.2808 q 0,-10.7463 2.66369,-19.2945 2.76613,-8.5482 7.78615,-14.5319 5.12248,-5.9837 12.39639,-9.1588 7.27391,-3.175 16.39188,-3.175 7.27391,0 13.52333,2.3202 l -0.51225,15.1425 q -0.10245,1.7096 -0.8196,2.8087 -0.71714,0.9769 -1.94654,1.5875 -1.12694,0.4885 -2.66368,0.7327 -1.53674,0.1221 -3.27838,0.1221 -4.50775,0 -8.09348,1.2212 -3.48328,1.099 -5.94207,4.0298 -2.45879,2.8087 -3.79063,7.5713 -1.22939,4.6404 -1.22939,11.6011 l 0,8.3039 27.35397,0 0,21.4926 -26.53438,0 0,102.7003 -25.30501,0 z"
       style="font-style:normal;font-variant:normal;font-weight:bold;font-stretch:normal;font-size:200px;line-height:100%;font-family:Lato;-inkscape-font-specification:'Lato Bold';letter-spacing:0px;word-spacing:0px;fill:#de2c68;fill-opacity:1;stroke:none;stroke-width:1px;stroke-linecap:butt;stroke-linejoin:miter;stroke-opacity:1"
       id="path3437"
       inkscape:connector-curvature="0" />
    <path
       d="m 354.85565,1131.4861 q 4.91758,-11.2348 11.67924,-17.5848 6.76166,-6.4722 15.98211,-6.4722 7.27392,0 11.67924,3.7856 l -1.63919,22.5916 q -0.51225,2.1981 -1.53674,3.175 -0.92205,0.8549 -2.56124,0.8549 -1.53674,0 -4.61022,-0.6106 -2.97104,-0.6106 -5.83962,-0.6106 -4.20043,0 -7.47881,1.4654 -3.27838,1.4654 -5.94207,4.2741 -2.56124,2.6865 -4.61022,6.5943 -1.94654,3.9077 -3.68818,8.9145 l 0,77.1779 -25.30502,0 0,-125.2919 14.85517,0 q 3.89308,0 5.42982,1.7096 1.53674,1.5875 2.04899,5.8616 l 1.53674,14.1656 z"
       style="font-style:normal;font-variant:normal;font-weight:bold;font-stretch:normal;font-size:200px;line-height:100%;font-family:Lato;-inkscape-font-specification:'Lato Bold';letter-spacing:0px;word-spacing:0px;fill:#de2c68;fill-opacity:1;stroke:none;stroke-width:1px;stroke-linecap:butt;stroke-linejoin:miter;stroke-opacity:1"
       id="path3439"
       inkscape:connector-curvature="0" />
    <path
       d="m 472.33956,1157.9854 q 0,-5.8616 -1.43429,-10.9905 -1.33185,-5.251 -4.09798,-9.1587 -2.76614,-3.9078 -7.06901,-6.1059 -4.20043,-2.3202 -9.83515,-2.3202 -10.96209,0 -17.31396,7.4491 -6.24941,7.4491 -7.99105,21.1262 l 47.74144,0 z m -48.25369,18.1954 q 0.6147,9.6473 2.86858,16.73 2.25389,6.9607 5.94207,11.6011 3.68818,4.5184 8.7082,6.8386 5.12248,2.1981 11.26944,2.1981 6.14697,0 10.5523,-1.7096 4.50777,-1.7097 7.78616,-3.7857 3.38083,-2.076 5.83961,-3.7856 2.56124,-1.7096 4.91758,-1.7096 3.17593,0 4.71267,2.8087 l 7.27391,10.9905 q -4.20042,5.8616 -9.42535,9.8914 -5.22492,3.9078 -10.96209,6.3501 -5.63472,2.3202 -11.57678,3.2972 -5.83962,0.9769 -11.37189,0.9769 -10.96209,0 -20.38744,-4.2741 -9.42535,-4.3962 -16.39192,-12.8223 -6.96656,-8.5481 -10.96209,-21.004 -3.99553,-12.5781 -3.99553,-29.0639 0,-12.8222 3.48329,-24.057 3.48328,-11.3568 9.93759,-19.6608 6.55677,-8.426 15.87967,-13.3107 9.42535,-4.8847 21.20703,-4.8847 9.9376,0 18.33845,3.7856 8.40086,3.7857 14.44538,11.1127 6.04451,7.2049 9.42535,17.829 3.48328,10.5021 3.48328,24.057 0,6.8386 -1.2294,9.2809 -1.22939,2.3202 -4.71267,2.3202 l -65.0554,0 z"
       style="font-style:normal;font-variant:normal;font-weight:bold;font-stretch:normal;font-size:200px;line-height:100%;font-family:Lato;-inkscape-font-specification:'Lato Bold';letter-spacing:0px;word-spacing:0px;fill:#de2c68;fill-opacity:1;stroke:none;stroke-width:1px;stroke-linecap:butt;stroke-linejoin:miter;stroke-opacity:1"
       id="path3441"
       inkscape:connector-curvature="0" />
    <path
       d="m 540.10034,1109.7493 0,125.2919 -25.40746,0 0,-125.2919 25.40746,0 z m 3.48328,-36.5129 q 0,3.9077 -1.33184,7.327 -1.33184,3.4192 -3.58573,5.9837 -2.15144,2.5644 -5.12247,4.152 -2.97104,1.4654 -6.35187,1.4654 -3.27838,0 -6.24941,-1.4654 -2.86859,-1.5876 -5.02003,-4.152 -2.15144,-2.5645 -3.48328,-5.9837 -1.22939,-3.4193 -1.22939,-7.327 0,-4.0299 1.22939,-7.5713 1.33184,-3.5414 3.48328,-6.1058 2.15144,-2.5645 5.02003,-4.0299 2.97103,-1.5875 6.24941,-1.5875 3.38083,0 6.35187,1.5875 2.97103,1.4654 5.12247,4.0299 2.25389,2.5644 3.58573,6.1058 1.33184,3.5414 1.33184,7.5713 z"
       style="font-style:normal;font-variant:normal;font-weight:bold;font-stretch:normal;font-size:200px;line-height:100%;font-family:Lato;-inkscape-font-specification:'Lato Bold';letter-spacing:0px;word-spacing:0px;fill:#de2c68;fill-opacity:1;stroke:none;stroke-width:1px;stroke-linecap:butt;stroke-linejoin:miter;stroke-opacity:1"
       id="path3443"
       inkscape:connector-curvature="0" />
    <path
       d="m 573.2747,1235.0412 0,-102.5782 -9.118,-1.7096 q -2.97103,-0.7327 -4.81512,-2.4424 -1.74164,-1.8317 -1.74164,-5.1289 l 0,-12.3338 15.67476,0 0,-9.2808 q 0,-10.7463 2.66369,-19.2945 2.76614,-8.5482 7.78616,-14.5319 5.12247,-5.9837 12.39638,-9.1588 7.27391,-3.175 16.39191,-3.175 7.27391,0 13.52333,2.3202 l -0.51225,15.1425 q -0.10245,1.7096 -0.81959,2.8087 -0.71715,0.9769 -1.94654,1.5875 -1.12695,0.4885 -2.66369,0.7327 -1.53674,0.1221 -3.27838,0.1221 -4.50777,0 -8.09351,1.2212 -3.48328,1.099 -5.94206,4.0298 -2.45879,2.8087 -3.79063,7.5713 -1.2294,4.6404 -1.2294,11.6011 l 0,8.3039 27.35401,0 0,21.4926 -26.53441,0 0,102.7003 -25.30502,0 z"
       style="font-style:normal;font-variant:normal;font-weight:bold;font-stretch:normal;font-size:200px;line-height:100%;font-family:Lato;-inkscape-font-specification:'Lato Bold';letter-spacing:0px;word-spacing:0px;fill:#de2c68;fill-opacity:1;stroke:none;stroke-width:1px;stroke-linecap:butt;stroke-linejoin:miter;stroke-opacity:1"
       id="path3445"
       inkscape:connector-curvature="0" />
    <path
       d="m 730.0992,1109.7493 0,125.2919 -15.46987,0 q -5.02002,0 -6.35186,-5.4953 l -1.74164,-10.0136 q -6.45432,7.8155 -14.24048,12.7002 -7.78616,4.7625 -18.33845,4.7625 -8.60575,0 -15.26497,-3.4193 -6.55676,-3.5413 -11.06454,-9.8914 -4.50777,-6.3501 -6.86411,-15.0204 -2.25389,-8.7924 -2.25389,-19.2944 l 0,-79.6202 25.30502,0 0,79.6202 q 0,11.4789 4.40532,17.829 4.50778,6.228 13.42088,6.228 6.55677,0 12.29393,-3.4193 5.73717,-3.5414 10.85965,-9.6472 l 0,-90.6107 25.30501,0 z"
       style="font-style:normal;font-variant:normal;font-weight:bold;font-stretch:normal;font-size:200px;line-height:100%;font-family:Lato;-inkscape-font-specification:'Lato Bold';letter-spacing:0px;word-spacing:0px;fill:#de2c68;fill-opacity:1;stroke:none;stroke-width:1px;stroke-linecap:butt;stroke-linejoin:miter;stroke-opacity:1"
       id="path3447"
       inkscape:connector-curvature="0" />
    <path
       d="m 778.85551,1125.136 q 3.17593,-3.7856 6.65921,-6.9607 3.58573,-3.2971 7.47881,-5.4952 3.99553,-2.3202 8.50331,-3.5414 4.50777,-1.3433 9.83514,-1.3433 8.60576,0 15.26497,3.5414 6.65922,3.4193 11.06454,9.7693 4.50778,6.228 6.76167,15.0204 2.35633,8.6703 2.35633,19.1724 l 0,79.7423 -25.30501,0 0,-79.7423 q 0,-11.479 -4.40533,-17.707 -4.40532,-6.3501 -13.42087,-6.3501 -6.55677,0 -12.29394,3.5414 -5.73717,3.5414 -10.85964,9.6473 l 0,90.6107 -25.30501,0 0,-125.2919 15.46986,0 q 4.91758,0 6.45432,5.4952 l 1.74164,9.8915 z"
       style="font-style:normal;font-variant:normal;font-weight:bold;font-stretch:normal;font-size:200px;line-height:100%;font-family:Lato;-inkscape-font-specification:'Lato Bold';letter-spacing:0px;word-spacing:0px;fill:#de2c68;fill-opacity:1;stroke:none;stroke-width:1px;stroke-linecap:butt;stroke-linejoin:miter;stroke-opacity:1"
       id="path3449"
       inkscape:connector-curvature="0" />
    <path
       d="m 896.1506,1053.5755 0,103.9215 4.71268,0 q 2.56123,0 3.99552,-0.7327 1.53675,-0.8549 3.07349,-3.2972 l 26.12461,-38.4668 q 1.63919,-2.5644 3.58573,-3.9077 2.04899,-1.3433 5.22492,-1.3433 l 23.15358,0 -32.68138,46.5265 q -3.48328,5.4953 -7.58126,8.4261 2.15144,1.8317 3.79063,4.274 1.74164,2.4424 3.27838,5.2511 l 35.03772,60.8142 -22.84623,0 q -2.97104,0 -5.12247,-1.0991 -2.15144,-1.2212 -3.58574,-4.2741 l -26.84175,-47.5034 q -1.43429,-2.8087 -2.97103,-3.6635 -1.53675,-0.8549 -4.61023,-0.8549 l -5.73717,0 0,57.395 -25.30501,0 0,-181.4657 25.30501,0 z"
       style="font-style:normal;font-variant:normal;font-weight:bold;font-stretch:normal;font-size:200px;line-height:100%;font-family:Lato;-inkscape-font-specification:'Lato Bold';letter-spacing:0px;word-spacing:0px;fill:#de2c68;fill-opacity:1;stroke:none;stroke-width:1px;stroke-linecap:butt;stroke-linejoin:miter;stroke-opacity:1"
       id="path3451"
       inkscape:connector-curvature="0" />
    <path
       d="m 976.81028,1218.4333 q 0,-3.7857 1.12695,-7.2049 1.22939,-3.4193 3.27838,-5.8616 2.04899,-2.4424 4.91757,-3.9078 2.86859,-1.4654 6.14697,-1.4654 3.27838,0 6.04452,1.4654 2.86863,1.4654 4.91753,3.9078 2.1515,2.4423 3.3809,5.8616 1.2294,3.4192 1.2294,7.2049 0,3.9077 -1.2294,7.327 -1.2294,3.2971 -3.3809,5.7395 -2.0489,2.4423 -4.91753,3.7856 -2.76614,1.4654 -6.04452,1.4654 -3.27838,0 -6.14697,-1.4654 -2.86858,-1.3433 -4.91757,-3.7856 -2.04899,-2.4424 -3.27838,-5.7395 -1.12695,-3.4193 -1.12695,-7.327 z"
       style="font-style:normal;font-variant:normal;font-weight:bold;font-stretch:normal;font-size:200px;line-height:100%;font-family:Lato;-inkscape-font-specification:'Lato Bold';text-align:start;letter-spacing:0px;word-spacing:0px;writing-mode:lr-tb;text-anchor:start;fill:#000000;fill-opacity:1;stroke:none;stroke-width:1px;stroke-linecap:butt;stroke-linejoin:miter;stroke-opacity:1"
       id="path3453"
       inkscape:connector-curvature="0" />
    <path
       d="m 1052.9879,1125.136 q 3.1759,-3.7856 6.6592,-6.9607 3.5857,-3.2971 7.4788,-5.4952 3.9956,-2.3202 8.5033,-3.5414 4.5078,-1.3433 9.8352,-1.3433 8.6057,0 15.2649,3.5414 6.6593,3.4193 11.0646,9.7693 4.5078,6.228 6.7617,15.0204 2.3563,8.6703 2.3563,19.1724 l 0,79.7423 -25.305,0 0,-79.7423 q 0,-11.479 -4.4054,-17.707 -4.4053,-6.3501 -13.4208,-6.3501 -6.5568,0 -12.294,3.5414 -5.7371,3.5414 -10.8596,9.6473 l 0,90.6107 -25.305,0 0,-125.2919 15.4698,0 q 4.9176,0 6.4544,5.4952 l 1.7416,9.8915 z"
       style="font-style:normal;font-variant:normal;font-weight:bold;font-stretch:normal;font-size:200px;line-height:100%;font-family:Lato;-inkscape-font-specification:'Lato Bold';text-align:start;letter-spacing:0px;word-spacing:0px;writing-mode:lr-tb;text-anchor:start;fill:#000000;fill-opacity:1;stroke:none;stroke-width:1px;stroke-linecap:butt;stroke-linejoin:miter;stroke-opacity:1"
       id="path3455"
       inkscape:connector-curvature="0" />
    <path
       d="m 1212.697,1157.9854 q 0,-5.8616 -1.4343,-10.9905 -1.3319,-5.251 -4.098,-9.1587 -2.7661,-3.9078 -7.069,-6.1059 -4.2004,-2.3202 -9.8352,-2.3202 -10.9621,0 -17.3139,7.4491 -6.2494,7.4491 -7.9911,21.1262 l 47.7415,0 z m -48.2537,18.1954 q 0.6147,9.6473 2.8686,16.73 2.2538,6.9607 5.942,11.6011 3.6882,4.5184 8.7082,6.8386 5.1225,2.1981 11.2695,2.1981 6.1469,0 10.5523,-1.7096 4.5077,-1.7097 7.7861,-3.7857 3.3809,-2.076 5.8396,-3.7856 2.5613,-1.7096 4.9176,-1.7096 3.1759,0 4.7127,2.8087 l 7.2739,10.9905 q -4.2004,5.8616 -9.4254,9.8914 -5.2249,3.9078 -10.962,6.3501 -5.6348,2.3202 -11.5768,3.2972 -5.8396,0.9769 -11.3719,0.9769 -10.9621,0 -20.3875,-4.2741 -9.4253,-4.3962 -16.3919,-12.8223 -6.9665,-8.5481 -10.9621,-21.004 -3.9955,-12.5781 -3.9955,-29.0639 0,-12.8222 3.4833,-24.057 3.4833,-11.3568 9.9376,-19.6608 6.5568,-8.426 15.8797,-13.3107 9.4253,-4.8847 21.207,-4.8847 9.9376,0 18.3384,3.7856 8.4009,3.7857 14.4454,11.1127 6.0445,7.2049 9.4254,17.829 3.4832,10.5021 3.4832,24.057 0,6.8386 -1.2294,9.2809 -1.2293,2.3202 -4.7126,2.3202 l -65.0554,0 z"
       style="font-style:normal;font-variant:normal;font-weight:bold;font-stretch:normal;font-size:200px;line-height:100%;font-family:Lato;-inkscape-font-specification:'Lato Bold';text-align:start;letter-spacing:0px;word-spacing:0px;writing-mode:lr-tb;text-anchor:start;fill:#000000;fill-opacity:1;stroke:none;stroke-width:1px;stroke-linecap:butt;stroke-linejoin:miter;stroke-opacity:1"
       id="path3457"
       inkscape:connector-curvature="0" />
    <path
       d="m 1288.0677,1236.995 q -13.7282,0 -21.1046,-9.1587 -7.2739,-9.2809 -7.2739,-25.5225 l 0,-69.9729 -10.7572,0 q -2.049,0 -3.4833,-1.5875 -1.4343,-1.5875 -1.4343,-4.7626 l 0,-11.9674 16.9042,-3.2972 5.3274,-34.1927 q 0.5122,-2.4423 1.9465,-3.7856 1.4343,-1.3433 3.6882,-1.3433 l 13.1135,0 0,39.4437 28.0712,0 0,21.4926 -28.0712,0 0,67.897 q 0,5.8616 2.3563,9.1587 2.4588,3.2972 6.6593,3.2972 2.3563,0 3.893,-0.6106 1.6392,-0.7327 2.7662,-1.4654 1.2294,-0.7327 2.1514,-1.3433 0.9221,-0.7327 1.8441,-0.7327 1.1269,0 1.8441,0.7327 0.7171,0.6106 1.5367,1.9539 l 7.5813,14.654 q -5.5323,5.4952 -12.7037,8.3039 -7.1715,2.8087 -14.8552,2.8087 z"
       style="font-style:normal;font-variant:normal;font-weight:bold;font-stretch:normal;font-size:200px;line-height:100%;font-family:Lato;-inkscape-font-specification:'Lato Bold';text-align:start;letter-spacing:0px;word-spacing:0px;writing-mode:lr-tb;text-anchor:start;fill:#000000;fill-opacity:1;stroke:none;stroke-width:1px;stroke-linecap:butt;stroke-linejoin:miter;stroke-opacity:1"
       id="path3459"
       inkscape:connector-curvature="0" />
  </g>
</svg>
