<?xml version="1.0" encoding="UTF-8" standalone="no"?>
<svg
   xmlns:osb="http://www.openswatchbook.org/uri/2009/osb"
   xmlns:dc="http://purl.org/dc/elements/1.1/"
   xmlns:cc="http://creativecommons.org/ns#"
   xmlns:rdf="http://www.w3.org/1999/02/22-rdf-syntax-ns#"
   xmlns:svg="http://www.w3.org/2000/svg"
   xmlns="http://www.w3.org/2000/svg"
   xmlns:sodipodi="http://sodipodi.sourceforge.net/DTD/sodipodi-0.dtd"
   xmlns:inkscape="http://www.inkscape.org/namespaces/inkscape"
   version="1.1"
   id="svg2"
   viewBox="0 0 744.09448819 1052.3622047"
   height="297mm"
   width="210mm"
   inkscape:version="0.91 r13725"
   sodipodi:docname="vorschlag 04.svg">
  <sodipodi:namedview
     pagecolor="#ffffff"
     bordercolor="#666666"
     borderopacity="1"
     objecttolerance="10"
     gridtolerance="10"
     guidetolerance="10"
     inkscape:pageopacity="0"
     inkscape:pageshadow="2"
     inkscape:window-width="1680"
     inkscape:window-height="987"
     id="namedview4162"
     showgrid="true"
     inkscape:zoom="0.31714784"
     inkscape:cx="333.56446"
     inkscape:cy="346.45302"
     inkscape:window-x="-8"
     inkscape:window-y="-8"
     inkscape:window-maximized="1"
     inkscape:current-layer="layer2">
    <inkscape:grid
       type="xygrid"
       id="grid3353" />
  </sodipodi:namedview>
  <defs
     id="defs4">
    <linearGradient
       osb:paint="solid"
       id="linearGradient5754">
      <stop
         id="stop5756"
         offset="0"
         style="stop-color:#000000;stop-opacity:1;" />
    </linearGradient>
    <style
       type="text/css"
       id="style3858"><![CDATA[
    .fil0 {fill:#495677}
   ]]></style>
  </defs>
  <metadata
     id="metadata7">
    <rdf:RDF>
      <cc:Work
         rdf:about="">
        <dc:format>image/svg+xml</dc:format>
        <dc:type
           rdf:resource="http://purl.org/dc/dcmitype/StillImage" />
        <dc:title></dc:title>
      </cc:Work>
    </rdf:RDF>
  </metadata>
  <g
     id="g4846"
     transform="translate(1273.8539,879.71591)"
     inkscape:export-xdpi="52.298561"
     inkscape:export-ydpi="52.298561">
    <g
       transform="matrix(1.2012595,0,0,1.0334517,-1685.7872,-737.80785)"
       id="layer4" />
    <g
       id="g4168"
       inkscape:export-xdpi="52"
       inkscape:export-ydpi="52">
      <g
         id="layer5"
         transform="translate(-1355.5852,-856.15908)">
        <rect
           y="-207.53676"
           x="-39.899006"
           height="1299.798"
           width="1299.7981"
           id="rect4195"
           style="fill:#ffffff;fill-opacity:1;stroke:none;stroke-width:0.20198619;stroke-miterlimit:4;stroke-dasharray:none;stroke-opacity:1" />
      </g>
      <g
         id="layer1"
         transform="translate(-1342.2077,-838.32243)">
        <ellipse
           ry="450.00021"
           rx="450.00043"
           cy="402.36288"
           cx="617.99939"
           id="path4136"
           style="fill:#000000;fill-opacity:0;stroke:#dc0067;stroke-width:100;stroke-miterlimit:4;stroke-dasharray:none;stroke-opacity:1" />
        <ellipse
           ry="349.99994"
           rx="349.99985"
           cy="402.36288"
           cx="617.99939"
           id="circle4140"
           style="fill:#000000;fill-opacity:0;stroke:#dc0067;stroke-width:20;stroke-miterlimit:4;stroke-dasharray:none;stroke-opacity:1" />
        <ellipse
           ry="328.59741"
           rx="338.98013"
           cy="236.31364"
           cx="1175.5878"
           id="circle4140-7"
           style="fill:#000000;fill-opacity:0;stroke:#dc0067;stroke-width:19.07134247;stroke-miterlimit:4;stroke-dasharray:none;stroke-opacity:1" />
      </g>
      <text
         transform="scale(0.95399757,1.0482207)"
         id="text4186"
         y="201.23297"
         x="-1229.6887"
         style="font-style:normal;font-variant:normal;font-weight:normal;font-stretch:condensed;font-size:172.05128479px;line-height:125%;font-family:Impact;-inkscape-font-specification:'Impact Condensed';letter-spacing:0px;word-spacing:0px;fill:#000000;fill-opacity:1;stroke:none;stroke-width:1px;stroke-linecap:butt;stroke-linejoin:miter;stroke-opacity:1"
         xml:space="preserve"
         sodipodi:linespacing="125%"><tspan
           style="font-style:normal;font-variant:normal;font-weight:normal;font-stretch:condensed;font-size:216.25px;font-family:'AlternateGothic2 BT';-inkscape-font-specification:'AlternateGothic2 BT Condensed'"
           y="201.23297"
           x="-1229.6887"
           id="tspan4188">bodensee.<tspan
   id="tspan4151"
   style="font-size:216.25px;fill:#dc0060;fill-opacity:1">freifunk</tspan>.net</tspan></text>
      <g
         transform="translate(184.20553,1046.567)"
         id="g5858">
        <g
           id="g5827"
           transform="translate(642.11931,-1627.5941)">
          <polygon
             style="fill:#ffcc33;fill-opacity:1"
             points="81,41 73,41 64,50 73,59 81,59 75,53 88,53 88,47 75,47 "
             transform="matrix(9.0595579,0,0,9.4712128,-1568.233,-654.56773)"
             id="polygon5366"
             inkscape:transform-center-x="917.72492"
             inkscape:transform-center-y="7.661459" />
          <polygon
             style="fill:#ffcc33;fill-opacity:1"
             points="75,53 88,53 88,47 75,47 81,41 73,41 64,50 73,59 81,59 "
             transform="matrix(-11.945,0,0,13.187181,-742.80537,-337.92332)"
             id="polygon5366-7"
             inkscape:transform-center-x="-1210.0176"
             inkscape:transform-center-y="10.667374" />
        </g>
      </g>
      <g
         id="layer2"
         transform="translate(-1339.8197,-834.08735)">
        <path
           id="path4165"
           d="m 765.00933,610.12789 c -2.91122,-0.99562 -5.64677,-2.20137 -6.08172,-2.67789 -0.43213,-0.4762 -3.18365,-3.52446 -6.11084,-6.77317 -6.21136,-6.89383 -11.67401,-10.6995 -17.58664,-12.25433 -2.6557,-0.69117 -4.86425,-2.07053 -5.93329,-3.68234 -0.93941,-1.41371 -4.04321,-3.59543 -6.90653,-4.84756 -5.84217,-2.55641 -7.05212,-4.19898 -7.96617,-10.79566 -0.57303,-4.13089 -1.09159,-4.86434 -5.20995,-7.37776 -7.36213,-4.49066 -10.98448,-7.10405 -14.57208,-10.51261 -1.85251,-1.7595 -3.75387,-3.19934 -4.22733,-3.19934 -0.4697,0 -4.62752,-3.57301 -9.23437,-7.94119 -4.60779,-4.36631 -10.03663,-9.01197 -12.06574,-10.32294 -4.44434,-2.87042 -6.248,-8.1365 -5.24941,-15.32366 0.36637,-2.62276 0.35697,-6.55277 0,-8.73171 -0.58243,-3.39178 -1.42978,-4.45693 -5.91451,-7.40203 -2.88116,-1.89218 -5.94832,-3.44043 -6.81727,-3.44043 -0.87365,0 -1.8093,-0.37336 -2.09019,-0.81254 -0.28182,-0.45769 -4.73555,-2.89284 -9.89759,-5.42868 -5.16204,-2.53503 -9.93892,-5.26803 -10.61342,-6.07255 -0.67637,-0.80328 -1.95584,-1.46977 -2.8464,-1.4781 -0.89244,-0.007 -2.5984,-0.56055 -3.79333,-1.23063 -9.44198,-5.27822 -14.0648,-8.31218 -19.48706,-12.7868 -13.48988,-11.12931 -13.79331,-11.32082 -27.08874,-17.01303 -4.51009,-1.93137 -20.93468,-9.97725 -29.34895,-14.37905 -4.10427,-2.14623 -9.4758,-4.17573 -11.93892,-4.51021 -4.5721,-0.62637 -14.43023,-4.59619 -15.45043,-6.22847 -0.72334,-1.16234 -14.11553,-7.82814 -15.72285,-7.82814 -0.66698,0 -4.33819,-1.48849 -8.15312,-3.30776 -7.56222,-3.60571 -12.90369,-9.09385 -14.53262,-14.93487 -0.51668,-1.842 -1.62142,-4.02865 -2.46125,-4.85981 -2.29685,-2.27193 -12.72333,-1.95966 -18.29683,0.54615 -11.0634,4.97942 -15.54061,5.93184 -22.15873,4.71437 -3.40723,-0.62947 -10.67261,-1.42133 -16.14559,-1.76691 -9.21652,-0.58421 -10.27617,-0.87117 -14.4246,-3.88785 -3.9286,-2.86045 -4.96476,-3.17724 -8.45654,-2.59354 -2.18882,0.36205 -16.51571,0.59346 -31.8365,0.50089 -27.71251,-0.15736 -27.88066,-0.1481 -32.33909,2.21824 -2.465,1.30921 -6.81633,2.9345 -9.67025,3.61178 -5.85721,1.39078 -11.84311,4.17326 -13.55283,6.29975 -3.53687,4.39738 -14.15029,12.48594 -17.10284,13.03447 -1.83091,0.34558 -4.78534,1.68092 -6.56552,2.97965 -1.77923,1.30068 -3.80929,2.36304 -4.51009,2.36304 -0.70456,0 -2.74119,0.87836 -4.5317,1.96501 -1.79239,1.08202 -4.90276,1.96778 -6.91216,1.96963 -2.49036,0.003 -4.64442,0.8218 -6.76185,2.59005 -2.04509,1.70335 -4.70737,2.75543 -7.78674,3.07696 -2.83325,0.29929 -5.59511,1.31363 -6.99858,2.57976 -3.31517,2.99281 -12.53169,2.96288 -16.40581,-0.0926 -1.51808,-1.18003 -4.03475,-2.42374 -5.59417,-2.76284 -1.55941,-0.34559 -3.58853,-1.43995 -4.50915,-2.44811 -0.95538,-1.04273 -3.75857,-2.11537 -6.52042,-2.49008 -5.99436,-0.81253 -8.27148,-2.97131 -5.40441,-5.11477 1.51902,-1.13622 3.66368,-1.32588 9.6571,-0.85059 4.23954,0.33632 8.85673,1.03809 10.26302,1.56603 4.42367,1.6651 9.62705,1.05579 17.84874,-2.08925 4.37763,-1.67537 10.80036,-3.8431 14.27522,-4.81948 3.47393,-0.97609 6.80977,-2.26215 7.41193,-2.85922 0.60122,-0.59243 1.83372,-1.08263 2.73367,-1.08263 0.90183,0 3.83466,-2.02178 6.51667,-4.49118 2.68294,-2.47012 6.73085,-5.3137 8.99576,-6.31816 2.26585,-1.00487 4.41897,-2.30617 4.7844,-2.89181 0.36637,-0.58421 1.84687,-1.06648 3.2898,-1.06648 4.37106,0 32.08075,-28.88216 32.08075,-33.43712 0,-1.18414 -1.16674,-3.11613 -2.59182,-4.2938 -1.42602,-1.17674 -3.37905,-2.85469 -4.341,-3.72852 -0.96196,-0.87117 -3.46548,-1.9068 -5.56317,-2.296 -2.0977,-0.38981 -4.86707,-1.52695 -6.15218,-2.52761 -1.28699,-1.00178 -3.77266,-2.12196 -5.52559,-2.48976 -1.75199,-0.3713 -3.85815,-1.22951 -4.67919,-1.91327 -0.82668,-0.68604 -3.28322,-1.79942 -5.4711,-2.47959 -2.18976,-0.67677 -4.59934,-1.73358 -5.3565,-2.3396 -1.4232,-1.13878 -6.48473,-3.88691 -13.74353,-7.46167 -2.29779,-1.13139 -5.13761,-3.38932 -6.30999,-5.0183 l -2.13058,-2.96227 4.31846,-3.89155 c 4.69515,-4.22983 16.06573,-8.50594 20.02721,-7.53121 11.95114,2.94098 12.86518,3.30138 24.08734,9.49179 7.74353,4.27056 12.43587,5.0869 12.43587,2.16259 0,-1.50464 -7.57162,-8.04259 -9.31516,-8.04259 -0.89244,0 -9.2184,-5.75668 -10.44339,-7.21802 -0.89244,-1.05723 -0.67637,-1.94948 0.93001,-3.96385 1.13669,-1.43059 2.63974,-2.60085 3.33866,-2.60085 1.36214,0 8.78439,3.7276 13.26724,6.662 6.5627,4.29555 15.32267,8.90625 27.59978,14.525 2.73555,1.25173 7.44292,3.4209 10.46124,4.82001 3.01643,1.39818 6.04038,2.54334 6.71769,2.54334 0.67638,0 2.90371,0.88968 4.94598,1.96902 2.04227,1.08223 4.39737,1.96902 5.23438,1.96902 0.83607,0 3.12728,0.85265 5.08783,1.89014 1.96054,1.04056 5.45513,2.39431 7.76514,3.0104 9.14606,2.437 24.95252,15.89439 24.95252,21.2444 0,4.21872 -3.25692,5.23059 -14.55423,4.51709 l -10.07796,-0.63872 -5.01831,-4.42998 c -8.9037,-7.86198 -10.58148,-8.78941 -17.75103,-9.81516 -9.75856,-1.39541 -9.30671,-1.55935 -9.30671,3.36988 0,6.72422 1.49836,9.01373 6.83137,10.4369 2.53546,0.67678 5.33207,1.84015 6.21324,2.58707 0.88304,0.7498 4.24048,1.77905 7.46265,2.29692 3.22122,0.51838 7.07843,1.43983 8.57115,2.04955 1.5378,0.62946 4.34006,0.82488 6.46687,0.45358 2.06482,-0.36204 7.57726,-1.14064 12.25175,-1.73925 11.72756,-1.50011 13.18646,-0.72305 18.48189,9.8921 3.33678,6.68617 4.86989,8.66989 8.24706,10.66205 l 4.14654,2.44708 5.68247,-2.24507 c 3.12541,-1.23424 6.72804,-3.15224 8.00563,-4.26223 2.07327,-1.80034 3.44856,-1.99021 12.74399,-1.76702 7.35556,0.17691 11.35556,0.73129 13.5951,1.88375 3.11226,1.59927 25.45511,3.61364 28.29588,2.55086 1.96618,-0.74054 1.4542,-5.13689 -1.10944,-9.52141 -1.2945,-2.2136 -2.65007,-5.64282 -3.01174,-7.6211 -0.85486,-4.63281 -6.75527,-11.93415 -14.56456,-18.00597 -3.51057,-2.72879 -6.76186,-6.19689 -7.54156,-8.04269 -0.76092,-1.7845 -2.42461,-4.26131 -3.71348,-5.5047 -2.33067,-2.24692 -2.61907,-3.39683 -5.53217,-22.0487 -1.18553,-7.59138 -3.69187,-11.66735 -9.73507,-15.82858 -15.50867,-10.68035 -14.94221,-10.40604 -22.50632,-10.89316 -7.76795,-0.49987 -11.488,-2.28241 -19.09062,-9.146 -5.30108,-4.78493 -11.00985,-7.89377 -22.38419,-12.18757 -5.19868,-1.96223 -9.94926,-3.89175 -10.55518,-4.28763 -0.61062,-0.39599 -2.39831,-1.58981 -3.98027,-2.6531 -3.29168,-2.21298 -34.20569,-33.13832 -34.21132,-34.22383 0,-0.3929 -1.07468,-1.41043 -2.38516,-2.25937 -2.80319,-1.81803 -4.35133,-9.034 -2.62282,-12.23015 0.59182,-1.09447 3.53781,-3.14207 6.54673,-4.55032 4.41051,-2.06447 6.28369,-2.43073 9.67401,-1.89106 4.8417,0.77037 6.85391,1.92315 15.34991,8.78601 9.22216,7.45088 11.94644,9.41486 13.06245,9.41486 0.55425,0 2.27525,1.04694 3.82151,2.32664 1.5472,1.27939 3.93236,2.66945 5.30014,3.08867 1.36683,0.41965 3.51526,1.5569 4.77218,2.52793 1.25693,0.97093 3.55096,2.0406 5.09817,2.37683 1.5472,0.33633 3.84311,1.69594 5.10191,3.02152 1.25693,1.32566 2.71301,2.41015 3.23438,2.41015 0.52607,0 4.13809,3.06173 8.03569,6.80394 12.33911,11.84784 11.87598,11.55348 19.24469,12.23447 4.38328,0.4042 7.65053,1.30808 9.42225,2.60454 1.49272,1.09158 3.26726,1.98455 3.9427,1.98455 0.67637,0 2.82291,1.04097 4.76655,2.31337 9.55095,6.24935 13.43915,8.51592 14.60684,8.51592 0.70455,0 2.92625,1.10763 4.94222,2.46127 2.01596,1.35365 4.76279,2.46118 6.10614,2.46118 1.34148,0 3.57726,0.88556 4.96853,1.96902 1.3922,1.08293 3.19492,1.96891 4.00845,1.96891 1.9333,0 9.38373,4.55258 14.24422,8.70404 2.74777,2.34608 4.01033,4.32055 4.40676,6.89085 0.31001,1.98105 1.1799,5.59561 1.94176,8.03241 0.76092,2.43689 1.67026,6.1321 2.02066,8.21137 0.50728,3.01411 2.11648,5.21002 7.93611,10.82878 4.01503,3.87673 9.24752,8.28358 11.62798,9.79294 2.38046,1.50938 6.34288,4.27056 8.806,6.13571 2.46125,1.86523 6.04227,4.30018 7.95772,5.4111 1.91545,1.11101 5.49741,3.32091 7.95959,4.91092 2.46219,1.59001 8.05824,4.73381 12.43587,6.98721 4.37764,2.25249 9.02677,4.92389 10.33254,5.93565 1.3039,1.01208 3.09535,1.84107 3.97933,1.84385 0.88304,0.002 4.29309,1.32876 7.57632,2.94931 3.28229,1.62055 6.45842,2.94736 7.05776,2.95013 0.60122,0.002 1.86003,0.84237 2.80225,1.8745 0.94129,1.02936 3.32175,2.17092 5.29168,2.53605 1.969,0.36204 5.76984,1.79848 8.44621,3.18371 5.98121,3.09474 12.3579,2.75554 20.67447,-1.09795 3.00986,-1.39459 6.2743,-2.53986 7.25222,-2.54542 0.9798,-0.005 3.44199,-0.8331 5.47205,-1.8494 4.42273,-2.20341 10.20947,-3.12529 20.36822,-3.24203 8.465,-0.0926 15.52088,2.45819 18.27523,6.61839 1.56787,2.3684 4.8417,3.61919 18.77123,7.17359 17.37433,4.43183 18.20101,4.55135 22.93186,3.2986 2.45185,-0.64797 5.74823,-1.17952 7.32644,-1.17952 5.17895,0 14.09392,5.54553 21.97648,13.6705 7.09253,7.3109 7.63175,8.19482 10.81258,17.73948 2.34194,7.02733 4.02911,10.48638 5.61765,11.51604 2.53828,1.64637 3.70502,4.14961 5.8356,12.52154 1.23344,4.85127 2.35321,6.5901 7.28604,11.32175 5.26819,5.05502 7.4044,6.60131 14.94315,10.82467 6.30248,3.53011 19.72472,2.53779 26.59649,-1.96676 3.63926,-2.38454 5.2184,-2.86487 7.83465,-2.37807 3.80742,0.70044 9.1874,5.81274 10.13526,9.62129 0.35698,1.4492 1.51057,3.40011 2.55613,4.33639 1.04462,0.93493 1.90042,2.28168 1.90042,2.99189 0,2.46394 4.05918,3.5907 10.55987,2.9311 5.82151,-0.58832 6.34194,-0.46695 7.4495,1.60431 1.53593,2.88533 2.80225,3.68049 5.89008,3.69921 1.57821,0 4.34006,1.67897 7.44668,4.50085 l 4.93847,4.48686 12.60026,0.72923 c 11.67683,0.68191 12.86518,0.93698 16.23389,3.47962 1.99906,1.50813 3.46642,3.25539 3.26163,3.88424 -0.20667,0.62638 -2.04979,1.9322 -4.0977,2.90118 -4.99201,2.36026 -4.589,5.0073 0.83607,5.44741 3.47393,0.27976 4.26021,-0.0926 7.03053,-3.35909 2.03757,-2.40223 4.64348,-4.12615 7.52089,-4.97736 10.21699,-3.02368 17.05493,-0.17794 24.00185,9.99587 2.58525,3.7851 6.26396,8.21312 8.17472,9.83707 1.91075,1.62395 6.39736,5.3894 9.96898,8.36916 6.81634,5.68005 8.51949,8.65971 8.51949,14.89753 0,2.78445 -0.77032,4.61955 -2.91029,6.99011 l -2.90934,3.21508 -17.23718,0 c -9.47956,0 -17.81397,0.13062 -18.52229,0.25199 -0.70455,0.11211 -3.39313,2.13224 -5.96899,4.48778 -5.14325,4.70275 -12.91685,9.49982 -15.39312,9.49982 -0.87365,0 -2.46219,-1.10732 -3.53875,-2.46117 -1.07562,-1.35396 -2.70549,-2.46118 -3.62047,-2.46118 -2.06858,0 -8.10145,6.22201 -10.49975,10.8294 -0.98638,1.8958 -3.2109,4.77557 -4.94316,6.39952 l -3.1489,2.95352 -3.94926,-4.42987 c -3.8356,-4.30275 -3.9333,-4.59424 -3.42414,-10.09215 l 0.52607,-5.66042 -2.96853,0 c -1.63363,0 -2.96947,0.38262 -2.96947,0.8506 0,1.47358 -9.92765,10.90325 -13.24376,12.57666 -1.74541,0.87837 -5.03428,3.28894 -7.31046,5.34837 -6.44339,5.8295 -10.51666,6.10792 -23.71909,1.62302 -5.65617,-1.9211 -7.41568,-3.0424 -9.3687,-5.96784 -2.34664,-3.51326 -6.13809,-4.86907 -7.50493,-2.68169 -0.3194,0.51426 -2.10897,0.67266 -3.98684,0.37335 -3.12071,-0.49472 -3.47393,-0.30856 -4.10709,2.27985 -0.38516,1.55575 -1.45984,3.93556 -2.39736,5.28952 -0.93941,1.35385 -2.24801,4.10837 -2.90653,6.12192 -1.65899,5.05871 -9.48331,11.10411 -16.27523,12.57296 -2.85204,0.61609 -9.4401,1.48005 -14.63878,1.91913 -5.19867,0.43918 -10.12305,1.06145 -10.94315,1.38481 -0.82668,0.32708 -3.87505,-0.23347 -6.78627,-1.2259 z"
           style="fill:#009ee0;fill-opacity:1;stroke:#000000;stroke-width:2.34221339;stroke-miterlimit:4;stroke-dasharray:none;stroke-opacity:1"
           inkscape:connector-curvature="0" />
      </g>
    </g>
  </g>
</svg>
