<?xml version="1.0" encoding="UTF-8" standalone="no"?>
<!-- Created with Inkscape (http://www.inkscape.org/) -->

<svg
   xmlns:dc="http://purl.org/dc/elements/1.1/"
   xmlns:cc="http://creativecommons.org/ns#"
   xmlns:rdf="http://www.w3.org/1999/02/22-rdf-syntax-ns#"
   xmlns:svg="http://www.w3.org/2000/svg"
   xmlns="http://www.w3.org/2000/svg"
   xmlns:sodipodi="http://sodipodi.sourceforge.net/DTD/sodipodi-0.dtd"
   xmlns:inkscape="http://www.inkscape.org/namespaces/inkscape"
   width="51.708019mm"
   height="43.469131mm"
   viewBox="0 0 51.708019 43.469131"
   version="1.1"
   id="svg8"
   inkscape:version="0.92.2 2405546, 2018-03-11"
   sodipodi:docname="camp2018Map.svg"
   inkscape:export-filename="/home/kr0l/Cloud/Design/ffcamp/map2.png"
   inkscape:export-xdpi="943.14191"
   inkscape:export-ydpi="943.14191">
  <defs
     id="defs2">
    <marker
       inkscape:isstock="true"
       style="overflow:visible"
       id="marker15161"
       refX="0"
       refY="0"
       orient="auto"
       inkscape:stockid="Arrow2Send">
      <path
         transform="matrix(-0.3,0,0,-0.3,0.69,0)"
         d="M 8.7185878,4.0337352 -2.2072895,0.01601326 8.7185884,-4.0017078 c -1.7454984,2.3720609 -1.7354408,5.6174519 -6e-7,8.035443 z"
         style="fill:#bcbcbc;fill-opacity:1;fill-rule:evenodd;stroke:#bcbcbc;stroke-width:0.625;stroke-linejoin:round;stroke-opacity:1"
         id="path15159"
         inkscape:connector-curvature="0" />
    </marker>
    <marker
       inkscape:stockid="Arrow2Send"
       orient="auto"
       refY="0"
       refX="0"
       id="Arrow2Send"
       style="overflow:visible"
       inkscape:isstock="true"
       inkscape:collect="always">
      <path
         id="path1390"
         style="fill:#bcbcbc;fill-opacity:1;fill-rule:evenodd;stroke:#bcbcbc;stroke-width:0.625;stroke-linejoin:round;stroke-opacity:1"
         d="M 8.7185878,4.0337352 -2.2072895,0.01601326 8.7185884,-4.0017078 c -1.7454984,2.3720609 -1.7354408,5.6174519 -6e-7,8.035443 z"
         transform="matrix(-0.3,0,0,-0.3,0.69,0)"
         inkscape:connector-curvature="0" />
    </marker>
    <marker
       inkscape:stockid="Arrow1Send"
       orient="auto"
       refY="0"
       refX="0"
       id="Arrow1Send"
       style="overflow:visible"
       inkscape:isstock="true">
      <path
         id="path1372"
         d="M 0,0 5,-5 -12.5,0 5,5 Z"
         style="fill:#a10000;fill-opacity:1;fill-rule:evenodd;stroke:#a10000;stroke-width:1.00000003pt;stroke-opacity:1"
         transform="matrix(-0.2,0,0,-0.2,-1.2,0)"
         inkscape:connector-curvature="0" />
    </marker>
    <marker
       inkscape:stockid="Arrow1Sstart"
       orient="auto"
       refY="0"
       refX="0"
       id="Arrow1Sstart"
       style="overflow:visible"
       inkscape:isstock="true">
      <path
         id="path1369"
         d="M 0,0 5,-5 -12.5,0 5,5 Z"
         style="fill:#a10000;fill-opacity:1;fill-rule:evenodd;stroke:#a10000;stroke-width:1.00000003pt;stroke-opacity:1"
         transform="matrix(0.2,0,0,0.2,1.2,0)"
         inkscape:connector-curvature="0" />
    </marker>
    <marker
       inkscape:stockid="Arrow2Mstart"
       orient="auto"
       refY="0"
       refX="0"
       id="Arrow2Mstart"
       style="overflow:visible"
       inkscape:isstock="true">
      <path
         id="path1381"
         style="fill:#000000;fill-opacity:1;fill-rule:evenodd;stroke:#000000;stroke-width:0.625;stroke-linejoin:round;stroke-opacity:1"
         d="M 8.7185878,4.0337352 -2.2072895,0.01601326 8.7185884,-4.0017078 c -1.7454984,2.3720609 -1.7354408,5.6174519 -6e-7,8.035443 z"
         transform="scale(0.6)"
         inkscape:connector-curvature="0" />
    </marker>
    <marker
       inkscape:stockid="Arrow1Mend"
       orient="auto"
       refY="0"
       refX="0"
       id="Arrow1Mend"
       style="overflow:visible"
       inkscape:isstock="true">
      <path
         id="path1366"
         d="M 0,0 5,-5 -12.5,0 5,5 Z"
         style="fill:#000000;fill-opacity:1;fill-rule:evenodd;stroke:#000000;stroke-width:1.00000003pt;stroke-opacity:1"
         transform="matrix(-0.4,0,0,-0.4,-4,0)"
         inkscape:connector-curvature="0" />
    </marker>
    <marker
       inkscape:isstock="true"
       style="overflow:visible"
       id="marker7022"
       refX="0"
       refY="0"
       orient="auto"
       inkscape:stockid="Arrow1Lend">
      <path
         transform="matrix(-0.8,0,0,-0.8,-10,0)"
         style="fill:#ffffff;fill-opacity:1;fill-rule:evenodd;stroke:#000000;stroke-width:1.00000003pt;stroke-opacity:1"
         d="M 0,0 5,-5 -12.5,0 5,5 Z"
         id="path7020"
         inkscape:connector-curvature="0" />
    </marker>
    <marker
       inkscape:isstock="true"
       style="overflow:visible"
       id="marker2992"
       refX="0"
       refY="0"
       orient="auto"
       inkscape:stockid="Arrow1Lend">
      <path
         transform="matrix(-0.8,0,0,-0.8,-10,0)"
         style="fill:#a10000;fill-opacity:1;fill-rule:evenodd;stroke:#a10000;stroke-width:1.00000003pt;stroke-opacity:1"
         d="M 0,0 5,-5 -12.5,0 5,5 Z"
         id="path2990"
         inkscape:connector-curvature="0" />
    </marker>
    <marker
       inkscape:stockid="Arrow1Lend"
       orient="auto"
       refY="0"
       refX="0"
       id="marker1649"
       style="overflow:visible"
       inkscape:isstock="true">
      <path
         id="path1647"
         d="M 0,0 5,-5 -12.5,0 5,5 Z"
         style="fill:#000000;fill-opacity:1;fill-rule:evenodd;stroke:#000000;stroke-width:1.00000003pt;stroke-opacity:1"
         transform="matrix(-0.8,0,0,-0.8,-10,0)"
         inkscape:connector-curvature="0" />
    </marker>
    <marker
       inkscape:stockid="Arrow1Lstart"
       orient="auto"
       refY="0"
       refX="0"
       id="Arrow1Lstart"
       style="overflow:visible"
       inkscape:isstock="true">
      <path
         id="path1357"
         d="M 0,0 5,-5 -12.5,0 5,5 Z"
         style="fill:#000000;fill-opacity:1;fill-rule:evenodd;stroke:#000000;stroke-width:1.00000003pt;stroke-opacity:1"
         transform="matrix(0.8,0,0,0.8,10,0)"
         inkscape:connector-curvature="0" />
    </marker>
    <marker
       inkscape:stockid="Arrow1Lend"
       orient="auto"
       refY="0"
       refX="0"
       id="Arrow1Lend"
       style="overflow:visible"
       inkscape:isstock="true"
       inkscape:collect="always">
      <path
         id="path1360"
         d="M 0,0 5,-5 -12.5,0 5,5 Z"
         style="fill:#ffffff;fill-opacity:1;fill-rule:evenodd;stroke:#000000;stroke-width:1.00000003pt;stroke-opacity:1"
         transform="matrix(-0.8,0,0,-0.8,-10,0)"
         inkscape:connector-curvature="0" />
    </marker>
    <marker
       inkscape:stockid="Arrow2Mstart"
       orient="auto"
       refY="0"
       refX="0"
       id="Arrow2Mstart-6"
       style="overflow:visible"
       inkscape:isstock="true">
      <path
         inkscape:connector-curvature="0"
         id="path1381-7"
         style="fill:#ca0000;fill-opacity:1;fill-rule:evenodd;stroke:#ca0000;stroke-width:0.625;stroke-linejoin:round;stroke-opacity:1"
         d="M 8.7185878,4.0337352 -2.2072895,0.01601326 8.7185884,-4.0017078 c -1.7454984,2.3720609 -1.7354408,5.6174519 -6e-7,8.035443 z"
         transform="scale(0.6)" />
    </marker>
    <marker
       inkscape:stockid="Arrow2Send"
       orient="auto"
       refY="0"
       refX="0"
       id="Arrow2Send-5"
       style="overflow:visible"
       inkscape:isstock="true">
      <path
         inkscape:connector-curvature="0"
         id="path1390-3"
         style="fill:#a10000;fill-opacity:1;fill-rule:evenodd;stroke:#a10000;stroke-width:0.625;stroke-linejoin:round;stroke-opacity:1"
         d="M 8.7185878,4.0337352 -2.2072895,0.01601326 8.7185884,-4.0017078 c -1.7454984,2.3720609 -1.7354408,5.6174519 -6e-7,8.035443 z"
         transform="matrix(-0.3,0,0,-0.3,0.69,0)" />
    </marker>
    <marker
       inkscape:isstock="true"
       style="overflow:visible"
       id="marker2992-5"
       refX="0"
       refY="0"
       orient="auto"
       inkscape:stockid="Arrow1Lend">
      <path
         inkscape:connector-curvature="0"
         transform="matrix(-0.8,0,0,-0.8,-10,0)"
         style="fill:#a10000;fill-opacity:1;fill-rule:evenodd;stroke:#a10000;stroke-width:1.00000003pt;stroke-opacity:1"
         d="M 0,0 5,-5 -12.5,0 5,5 Z"
         id="path2990-6" />
    </marker>
  </defs>
  <sodipodi:namedview
     id="base"
     pagecolor="#ffffff"
     bordercolor="#666666"
     borderopacity="1.0"
     inkscape:pageopacity="0.0"
     inkscape:pageshadow="2"
     inkscape:zoom="0.3535534"
     inkscape:cx="-352.59293"
     inkscape:cy="290.18169"
     inkscape:document-units="mm"
     inkscape:current-layer="layer1"
     showgrid="false"
     inkscape:window-width="1920"
     inkscape:window-height="1003"
     inkscape:window-x="0"
     inkscape:window-y="35"
     inkscape:window-maximized="1"
     fit-margin-top="0"
     fit-margin-left="0"
     fit-margin-right="0"
     fit-margin-bottom="0"
     borderlayer="true" />
  <metadata
     id="metadata5">
    <rdf:RDF>
      <cc:Work
         rdf:about="">
        <dc:format>image/svg+xml</dc:format>
        <dc:type
           rdf:resource="http://purl.org/dc/dcmitype/StillImage" />
        <dc:title />
      </cc:Work>
    </rdf:RDF>
  </metadata>
  <g
     inkscape:label="Ebene 1"
     inkscape:groupmode="layer"
     id="layer1"
     style="display:inline"
     transform="translate(239.8298,276.61508)"
     sodipodi:insensitive="true">
    <rect
       style="opacity:1;fill:#aad9aa;fill-opacity:1;fill-rule:evenodd;stroke:none;stroke-width:0.02;stroke-miterlimit:4;stroke-dasharray:none;stroke-dashoffset:0;stroke-opacity:1"
       id="rect21046"
       width="229.74489"
       height="70.719521"
       x="-327.96536"
       y="-431.3765" />
    <path
       style="opacity:1;fill:#427b3b;fill-opacity:1;fill-rule:evenodd;stroke:none;stroke-width:0.99999994;stroke-miterlimit:4;stroke-dasharray:none;stroke-dashoffset:0;stroke-opacity:1"
       d="m -341.43576,-423.47788 50.887,0.46711 8.76495,37.18396 68.41728,-6.95695 84.94152,16.4154 15.72487,13.76601 -1.5875,149.18415 h -227.14812 z"
       id="rect1333"
       inkscape:connector-curvature="0"
       sodipodi:nodetypes="ccccccccc" />
    <path
       style="fill:#b1b1b1;fill-opacity:1;fill-rule:evenodd;stroke:none;stroke-width:0.26458332px;stroke-linecap:butt;stroke-linejoin:miter;stroke-opacity:1"
       d="m -278.35301,-272.29586 -9.91053,3.88128 -4.82864,7.34219 -2.28937,1.5587 -6.80569,0.7564 c 0,0 -1.68671,-3.57187 -1.62057,-3.24115 0.0661,0.33073 -3.175,2.51355 -3.175,2.51355 l 1.05833,2.3151 -6.97838,3.93568 c -1.109,0.9336 -3.89935,-0.15043 -5.85391,-0.23151 l -3.43958,-0.26459 -2.05052,8.53282 1.52135,-0.92605 c 4.92839,-1.24626 7.54418,8.07802 6.41615,10.64948 1.43983,0.75066 2.56001,6.83768 2.44739,6.87917 1.48255,1.21191 3.08947,1.87582 5.71218,2.20644 l 2.45683,-1.71035 -4.23333,-1.15755 c -2.92608,-4.17656 -3.76553,-10.34711 -4.00182,-15.47812 l 0.7276,-6.68073 11.37709,-5.22552 10.38489,-1.42214 6.01927,-7.83827 6.93397,-3.48441 z"
       id="path1007"
       inkscape:connector-curvature="0"
       sodipodi:nodetypes="ccccccccccccccccccccccccc" />
    <path
       style="fill:#35622f;fill-opacity:1;fill-rule:evenodd;stroke:none;stroke-width:0.26458332px;stroke-linecap:butt;stroke-linejoin:miter;stroke-opacity:1"
       d="m -247.31927,-232.43125 12.23698,-3.43958 c 4.87182,-1.04953 3.25803,-14.23451 1.45532,-20.25675 -1.67923,-5.98241 -3.94424,-11.96482 -4.49802,-17.94723 -1.46936,-3.60959 -2.52068,-7.74173 -5.31508,-9.69502 -3.46367,-1.56168 -6.75367,-2.69248 -9.77473,-2.0835 -3.54863,0.71533 -6.77641,3.40411 -10.2223,4.29384 -2.85801,0.73794 -5.98654,-0.73288 -8.96538,-0.52354 l -4.46485,3.28351 0.20826,18.56838 7.90855,33.35614 10.51719,-1.71979 z"
       id="path1337"
       inkscape:connector-curvature="0"
       sodipodi:nodetypes="cccccsscccccc" />
    <path
       style="opacity:1;fill:#427b3b;fill-opacity:1;fill-rule:evenodd;stroke:none;stroke-width:1;stroke-miterlimit:4;stroke-dasharray:none;stroke-dashoffset:0;stroke-opacity:1"
       d="m -212.98971,-260.79677 c -1.78951,-1.58572 -4.67213,-3.69932 -9.74914,-7.14829 l -5.03341,-3.41936 -5.14782,-2.19156 -5.14781,-2.19154 -0.66999,-1.79014 c -1.13625,-3.03601 -1.89564,-4.49827 -3.061,-5.89411 -0.57853,-0.69292 -1.05186,-1.30454 -1.05186,-1.35911 0,-0.0547 4.27555,-0.17905 9.50123,-0.27653 5.22567,-0.0975 13.6985,-0.26874 18.82846,-0.38051 5.12997,-0.11178 9.76772,-0.20429 10.3061,-0.20558 l 0.97887,-0.003 0.2437,2.453 c 0.56431,5.68031 1.66479,10.83693 3.67027,17.19831 0.78051,2.47574 0.89886,2.97785 0.74619,3.16576 -0.27546,0.33904 -1.79938,1.0385 -2.80184,1.28603 -0.53555,0.13222 -2.11772,0.27366 -3.95528,0.3536 -1.68447,0.0733 -3.53251,0.17184 -4.10676,0.21904 -1.11191,0.0914 -2.17711,0.47932 -2.31353,0.84248 -0.0456,0.12132 -0.12315,0.21692 -0.17238,0.21247 -0.0493,-0.004 -0.52803,-0.39669 -1.064,-0.87162 z"
       id="path1331"
       inkscape:connector-curvature="0" />
    <path
       style="opacity:1;fill:#b2ff92;fill-opacity:1;fill-rule:evenodd;stroke:none;stroke-width:1;stroke-miterlimit:4;stroke-dasharray:none;stroke-dashoffset:0;stroke-opacity:1"
       d="m -202.07892,-245.11035 c 0.0521,-0.36968 0.0948,-3.65311 0.0948,-7.2965 v -6.62433 l 2.04856,-0.54965 c 1.12672,-0.3023 2.1249,-0.57612 2.21821,-0.60848 0.0955,-0.0332 1.46266,2.20262 3.12871,5.11647 1.62749,2.84642 2.98144,5.23017 3.00874,5.29723 0.0273,0.0671 -0.10944,0.12193 -0.30392,0.12193 -0.65605,0 -2.12228,0.43877 -3.32141,0.99392 -0.65554,0.30349 -2.44551,1.37751 -3.9777,2.38669 -1.53219,1.00919 -2.8319,1.83488 -2.88823,1.83488 -0.0564,0 -0.0598,-0.30248 -0.007,-0.67216 z"
       id="path1353"
       inkscape:connector-curvature="0" />
    <path
       style="opacity:1;fill:#b2ff92;fill-opacity:1;fill-rule:evenodd;stroke:none;stroke-width:1;stroke-miterlimit:4;stroke-dasharray:none;stroke-dashoffset:0;stroke-opacity:1"
       d="m -225.93526,-246.15178 2.80315,9.71712 c -0.40109,-0.72234 -1.06979,-1.11911 -1.80978,-1.09207 -4.08596,0.1493 -6.05613,-12.33611 -6.61354,-12.86734 -1.27407,-1.21422 -1.26138,-1.34983 -1.33685,-1.87672 -0.0467,-0.32611 -0.43063,-1.36832 -0.63086,-2.21493 -0.20022,-0.84663 -0.10383,-1.64186 -0.10383,-1.64186 0.0402,-0.0418 0.42888,0.12341 0.97099,0.59747 0.5421,0.47405 1.29959,1.07976 1.74395,1.3258 l 0.98006,0.6492 4.77788,-0.003 c 4.77604,-0.003 4.6722,0.0115 4.6722,-0.24328 0,-0.36003 0.8559,-1.07047 1.5097,-1.41464 0.29519,-0.15539 1.42066,-0.44892 2.48675,-0.78092 2.96587,-0.92359 2.95944,-1.88031 3.15954,-3.34814 0.14257,-1.04591 0.66956,-0.0227 0.83799,-0.0227 0.28436,0 0.42221,-0.24617 0.38073,2.82773 l -0.0442,3.27496 -0.80178,0.83296 c -0.80825,0.83967 -1.4794,2.01317 -1.81229,3.16882 -0.1088,0.37766 -0.0162,0.28502 -0.18799,0.36054 -3.16577,0.99366 -10.98182,2.751 -10.98182,2.751 z"
       id="path1351"
       inkscape:connector-curvature="0"
       sodipodi:nodetypes="ccscccccccsscccscccccc" />
    <path
       style="display:inline;fill:#dddddd;fill-opacity:1;fill-rule:evenodd;stroke:none;stroke-width:0.26458332px;stroke-linecap:butt;stroke-linejoin:miter;stroke-opacity:1"
       d="m -279.09567,-359.72939 18.80241,-10.19632 12.06722,-1.21608 -0.37418,-16.65089 -30.30836,-1.30964 -2.24507,30.86965 z"
       id="path20977-1"
       inkscape:connector-curvature="0"
       sodipodi:nodetypes="ccccccc" />
    <path
       style="fill:#b1b1b1;fill-opacity:1;fill-rule:evenodd;stroke:none;stroke-width:0.99999994px;stroke-linecap:butt;stroke-linejoin:miter;stroke-opacity:1"
       d="m -703.2168,-1452.4102 2.47461,10.254 -32.88086,164.4023 -30.05273,130.4609 -6.69727,65.1524 c 1.27718,30.3373 9.85806,62.8965 19.60176,90.41154 -10.85386,9.48155 -31.34829,1.11918 -46.13887,3.71148 -8.71445,2.02246 -6.82615,18.16434 -7.07031,31.4668 -5.59646,3.6692 -7.36905,9.47249 -9.21535,15.95435 l 7.30324,-1.88404 7.5,23.75 -48.75,11.96485 2.58985,8.59179 51.00195,-12.59179 41.18945,-7.95508 c 10.49586,-4.89022 18.36594,-21.46621 27.92969,-19.62305 12.36325,10.40591 16.60986,24.87023 23.86523,37.83008 2.30918,5.37951 -3.82411,8.44797 -7.3125,14.27344 l -539.79249,124.33173 5.2569,24.34271 585.29947,-131.58098 89.78789,-38.68359 -15.04564,-27.58565 -90.84792,40.58984 c -6.62582,-2.4113 -12.31542,-3.10706 -15.85547,-9.04492 -21.3041,-35.08407 -43.07147,-70.20074 -57.98242,-104.82811 -8.92955,-16.4267 -9.62869,-28.7392 -12.375,-42.0742 -3.25826,-19.9169 1.12841,-39.8332 1.76953,-59.75 4.47405,-30.8154 8.96591,-61.6052 16.08594,-88.7422 l 22.45117,-101.4688 28.2832,-138.9472 6.36523,-4.2422 z m -42.78125,470.75786 20.33008,36.59179 c -13.66515,0.76131 -24.32423,11.60916 -36.11719,18.65235 l -16.07226,5.35742 -12.32031,-0.17969 4.22945,-39.56342 -4.23117,-17.75801 29.10716,1.07142 z"
       transform="scale(0.26458333)"
       id="path990"
       inkscape:connector-curvature="0"
       sodipodi:nodetypes="cccccccccccccccccccccccccccccccccccccccccc" />
    <path
       style="fill:#fffbb7;fill-opacity:1;fill-rule:evenodd;stroke:#000000;stroke-width:0.26458332px;stroke-linecap:butt;stroke-linejoin:miter;stroke-opacity:1"
       d="m -284.0006,-349.20425 -18.14761,-0.0936 -0.0329,-4.71031 -18.12663,0.12483 0.0119,-33.39352 13.56392,0.37417 6.54812,-13.93809 -2.89988,-15.6219 12.53492,-1.68379 c 9.02684,23.28798 7.38714,46.13549 6.54812,68.94221 z"
       id="path1009"
       inkscape:connector-curvature="0"
       sodipodi:nodetypes="cccccccccc" />
    <path
       style="fill:#b1b1b1;fill-opacity:1;fill-rule:evenodd;stroke:none;stroke-width:0.37795275;stroke-linecap:butt;stroke-linejoin:miter;stroke-miterlimit:4;stroke-dasharray:none;stroke-opacity:1"
       d="m -1088.5723,-1628.9082 -15,9.2852 20,152.8574 c 0.4355,2.6768 3.7968,4.7934 4.0118,8.4082 0.2891,4.8634 -2.6548,11.4254 -2.7559,16.1035 l 13.3887,282.6309 c 2.1761,21.3863 -7.0083,37.3823 -12.127,54.5234 -7.9723,26.6972 -3.9827,50.5226 28.377,52.084 l -0.5606,68.56443 c 0.08,4.52901 1.0972,9.4163 -1.3613,13.94531 -32.2181,49.83984 -72.7405,86.16354 -114.6856,118.74024 -10.8492,11.42938 -12.4792,38.0411 -10.13,62.80096 0.6112,6.44219 -0.8265,13.00901 0.2842,18.90043 1.5716,8.33597 5.7404,15.57026 6.3663,21.35294 l 9.8223,-1.96289 c -0.9338,-5.72957 -5.3623,-11.60586 -7.06,-20.44966 -1.0379,-5.40659 0.6671,-13.17478 -0.2194,-19.03512 -3.4151,-22.57708 -4.4764,-46.522 6.2941,-56.42893 38.9588,-27.28025 67.7488,-56.062 93.0175,-88.66602 9.1965,-11.86609 13.4458,-20.01969 23.4493,-34.17187 2.3909,-3.24601 2.5443,-9.54402 1.8203,-14.125 l 0.9004,-70.36722 c 17.0181,-7.4613 27.029,-26.5387 22.2402,-39.8125 -10.6345,-21.6071 -25.9484,-43.2151 -24.6426,-64.8222 l -9.2851,-278.9278 c -0.079,-15.2289 11.8358,-16.7957 23.5703,-18.5703 l 210.71482,-22.1445 c 70.74656,-8.2663 134.28571,53.2738 255,55 32.90192,-0.4828 63.29303,-7.2892 102.32031,24.6426 31.24744,40.4962 10.56378,77.1144 -5.17773,105.7148 -20.70724,30.4842 -35.46043,71.317 -54.12695,109.377 -35.92018,73.2392 -55.50175,180.0123 -48.50641,226.71832 l 36.42968,-2.14257 c -29.02722,-37.44938 -2.31027,-149.09095 38.07477,-226.48595 18.43374,-35.3269 34.7898,-71.7675 48.66407,-101.3945 30.85647,-53.5725 30.10911,-95.4227 5.17968,-122.1426 -38.87176,-43.9556 -85.01104,-37.1395 -122.48437,-38.0879 -100.39416,-2.5409 -179.48537,-54.3917 -256.08789,-51.1992 l -219.28518,23.5723 c -20.5169,-0.6449 -23.5986,-9.5499 -26.4297,-18.5723 z m 32.9825,527.5469 c 0.3068,0 0.6191,0.01 0.9394,0.029 4.9092,1.5617 10.6225,-0.5316 12.375,15.5566 0.4254,13.5491 -5.5873,13.5464 -11.3144,14.1426 -5.7409,2.2073 -13.2212,-6.4243 -14.4942,-16.6172 -0.085,-4.6649 2.9827,-13.1534 12.4942,-13.1113 z"
       transform="scale(0.26458333)"
       id="path928"
       inkscape:connector-curvature="0"
       sodipodi:nodetypes="cccccccccccssccsscccccccccccccsccsccsccccccccccc" />
    <path
       style="fill:#fff329;fill-opacity:1;fill-rule:evenodd;stroke:none;stroke-width:0.26458332px;stroke-linecap:butt;stroke-linejoin:miter;stroke-opacity:1"
       d="m -220.46061,-253.50841 -9.47136,-0.0467 c -1.5637,-0.57289 -2.53073,-1.65721 -3.695,-2.57247 -0.58874,-2.11415 -1.02159,-3.38074 -1.45348,-4.95952 -1.11238,-4.06636 -3.32959,-8.53619 -3.04454,-12.9877 2.7982,1.03347 5.67501,2.21155 8.46063,3.68723 3.14779,1.66754 6.19745,3.67846 9.22714,5.60714 9.2841,2.7249 6.94969,5.54923 6.97958,6.73249 0.0662,2.61925 -6.88948,1.99844 -7.00298,4.53957 z"
       id="path959"
       inkscape:connector-curvature="0"
       sodipodi:nodetypes="cccscscscc" />
    <path
       style="fill:#b1b1b1;fill-opacity:1;fill-rule:evenodd;stroke:none;stroke-width:0.26458332px;stroke-linecap:butt;stroke-linejoin:miter;stroke-opacity:1"
       d="m -272.50795,-282.13577 c 3.68933,0.73309 8.17231,1.44843 11.06655,-0.0419 5.49624,-3.2989 10.66189,-5.24754 16.01674,-1.96076 0.44587,0.25493 1.41287,0.36532 1.98459,0.36857 1.08388,1.58162 2.54517,2.79417 3.28298,4.66419 0.69296,1.64577 1.92783,4.18682 1.91517,5.38164 -0.17467,3.84354 2.94457,12.18537 4.62374,18.72465 l 1.01504,-0.25501 c -1.58733,-6.1329 -3.80572,-12.33237 -4.2856,-18.24378 l 9.11995,4.15203 c 5.14689,3.29055 10.62836,6.06063 15.27316,10.13218 0.11485,-0.41711 0.26496,-0.83423 0.44214,-1.25134 -4.55796,-4.1894 -9.79336,-7.07821 -14.90509,-10.65847 l -9.98524,-4.17947 c -0.56938,-1.4465 -1.09902,-2.93273 -1.72452,-4.3231 -0.59989,-1.81481 -1.99511,-2.83429 -2.99268,-4.25141 l 38.05552,-0.75209 -0.22218,-1.68636 -39.80159,0.71311 c -0.64937,0.0572 -1.32889,-0.37771 -1.9667,-0.69676 -5.40228,-2.70238 -11.13091,-0.95783 -16.7195,2.31498 -1.81408,0.82073 -6.42545,0.69159 -9.03851,-0.26464 z"
       id="path930"
       inkscape:connector-curvature="0"
       sodipodi:nodetypes="cccccccccccccccccccsccc" />
    <path
       style="fill:#2e2e2e;fill-opacity:1;fill-rule:evenodd;stroke:none;stroke-width:0.26458332px;stroke-linecap:butt;stroke-linejoin:miter;stroke-opacity:1"
       d="m -209.06831,-243.74223 v -15.16629 l 7.70127,0.28348 -0.18899,13.51265 -4.25223,1.41741 z"
       id="path932"
       inkscape:connector-curvature="0" />
    <path
       style="fill:#2e2e2e;fill-opacity:1;fill-rule:evenodd;stroke:none;stroke-width:0.26458332px;stroke-linecap:butt;stroke-linejoin:miter;stroke-opacity:1"
       d="m -213.22582,-249.36458 -12.70944,3.2128 1.79538,6.2366 12.89844,-3.16555 z"
       id="path934"
       inkscape:connector-curvature="0" />
    <path
       style="fill:#fffce8;fill-opacity:1;fill-rule:evenodd;stroke:none;stroke-width:0.26458332px;stroke-linecap:butt;stroke-linejoin:miter;stroke-opacity:1"
       d="m -213.68912,-257.25388 c -0.5453,0.26708 -0.74442,0.0933 -1.71779,0.0199 -1.50827,-0.11373 -3.4109,-0.33762 -3.7052,-0.82694 -0.56178,-0.64987 0.0454,-1.74836 0.63808,-1.79776 l 5.07739,1.36085 c -0.0535,0.39955 -0.0216,0.87008 -0.29248,1.24392 z"
       id="path940"
       inkscape:connector-curvature="0"
       sodipodi:nodetypes="cscccc" />
    <path
       style="fill:#fffce8;fill-opacity:1;fill-rule:evenodd;stroke:none;stroke-width:0.26458332px;stroke-linecap:butt;stroke-linejoin:miter;stroke-opacity:1"
       d="m -221.24024,-258.31813 -13.27644,-3.90648 c 0,0 -0.25542,-0.79051 -0.42431,-1.45418 -0.0909,-0.35735 -0.37359,-1.4153 -0.37359,-1.4153 0,0 0.54412,0.078 0.71016,0.13799 3.60231,0.87936 9.63554,2.97419 14.45331,4.46128 0.36157,0.12029 0.29947,0.55087 0.28359,1.10005 -0.005,1.09197 -1.11232,1.15158 -1.37272,1.07664 z"
       id="path942"
       inkscape:connector-curvature="0"
       sodipodi:nodetypes="ccsccccc" />
    <path
       style="fill:#fffce8;fill-opacity:1;fill-rule:evenodd;stroke:none;stroke-width:0.26458332px;stroke-linecap:butt;stroke-linejoin:miter;stroke-opacity:1"
       d="m -217.69987,-260.64304 -12.11367,-6.56133 c -0.67484,-0.31456 1.44641,-2.53195 2.04475,-2.14175 2.43409,1.23761 4.98511,2.61101 8.14563,4.59974 1.13131,0.71187 2.14818,1.81872 3.29467,2.49101 0.24317,0.1498 2.32469,1.2409 3.05843,2.04853 0.24521,0.2699 -0.0233,1.22119 -0.0233,1.22119 0,0 -0.52026,-0.14806 -1.00452,-0.23769 -1.2217,-0.2261 -3.23282,-1.32478 -3.40207,-1.4197 z"
       id="path942-3"
       inkscape:connector-curvature="0"
       sodipodi:nodetypes="cccscscscc" />
    <path
       style="fill:#4eb48e;fill-opacity:1;fill-rule:evenodd;stroke:none;stroke-width:0.26458332px;stroke-linecap:butt;stroke-linejoin:miter;stroke-opacity:1"
       d="m -205.79729,-258.5598 -2.4e-4,3.04019 h -4.34981 v -4.63044 l 4.34437,-0.0165 z"
       id="path961"
       inkscape:connector-curvature="0"
       sodipodi:nodetypes="cccccc" />
    <path
       style="fill:#ff8e04;fill-opacity:1;fill-rule:evenodd;stroke:none;stroke-width:0.26458332px;stroke-linecap:butt;stroke-linejoin:miter;stroke-opacity:1"
       d="m -207.87053,-253.181 h 6.42281 v 7.10937 h -6.50161 z"
       id="path963"
       inkscape:connector-curvature="0"
       sodipodi:nodetypes="ccccc" />
    <path
       style="fill:#00989e;fill-opacity:1;fill-rule:evenodd;stroke:none;stroke-width:0.26458332px;stroke-linecap:butt;stroke-linejoin:miter;stroke-opacity:1"
       d="m -209.47244,-253.181 h 1.52311 v 7.10937 h -1.5418 z"
       id="path963-6"
       inkscape:connector-curvature="0"
       sodipodi:nodetypes="ccccc" />
    <path
       style="fill:#b1b1b1;fill-opacity:1;fill-rule:evenodd;stroke:none;stroke-width:0.99999994px;stroke-linecap:butt;stroke-linejoin:miter;stroke-opacity:1"
       d="m -1029.5527,-1066.1406 c -5.2621,6.0836 -10.9093,9.9395 -16.8711,12.4101 l -0.089,15.8632 c -1.0416,6.7859 6.5547,7.7131 10.6777,11.7736 14.4732,14.2537 34.0711,30.08679 39.60091,46.48344 26.02409,5.61269 36.02703,-31.29304 32.97833,-67.27454 l -12.49414,-14.0957 c -6.01145,2.4702 -6.2836,6.2165 -9.42578,9.3243 -4.9169,3.7801 -7.79078,12.0913 -23.15822,7.248 -5.5414,-2.4226 -12.4331,-4.4234 -15.5566,-7.6016 -3.7251,-4.1852 -4.0331,-9.3467 -5.6621,-14.1308 z m -8.1035,14.7246 c 3.3822,0.3354 9.0329,4.4467 11.291,8.5976 1.514,3.2001 -1.0145,4.6547 -2.8282,5.3028 -4.1772,0.3481 -10.6247,-0.5914 -11.6347,-3.961 -0.8227,-2.0739 0.083,-5.0125 0.498,-7.705 0.068,-1.759 1.1365,-2.3869 2.6739,-2.2344 z m 17.8105,11.4648 c 0.4233,0.043 0.8258,0.1906 1.082,0.1387 9.0421,1.2557 16.061,4.8711 22.62698,9.0156 3.1282,1.9549 4.6011,7.8474 4.76387,14.3598 -0.10448,4.0081 0.66131,21.22077 -4.28675,18.90477 -4.6961,-2.95677 -13.2829,-16.16547 -17.9789,-19.12227 -4.3838,-3.0756 -6.5871,-9.9885 -7.7521,-16.5329 -0.6533,-5.485 0.1798,-6.6296 1.1191,-6.7617 0.1409,-0.02 0.2847,-0.016 0.4258,0 z"
       transform="scale(0.26458333)"
       id="path992"
       inkscape:connector-curvature="0"
       sodipodi:nodetypes="cccscccccccccccccccccccccsc" />
    <path
       style="fill:#2e2e2e;fill-opacity:1;fill-rule:evenodd;stroke:#000000;stroke-width:0.26458332px;stroke-linecap:butt;stroke-linejoin:miter;stroke-opacity:1"
       d="m -258.16718,-280.7177 4.10104,-2.3151 6.21771,8.73124 c 2.22524,3.21762 -3.79241,6.95018 -2.24897,15.67656 0.38926,3.15018 -1.72399,5.08453 -2.07365,6.72443 -1.21589,5.70251 2.06793,8.20881 3.13199,12.52401 l 1.71979,6.94531 -5.4901,2.31511 -0.44434,-0.86529 -4.97962,2.38664 -4.29948,-10.12031 -3.33331,-2.29699 0.17436,-3.1891 -2.59574,-0.40089 c 0.4041,-2.51365 0.76899,-5.06091 2.4474,-6.48229 l 1.78594,0.92604 c 0.50228,-3.27146 -0.0982,-6.14192 -1.65365,-8.66511 l 3.83646,-3.0427 c 1.09426,-4.28468 0.8407,-8.40088 0.46302,-12.50156 l 1.05833,-1.71979 1.89886,-0.19913 0.94541,1.85277 1.38907,-1.05833 z"
       id="path984"
       inkscape:connector-curvature="0"
       sodipodi:nodetypes="ccccsccccccccccccccccccc" />
    <path
       style="fill:#2e2e2e;fill-opacity:1;fill-rule:evenodd;stroke:#000000;stroke-width:0.26458332px;stroke-linecap:butt;stroke-linejoin:miter;stroke-opacity:1"
       d="m -282.97187,-250.95208 6.68073,2.24896 -1.52136,4.63021 1.91823,0.52916 -1.32291,3.90261 2.57968,1.12448 -2.24895,5.15937 1.78593,1.05833 -3.30729,5.15938 -2.3151,-0.92604 -3.83646,2.84427 -1.71979,-1.85209 -3.37344,2.4474 -1.12448,-1.38906 -5.02708,5.09323 -5.35782,-5.6224 6.61459,-4.36562 -0.99219,-1.12448 9.525,-11.64167 0.8599,0.19844 z"
       id="path986"
       inkscape:connector-curvature="0" />
    <path
       style="fill:#2e2e2e;fill-opacity:1;fill-rule:evenodd;stroke:#000000;stroke-width:0.26458332px;stroke-linecap:butt;stroke-linejoin:miter;stroke-opacity:1"
       d="m -304.79082,-276.33322 c 0.0582,-0.0608 -0.80506,-0.20788 -0.62191,-0.69803 0.50594,-1.35404 2.32872,-3.93035 2.54192,-3.84667 0.81469,0.31976 2.54965,0.50059 3.40064,1.17003 0.40295,0.31698 0.14586,1.02574 0.35423,1.38806 0.39074,0.67942 4.70299,2.13411 4.70299,2.13411 l 0.73101,2.31616 c 0.25223,0.79918 -1.34591,1.21484 -1.94574,1.94954 -0.4243,0.5197 3.15578,3.63555 2.96591,4.26643 -0.83182,2.76395 -5.2289,3.02836 -5.19376,2.76406 -2.05345,1.83801 -4.38918,1.38258 -7.2861,4.3653 l -13.65747,7.10937 c -4.2209,2.22739 -4.72537,7.33838 -2.89988,11.43579 l 3.90549,6.59488 -2.36199,1.89427 2.36199,3.3676 c 1.22813,2.86564 -4.0868,6.77981 -5.02802,6.64165 -0.84188,0.0935 -3.74176,-1.59026 -3.74176,-1.59026 -2.56709,8.24853 -7.54574,4.58548 -12.06722,3.18051 -3.79573,4.04262 -7.97914,-1.76176 -12.06723,-5.14494 l 1.28625,-5.35541 0.87984,-0.53733 c 0.28905,-3.18099 0.18367,-6.77435 1.76279,-8.60663 l -4.30305,-2.5257 c -1.56521,1.82198 -2.68339,4.74768 -5.09815,5.65943 -1.72007,-2.0932 -3.70992,-4.15849 -3.69502,-6.43117 0.11762,-0.96351 0.0884,-1.93979 1.59026,-2.78294 0.322,-2.07437 1.02748,-4.134 -0.18709,-6.26747 l -6.73518,-9.44798 c -0.55458,-0.87481 0.59653,-2.59166 4.95784,-5.8933 1.11862,-1.44859 6.17076,2.09947 9.35443,3.27406 l 0.0935,1.59025 1.30961,2.24507 0.65482,1.30961 6.82873,1.89427 -0.0936,-2.1749 9.72862,0.0936 10.50034,-8.32544 1.52012,-1.14592 1.91766,-0.0702 c 2.98188,1.60137 8.66125,-3.69561 13.63418,-5.7998 z"
       id="path1005"
       inkscape:connector-curvature="0"
       sodipodi:nodetypes="csssscssscccccccccccccccccccccccccccccccc" />
    <path
       style="fill:#8dc775;fill-opacity:1;fill-rule:evenodd;stroke:none;stroke-width:0.26458332px;stroke-linecap:butt;stroke-linejoin:miter;stroke-opacity:1"
       d="m -227.81323,-247.28041 -5.0201,-4.66386 c 1.04081,5.50192 1.74631,10.8548 -0.52917,14.88281 l 8.41166,-0.45091 -0.26605,-2.33489 -1.63043,-5.95373 z"
       id="path1341"
       inkscape:connector-curvature="0"
       sodipodi:nodetypes="ccccccc" />
    <path
       style="fill:none;fill-rule:evenodd;stroke:#ffffff;stroke-width:0.16500001;stroke-linecap:butt;stroke-linejoin:miter;stroke-miterlimit:3;stroke-dasharray:0.66, 0.165;stroke-dashoffset:0;stroke-opacity:1;marker-end:url(#Arrow1Lend)"
       d="m -305.14163,-260.52423 -1.54352,-3.09478 10.45104,-5.8539 1.15755,1.75287 -12.93151,6.84608 -3.20807,-4.59712 1.78786,-1.18709 1.22178,-0.66504"
       id="path1355"
       inkscape:connector-curvature="0"
       sodipodi:nodetypes="cccccccc" />
    <path
       style="fill:none;fill-rule:evenodd;stroke:#c3c3c3;stroke-width:1.10000002;stroke-linecap:butt;stroke-linejoin:miter;stroke-miterlimit:3.9000001;stroke-dasharray:0.55000001, 0.55000001;stroke-dashoffset:0;stroke-opacity:1"
       d="m -303.22904,-263.40404 4.53099,-2.41432"
       id="path2961-3"
       inkscape:connector-curvature="0" />
    <path
       style="fill:none;fill-rule:evenodd;stroke:#c3c3c3;stroke-width:1.10000002;stroke-linecap:butt;stroke-linejoin:miter;stroke-miterlimit:3.9000001;stroke-dasharray:0.55, 0.55;stroke-dashoffset:0;stroke-opacity:1"
       d="m -303.0802,-265.80182 4.53099,-2.41432"
       id="path2961"
       inkscape:connector-curvature="0" />
    <path
       style="fill:#ff8e04;fill-opacity:1;fill-rule:evenodd;stroke:none;stroke-width:0.26458332px;stroke-linecap:butt;stroke-linejoin:miter;stroke-opacity:1"
       d="m -310.68698,-272.91249 4.0349,6.74687 7.74428,-4.47116 c -1.08209,-3.533 -3.32535,-4.88883 -5.80375,-5.80375 z"
       id="path2978"
       inkscape:connector-curvature="0"
       sodipodi:nodetypes="ccccc" />
    <path
       style="fill:#fffbb7;fill-opacity:1;fill-rule:evenodd;stroke:none;stroke-width:0.26458332px;stroke-linecap:butt;stroke-linejoin:miter;stroke-opacity:1"
       d="m -224.13988,-239.91518 1.00777,3.48052 22.39888,-5.31444 -0.82242,-3.36307 -4.25246,1.41749 -3.25975,-0.0476 -2.17358,0.6615 z"
       id="path2980"
       inkscape:connector-curvature="0"
       sodipodi:nodetypes="cccccccc" />
    <path
       style="fill:none;fill-rule:evenodd;stroke:#bcbcbc;stroke-width:0.26458332;stroke-linecap:butt;stroke-linejoin:miter;stroke-miterlimit:4;stroke-dasharray:0.52916663, 0.26458332;stroke-dashoffset:0;stroke-opacity:1;marker-end:url(#Arrow2Send)"
       d="m -209.07044,-254.33379 h 2.57969 v 2.02572"
       id="path15137"
       inkscape:connector-curvature="0" />
    <path
       style="fill:#ffffff;fill-opacity:1;fill-rule:evenodd;stroke:none;stroke-width:0.26458332px;stroke-linecap:butt;stroke-linejoin:miter;stroke-opacity:1"
       d="m -201.69327,-253.181 v -2.31491 l -1.30866,-0.008 -0.008,2.33935 z"
       id="path965"
       inkscape:connector-curvature="0"
       sodipodi:nodetypes="ccccc" />
    <path
       style="fill:none;fill-rule:evenodd;stroke:#bcbcbc;stroke-width:0.26458332;stroke-linecap:butt;stroke-linejoin:miter;stroke-miterlimit:4;stroke-dasharray:0.52916663, 0.26458332;stroke-dashoffset:0;stroke-opacity:1;marker-end:url(#marker15161)"
       d="m -206.49075,-254.33379 h 3.48092"
       id="path15139"
       inkscape:connector-curvature="0" />
    <path
       style="display:inline;opacity:1;fill:#b1b1b1;fill-opacity:1;fill-rule:evenodd;stroke:none;stroke-width:0.05000001;stroke-miterlimit:4;stroke-dasharray:none;stroke-dashoffset:0;stroke-opacity:1"
       d="m -146.36069,-256.09041 c -4.86621,0 -8.81104,3.94483 -8.81104,8.81103 1e-5,4.8662 3.94483,8.81103 8.81104,8.81102 4.86618,0 8.26711,-3.17839 8.366,-7.05565 0.007,-0.254 24.85527,-0.0333 31.29444,-0.88861 8.188841,-1.08773 -1.16877,-5.01942 -1.16877,-5.01942 0,0 -30.19067,1.11263 -30.47572,0.48982 -1.39034,-3.03777 -4.45669,-5.14819 -8.01595,-5.14819 z m 0.0456,4.06312 c 2.67262,0 4.83921,2.16658 4.83921,4.83921 0,2.67263 -2.16659,4.83922 -4.83921,4.83922 -2.67263,0 -4.83922,-2.16659 -4.83922,-4.83922 0,-2.67262 2.1666,-4.83921 4.83922,-4.83921 z"
       id="path17896"
       inkscape:connector-curvature="0"
       sodipodi:nodetypes="ssssscsssssss" />
    <path
       id="path20951-6"
       style="display:inline;fill:#5c5c5c;fill-opacity:1;fill-rule:evenodd;stroke:none;stroke-width:0.26458332px;stroke-linecap:butt;stroke-linejoin:miter;stroke-opacity:1"
       d="m -251.7251,-319.06556 c -4.34271,2.12126 -10.08234,3.41662 -15.06064,-1.82412 l -0.23386,-4.58368 1.35639,-0.51449 -0.93544,-9.77537 c 1.93266,-5.11694 3.8641,-10.23885 8.51253,-13.75102 l -0.14031,-3.74179 1.82411,-4.39659 c 0.82647,2.24178 9.26027,1.71716 9.16734,-2.33859 l 4.49013,2.43216 c 2.06098,7.99209 9.00652,5.4207 15.01387,5.05139 3.19278,-0.20068 5.62876,-5.47322 10.61728,0.74835 1.89811,2.28717 2.34036,6.13418 0.74835,12.16075 l -4.49012,-4.86428 c -4.74916,4.38884 -13.97696,2.58661 -22.82482,1.30961 -3.52178,0.72923 -6.88429,2.57342 -10.28988,4.11596 -1.1097,2.61924 -1.69366,5.23847 -2.05797,7.8577 2.60423,3.85536 0.44779,5.86208 0.0935,8.46576 z m -54.62989,-13.79779 -5.23849,-3.92888 -9.72861,14.21877 13.65748,10.28985 4.49012,-6.17392 -8.60608,-6.54809 z m 6.50132,-16.60412 14.26552,-0.79512 0.56126,33.81627 -13.37684,0.5145 -0.14032,-5.56589 5.19172,-0.0468 -0.37418,-15.809 -11.31886,0.60803 -0.14032,-6.92227 5.28526,0.0935 z"
       inkscape:connector-curvature="0"
       sodipodi:nodetypes="ccccccccccccccccccccccccccccccccccccc" />
    <path
       style="display:inline;fill:#5c5c5c;fill-opacity:1;fill-rule:evenodd;stroke:none;stroke-width:0.26458332px;stroke-linecap:butt;stroke-linejoin:miter;stroke-opacity:1"
       d="m -235.68213,-373.98644 -0.56127,-5.98684 14.78001,-0.74834 0.8419,13.56391 -5.14494,-0.18708 -0.37418,-7.10936 z"
       id="path20994-2"
       inkscape:connector-curvature="0" />
    <path
       inkscape:connector-curvature="0"
       id="path21017-9"
       style="display:inline;fill:#5c5c5c;fill-opacity:1;fill-rule:evenodd;stroke:none;stroke-width:0.26458332px;stroke-linecap:butt;stroke-linejoin:miter;stroke-opacity:1"
       d="m -164.18542,-406.42483 30.86963,-1.12252 0.56126,11.59949 h 22.45063 l -7.29646,-33.48887 -48.26887,-1.30963 z m -39.66281,-6.17392 0.18708,-7.10938 14.96711,1.68381 -0.37417,5.98683 z m -20.57975,12.9091 35.35977,2.99342 0.37417,-11.22532 -35.92103,-3.55468 z m -46.77217,-6.73518 -7.29646,-1.68381 -0.74835,-11.59949 25.44406,-2.80633 3.55468,20.76686 -2.43215,4.11593 -7.67064,1.49673 -5.23848,-4.30306 2.43215,-3.55467 2.99342,-0.56126 -2.05797,-5.0514 -2.05798,-1.68381 -6.92228,0.74835 z" />
    <path
       inkscape:connector-curvature="0"
       id="path21023-3"
       style="display:inline;fill:#dddddd;fill-opacity:1;fill-rule:evenodd;stroke:none;stroke-width:0.26458332px;stroke-linecap:butt;stroke-linejoin:miter;stroke-opacity:1"
       d="m -164.18542,-406.42483 29.21598,-0.82486 0.40809,11.44214 19.21537,-0.26458 0.66146,7.27604 -3.63802,-0.13229 0.0331,3.30729 -14.25443,-0.26458 -0.13229,-2.64584 -15.08125,-0.39687 0.0661,2.84427 -16.83411,-0.0661 z m -72.86889,10.88186 6.2177,-25.92916 51.99063,5.29166 -2.38125,19.84375 -7.84098,-0.35951 0.37417,-11.22532 -35.92103,-3.55468 -4.63404,16.46243 z m -2.52785,-1.71452 -8.04482,0.18708 -2.99342,-17.39923 5.42558,-2.24507 1.4967,-14.03165 11.03824,0.56126 z" />
    <rect
       style="opacity:1;fill:#eb4a95;fill-opacity:1;fill-rule:evenodd;stroke:none;stroke-width:1.00010967;stroke-miterlimit:4;stroke-dasharray:none;stroke-dashoffset:0;stroke-opacity:1"
       id="rect21068"
       width="5.0359111"
       height="2.6107974"
       x="-57.586975"
       y="-322.33023"
       transform="matrix(0.90350816,-0.42857088,0.44739324,0.89433735,0,0)" />
  </g>
  <g
     inkscape:groupmode="layer"
     id="layer3"
     inkscape:label="was"
     style="display:inline"
     transform="translate(239.8298,276.61508)"
     sodipodi:insensitive="true">
    <g
       id="g15117"
       transform="matrix(0.60038393,0,0,0.60038393,-90.425003,-98.728434)"
       style="stroke-width:1.6656009">
      <g
         transform="matrix(0.07631716,0,0,0.07645956,-189.82541,-333.59001)"
         id="g4602"
         style="opacity:1;fill:#000000;fill-opacity:1;stroke:none;stroke-width:33.29528427">
        <path
           style="fill:#000000;fill-opacity:1;stroke:none;stroke-width:2.33867955px;stroke-linecap:butt;stroke-linejoin:miter;stroke-opacity:1"
           d="m -467.11071,1081.0719 c 20.16182,28.0468 -2.47362,28.3794 -4.11692,38.9263 v 0 c -24.10056,-18.5409 6.87139,-26.7737 4.11692,-38.9263 z"
           id="path4610"
           inkscape:connector-curvature="0"
           sodipodi:nodetypes="cccc" />
        <path
           style="fill:#000000;fill-opacity:1;stroke:none;stroke-width:2.33867955px;stroke-linecap:butt;stroke-linejoin:miter;stroke-opacity:1"
           d="m -456.88174,1094.5626 c 7.1436,7.4666 6.46036,15.8287 4.11612,19.4827 -3.27706,5.1081 -10.70846,4.2458 -14.22979,5.546 -1.28551,-5.4054 6.12744,-7.6805 9.1689,-12.7622 2.49357,-4.1662 1.1616,-10.0362 0.94477,-12.2665 z"
           id="path4612"
           inkscape:connector-curvature="0"
           sodipodi:nodetypes="cscsc" />
        <path
           style="fill:#000000;fill-opacity:1;stroke:none;stroke-width:2.33867955px;stroke-linecap:butt;stroke-linejoin:miter;stroke-opacity:1"
           d="m -481.64611,1100.2602 c -14.56574,10.4041 -0.55409,20.0961 6.5491,19.1435 -9.32873,-5.337 -8.55115,-12.7338 -6.5491,-19.1435 z"
           id="path4614"
           inkscape:connector-curvature="0"
           sodipodi:nodetypes="ccc" />
      </g>
      <g
         transform="matrix(0.02026039,0,0,0.02029819,-209.9251,-271.98927)"
         id="g4526"
         style="opacity:1;fill:#000000;fill-opacity:1;stroke:none;stroke-width:33.29528427">
        <path
           style="fill:#000000;fill-opacity:1;stroke:none;stroke-width:8.80937672px;stroke-linecap:butt;stroke-linejoin:miter;stroke-opacity:1"
           d="m -837.57604,1188.4203 c 52.07371,7.3068 51.85581,6.4682 62.82806,10.1883 11.9893,4.065 43.64049,10.5896 57.38618,11.5023 -13.9774,5.6894 -8.73152,13.4974 -8.45131,18.6511 -17.92121,-6.0157 -28.9629,-6.5315 -46.82517,-8.9534 -5.14562,-0.7204 -15.95143,-2.1612 -23.05239,-5.1456 -7.10096,-2.9845 -20.99414,-6.7922 -31.28539,-7.9243 -10.29124,-1.132 -10.00423,-1.4978 -16.77472,-1.7495 -2.90878,-8.7055 1.18617,-13.7265 6.17474,-16.5689 z"
           id="path4505"
           inkscape:connector-curvature="0"
           sodipodi:nodetypes="csccccccc" />
        <ellipse
           style="opacity:1;fill:#000000;fill-opacity:1;stroke:none;stroke-width:1.22221935;stroke-miterlimit:3.5999999;stroke-dasharray:none"
           id="path4507"
           cx="-196.24063"
           cy="1395.2845"
           rx="8.1119089"
           ry="9.4990005"
           transform="matrix(0.93544233,0.35347935,-0.37979925,0.92506893,0,0)" />
        <path
           style="opacity:1;fill:#000000;fill-opacity:1;stroke:none;stroke-width:8.80937672px;stroke-linecap:butt;stroke-linejoin:miter;stroke-opacity:1"
           d="m -716.28332,1184.9644 c -43.22544,6.1854 -50.6046,9.4255 -54.18875,10.7265 12.48007,3.6022 23.6617,6.3745 34.8319,8.1209 11.86153,-2.7652 23.18718,-4.966 27.83715,-6.2803 1.61406,-4.5045 0.17934,-10.384 -8.4803,-12.5671 z"
           id="path4513"
           inkscape:connector-curvature="0"
           sodipodi:nodetypes="ccccc" />
        <path
           style="opacity:1;fill:#000000;fill-opacity:1;stroke:none;stroke-width:8.80937672px;stroke-linecap:butt;stroke-linejoin:miter;stroke-opacity:1"
           d="m -837.16439,1214.3028 c 9.31358,-2.5214 8.07863,-2.5214 12.40095,-3.6019 10.86744,0.8716 19.61843,5.516 30.30772,8.5931 -8.28445,3.602 -29.94752,12.1952 -35.5048,14.2534 4.20587,-11.7558 -1.47384,-15.9838 -7.20387,-19.2446 z"
           id="path4515"
           inkscape:connector-curvature="0"
           sodipodi:nodetypes="ccccc" />
        <ellipse
           style="opacity:1;fill:#000000;fill-opacity:1;stroke:none;stroke-width:0.91887647;stroke-miterlimit:3.5999999;stroke-dasharray:none"
           id="path4517"
           cx="-1406.7489"
           cy="524.77802"
           rx="9.1488924"
           ry="10.252341"
           transform="matrix(0.82039547,-0.57179652,0.59377557,0.8046307,0,0)" />
      </g>
    </g>
    <path
       inkscape:connector-curvature="0"
       style="fill:currentColor;stroke-width:0.26458335"
       d="m -227.07355,-244.17624 -0.48895,-0.51243 h 0.19983 c 0.12318,0 0.1868,-0.14774 0.10226,-0.23725 l -0.48447,-0.51297 h 0.19465 c 0.12237,0 0.18668,-0.14635 0.10308,-0.23639 l -0.60956,-0.65645 c -0.0556,-0.0599 -0.15048,-0.0599 -0.20615,0 l -0.60956,0.65645 c -0.0833,0.0897 -0.0198,0.23639 0.10308,0.23639 h 0.19465 l -0.48448,0.51297 c -0.0846,0.0896 -0.0208,0.23725 0.10228,0.23725 h 0.19982 l -0.48899,0.51243 c -0.0852,0.0892 -0.0219,0.23779 0.10176,0.23779 h 0.70318 c 0,0.19214 -0.0656,0.28871 -0.19924,0.39566 -0.0691,0.0552 -0.0298,0.16701 0.0586,0.16701 h 0.844 c 0.0884,0 0.12763,-0.11177 0.0586,-0.16701 -0.11585,-0.0927 -0.19922,-0.18559 -0.19924,-0.3956 v -7e-5 h 0.70316 c 0.12338,0 0.18714,-0.14833 0.10175,-0.23779 z"
       id="path2" />
    <path
       style="fill:#000000;stroke-width:0.99999994"
       d="m -228.59681,-255.57835 v -0.1112 h 1.76675 1.76675 v 0.1112 0.11119 h -1.76675 -1.76675 z m 0.46949,-0.30626 c 0,-0.0152 1.28428,-2.17047 1.29569,-2.17439 0.01,-0.003 1.28844,2.13452 1.29665,2.1679 0.003,0.0131 -0.0728,0.0162 -0.40153,0.0162 l -0.40553,-1e-5 -0.24092,-0.39486 c -0.13251,-0.21718 -0.2437,-0.39482 -0.2471,-0.39477 -0.003,5e-5 -0.11447,0.17775 -0.24682,0.39488 l -0.24065,0.39477 h -0.40489 c -0.2227,0 -0.4049,-0.004 -0.4049,-0.01 z"
       id="path14987"
       inkscape:connector-curvature="0" />
    <path
       style="fill:#000000;stroke-width:0.99999994"
       d="m -235.23002,-266.96337 v -0.1112 h 1.76675 1.76675 v 0.1112 0.11119 h -1.76675 -1.76675 z m 0.46949,-0.30626 c 0,-0.0152 1.28428,-2.17047 1.29569,-2.17439 0.01,-0.003 1.28844,2.13452 1.29665,2.1679 0.003,0.0131 -0.0728,0.0162 -0.40153,0.0162 l -0.40553,-10e-6 -0.24092,-0.39486 c -0.13251,-0.21718 -0.2437,-0.39482 -0.2471,-0.39477 -0.003,5e-5 -0.11447,0.17775 -0.24682,0.39488 l -0.24065,0.39477 h -0.40489 c -0.2227,0 -0.4049,-0.004 -0.4049,-0.01 z"
       id="path14987-2"
       inkscape:connector-curvature="0" />
    <path
       inkscape:connector-curvature="0"
       style="fill:currentColor;stroke-width:0.26458332"
       d="m -233.48072,-263.45691 c -0.13416,0.33287 -0.45559,0.1315 -0.45559,0.1315 -0.0986,0.19918 -0.26152,0.32726 -0.4495,0.32799 -0.0392,0 -0.0404,-0.0594 0,-0.0594 0.15681,-8.9e-4 0.29342,-0.10398 0.38278,-0.2681 -0.10008,0.0387 -0.28879,0.0679 -0.39349,-0.20016 0.26541,-0.10933 0.38741,0.0273 0.43416,0.1108 0.0241,-0.0594 0.0414,-0.12394 0.0526,-0.19407 0,0 -0.34017,0.0533 -0.36403,-0.23888 0.29001,-0.11664 0.37158,0.18677 0.37158,0.18677 0.004,-0.0407 0.008,-0.12809 0.008,-0.13003 0,0 -0.25884,-0.17946 -0.0928,-0.40227 0.30341,0.10471 0.14952,0.39545 0.14952,0.39545 0.001,0.004 0.001,0.0579 0,0.0813 0,0 0.11006,-0.21672 0.33213,-0.14001 -0.0102,0.32629 -0.34553,0.25908 -0.34553,0.25908 -0.0107,0.0667 -0.0273,0.13003 -0.0487,0.18871 0,0 0.20211,-0.22353 0.41882,-0.0487 z"
       id="path2-9" />
    <path
       inkscape:connector-curvature="0"
       style="fill:currentColor;stroke-width:0.26458332"
       d="m -230.47011,-261.87107 c -0.13416,0.33287 -0.45559,0.1315 -0.45559,0.1315 -0.0986,0.19918 -0.26152,0.32726 -0.4495,0.32799 -0.0392,0 -0.0404,-0.0594 0,-0.0594 0.15681,-8.9e-4 0.29342,-0.10398 0.38278,-0.2681 -0.10008,0.0387 -0.28879,0.0679 -0.39349,-0.20016 0.26541,-0.10933 0.38741,0.0273 0.43416,0.1108 0.0241,-0.0594 0.0414,-0.12394 0.0526,-0.19407 0,0 -0.34017,0.0533 -0.36403,-0.23888 0.29001,-0.11664 0.37158,0.18677 0.37158,0.18677 0.004,-0.0407 0.008,-0.12809 0.008,-0.13003 0,0 -0.25884,-0.17946 -0.0928,-0.40227 0.30341,0.10471 0.14952,0.39545 0.14952,0.39545 10e-4,0.004 10e-4,0.0579 0,0.0813 0,0 0.11006,-0.21672 0.33213,-0.14001 -0.0102,0.32629 -0.34553,0.25908 -0.34553,0.25908 -0.0107,0.0667 -0.0273,0.13003 -0.0487,0.18871 0,0 0.20211,-0.22353 0.41882,-0.0487 z"
       id="path2-9-1" />
    <path
       inkscape:connector-curvature="0"
       style="fill:currentColor;stroke-width:0.26458332"
       d="m -227.05574,-261.91785 c -0.13416,0.33287 -0.45559,0.1315 -0.45559,0.1315 -0.0986,0.19918 -0.26152,0.32726 -0.4495,0.32799 -0.0392,0 -0.0404,-0.0594 0,-0.0594 0.15681,-8.9e-4 0.29342,-0.10398 0.38278,-0.2681 -0.10008,0.0387 -0.28879,0.0679 -0.39349,-0.20016 0.26541,-0.10933 0.38741,0.0273 0.43416,0.1108 0.0241,-0.0594 0.0414,-0.12394 0.0526,-0.19407 0,0 -0.34017,0.0533 -0.36403,-0.23888 0.29001,-0.11664 0.37158,0.18677 0.37158,0.18677 0.004,-0.0407 0.008,-0.12809 0.008,-0.13003 0,0 -0.25884,-0.17946 -0.0928,-0.40227 0.30341,0.10471 0.14952,0.39545 0.14952,0.39545 0.001,0.004 0.001,0.0579 0,0.0813 0,0 0.11006,-0.21672 0.33213,-0.14001 -0.0102,0.32629 -0.34553,0.25908 -0.34553,0.25908 -0.0107,0.0667 -0.0273,0.13003 -0.0487,0.18871 0,0 0.20211,-0.22353 0.41882,-0.0487 z"
       id="path2-9-2" />
    <path
       inkscape:connector-curvature="0"
       style="fill:currentColor;stroke-width:0.26458332"
       d="m -222.56561,-260.07034 c -0.13416,0.33287 -0.45559,0.1315 -0.45559,0.1315 -0.0986,0.19918 -0.26152,0.32726 -0.4495,0.32799 -0.0392,0 -0.0404,-0.0594 0,-0.0594 0.15681,-8.9e-4 0.29342,-0.10398 0.38278,-0.2681 -0.10008,0.0387 -0.28879,0.0679 -0.39349,-0.20016 0.26541,-0.10933 0.38741,0.0273 0.43416,0.1108 0.0241,-0.0594 0.0414,-0.12394 0.0526,-0.19407 0,0 -0.34017,0.0533 -0.36403,-0.23888 0.29001,-0.11664 0.37158,0.18677 0.37158,0.18677 0.004,-0.0407 0.008,-0.12809 0.008,-0.13003 0,0 -0.25884,-0.17946 -0.0928,-0.40227 0.30341,0.10471 0.14952,0.39545 0.14952,0.39545 0.001,0.004 0.001,0.0579 0,0.0813 0,0 0.11006,-0.21672 0.33213,-0.14001 -0.0102,0.32629 -0.34553,0.25908 -0.34553,0.25908 -0.0107,0.0667 -0.0273,0.13003 -0.0487,0.18871 0,0 0.20211,-0.22353 0.41882,-0.0487 z"
       id="path2-9-7" />
    <path
       inkscape:connector-curvature="0"
       style="fill:currentColor;stroke-width:0.26458332"
       d="m -227.20775,-267.13294 c -0.13416,0.33287 -0.45559,0.1315 -0.45559,0.1315 -0.0986,0.19918 -0.26152,0.32726 -0.4495,0.32799 -0.0392,0 -0.0404,-0.0594 0,-0.0594 0.15681,-8.9e-4 0.29342,-0.10398 0.38278,-0.2681 -0.10008,0.0387 -0.28879,0.0679 -0.39349,-0.20016 0.26541,-0.10933 0.38741,0.0273 0.43416,0.1108 0.0241,-0.0594 0.0414,-0.12394 0.0526,-0.19407 0,0 -0.34017,0.0533 -0.36403,-0.23888 0.29001,-0.11664 0.37158,0.18677 0.37158,0.18677 0.004,-0.0407 0.008,-0.12809 0.008,-0.13003 0,0 -0.25884,-0.17946 -0.0928,-0.40227 0.30341,0.10471 0.14952,0.39545 0.14952,0.39545 10e-4,0.004 10e-4,0.0579 0,0.0813 0,0 0.11006,-0.21672 0.33213,-0.14001 -0.0102,0.32629 -0.34553,0.25908 -0.34553,0.25908 -0.0107,0.0667 -0.0273,0.13003 -0.0487,0.18871 0,0 0.20211,-0.22353 0.41882,-0.0487 z"
       id="path2-9-0" />
    <path
       inkscape:connector-curvature="0"
       style="fill:currentColor;stroke-width:0.26458332"
       d="m -223.61798,-265.48422 c -0.13416,0.33287 -0.45559,0.1315 -0.45559,0.1315 -0.0986,0.19918 -0.26152,0.32726 -0.4495,0.32799 -0.0392,0 -0.0404,-0.0594 0,-0.0594 0.15681,-8.9e-4 0.29342,-0.10398 0.38278,-0.2681 -0.10008,0.0387 -0.28879,0.0679 -0.39349,-0.20016 0.26541,-0.10933 0.38741,0.0273 0.43416,0.1108 0.0241,-0.0594 0.0414,-0.12394 0.0526,-0.19407 0,0 -0.34017,0.0533 -0.36403,-0.23888 0.29001,-0.11664 0.37158,0.18677 0.37158,0.18677 0.004,-0.0407 0.008,-0.12809 0.008,-0.13003 0,0 -0.25884,-0.17946 -0.0928,-0.40227 0.30341,0.10471 0.14952,0.39545 0.14952,0.39545 0.001,0.004 0.001,0.0579 0,0.0813 0,0 0.11006,-0.21672 0.33213,-0.14001 -0.0102,0.32629 -0.34553,0.25908 -0.34553,0.25908 -0.0107,0.0667 -0.0273,0.13003 -0.0487,0.18871 0,0 0.20211,-0.22353 0.41882,-0.0487 z"
       id="path2-9-9" />
    <path
       inkscape:connector-curvature="0"
       style="fill:currentColor;stroke-width:0.26458332"
       d="m -219.52542,-263.14561 c -0.13416,0.33287 -0.45559,0.1315 -0.45559,0.1315 -0.0986,0.19918 -0.26152,0.32726 -0.4495,0.32799 -0.0392,0 -0.0404,-0.0594 0,-0.0594 0.15681,-8.9e-4 0.29342,-0.10398 0.38278,-0.2681 -0.10008,0.0387 -0.28879,0.0679 -0.39349,-0.20016 0.26541,-0.10933 0.38741,0.0273 0.43416,0.1108 0.0241,-0.0594 0.0414,-0.12394 0.0526,-0.19407 0,0 -0.34017,0.0533 -0.36403,-0.23888 0.29001,-0.11664 0.37158,0.18677 0.37158,0.18677 0.004,-0.0407 0.008,-0.12809 0.008,-0.13003 0,0 -0.25884,-0.17946 -0.0928,-0.40227 0.30341,0.10471 0.14952,0.39545 0.14952,0.39545 0.001,0.004 0.001,0.0579 0,0.0813 0,0 0.11006,-0.21672 0.33213,-0.14001 -0.0102,0.32629 -0.34553,0.25908 -0.34553,0.25908 -0.0107,0.0667 -0.0273,0.13003 -0.0487,0.18871 0,0 0.20211,-0.22353 0.41882,-0.0487 z"
       id="path2-9-3" />
    <path
       inkscape:connector-curvature="0"
       style="fill:currentColor;stroke-width:0.26458332"
       d="m -215.54978,-260.73685 c -0.13416,0.33287 -0.45559,0.1315 -0.45559,0.1315 -0.0986,0.19918 -0.26152,0.32726 -0.4495,0.32799 -0.0392,0 -0.0404,-0.0594 0,-0.0594 0.15681,-8.9e-4 0.29342,-0.10398 0.38278,-0.2681 -0.10008,0.0387 -0.28879,0.0679 -0.39349,-0.20016 0.26541,-0.10933 0.38741,0.0273 0.43416,0.1108 0.0241,-0.0594 0.0414,-0.12394 0.0526,-0.19407 0,0 -0.34017,0.0533 -0.36403,-0.23888 0.29001,-0.11664 0.37158,0.18677 0.37158,0.18677 0.004,-0.0407 0.008,-0.12809 0.008,-0.13003 0,0 -0.25884,-0.17946 -0.0928,-0.40227 0.30341,0.10471 0.14952,0.39545 0.14952,0.39545 0.001,0.004 0.001,0.0579 0,0.0813 0,0 0.11006,-0.21672 0.33213,-0.14001 -0.0102,0.32629 -0.34553,0.25908 -0.34553,0.25908 -0.0107,0.0667 -0.0273,0.13003 -0.0487,0.18871 0,0 0.20211,-0.22353 0.41882,-0.0487 z"
       id="path2-9-6" />
    <path
       inkscape:connector-curvature="0"
       style="fill:currentColor;stroke-width:0.26458332"
       d="m -217.12834,-258.51517 c -0.13416,0.33287 -0.45559,0.1315 -0.45559,0.1315 -0.0986,0.19918 -0.26152,0.32726 -0.4495,0.32799 -0.0392,0 -0.0404,-0.0594 0,-0.0594 0.15681,-8.9e-4 0.29342,-0.10398 0.38278,-0.2681 -0.10008,0.0387 -0.28879,0.0679 -0.39349,-0.20016 0.26541,-0.10933 0.38741,0.0273 0.43416,0.1108 0.0241,-0.0594 0.0414,-0.12394 0.0526,-0.19407 0,0 -0.34017,0.0533 -0.36403,-0.23888 0.29001,-0.11664 0.37158,0.18677 0.37158,0.18677 0.004,-0.0407 0.008,-0.12809 0.008,-0.13003 0,0 -0.25884,-0.17946 -0.0928,-0.40227 0.30341,0.10471 0.14952,0.39545 0.14952,0.39545 0.001,0.004 0.001,0.0579 0,0.0813 0,0 0.11006,-0.21672 0.33213,-0.14001 -0.0102,0.32629 -0.34553,0.25908 -0.34553,0.25908 -0.0107,0.0667 -0.0273,0.13003 -0.0487,0.18871 0,0 0.20211,-0.22353 0.41882,-0.0487 z"
       id="path2-9-06" />
    <path
       inkscape:connector-curvature="0"
       style="fill:currentColor;stroke-width:0.26458332"
       d="m -214.53249,-257.82528 c -0.13416,0.33287 -0.45559,0.1315 -0.45559,0.1315 -0.0986,0.19918 -0.26152,0.32726 -0.4495,0.32799 -0.0392,0 -0.0404,-0.0594 0,-0.0594 0.15681,-8.9e-4 0.29342,-0.10398 0.38278,-0.2681 -0.10008,0.0387 -0.28879,0.0679 -0.39349,-0.20016 0.26541,-0.10933 0.38741,0.0273 0.43416,0.1108 0.0241,-0.0594 0.0414,-0.12394 0.0526,-0.19407 0,0 -0.34017,0.0533 -0.36403,-0.23888 0.29001,-0.11664 0.37158,0.18677 0.37158,0.18677 0.004,-0.0407 0.008,-0.12809 0.008,-0.13003 0,0 -0.25884,-0.17946 -0.0928,-0.40227 0.30341,0.10471 0.14952,0.39545 0.14952,0.39545 0.001,0.004 0.001,0.0579 0,0.0813 0,0 0.11006,-0.21672 0.33213,-0.14001 -0.0102,0.32629 -0.34553,0.25908 -0.34553,0.25908 -0.0107,0.0667 -0.0273,0.13003 -0.0487,0.18871 0,0 0.20211,-0.22353 0.41882,-0.0487 z"
       id="path2-9-26" />
    <path
       style="fill:#000000;stroke-width:1"
       d="m -217.96437,-238.15544 c 0.0822,-0.0318 0.14275,-0.0814 0.18542,-0.15205 0.0377,-0.0623 0.0545,-0.12992 0.0511,-0.20521 -0.001,-0.0351 -0.0181,-0.0984 -0.0333,-0.13089 -0.0565,-0.1162 -0.16626,-0.19149 -0.29392,-0.20167 -0.0911,-0.007 -0.18474,0.0226 -0.25519,0.0815 -0.0319,0.0266 -0.0519,0.0504 -0.0754,0.0893 -0.0397,0.0657 -0.0566,0.1338 -0.0516,0.20762 0.002,0.0331 0.0156,0.0881 0.0291,0.11825 0.0597,0.1351 0.19777,0.22003 0.34532,0.21233 0.0217,-0.001 0.0823,-0.0131 0.0988,-0.0192 z m -2.54445,0.62774 c 0.15163,-0.0552 0.24796,-0.2027 0.23623,-0.3614 -0.002,-0.0292 -0.0148,-0.0849 -0.025,-0.10988 -0.0641,-0.15278 -0.22342,-0.24155 -0.38564,-0.21486 -0.10365,0.0173 -0.19274,0.0769 -0.24655,0.16591 -0.0377,0.0623 -0.0541,0.12705 -0.0519,0.20359 6.6e-4,0.0319 0.0174,0.0998 0.032,0.12952 0.0315,0.066 0.0785,0.11807 0.13982,0.15508 0.0795,0.0481 0.16838,0.0627 0.25883,0.0428 0.0181,-0.004 0.0373,-0.009 0.0427,-0.0108 z m 3.28298,-1.18572 c 0.0126,-0.007 0.0203,-0.0153 0.0256,-0.0275 0.003,-0.008 0.003,-0.01 -0.0708,-0.31195 l -0.0744,-0.30369 -0.29179,-0.0265 -0.2918,-0.0265 -0.26744,-0.24338 c -0.14709,-0.13386 -0.26885,-0.24354 -0.27058,-0.24373 -0.002,-2e-5 -0.11585,0.008 -0.25361,0.0173 -0.13776,0.01 -0.25374,0.0179 -0.25776,0.018 l -0.007,7.1e-4 -0.008,-0.0309 c -0.004,-0.017 -0.008,-0.0363 -0.009,-0.043 l -9.3e-4,-0.0121 0.61656,-0.15226 0.61654,-0.15227 0.0699,-0.10634 c 0.0764,-0.11639 0.0784,-0.12037 0.0792,-0.15948 0.001,-0.0555 -0.0208,-0.11337 -0.0507,-0.13211 -0.006,-0.004 -0.14684,-0.0573 -0.31239,-0.11855 l -0.301,-0.11134 -1.23787,0.30541 -1.23786,0.30541 -0.1355,0.12551 -0.1355,0.12551 -0.60783,0.14997 c -0.4541,0.11203 -0.60975,0.15147 -0.61566,0.15498 -0.0141,0.009 -0.0246,0.0233 -0.0289,0.0392 l -0.004,0.0154 0.23452,0.95265 0.23453,0.95263 0.0403,0.003 c 0.0221,0.002 0.14229,0.012 0.26703,0.0224 l 0.22684,0.0191 0.0982,-0.0242 0.0981,-0.0242 -0.005,-0.0187 c -0.007,-0.0269 -0.0111,-0.074 -0.011,-0.10876 9.9e-4,-0.0849 0.026,-0.16452 0.0725,-0.23126 0.0845,-0.12105 0.23426,-0.20053 0.39347,-0.20871 0.18992,-0.01 0.35158,0.0821 0.42727,0.24285 0.0125,0.0256 0.0274,0.067 0.0324,0.0871 l 0.003,0.0123 0.82132,-0.20264 0.82132,-0.20264 -0.005,-0.0187 c -0.01,-0.0403 -0.0138,-0.10584 -0.009,-0.15189 0.003,-0.0291 0.0134,-0.0726 0.0246,-0.10288 0.012,-0.0326 0.0509,-0.0981 0.0739,-0.12413 0.0489,-0.0556 0.10602,-0.097 0.1787,-0.12957 0.0386,-0.0178 0.12786,-0.0398 0.16843,-0.0426 0.11247,-0.008 0.20958,0.0146 0.29332,0.0676 0.0851,0.0538 0.14367,0.13214 0.17941,0.2398 l 0.0121,0.0365 0.19002,-0.0471 c 0.14748,-0.0365 0.19256,-0.0485 0.20128,-0.0538 z m -2.82225,0.52672 c -0.0129,-9.3e-4 -0.0251,-0.008 -0.0316,-0.0198 -0.004,-0.007 -0.0495,-0.18828 -0.17314,-0.69341 l -0.16812,-0.68352 0.003,-0.008 c 0.002,-0.005 0.006,-0.0119 0.0104,-0.0162 l 0.007,-0.008 0.38391,-0.0947 c 0.36753,-0.0907 0.38433,-0.0946 0.39387,-0.092 0.006,0.002 0.0129,0.006 0.0165,0.01 0.007,0.007 0.0163,0.045 0.17578,0.69161 0.1797,0.72873 0.17196,0.69501 0.16319,0.71151 -0.008,0.015 0.008,0.0106 -0.39413,0.1099 -0.23928,0.0591 -0.38073,0.0929 -0.38667,0.0923 z m 1.60967,-1.08971 c -0.18061,0.0384 -0.33437,0.0702 -0.34154,0.0715 -0.0158,0.003 -0.0289,-0.002 -0.0392,-0.0137 -0.007,-0.009 -0.009,-0.0144 -0.0641,-0.23913 l -0.0569,-0.23056 0.007,-0.0121 c 0.004,-0.006 0.0112,-0.0142 0.0165,-0.017 0.006,-0.004 0.07,-0.0204 0.2055,-0.0538 l 0.19622,-0.0484 0.22604,0.19688 c 0.25105,0.21866 0.22705,0.19464 0.24202,0.24222 l 0.006,0.0208 -0.0349,0.007 c -0.0191,0.004 -0.18263,0.0379 -0.36329,0.076 z m -2.89092,0.46299 c -0.006,-0.003 -0.0123,-0.007 -0.0151,-0.0116 -0.005,-0.006 -0.0204,-0.0702 -0.0658,-0.25397 -0.066,-0.26706 -0.0638,-0.25657 -0.0524,-0.2714 l 0.005,-0.008 0.33816,-0.0834 c 0.22712,-0.056 0.33999,-0.0829 0.34373,-0.0817 0.0145,0.004 0.012,-0.005 0.0795,0.26906 0.0674,0.27351 0.0653,0.26277 0.0539,0.27333 -0.004,0.004 -0.067,0.0207 -0.34114,0.0883 l -0.33606,0.083 -0.0102,-0.004 z m 2.30895,-1.33018 c -0.004,-9.9e-4 -0.0102,-0.004 -0.0139,-0.007 -0.007,-0.006 -0.007,-0.008 -0.0468,-0.16896 -0.0394,-0.15949 -0.0402,-0.1632 -0.0368,-0.1699 0.008,-0.0159 -0.006,-0.0118 0.35177,-0.10007 0.36617,-0.0903 0.34442,-0.086 0.35766,-0.0725 0.006,0.006 0.01,0.0198 0.0462,0.16617 0.034,0.13798 0.0393,0.16124 0.0374,0.16842 -0.004,0.0177 0.0186,0.0112 -0.35099,0.10235 -0.26267,0.0649 -0.33853,0.083 -0.34385,0.0817 z"
       id="path15084"
       inkscape:connector-curvature="0" />
    <path
       style="fill:#000000;stroke-width:1"
       d="m -207.47921,-240.3562 c 0.0822,-0.0318 0.14275,-0.0814 0.18542,-0.15205 0.0377,-0.0623 0.0545,-0.12992 0.0511,-0.20521 -10e-4,-0.0351 -0.0181,-0.0984 -0.0333,-0.13089 -0.0565,-0.1162 -0.16626,-0.19149 -0.29392,-0.20167 -0.0911,-0.007 -0.18474,0.0226 -0.25519,0.0815 -0.0319,0.0266 -0.0519,0.0504 -0.0754,0.0893 -0.0397,0.0657 -0.0566,0.1338 -0.0516,0.20762 0.002,0.0331 0.0156,0.0881 0.0291,0.11825 0.0597,0.1351 0.19777,0.22003 0.34532,0.21233 0.0217,-0.001 0.0823,-0.0131 0.0988,-0.0192 z m -2.54445,0.62774 c 0.15163,-0.0552 0.24796,-0.2027 0.23623,-0.3614 -0.002,-0.0292 -0.0148,-0.0849 -0.025,-0.10988 -0.0641,-0.15278 -0.22342,-0.24155 -0.38564,-0.21486 -0.10365,0.0173 -0.19274,0.0769 -0.24655,0.16591 -0.0377,0.0623 -0.0541,0.12705 -0.0519,0.20359 6.6e-4,0.0319 0.0174,0.0998 0.032,0.12952 0.0315,0.066 0.0785,0.11807 0.13982,0.15508 0.0795,0.0481 0.16838,0.0627 0.25883,0.0428 0.0181,-0.004 0.0373,-0.009 0.0427,-0.0108 z m 3.28298,-1.18572 c 0.0126,-0.007 0.0203,-0.0153 0.0256,-0.0275 0.003,-0.008 0.003,-0.01 -0.0708,-0.31195 l -0.0744,-0.30369 -0.29179,-0.0265 -0.2918,-0.0265 -0.26744,-0.24338 c -0.14709,-0.13386 -0.26885,-0.24354 -0.27058,-0.24373 -0.002,-2e-5 -0.11585,0.008 -0.25361,0.0173 -0.13776,0.01 -0.25374,0.0179 -0.25776,0.018 l -0.007,7.1e-4 -0.008,-0.0309 c -0.004,-0.017 -0.008,-0.0363 -0.009,-0.043 l -9.3e-4,-0.0121 0.61656,-0.15226 0.61654,-0.15227 0.0699,-0.10634 c 0.0764,-0.11639 0.0784,-0.12037 0.0792,-0.15948 0.001,-0.0555 -0.0208,-0.11337 -0.0507,-0.13211 -0.006,-0.004 -0.14684,-0.0573 -0.31239,-0.11855 l -0.301,-0.11134 -1.23787,0.30541 -1.23786,0.30541 -0.1355,0.12551 -0.1355,0.12551 -0.60783,0.14997 c -0.4541,0.11203 -0.60975,0.15147 -0.61566,0.15498 -0.0141,0.009 -0.0246,0.0233 -0.0289,0.0392 l -0.004,0.0154 0.23452,0.95265 0.23453,0.95263 0.0403,0.003 c 0.0221,0.002 0.14229,0.012 0.26703,0.0224 l 0.22684,0.0191 0.0982,-0.0242 0.0981,-0.0242 -0.005,-0.0187 c -0.007,-0.0269 -0.0111,-0.074 -0.011,-0.10876 9.9e-4,-0.0849 0.026,-0.16452 0.0725,-0.23126 0.0845,-0.12105 0.23426,-0.20053 0.39347,-0.20871 0.18992,-0.01 0.35158,0.0821 0.42727,0.24285 0.0125,0.0256 0.0274,0.067 0.0324,0.0871 l 0.003,0.0123 0.82132,-0.20264 0.82132,-0.20264 -0.005,-0.0187 c -0.01,-0.0403 -0.0138,-0.10584 -0.009,-0.15189 0.003,-0.0291 0.0134,-0.0726 0.0246,-0.10288 0.012,-0.0326 0.0509,-0.0981 0.0739,-0.12413 0.0489,-0.0556 0.10602,-0.097 0.1787,-0.12957 0.0386,-0.0178 0.12786,-0.0398 0.16843,-0.0426 0.11247,-0.008 0.20958,0.0146 0.29332,0.0676 0.0851,0.0538 0.14367,0.13214 0.17941,0.2398 l 0.0121,0.0365 0.19002,-0.0471 c 0.14748,-0.0365 0.19256,-0.0485 0.20128,-0.0538 z m -2.82225,0.52672 c -0.0129,-9.2e-4 -0.0251,-0.008 -0.0316,-0.0198 -0.004,-0.007 -0.0495,-0.18828 -0.17314,-0.69341 l -0.16812,-0.68352 0.003,-0.008 c 0.002,-0.005 0.006,-0.0119 0.0104,-0.0162 l 0.007,-0.008 0.38391,-0.0947 c 0.36753,-0.0907 0.38433,-0.0946 0.39387,-0.092 0.006,0.002 0.0129,0.006 0.0165,0.01 0.007,0.007 0.0163,0.045 0.17578,0.69161 0.1797,0.72873 0.17196,0.69501 0.16319,0.71151 -0.008,0.015 0.008,0.0106 -0.39413,0.1099 -0.23928,0.0591 -0.38073,0.0929 -0.38667,0.0923 z m 1.60967,-1.08971 c -0.18061,0.0384 -0.33437,0.0702 -0.34154,0.0715 -0.0158,0.003 -0.0289,-0.002 -0.0392,-0.0137 -0.007,-0.009 -0.009,-0.0144 -0.0641,-0.23913 l -0.0569,-0.23056 0.007,-0.0121 c 0.004,-0.006 0.0112,-0.0142 0.0165,-0.017 0.006,-0.004 0.07,-0.0204 0.2055,-0.0538 l 0.19622,-0.0484 0.22604,0.19688 c 0.25105,0.21866 0.22705,0.19464 0.24202,0.24222 l 0.006,0.0208 -0.0349,0.007 c -0.0191,0.004 -0.18263,0.0379 -0.36329,0.076 z m -2.89092,0.46299 c -0.006,-0.003 -0.0123,-0.007 -0.0151,-0.0116 -0.005,-0.006 -0.0204,-0.0702 -0.0658,-0.25397 -0.066,-0.26706 -0.0638,-0.25657 -0.0524,-0.2714 l 0.005,-0.008 0.33816,-0.0834 c 0.22712,-0.056 0.33999,-0.0829 0.34373,-0.0817 0.0145,0.004 0.012,-0.005 0.0795,0.26906 0.0674,0.27351 0.0653,0.26277 0.0539,0.27333 -0.004,0.004 -0.067,0.0207 -0.34114,0.0883 l -0.33606,0.083 -0.0102,-0.004 z m 2.30895,-1.33018 c -0.004,-9.9e-4 -0.0102,-0.004 -0.0139,-0.007 -0.007,-0.006 -0.007,-0.008 -0.0468,-0.16896 -0.0394,-0.15949 -0.0402,-0.1632 -0.0368,-0.1699 0.008,-0.0159 -0.006,-0.0118 0.35177,-0.10007 0.36617,-0.0903 0.34442,-0.086 0.35766,-0.0725 0.006,0.006 0.01,0.0198 0.0462,0.16617 0.034,0.13798 0.0393,0.16124 0.0374,0.16842 -0.004,0.0177 0.0186,0.0112 -0.35099,0.10235 -0.26267,0.0649 -0.33853,0.083 -0.34385,0.0817 z"
       id="path15084-1"
       inkscape:connector-curvature="0" />
    <path
       inkscape:connector-curvature="0"
       style="fill:currentColor;stroke-width:0.26458332"
       d="m -209.02869,-250.63782 c 0.003,0.0155 0.053,0.3109 0.053,0.42375 0,0.17207 -0.0915,0.29479 -0.22668,0.34414 l 0.0424,0.78336 c 0.002,0.0451 -0.0336,0.0832 -0.079,0.0832 h -0.21056 c -0.0451,0 -0.0813,-0.0378 -0.079,-0.0832 l 0.0425,-0.78336 c -0.13555,-0.0494 -0.22669,-0.1724 -0.22669,-0.34414 0,-0.11318 0.0503,-0.40829 0.053,-0.42375 0.0105,-0.0668 0.14904,-0.0678 0.1576,0.004 v 0.46455 c 0.004,0.0112 0.0497,0.0105 0.0526,0 0.005,-0.0832 0.026,-0.45797 0.0263,-0.46652 0.0108,-0.0684 0.14706,-0.0684 0.15759,0 7.7e-4,0.009 0.0217,0.38329 0.0263,0.46652 0.003,0.0105 0.0487,0.0112 0.0526,0 v -0.46455 c 0.009,-0.0711 0.14739,-0.0704 0.15792,-0.004 z m 0.39217,0.93996 -0.0494,0.60898 c -0.004,0.0461 0.0326,0.0855 0.0786,0.0855 h 0.18425 c 0.0437,0 0.079,-0.0352 0.079,-0.079 v -1.52657 c 0,-0.0434 -0.0352,-0.079 -0.079,-0.079 -0.27143,0 -0.72842,0.58727 -0.21353,0.98997 z"
       id="path2-8" />
    <path
       inkscape:connector-curvature="0"
       style="fill:currentColor;stroke-width:0.26458332"
       d="m -208.20195,-257.78648 c 0.0201,0.0201 0.0526,0.0201 0.0727,0 l 0.0363,-0.0363 c 0.0201,-0.0201 0.0201,-0.0526 0,-0.0727 l -0.11481,-0.11477 0.11477,-0.11481 c 0.0201,-0.0201 0.0201,-0.0526 0,-0.0727 l -0.0363,-0.0363 c -0.0201,-0.0201 -0.0526,-0.0201 -0.0727,0 l -0.18751,0.1875 c -0.0201,0.0201 -0.0201,0.0526 0,0.0727 z m 0.30858,-0.0363 0.0363,0.0363 c 0.0201,0.0201 0.0526,0.0201 0.0727,0 l 0.18752,-0.18751 c 0.0201,-0.0201 0.0201,-0.0526 0,-0.0727 l -0.18752,-0.18751 c -0.0201,-0.0201 -0.0526,-0.0201 -0.0727,0 l -0.0363,0.0363 c -0.0201,0.0201 -0.0201,0.0526 0,0.0727 l 0.11477,0.11477 -0.11477,0.11481 c -0.0201,0.0201 -0.0201,0.0526 0,0.0727 z m 0.8773,0.53241 h -0.77928 c -0.003,0.0637 -0.0472,0.10284 -0.10522,0.10284 h -0.19542 c -0.0601,0 -0.10613,-0.0562 -0.10532,-0.10284 h -0.76889 c -0.0283,0 -0.0514,0.0231 -0.0514,0.0514 v 0.0514 c 0,0.11314 0.0926,0.2057 0.2057,0.2057 h 1.64559 c 0.11313,0 0.2057,-0.0926 0.2057,-0.2057 v -0.0514 c 0,-0.0283 -0.0231,-0.0514 -0.0514,-0.0514 z m -0.15427,-1.18277 c 0,-0.0849 -0.0694,-0.15428 -0.15428,-0.15428 h -1.33704 c -0.0848,0 -0.15427,0.0694 -0.15427,0.15428 v 1.07991 h 1.64559 z m -0.2057,0.87422 h -1.2342 v -0.8228 h 1.2342 z"
       id="path2-7" />
    <path
       inkscape:connector-curvature="0"
       style="fill:currentColor;stroke-width:0.26458332"
       d="m -292.5115,-382.65269 h -16.84125 c -1.26788,0 -2.29654,1.02866 -2.29654,2.29653 v 16.84125 c 0,1.26788 1.02866,2.29653 2.29654,2.29653 h 16.84125 c 1.26787,0 2.29653,-1.02865 2.29653,-2.29653 v -16.84125 c 0,-1.26787 -1.02866,-2.29653 -2.29653,-2.29653 z m -7.65512,13.7792 h -2.29653 v 2.29654 c 0,0.42103 -0.34448,0.76551 -0.76551,0.76551 h -1.53103 c -0.42103,0 -0.7655,-0.34448 -0.7655,-0.76551 v -10.71716 c 0,-0.42103 0.34447,-0.76551 0.7655,-0.76551 h 4.59307 c 2.53097,0 4.59307,2.06209 4.59307,4.59307 0,2.53097 -2.0621,4.59306 -4.59307,4.59306 z m 0,-6.12409 h -2.29653 v 3.06205 h 2.29653 c 0.84206,0 1.53102,-0.68896 1.53102,-1.53102 0,-0.84207 -0.68896,-1.53103 -1.53102,-1.53103 z"
       id="path2-92" />
    <text
       xml:space="preserve"
       style="font-style:normal;font-variant:normal;font-weight:600;font-stretch:normal;font-size:0.80869073px;line-height:100%;font-family:'Source Sans Pro';-inkscape-font-specification:'Source Sans Pro, Semi-Bold';font-variant-ligatures:normal;font-variant-caps:normal;font-variant-numeric:normal;font-feature-settings:normal;text-align:start;letter-spacing:0px;word-spacing:0px;writing-mode:lr-tb;text-anchor:start;fill:#000000;fill-opacity:1;stroke:none;stroke-width:0.26458332px;stroke-linecap:butt;stroke-linejoin:miter;stroke-opacity:1"
       x="-202.90793"
       y="-254.61639"
       id="text15133"><tspan
         sodipodi:role="line"
         id="tspan15131"
         x="-202.90793"
         y="-254.61639"
         style="stroke-width:0.26458332px">WC</tspan></text>
    <text
       xml:space="preserve"
       style="font-style:normal;font-variant:normal;font-weight:600;font-stretch:normal;font-size:2.90237236px;line-height:100%;font-family:'Source Sans Pro';-inkscape-font-specification:'Source Sans Pro, Semi-Bold';font-variant-ligatures:normal;font-variant-caps:normal;font-variant-numeric:normal;font-feature-settings:normal;text-align:start;letter-spacing:0px;word-spacing:0px;writing-mode:lr-tb;text-anchor:start;fill:#ffffff;fill-opacity:1;stroke:#000000;stroke-width:0.1;stroke-linecap:butt;stroke-linejoin:miter;stroke-miterlimit:4;stroke-dasharray:none;stroke-opacity:1"
       x="-245.29384"
       y="-279.87924"
       id="text17833"><tspan
         sodipodi:role="line"
         id="tspan17831"
         x="-245.29384"
         y="-279.87924"
         style="fill:#ffffff;fill-opacity:1;stroke:#000000;stroke-width:0.1;stroke-miterlimit:4;stroke-dasharray:none;stroke-opacity:1">Eingang</tspan></text>
    <text
       xml:space="preserve"
       style="font-style:normal;font-variant:normal;font-weight:600;font-stretch:normal;font-size:5.16374779px;line-height:100%;font-family:'Source Sans Pro';-inkscape-font-specification:'Source Sans Pro, Semi-Bold';font-variant-ligatures:normal;font-variant-caps:normal;font-variant-numeric:normal;font-feature-settings:normal;text-align:start;letter-spacing:0px;word-spacing:0px;writing-mode:lr-tb;text-anchor:start;display:inline;fill:#ffffff;fill-opacity:1;stroke:#000000;stroke-width:0.1;stroke-linecap:butt;stroke-linejoin:miter;stroke-miterlimit:4;stroke-dasharray:none;stroke-opacity:1"
       x="-313.45483"
       y="-354.44592"
       id="text17833-0"
       transform="scale(0.99367803,1.0063622)"><tspan
         sodipodi:role="line"
         id="tspan17831-2"
         x="-313.45483"
         y="-354.44592"
         style="fill:#ffffff;fill-opacity:1;stroke:#000000;stroke-width:0.1;stroke-miterlimit:4;stroke-dasharray:none;stroke-opacity:1">Parkplatz</tspan></text>
    <text
       xml:space="preserve"
       style="font-style:normal;font-variant:normal;font-weight:600;font-stretch:normal;font-size:5.7036128px;line-height:100%;font-family:'Source Sans Pro';-inkscape-font-specification:'Source Sans Pro, Semi-Bold';font-variant-ligatures:normal;font-variant-caps:normal;font-variant-numeric:normal;font-feature-settings:normal;text-align:start;letter-spacing:0px;word-spacing:0px;writing-mode:lr-tb;text-anchor:start;display:inline;fill:#ffffff;fill-opacity:1;stroke:#000000;stroke-width:0.1;stroke-linecap:butt;stroke-linejoin:miter;stroke-miterlimit:4;stroke-dasharray:none;stroke-opacity:1"
       x="-209.39589"
       y="-375.76865"
       id="text17833-0-3"
       transform="scale(0.99281413,1.0072379)"><tspan
         sodipodi:role="line"
         id="tspan17831-2-7"
         x="-209.39589"
         y="-375.76865"
         style="fill:#ffffff;fill-opacity:1;stroke:#000000;stroke-width:0.1;stroke-miterlimit:4;stroke-dasharray:none;stroke-opacity:1">Eingang Wohnwagen</tspan></text>
    <text
       xml:space="preserve"
       style="font-style:normal;font-variant:normal;font-weight:600;font-stretch:normal;font-size:2.56054449px;line-height:100%;font-family:'Source Sans Pro';-inkscape-font-specification:'Source Sans Pro, Semi-Bold';font-variant-ligatures:normal;font-variant-caps:normal;font-variant-numeric:normal;font-feature-settings:normal;text-align:start;letter-spacing:0px;word-spacing:0px;writing-mode:lr-tb;text-anchor:start;display:inline;fill:#ffffff;fill-opacity:1;stroke:#000000;stroke-width:0.05;stroke-linecap:butt;stroke-linejoin:miter;stroke-miterlimit:4;stroke-dasharray:none;stroke-opacity:1"
       x="-163.54648"
       y="-280.00439"
       id="text17833-0-5"
       transform="matrix(0.98001574,-0.22546945,0.22214564,0.96928336,0,0)"><tspan
         sodipodi:role="line"
         id="tspan17831-2-9"
         x="-163.54648"
         y="-280.00439"
         style="fill:#ffffff;fill-opacity:1;stroke:#000000;stroke-width:0.05;stroke-miterlimit:4;stroke-dasharray:none;stroke-opacity:1">Parkplatz Wohnwagen</tspan></text>
    <path
       style="display:inline;fill:#000000;stroke-width:1"
       d="m -180.42186,-366.45449 c 0.29031,-0.0385 0.52442,-0.15146 0.71733,-0.3461 0.1704,-0.17173 0.27736,-0.37691 0.32519,-0.62261 0.0233,-0.11426 0.0199,-0.33183 -0.006,-0.44858 -0.0917,-0.41929 -0.38723,-0.74805 -0.79143,-0.88062 -0.28865,-0.0937 -0.6141,-0.0714 -0.88753,0.0638 -0.1239,0.0611 -0.20694,0.12223 -0.31323,0.22952 -0.17936,0.18103 -0.28732,0.3878 -0.32884,0.63004 -0.0199,0.10829 -0.0199,0.29662 0.002,0.40448 0.0874,0.48278 0.46668,0.8648 0.94908,0.95515 0.0708,0.0133 0.27602,0.0233 0.33395,0.0166 z m -8.70498,0.0399 c 0.53265,-0.0598 0.95881,-0.46081 1.04487,-0.98234 0.0166,-0.0957 0.0199,-0.28565 0.006,-0.37428 -0.0877,-0.5433 -0.53272,-0.95429 -1.0773,-0.99478 -0.34813,-0.0265 -0.68228,0.0977 -0.92553,0.34313 -0.17039,0.17172 -0.2737,0.36792 -0.32651,0.61675 -0.0233,0.10363 -0.0233,0.33581 0.002,0.44316 0.0501,0.23783 0.16142,0.44248 0.33017,0.60986 0.21922,0.21722 0.49465,0.33388 0.80223,0.34025 0.0614,0.002 0.12755,7e-5 0.14615,-0.002 z m 11.52502,-1.26471 c 0.0461,-0.0133 0.0774,-0.0335 0.10397,-0.0688 0.0166,-0.0233 0.0166,-0.0299 0.0166,-1.06242 l -0.003,-1.03856 -0.92135,-0.31323 -0.92138,-0.31356 -0.67342,-0.99458 c -0.37036,-0.54704 -0.6778,-0.99622 -0.68325,-0.99818 -0.006,-0.002 -0.38026,-0.0648 -0.83229,-0.14217 -0.45257,-0.0754 -0.83319,-0.14049 -0.84625,-0.14316 l -0.0233,-0.003 -0.002,-0.10596 c 3.6e-4,-0.0581 0.002,-0.12356 0.003,-0.14582 l 0.006,-0.0398 2.10949,-0.01 2.10938,-0.01 0.30857,-0.28865 c 0.33754,-0.31622 0.34711,-0.32751 0.38023,-0.45307 0.0465,-0.17837 0.0199,-0.38224 -0.0605,-0.46608 -0.0166,-0.0166 -0.42935,-0.29961 -0.916,-0.62668 l -0.88484,-0.59447 -4.23497,0.0199 -4.23491,0.0199 -0.53547,0.29927 -0.53548,0.29928 -2.07948,0.01 c -1.55355,0.006 -2.08686,0.0133 -2.10869,0.0199 -0.0525,0.0166 -0.0977,0.0561 -0.12389,0.10397 l -0.0265,0.0465 0.0133,3.25875 0.0133,3.25872 0.12787,0.0412 c 0.0697,0.0233 0.45001,0.1498 0.84462,0.28067 l 0.71743,0.23883 0.33596,-0.002 0.33561,-0.002 -0.002,-0.0645 c -0.002,-0.0923 0.0233,-0.24746 0.0495,-0.35973 0.0694,-0.27337 0.21259,-0.51083 0.41465,-0.69 0.36732,-0.32485 0.9129,-0.46449 1.43329,-0.3666 0.62098,0.11592 1.07099,0.53959 1.18983,1.11768 0.0199,0.0923 0.0362,0.23782 0.0366,0.30658 l 7e-5,0.0422 2.80987,-0.0133 2.80987,-0.0133 -0.002,-0.0645 c -8e-4,-0.13784 0.0382,-0.35248 0.0893,-0.4974 0.0332,-0.0917 0.1,-0.22388 0.15978,-0.3129 0.0641,-0.096 0.24081,-0.27702 0.33551,-0.34306 0.20129,-0.14116 0.41803,-0.23052 0.67811,-0.27867 0.1385,-0.0265 0.44386,-0.0299 0.57702,-0.006 0.36936,0.0621 0.66526,0.21092 0.89421,0.44729 0.23284,0.24015 0.36066,0.53879 0.39198,0.9143 l 0.01,0.12722 0.65027,-0.003 c 0.50465,-0.002 0.65957,-0.006 0.69185,-0.0166 z m -9.52296,-0.50315 c -0.0409,-0.0133 -0.0747,-0.0455 -0.0867,-0.0887 -0.006,-0.0265 -0.0133,-0.64651 -0.0166,-2.37388 l -0.01,-2.33804 0.0166,-0.0233 c 0.01,-0.0133 0.0299,-0.0339 0.0461,-0.0442 l 0.0299,-0.0199 1.3134,-0.006 c 1.25739,-0.006 1.31469,-0.006 1.34345,0.01 0.0166,0.01 0.0369,0.0299 0.0455,0.0452 0.0166,0.0265 0.0166,0.1581 0.0266,2.37013 0.01,2.49302 0.0133,2.37809 -0.0299,2.42453 -0.0375,0.0422 0.0166,0.0405 -1.35827,0.0472 -0.81868,0.003 -1.30174,0.002 -1.32043,-0.003 z m 6.0477,-2.26128 c -0.61307,-0.0166 -1.13432,-0.0345 -1.15851,-0.0359 -0.0535,-0.002 -0.0917,-0.0299 -0.11592,-0.0747 -0.0166,-0.0345 -0.0166,-0.0535 -0.0199,-0.8221 l -0.003,-0.78878 0.0332,-0.0335 c 0.0166,-0.0166 0.0472,-0.0372 0.0665,-0.0418 0.0233,-0.006 0.24182,-0.01 0.70548,-0.0133 l 0.67129,-0.003 0.57603,0.81212 c 0.63978,0.90199 0.58105,0.80569 0.59224,0.97101 l 0.003,0.0717 -0.11825,-0.003 c -0.0648,-0.002 -0.61921,-0.0199 -1.23221,-0.0382 z m -9.69489,-0.76254 c -0.0166,-0.0133 -0.0342,-0.0332 -0.0398,-0.0492 -0.01,-0.0233 -0.01,-0.24248 -0.0133,-0.87133 -0.003,-0.91373 -0.006,-0.87816 0.0429,-0.91712 l 0.0233,-0.0233 1.15688,-0.006 c 0.77699,-0.003 1.1624,-0.002 1.17352,0.003 0.0438,0.0233 0.0425,-0.006 0.0465,0.93075 0.003,0.93563 0.006,0.89932 -0.0395,0.92453 -0.0166,0.01 -0.23252,0.0133 -1.17034,0.0199 l -1.14977,0.006 -0.0299,-0.0199 z m 8.49311,-2.49163 c -0.0133,-0.006 -0.0299,-0.0199 -0.0395,-0.0335 -0.0166,-0.0233 -0.0166,-0.0299 -0.0199,-0.58201 -0.002,-0.5457 -0.002,-0.55829 0.0133,-0.57726 0.0382,-0.0452 -0.01,-0.0429 1.21384,-0.0485 1.25268,-0.006 1.1791,-0.01 1.21132,0.0452 0.0133,0.0233 0.0166,0.0717 0.0199,0.57258 0.002,0.472 8e-4,0.55125 -0.01,0.57295 -0.0266,0.0541 0.0515,0.0508 -1.21308,0.0565 -0.89873,0.003 -1.15778,0.003 -1.17393,-0.003 z"
       id="path15084-1-2"
       inkscape:connector-curvature="0" />
    <path
       style="fill:#000000;fill-opacity:1;fill-rule:evenodd;stroke:none;stroke-width:0.26458332px;stroke-linecap:butt;stroke-linejoin:miter;stroke-opacity:1"
       d="m -188.17853,-366.33751 -0.99768,4.99455 -2.85403,-0.5701 3.08849,4.63037 4.64334,-3.06903 -2.94809,-0.60573 0.99769,-4.99456 z"
       id="path17894"
       inkscape:connector-curvature="0"
       sodipodi:nodetypes="cccccccc" />
    <text
       xml:space="preserve"
       style="font-style:normal;font-variant:normal;font-weight:600;font-stretch:normal;font-size:1.15761817px;line-height:100%;font-family:'Source Sans Pro';-inkscape-font-specification:'Source Sans Pro, Semi-Bold';font-variant-ligatures:normal;font-variant-caps:normal;font-variant-numeric:normal;font-feature-settings:normal;text-align:start;letter-spacing:0px;word-spacing:0px;writing-mode:lr-tb;text-anchor:start;display:inline;fill:#ffffff;fill-opacity:1;stroke:#000000;stroke-width:0.02;stroke-linecap:butt;stroke-linejoin:miter;stroke-miterlimit:4;stroke-dasharray:none;stroke-opacity:1"
       x="-205.07576"
       y="-253.14488"
       id="text17833-0-5-2"
       transform="matrix(1.0169591,0.00343412,-0.00431521,0.98330914,0,0)"><tspan
         sodipodi:role="line"
         id="tspan17831-2-9-8"
         x="-205.07576"
         y="-253.14488"
         style="fill:#ffffff;fill-opacity:1;stroke:#000000;stroke-width:0.02;stroke-miterlimit:4;stroke-dasharray:none;stroke-opacity:1">Gartenbau-</tspan><tspan
         sodipodi:role="line"
         x="-205.07576"
         y="-251.98726"
         style="fill:#ffffff;fill-opacity:1;stroke:#000000;stroke-width:0.02;stroke-miterlimit:4;stroke-dasharray:none;stroke-opacity:1"
         id="tspan20922">gebude</tspan></text>
    <text
       xml:space="preserve"
       style="font-style:normal;font-variant:normal;font-weight:600;font-stretch:normal;font-size:0.97677147px;line-height:100%;font-family:'Source Sans Pro';-inkscape-font-specification:'Source Sans Pro, Semi-Bold';font-variant-ligatures:normal;font-variant-caps:normal;font-variant-numeric:normal;font-feature-settings:normal;text-align:start;letter-spacing:0px;word-spacing:0px;writing-mode:lr-tb;text-anchor:start;display:inline;fill:#ffffff;fill-opacity:1;stroke:#000000;stroke-width:0.02;stroke-linecap:butt;stroke-linejoin:miter;stroke-miterlimit:4;stroke-dasharray:none;stroke-opacity:1"
       x="-157.65489"
       y="-292.5029"
       id="text17833-0-5-2-9"
       transform="matrix(0.99170499,-0.23042924,0.22233199,0.95670408,0,0)"><tspan
         sodipodi:role="line"
         x="-157.65489"
         y="-292.5029"
         style="fill:#ffffff;fill-opacity:1;stroke:#000000;stroke-width:0.02;stroke-miterlimit:4;stroke-dasharray:none;stroke-opacity:1"
         id="tspan20922-3">Gewchshaus</tspan></text>
    <text
       xml:space="preserve"
       style="font-style:normal;font-variant:normal;font-weight:600;font-stretch:normal;font-size:5.16374779px;line-height:100%;font-family:'Source Sans Pro';-inkscape-font-specification:'Source Sans Pro, Semi-Bold';font-variant-ligatures:normal;font-variant-caps:normal;font-variant-numeric:normal;font-feature-settings:normal;text-align:start;letter-spacing:0px;word-spacing:0px;writing-mode:lr-tb;text-anchor:start;display:inline;fill:#ffffff;fill-opacity:1;stroke:#000000;stroke-width:0.1;stroke-linecap:butt;stroke-linejoin:miter;stroke-miterlimit:4;stroke-dasharray:none;stroke-opacity:1"
       x="-283.35028"
       y="-392.56302"
       id="text17833-0-1"
       transform="scale(0.99367802,1.0063622)"><tspan
         sodipodi:role="line"
         id="tspan17831-2-94"
         x="-283.35028"
         y="-392.56302"
         style="fill:#ffffff;fill-opacity:1;stroke:#000000;stroke-width:0.1;stroke-miterlimit:4;stroke-dasharray:none;stroke-opacity:1">Naturata</tspan></text>
  </g>
  <g
     inkscape:groupmode="layer"
     id="layer2"
     inkscape:label="wege"
     style="display:none"
     sodipodi:insensitive="true"
     transform="translate(239.8298,276.61508)">
    <path
       style="fill:none;fill-rule:evenodd;stroke:#a10000;stroke-width:1;stroke-linecap:butt;stroke-linejoin:miter;stroke-miterlimit:4;stroke-dasharray:2.00000008, 1.00000004;stroke-dashoffset:0;stroke-opacity:1;marker-mid:url(#Arrow2Send-5);marker-end:url(#marker2992-5)"
       d="m -288.11654,-357.06199 8.71654,0.27657 c 0.88195,19.502 0.40188,53.62239 2.54662,56.45547 1.41681,2.96222 4.10437,8.26701 4.99105,12.34264 0.54056,2.4847 -0.77271,4.80349 -0.0112,5.01119 2.13153,0.55318 4.11467,0.71515 5.99452,0.60483 3.0843,-0.18103 5.62596,-1.8227 8.35334,-2.9447 2.11773,-0.8712 4.61786,-1.27246 6.73373,-1.3879 4.70881,0.17485 10.98189,2.45255 13.14885,11.74084 9.09619,3.41676 17.35686,8.92235 25.5896,14.49777"
       id="path2982"
       inkscape:connector-curvature="0"
       sodipodi:nodetypes="cccscssccc" />
    <path
       style="fill:none;fill-rule:evenodd;stroke:#ca0000;stroke-width:0.26499999;stroke-linecap:butt;stroke-linejoin:miter;stroke-miterlimit:4;stroke-dasharray:0.26499999, 0.26499999;stroke-dashoffset:0;stroke-opacity:1;marker-mid:url(#Arrow2Mstart-6)"
       d="m -305.14163,-260.52424 2.02836,3.05679 c 2.92995,0.39072 6.70353,-1.28032 10.08723,-1.52136 2.55764,-1.42213 3.3219,-6.35744 6.08542,-8.10286 l 8.78604,-4.24507 c 1.66444,-0.87699 0.0131,-4.37565 0.67271,-6.3383 1.20001,-3.57084 3.85143,-6.19454 6.06427,-5.60348 9.08903,3.22024 14.3612,-3.49638 20.62566,-3.42538 4.98781,-0.244 9.5601,3.63126 11.46215,7.4083 l 1.6867,4.33255 9.77508,4.65781 15.81452,9.83996"
       id="path6842"
       inkscape:connector-curvature="0"
       sodipodi:nodetypes="cccccscccccc" />
  </g>
</svg>
