<?xml version="1.0" encoding="UTF-8" standalone="no"?>
<!-- Created with Inkscape (http://www.inkscape.org/) -->

<svg
   xmlns:dc="http://purl.org/dc/elements/1.1/"
   xmlns:cc="http://creativecommons.org/ns#"
   xmlns:rdf="http://www.w3.org/1999/02/22-rdf-syntax-ns#"
   xmlns:svg="http://www.w3.org/2000/svg"
   xmlns="http://www.w3.org/2000/svg"
   xmlns:sodipodi="http://sodipodi.sourceforge.net/DTD/sodipodi-0.dtd"
   xmlns:inkscape="http://www.inkscape.org/namespaces/inkscape"
   width="210mm"
   height="297mm"
   viewBox="0 0 744.09448819 1052.3622047"
   id="svg3404"
   version="1.1"
   inkscape:version="0.91 r13725"
   sodipodi:docname="free_wifi.svg">
  <defs
     id="defs3406" />
  <sodipodi:namedview
     id="base"
     pagecolor="#ffffff"
     bordercolor="#666666"
     borderopacity="1.0"
     inkscape:pageopacity="0.0"
     inkscape:pageshadow="2"
     inkscape:zoom="0.49497475"
     inkscape:cx="272.48303"
     inkscape:cy="353.99826"
     inkscape:document-units="px"
     inkscape:current-layer="layer1"
     showgrid="false"
     inkscape:window-width="1920"
     inkscape:window-height="1018"
     inkscape:window-x="1912"
     inkscape:window-y="-8"
     inkscape:window-maximized="1" />
  <metadata
     id="metadata3409">
    <rdf:RDF>
      <cc:Work
         rdf:about="">
        <dc:format>image/svg+xml</dc:format>
        <dc:type
           rdf:resource="http://purl.org/dc/dcmitype/StillImage" />
        <dc:title></dc:title>
      </cc:Work>
    </rdf:RDF>
  </metadata>
  <g
     inkscape:label="Ebene 1"
     inkscape:groupmode="layer"
     id="layer1">
    <path
       d="m 43.03896,80.613841 q 0.835328,1.20901 1.809857,1.70685 0.994409,0.49782 2.088259,0.49782 1.13365,0 2.028618,-0.47412 0.914848,-0.49784 1.551294,-1.51721 0.636446,-1.04307 0.974529,-2.63139 0.338083,-1.61204 0.338083,-3.84043 0,-4.006365 -1.11373,-5.784347 -1.11373,-1.801685 -3.202029,-1.801685 -1.412053,0 -2.466142,0.782318 -1.05409,0.758595 -2.008739,2.15727 l 0,10.904924 z m 0,-15.02982 q 1.233092,-1.540912 2.724705,-2.441744 1.511534,-0.924555 3.440671,-0.924555 1.770096,0 3.182149,0.829723 1.431973,0.829723 2.426382,2.394339 1.01429,1.540912 1.551294,3.745607 0.536965,2.204675 0.536965,4.95462 0,2.96329 -0.616525,5.38133 -0.616526,2.41804 -1.770057,4.1486 -1.13365,1.70687 -2.744585,2.65511 -1.610973,0.94826 -3.579912,0.94826 -0.954648,0 -1.730296,-0.23707 -0.775646,-0.21335 -1.431932,-0.61636 -0.656327,-0.40301 -1.213211,-0.97196 -0.536965,-0.59265 -1.03417,-1.30384 l -0.218801,1.63572 q -0.119321,0.61638 -0.417644,0.87715 -0.278443,0.26077 -0.775648,0.26077 l -3.241789,0 0,-35.227613 4.912404,0 0,13.891913 z"
       style="font-style:normal;font-variant:normal;font-weight:bold;font-stretch:normal;font-size:200px;line-height:100%;font-family:Lato;-inkscape-font-specification:'Lato Bold';letter-spacing:0px;word-spacing:0px;fill:#009ee0;fill-opacity:1;stroke:none;stroke-width:1px;stroke-linecap:butt;stroke-linejoin:miter;stroke-opacity:1"
       id="path3419"
       inkscape:connector-curvature="0"
       inkscape:export-filename="/home/kr0l/pixelflutffbsee.png"
       inkscape:export-xdpi="7.1930156"
       inkscape:export-ydpi="7.1930156" />
    <path
       d="m 69.763299,62.217722 q 2.26726,0 4.116877,0.877129 1.869497,0.877149 3.182149,2.48917 1.332492,1.612023 2.048499,3.935251 0.715965,2.323209 0.715965,5.191689 0,2.89216 -0.715965,5.21539 -0.716007,2.32321 -2.048499,3.95895 -1.312652,1.63575 -3.182149,2.51288 -1.849617,0.87713 -4.116877,0.87713 -2.287141,0 -4.156678,-0.87713 -1.869497,-0.87713 -3.201989,-2.51288 -1.312652,-1.63574 -2.048499,-3.95895 -0.716006,-2.32323 -0.716006,-5.21539 0,-2.86848 0.716006,-5.191689 0.735847,-2.323228 2.048499,-3.935251 1.332492,-1.612021 3.201989,-2.48917 1.869537,-0.877129 4.156678,-0.877129 z m 0,20.553389 q 2.545703,0 3.758874,-2.03874 1.233091,-2.03875 1.233091,-5.974 0,-3.935256 -1.233091,-5.997693 -1.213171,-2.062458 -3.758874,-2.062458 -2.585503,0 -3.838435,2.086161 -1.233091,2.062438 -1.233091,5.97399 0,3.91154 1.233091,5.974 1.252932,2.03874 3.838435,2.03874 z"
       style="font-style:normal;font-variant:normal;font-weight:bold;font-stretch:normal;font-size:200px;line-height:100%;font-family:Lato;-inkscape-font-specification:'Lato Bold';letter-spacing:0px;word-spacing:0px;fill:#009ee0;fill-opacity:1;stroke:none;stroke-width:1px;stroke-linecap:butt;stroke-linejoin:miter;stroke-opacity:1"
       id="path3421"
       inkscape:connector-curvature="0"
       inkscape:export-filename="/home/kr0l/pixelflutffbsee.png"
       inkscape:export-xdpi="7.1930156"
       inkscape:export-ydpi="7.1930156" />
    <path
       d="m 96.382572,68.808083 q -0.835287,-1.20903 -1.829736,-1.706853 -0.974528,-0.497841 -2.108139,-0.497841 -1.113771,0 -2.008738,0.497841 -0.894969,0.497823 -1.531374,1.51721 -0.636446,0.995664 -0.974529,2.56028 -0.338123,1.540911 -0.338123,3.650771 0,2.13357 0.278443,3.62706 0.298322,1.4698 0.835327,2.41806 0.536965,0.92453 1.312612,1.35125 0.775646,0.40301 1.730296,0.40301 1.531374,0 2.605343,-0.7586 1.07397,-0.75861 2.028618,-2.15729 l 0,-10.904898 z m 4.912448,-17.115975 0,35.227613 -3.00315,0 q -0.974529,0 -1.233092,-1.06679 l -0.417644,-2.34693 q -1.23309,1.68315 -2.844025,2.72624 -1.591094,1.04307 -3.719114,1.04307 -1.670654,0 -3.062827,-0.82973 -1.392173,-0.82972 -2.406462,-2.39433 -0.994449,-1.58832 -1.551294,-3.91155 -0.537005,-2.32321 -0.537005,-5.31021 0,-2.70253 0.616526,-5.025743 0.616565,-2.323229 1.770096,-4.030082 1.15353,-1.706853 2.764464,-2.655092 1.610975,-0.971961 3.619674,-0.971961 1.710375,0 2.923585,0.64006 1.213172,0.640079 2.16782,1.730556 l 0,-12.825121 4.912448,0 z"
       style="font-style:normal;font-variant:normal;font-weight:bold;font-stretch:normal;font-size:200px;line-height:100%;font-family:Lato;-inkscape-font-specification:'Lato Bold';letter-spacing:0px;word-spacing:0px;fill:#009ee0;fill-opacity:1;stroke:none;stroke-width:1px;stroke-linecap:butt;stroke-linejoin:miter;stroke-opacity:1"
       id="path3423"
       inkscape:connector-curvature="0"
       inkscape:export-filename="/home/kr0l/pixelflutffbsee.png"
       inkscape:export-xdpi="7.1930156"
       inkscape:export-ydpi="7.1930156" />
    <path
       d="m 119.32811,71.961021 q 0,-1.137906 -0.27844,-2.13357 -0.25855,-1.019368 -0.79552,-1.777962 -0.53701,-0.758615 -1.37229,-1.185328 -0.81541,-0.450415 -1.9093,-0.450415 -2.12802,0 -3.36111,1.44608 -1.21322,1.44608 -1.55129,4.101195 l 9.26795,0 z m -9.3674,3.53224 q 0.11932,1.87281 0.55689,3.24776 0.43752,1.35127 1.15352,2.2521 0.71598,0.87715 1.6905,1.32757 0.99441,0.42671 2.1877,0.42671 1.1933,0 2.0485,-0.33188 0.87509,-0.3319 1.51154,-0.73491 0.65628,-0.40301 1.1336,-0.73489 0.49721,-0.33188 0.95465,-0.33188 0.61653,0 0.91485,0.54524 l 1.4121,2.13357 q -0.81541,1.1379 -1.82974,1.9202 -1.01429,0.75861 -2.12806,1.23273 -1.09385,0.45042 -2.24738,0.64008 -1.13362,0.18965 -2.20758,0.18965 -2.12806,0 -3.9578,-0.82973 -1.82974,-0.85342 -3.18211,-2.48917 -1.3524,-1.65942 -2.12805,-4.07747 -0.77565,-2.44176 -0.77565,-5.64212 0,-2.48915 0.67621,-4.670142 0.6762,-2.204675 1.92917,-3.816717 1.27286,-1.635724 3.08267,-2.583982 1.82973,-0.948258 4.11688,-0.948258 1.92917,0 3.56003,0.734892 1.63081,0.734911 2.80422,2.157288 1.17346,1.398675 1.82975,3.461112 0.6762,2.038755 0.6762,4.670147 0,1.32756 -0.23864,1.80168 -0.23869,0.45042 -0.91489,0.45042 l -12.62908,0 z"
       style="font-style:normal;font-variant:normal;font-weight:bold;font-stretch:normal;font-size:200px;line-height:100%;font-family:Lato;-inkscape-font-specification:'Lato Bold';letter-spacing:0px;word-spacing:0px;fill:#009ee0;fill-opacity:1;stroke:none;stroke-width:1px;stroke-linecap:butt;stroke-linejoin:miter;stroke-opacity:1"
       id="path3425"
       inkscape:connector-curvature="0"
       inkscape:export-filename="/home/kr0l/pixelflutffbsee.png"
       inkscape:export-xdpi="7.1930156"
       inkscape:export-ydpi="7.1930156" />
    <path
       d="m 131.98519,65.584021 q 0.61652,-0.734891 1.29273,-1.351268 0.69609,-0.64006 1.45186,-1.066773 0.77565,-0.450416 1.65073,-0.687485 0.87506,-0.260773 1.90926,-0.260773 1.67061,0 2.96335,0.687485 1.29277,0.663783 2.14797,1.896497 0.87506,1.209031 1.31262,2.915884 0.45744,1.683149 0.45744,3.721903 l 0,15.48023 -4.91245,0 0,-15.48023 q 0,-2.228397 -0.85516,-3.437427 -0.85521,-1.232735 -2.60538,-1.232735 -1.27285,0 -2.38662,0.687486 -1.11373,0.687486 -2.10815,1.872814 l 0,17.590092 -4.91244,0 0,-24.322692 3.00315,0 q 0.95464,0 1.25298,1.066774 l 0.33811,1.920218 z"
       style="font-style:normal;font-variant:normal;font-weight:bold;font-stretch:normal;font-size:200px;line-height:100%;font-family:Lato;-inkscape-font-specification:'Lato Bold';letter-spacing:0px;word-spacing:0px;fill:#009ee0;fill-opacity:1;stroke:none;stroke-width:1px;stroke-linecap:butt;stroke-linejoin:miter;stroke-opacity:1"
       id="path3427"
       inkscape:connector-curvature="0"
       inkscape:export-filename="/home/kr0l/pixelflutffbsee.png"
       inkscape:export-xdpi="7.1930156"
       inkscape:export-ydpi="7.1930156" />
    <path
       d="m 162.29313,67.338281 q -0.19888,0.379307 -0.41765,0.545247 -0.2188,0.142238 -0.55688,0.142238 -0.35801,0 -0.77565,-0.23705 -0.39777,-0.237069 -0.93477,-0.521545 -0.53697,-0.308178 -1.23305,-0.545247 -0.67621,-0.237069 -1.61097,-0.237069 -1.45186,0 -2.28714,0.73491 -0.81541,0.734893 -0.81541,1.920201 0,0.782317 0.41764,1.327566 0.43752,0.521524 1.13361,0.924534 0.716,0.403015 1.61098,0.734895 0.89497,0.3082 1.80981,0.68748 0.93477,0.37931 1.82974,0.87715 0.89497,0.47412 1.59105,1.23272 0.71601,0.73491 1.13366,1.77798 0.43756,1.04307 0.43756,2.51287 0,1.75426 -0.537,3.24777 -0.51709,1.46978 -1.55129,2.56028 -1.03418,1.06679 -2.56559,1.68315 -1.51153,0.59265 -3.50036,0.59265 -1.05408,0 -2.06837,-0.23705 -0.99441,-0.21337 -1.92918,-0.61638 -0.91485,-0.40301 -1.71041,-0.94825 -0.77561,-0.54523 -1.37226,-1.18531 l 1.13361,-2.2284 q 0.21876,-0.40301 0.51709,-0.61636 0.29832,-0.21336 0.75576,-0.21336 0.45744,0 0.85521,0.30817 0.41764,0.3082 0.95465,0.66379 0.53696,0.3556 1.25297,0.66378 0.73585,0.30818 1.84958,0.30818 0.87508,0 1.49165,-0.23707 0.63641,-0.26075 1.03417,-0.66376 0.41768,-0.40301 0.59665,-0.92456 0.19888,-0.54525 0.19888,-1.1142 0,-0.85342 -0.43753,-1.39867 -0.41764,-0.54525 -1.13364,-0.94824 -0.69609,-0.40301 -1.61094,-0.71121 -0.89497,-0.33188 -1.84962,-0.71119 -0.93476,-0.37929 -1.84961,-0.87713 -0.89498,-0.52152 -1.61098,-1.30384 -0.69609,-0.78232 -1.13361,-1.92022 -0.41764,-1.137902 -0.41764,-2.749924 0,-1.493506 0.4972,-2.844755 0.49721,-1.351268 1.45185,-2.346932 0.97453,-1.019368 2.40647,-1.612022 1.45185,-0.616376 3.34123,-0.616376 2.10817,0 3.83847,0.829723 1.73026,0.829723 2.88379,2.180991 l -1.11373,2.109845 z"
       style="font-style:normal;font-variant:normal;font-weight:bold;font-stretch:normal;font-size:200px;line-height:100%;font-family:Lato;-inkscape-font-specification:'Lato Bold';letter-spacing:0px;word-spacing:0px;fill:#009ee0;fill-opacity:1;stroke:none;stroke-width:1px;stroke-linecap:butt;stroke-linejoin:miter;stroke-opacity:1"
       id="path3429"
       inkscape:connector-curvature="0"
       inkscape:export-filename="/home/kr0l/pixelflutffbsee.png"
       inkscape:export-xdpi="7.1930156"
       inkscape:export-ydpi="7.1930156" />
    <path
       d="m 180.46919,71.961021 q 0,-1.137906 -0.27845,-2.13357 -0.25852,-1.019368 -0.79551,-1.777962 -0.53697,-0.758615 -1.3723,-1.185328 -0.81541,-0.450415 -1.9093,-0.450415 -2.12802,0 -3.36111,1.44608 -1.21317,1.44608 -1.55129,4.101195 l 9.26796,0 z m -9.3674,3.53224 q 0.11932,1.87281 0.55688,3.24776 0.43752,1.35127 1.15353,2.2521 0.71597,0.87715 1.6905,1.32757 0.9944,0.42671 2.1877,0.42671 1.19332,0 2.0485,-0.33188 0.87508,-0.3319 1.51153,-0.73491 0.65629,-0.40301 1.13361,-0.73489 0.49721,-0.33188 0.95465,-0.33188 0.61656,0 0.91489,0.54524 l 1.41205,2.13357 q -0.81541,1.1379 -1.82974,1.9202 -1.01429,0.75861 -2.12806,1.23273 -1.09385,0.45042 -2.24738,0.64008 -1.13361,0.18965 -2.20757,0.18965 -2.12807,0 -3.9578,-0.82973 -1.8297,-0.85342 -3.18212,-2.48917 -1.3524,-1.65942 -2.12805,-4.07747 -0.77565,-2.44176 -0.77565,-5.64212 0,-2.48915 0.67621,-4.670142 0.6762,-2.204675 1.92917,-3.816717 1.27286,-1.635724 3.08267,-2.583982 1.82974,-0.948258 4.11688,-0.948258 1.92918,0 3.56003,0.734892 1.63086,0.734911 2.80426,2.157288 1.17342,1.398675 1.82971,3.461112 0.6762,2.038755 0.6762,4.670147 0,1.32756 -0.23864,1.80168 -0.23869,0.45042 -0.91489,0.45042 l -12.62907,0 z"
       style="font-style:normal;font-variant:normal;font-weight:bold;font-stretch:normal;font-size:200px;line-height:100%;font-family:Lato;-inkscape-font-specification:'Lato Bold';letter-spacing:0px;word-spacing:0px;fill:#009ee0;fill-opacity:1;stroke:none;stroke-width:1px;stroke-linecap:butt;stroke-linejoin:miter;stroke-opacity:1"
       id="path3431"
       inkscape:connector-curvature="0"
       inkscape:export-filename="/home/kr0l/pixelflutffbsee.png"
       inkscape:export-xdpi="7.1930156"
       inkscape:export-ydpi="7.1930156" />
    <path
       d="m 201.67822,71.961021 q 0,-1.137906 -0.27845,-2.13357 -0.25852,-1.019368 -0.79551,-1.777962 -0.53697,-0.758615 -1.3723,-1.185328 -0.8154,-0.450415 -1.90925,-0.450415 -2.12807,0 -3.36116,1.44608 -1.21317,1.44608 -1.55129,4.101195 l 9.26796,0 z m -9.3674,3.53224 q 0.11932,1.87281 0.55688,3.24776 0.43752,1.35127 1.15353,2.2521 0.71597,0.87715 1.6905,1.32757 0.9944,0.42671 2.18774,0.42671 1.19329,0 2.04846,-0.33188 0.87508,-0.3319 1.51153,-0.73491 0.65633,-0.40301 1.13365,-0.73489 0.49721,-0.33188 0.95461,-0.33188 0.61657,0 0.91489,0.54524 l 1.41205,2.13357 q -0.81541,1.1379 -1.82974,1.9202 -1.01429,0.75861 -2.12802,1.23273 -1.09389,0.45042 -2.24737,0.64008 -1.13366,0.18965 -2.20762,0.18965 -2.12807,0 -3.9578,-0.82973 -1.8297,-0.85342 -3.18212,-2.48917 -1.3524,-1.65942 -2.12805,-4.07747 -0.77565,-2.44176 -0.77565,-5.64212 0,-2.48915 0.67621,-4.670142 0.6762,-2.204675 1.92917,-3.816717 1.27286,-1.635724 3.08267,-2.583982 1.82974,-0.948258 4.11688,-0.948258 1.92918,0 3.56003,0.734892 1.63086,0.734911 2.80426,2.157288 1.17342,1.398675 1.82971,3.461112 0.6762,2.038755 0.6762,4.670147 0,1.32756 -0.23864,1.80168 -0.23864,0.45042 -0.91485,0.45042 l -12.62911,0 z"
       style="font-style:normal;font-variant:normal;font-weight:bold;font-stretch:normal;font-size:200px;line-height:100%;font-family:Lato;-inkscape-font-specification:'Lato Bold';letter-spacing:0px;word-spacing:0px;fill:#009ee0;fill-opacity:1;stroke:none;stroke-width:1px;stroke-linecap:butt;stroke-linejoin:miter;stroke-opacity:1"
       id="path3433"
       inkscape:connector-curvature="0"
       inkscape:export-filename="/home/kr0l/pixelflutffbsee.png"
       inkscape:export-xdpi="7.1930156"
       inkscape:export-ydpi="7.1930156" />
    <path
       d="m 209.02508,83.695661 q 0,-0.73491 0.21881,-1.39867 0.23865,-0.66379 0.63641,-1.13791 0.39775,-0.47413 0.95464,-0.75861 0.55688,-0.28448 1.19329,-0.28448 0.63645,0 1.17342,0.28448 0.55688,0.28448 0.95465,0.75861 0.41764,0.47412 0.65631,1.13791 0.23865,0.66376 0.23865,1.39867 0,0.75859 -0.23865,1.42238 -0.23867,0.64006 -0.65631,1.1142 -0.39777,0.47412 -0.95465,0.73489 -0.53697,0.28447 -1.17342,0.28447 -0.63641,0 -1.19329,-0.28447 -0.55689,-0.26077 -0.95464,-0.73489 -0.39776,-0.47414 -0.63641,-1.1142 -0.21881,-0.66379 -0.21881,-1.42238 z"
       style="font-style:normal;font-variant:normal;font-weight:bold;font-stretch:normal;font-size:200px;line-height:100%;font-family:Lato;-inkscape-font-specification:'Lato Bold';text-align:start;letter-spacing:0px;word-spacing:0px;writing-mode:lr-tb;text-anchor:start;fill:#000000;fill-opacity:1;stroke:none;stroke-width:1px;stroke-linecap:butt;stroke-linejoin:miter;stroke-opacity:1"
       id="path3435"
       inkscape:connector-curvature="0"
       inkscape:export-filename="/home/kr0l/pixelflutffbsee.png"
       inkscape:export-xdpi="7.1930156"
       inkscape:export-ydpi="7.1930156" />
    <path
       d="m 220.65108,86.919721 0,-19.913322 -1.77005,-0.331882 q -0.57678,-0.142237 -0.93477,-0.474138 -0.33809,-0.355585 -0.33809,-0.995665 l 0,-2.394338 3.04291,0 0,-1.801665 q 0,-2.086161 0.51708,-3.745606 0.53701,-1.659447 1.51153,-2.821053 0.99442,-1.161606 2.40647,-1.777981 1.41209,-0.61636 3.18215,-0.61636 1.41206,0 2.62526,0.450419 l -0.0994,2.939587 q -0.0198,0.33188 -0.15912,0.545245 -0.1392,0.189647 -0.37788,0.30818 -0.21877,0.09483 -0.51709,0.142239 -0.29832,0.02368 -0.63645,0.02368 -0.87504,0 -1.57117,0.23707 -0.6762,0.213349 -1.15352,0.782296 -0.47729,0.545251 -0.73586,1.469805 -0.23864,0.900832 -0.23864,2.252101 l 0,1.612021 5.31017,0 0,4.17232 -5.15108,0 0,19.937027 -4.91241,0 z"
       style="font-style:normal;font-variant:normal;font-weight:bold;font-stretch:normal;font-size:200px;line-height:100%;font-family:Lato;-inkscape-font-specification:'Lato Bold';letter-spacing:0px;word-spacing:0px;fill:#de2c68;fill-opacity:1;stroke:none;stroke-width:1px;stroke-linecap:butt;stroke-linejoin:miter;stroke-opacity:1"
       id="path3437"
       inkscape:connector-curvature="0"
       inkscape:export-filename="/home/kr0l/pixelflutffbsee.png"
       inkscape:export-xdpi="7.1930156"
       inkscape:export-ydpi="7.1930156" />
    <path
       d="m 238.14781,66.816755 q 0.95465,-2.180991 2.2673,-3.413706 1.31261,-1.256436 3.10255,-1.256436 1.41209,0 2.26729,0.734891 l -0.31824,4.385667 q -0.0994,0.426714 -0.29832,0.616357 -0.17896,0.165961 -0.49721,0.165961 -0.29832,0 -0.89496,-0.118535 -0.57676,-0.118535 -1.13365,-0.118535 -0.8154,0 -1.45181,0.284476 -0.63645,0.284475 -1.15354,0.829723 -0.4972,0.521526 -0.89496,1.28014 -0.37789,0.758595 -0.71601,1.730553 l 0,14.98241 -4.9124,0 0,-24.322692 2.88378,0 q 0.75577,0 1.0541,0.331881 0.29832,0.308178 0.39776,1.137903 l 0.29832,2.749942 z"
       style="font-style:normal;font-variant:normal;font-weight:bold;font-stretch:normal;font-size:200px;line-height:100%;font-family:Lato;-inkscape-font-specification:'Lato Bold';letter-spacing:0px;word-spacing:0px;fill:#de2c68;fill-opacity:1;stroke:none;stroke-width:1px;stroke-linecap:butt;stroke-linejoin:miter;stroke-opacity:1"
       id="path3439"
       inkscape:connector-curvature="0"
       inkscape:export-filename="/home/kr0l/pixelflutffbsee.png"
       inkscape:export-xdpi="7.1930156"
       inkscape:export-ydpi="7.1930156" />
    <path
       d="m 260.95475,71.961021 q 0,-1.137906 -0.2784,-2.13357 -0.25857,-1.019368 -0.79553,-1.777962 -0.53701,-0.758615 -1.37234,-1.185328 -0.8154,-0.450415 -1.90925,-0.450415 -2.12807,0 -3.36116,1.44608 -1.21317,1.44608 -1.55125,4.101195 l 9.26793,0 z m -9.36737,3.53224 q 0.11932,1.87281 0.55684,3.24776 0.43756,1.35127 1.15354,2.2521 0.71596,0.87715 1.69049,1.32757 0.99445,0.42671 2.18774,0.42671 1.19329,0 2.0485,-0.33188 0.87508,-0.3319 1.51149,-0.73491 0.65633,-0.40301 1.13365,-0.73489 0.49721,-0.33188 0.95465,-0.33188 0.61653,0 0.91485,0.54524 l 1.41205,2.13357 q -0.81541,1.1379 -1.82969,1.9202 -1.01433,0.75861 -2.12807,1.23273 -1.09385,0.45042 -2.24737,0.64008 -1.13365,0.18965 -2.20762,0.18965 -2.12802,0 -3.95776,-0.82973 -1.82973,-0.85342 -3.18214,-2.48917 -1.35242,-1.65942 -2.12807,-4.07747 -0.77565,-2.44176 -0.77565,-5.64212 0,-2.48915 0.67621,-4.670142 0.6762,-2.204675 1.92917,-3.816717 1.27286,-1.635724 3.08272,-2.583982 1.82969,-0.948258 4.11687,-0.948258 1.92918,0 3.56,0.734892 1.63085,0.734911 2.80427,2.157288 1.1734,1.398675 1.82973,3.461112 0.67621,2.038755 0.67621,4.670147 0,1.32756 -0.23869,1.80168 -0.23864,0.45042 -0.91485,0.45042 l -12.62907,0 z"
       style="font-style:normal;font-variant:normal;font-weight:bold;font-stretch:normal;font-size:200px;line-height:100%;font-family:Lato;-inkscape-font-specification:'Lato Bold';letter-spacing:0px;word-spacing:0px;fill:#de2c68;fill-opacity:1;stroke:none;stroke-width:1px;stroke-linecap:butt;stroke-linejoin:miter;stroke-opacity:1"
       id="path3441"
       inkscape:connector-curvature="0"
       inkscape:export-filename="/home/kr0l/pixelflutffbsee.png"
       inkscape:export-xdpi="7.1930156"
       inkscape:export-ydpi="7.1930156" />
    <path
       d="m 274.10907,62.597029 0,24.322692 -4.93233,0 0,-24.322692 4.93233,0 z m 0.67616,-7.088183 q 0,0.758594 -0.25852,1.422377 -0.25857,0.663763 -0.69609,1.161605 -0.41768,0.497821 -0.99441,0.80602 -0.57677,0.284475 -1.23309,0.284475 -0.63644,0 -1.21321,-0.284475 -0.55685,-0.308199 -0.97453,-0.80602 -0.41765,-0.497842 -0.67617,-1.161605 -0.23868,-0.663783 -0.23868,-1.422377 0,-0.78232 0.23868,-1.469805 0.25852,-0.687485 0.67617,-1.185307 0.41768,-0.497843 0.97453,-0.782317 0.57677,-0.30818 1.21321,-0.30818 0.65632,0 1.23309,0.30818 0.57673,0.284474 0.99441,0.782317 0.43752,0.497822 0.69609,1.185307 0.25852,0.687485 0.25852,1.469805 z"
       style="font-style:normal;font-variant:normal;font-weight:bold;font-stretch:normal;font-size:200px;line-height:100%;font-family:Lato;-inkscape-font-specification:'Lato Bold';letter-spacing:0px;word-spacing:0px;fill:#de2c68;fill-opacity:1;stroke:none;stroke-width:1px;stroke-linecap:butt;stroke-linejoin:miter;stroke-opacity:1"
       id="path3443"
       inkscape:connector-curvature="0"
       inkscape:export-filename="/home/kr0l/pixelflutffbsee.png"
       inkscape:export-xdpi="7.1930156"
       inkscape:export-ydpi="7.1930156" />
    <path
       d="m 280.54912,86.919721 0,-19.913322 -1.77006,-0.331882 q -0.57676,-0.142237 -0.93477,-0.474138 -0.33808,-0.355585 -0.33808,-0.995665 l 0,-2.394338 3.04291,0 0,-1.801665 q 0,-2.086161 0.51708,-3.745606 0.53701,-1.659447 1.51154,-2.821053 0.9944,-1.161606 2.40649,-1.777981 1.41206,-0.61636 3.18212,-0.61636 1.41209,0 2.62526,0.450419 l -0.0994,2.939587 q -0.0198,0.33188 -0.15912,0.545245 -0.1392,0.189647 -0.37785,0.30818 -0.21879,0.09483 -0.51712,0.142239 -0.29832,0.02368 -0.6364,0.02368 -0.8751,0 -1.57118,0.23707 -0.67621,0.213349 -1.15353,0.782296 -0.47733,0.545251 -0.73588,1.469805 -0.23865,0.900832 -0.23865,2.252101 l 0,1.612021 5.31017,0 0,4.17232 -5.15109,0 0,19.937027 -4.9124,0 z"
       style="font-style:normal;font-variant:normal;font-weight:bold;font-stretch:normal;font-size:200px;line-height:100%;font-family:Lato;-inkscape-font-specification:'Lato Bold';letter-spacing:0px;word-spacing:0px;fill:#de2c68;fill-opacity:1;stroke:none;stroke-width:1px;stroke-linecap:butt;stroke-linejoin:miter;stroke-opacity:1"
       id="path3445"
       inkscape:connector-curvature="0"
       inkscape:export-filename="/home/kr0l/pixelflutffbsee.png"
       inkscape:export-xdpi="7.1930156"
       inkscape:export-ydpi="7.1930156" />
    <path
       d="m 310.99317,62.597029 0,24.322692 -3.00311,0 q -0.97453,0 -1.23309,-1.06679 l -0.33809,-1.94392 q -1.25297,1.51721 -2.7645,2.46546 -1.5115,0.92454 -3.56,0.92454 -1.67061,0 -2.96338,-0.66378 -1.27285,-0.68747 -2.14794,-1.9202 -0.87505,-1.23274 -1.33249,-2.91589 -0.43757,-1.70685 -0.43757,-3.74558 l 0,-15.456532 4.91245,0 0,15.456532 q 0,2.22837 0.85517,3.46111 0.87508,1.20903 2.60538,1.20903 1.27285,0 2.38658,-0.66378 1.11377,-0.68749 2.10818,-1.8728 l 0,-17.590092 4.91241,0 z"
       style="font-style:normal;font-variant:normal;font-weight:bold;font-stretch:normal;font-size:200px;line-height:100%;font-family:Lato;-inkscape-font-specification:'Lato Bold';letter-spacing:0px;word-spacing:0px;fill:#de2c68;fill-opacity:1;stroke:none;stroke-width:1px;stroke-linecap:butt;stroke-linejoin:miter;stroke-opacity:1"
       id="path3447"
       inkscape:connector-curvature="0"
       inkscape:export-filename="/home/kr0l/pixelflutffbsee.png"
       inkscape:export-xdpi="7.1930156"
       inkscape:export-ydpi="7.1930156" />
    <path
       d="m 320.45815,65.584021 q 0.61656,-0.734891 1.29273,-1.351268 0.69609,-0.64006 1.45186,-1.066773 0.77564,-0.450416 1.65073,-0.687485 0.87509,-0.260773 1.9093,-0.260773 1.67061,0 2.96334,0.687485 1.29274,0.663783 2.14794,1.896497 0.87509,1.209031 1.31265,2.915884 0.45741,1.683149 0.45741,3.721903 l 0,15.48023 -4.91241,0 0,-15.48023 q 0,-2.228397 -0.8552,-3.437427 -0.85521,-1.232735 -2.60534,-1.232735 -1.2729,0 -2.38663,0.687486 -1.11373,0.687486 -2.10818,1.872814 l 0,17.590092 -4.9124,0 0,-24.322692 3.00315,0 q 0.95464,0 1.25297,1.066774 l 0.33808,1.920218 z"
       style="font-style:normal;font-variant:normal;font-weight:bold;font-stretch:normal;font-size:200px;line-height:100%;font-family:Lato;-inkscape-font-specification:'Lato Bold';letter-spacing:0px;word-spacing:0px;fill:#de2c68;fill-opacity:1;stroke:none;stroke-width:1px;stroke-linecap:butt;stroke-linejoin:miter;stroke-opacity:1"
       id="path3449"
       inkscape:connector-curvature="0"
       inkscape:export-filename="/home/kr0l/pixelflutffbsee.png"
       inkscape:export-xdpi="7.1930156"
       inkscape:export-ydpi="7.1930156" />
    <path
       d="m 343.22845,51.692108 0,20.174093 0.91485,0 q 0.49721,0 0.77565,-0.14223 0.29832,-0.16596 0.59664,-0.640083 l 5.07153,-7.467492 q 0.31821,-0.497822 0.69608,-0.758595 0.39777,-0.260772 1.01434,-0.260772 l 4.49475,0 -6.34437,9.032102 q -0.67621,1.0668 -1.47174,1.63575 0.41765,0.35558 0.73585,0.8297 0.33812,0.47414 0.63644,1.01939 l 6.80179,11.80575 -4.43508,0 q -0.57677,0 -0.99441,-0.21336 -0.41769,-0.23707 -0.69609,-0.82973 l -5.21077,-9.22175 q -0.27844,-0.54525 -0.57676,-0.71119 -0.29832,-0.16596 -0.89496,-0.16596 l -1.11374,0 0,11.14199 -4.91244,0 0,-35.227613 4.91244,0 z"
       style="font-style:normal;font-variant:normal;font-weight:bold;font-stretch:normal;font-size:200px;line-height:100%;font-family:Lato;-inkscape-font-specification:'Lato Bold';letter-spacing:0px;word-spacing:0px;fill:#de2c68;fill-opacity:1;stroke:none;stroke-width:1px;stroke-linecap:butt;stroke-linejoin:miter;stroke-opacity:1"
       id="path3451"
       inkscape:connector-curvature="0"
       inkscape:export-filename="/home/kr0l/pixelflutffbsee.png"
       inkscape:export-xdpi="7.1930156"
       inkscape:export-ydpi="7.1930156" />
    <path
       d="m 358.88677,83.695661 q 0,-0.73491 0.21876,-1.39867 0.23865,-0.66379 0.63641,-1.13791 0.39781,-0.47413 0.95465,-0.75861 0.55689,-0.28448 1.19333,-0.28448 0.6364,0 1.17337,0.28448 0.55688,0.28448 0.95465,0.75861 0.41768,0.47412 0.65633,1.13791 0.23867,0.66376 0.23867,1.39867 0,0.75859 -0.23867,1.42238 -0.23865,0.64006 -0.65633,1.1142 -0.39777,0.47412 -0.95465,0.73489 -0.53697,0.28447 -1.17337,0.28447 -0.63644,0 -1.19333,-0.28447 -0.55684,-0.26077 -0.95465,-0.73489 -0.39776,-0.47414 -0.63641,-1.1142 -0.21876,-0.66379 -0.21876,-1.42238 z"
       style="font-style:normal;font-variant:normal;font-weight:bold;font-stretch:normal;font-size:200px;line-height:100%;font-family:Lato;-inkscape-font-specification:'Lato Bold';text-align:start;letter-spacing:0px;word-spacing:0px;writing-mode:lr-tb;text-anchor:start;fill:#000000;fill-opacity:1;stroke:none;stroke-width:1px;stroke-linecap:butt;stroke-linejoin:miter;stroke-opacity:1"
       id="path3453"
       inkscape:connector-curvature="0"
       inkscape:export-filename="/home/kr0l/pixelflutffbsee.png"
       inkscape:export-xdpi="7.1930156"
       inkscape:export-ydpi="7.1930156" />
    <path
       d="m 373.67499,65.584021 q 0.61653,-0.734891 1.29273,-1.351268 0.6961,-0.64006 1.45186,-1.066773 0.77565,-0.450416 1.65073,-0.687485 0.87509,-0.260773 1.90926,-0.260773 1.67061,0 2.96339,0.687485 1.29273,0.663783 2.14793,1.896497 0.8751,1.209031 1.31262,2.915884 0.45744,1.683149 0.45744,3.721903 l 0,15.48023 -4.9124,0 0,-15.48023 q 0,-2.228397 -0.85521,-3.437427 -0.85521,-1.232735 -2.60538,-1.232735 -1.27285,0 -2.38662,0.687486 -1.11373,0.687486 -2.10815,1.872814 l 0,17.590092 -4.9124,0 0,-24.322692 3.00311,0 q 0.95464,0 1.25301,1.066774 l 0.33808,1.920218 z"
       style="font-style:normal;font-variant:normal;font-weight:bold;font-stretch:normal;font-size:200px;line-height:100%;font-family:Lato;-inkscape-font-specification:'Lato Bold';text-align:start;letter-spacing:0px;word-spacing:0px;writing-mode:lr-tb;text-anchor:start;fill:#000000;fill-opacity:1;stroke:none;stroke-width:1px;stroke-linecap:butt;stroke-linejoin:miter;stroke-opacity:1"
       id="path3455"
       inkscape:connector-curvature="0"
       inkscape:export-filename="/home/kr0l/pixelflutffbsee.png"
       inkscape:export-xdpi="7.1930156"
       inkscape:export-ydpi="7.1930156" />
    <path
       d="m 404.67901,71.961021 q 0,-1.137906 -0.27844,-2.13357 -0.25852,-1.019368 -0.79553,-1.777962 -0.53696,-0.758615 -1.37229,-1.185328 -0.81541,-0.450415 -1.9093,-0.450415 -2.12801,0 -3.3611,1.44608 -1.21318,1.44608 -1.5513,4.101195 l 9.26796,0 z m -9.3674,3.53224 q 0.11936,1.87281 0.55689,3.24776 0.43752,1.35127 1.15352,2.2521 0.71597,0.87715 1.6905,1.32757 0.99441,0.42671 2.18774,0.42671 1.19329,0 2.04849,-0.33188 0.87506,-0.3319 1.5115,-0.73491 0.65633,-0.40301 1.13361,-0.73489 0.49724,-0.33188 0.95465,-0.33188 0.61652,0 0.91488,0.54524 l 1.41206,2.13357 q -0.8154,1.1379 -1.82974,1.9202 -1.01428,0.75861 -2.12801,1.23273 -1.09389,0.45042 -2.24739,0.64008 -1.13365,0.18965 -2.20762,0.18965 -2.12805,0 -3.95779,-0.82973 -1.8297,-0.85342 -3.18211,-2.48917 -1.35241,-1.65942 -2.12805,-4.07747 -0.77565,-2.44176 -0.77565,-5.64212 0,-2.48915 0.6762,-4.670142 0.67621,-2.204675 1.92918,-3.816717 1.27285,-1.635724 3.0827,-2.583982 1.8297,-0.948258 4.11688,-0.948258 1.92914,0 3.56,0.734892 1.63085,0.734911 2.80426,2.157288 1.17342,1.398675 1.82973,3.461112 0.67617,2.038755 0.67617,4.670147 0,1.32756 -0.23863,1.80168 -0.23865,0.45042 -0.91486,0.45042 l -12.62911,0 z"
       style="font-style:normal;font-variant:normal;font-weight:bold;font-stretch:normal;font-size:200px;line-height:100%;font-family:Lato;-inkscape-font-specification:'Lato Bold';text-align:start;letter-spacing:0px;word-spacing:0px;writing-mode:lr-tb;text-anchor:start;fill:#000000;fill-opacity:1;stroke:none;stroke-width:1px;stroke-linecap:butt;stroke-linejoin:miter;stroke-opacity:1"
       id="path3457"
       inkscape:connector-curvature="0"
       inkscape:export-filename="/home/kr0l/pixelflutffbsee.png"
       inkscape:export-xdpi="7.1930156"
       inkscape:export-ydpi="7.1930156" />
    <path
       d="m 419.31061,87.299011 q -2.66502,0 -4.097,-1.77796 -1.41205,-1.80169 -1.41205,-4.95464 l 0,-13.583715 -2.0883,0 q -0.39776,0 -0.67621,-0.308179 -0.27844,-0.308178 -0.27844,-0.924555 l 0,-2.32321 3.28159,-0.640079 1.03421,-6.63777 q 0.0994,-0.474116 0.37784,-0.734889 0.27844,-0.260776 0.71601,-0.260776 l 2.5457,0 0,7.657138 5.44942,0 0,4.17232 -5.44942,0 0,13.180725 q 0,1.1379 0.4574,1.77796 0.47733,0.64008 1.29278,0.64008 0.4574,0 0.75572,-0.11853 0.31825,-0.14224 0.53701,-0.28448 0.23868,-0.14224 0.41764,-0.26077 0.17901,-0.14224 0.35801,-0.14224 0.21876,0 0.358,0.14224 0.13921,0.11853 0.29833,0.37931 l 1.47172,2.84475 q -1.07396,1.06677 -2.46614,1.61202 -1.39221,0.54525 -2.88382,0.54525 z"
       style="font-style:normal;font-variant:normal;font-weight:bold;font-stretch:normal;font-size:200px;line-height:100%;font-family:Lato;-inkscape-font-specification:'Lato Bold';text-align:start;letter-spacing:0px;word-spacing:0px;writing-mode:lr-tb;text-anchor:start;fill:#000000;fill-opacity:1;stroke:none;stroke-width:1px;stroke-linecap:butt;stroke-linejoin:miter;stroke-opacity:1"
       id="path3459"
       inkscape:connector-curvature="0"
       inkscape:export-filename="/home/kr0l/pixelflutffbsee.png"
       inkscape:export-xdpi="7.1930156"
       inkscape:export-ydpi="7.1930156" />
    <g
       id="g3509"
       transform="matrix(14.642857,0,0,14.642857,51.571431,405.57648)">
      <path
         id="path3511"
         d="M 25.7,8.3 C 22.4,5 18,3 13,3 8,3 3.5,5 0.3,8.3 0.1,8.5 0,8.7 0,9 0,9.3 0.1,9.5 0.3,9.7 l 1.4,1.4 c 0.4,0.4 1,0.4 1.4,0 C 5.6,8.6 9.1,7 13,7 c 3.9,0 7.4,1.6 9.9,4.1 0.4,0.4 1,0.4 1.4,0 L 25.7,9.7 C 25.9,9.5 26,9.3 26,9 26,8.7 25.9,8.4 25.7,8.3 Z"
         inkscape:connector-curvature="0" />
      <path
         id="path3513"
         d="m 13,11 c -2.8,0 -5.2,1.1 -7,2.9 -0.4,0.4 -0.4,1 0,1.4 l 1.4,1.4 c 0.4,0.4 1,0.4 1.4,0 1.1,-1.1 2.6,-1.7 4.2,-1.7 1.6,0 3.1,0.7 4.2,1.7 0.4,0.4 1,0.4 1.4,0 L 20,15.3 c 0.4,-0.4 0.4,-1 0,-1.4 C 18.2,12.1 15.8,11 13,11 Z"
         inkscape:connector-curvature="0" />
      <circle
         id="circle3515"
         r="2"
         cy="21"
         cx="13" />
    </g>
    <flowRoot
       xml:space="preserve"
       id="flowRoot3527"
       style="font-style:normal;font-weight:normal;font-size:40px;line-height:125%;font-family:sans-serif;letter-spacing:0px;word-spacing:0px;fill:#000000;fill-opacity:1;stroke:none;stroke-width:1px;stroke-linecap:butt;stroke-linejoin:miter;stroke-opacity:1"
       transform="matrix(4.1120655,0,0,4.1120655,173.53045,-2458.812)"><flowRegion
         id="flowRegion3529"><rect
           id="rect3531"
           width="677.14288"
           height="265.71429"
           x="42.857143"
           y="755.21936" /></flowRegion><flowPara
         id="flowPara3533"
         style="font-style:normal;font-variant:normal;font-weight:bold;font-stretch:normal;font-family:Aharoni;-inkscape-font-specification:'Aharoni Bold'">FREE</flowPara><flowPara
         id="flowPara3535"
         style="font-style:normal;font-variant:normal;font-weight:bold;font-stretch:normal;font-family:Aharoni;-inkscape-font-specification:'Aharoni Bold'">WIFI</flowPara></flowRoot>    <g
       id="g3674"
       transform="matrix(0.7318528,0,0,0.7318528,-724.44268,163.91769)">
      <ellipse
         inkscape:export-ydpi="7.1930156"
         inkscape:export-xdpi="7.1930156"
         inkscape:export-filename="/home/kr0l/pixelflutffbsee.png"
         style="fill:none;stroke:#de2c68;stroke-width:7.56065941;stroke-miterlimit:4;stroke-dasharray:none;stroke-opacity:1"
         cx="1713.6636"
         cy="98.488625"
         stroke-miterlimit="4"
         id="circle3878"
         rx="155.24368"
         ry="157.89861" />
      <ellipse
         inkscape:export-ydpi="7.1930156"
         inkscape:export-xdpi="7.1930156"
         inkscape:export-filename="/home/kr0l/pixelflutffbsee.png"
         ry="137.32738"
         rx="134.69382"
         id="ellipse5364"
         stroke-miterlimit="4"
         cy="91.530991"
         cx="1494.0491"
         style="fill:none;stroke:#de2c68;stroke-width:7.08117676;stroke-miterlimit:4;stroke-dasharray:none;stroke-opacity:1" />
      <path
         inkscape:export-ydpi="7.1930156"
         inkscape:export-xdpi="7.1930156"
         inkscape:export-filename="/home/kr0l/pixelflutffbsee.png"
         style="fill:#009ee0;fill-opacity:1;stroke:#ffffff;stroke-width:2.54137206;stroke-linecap:square;stroke-linejoin:miter;stroke-miterlimit:4;stroke-dasharray:none"
         d="m 1713.1269,421.6058 c -3.5123,-0.48123 -6.8748,-1.23957 -7.4729,-1.68538 -0.5977,-0.44571 -4.395,-3.30266 -8.4382,-6.3488 -8.5792,-6.46346 -15.6099,-9.57481 -22.6362,-10.01731 -3.1556,-0.19877 -5.9608,-1.26524 -7.5327,-2.86382 -1.3774,-1.40113 -5.3815,-3.1891 -8.8979,-3.97351 -7.1744,-1.6004 -8.9151,-3.19986 -11.4477,-10.51891 -1.5854,-4.58215 -2.3368,-5.30197 -7.5579,-7.24064 -9.3301,-3.46454 -14.0124,-5.62936 -18.8367,-8.70915 -2.4907,-1.58995 -4.9649,-2.80384 -5.4982,-2.69742 -0.5333,0.10636 -6.0368,-3.03319 -12.2299,-6.9768 -6.1933,-3.9436 -13.3778,-8.01926 -15.9654,-9.05697 -5.6687,-2.27325 -8.903,-7.87343 -9.4109,-16.29467 -0.1854,-3.07382 -1.0864,-7.55392 -2.0016,-9.95577 -1.4256,-3.73905 -2.6275,-4.76145 -8.3591,-7.11127 -3.6815,-1.50933 -7.4959,-2.58432 -8.4763,-2.38872 -0.9803,0.19555 -2.1258,-0.0126 -2.5455,-0.4627 -0.4197,-0.45002 -6.0016,-2.23319 -12.4047,-3.96259 -6.4029,-1.72941 -12.4147,-3.77097 -13.3595,-4.53678 -0.9447,-0.76583 -2.5416,-1.23585 -3.5485,-1.0444 -1.0069,0.19146 -3.0597,-0.0558 -4.5619,-0.54926 -11.8559,-3.89513 -17.7634,-6.31394 -24.901,-10.19586 -17.7555,-9.65682 -18.1422,-9.80614 -34.4421,-13.3056 -5.5296,-1.18709 -25.8964,-6.66646 -36.3943,-9.79127 -5.12,-1.52396 -11.6449,-2.62941 -14.4999,-2.45653 -5.3011,0.32101 -17.3316,-1.99173 -18.8541,-3.62458 -1.0832,-1.16152 -17.7108,-5.74999 -19.5252,-5.38802 -0.7552,0.15066 -5.2345,-0.72066 -9.9538,-1.93631 -9.3555,-2.40995 -16.6313,-7.46684 -19.7995,-13.76133 -0.9994,-1.98559 -2.7466,-4.2305 -3.8827,-4.98871 -3.1092,-2.0749 -14.8048,0.62872 -20.5246,4.74455 -11.3534,8.16951 -16.1887,10.26359 -23.935,10.36581 -3.9883,0.0525 -12.3685,0.78114 -18.6225,1.61891 -10.5355,1.41131 -11.7968,1.32418 -17.1651,-1.18593 -5.0845,-2.37726 -6.3259,-2.50639 -10.1339,-1.05414 -2.3869,0.91027 -18.5038,4.39405 -35.8152,7.74172 -31.3121,6.05512 -31.499,6.10608 -35.9916,9.81079 -2.484,2.04822 -7.0252,4.88191 -10.092,6.29711 -6.2939,2.90451 -12.416,7.42492 -13.862,10.23543 -2.9904,5.81211 -13.1273,17.42703 -16.3351,18.71707 -1.9893,0.79995 -5.0183,2.99475 -6.7312,4.87729 -1.713,1.88259 -3.762,3.55206 -4.5533,3.70994 -0.7915,0.15789 -2.892,1.62572 -4.668,3.26188 -1.776,1.63612 -5.0848,3.34696 -7.3527,3.80177 -2.8098,0.56381 -5.0531,1.98989 -7.0416,4.47741 -1.9204,2.40235 -4.6858,4.20103 -8.0881,5.26085 -3.13,0.97498 -6.0147,2.75833 -7.3105,4.51947 -3.0607,4.15944 -13.4687,6.19979 -18.5283,3.6322 -1.9809,-1.00522 -5.1043,-1.85666 -6.941,-1.89208 -1.8366,-0.0356 -4.3776,-0.83476 -5.6466,-1.77627 -1.3149,-0.97557 -4.7233,-1.5661 -7.9249,-1.37306 -6.9508,0.41922 -10.011,-1.52579 -7.2634,-4.61654 1.4553,-1.63706 3.8339,-2.33695 10.7053,-3.14992 4.8588,-0.57488 10.2308,-0.81055 11.9381,-0.52383 5.3708,0.90211 11.1048,-0.9645 19.6669,-6.40217 4.5593,-2.89554 11.3159,-6.81545 15.0149,-8.71091 3.6987,-1.89541 7.1702,-4.11338 7.7143,-4.92879 0.5444,-0.8155 1.8219,-1.64869 2.8393,-1.85165 1.0174,-0.20298 3.867,-3.16819 6.3326,-6.58936 2.4654,-3.42116 6.3873,-7.57498 8.7152,-9.23072 2.328,-1.65572 4.4617,-3.62497 4.7415,-4.37602 0.2798,-0.75111 1.8415,-1.63149 3.4706,-1.95648 4.932,-0.98391 29.6324,-40.1627 28.596,-45.35791 -0.2694,-1.35049 -2.0253,-3.29144 -3.9019,-4.31326 -1.8765,-1.02183 -4.4627,-2.49564 -5.747,-3.27517 -1.2844,-0.77951 -4.3449,-1.39425 -6.801,-1.3661 -2.4561,0.0281 -5.8395,-0.64594 -7.5186,-1.49801 -1.679,-0.85207 -4.7397,-1.57016 -6.8016,-1.59574 -2.0618,-0.0256 -4.6339,-0.53313 -5.7157,-1.12784 -1.0819,-0.59471 -4.1146,-1.31309 -6.7396,-1.59641 -2.625,-0.2833 -5.5848,-0.94135 -6.5772,-1.46233 -1.8649,-0.97893 -8.2027,-2.97317 -17.2098,-5.41524 -2.8506,-0.77285 -6.5685,-2.70939 -8.2621,-4.30339 l -3.0793,-2.89816 3.9892,-5.41091 c 4.3357,-5.88089 16.1965,-13.31799 20.8889,-13.09809 14.1565,0.66347 15.2698,0.86842 29.344,5.40152 9.7105,3.12766 15.1924,3.00204 14.527,-0.33293 -0.3424,-1.71646 -10.3758,-7.46789 -12.343,-7.07544 -1.0027,0.20003 -11.7134,-4.49067 -13.4285,-5.8809 -1.2409,-1.00592 -1.2095,-2.07018 0.1399,-4.72915 0.9576,-1.88711 2.3872,-3.56001 3.1767,-3.7175 1.5367,-0.30658 10.7622,2.27314 16.4882,4.61052 8.3837,3.42229 19.3192,6.70807 34.453,10.35205 3.3726,0.81205 9.1786,2.22597 12.9021,3.142 3.7236,0.91603 7.3963,1.54059 8.1617,1.38791 0.7653,-0.15267 3.4784,0.3568 6.0293,1.13215 2.5506,0.77539 5.4106,1.2556 6.3553,1.06713 0.9445,-0.18844 3.7215,0.26658 6.1709,1.01115 2.4495,0.74461 6.7017,1.50264 9.4491,1.68459 10.8768,0.72022 31.7779,12.50987 32.9952,18.61135 0.9599,4.81184 -2.4869,6.6985 -15.3987,8.42897 l -11.5187,1.54368 -6.6709,-3.92289 c -11.8376,-6.9613 -13.9424,-7.64162 -22.2659,-7.19721 -11.3311,0.60496 -10.8585,0.31681 -9.7371,5.93808 1.53,7.66913 3.7425,9.94344 10.084,10.36559 3.0156,0.20074 6.4361,0.89871 7.6013,1.55102 1.1651,0.65234 5.1897,1.07532 8.9437,0.93999 3.7539,-0.13534 8.3169,0.0482 10.1401,0.4079 1.8779,0.37046 5.0868,-0.0344 7.4023,-0.93409 2.2481,-0.87341 8.2921,-3.00709 13.4312,-4.74155 12.8948,-4.35202 14.7199,-3.78971 23.1098,7.12034 5.2865,6.87448 7.4689,8.79105 11.7321,10.30296 l 5.2374,1.8574 5.9022,-3.83951 c 3.2462,-2.11171 6.8755,-5.11044 8.0653,-6.6638 1.9296,-2.51938 3.439,-3.04666 13.9807,-4.88395 8.3405,-1.45366 12.9809,-1.72236 15.7711,-0.91317 3.8756,1.12398 29.5496,-1.60924 32.5132,-3.46132 2.0523,-1.28251 0.4722,-6.18579 -3.4184,-10.60885 -1.9642,-2.23302 -4.274,-5.83933 -5.1329,-8.014 -2.0114,-5.09256 -10.338,-12.09056 -20.5327,-17.25653 -4.5831,-2.32234 -9.0423,-5.54548 -10.3417,-7.4749 -1.2564,-1.86566 -3.7061,-4.31459 -5.4436,-5.4421 -3.1413,-2.03844 -3.7287,-3.28499 -11.2598,-23.90086 -3.0654,-8.39172 -6.8216,-12.47569 -14.5885,-15.8615 -19.9318,-8.68894 -19.2299,-8.50371 -27.8777,-7.35622 -8.8804,1.17838 -13.4842,-0.0166 -23.6261,-6.13284 -7.0704,-4.26385 -14.2219,-6.52394 -28.036,-8.86002 -6.3131,-1.06766 -12.1129,-2.19877 -12.8882,-2.51364 -0.7755,-0.31484 -3.0681,-1.27326 -5.0949,-2.12979 -4.2187,-1.78287 -46.1432,-30.093206 -46.3963,-31.329957 -0.09,-0.448936 -1.534,-1.366502 -3.2051,-2.040043 -3.5781,-1.44211 -6.9664,-9.323587 -5.7427,-13.358057 0.419,-1.381398 3.2774,-4.379878 6.352,-6.663257 4.5074,-3.347498 6.539,-4.187164 10.4878,-4.334851 5.6389,-0.210885 8.173,0.650025 19.3216,6.564675 12.1037,6.421404 15.6257,8.047769 16.8841,7.796714 0.6269,-0.12506 2.8063,0.681701 4.8431,1.792817 2.0366,1.111117 5.0443,2.159483 6.6836,2.329711 1.6392,0.170208 4.3218,0.984065 5.9611,1.808528 1.6395,0.824416 4.472,1.527768 6.2945,1.562966 1.8227,0.03522 4.7227,1.069029 6.4445,2.29752 1.7219,1.228471 3.6124,2.137517 4.201,2.020069 0.5887,-0.117435 5.3657,2.56047 10.6154,5.95091 16.6215,10.734509 16.0319,10.503 24.5034,9.620512 5.0392,-0.524938 8.9313,-0.230533 11.2263,0.849155 1.9323,0.908952 4.1379,1.528009 4.9016,1.375671 0.7638,-0.152379 3.421,0.552067 5.9051,1.565407 12.2009,4.97703 17.1037,6.68681 18.4212,6.42396 0.7931,-0.15821 3.5552,0.60416 6.1382,1.69419 2.583,1.08999 5.9358,1.73456 7.4503,1.43242 1.5147,-0.30218 4.2402,0.20482 6.0567,1.12669 1.8166,0.92183 4.0534,1.52633 4.9706,1.34337 2.1824,-0.43539 11.6272,3.07931 18.0565,6.71935 3.6349,2.05793 5.5088,4.02517 6.5418,6.86738 0.7961,2.19079 2.6042,6.11668 4.0179,8.72417 1.4137,2.60751 3.2806,6.61683 4.1488,8.90955 1.2585,3.32333 3.5744,5.46543 11.4212,10.5639 5.4135,3.51739 12.3215,7.36526 15.3511,8.55077 3.0298,1.18552 8.1296,3.44245 11.3328,5.01544 3.2034,1.57298 7.7995,3.54368 10.2136,4.37933 2.4141,0.83569 6.959,2.54952 10.0996,3.80856 3.1408,1.25899 10.1719,3.58508 15.6249,5.16905 5.4529,1.58397 11.3077,3.58374 13.0107,4.44396 1.703,0.8602 3.9128,1.40309 4.9106,1.20643 0.9978,-0.19742 5.1476,0.54964 9.2215,1.65846 4.0739,1.1088 7.9608,1.9075 8.6375,1.77493 0.6765,-0.13334 2.2912,0.54601 3.5877,1.508 1.2965,0.96202 4.2436,1.72743 6.549,1.70102 2.3054,-0.0264 6.9213,0.7513 10.2576,1.72832 7.454,2.1828 14.5726,0.36115 23.0821,-5.90673 3.0793,-2.26805 6.5019,-4.30905 7.606,-4.53561 1.1045,-0.22521 3.6938,-1.72999 5.7547,-3.34099 4.4896,-3.50943 10.8108,-5.86288 22.2491,-8.28357 9.5302,-2.01693 18.0751,-0.69124 22.1304,3.43337 2.3091,2.34821 6.2884,3.03799 22.8178,3.95502 20.6155,1.14373 21.5751,1.09327 26.6306,-1.40045 2.6185,-1.29168 6.2182,-2.6392 7.9993,-2.99453 5.8452,-1.16608 17.167,3.15106 27.9129,10.64352 9.6673,6.74046 10.4767,7.62756 16.2379,17.79665 4.2426,7.48868 6.9331,11.05315 8.9599,11.87001 3.2393,1.30556 5.1263,3.8991 9.435,12.96722 2.4968,5.25518 4.1546,6.98577 10.7979,11.27199 7.0976,4.57943 9.8589,5.86251 19.3282,8.98109 7.9159,2.60683 22.8386,-1.54721 29.569,-8.23122 3.5642,-3.53947 5.2377,-4.44214 8.3009,-4.47725 4.4583,-0.0511 11.6911,4.56226 13.627,8.69195 0.7368,1.57157 2.4789,3.53827 3.8714,4.37048 1.3925,0.83211 2.6638,2.17476 2.8252,2.98368 0.5607,2.81051 5.3982,3.18225 12.5846,0.96705 6.4352,-1.98363 7.049,-1.9731 8.7726,0.15114 2.3899,2.94509 3.9999,3.56705 7.4884,2.89314 1.7837,-0.34389 5.2797,0.93738 9.4285,3.45719 l 6.5939,4.0048 14.3872,-1.99704 c 13.3345,-1.85092 14.7333,-1.82794 19.1132,0.31321 2.5991,1.27062 4.6531,2.93348 4.5643,3.69531 -0.089,0.76176 -1.8729,2.6663 -3.9644,4.23217 -5.0967,3.81592 -4.0378,6.74471 2.1783,6.02491 3.9841,-0.46124 4.7868,-1.06739 7.1695,-5.41311 1.7535,-3.19887 4.3012,-5.75171 7.3557,-7.37088 10.843,-5.74795 19.2079,-4.03969 29.3616,5.99641 3.78,3.7362 8.9395,7.95696 11.4654,9.37937 2.526,1.42242 8.4459,4.70711 13.1552,7.29924 8.9842,4.94506 11.5845,7.95953 13.0039,15.07397 0.6335,3.17551 0.1888,5.44057 -1.6935,8.62797 l -2.5528,4.32198 -19.4432,3.92794 c -10.6935,2.16067 -20.0754,4.16319 -20.8481,4.45098 -0.7728,0.28773 -3.345,3.19534 -5.7159,6.46136 -4.7354,6.52245 -12.4155,13.7435 -15.211,14.30113 -0.9814,0.19585 -3.0303,-0.70881 -4.5527,-2.01045 -1.5223,-1.30159 -3.6134,-2.19788 -4.6466,-1.99174 -2.3351,0.4658 -7.7274,8.92026 -9.3853,14.71466 -0.682,2.3835 -2.5371,6.1685 -4.1225,8.41109 l -2.8828,4.07767 -5.4645,-4.16354 c -5.3065,-4.04332 -5.4844,-4.35362 -6.1596,-10.738 l -0.695,-6.57447 -3.3511,0.66857 c -1.8432,0.36782 -3.2642,1.10534 -3.1577,1.63906 0.3354,1.68121 -8.7234,14.66926 -12.0843,17.32614 -1.7685,1.39808 -4.9341,4.88338 -7.0346,7.74495 -5.9447,8.09882 -10.4784,9.33386 -26.3982,7.19104 -6.8204,-0.91799 -9.0617,-1.80028 -11.9319,-4.69668 -3.4475,-3.47904 -8.0342,-4.17106 -9.0781,-1.36967 -0.2414,0.64806 -2.2291,1.24285 -4.417,1.3216 -3.6363,0.13117 -3.9898,0.43392 -4.1156,3.52489 -0.076,1.85965 -0.7523,4.81735 -1.5038,6.57253 -0.7512,1.75531 -1.6005,5.19156 -1.8871,7.63638 -0.7203,6.14301 -8.1753,14.79899 -15.5062,18.00354 -3.0792,1.34601 -10.3169,3.81426 -16.0838,5.48471 -5.7668,1.67065 -11.183,3.48979 -12.036,4.0425 -0.8528,0.55276 -4.4242,0.61136 -7.9362,0.13031 z"
         id="path3338"
         inkscape:connector-curvature="0" />
      <path
         inkscape:export-ydpi="7.1930156"
         inkscape:export-xdpi="7.1930156"
         inkscape:export-filename="/home/kr0l/pixelflutffbsee.png"
         d="m 1916.1111,98.487808 a 203.11003,205.10085 0 0 1 -101.555,177.622542 203.11003,205.10085 0 0 1 -203.11,0 203.11003,205.10085 0 0 1 -101.555,-177.622551"
         sodipodi:open="true"
         sodipodi:end="3.1415927"
         sodipodi:start="0"
         sodipodi:ry="205.10085"
         sodipodi:rx="203.11003"
         sodipodi:cy="98.487808"
         sodipodi:cx="1713.0011"
         sodipodi:type="arc"
         style="fill:none;stroke:#ffffff;stroke-width:45.75971985;stroke-miterlimit:4;stroke-dasharray:none;stroke-opacity:1"
         stroke-miterlimit="4"
         id="ellipse4260" />
      <ellipse
         inkscape:export-ydpi="7.1930156"
         inkscape:export-xdpi="7.1930156"
         inkscape:export-filename="/home/kr0l/pixelflutffbsee.png"
         ry="205.10085"
         rx="203.11003"
         id="ellipse5485"
         stroke-miterlimit="4"
         cy="98.487808"
         cx="1713.0011"
         style="fill:none;stroke:#de2c68;stroke-width:40.90454102;stroke-miterlimit:4;stroke-dasharray:none;stroke-opacity:1" />
      <g
         inkscape:export-ydpi="7.1930156"
         inkscape:export-xdpi="7.1930156"
         inkscape:export-filename="/home/kr0l/pixelflutffbsee.png"
         transform="matrix(0.45532055,0,0,0.45532059,1355.0495,15.671502)"
         id="g4252">
        <polygon
           style="fill:#ffcc33;fill-opacity:1"
           points="75,53 88,53 88,47 75,47 81,41 73,41 64,50 73,59 81,59 "
           transform="matrix(-7.2633158,0,0,7.5170891,706.74163,-127.7118)"
           id="polygon5366"
           inkscape:transform-center-x="-735.76717"
           inkscape:transform-center-y="6.0807202" />
        <polygon
           inkscape:transform-center-y="12.473066"
           inkscape:transform-center-x="1509.2428"
           id="polygon5867"
           transform="matrix(14.898881,0,0,15.419433,-240.62554,-520.72469)"
           points="73,41 64,50 73,59 81,59 75,53 88,53 88,47 75,47 81,41 "
           style="fill:#ffcc33;fill-opacity:1" />
      </g>
    </g>
  </g>
</svg>
