<?xml version="1.0" encoding="UTF-8" standalone="no"?>
<!-- Created with Inkscape (http://www.inkscape.org/) -->

<svg
   xmlns:dc="http://purl.org/dc/elements/1.1/"
   xmlns:cc="http://creativecommons.org/ns#"
   xmlns:rdf="http://www.w3.org/1999/02/22-rdf-syntax-ns#"
   xmlns:svg="http://www.w3.org/2000/svg"
   xmlns="http://www.w3.org/2000/svg"
   xmlns:sodipodi="http://sodipodi.sourceforge.net/DTD/sodipodi-0.dtd"
   xmlns:inkscape="http://www.inkscape.org/namespaces/inkscape"
   width="135.7756mm"
   height="70.839699mm"
   viewBox="0 0 135.7756 70.839699"
   version="1.1"
   id="svg8"
   inkscape:version="0.92.2 2405546, 2018-03-11"
   sodipodi:docname="ffcamp_3d-icon.svg">
  <defs
     id="defs2" />
  <sodipodi:namedview
     id="base"
     pagecolor="#ffffff"
     bordercolor="#666666"
     borderopacity="1.0"
     inkscape:pageopacity="0.0"
     inkscape:pageshadow="2"
     inkscape:zoom="0.35"
     inkscape:cx="-10.178631"
     inkscape:cy="138.23272"
     inkscape:document-units="mm"
     inkscape:current-layer="layer1"
     showgrid="false"
     fit-margin-top="0"
     fit-margin-left="0"
     fit-margin-right="0"
     fit-margin-bottom="0"
     inkscape:window-width="2560"
     inkscape:window-height="1353"
     inkscape:window-x="0"
     inkscape:window-y="0"
     inkscape:window-maximized="1" />
  <metadata
     id="metadata5">
    <rdf:RDF>
      <cc:Work
         rdf:about="">
        <dc:format>image/svg+xml</dc:format>
        <dc:type
           rdf:resource="http://purl.org/dc/dcmitype/StillImage" />
        <dc:title></dc:title>
      </cc:Work>
    </rdf:RDF>
  </metadata>
  <g
     inkscape:label="Ebene 1"
     inkscape:groupmode="layer"
     id="layer1"
     transform="translate(-5.8670742,-129.82938)">
    <g
       style="opacity:1"
       id="g4614"
       transform="matrix(1.0715993,0,0,1.0715993,577.81676,-1016.0151)">
      <g
         id="g4602">
        <path
           style="fill:#ffcc33;fill-opacity:1;stroke:#ffffff;stroke-width:0.07024057px;stroke-linecap:butt;stroke-linejoin:miter;stroke-opacity:1"
           d="m -467.11071,1081.0719 c 20.16182,28.0468 -2.47362,28.3794 -4.11692,38.9263 v 0 c -24.10056,-18.5409 6.87139,-26.7737 4.11692,-38.9263 z"
           id="path4610"
           inkscape:connector-curvature="0"
           sodipodi:nodetypes="cccc" />
        <path
           style="fill:#ffcc33;fill-opacity:1;stroke:#ffffff;stroke-width:0.07024057px;stroke-linecap:butt;stroke-linejoin:miter;stroke-opacity:1"
           d="m -456.88174,1094.5626 c 7.1436,7.4666 6.46036,15.8287 4.11612,19.4827 -3.27706,5.1081 -10.70846,4.2458 -14.22979,5.546 -1.28551,-5.4054 6.12744,-7.6805 9.1689,-12.7622 2.49357,-4.1662 1.1616,-10.0362 0.94477,-12.2665 z"
           id="path4612"
           inkscape:connector-curvature="0"
           sodipodi:nodetypes="cscsc" />
        <path
           style="fill:#ffcc33;fill-opacity:1;stroke:#ffffff;stroke-width:0.07024057px;stroke-linecap:butt;stroke-linejoin:miter;stroke-opacity:1"
           d="m -481.64611,1100.2602 c -14.56574,10.4041 -0.55409,20.0961 6.5491,19.1435 -9.32873,-5.337 -8.55115,-12.7338 -6.5491,-19.1435 z"
           id="path4614"
           inkscape:connector-curvature="0"
           sodipodi:nodetypes="ccc" />
      </g>
      <g
         transform="matrix(0.26547619,0,0,0.26547619,-263.37048,805.66435)"
         id="g4526"
         style="stroke:#ffffff">
        <path
           style="fill:#000000;fill-opacity:0.984975;stroke:#ffffff;stroke-width:0.26458332px;stroke-linecap:butt;stroke-linejoin:miter;stroke-opacity:1"
           d="m -837.57604,1188.4203 c 52.07371,7.3068 51.85581,6.4682 62.82806,10.1883 11.9893,4.065 43.64049,10.5896 57.38618,11.5023 -13.9774,5.6894 -8.73152,13.4974 -8.45131,18.6511 -17.92121,-6.0157 -28.9629,-6.5315 -46.82517,-8.9534 -5.14562,-0.7204 -15.95143,-2.1612 -23.05239,-5.1456 -7.10096,-2.9845 -20.99414,-6.7922 -31.28539,-7.9243 -10.29124,-1.132 -10.00423,-1.4978 -16.77472,-1.7495 -2.90878,-8.7055 1.18617,-13.7265 6.17474,-16.5689 z"
           id="path4505"
           inkscape:connector-curvature="0"
           sodipodi:nodetypes="csccccccc" />
        <ellipse
           style="opacity:1;fill:#000000;fill-opacity:0.984975;stroke:#ffffff;stroke-width:0.03670848;stroke-miterlimit:3.5999999;stroke-dasharray:none"
           id="path4507"
           cx="-196.24063"
           cy="1395.2845"
           rx="8.1119089"
           ry="9.4990005"
           transform="matrix(0.93544233,0.35347935,-0.37979925,0.92506893,0,0)" />
        <path
           style="opacity:1;fill:#000000;fill-opacity:0.984975;stroke:#ffffff;stroke-width:0.26458332px;stroke-linecap:butt;stroke-linejoin:miter;stroke-opacity:1"
           d="m -716.28332,1184.9644 c -43.22544,6.1854 -50.6046,9.4255 -54.18875,10.7265 12.48007,3.6022 23.6617,6.3745 34.8319,8.1209 11.86153,-2.7652 23.18718,-4.966 27.83715,-6.2803 1.61406,-4.5045 0.17934,-10.384 -8.4803,-12.5671 z"
           id="path4513"
           inkscape:connector-curvature="0"
           sodipodi:nodetypes="ccccc" />
        <path
           style="opacity:1;fill:#000000;fill-opacity:0.984975;stroke:#ffffff;stroke-width:0.26458332px;stroke-linecap:butt;stroke-linejoin:miter;stroke-opacity:1"
           d="m -837.16439,1214.3028 c 9.31358,-2.5214 8.07863,-2.5214 12.40095,-3.6019 10.86744,0.8716 19.61843,5.516 30.30772,8.5931 -8.28445,3.602 -29.94752,12.1952 -35.5048,14.2534 4.20587,-11.7558 -1.47384,-15.9838 -7.20387,-19.2446 z"
           id="path4515"
           inkscape:connector-curvature="0"
           sodipodi:nodetypes="ccccc" />
        <ellipse
           style="opacity:1;fill:#000000;fill-opacity:0.984975;stroke:#ffffff;stroke-width:0.02759779;stroke-miterlimit:3.5999999;stroke-dasharray:none"
           id="path4517"
           cx="-1406.7489"
           cy="524.77802"
           rx="9.1488924"
           ry="10.252341"
           transform="matrix(0.82039547,-0.57179652,0.59377557,0.8046307,0,0)" />
      </g>
    </g>
    <g
       id="g924"
       transform="translate(-15.768902,3.2072343)">
      <g
         transform="matrix(0.31031671,0,0,0.31031671,57.226156,109.96418)"
         id="g910">
        <path
           inkscape:connector-curvature="0"
           style="stroke-width:0.26458332"
           d="m 208.30564,223.09089 c 1.71053,1.71053 4.51512,1.65233 6.1296,-0.14922 26.98353,-30.10773 26.95284,-75.81001 0,-105.88361 -1.61448,-1.80154 -4.41907,-1.85975 -6.1296,-0.14922 l -8.99742,8.99742 c -1.56819,1.56819 -1.67217,4.09152 -0.21061,5.75971 19.21113,21.92867 19.16827,54.78833 0,76.66779 -1.46156,1.6682 -1.35784,4.19153 0.21061,5.75971 z"
           id="path904" />
        <path
           inkscape:connector-curvature="0"
           style="stroke-width:0.26458332"
           d="m 238.39353,252.75333 c 1.68936,1.68937 4.44923,1.65471 6.07827,-0.0926 43.35463,-46.50529 43.33875,-118.83337 0,-165.321459 -1.62904,-1.74731 -4.38917,-1.78197 -6.07827,-0.0926 l -8.98684,8.98683 c -1.61263,1.61264 -1.64862,4.204499 -0.10133,5.880099 35.36632,38.30188 35.37532,97.46086 0,135.77253 -1.54729,1.67561 -1.5113,4.26746 0.10133,5.8801 z"
           id="path889" />
      </g>
      <path
         sodipodi:nodetypes="ccccccccc"
         inkscape:connector-curvature="0"
         style="stroke-width:0.08210462"
         d="m 141.18308,197.07615 c 0.52423,0.52424 1.38067,0.51349 1.88618,-0.0287 21.73903,-20.97947 16.12144,-52.11034 0.66818,-68.9418 -0.50551,-0.54222 -1.36203,-0.55298 -1.88618,-0.0287 l -2.78877,2.78876 c -0.50043,0.50043 -0.5116,1.30473 -0.0315,1.8247 14.71653,14.55841 17.25839,42.00359 -0.66818,59.77227 -0.48015,0.51997 -0.46898,1.32427 0.0315,1.82469 z"
         id="path914" />
    </g>
    <g
       transform="matrix(-0.98780248,0,0,1,161.35862,2.1381562)"
       id="g944">
      <g
         id="g940"
         transform="matrix(0.31031671,0,0,0.31031671,57.226156,109.96418)">
        <path
           id="path936"
           d="m 208.30564,223.09089 c 1.71053,1.71053 4.51512,1.65233 6.1296,-0.14922 26.98353,-30.10773 26.95284,-75.81001 0,-105.88361 -1.61448,-1.80154 -4.41907,-1.85975 -6.1296,-0.14922 l -8.99742,8.99742 c -1.56819,1.56819 -1.67217,4.09152 -0.21061,5.75971 19.21113,21.92867 19.16827,54.78833 0,76.66779 -1.46156,1.6682 -1.35784,4.19153 0.21061,5.75971 z"
           style="stroke-width:0.26458332"
           inkscape:connector-curvature="0" />
        <path
           id="path938"
           d="m 238.39353,252.75333 c 1.68936,1.68937 4.44923,1.65471 6.07827,-0.0926 43.35463,-46.50529 43.33875,-118.83337 0,-165.321459 -1.62904,-1.74731 -4.38917,-1.78197 -6.07827,-0.0926 l -8.98684,8.98683 c -1.61263,1.61264 -1.64862,4.204499 -0.10133,5.880099 35.36632,38.30188 35.37532,97.46086 0,135.77253 -1.54729,1.67561 -1.5113,4.26746 0.10133,5.8801 z"
           style="stroke-width:0.26458332"
           inkscape:connector-curvature="0" />
      </g>
      <path
         id="path942"
         d="m 141.18308,197.07615 c 0.52423,0.52424 1.38067,0.51349 1.88618,-0.0287 21.73903,-20.97947 16.12144,-52.11034 0.66818,-68.9418 -0.50551,-0.54222 -1.36203,-0.55298 -1.88618,-0.0287 l -2.78877,2.78876 c -0.50043,0.50043 -0.5116,1.30473 -0.0315,1.8247 14.71653,14.55841 17.25839,42.00359 -0.66818,59.77227 -0.48015,0.51997 -0.46898,1.32427 0.0315,1.82469 z"
         style="stroke-width:0.08210462"
         inkscape:connector-curvature="0"
         sodipodi:nodetypes="ccccccccc" />
    </g>
  </g>
</svg>
