<?xml version="1.0" encoding="UTF-8" standalone="no"?>
<!-- Created with Inkscape (http://www.inkscape.org/) -->

<svg
   xmlns:dc="http://purl.org/dc/elements/1.1/"
   xmlns:cc="http://creativecommons.org/ns#"
   xmlns:rdf="http://www.w3.org/1999/02/22-rdf-syntax-ns#"
   xmlns:svg="http://www.w3.org/2000/svg"
   xmlns="http://www.w3.org/2000/svg"
   xmlns:sodipodi="http://sodipodi.sourceforge.net/DTD/sodipodi-0.dtd"
   xmlns:inkscape="http://www.inkscape.org/namespaces/inkscape"
   width="75.783241mm"
   height="39.569809mm"
   viewBox="0 0 75.783239 39.569809"
   version="1.1"
   id="svg8"
   inkscape:version="0.92.2 2405546, 2018-03-11"
   sodipodi:docname="ffcamp_3d-icon.svg">
  <defs
     id="defs2" />
  <sodipodi:namedview
     id="base"
     pagecolor="#ffffff"
     bordercolor="#666666"
     borderopacity="1.0"
     inkscape:pageopacity="0.0"
     inkscape:pageshadow="2"
     inkscape:zoom="0.98994949"
     inkscape:cx="-141.46594"
     inkscape:cy="4.376816"
     inkscape:document-units="mm"
     inkscape:current-layer="g944"
     showgrid="false"
     fit-margin-top="0"
     fit-margin-left="0"
     fit-margin-right="0"
     fit-margin-bottom="0"
     inkscape:window-width="1920"
     inkscape:window-height="1003"
     inkscape:window-x="0"
     inkscape:window-y="35"
     inkscape:window-maximized="1" />
  <metadata
     id="metadata5">
    <rdf:RDF>
      <cc:Work
         rdf:about="">
        <dc:format>image/svg+xml</dc:format>
        <dc:type
           rdf:resource="http://purl.org/dc/dcmitype/StillImage" />
        <dc:title></dc:title>
      </cc:Work>
    </rdf:RDF>
  </metadata>
  <g
     inkscape:label="Ebene 1"
     inkscape:groupmode="layer"
     id="layer1"
     transform="translate(-65.808128,-161.09796)">
    <g
       style="opacity:1"
       id="g4614"
       transform="matrix(1.0715993,0,0,1.0715993,577.81676,-1016.0151)">
      <g
         id="g4602" />
      <g
         transform="matrix(0.26547619,0,0,0.26547619,-263.37048,805.66435)"
         id="g4526"
         style="stroke:#ffffff" />
    </g>
    <g
       id="g924"
       transform="translate(-15.768902,9.028068)">
      <g
         transform="matrix(0.31031671,0,0,0.31031671,57.226156,109.96418)"
         id="g910" />
    </g>
    <g
       transform="matrix(-0.98780248,0,0,1,161.35862,7.9589899)"
       id="g944">
      <g
         id="g940"
         transform="matrix(0.31031671,0,0,0.31031671,57.226156,109.96418)" />
      <path
         id="path942"
         style="stroke-width:0.08210462"
         d="m 87.694304,191.89722 0.05699,0.0513 0.06077,0.0444 0.064,0.0374 0.06668,0.0304 0.06878,0.0234 0.07034,0.0164 0.07135,0.009 0.07178,0.002 0.07165,-0.005 0.07098,-0.0115 0.06973,-0.0185 0.06793,-0.0255 0.06557,-0.0324 0.06266,-0.0394 0.05919,-0.0463 0.05513,-0.0533 2.10009,-2.26034 1.756291,-2.37323 1.426818,-2.4661 1.111689,-2.539 0.810893,-2.59186 0.524436,-2.62473 0.252312,-2.63758 -0.0056,-2.63044 -0.248927,-2.60331 -0.478042,-2.55613 -0.692822,-2.48897 -0.893266,-2.40179 -1.079369,-2.29463 -1.251148,-2.16744 -1.408575,-2.02024 -1.551681,-1.85306 -0.05513,-0.0533 -0.05919,-0.0463 -0.06266,-0.0394 -0.06557,-0.0324 -0.06794,-0.0255 -0.06973,-0.0184 -0.07098,-0.0115 -0.07166,-0.005 -0.07178,0.002 -0.07134,0.009 -0.07034,0.0164 -0.06879,0.0234 -0.06668,0.0304 -0.064,0.0375 -0.06077,0.0444 -0.05698,0.0513 -0.09736,0.0973 -0.09736,0.0973 -0.09736,0.0973 -0.09736,0.0973 -0.09736,0.0973 -0.09736,0.0973 -0.09736,0.0973 -0.09736,0.0973 -0.09736,0.0973 -0.09736,0.0973 -0.09736,0.0973 -0.09736,0.0973 -0.09736,0.0973 -0.09736,0.0973 -0.09736,0.0973 -0.09736,0.0973 -0.04921,0.0543 -0.04278,0.0578 -0.03642,0.0608 -0.03,0.0634 -0.02358,0.0655 -0.01714,0.0669 -0.0107,0.0681 -0.0044,0.0687 0.0023,0.0689 0.0085,0.0684 0.01491,0.0676 0.02133,0.0664 0.02777,0.0645 0.03424,0.0623 0.04066,0.0595 0.04708,0.0562 1.460466,1.606 1.294297,1.75625 1.121341,1.88803 0.9416,2.00137 0.755064,2.09621 0.561753,2.17263 0.361653,2.23054 0.154763,2.27003 -0.05891,2.29105 -0.279369,2.29359 -0.506617,2.2777 -0.740643,2.2433 -0.981464,2.19048 -1.229072,2.11919 -1.483456,2.02943 -1.744634,1.92121 -0.04708,0.0562 -0.04066,0.0594 -0.03424,0.0623 -0.02777,0.0645 -0.02133,0.0663 -0.01491,0.0676 -0.0085,0.0684 -0.0023,0.0689 0.0044,0.0686 0.0107,0.0681 0.01714,0.0669 0.02358,0.0654 0.03,0.0634 0.03642,0.0608 0.04279,0.0578 0.04921,0.0543 0.09736,0.0973 0.09736,0.0973 0.09736,0.0973 0.09736,0.0973 0.09736,0.0973 0.09736,0.0973 0.09736,0.0973 0.09736,0.0973 0.09736,0.0973 0.09736,0.0973 0.09736,0.0973 0.09736,0.0973 0.09736,0.0973 0.09736,0.0973 0.09736,0.0973 z m -5.574214,-4.84749 0.05699,0.0513 0.06078,0.0444 0.064,0.0375 0.06668,0.0304 0.06879,0.0234 0.07034,0.0164 0.07134,0.009 0.07178,0.002 0.07166,-0.005 0.07097,-0.0115 0.06974,-0.0184 0.06793,-0.0255 0.06557,-0.0324 0.06266,-0.0394 0.05919,-0.0463 0.05513,-0.0533 1.320935,-1.56169 1.144751,-1.65348 0.968583,-1.73215 0.792433,-1.7977 0.616282,-1.85014 0.440148,-1.88945 0.26403,-1.91566 0.08792,-1.92874 -0.08817,-1.92871 -0.264259,-1.91554 -0.440332,-1.88928 -0.616393,-1.8499 -0.792439,-1.79739 -0.968477,-1.73176 -1.144499,-1.65302 -1.320511,-1.56117 -0.05513,-0.0533 -0.05919,-0.0463 -0.06266,-0.0394 -0.06557,-0.0324 -0.06794,-0.0255 -0.06974,-0.0184 -0.07098,-0.0115 -0.07165,-0.005 -0.07178,0.002 -0.07134,0.009 -0.07034,0.0164 -0.06879,0.0235 -0.06668,0.0304 -0.064,0.0375 -0.06077,0.0444 -0.05698,0.0514 -0.09736,0.0973 -0.09736,0.0973 -0.09736,0.0973 -0.09736,0.0973 -0.09736,0.0973 -0.09736,0.0973 -0.09736,0.0973 -0.09736,0.0973 -0.09736,0.0973 -0.09736,0.0973 -0.09736,0.0973 -0.09736,0.0973 -0.09736,0.0973 -0.09736,0.0973 -0.09736,0.0973 -0.09736,0.0973 -0.04921,0.0543 -0.04279,0.0578 -0.03636,0.0608 -0.03,0.0634 -0.02358,0.0655 -0.01714,0.0669 -0.0107,0.0681 -0.0044,0.0686 0.0023,0.0689 0.0085,0.0684 0.01491,0.0676 0.02133,0.0662 0.02777,0.0645 0.03424,0.0623 0.04066,0.0594 0.04709,0.0562 1.077588,1.28543 0.933941,1.35954 0.790288,1.42312 0.646628,1.47608 0.50296,1.51845 0.359289,1.55024 0.215602,1.57145 0.07192,1.58203 -0.07178,1.58208 -0.215473,1.57149 -0.359185,1.55034 -0.502902,1.5186 -0.646618,1.47625 -0.790349,1.42333 -0.934087,1.35982 -1.077828,1.28571 -0.04708,0.0562 -0.04066,0.0594 -0.03424,0.0623 -0.02777,0.0645 -0.02133,0.0663 -0.01491,0.0676 -0.0085,0.0684 -0.0023,0.0689 0.0044,0.0687 0.0107,0.0681 0.01714,0.0671 0.02358,0.0654 0.03,0.0634 0.03636,0.0608 0.04279,0.0578 0.04921,0.0543 0.09736,0.0973 0.09736,0.0973 0.09736,0.0973 0.09736,0.0973 0.09736,0.0973 0.09736,0.0973 0.09736,0.0973 0.09736,0.0973 0.09736,0.0973 0.09736,0.0973 0.09736,0.0973 0.09736,0.0973 0.09736,0.0973 0.09736,0.0973 0.09736,0.0973 z m -5.215242,-5.1415 0.05772,0.052 0.06158,0.0447 0.06487,0.0377 0.06756,0.0305 0.06969,0.0233 0.07124,0.0162 0.07221,0.009 0.0726,10e-4 0.07239,-0.005 0.07163,-0.0124 0.07026,-0.0195 0.06833,-0.0266 0.06581,-0.0337 0.06273,-0.0409 0.05905,-0.0479 0.05479,-0.055 0.822099,-1.00886 0.712378,-1.06429 0.602675,-1.11177 0.493005,-1.15135 0.383347,-1.18299 0.273722,-1.20672 0.164113,-1.22249 0.05452,-1.23035 -0.05502,-1.23029 -0.16456,-1.22228 -0.274069,-1.20635 -0.383559,-1.18252 -0.493028,-1.15072 -0.602462,-1.11102 -0.711888,-1.06338 -0.821282,-1.00782 -0.05479,-0.055 -0.05905,-0.0479 -0.06273,-0.0409 -0.06581,-0.0337 -0.06833,-0.0266 -0.07026,-0.0195 -0.07163,-0.0124 -0.07239,-0.005 -0.0726,0.001 -0.07221,0.009 -0.07124,0.0162 -0.0697,0.0233 -0.06756,0.0305 -0.06487,0.0377 -0.06158,0.0448 -0.05772,0.052 -0.09747,0.0975 -0.09747,0.0975 -0.09747,0.0974 -0.09748,0.0974 -0.09747,0.0975 -0.09747,0.0975 -0.09747,0.0974 -0.09747,0.0975 -0.09747,0.0975 -0.09747,0.0974 -0.09747,0.0975 -0.09747,0.0974 -0.09747,0.0975 -0.09747,0.0974 -0.09747,0.0975 -0.09747,0.0975 -0.04798,0.0528 -0.04201,0.0562 -0.03603,0.0592 -0.03,0.0617 -0.02396,0.0638 -0.01787,0.0653 -0.01173,0.0665 -0.0057,0.0672 5.19e-4,0.0673 0.0067,0.067 0.0129,0.0664 0.01916,0.0652 0.02541,0.0635 0.03167,0.0615 0.03799,0.0589 0.0443,0.0559 0.585258,0.73397 0.507071,0.77281 0.428921,0.80607 0.350793,0.83381 0.27271,0.85596 0.194651,0.87253 0.116624,0.88358 0.03865,0.88904 -0.03932,0.88892 -0.117251,0.88327 -0.195141,0.87206 -0.273001,0.85525 -0.350827,0.8329 -0.428625,0.80499 -0.506389,0.7715 -0.584113,0.73246 -0.0443,0.0559 -0.03798,0.0589 -0.03167,0.0615 -0.02541,0.0635 -0.01916,0.0652 -0.0129,0.0664 -0.0067,0.0671 -5.2e-4,0.0673 0.0057,0.0672 0.01172,0.0665 0.01787,0.0653 0.02396,0.0637 0.03,0.0617 0.03603,0.0592 0.04201,0.0562 0.04798,0.0528 0.09747,0.0974 0.09747,0.0974 0.09747,0.0975 0.09747,0.0975 0.09747,0.0974 0.09747,0.0975 0.09747,0.0974 0.09747,0.0974 0.09747,0.0975 0.09748,0.0975 0.09747,0.0974 0.09747,0.0974 0.09747,0.0975 0.09747,0.0975 0.09747,0.0974 z m -47.745808,10.58615 -0.0577,0.0513 -0.06152,0.0444 -0.0648,0.0375 -0.06751,0.0304 -0.06964,0.0234 -0.07122,0.0164 -0.07223,0.009 -0.07267,0.002 -0.07254,-0.005 -0.07186,-0.0115 -0.07059,-0.0184 -0.06877,-0.0255 -0.06639,-0.0325 -0.06343,-0.0394 -0.05991,-0.0463 -0.05582,-0.0533 -2.126023,-2.26033 -1.777976,-2.37322 -1.444437,-2.46612 -1.125416,-2.53899 -0.820906,-2.59187 -0.530912,-2.62472 -0.255429,-2.63759 0.0057,-2.63044 0.252001,-2.60329 0.483943,-2.55613 0.701378,-2.48897 0.904297,-2.40181 1.092698,-2.29462 1.266597,-2.16743 1.425967,-2.02026 1.570842,-1.85306 0.05582,-0.0533 0.05991,-0.0463 0.06343,-0.0394 0.06639,-0.0324 0.06877,-0.0255 0.07059,-0.0184 0.07186,-0.0115 0.07254,-0.005 0.07266,0.002 0.07222,0.009 0.07122,0.0164 0.06965,0.0234 0.0675,0.0304 0.06479,0.0375 0.06152,0.0444 0.05768,0.0513 0.09856,0.0973 0.09856,0.0973 0.09855,0.0973 0.09856,0.0973 0.09856,0.0973 0.09856,0.0973 0.09856,0.0973 0.09856,0.0973 0.09855,0.0973 0.09856,0.0973 0.09856,0.0973 0.09856,0.0973 0.09856,0.0973 0.09855,0.0973 0.09856,0.0973 0.09856,0.0973 0.04982,0.0543 0.04332,0.0578 0.03687,0.0608 0.03036,0.0634 0.02386,0.0655 0.01736,0.067 0.01082,0.0681 0.0046,0.0686 -0.0023,0.0689 -0.0087,0.0684 -0.01509,0.0676 -0.0216,0.0664 -0.02811,0.0646 -0.03466,0.0623 -0.04116,0.0595 -0.04767,0.0562 -1.4785,1.60601 -1.31028,1.75625 -1.135188,1.88803 -0.953226,2.00137 -0.764387,2.09621 -0.56869,2.17262 -0.366119,2.23056 -0.156673,2.27002 0.05963,2.29105 0.282819,2.2936 0.512873,2.27768 0.749788,2.24332 0.993583,2.19047 1.244249,2.1192 1.501775,2.02942 1.766176,1.92121 0.04767,0.0562 0.04116,0.0594 0.03466,0.0623 0.0281,0.0645 0.0216,0.0663 0.01509,0.0676 0.0087,0.0684 0.0023,0.0689 -0.0046,0.0686 -0.01081,0.0681 -0.01736,0.0671 -0.02386,0.0655 -0.03036,0.0634 -0.03687,0.0608 -0.04332,0.0578 -0.04982,0.0543 -0.09856,0.0973 -0.09856,0.0973 -0.09855,0.0973 -0.09856,0.0973 -0.09856,0.0973 -0.09856,0.0973 -0.09856,0.0973 -0.09856,0.0973 -0.09855,0.0973 -0.09856,0.0973 -0.09856,0.0973 -0.09856,0.0973 -0.09856,0.0973 -0.09855,0.0973 -0.09856,0.0973 z m 5.643043,-4.84749 -0.05768,0.0513 -0.06153,0.0444 -0.0648,0.0375 -0.0675,0.0304 -0.06965,0.0233 -0.07122,0.0164 -0.07222,0.009 -0.07267,0.002 -0.07254,-0.005 -0.07186,-0.0115 -0.07059,-0.0184 -0.06877,-0.0255 -0.06638,-0.0325 -0.06343,-0.0394 -0.05991,-0.0463 -0.05583,-0.0533 -1.337245,-1.56169 -1.158889,-1.65347 -0.980544,-1.73216 -0.802214,-1.7977 -0.623892,-1.85014 -0.445584,-1.88945 -0.26729,-1.91565 -0.08901,-1.92874 0.08926,-1.92871 0.267523,-1.91555 0.445769,-1.88929 0.624002,-1.84988 0.802226,-1.79739 0.980434,-1.73177 1.158632,-1.65303 1.336815,-1.56115 0.05583,-0.0533 0.05991,-0.0463 0.06343,-0.0394 0.06639,-0.0324 0.06877,-0.0255 0.07059,-0.0184 0.07186,-0.0115 0.07254,-0.005 0.07266,0.002 0.07222,0.009 0.07122,0.0164 0.06964,0.0235 0.0675,0.0304 0.06479,0.0375 0.06152,0.0444 0.05768,0.0514 0.09856,0.0973 0.09856,0.0973 0.09856,0.0973 0.09856,0.0973 0.09856,0.0973 0.09856,0.0973 0.09856,0.0973 0.09856,0.0973 0.09856,0.0973 0.09856,0.0973 0.09856,0.0973 0.09856,0.0973 0.09856,0.0973 0.09856,0.0973 0.09856,0.0973 0.09856,0.0973 0.04982,0.0543 0.04333,0.0578 0.03684,0.0608 0.03035,0.0634 0.02386,0.0655 0.01737,0.067 0.01093,0.0681 0.0043,0.0686 -0.0022,0.0689 -0.0087,0.0684 -0.01513,0.0676 -0.02162,0.0663 -0.02813,0.0645 -0.03464,0.0623 -0.04114,0.0594 -0.04765,0.0562 -1.090892,1.28541 -0.945474,1.35956 -0.800046,1.42311 -0.654613,1.47608 -0.509171,1.51845 -0.363725,1.55024 -0.218268,1.57144 -0.0728,1.58205 0.07267,1.58206 0.218138,1.5715 0.363619,1.55034 0.509109,1.51859 0.654605,1.47625 0.800109,1.42334 0.945619,1.35981 1.091136,1.28572 0.04765,0.0562 0.04114,0.0595 0.03464,0.0623 0.02813,0.0645 0.02162,0.0664 0.01513,0.0676 0.0087,0.0684 0.0022,0.0689 -0.0044,0.0686 -0.01093,0.0681 -0.01737,0.0669 -0.02386,0.0655 -0.03035,0.0634 -0.03684,0.0608 -0.04333,0.0578 -0.04982,0.0543 -0.09856,0.0973 -0.09856,0.0973 -0.09856,0.0973 -0.09856,0.0973 -0.09856,0.0973 -0.09856,0.0973 -0.09856,0.0973 -0.09856,0.0973 -0.09856,0.0973 -0.09856,0.0973 -0.09855,0.0973 -0.09856,0.0973 -0.09856,0.0973 -0.09856,0.0973 -0.09856,0.0973 z m 5.279645,-5.14151 -0.01422,0.0137 -0.01448,0.0132 -0.01474,0.0127 -0.015,0.0123 -0.01526,0.0118 -0.01548,0.0115 -0.01571,0.0114 -0.01591,0.0102 -0.01613,0.0102 -0.01633,0.009 -0.01651,0.009 -0.01671,0.009 -0.01686,0.008 -0.01702,0.008 -0.01718,0.007 -0.01731,0.007 -0.01746,0.007 -0.01759,0.006 -0.0177,0.006 -0.01781,0.005 -0.01791,0.005 -0.018,0.005 -0.01808,0.003 -0.01815,0.003 -0.0182,0.002 -0.01826,0.002 -0.01829,0.002 -0.01833,10e-4 -0.01836,0.001 -0.01837,5.6e-4 -0.01839,1.7e-4 -0.01837,-1.7e-4 -0.01836,-5.6e-4 -0.01834,-0.001 -0.01831,-10e-4 -0.01827,-0.002 -0.01823,-0.002 -0.01817,-0.002 -0.0181,-0.003 -0.01802,-0.003 -0.01793,-0.005 -0.01784,-0.005 -0.01774,-0.005 -0.01762,-0.006 -0.0175,-0.006 -0.01737,-0.007 -0.01724,-0.007 -0.01708,-0.007 -0.01692,-0.008 -0.01676,-0.008 -0.01656,-0.009 -0.01639,-0.009 -0.0162,-0.009 -0.01598,-0.0102 -0.01578,-0.0102 -0.01554,-0.0114 -0.01532,-0.0114 -0.01507,-0.0117 -0.01483,-0.0122 -0.01456,-0.0126 -0.0143,-0.0131 -0.01402,-0.0135 -0.01373,-0.014 -0.01342,-0.0145 -0.218477,-0.24659 -0.211533,-0.25042 -0.204591,-0.25414 -0.197648,-0.25771 -0.190705,-0.26119 -0.183763,-0.26452 -0.176824,-0.26775 -0.16988,-0.27083 -0.162939,-0.2738 -0.156,-0.27665 -0.14906,-0.27936 -0.14212,-0.28197 -0.13518,-0.28444 -0.128243,-0.28679 -0.121301,-0.28901 -0.114365,-0.29112 -0.107421,-0.29309 -0.100487,-0.29494 -0.09356,-0.29667 -0.08661,-0.29828 -0.07968,-0.29977 -0.07275,-0.30112 -0.06581,-0.30235 -0.05887,-0.30347 -0.05193,-0.30445 -0.045,-0.30533 -0.03807,-0.30605 -0.03114,-0.30666 -0.0242,-0.30717 -0.01727,-0.30753 -0.01036,-0.30777 -0.0034,-0.30789 0.0035,-0.30788 0.01047,-0.30776 0.01738,-0.30751 0.02432,-0.30713 0.03125,-0.30663 0.03818,-0.306 0.04512,-0.30527 0.05204,-0.30439 0.05897,-0.30338 0.0659,-0.30228 0.07282,-0.30103 0.07976,-0.29967 0.08669,-0.29817 0.09361,-0.29656 0.100533,-0.29481 0.107466,-0.29296 0.114389,-0.29098 0.121316,-0.28886 0.128242,-0.28662 0.135167,-0.28427 0.142089,-0.28179 0.149015,-0.27918 0.155938,-0.27645 0.162863,-0.2736 0.169785,-0.27062 0.176708,-0.26751 0.18363,-0.26431 0.190552,-0.26093 0.197473,-0.25749 0.204397,-0.25387 0.211314,-0.25016 0.218237,-0.2463 0.01342,-0.0145 0.01373,-0.014 0.01403,-0.0135 0.0143,-0.0131 0.01456,-0.0126 0.01483,-0.0123 0.01507,-0.0117 0.01532,-0.0114 0.01554,-0.0114 0.01578,-0.0102 0.01598,-0.0103 0.0162,-0.009 0.01639,-0.009 0.01656,-0.009 0.01676,-0.008 0.01692,-0.008 0.01708,-0.007 0.01724,-0.007 0.01737,-0.007 0.0175,-0.006 0.01762,-0.006 0.01774,-0.005 0.01784,-0.005 0.01794,-0.005 0.01802,-0.003 0.0181,-0.003 0.01817,-0.002 0.01821,-0.002 0.01827,-0.002 0.01831,-0.001 0.01834,-0.001 0.01836,-5.7e-4 0.01837,-1.7e-4 0.01838,1.7e-4 0.01837,5.7e-4 0.01836,0.001 0.01833,0.001 0.01829,0.002 0.01826,0.002 0.0182,0.002 0.01815,0.003 0.01808,0.003 0.018,0.005 0.01791,0.005 0.01781,0.005 0.0177,0.006 0.01759,0.006 0.01746,0.007 0.01733,0.007 0.01718,0.007 0.01702,0.008 0.01686,0.008 0.01671,0.009 0.01651,0.009 0.01633,0.009 0.01613,0.0103 0.01591,0.0102 0.01571,0.0114 0.01548,0.0115 0.01526,0.0118 0.015,0.0123 0.01474,0.0127 0.01448,0.0132 0.01422,0.0137 0.02467,0.0244 0.02467,0.0244 0.02467,0.0244 0.02467,0.0244 0.02467,0.0244 0.02467,0.0244 0.02467,0.0244 0.02467,0.0244 0.02467,0.0244 0.02467,0.0244 0.02467,0.0244 0.02467,0.0244 0.02467,0.0244 0.02467,0.0244 0.02467,0.0244 0.02467,0.0244 0.02467,0.0244 0.02467,0.0244 0.02467,0.0244 0.02467,0.0244 0.02467,0.0244 0.02467,0.0244 0.02467,0.0244 0.02467,0.0244 0.02467,0.0244 0.02467,0.0244 0.02467,0.0244 0.02467,0.0244 0.02467,0.0244 0.02467,0.0244 0.02467,0.0244 0.02467,0.0244 0.02467,0.0244 0.02467,0.0244 0.02467,0.0244 0.02467,0.0244 0.02467,0.0244 0.02467,0.0244 0.02467,0.0244 0.02467,0.0244 0.02467,0.0244 0.02467,0.0244 0.02467,0.0244 0.02467,0.0244 0.02467,0.0244 0.02467,0.0244 0.02467,0.0244 0.02467,0.0244 0.02467,0.0244 0.02467,0.0244 0.02467,0.0244 0.02467,0.0244 0.02467,0.0244 0.02467,0.0244 0.02467,0.0244 0.02467,0.0244 0.02467,0.0244 0.02467,0.0244 0.02467,0.0244 0.02467,0.0244 0.02467,0.0244 0.02467,0.0244 0.02467,0.0244 0.02467,0.0244 0.0127,0.0129 0.01234,0.0131 0.01194,0.0133 0.01158,0.0135 0.01116,0.0138 0.01082,0.014 0.01047,0.0142 0.01002,0.0143 0.0097,0.0146 0.0093,0.0147 0.0089,0.0149 0.0085,0.015 0.0082,0.0151 0.0077,0.0154 0.0074,0.0155 0.0071,0.0156 0.0066,0.0157 0.0063,0.0158 0.0058,0.0159 0.0055,0.0161 0.0051,0.0162 0.0047,0.0163 0.0043,0.0164 0.004,0.0164 0.0035,0.0165 0.0032,0.0166 0.0028,0.0166 0.0024,0.0167 0.002,0.0167 0.0016,0.0167 0.0013,0.0168 8.94e-4,0.0169 5.26e-4,0.0169 6.1e-5,0.0168 -3.5e-4,0.0169 -7.27e-4,0.0169 -0.0011,0.0168 -0.0016,0.0167 -0.0019,0.0167 -0.0023,0.0167 -0.0027,0.0166 -0.0031,0.0166 -0.0034,0.0166 -0.0039,0.0165 -0.0042,0.0164 -0.0047,0.0164 -0.005,0.0163 -0.0055,0.0162 -0.0058,0.0161 -0.0063,0.0159 -0.0066,0.0158 -0.0071,0.0157 -0.0074,0.0156 -0.0079,0.0154 -0.0082,0.0153 -0.0087,0.0151 -0.009,0.0149 -0.0094,0.0148 -0.0098,0.0147 -0.01025,0.0145 -0.01059,0.0142 -0.01104,0.0141 -0.01142,0.0139 -0.01183,0.0137 -0.155544,0.17955 -0.150595,0.18223 -0.145647,0.18484 -0.140698,0.18735 -0.135754,0.18977 -0.130806,0.19212 -0.12586,0.19436 -0.120914,0.19655 -0.115971,0.19862 -0.111029,0.20061 -0.106077,0.20251 -0.101136,0.20434 -0.0962,0.20608 -0.09125,0.20771 -0.08631,0.20927 -0.08137,0.21075 -0.07643,0.21212 -0.07149,0.21343 -0.06655,0.21465 -0.06161,0.21575 -0.05667,0.2168 -0.05173,0.21775 -0.04679,0.21861 -0.04186,0.21938 -0.03692,0.22008 -0.03199,0.22068 -0.02705,0.22119 -0.02211,0.22163 -0.01718,0.22197 -0.01225,0.2222 -0.0073,0.2224 -0.0024,0.22246 0.0026,0.22246 0.0075,0.22237 0.01242,0.22219 0.01735,0.22192 0.02228,0.22157 0.02721,0.22111 0.03214,0.22061 0.03707,0.21998 0.042,0.21928 0.04692,0.21849 0.05186,0.21762 0.05678,0.21665 0.0617,0.2156 0.06663,0.21447 0.07156,0.21326 0.07648,0.21192 0.08141,0.21054 0.08633,0.20906 0.09125,0.20749 0.09617,0.20582 0.101091,0.20408 0.10602,0.20224 0.110938,0.20034 0.115861,0.19832 0.12078,0.19624 0.125701,0.19405 0.130619,0.19178 0.13554,0.18943 0.140455,0.187 0.145375,0.18446 0.150292,0.18187 0.155207,0.17914 0.01183,0.0137 0.01142,0.0139 0.01104,0.0141 0.01059,0.0142 0.01025,0.0145 0.0098,0.0146 0.0094,0.0148 0.009,0.0149 0.0087,0.0151 0.0082,0.0154 0.0079,0.0155 0.0074,0.0156 0.0071,0.0157 0.0066,0.0158 0.0063,0.0159 0.0058,0.0161 0.0055,0.0162 0.005,0.0163 0.0047,0.0164 0.0042,0.0164 0.0039,0.0165 0.0034,0.0166 0.0031,0.0166 0.0027,0.0167 0.0023,0.0167 0.0019,0.0167 0.0016,0.0167 0.0011,0.0169 7.26e-4,0.0169 3.51e-4,0.0169 -6.1e-5,0.0169 -5.26e-4,0.0168 -8.94e-4,0.0169 -0.0013,0.0169 -0.0016,0.0167 -0.002,0.0167 -0.0024,0.0167 -0.0028,0.0166 -0.0032,0.0166 -0.0035,0.0165 -0.004,0.0164 -0.0043,0.0164 -0.0048,0.0163 -0.0051,0.0162 -0.0055,0.0161 -0.0058,0.0159 -0.0063,0.0158 -0.0066,0.0157 -0.0071,0.0156 -0.0074,0.0155 -0.0077,0.0154 -0.0082,0.0153 -0.0085,0.015 -0.0089,0.0149 -0.0093,0.0147 -0.0097,0.0146 -0.01002,0.0143 -0.01047,0.0142 -0.01082,0.014 -0.01116,0.0138 -0.01158,0.0136 -0.01196,0.0133 -0.01233,0.0131 -0.01273,0.0129 -0.02467,0.0244 -0.02467,0.0244 -0.02467,0.0244 -0.02467,0.0244 -0.02467,0.0244 -0.02467,0.0244 -0.02467,0.0244 -0.02467,0.0244 -0.02467,0.0244 -0.02467,0.0244 -0.02467,0.0244 -0.02467,0.0244 -0.02467,0.0244 -0.02467,0.0244 -0.02467,0.0244 -0.02467,0.0244 -0.02467,0.0244 -0.02467,0.0244 -0.02467,0.0244 -0.02467,0.0244 -0.02467,0.0244 -0.02467,0.0244 -0.02467,0.0244 -0.02467,0.0244 -0.02467,0.0244 -0.02467,0.0244 -0.02467,0.0244 -0.02467,0.0244 -0.02467,0.0244 -0.02467,0.0244 -0.02467,0.0244 -0.02467,0.0244 -0.02467,0.0244 -0.02467,0.0244 -0.02467,0.0244 -0.02467,0.0244 -0.02467,0.0244 -0.02467,0.0244 -0.02467,0.0244 -0.02467,0.0244 -0.02467,0.0244 -0.02467,0.0244 -0.02467,0.0244 -0.02467,0.0244 -0.02467,0.0244 -0.02467,0.0244 -0.02467,0.0244 -0.02467,0.0244 -0.02467,0.0244 -0.02467,0.0244 -0.02467,0.0244 -0.02467,0.0244 -0.02467,0.0244 -0.02467,0.0244 -0.02467,0.0244 -0.02467,0.0244 -0.02467,0.0244 -0.02467,0.0244 -0.02467,0.0244 -0.02467,0.0244 -0.02467,0.0244 -0.02467,0.0244 -0.02467,0.0244 z m 27.169935,3.6758 -0.172828,0.28108 -0.113465,0.29449 -0.05502,0.29931 0.0023,0.29552 0.05912,0.28309 0.114797,0.26206 0.169588,0.23243 0.223439,0.19416 0.263232,0.1409 0.283715,0.0797 0.295377,0.0204 0.298271,-0.037 0.292372,-0.0924 0.277671,-0.14604 0.254178,-0.19761 0.221892,-0.2473 0.172827,-0.28107 0.113465,-0.2945 0.05502,-0.29931 -0.0023,-0.29551 -0.05913,-0.2831 -0.114797,-0.26206 -0.169588,-0.23243 -0.223439,-0.19415 -0.263232,-0.14091 -0.283715,-0.0797 -0.295377,-0.0204 -0.298283,0.037 -0.292361,0.0925 -0.277672,0.14602 -0.254177,0.19763 z m 0.350692,-1.12703 -0.487358,-0.13259 -0.358636,-0.10178 -0.260277,-0.0775 -0.19227,-0.0601 -0.154641,-0.0494 -0.147362,-0.0454 -0.170453,-0.0482 -0.223898,-0.0575 -0.640892,0.0783 -0.616618,0.12464 -0.599988,0.16096 -0.590999,0.18734 -0.589656,0.20376 -0.595956,0.21023 -0.609901,0.20679 -0.631489,0.19337 0.591377,0.24825 0.737562,0.30114 0.828164,0.33255 0.863181,0.34253 0.842616,0.33102 0.766471,0.29806 0.634736,0.24364 0.447427,0.16775 -0.182261,-0.64649 -0.05172,-0.54655 0.06029,-0.45885 0.153747,-0.38335 0.228673,-0.32007 0.285056,-0.26902 0.322893,-0.23016 z m -19.44572,-4.66201 2.347341,0.34697 1.867154,0.30494 1.447393,0.26483 1.088051,0.22657 0.78913,0.19019 0.550632,0.15567 0.372556,0.12305 0.254901,0.0923 -0.743473,0.2084 -0.726316,0.19571 -0.711589,0.18257 -0.699283,0.16914 -0.689407,0.1553 -0.681957,0.14112 -0.676931,0.12656 -0.674331,0.11168 -0.709577,-0.16047 -0.689921,-0.15145 -0.658689,-0.14187 -0.615884,-0.13165 -0.561505,-0.12084 -0.495551,-0.1094 -0.418022,-0.0975 -0.328918,-0.0848 -0.07306,-0.27708 -0.01922,-0.28813 0.04251,-0.28972 0.11211,-0.28188 0.189579,-0.26458 0.274921,-0.23785 0.368137,-0.20168 z m -1.668467,6.24024 0.141765,0.27215 0.180063,0.23555 0.211134,0.19518 0.234947,0.15102 0.251525,0.10303 0.260862,0.0513 0.262953,-0.003 0.257803,-0.0634 0.23422,-0.12019 0.195319,-0.1669 0.153845,-0.20613 0.109788,-0.23794 0.06317,-0.26228 0.01397,-0.27921 -0.03781,-0.28865 -0.09217,-0.29067 -0.141765,-0.27215 -0.180062,-0.23555 -0.211134,-0.19519 -0.234947,-0.15101 -0.251525,-0.10303 -0.260862,-0.0513 -0.262953,0.003 -0.257803,0.0634 -0.23422,0.1202 -0.195319,0.16688 -0.153845,0.20614 -0.109788,0.23794 -0.06317,0.26229 -0.01397,0.27921 0.03781,0.28864 z m 21.180411,-5.69107 -2.766979,0.37867 -2.09803,0.28098 -1.548753,0.20698 -1.11915,0.15659 -0.809219,0.12985 -0.618961,0.12682 -0.548378,0.1474 -0.597464,0.19167 -0.859715,0.25805 -1.08542,0.27965 -1.240303,0.28624 -1.324368,0.27778 -1.337612,0.25432 -1.280036,0.21579 -1.151641,0.16225 -0.952423,0.0937 0.705831,0.35332 0.461519,0.376 0.262809,0.38979 0.109697,0.39468 0.0022,0.39069 -0.05972,0.37782 -0.07603,0.35606 -0.04674,0.32538 1.033524,-0.31979 0.9556,-0.25168 0.903502,-0.19729 0.877232,-0.15676 0.876786,-0.12997 0.902168,-0.117 0.953379,-0.11782 1.030414,-0.13242 0.350147,-0.0485 0.417857,-0.0608 0.46791,-0.0747 0.500308,-0.0899 0.515056,-0.10679 0.512142,-0.12521 0.491579,-0.14512 0.453359,-0.1666 0.476316,-0.18288 0.559158,-0.18866 0.622404,-0.18785 0.666054,-0.1806 0.690112,-0.16679 0.694574,-0.14647 0.67944,-0.11965 0.644713,-0.0863 0.546595,-0.0619 0.420307,-0.0517 0.327261,-0.0428 0.267471,-0.0351 0.240923,-0.0285 0.24762,-0.0231 0.287564,-0.019 0.360751,-0.0161 0.124579,-0.49178 0.0305,-0.43969 -0.05212,-0.3904 -0.12318,-0.34394 -0.182736,-0.30027 -0.230769,-0.25939 -0.267281,-0.22132 z m -2.472818,-12.51085 0.777379,0.58241 0.679847,0.5788 0.586264,0.57415 0.496608,0.5684 0.410895,0.56151 0.32911,0.55355 0.251279,0.54458 0.177369,0.53445 0.107409,0.5232 0.04139,0.51094 -0.02072,0.49752 -0.07887,0.48311 -0.133097,0.46754 -0.183367,0.45083 -0.2297,0.43312 -0.272119,0.41433 -0.310582,0.39439 -0.345114,0.37339 -0.375704,0.3513 -0.402367,0.32813 -0.425083,0.30382 -0.443863,0.27846 -0.458709,0.25205 -0.469612,0.22453 -0.476585,0.19584 -0.479614,0.16616 -0.478716,0.13541 -0.473868,0.10348 -0.46509,0.0705 -0.452375,0.0365 h -0.435717 l -0.415128,-0.0347 0.512171,-0.30306 0.477274,-0.30993 0.443365,-0.31647 0.410438,-0.32274 0.378497,-0.32861 0.347539,-0.33412 0.317569,-0.33939 0.288586,-0.34429 0.260591,-0.34878 0.233573,-0.35303 0.207548,-0.35693 0.182501,-0.36045 0.158449,-0.36369 0.135375,-0.36657 0.113295,-0.36913 0.09219,-0.37135 0.07208,-0.3732 0.05295,-0.37476 0.0348,-0.37596 0.01765,-0.37686 0.0011,-0.37739 -0.01368,-0.37763 -0.02793,-0.37752 -0.04116,-0.37703 -0.0534,-0.3762 -0.06462,-0.37512 -0.07487,-0.37368 -0.08415,-0.37183 -0.09244,-0.36979 -0.09974,-0.36728 -0.106066,-0.36447 z m -15.006091,-3.41037 -0.392034,0.42043 -0.36493,0.42301 -0.338511,0.42491 -0.31277,0.42618 -0.287719,0.4269 -0.263349,0.42695 -0.239667,0.42643 -0.216665,0.4252 -0.194347,0.42349 -0.172715,0.4211 -0.151768,0.41809 -0.131504,0.41445 -0.111928,0.41025 -0.09303,0.40541 -0.07482,0.3999 -0.05726,0.39391 -0.04048,0.38715 -0.02429,0.37991 -0.0088,0.37196 0.006,0.36343 0.02006,0.3543 0.0335,0.34458 0.04623,0.33413 0.0583,0.32323 0.06967,0.31155 0.08036,0.2994 0.09036,0.28653 0.09968,0.27312 0.108319,0.25907 0.116265,0.24438 0.123523,0.22907 0.130111,0.21321 0.193391,0.2763 0.207249,0.25631 0.220209,0.23708 0.232269,0.2189 0.243449,0.20149 0.253719,0.18494 0.263099,0.1694 0.271589,0.15473 0.279176,0.1409 0.285878,0.12797 0.291675,0.11595 0.296585,0.10484 0.300602,0.0946 0.30371,0.0853 0.30594,0.0768 0.307268,0.0692 0.307704,0.0625 0.307237,0.0568 0.305886,0.052 0.303632,0.0478 0.300488,0.045 0.296444,0.0425 0.291514,0.0413 0.285682,0.0407 0.278959,0.0413 0.271334,0.0425 0.262826,0.045 0.253416,0.0478 0.243109,0.052 0.231918,0.0568 0.219821,0.0626 0.206831,0.0693 0.05781,-0.29796 0.02843,-0.28761 4.12e-4,-0.27792 -0.02612,-0.26893 -0.05121,-0.26056 -0.07484,-0.25277 -0.09703,-0.24577 -0.117755,-0.23931 -0.137036,-0.23355 -0.154876,-0.22841 -0.171255,-0.22393 -0.186186,-0.22014 -0.199668,-0.21693 -0.211702,-0.21446 -0.222283,-0.21255 -0.231414,-0.21135 -0.239091,-0.21077 -0.245328,-0.21086 -0.250107,-0.2116 -0.253441,-0.21296 -0.255319,-0.21507 -0.25575,-0.2177 -0.25473,-0.22104 -0.252266,-0.22501 -0.248338,-0.22966 -0.242976,-0.23495 -0.236153,-0.24092 -0.227881,-0.24744 -0.218155,-0.25475 -0.206995,-0.26259 -0.194365,-0.27115 -0.180303,-0.28037 -0.134953,-0.23666 -0.121918,-0.24207 -0.109435,-0.2469 -0.09749,-0.2511 -0.08611,-0.25468 -0.07526,-0.25781 -0.06497,-0.26021 -0.0552,-0.2621 -0.04606,-0.26343 -0.03738,-0.26408 -0.02927,-0.26421 -0.0217,-0.26378 -0.01472,-0.26271 -0.0082,-0.26104 -0.0024,-0.25887 0.003,-0.25601 0.0079,-0.25266 0.01206,-0.24864 0.01581,-0.2441 0.01897,-0.23894 0.02157,-0.2332 0.02363,-0.22692 0.02515,-0.21991 0.02612,-0.21249 0.02659,-0.2044 0.02648,-0.19574 0.02581,-0.18652 0.02454,-0.17663 0.02278,-0.16622 0.02048,-0.15521 0.01763,-0.14359 z m 6.198293,-8.07504 -1.070558,1.52598 -0.925687,1.43289 -0.787893,1.34402 -0.657169,1.25926 -0.533532,1.17875 -0.416963,1.10232 -0.307474,1.03 -0.205073,0.96195 -0.109743,0.89803 -0.02152,0.83823 0.05969,0.78257 0.133788,0.73114 0.200813,0.6838 0.260748,0.64064 0.31362,0.60161 0.359403,0.56678 0.398112,0.53614 0.429749,0.50955 0.454297,0.48717 0.471778,0.46904 0.482177,0.45492 0.485496,0.44502 0.481747,0.43922 0.470905,0.43773 0.452994,0.44025 0.42801,0.44694 0.395937,0.45791 0.356792,0.47286 0.310577,0.49214 0.257269,0.51543 0.196899,0.54295 0.129438,0.57462 v 0 0 0 0 0 0 0 0 0 0 0 0 0 0 0 0 0 0 0 0 0 0 0 0 0 0 0 0 0 0 0 0 l 1.272984,-1.02259 1.087301,-0.98804 0.911472,-0.95502 0.745493,-0.92345 0.58937,-0.8936 0.443093,-0.86529 0.306672,-0.8384 0.180109,-0.8132 0.06339,-0.78957 -0.04344,-0.76737 -0.140484,-0.74689 -0.227639,-0.72784 -0.304948,-0.71038 -0.372395,-0.69458 -0.429997,-0.68021 -0.477747,-0.66745 -0.515637,-0.6562 -0.543681,-0.64663 -0.561872,-0.6385 -0.570209,-0.63202 -0.568695,-0.62699 -0.557327,-0.62364 -0.5361,-0.62179 -0.505033,-0.62149 -0.464107,-0.62275 -0.413327,-0.62561 -0.352697,-0.63 -0.282217,-0.63591 -0.201874,-0.64345 -0.11169,-0.65249 -0.01163,-0.66315 z"
         inkscape:connector-curvature="0" />
    </g>
  </g>
</svg>
