  0
SECTION
  2
HEADER
  9
$ACADVER
  1
AC1014
  9
$HANDSEED
  5
FFFF
  9
$MEASUREMENT
 70
     1
  0
ENDSEC
  0
SECTION
  2
TABLES
  0
TABLE
  2
VPORT
  5
8
330
0
100
AcDbSymbolTable
 70
     4
  0
VPORT
  5
2E
330
8
100
AcDbSymbolTableRecord
100
AcDbViewportTableRecord
  2
*ACTIVE
 70
     0
 10
0.0
 20
0.0
 11
1.0
 21
1.0
 12
210.0
 22
148.5
 13
0.0
 23
0.0
 14
10.0
 24
10.0
 15
10.0
 25
10.0
 16
0.0
 26
0.0
 36
1.0
 17
0.0
 27
0.0
 37
0.0
 40
341.0
 41
1.24
 42
50.0
 43
0.0
 44
0.0
 50
0.0
 51
0.0
 71
     0
 72
   100
 73
     1
 74
     3
 75
     0
 76
     0
 77
     0
 78
     0
  0
ENDTAB
  0
TABLE
  2
LTYPE
  5
5
330
0
100
AcDbSymbolTable
 70
     1
  0
LTYPE
  5
14
330
5
100
AcDbSymbolTableRecord
100
AcDbLinetypeTableRecord
  2
BYBLOCK
 70
     0
  3

 72
    65
 73
     0
 40
0.0
  0
LTYPE
  5
15
330
5
100
AcDbSymbolTableRecord
100
AcDbLinetypeTableRecord
  2
BYLAYER
 70
     0
  3

 72
    65
 73
     0
 40
0.0
  0
LTYPE
  5
16
330
5
100
AcDbSymbolTableRecord
100
AcDbLinetypeTableRecord
  2
CONTINUOUS
 70
     0
  3
Solid line
 72
    65
 73
     0
 40
0.0
  0
ENDTAB
  0
TABLE
  2
LAYER
  5
2
100
AcDbSymbolTable
 70
2
  0
LAYER
  5
50
100
AcDbSymbolTableRecord
100
AcDbLayerTableRecord
  2
0
 70
0
  6
CONTINUOUS
  0
LAYER
  5
51
100
AcDbSymbolTableRecord
100
AcDbLayerTableRecord
  2
Ebene_1
 70
0
  6
CONTINUOUS
  0
ENDTAB
  0
TABLE
  2
STYLE
  5
3
330
0
100
AcDbSymbolTable
 70
     1
  0
STYLE
  5
11
330
3
100
AcDbSymbolTableRecord
100
AcDbTextStyleTableRecord
  2
STANDARD
 70
     0
 40
0.0
 41
1.0
 50
0.0
 71
     0
 42
2.5
  3
txt
  4

  0
ENDTAB
  0
TABLE
  2
VIEW
  5
6
330
0
100
AcDbSymbolTable
 70
     0
  0
ENDTAB
  0
TABLE
  2
UCS
  5
7
330
0
100
AcDbSymbolTable
 70
     0
  0
ENDTAB
  0
TABLE
  2
APPID
  5
9
330
0
100
AcDbSymbolTable
 70
     2
  0
APPID
  5
12
330
9
100
AcDbSymbolTableRecord
100
AcDbRegAppTableRecord
  2
ACAD
 70
     0
  0
ENDTAB
  0
TABLE
  2
DIMSTYLE
  5
A
330
0
100
AcDbSymbolTable
 70
     1
  0
DIMSTYLE
105
27
330
A
100
AcDbSymbolTableRecord
100
AcDbDimStyleTableRecord
  2
ISO-25
 70
     0
  3

  4

  5

  6

  7

 40
1.0
 41
2.5
 42
0.625
 43
3.75
 44
1.25
 45
0.0
 46
0.0
 47
0.0
 48
0.0
140
2.5
141
2.5
142
0.0
143
0.03937007874016
144
1.0
145
0.0
146
1.0
147
0.625
 71
     0
 72
     0
 73
     0
 74
     0
 75
     0
 76
     0
 77
     1
 78
     8
170
     0
171
     3
172
     1
173
     0
174
     0
175
     0
176
     0
177
     0
178
     0
270
     2
271
     2
272
     2
273
     2
274
     3
340
11
275
     0
280
     0
281
     0
282
     0
283
     0
284
     8
285
     0
286
     0
287
     3
288
     0
  0
ENDTAB
  0
TABLE
  2
BLOCK_RECORD
  5
1
330
0
100
AcDbSymbolTable
 70
     1
  0
BLOCK_RECORD
  5
1F
330
1
100
AcDbSymbolTableRecord
100
AcDbBlockTableRecord
  2
*MODEL_SPACE
  0
BLOCK_RECORD
  5
1B
330
1
100
AcDbSymbolTableRecord
100
AcDbBlockTableRecord
  2
*PAPER_SPACE
  0
ENDTAB
  0
ENDSEC
  0
SECTION
  2
BLOCKS
  0
BLOCK
  5
20
330
1F
100
AcDbEntity
  8
0
100
AcDbBlockBegin
  2
*MODEL_SPACE
 70
     0
 10
0.0
 20
0.0
 30
0.0
  3
*MODEL_SPACE
  1

  0
ENDBLK
  5
21
330
1F
100
AcDbEntity
  8
0
100
AcDbBlockEnd
  0
BLOCK
  5
1C
330
1B
100
AcDbEntity
 67
     1
  8
0
100
AcDbBlockBegin
  2
*PAPER_SPACE
  1

  0
ENDBLK
  5
1D
330
1B
100
AcDbEntity
 67
     1
  8
0
100
AcDbBlockEnd
  0
ENDSEC
  0
SECTION
  2
ENTITIES
  0
LWPOLYLINE
  5
100
100
AcDbEntity
  8
Ebene_1
 62
7
100
AcDbPolyline
 90
128
 70
1
 10
8.925841
 20
0.811559
 30
0.0
 10
8.869546
 20
0.760259
 30
0.0
 10
8.809517
 20
0.715859
 30
0.0
 10
8.746298
 20
0.678459
 30
0.0
 10
8.680431
 20
0.648059
 30
0.0
 10
8.612490
 20
0.624659
 30
0.0
 10
8.543008
 20
0.608259
 30
0.0
 10
8.472529
 20
0.599259
 30
0.0
 10
8.401624
 20
0.597259
 30
0.0
 10
8.330848
 20
0.602259
 30
0.0
 10
8.260734
 20
0.613759
 30
0.0
 10
8.191854
 20
0.632259
 30
0.0
 10
8.124753
 20
0.657759
 30
0.0
 10
8.059983
 20
0.690159
 30
0.0
 10
7.998087
 20
0.729559
 30
0.0
 10
7.939619
 20
0.775859
 30
0.0
 10
7.885161
 20
0.829159
 30
0.0
 10
5.810687
 20
3.089499
 30
0.0
 10
4.075819
 20
5.462729
 30
0.0
 10
2.666404
 20
7.928829
 30
0.0
 10
1.568275
 20
10.467829
 30
0.0
 10
0.767273
 20
13.059689
 30
0.0
 10
0.249234
 20
15.684419
 30
0.0
 10
-0.000000
 20
18.321999
 30
0.0
 10
0.005531
 20
20.952439
 30
0.0
 10
0.251422
 20
23.555749
 30
0.0
 10
0.723633
 20
26.111879
 30
0.0
 10
1.408004
 20
28.600849
 30
0.0
 10
2.290375
 20
31.002639
 30
0.0
 10
3.356578
 20
33.297269
 30
0.0
 10
4.592465
 20
35.464709
 30
0.0
 10
5.983859
 20
37.484949
 30
0.0
 10
7.516613
 20
39.338009
 30
0.0
 10
7.571071
 20
39.391309
 30
0.0
 10
7.629539
 20
39.437609
 30
0.0
 10
7.691435
 20
39.477009
 30
0.0
 10
7.756205
 20
39.509409
 30
0.0
 10
7.823316
 20
39.534909
 30
0.0
 10
7.892196
 20
39.553309
 30
0.0
 10
7.962310
 20
39.564809
 30
0.0
 10
8.033096
 20
39.569809
 30
0.0
 10
8.104000
 20
39.567809
 30
0.0
 10
8.174470
 20
39.558809
 30
0.0
 10
8.243952
 20
39.542409
 30
0.0
 10
8.311903
 20
39.519009
 30
0.0
 10
8.377770
 20
39.488609
 30
0.0
 10
8.440989
 20
39.451109
 30
0.0
 10
8.501018
 20
39.406709
 30
0.0
 10
8.557303
 20
39.355409
 30
0.0
 10
8.653475
 20
39.258109
 30
0.0
 10
8.749648
 20
39.160809
 30
0.0
 10
8.845820
 20
39.063509
 30
0.0
 10
8.941993
 20
38.966209
 30
0.0
 10
9.038165
 20
38.868909
 30
0.0
 10
9.134337
 20
38.771609
 30
0.0
 10
9.230510
 20
38.674309
 30
0.0
 10
9.326682
 20
38.577009
 30
0.0
 10
9.422855
 20
38.479709
 30
0.0
 10
9.519027
 20
38.382409
 30
0.0
 10
9.615200
 20
38.285109
 30
0.0
 10
9.711372
 20
38.187809
 30
0.0
 10
9.807545
 20
38.090509
 30
0.0
 10
9.903717
 20
37.993209
 30
0.0
 10
9.999890
 20
37.895909
 30
0.0
 10
10.096062
 20
37.798609
 30
0.0
 10
10.144672
 20
37.744309
 30
0.0
 10
10.186930
 20
37.686509
 30
0.0
 10
10.222906
 20
37.625709
 30
0.0
 10
10.252540
 20
37.562309
 30
0.0
 10
10.275832
 20
37.496809
 30
0.0
 10
10.292763
 20
37.429909
 30
0.0
 10
10.303333
 20
37.361809
 30
0.0
 10
10.307679
 20
37.293109
 30
0.0
 10
10.305407
 20
37.224209
 30
0.0
 10
10.297011
 20
37.155809
 30
0.0
 10
10.282283
 20
37.088209
 30
0.0
 10
10.261213
 20
37.021809
 30
0.0
 10
10.233781
 20
36.957309
 30
0.0
 10
10.199959
 20
36.895009
 30
0.0
 10
10.159795
 20
36.835509
 30
0.0
 10
10.113289
 20
36.779309
 30
0.0
 10
8.670637
 20
35.173309
 30
0.0
 10
7.392128
 20
33.417059
 30
0.0
 10
6.284464
 20
31.529029
 30
0.0
 10
5.354349
 20
29.527659
 30
0.0
 10
4.608495
 20
27.431449
 30
0.0
 10
4.053594
 20
25.258819
 30
0.0
 10
3.696352
 20
23.028279
 30
0.0
 10
3.543477
 20
20.758249
 30
0.0
 10
3.601669
 20
18.467199
 30
0.0
 10
3.877630
 20
16.173609
 30
0.0
 10
4.378068
 20
13.895909
 30
0.0
 10
5.109677
 20
11.652609
 30
0.0
 10
6.079169
 20
9.462129
 30
0.0
 10
7.293249
 20
7.342939
 30
0.0
 10
8.758611
 20
5.313509
 30
0.0
 10
10.481965
 20
3.392299
 30
0.0
 10
10.528471
 20
3.336099
 30
0.0
 10
10.568635
 20
3.276699
 30
0.0
 10
10.602457
 20
3.214399
 30
0.0
 10
10.629888
 20
3.149899
 30
0.0
 10
10.650958
 20
3.083599
 30
0.0
 10
10.665686
 20
3.015999
 30
0.0
 10
10.674083
 20
2.947599
 30
0.0
 10
10.676354
 20
2.878699
 30
0.0
 10
10.672008
 20
2.810099
 30
0.0
 10
10.661439
 20
2.741999
 30
0.0
 10
10.644508
 20
2.675099
 30
0.0
 10
10.621215
 20
2.609699
 30
0.0
 10
10.591581
 20
2.546299
 30
0.0
 10
10.555605
 20
2.485499
 30
0.0
 10
10.513337
 20
2.427699
 30
0.0
 10
10.464728
 20
2.373399
 30
0.0
 10
10.368555
 20
2.276099
 30
0.0
 10
10.272383
 20
2.178799
 30
0.0
 10
10.176210
 20
2.081499
 30
0.0
 10
10.080038
 20
1.984199
 30
0.0
 10
9.983865
 20
1.886899
 30
0.0
 10
9.887693
 20
1.789599
 30
0.0
 10
9.791520
 20
1.692299
 30
0.0
 10
9.695348
 20
1.594999
 30
0.0
 10
9.599176
 20
1.497699
 30
0.0
 10
9.503003
 20
1.400399
 30
0.0
 10
9.406831
 20
1.303099
 30
0.0
 10
9.310658
 20
1.205799
 30
0.0
 10
9.214486
 20
1.108499
 30
0.0
 10
9.118313
 20
1.011199
 30
0.0
 10
9.022141
 20
0.913899
 30
0.0
  0
LWPOLYLINE
  5
101
100
AcDbEntity
  8
Ebene_1
 62
7
100
AcDbPolyline
 90
128
 70
1
 10
14.432063
 20
5.659049
 30
0.0
 10
14.375769
 20
5.607749
 30
0.0
 10
14.315730
 20
5.563349
 30
0.0
 10
14.252511
 20
5.525849
 30
0.0
 10
14.186644
 20
5.495449
 30
0.0
 10
14.118693
 20
5.472049
 30
0.0
 10
14.049211
 20
5.455649
 30
0.0
 10
13.978741
 20
5.446649
 30
0.0
 10
13.907837
 20
5.444649
 30
0.0
 10
13.837051
 20
5.449649
 30
0.0
 10
13.766946
 20
5.461149
 30
0.0
 10
13.698057
 20
5.479549
 30
0.0
 10
13.630956
 20
5.505049
 30
0.0
 10
13.566185
 20
5.537449
 30
0.0
 10
13.504290
 20
5.576849
 30
0.0
 10
13.445822
 20
5.623149
 30
0.0
 10
13.391364
 20
5.676449
 30
0.0
 10
12.086541
 20
7.238139
 30
0.0
 10
10.955753
 20
8.891619
 30
0.0
 10
9.998985
 20
10.623769
 30
0.0
 10
9.216217
 20
12.421469
 30
0.0
 10
8.607453
 20
14.271609
 30
0.0
 10
8.172673
 20
16.161059
 30
0.0
 10
7.911864
 20
18.076719
 30
0.0
 10
7.825016
 20
20.005459
 30
0.0
 10
7.912111
 20
21.934169
 30
0.0
 10
8.173146
 20
23.849709
 30
0.0
 10
8.608107
 20
25.738989
 30
0.0
 10
9.216982
 20
27.588889
 30
0.0
 10
9.999755
 20
29.386279
 30
0.0
 10
10.956419
 20
31.118039
 30
0.0
 10
12.086958
 20
32.771059
 30
0.0
 10
13.391362
 20
34.332229
 30
0.0
 10
13.445820
 20
34.385529
 30
0.0
 10
13.504288
 20
34.431829
 30
0.0
 10
13.566183
 20
34.471229
 30
0.0
 10
13.630954
 20
34.503629
 30
0.0
 10
13.698065
 20
34.529129
 30
0.0
 10
13.766954
 20
34.547529
 30
0.0
 10
13.837069
 20
34.559029
 30
0.0
 10
13.907845
 20
34.564029
 30
0.0
 10
13.978749
 20
34.562029
 30
0.0
 10
14.049219
 20
34.553029
 30
0.0
 10
14.118701
 20
34.536629
 30
0.0
 10
14.186652
 20
34.513129
 30
0.0
 10
14.252518
 20
34.482729
 30
0.0
 10
14.315738
 20
34.445229
 30
0.0
 10
14.375767
 20
34.400829
 30
0.0
 10
14.432052
 20
34.349429
 30
0.0
 10
14.528224
 20
34.252129
 30
0.0
 10
14.624396
 20
34.154829
 30
0.0
 10
14.720569
 20
34.057529
 30
0.0
 10
14.816741
 20
33.960229
 30
0.0
 10
14.912914
 20
33.862929
 30
0.0
 10
15.009086
 20
33.765629
 30
0.0
 10
15.105259
 20
33.668329
 30
0.0
 10
15.201431
 20
33.571029
 30
0.0
 10
15.297604
 20
33.473729
 30
0.0
 10
15.393776
 20
33.376429
 30
0.0
 10
15.489949
 20
33.279129
 30
0.0
 10
15.586121
 20
33.181829
 30
0.0
 10
15.682293
 20
33.084529
 30
0.0
 10
15.778466
 20
32.987229
 30
0.0
 10
15.874638
 20
32.889929
 30
0.0
 10
15.970811
 20
32.792629
 30
0.0
 10
16.019421
 20
32.738329
 30
0.0
 10
16.061689
 20
32.680529
 30
0.0
 10
16.097605
 20
32.619729
 30
0.0
 10
16.127239
 20
32.556329
 30
0.0
 10
16.150532
 20
32.490829
 30
0.0
 10
16.167462
 20
32.423929
 30
0.0
 10
16.178032
 20
32.355829
 30
0.0
 10
16.182378
 20
32.287229
 30
0.0
 10
16.180106
 20
32.218329
 30
0.0
 10
16.171710
 20
32.149929
 30
0.0
 10
16.156982
 20
32.082329
 30
0.0
 10
16.135912
 20
32.016129
 30
0.0
 10
16.108481
 20
31.951629
 30
0.0
 10
16.074658
 20
31.889329
 30
0.0
 10
16.034494
 20
31.829929
 30
0.0
 10
15.987979
 20
31.773729
 30
0.0
 10
14.923535
 20
30.488299
 30
0.0
 10
14.000985
 20
29.128759
 30
0.0
 10
13.220337
 20
27.705639
 30
0.0
 10
12.581596
 20
26.229559
 30
0.0
 10
12.084771
 20
24.711109
 30
0.0
 10
11.729865
 20
23.160869
 30
0.0
 10
11.516892
 20
21.589419
 30
0.0
 10
11.445850
 20
20.007389
 30
0.0
 10
11.516754
 20
18.425309
 30
0.0
 10
11.729599
 20
16.853819
 30
0.0
 10
12.084403
 20
15.303479
 30
0.0
 10
12.581171
 20
13.784879
 30
0.0
 10
13.219901
 20
12.308629
 30
0.0
 10
14.000610
 20
10.885299
 30
0.0
 10
14.923304
 20
9.525479
 30
0.0
 10
15.987985
 20
8.239769
 30
0.0
 10
16.034490
 20
8.183569
 30
0.0
 10
16.074655
 20
8.124169
 30
0.0
 10
16.108477
 20
8.061869
 30
0.0
 10
16.135908
 20
7.997369
 30
0.0
 10
16.156978
 20
7.931069
 30
0.0
 10
16.171706
 20
7.863469
 30
0.0
 10
16.180102
 20
7.795069
 30
0.0
 10
16.182374
 20
7.726169
 30
0.0
 10
16.178028
 20
7.657469
 30
0.0
 10
16.167459
 20
7.589369
 30
0.0
 10
16.150528
 20
7.522269
 30
0.0
 10
16.127235
 20
7.456869
 30
0.0
 10
16.097601
 20
7.393469
 30
0.0
 10
16.061685
 20
7.332669
 30
0.0
 10
16.019417
 20
7.274869
 30
0.0
 10
15.970807
 20
7.220569
 30
0.0
 10
15.874634
 20
7.123269
 30
0.0
 10
15.778462
 20
7.025969
 30
0.0
 10
15.682289
 20
6.928669
 30
0.0
 10
15.586117
 20
6.831369
 30
0.0
 10
15.489945
 20
6.734069
 30
0.0
 10
15.393772
 20
6.636769
 30
0.0
 10
15.297600
 20
6.539469
 30
0.0
 10
15.201427
 20
6.442169
 30
0.0
 10
15.105255
 20
6.344869
 30
0.0
 10
15.009082
 20
6.247569
 30
0.0
 10
14.912910
 20
6.150269
 30
0.0
 10
14.816737
 20
6.052969
 30
0.0
 10
14.720565
 20
5.955669
 30
0.0
 10
14.624393
 20
5.858369
 30
0.0
 10
14.528220
 20
5.761069
 30
0.0
  0
LWPOLYLINE
  5
102
100
AcDbEntity
  8
Ebene_1
 62
7
100
AcDbPolyline
 90
128
 70
1
 10
19.583692
 20
10.800549
 30
0.0
 10
19.526676
 20
10.748549
 30
0.0
 10
19.465848
 20
10.703849
 30
0.0
 10
19.401769
 20
10.666149
 30
0.0
 10
19.335033
 20
10.635649
 30
0.0
 10
19.266193
 20
10.612349
 30
0.0
 10
19.195822
 20
10.596149
 30
0.0
 10
19.124493
 20
10.587149
 30
0.0
 10
19.052778
 20
10.586149
 30
0.0
 10
18.981271
 20
10.591149
 30
0.0
 10
18.910515
 20
10.603549
 30
0.0
 10
18.841112
 20
10.623049
 30
0.0
 10
18.773615
 20
10.649649
 30
0.0
 10
18.708608
 20
10.683349
 30
0.0
 10
18.646643
 20
10.724249
 30
0.0
 10
18.588313
 20
10.772149
 30
0.0
 10
18.534192
 20
10.827149
 30
0.0
 10
17.722120
 20
11.836009
 30
0.0
 10
17.018432
 20
12.900299
 30
0.0
 10
16.423108
 20
14.012069
 30
0.0
 10
15.936116
 20
15.163419
 30
0.0
 10
15.557445
 20
16.346409
 30
0.0
 10
15.287062
 20
17.553129
 30
0.0
 10
15.124951
 20
18.775619
 30
0.0
 10
15.071096
 20
20.005969
 30
0.0
 10
15.125444
 20
21.236259
 30
0.0
 10
15.287997
 20
22.458539
 30
0.0
 10
15.558723
 20
23.664889
 30
0.0
 10
15.937604
 20
24.847409
 30
0.0
 10
16.424618
 20
25.998129
 30
0.0
 10
17.019732
 20
27.109149
 30
0.0
 10
17.722936
 20
28.172529
 30
0.0
 10
18.534201
 20
29.180349
 30
0.0
 10
18.588322
 20
29.235349
 30
0.0
 10
18.646652
 20
29.283249
 30
0.0
 10
18.708617
 20
29.324149
 30
0.0
 10
18.773624
 20
29.357849
 30
0.0
 10
18.841121
 20
29.384449
 30
0.0
 10
18.910524
 20
29.403949
 30
0.0
 10
18.981280
 20
29.416349
 30
0.0
 10
19.052787
 20
29.421349
 30
0.0
 10
19.124502
 20
29.420349
 30
0.0
 10
19.195831
 20
29.411349
 30
0.0
 10
19.266202
 20
29.395149
 30
0.0
 10
19.335052
 20
29.371849
 30
0.0
 10
19.401788
 20
29.341349
 30
0.0
 10
19.465866
 20
29.303649
 30
0.0
 10
19.526695
 20
29.258849
 30
0.0
 10
19.583711
 20
29.206849
 30
0.0
 10
19.679992
 20
29.109349
 30
0.0
 10
19.776273
 20
29.011849
 30
0.0
 10
19.872555
 20
28.914449
 30
0.0
 10
19.968845
 20
28.817049
 30
0.0
 10
20.065127
 20
28.719549
 30
0.0
 10
20.161408
 20
28.622049
 30
0.0
 10
20.257689
 20
28.524649
 30
0.0
 10
20.353970
 20
28.427149
 30
0.0
 10
20.450251
 20
28.329649
 30
0.0
 10
20.546532
 20
28.232249
 30
0.0
 10
20.642813
 20
28.134749
 30
0.0
 10
20.739094
 20
28.037349
 30
0.0
 10
20.835375
 20
27.939849
 30
0.0
 10
20.931657
 20
27.842449
 30
0.0
 10
21.027938
 20
27.744949
 30
0.0
 10
21.124219
 20
27.647449
 30
0.0
 10
21.171614
 20
27.594649
 30
0.0
 10
21.213111
 20
27.538449
 30
0.0
 10
21.248702
 20
27.479249
 30
0.0
 10
21.278336
 20
27.417549
 30
0.0
 10
21.302003
 20
27.353749
 30
0.0
 10
21.319656
 20
27.288449
 30
0.0
 10
21.331242
 20
27.221949
 30
0.0
 10
21.336873
 20
27.154749
 30
0.0
 10
21.336360
 20
27.087449
 30
0.0
 10
21.329742
 20
27.020449
 30
0.0
 10
21.316999
 20
26.954049
 30
0.0
 10
21.298073
 20
26.888849
 30
0.0
 10
21.272973
 20
26.825349
 30
0.0
 10
21.241689
 20
26.763849
 30
0.0
 10
21.204163
 20
26.704949
 30
0.0
 10
21.160403
 20
26.649049
 30
0.0
 10
20.582284
 20
25.915079
 30
0.0
 10
20.081398
 20
25.142269
 30
0.0
 10
19.657708
 20
24.336199
 30
0.0
 10
19.311194
 20
23.502389
 30
0.0
 10
19.041811
 20
22.646429
 30
0.0
 10
18.849534
 20
21.773899
 30
0.0
 10
18.734332
 20
20.890319
 30
0.0
 10
18.696154
 20
20.001279
 30
0.0
 10
18.734994
 20
19.112359
 30
0.0
 10
18.850815
 20
18.229089
 30
0.0
 10
19.043576
 20
17.357029
 30
0.0
 10
19.313247
 20
16.501779
 30
0.0
 10
19.659795
 20
15.668879
 30
0.0
 10
20.083192
 20
14.863889
 30
0.0
 10
20.583404
 20
14.092389
 30
0.0
 10
21.160392
 20
13.359929
 30
0.0
 10
21.204152
 20
13.304029
 30
0.0
 10
21.241669
 20
13.245129
 30
0.0
 10
21.272952
 20
13.183629
 30
0.0
 10
21.298052
 20
13.120129
 30
0.0
 10
21.316979
 20
13.054929
 30
0.0
 10
21.329721
 20
12.988529
 30
0.0
 10
21.336339
 20
12.921429
 30
0.0
 10
21.336853
 20
12.854129
 30
0.0
 10
21.331223
 20
12.786929
 30
0.0
 10
21.319646
 20
12.720429
 30
0.0
 10
21.301994
 20
12.655129
 30
0.0
 10
21.278326
 20
12.591429
 30
0.0
 10
21.248692
 20
12.529729
 30
0.0
 10
21.213101
 20
12.470529
 30
0.0
 10
21.171604
 20
12.414329
 30
0.0
 10
21.124209
 20
12.361529
 30
0.0
 10
21.027928
 20
12.264129
 30
0.0
 10
20.931647
 20
12.166729
 30
0.0
 10
20.835366
 20
12.069229
 30
0.0
 10
20.739084
 20
11.971729
 30
0.0
 10
20.642803
 20
11.874329
 30
0.0
 10
20.546522
 20
11.776829
 30
0.0
 10
20.450241
 20
11.679429
 30
0.0
 10
20.353960
 20
11.582029
 30
0.0
 10
20.257679
 20
11.484529
 30
0.0
 10
20.161388
 20
11.387029
 30
0.0
 10
20.065107
 20
11.289629
 30
0.0
 10
19.968826
 20
11.192229
 30
0.0
 10
19.872545
 20
11.094729
 30
0.0
 10
19.776264
 20
10.997229
 30
0.0
 10
19.679982
 20
10.899829
 30
0.0
  0
LWPOLYLINE
  5
103
100
AcDbEntity
  8
Ebene_1
 62
7
100
AcDbPolyline
 90
128
 70
1
 10
66.747120
 20
0.214399
 30
0.0
 10
66.804116
 20
0.163099
 30
0.0
 10
66.864886
 20
0.118699
 30
0.0
 10
66.928895
 20
0.081199
 30
0.0
 10
66.995582
 20
0.050799
 30
0.0
 10
67.064372
 20
0.027399
 30
0.0
 10
67.134724
 20
0.010999
 30
0.0
 10
67.206073
 20
0.001999
 30
0.0
 10
67.277856
 20
-0.000001
 30
0.0
 10
67.349512
 20
0.004999
 30
0.0
 10
67.420495
 20
0.016499
 30
0.0
 10
67.490224
 20
0.034899
 30
0.0
 10
67.558155
 20
0.060399
 30
0.0
 10
67.623735
 20
0.092899
 30
0.0
 10
67.686392
 20
0.132299
 30
0.0
 10
67.745571
 20
0.178599
 30
0.0
 10
67.800710
 20
0.231899
 30
0.0
 10
69.900801
 20
2.492229
 30
0.0
 10
71.657090
 20
4.865449
 30
0.0
 10
73.083908
 20
7.331569
 30
0.0
 10
74.195597
 20
9.870559
 30
0.0
 10
75.006490
 20
12.462429
 30
0.0
 10
75.530926
 20
15.087149
 30
0.0
 10
75.783240
 20
17.724739
 30
0.0
 10
75.777609
 20
20.355179
 30
0.0
 10
75.528682
 20
22.958469
 30
0.0
 10
75.050642
 20
25.514599
 30
0.0
 10
74.357819
 20
28.003569
 30
0.0
 10
73.464552
 20
30.405379
 30
0.0
 10
72.385182
 20
32.699999
 30
0.0
 10
71.134035
 20
34.867429
 30
0.0
 10
69.725461
 20
36.887689
 30
0.0
 10
68.173779
 20
38.740749
 30
0.0
 10
68.118640
 20
38.794049
 30
0.0
 10
68.059461
 20
38.840349
 30
0.0
 10
67.996805
 20
38.879749
 30
0.0
 10
67.931224
 20
38.912149
 30
0.0
 10
67.863293
 20
38.937649
 30
0.0
 10
67.793564
 20
38.956049
 30
0.0
 10
67.722581
 20
38.967549
 30
0.0
 10
67.650926
 20
38.972549
 30
0.0
 10
67.579152
 20
38.970549
 30
0.0
 10
67.507813
 20
38.961549
 30
0.0
 10
67.437462
 20
38.945149
 30
0.0
 10
67.368661
 20
38.921749
 30
0.0
 10
67.301984
 20
38.891349
 30
0.0
 10
67.237985
 20
38.853849
 30
0.0
 10
67.177215
 20
38.809449
 30
0.0
 10
67.120239
 20
38.758149
 30
0.0
 10
67.022881
 20
38.660849
 30
0.0
 10
66.925523
 20
38.563549
 30
0.0
 10
66.828175
 20
38.466249
 30
0.0
 10
66.730817
 20
38.368949
 30
0.0
 10
66.633459
 20
38.271649
 30
0.0
 10
66.536102
 20
38.174349
 30
0.0
 10
66.438744
 20
38.077049
 30
0.0
 10
66.341386
 20
37.979749
 30
0.0
 10
66.244038
 20
37.882449
 30
0.0
 10
66.146680
 20
37.785149
 30
0.0
 10
66.049322
 20
37.687849
 30
0.0
 10
65.951965
 20
37.590549
 30
0.0
 10
65.854607
 20
37.493249
 30
0.0
 10
65.757259
 20
37.395949
 30
0.0
 10
65.659901
 20
37.298649
 30
0.0
 10
65.562543
 20
37.201349
 30
0.0
 10
65.513331
 20
37.147049
 30
0.0
 10
65.470539
 20
37.089249
 30
0.0
 10
65.434119
 20
37.028449
 30
0.0
 10
65.404129
 20
36.965049
 30
0.0
 10
65.380560
 20
36.899549
 30
0.0
 10
65.363412
 20
36.832549
 30
0.0
 10
65.352724
 20
36.764449
 30
0.0
 10
65.348180
 20
36.695849
 30
0.0
 10
65.350452
 20
36.626949
 30
0.0
 10
65.359046
 20
36.558549
 30
0.0
 10
65.373952
 20
36.490949
 30
0.0
 10
65.395289
 20
36.424549
 30
0.0
 10
65.423056
 20
36.359949
 30
0.0
 10
65.457293
 20
36.297649
 30
0.0
 10
65.497951
 20
36.238149
 30
0.0
 10
65.545039
 20
36.181949
 30
0.0
 10
67.005505
 20
34.575939
 30
0.0
 10
68.299803
 20
32.819689
 30
0.0
 10
69.421145
 20
30.931659
 30
0.0
 10
70.362744
 20
28.930289
 30
0.0
 10
71.117807
 20
26.834079
 30
0.0
 10
71.679561
 20
24.661459
 30
0.0
 10
72.041214
 20
22.430899
 30
0.0
 10
72.195976
 20
20.160879
 30
0.0
 10
72.137073
 20
17.869829
 30
0.0
 10
71.857704
 20
15.576229
 30
0.0
 10
71.351087
 20
13.298549
 30
0.0
 10
70.610444
 20
11.055229
 30
0.0
 10
69.628980
 20
8.864759
 30
0.0
 10
68.399908
 20
6.745559
 30
0.0
 10
66.916451
 20
4.716139
 30
0.0
 10
65.171818
 20
2.794929
 30
0.0
 10
65.124729
 20
2.738729
 30
0.0
 10
65.084072
 20
2.679329
 30
0.0
 10
65.049834
 20
2.617029
 30
0.0
 10
65.022077
 20
2.552529
 30
0.0
 10
65.000741
 20
2.486229
 30
0.0
 10
64.985835
 20
2.418629
 30
0.0
 10
64.977241
 20
2.350229
 30
0.0
 10
64.974969
 20
2.281329
 30
0.0
 10
64.979513
 20
2.212729
 30
0.0
 10
64.990191
 20
2.144629
 30
0.0
 10
65.007339
 20
2.077529
 30
0.0
 10
65.030908
 20
2.012029
 30
0.0
 10
65.060898
 20
1.948629
 30
0.0
 10
65.097318
 20
1.887829
 30
0.0
 10
65.140110
 20
1.830029
 30
0.0
 10
65.189322
 20
1.775729
 30
0.0
 10
65.286680
 20
1.678429
 30
0.0
 10
65.384038
 20
1.581129
 30
0.0
 10
65.481385
 20
1.483829
 30
0.0
 10
65.578743
 20
1.386529
 30
0.0
 10
65.676101
 20
1.289229
 30
0.0
 10
65.773459
 20
1.191929
 30
0.0
 10
65.870817
 20
1.094629
 30
0.0
 10
65.968175
 20
0.997329
 30
0.0
 10
66.065522
 20
0.900029
 30
0.0
 10
66.162880
 20
0.802729
 30
0.0
 10
66.260238
 20
0.705429
 30
0.0
 10
66.357596
 20
0.608129
 30
0.0
 10
66.454954
 20
0.510829
 30
0.0
 10
66.552302
 20
0.413529
 30
0.0
 10
66.649659
 20
0.316229
 30
0.0
  0
LWPOLYLINE
  5
104
100
AcDbEntity
  8
Ebene_1
 62
7
100
AcDbPolyline
 90
128
 70
1
 10
61.172908
 20
5.061889
 30
0.0
 10
61.229885
 20
5.010589
 30
0.0
 10
61.290664
 20
4.966189
 30
0.0
 10
61.354674
 20
4.928689
 30
0.0
 10
61.421350
 20
4.898289
 30
0.0
 10
61.490151
 20
4.874989
 30
0.0
 10
61.560502
 20
4.858589
 30
0.0
 10
61.631841
 20
4.849589
 30
0.0
 10
61.703625
 20
4.847589
 30
0.0
 10
61.775280
 20
4.852589
 30
0.0
 10
61.846263
 20
4.864089
 30
0.0
 10
61.915992
 20
4.882489
 30
0.0
 10
61.983924
 20
4.907989
 30
0.0
 10
62.049494
 20
4.940489
 30
0.0
 10
62.112150
 20
4.979889
 30
0.0
 10
62.171329
 20
5.026189
 30
0.0
 10
62.226478
 20
5.079489
 30
0.0
 10
63.547412
 20
6.641179
 30
0.0
 10
64.692166
 20
8.294649
 30
0.0
 10
65.660750
 20
10.026809
 30
0.0
 10
66.453179
 20
11.824509
 30
0.0
 10
67.069461
 20
13.674649
 30
0.0
 10
67.509610
 20
15.564099
 30
0.0
 10
67.773639
 20
17.479749
 30
0.0
 10
67.861564
 20
19.408489
 30
0.0
 10
67.773392
 20
21.337199
 30
0.0
 10
67.509133
 20
23.252749
 30
0.0
 10
67.068801
 20
25.142039
 30
0.0
 10
66.452410
 20
26.991919
 30
0.0
 10
65.659969
 20
28.789309
 30
0.0
 10
64.691494
 20
30.521079
 30
0.0
 10
63.546995
 20
32.174109
 30
0.0
 10
62.226485
 20
33.735259
 30
0.0
 10
62.171336
 20
33.788559
 30
0.0
 10
62.112157
 20
33.834859
 30
0.0
 10
62.049501
 20
33.874259
 30
0.0
 10
61.983921
 20
33.906659
 30
0.0
 10
61.915989
 20
33.932159
 30
0.0
 10
61.846260
 20
33.950559
 30
0.0
 10
61.775277
 20
33.962059
 30
0.0
 10
61.703622
 20
33.967059
 30
0.0
 10
61.631848
 20
33.965059
 30
0.0
 10
61.560509
 20
33.956059
 30
0.0
 10
61.490158
 20
33.939659
 30
0.0
 10
61.421367
 20
33.916159
 30
0.0
 10
61.354690
 20
33.885759
 30
0.0
 10
61.290691
 20
33.848259
 30
0.0
 10
61.229921
 20
33.803859
 30
0.0
 10
61.172945
 20
33.752459
 30
0.0
 10
61.075587
 20
33.655159
 30
0.0
 10
60.978229
 20
33.557859
 30
0.0
 10
60.880871
 20
33.460559
 30
0.0
 10
60.783513
 20
33.363259
 30
0.0
 10
60.686156
 20
33.265959
 30
0.0
 10
60.588798
 20
33.168659
 30
0.0
 10
60.491440
 20
33.071359
 30
0.0
 10
60.394082
 20
32.974059
 30
0.0
 10
60.296724
 20
32.876759
 30
0.0
 10
60.199367
 20
32.779459
 30
0.0
 10
60.102009
 20
32.682159
 30
0.0
 10
60.004651
 20
32.584859
 30
0.0
 10
59.907293
 20
32.487559
 30
0.0
 10
59.809935
 20
32.390259
 30
0.0
 10
59.712577
 20
32.292959
 30
0.0
 10
59.615220
 20
32.195659
 30
0.0
 10
59.566007
 20
32.141359
 30
0.0
 10
59.523206
 20
32.083559
 30
0.0
 10
59.486815
 20
32.022759
 30
0.0
 10
59.456835
 20
31.959359
 30
0.0
 10
59.433266
 20
31.893859
 30
0.0
 10
59.416108
 20
31.826859
 30
0.0
 10
59.405312
 20
31.758759
 30
0.0
 10
59.401064
 20
31.690159
 30
0.0
 10
59.403237
 20
31.621259
 30
0.0
 10
59.411831
 20
31.552859
 30
0.0
 10
59.426777
 20
31.485259
 30
0.0
 10
59.448133
 20
31.418959
 30
0.0
 10
59.475920
 20
31.354459
 30
0.0
 10
59.510137
 20
31.292159
 30
0.0
 10
59.550775
 20
31.232759
 30
0.0
 10
59.597844
 20
31.176559
 30
0.0
 10
60.675430
 20
29.891149
 30
0.0
 10
61.609372
 20
28.531589
 30
0.0
 10
62.399659
 20
27.108479
 30
0.0
 10
63.046287
 20
25.632399
 30
0.0
 10
63.549248
 20
24.113949
 30
0.0
 10
63.908536
 20
22.563709
 30
0.0
 10
64.124142
 20
20.992269
 30
0.0
 10
64.196054
 20
19.410219
 30
0.0
 10
64.124270
 20
17.828159
 30
0.0
 10
63.908793
 20
16.256659
 30
0.0
 10
63.549609
 20
14.706319
 30
0.0
 10
63.046710
 20
13.187729
 30
0.0
 10
62.400090
 20
11.711479
 30
0.0
 10
61.609740
 20
10.288139
 30
0.0
 10
60.675655
 20
8.928329
 30
0.0
 10
59.597828
 20
7.642609
 30
0.0
 10
59.550760
 20
7.586409
 30
0.0
 10
59.510121
 20
7.526909
 30
0.0
 10
59.475904
 20
7.464609
 30
0.0
 10
59.448117
 20
7.400109
 30
0.0
 10
59.426761
 20
7.333709
 30
0.0
 10
59.411815
 20
7.266109
 30
0.0
 10
59.403221
 20
7.197709
 30
0.0
 10
59.401048
 20
7.128809
 30
0.0
 10
59.405395
 20
7.060209
 30
0.0
 10
59.416191
 20
6.992109
 30
0.0
 10
59.433349
 20
6.925209
 30
0.0
 10
59.456918
 20
6.859709
 30
0.0
 10
59.486898
 20
6.796309
 30
0.0
 10
59.523289
 20
6.735509
 30
0.0
 10
59.566090
 20
6.677709
 30
0.0
 10
59.615303
 20
6.623409
 30
0.0
 10
59.712660
 20
6.526109
 30
0.0
 10
59.810018
 20
6.428809
 30
0.0
 10
59.907376
 20
6.331509
 30
0.0
 10
60.004734
 20
6.234209
 30
0.0
 10
60.102092
 20
6.136909
 30
0.0
 10
60.199450
 20
6.039609
 30
0.0
 10
60.296807
 20
5.942309
 30
0.0
 10
60.394165
 20
5.845009
 30
0.0
 10
60.491523
 20
5.747709
 30
0.0
 10
60.588881
 20
5.650409
 30
0.0
 10
60.686229
 20
5.553109
 30
0.0
 10
60.783587
 20
5.455809
 30
0.0
 10
60.880944
 20
5.358509
 30
0.0
 10
60.978302
 20
5.261209
 30
0.0
 10
61.075660
 20
5.163909
 30
0.0
  0
LWPOLYLINE
  5
105
100
AcDbEntity
  8
Ebene_1
 62
7
100
AcDbPolyline
 90
512
 70
1
 10
55.957662
 20
10.203399
 30
0.0
 10
55.971708
 20
10.189699
 30
0.0
 10
55.986012
 20
10.176499
 30
0.0
 10
56.000572
 20
10.163799
 30
0.0
 10
56.015389
 20
10.151499
 30
0.0
 10
56.030463
 20
10.139699
 30
0.0
 10
56.045754
 20
10.128199
 30
0.0
 10
56.061272
 20
10.116799
 30
0.0
 10
56.076988
 20
10.106599
 30
0.0
 10
56.092921
 20
10.096399
 30
0.0
 10
56.109052
 20
10.087399
 30
0.0
 10
56.125361
 20
10.078399
 30
0.0
 10
56.141867
 20
10.069399
 30
0.0
 10
56.158521
 20
10.061399
 30
0.0
 10
56.175334
 20
10.053399
 30
0.0
 10
56.192304
 20
10.046399
 30
0.0
 10
56.209403
 20
10.039399
 30
0.0
 10
56.226650
 20
10.032399
 30
0.0
 10
56.244026
 20
10.026399
 30
0.0
 10
56.261510
 20
10.020399
 30
0.0
 10
56.279102
 20
10.015399
 30
0.0
 10
56.296794
 20
10.010399
 30
0.0
 10
56.314574
 20
10.005399
 30
0.0
 10
56.332434
 20
10.002399
 30
0.0
 10
56.350363
 20
9.999399
 30
0.0
 10
56.368341
 20
9.997399
 30
0.0
 10
56.386378
 20
9.995399
 30
0.0
 10
56.404445
 20
9.993399
 30
0.0
 10
56.422551
 20
9.992399
 30
0.0
 10
56.440687
 20
9.991399
 30
0.0
 10
56.458833
 20
9.990839
 30
0.0
 10
56.476999
 20
9.990669
 30
0.0
 10
56.495145
 20
9.990839
 30
0.0
 10
56.513281
 20
9.991399
 30
0.0
 10
56.531397
 20
9.992399
 30
0.0
 10
56.549484
 20
9.993399
 30
0.0
 10
56.567531
 20
9.995399
 30
0.0
 10
56.585539
 20
9.997399
 30
0.0
 10
56.603487
 20
9.999399
 30
0.0
 10
56.621366
 20
10.002399
 30
0.0
 10
56.639166
 20
10.005399
 30
0.0
 10
56.656878
 20
10.010399
 30
0.0
 10
56.674500
 20
10.015399
 30
0.0
 10
56.692024
 20
10.020399
 30
0.0
 10
56.709429
 20
10.026399
 30
0.0
 10
56.726715
 20
10.032399
 30
0.0
 10
56.743873
 20
10.039399
 30
0.0
 10
56.760903
 20
10.046399
 30
0.0
 10
56.777775
 20
10.053399
 30
0.0
 10
56.794488
 20
10.061399
 30
0.0
 10
56.811044
 20
10.069399
 30
0.0
 10
56.827402
 20
10.078399
 30
0.0
 10
56.843592
 20
10.087399
 30
0.0
 10
56.859594
 20
10.096399
 30
0.0
 10
56.875380
 20
10.106599
 30
0.0
 10
56.890967
 20
10.116799
 30
0.0
 10
56.906318
 20
10.128199
 30
0.0
 10
56.921451
 20
10.139599
 30
0.0
 10
56.936337
 20
10.151299
 30
0.0
 10
56.950986
 20
10.163499
 30
0.0
 10
56.965368
 20
10.176099
 30
0.0
 10
56.979494
 20
10.189199
 30
0.0
 10
56.993343
 20
10.202699
 30
0.0
 10
57.006905
 20
10.216699
 30
0.0
 10
57.020162
 20
10.231199
 30
0.0
 10
57.235974
 20
10.477789
 30
0.0
 10
57.444927
 20
10.728209
 30
0.0
 10
57.647022
 20
10.982349
 30
0.0
 10
57.842259
 20
11.240059
 30
0.0
 10
58.030638
 20
11.501249
 30
0.0
 10
58.212160
 20
11.765769
 30
0.0
 10
58.386827
 20
12.033519
 30
0.0
 10
58.554635
 20
12.304349
 30
0.0
 10
58.715586
 20
12.578149
 30
0.0
 10
58.869684
 20
12.854799
 30
0.0
 10
59.016925
 20
13.134159
 30
0.0
 10
59.157312
 20
13.416129
 30
0.0
 10
59.290843
 20
13.700569
 30
0.0
 10
59.417522
 20
13.987359
 30
0.0
 10
59.537343
 20
14.276369
 30
0.0
 10
59.650313
 20
14.567489
 30
0.0
 10
59.756424
 20
14.860579
 30
0.0
 10
59.855685
 20
15.155519
 30
0.0
 10
59.948104
 20
15.452189
 30
0.0
 10
60.033658
 20
15.750469
 30
0.0
 10
60.112366
 20
16.050239
 30
0.0
 10
60.184228
 20
16.351359
 30
0.0
 10
60.249236
 20
16.653709
 30
0.0
 10
60.307388
 20
16.957179
 30
0.0
 10
60.358684
 20
17.261629
 30
0.0
 10
60.403135
 20
17.566959
 30
0.0
 10
60.440741
 20
17.873009
 30
0.0
 10
60.471501
 20
18.179669
 30
0.0
 10
60.495406
 20
18.486839
 30
0.0
 10
60.512465
 20
18.794369
 30
0.0
 10
60.522699
 20
19.102139
 30
0.0
 10
60.526058
 20
19.410029
 30
0.0
 10
60.522600
 20
19.717909
 30
0.0
 10
60.512258
 20
20.025669
 30
0.0
 10
60.495090
 20
20.333179
 30
0.0
 10
60.471067
 20
20.640309
 30
0.0
 10
60.440198
 20
20.946939
 30
0.0
 10
60.402483
 20
21.252939
 30
0.0
 10
60.357914
 20
21.558209
 30
0.0
 10
60.306509
 20
21.862599
 30
0.0
 10
60.248258
 20
22.165979
 30
0.0
 10
60.183162
 20
22.468259
 30
0.0
 10
60.111230
 20
22.769289
 30
0.0
 10
60.032443
 20
23.068959
 30
0.0
 10
59.946810
 20
23.367129
 30
0.0
 10
59.854342
 20
23.663689
 30
0.0
 10
59.755035
 20
23.958499
 30
0.0
 10
59.648880
 20
24.251459
 30
0.0
 10
59.535886
 20
24.542439
 30
0.0
 10
59.416050
 20
24.831299
 30
0.0
 10
59.289372
 20
25.117919
 30
0.0
 10
59.155854
 20
25.402189
 30
0.0
 10
59.015498
 20
25.683979
 30
0.0
 10
58.868301
 20
25.963159
 30
0.0
 10
58.714265
 20
26.239609
 30
0.0
 10
58.553388
 20
26.513209
 30
0.0
 10
58.385674
 20
26.783829
 30
0.0
 10
58.211122
 20
27.051339
 30
0.0
 10
58.029731
 20
27.315649
 30
0.0
 10
57.841504
 20
27.576579
 30
0.0
 10
57.646439
 20
27.834069
 30
0.0
 10
57.444536
 20
28.087939
 30
0.0
 10
57.235799
 20
28.338099
 30
0.0
 10
57.020224
 20
28.584399
 30
0.0
 10
57.006968
 20
28.598899
 30
0.0
 10
56.993405
 20
28.612899
 30
0.0
 10
56.979546
 20
28.626399
 30
0.0
 10
56.965421
 20
28.639499
 30
0.0
 10
56.951038
 20
28.652099
 30
0.0
 10
56.936389
 20
28.664399
 30
0.0
 10
56.921503
 20
28.676099
 30
0.0
 10
56.906370
 20
28.687499
 30
0.0
 10
56.891019
 20
28.698899
 30
0.0
 10
56.875432
 20
28.709099
 30
0.0
 10
56.859647
 20
28.719399
 30
0.0
 10
56.843644
 20
28.728399
 30
0.0
 10
56.827454
 20
28.737399
 30
0.0
 10
56.811096
 20
28.746399
 30
0.0
 10
56.794541
 20
28.754399
 30
0.0
 10
56.777827
 20
28.762399
 30
0.0
 10
56.760955
 20
28.769399
 30
0.0
 10
56.743926
 20
28.776399
 30
0.0
 10
56.726768
 20
28.783399
 30
0.0
 10
56.709481
 20
28.789399
 30
0.0
 10
56.692076
 20
28.795399
 30
0.0
 10
56.674552
 20
28.800399
 30
0.0
 10
56.656930
 20
28.805399
 30
0.0
 10
56.639209
 20
28.810399
 30
0.0
 10
56.621409
 20
28.813399
 30
0.0
 10
56.603529
 20
28.816399
 30
0.0
 10
56.585581
 20
28.818399
 30
0.0
 10
56.567593
 20
28.820399
 30
0.0
 10
56.549546
 20
28.822399
 30
0.0
 10
56.531459
 20
28.823399
 30
0.0
 10
56.513343
 20
28.824399
 30
0.0
 10
56.495207
 20
28.824969
 30
0.0
 10
56.477061
 20
28.825139
 30
0.0
 10
56.458905
 20
28.824969
 30
0.0
 10
56.440759
 20
28.824399
 30
0.0
 10
56.422623
 20
28.823399
 30
0.0
 10
56.404517
 20
28.822399
 30
0.0
 10
56.386450
 20
28.820399
 30
0.0
 10
56.368413
 20
28.818399
 30
0.0
 10
56.350435
 20
28.816399
 30
0.0
 10
56.332506
 20
28.813399
 30
0.0
 10
56.314647
 20
28.810399
 30
0.0
 10
56.296866
 20
28.805399
 30
0.0
 10
56.279175
 20
28.800399
 30
0.0
 10
56.261582
 20
28.795399
 30
0.0
 10
56.244098
 20
28.789399
 30
0.0
 10
56.226722
 20
28.783399
 30
0.0
 10
56.209475
 20
28.776399
 30
0.0
 10
56.192357
 20
28.769399
 30
0.0
 10
56.175386
 20
28.762399
 30
0.0
 10
56.158574
 20
28.754399
 30
0.0
 10
56.141919
 20
28.746399
 30
0.0
 10
56.125413
 20
28.737399
 30
0.0
 10
56.109105
 20
28.728399
 30
0.0
 10
56.092974
 20
28.719399
 30
0.0
 10
56.077041
 20
28.709099
 30
0.0
 10
56.061325
 20
28.698899
 30
0.0
 10
56.045806
 20
28.687499
 30
0.0
 10
56.030515
 20
28.675999
 30
0.0
 10
56.015441
 20
28.664199
 30
0.0
 10
56.000624
 20
28.651899
 30
0.0
 10
55.986064
 20
28.639199
 30
0.0
 10
55.971761
 20
28.625999
 30
0.0
 10
55.957714
 20
28.612299
 30
0.0
 10
55.933345
 20
28.587899
 30
0.0
 10
55.908976
 20
28.563499
 30
0.0
 10
55.884607
 20
28.539099
 30
0.0
 10
55.860238
 20
28.514699
 30
0.0
 10
55.835869
 20
28.490299
 30
0.0
 10
55.811500
 20
28.465899
 30
0.0
 10
55.787130
 20
28.441499
 30
0.0
 10
55.762761
 20
28.417099
 30
0.0
 10
55.738392
 20
28.392699
 30
0.0
 10
55.714023
 20
28.368299
 30
0.0
 10
55.689654
 20
28.343899
 30
0.0
 10
55.665285
 20
28.319499
 30
0.0
 10
55.640916
 20
28.295099
 30
0.0
 10
55.616547
 20
28.270699
 30
0.0
 10
55.592178
 20
28.246299
 30
0.0
 10
55.567809
 20
28.221899
 30
0.0
 10
55.543440
 20
28.197499
 30
0.0
 10
55.519070
 20
28.173099
 30
0.0
 10
55.494701
 20
28.148699
 30
0.0
 10
55.470332
 20
28.124299
 30
0.0
 10
55.445963
 20
28.099899
 30
0.0
 10
55.421594
 20
28.075499
 30
0.0
 10
55.397225
 20
28.051099
 30
0.0
 10
55.372856
 20
28.026699
 30
0.0
 10
55.348487
 20
28.002299
 30
0.0
 10
55.324118
 20
27.977899
 30
0.0
 10
55.299749
 20
27.953499
 30
0.0
 10
55.275380
 20
27.929099
 30
0.0
 10
55.251011
 20
27.904699
 30
0.0
 10
55.226641
 20
27.880299
 30
0.0
 10
55.202272
 20
27.855899
 30
0.0
 10
55.177903
 20
27.831499
 30
0.0
 10
55.153534
 20
27.807099
 30
0.0
 10
55.129165
 20
27.782699
 30
0.0
 10
55.104796
 20
27.758299
 30
0.0
 10
55.080427
 20
27.733899
 30
0.0
 10
55.056058
 20
27.709499
 30
0.0
 10
55.031689
 20
27.685099
 30
0.0
 10
55.007320
 20
27.660699
 30
0.0
 10
54.982951
 20
27.636299
 30
0.0
 10
54.958581
 20
27.611899
 30
0.0
 10
54.934212
 20
27.587499
 30
0.0
 10
54.909843
 20
27.563099
 30
0.0
 10
54.885474
 20
27.538699
 30
0.0
 10
54.861105
 20
27.514299
 30
0.0
 10
54.836736
 20
27.489899
 30
0.0
 10
54.812367
 20
27.465499
 30
0.0
 10
54.787998
 20
27.441099
 30
0.0
 10
54.763629
 20
27.416699
 30
0.0
 10
54.739260
 20
27.392299
 30
0.0
 10
54.714891
 20
27.367899
 30
0.0
 10
54.690522
 20
27.343499
 30
0.0
 10
54.666152
 20
27.319099
 30
0.0
 10
54.641783
 20
27.294699
 30
0.0
 10
54.617414
 20
27.270299
 30
0.0
 10
54.593045
 20
27.245899
 30
0.0
 10
54.568676
 20
27.221499
 30
0.0
 10
54.544307
 20
27.197099
 30
0.0
 10
54.519938
 20
27.172699
 30
0.0
 10
54.495569
 20
27.148299
 30
0.0
 10
54.471200
 20
27.123899
 30
0.0
 10
54.446831
 20
27.099499
 30
0.0
 10
54.422462
 20
27.075099
 30
0.0
 10
54.398092
 20
27.050699
 30
0.0
 10
54.385547
 20
27.037799
 30
0.0
 10
54.373358
 20
27.024699
 30
0.0
 10
54.361564
 20
27.011399
 30
0.0
 10
54.350125
 20
26.997899
 30
0.0
 10
54.339101
 20
26.984099
 30
0.0
 10
54.328413
 20
26.970099
 30
0.0
 10
54.318071
 20
26.955899
 30
0.0
 10
54.308173
 20
26.941599
 30
0.0
 10
54.298591
 20
26.926999
 30
0.0
 10
54.289405
 20
26.912299
 30
0.0
 10
54.280613
 20
26.897399
 30
0.0
 10
54.272217
 20
26.882399
 30
0.0
 10
54.264117
 20
26.867299
 30
0.0
 10
54.256511
 20
26.851899
 30
0.0
 10
54.249201
 20
26.836399
 30
0.0
 10
54.242188
 20
26.820799
 30
0.0
 10
54.235668
 20
26.805099
 30
0.0
 10
54.229445
 20
26.789299
 30
0.0
 10
54.223716
 20
26.773399
 30
0.0
 10
54.218283
 20
26.757299
 30
0.0
 10
54.213245
 20
26.741099
 30
0.0
 10
54.208602
 20
26.724799
 30
0.0
 10
54.204355
 20
26.708399
 30
0.0
 10
54.200404
 20
26.691999
 30
0.0
 10
54.196946
 20
26.675499
 30
0.0
 10
54.193785
 20
26.658899
 30
0.0
 10
54.191019
 20
26.642299
 30
0.0
 10
54.188649
 20
26.625599
 30
0.0
 10
54.186673
 20
26.608899
 30
0.0
 10
54.185093
 20
26.592199
 30
0.0
 10
54.183808
 20
26.575399
 30
0.0
 10
54.182925
 20
26.558499
 30
0.0
 10
54.182406
 20
26.541599
 30
0.0
 10
54.182346
 20
26.524799
 30
0.0
 10
54.182691
 20
26.507899
 30
0.0
 10
54.183409
 20
26.490999
 30
0.0
 10
54.184496
 20
26.474199
 30
0.0
 10
54.186076
 20
26.457499
 30
0.0
 10
54.187953
 20
26.440799
 30
0.0
 10
54.190225
 20
26.424099
 30
0.0
 10
54.192892
 20
26.407499
 30
0.0
 10
54.195954
 20
26.390899
 30
0.0
 10
54.199313
 20
26.374299
 30
0.0
 10
54.203165
 20
26.357799
 30
0.0
 10
54.207314
 20
26.341399
 30
0.0
 10
54.211957
 20
26.324999
 30
0.0
 10
54.216896
 20
26.308699
 30
0.0
 10
54.222329
 20
26.292499
 30
0.0
 10
54.228058
 20
26.276399
 30
0.0
 10
54.234281
 20
26.260499
 30
0.0
 10
54.240801
 20
26.244699
 30
0.0
 10
54.247814
 20
26.228999
 30
0.0
 10
54.255124
 20
26.213399
 30
0.0
 10
54.262927
 20
26.197999
 30
0.0
 10
54.271027
 20
26.182699
 30
0.0
 10
54.279621
 20
26.167599
 30
0.0
 10
54.288512
 20
26.152699
 30
0.0
 10
54.297797
 20
26.137899
 30
0.0
 10
54.307477
 20
26.123199
 30
0.0
 10
54.317602
 20
26.108699
 30
0.0
 10
54.328063
 20
26.094499
 30
0.0
 10
54.338969
 20
26.080399
 30
0.0
 10
54.350249
 20
26.066499
 30
0.0
 10
54.361935
 20
26.052799
 30
0.0
 10
54.515582
 20
25.873249
 30
0.0
 10
54.664340
 20
25.691019
 30
0.0
 10
54.808210
 20
25.506179
 30
0.0
 10
54.947192
 20
25.318829
 30
0.0
 10
55.081290
 20
25.129059
 30
0.0
 10
55.210501
 20
24.936939
 30
0.0
 10
55.334826
 20
24.742579
 30
0.0
 10
55.454265
 20
24.546029
 30
0.0
 10
55.568821
 20
24.347409
 30
0.0
 10
55.678496
 20
24.146799
 30
0.0
 10
55.783279
 20
23.944289
 30
0.0
 10
55.883181
 20
23.739949
 30
0.0
 10
55.978208
 20
23.533869
 30
0.0
 10
56.068345
 20
23.326159
 30
0.0
 10
56.153602
 20
23.116889
 30
0.0
 10
56.233980
 20
22.906139
 30
0.0
 10
56.309477
 20
22.694019
 30
0.0
 10
56.380095
 20
22.480589
 30
0.0
 10
56.445834
 20
22.265939
 30
0.0
 10
56.506692
 20
22.050189
 30
0.0
 10
56.562671
 20
21.833389
 30
0.0
 10
56.613770
 20
21.615639
 30
0.0
 10
56.659989
 20
21.397029
 30
0.0
 10
56.701339
 20
21.177649
 30
0.0
 10
56.737808
 20
20.957569
 30
0.0
 10
56.769408
 20
20.736889
 30
0.0
 10
56.796128
 20
20.515699
 30
0.0
 10
56.817968
 20
20.294069
 30
0.0
 10
56.834939
 20
20.072099
 30
0.0
 10
56.847040
 20
19.849899
 30
0.0
 10
56.854250
 20
19.627499
 30
0.0
 10
56.856621
 20
19.405039
 30
0.0
 10
56.854053
 20
19.182579
 30
0.0
 10
56.846644
 20
18.960209
 30
0.0
 10
56.834376
 20
18.738019
 30
0.0
 10
56.817238
 20
18.516099
 30
0.0
 10
56.795229
 20
18.294529
 30
0.0
 10
56.768351
 20
18.073419
 30
0.0
 10
56.736603
 20
17.852809
 30
0.0
 10
56.699985
 20
17.632829
 30
0.0
 10
56.658498
 20
17.413549
 30
0.0
 10
56.612150
 20
17.195059
 30
0.0
 10
56.560923
 20
16.977439
 30
0.0
 10
56.504835
 20
16.760789
 30
0.0
 10
56.443888
 20
16.545189
 30
0.0
 10
56.378070
 20
16.330719
 30
0.0
 10
56.307383
 20
16.117459
 30
0.0
 10
56.231836
 20
15.905539
 30
0.0
 10
56.151419
 20
15.694999
 30
0.0
 10
56.066142
 20
15.485939
 30
0.0
 10
55.976005
 20
15.278449
 30
0.0
 10
55.881008
 20
15.072629
 30
0.0
 10
55.781150
 20
14.868549
 30
0.0
 10
55.676423
 20
14.666309
 30
0.0
 10
55.566839
 20
14.465969
 30
0.0
 10
55.452391
 20
14.267649
 30
0.0
 10
55.333084
 20
14.071409
 30
0.0
 10
55.208916
 20
13.877359
 30
0.0
 10
55.079891
 20
13.685579
 30
0.0
 10
54.946004
 20
13.496149
 30
0.0
 10
54.807262
 20
13.309149
 30
0.0
 10
54.663660
 20
13.124689
 30
0.0
 10
54.515201
 20
12.942819
 30
0.0
 10
54.361888
 20
12.763679
 30
0.0
 10
54.350202
 20
12.749979
 30
0.0
 10
54.338921
 20
12.736079
 30
0.0
 10
54.328016
 20
12.721979
 30
0.0
 10
54.317555
 20
12.707779
 30
0.0
 10
54.307430
 20
12.693279
 30
0.0
 10
54.297750
 20
12.678679
 30
0.0
 10
54.288464
 20
12.663879
 30
0.0
 10
54.279574
 20
12.648979
 30
0.0
 10
54.270980
 20
12.633879
 30
0.0
 10
54.262880
 20
12.618479
 30
0.0
 10
54.255076
 20
12.602979
 30
0.0
 10
54.247767
 20
12.587379
 30
0.0
 10
54.240753
 20
12.571679
 30
0.0
 10
54.234234
 20
12.555879
 30
0.0
 10
54.228011
 20
12.539979
 30
0.0
 10
54.222281
 20
12.523879
 30
0.0
 10
54.216848
 20
12.507679
 30
0.0
 10
54.211909
 20
12.491379
 30
0.0
 10
54.207267
 20
12.474979
 30
0.0
 10
54.203118
 20
12.458579
 30
0.0
 10
54.199266
 20
12.442079
 30
0.0
 10
54.195907
 20
12.425479
 30
0.0
 10
54.192845
 20
12.408879
 30
0.0
 10
54.190178
 20
12.392179
 30
0.0
 10
54.187906
 20
12.375479
 30
0.0
 10
54.186029
 20
12.358779
 30
0.0
 10
54.184449
 20
12.342079
 30
0.0
 10
54.183362
 20
12.325179
 30
0.0
 10
54.182645
 20
12.308279
 30
0.0
 10
54.182298
 20
12.291379
 30
0.0
 10
54.182358
 20
12.274479
 30
0.0
 10
54.182878
 20
12.257679
 30
0.0
 10
54.183761
 20
12.240779
 30
0.0
 10
54.185045
 20
12.223879
 30
0.0
 10
54.186626
 20
12.207179
 30
0.0
 10
54.188601
 20
12.190479
 30
0.0
 10
54.190972
 20
12.173779
 30
0.0
 10
54.193738
 20
12.157179
 30
0.0
 10
54.196899
 20
12.140579
 30
0.0
 10
54.200356
 20
12.124079
 30
0.0
 10
54.204307
 20
12.107679
 30
0.0
 10
54.208555
 20
12.091279
 30
0.0
 10
54.213296
 20
12.074979
 30
0.0
 10
54.218334
 20
12.058779
 30
0.0
 10
54.223767
 20
12.042679
 30
0.0
 10
54.229496
 20
12.026779
 30
0.0
 10
54.235719
 20
12.010979
 30
0.0
 10
54.242239
 20
11.995279
 30
0.0
 10
54.249252
 20
11.979679
 30
0.0
 10
54.256562
 20
11.964179
 30
0.0
 10
54.264168
 20
11.948779
 30
0.0
 10
54.272268
 20
11.933479
 30
0.0
 10
54.280664
 20
11.918479
 30
0.0
 10
54.289456
 20
11.903579
 30
0.0
 10
54.298642
 20
11.888879
 30
0.0
 10
54.308224
 20
11.874279
 30
0.0
 10
54.318122
 20
11.859979
 30
0.0
 10
54.328464
 20
11.845779
 30
0.0
 10
54.339152
 20
11.831779
 30
0.0
 10
54.350176
 20
11.817979
 30
0.0
 10
54.361615
 20
11.804379
 30
0.0
 10
54.373429
 20
11.791079
 30
0.0
 10
54.385609
 20
11.777979
 30
0.0
 10
54.398183
 20
11.765079
 30
0.0
 10
54.422552
 20
11.740679
 30
0.0
 10
54.446922
 20
11.716279
 30
0.0
 10
54.471291
 20
11.691879
 30
0.0
 10
54.495660
 20
11.667479
 30
0.0
 10
54.520029
 20
11.643079
 30
0.0
 10
54.544398
 20
11.618679
 30
0.0
 10
54.568767
 20
11.594279
 30
0.0
 10
54.593136
 20
11.569879
 30
0.0
 10
54.617505
 20
11.545479
 30
0.0
 10
54.641874
 20
11.521079
 30
0.0
 10
54.666243
 20
11.496679
 30
0.0
 10
54.690612
 20
11.472279
 30
0.0
 10
54.714981
 20
11.447879
 30
0.0
 10
54.739351
 20
11.423479
 30
0.0
 10
54.763720
 20
11.399079
 30
0.0
 10
54.788089
 20
11.374679
 30
0.0
 10
54.812458
 20
11.350279
 30
0.0
 10
54.836827
 20
11.325879
 30
0.0
 10
54.861196
 20
11.301479
 30
0.0
 10
54.885565
 20
11.277079
 30
0.0
 10
54.909934
 20
11.252679
 30
0.0
 10
54.934303
 20
11.228279
 30
0.0
 10
54.958672
 20
11.203879
 30
0.0
 10
54.983041
 20
11.179479
 30
0.0
 10
55.007411
 20
11.155079
 30
0.0
 10
55.031780
 20
11.130679
 30
0.0
 10
55.056149
 20
11.106279
 30
0.0
 10
55.080518
 20
11.081879
 30
0.0
 10
55.104887
 20
11.057479
 30
0.0
 10
55.129256
 20
11.033079
 30
0.0
 10
55.153625
 20
11.008679
 30
0.0
 10
55.177994
 20
10.984279
 30
0.0
 10
55.202363
 20
10.959879
 30
0.0
 10
55.226732
 20
10.935479
 30
0.0
 10
55.251101
 20
10.911079
 30
0.0
 10
55.275470
 20
10.886679
 30
0.0
 10
55.299840
 20
10.862279
 30
0.0
 10
55.324209
 20
10.837879
 30
0.0
 10
55.348578
 20
10.813479
 30
0.0
 10
55.372947
 20
10.789079
 30
0.0
 10
55.397316
 20
10.764679
 30
0.0
 10
55.421685
 20
10.740279
 30
0.0
 10
55.446054
 20
10.715879
 30
0.0
 10
55.470423
 20
10.691479
 30
0.0
 10
55.494792
 20
10.667079
 30
0.0
 10
55.519161
 20
10.642679
 30
0.0
 10
55.543530
 20
10.618279
 30
0.0
 10
55.567900
 20
10.593879
 30
0.0
 10
55.592269
 20
10.569479
 30
0.0
 10
55.616638
 20
10.545079
 30
0.0
 10
55.641007
 20
10.520679
 30
0.0
 10
55.665376
 20
10.496279
 30
0.0
 10
55.689745
 20
10.471879
 30
0.0
 10
55.714114
 20
10.447479
 30
0.0
 10
55.738483
 20
10.423079
 30
0.0
 10
55.762852
 20
10.398679
 30
0.0
 10
55.787221
 20
10.374279
 30
0.0
 10
55.811590
 20
10.349879
 30
0.0
 10
55.835959
 20
10.325479
 30
0.0
 10
55.860329
 20
10.301079
 30
0.0
 10
55.884698
 20
10.276679
 30
0.0
 10
55.909067
 20
10.252279
 30
0.0
 10
55.933436
 20
10.227879
 30
0.0
  0
LWPOLYLINE
  5
106
100
AcDbEntity
  8
Ebene_1
 62
7
100
AcDbPolyline
 90
32
 70
1
 10
29.119133
 20
6.527599
 30
0.0
 10
29.289852
 20
6.246519
 30
0.0
 10
29.401933
 20
5.952029
 30
0.0
 10
29.456282
 20
5.652719
 30
0.0
 10
29.454010
 20
5.357199
 30
0.0
 10
29.395612
 20
5.074109
 30
0.0
 10
29.282215
 20
4.812049
 30
0.0
 10
29.114695
 20
4.579619
 30
0.0
 10
28.893982
 20
4.385459
 30
0.0
 10
28.633960
 20
4.244559
 30
0.0
 10
28.353706
 20
4.164859
 30
0.0
 10
28.061932
 20
4.144459
 30
0.0
 10
27.767299
 20
4.181459
 30
0.0
 10
27.478493
 20
4.273859
 30
0.0
 10
27.204209
 20
4.419899
 30
0.0
 10
26.953132
 20
4.617509
 30
0.0
 10
26.733946
 20
4.864809
 30
0.0
 10
26.563227
 20
5.145879
 30
0.0
 10
26.451146
 20
5.440379
 30
0.0
 10
26.396797
 20
5.739689
 30
0.0
 10
26.399069
 20
6.035199
 30
0.0
 10
26.457478
 20
6.318299
 30
0.0
 10
26.570875
 20
6.580359
 30
0.0
 10
26.738394
 20
6.812789
 30
0.0
 10
26.959108
 20
7.006939
 30
0.0
 10
27.219129
 20
7.147849
 30
0.0
 10
27.499383
 20
7.227549
 30
0.0
 10
27.791158
 20
7.247949
 30
0.0
 10
28.085802
 20
7.210949
 30
0.0
 10
28.374597
 20
7.118449
 30
0.0
 10
28.648882
 20
6.972429
 30
0.0
 10
28.899959
 20
6.774799
 30
0.0
  0
LWPOLYLINE
  5
107
100
AcDbEntity
  8
Ebene_1
 62
7
100
AcDbPolyline
 90
32
 70
1
 10
28.772718
 20
7.654629
 30
0.0
 10
29.254132
 20
7.787219
 30
0.0
 10
29.608393
 20
7.888999
 30
0.0
 10
29.865495
 20
7.966499
 30
0.0
 10
30.055420
 20
8.026599
 30
0.0
 10
30.208175
 20
8.075999
 30
0.0
 10
30.353739
 20
8.121399
 30
0.0
 10
30.522113
 20
8.169599
 30
0.0
 10
30.743280
 20
8.227099
 30
0.0
 10
31.376355
 20
8.148799
 30
0.0
 10
31.985452
 20
8.024159
 30
0.0
 10
32.578121
 20
7.863199
 30
0.0
 10
33.161912
 20
7.675859
 30
0.0
 10
33.744375
 20
7.472099
 30
0.0
 10
34.333062
 20
7.261869
 30
0.0
 10
34.935524
 20
7.055079
 30
0.0
 10
35.559310
 20
6.861709
 30
0.0
 10
34.975147
 20
6.613459
 30
0.0
 10
34.246581
 20
6.312319
 30
0.0
 10
33.428519
 20
5.979769
 30
0.0
 10
32.575866
 20
5.637239
 30
0.0
 10
31.743528
 20
5.306219
 30
0.0
 10
30.986406
 20
5.008159
 30
0.0
 10
30.359412
 20
4.764519
 30
0.0
 10
29.917443
 20
4.596769
 30
0.0
 10
30.097481
 20
5.243259
 30
0.0
 10
30.148570
 20
5.789809
 30
0.0
 10
30.089015
 20
6.248659
 30
0.0
 10
29.937144
 20
6.632009
 30
0.0
 10
29.711260
 20
6.952079
 30
0.0
 10
29.429681
 20
7.221099
 30
0.0
 10
29.110726
 20
7.451259
 30
0.0
  0
LWPOLYLINE
  5
108
100
AcDbEntity
  8
Ebene_1
 62
7
100
AcDbPolyline
 90
32
 70
1
 10
47.981249
 20
12.316639
 30
0.0
 10
45.662539
 20
11.969669
 30
0.0
 10
43.818160
 20
11.664729
 30
0.0
 10
42.388422
 20
11.399899
 30
0.0
 10
41.313642
 20
11.173329
 30
0.0
 10
40.534137
 20
10.983139
 30
0.0
 10
39.990222
 20
10.827469
 30
0.0
 10
39.622210
 20
10.704419
 30
0.0
 10
39.370418
 20
10.612119
 30
0.0
 10
40.104823
 20
10.403719
 30
0.0
 10
40.822279
 20
10.208009
 30
0.0
 10
41.525189
 20
10.025439
 30
0.0
 10
42.215942
 20
9.856299
 30
0.0
 10
42.896940
 20
9.700999
 30
0.0
 10
43.570579
 20
9.559879
 30
0.0
 10
44.239253
 20
9.433319
 30
0.0
 10
44.905359
 20
9.321639
 30
0.0
 10
45.606281
 20
9.482109
 30
0.0
 10
46.287787
 20
9.633559
 30
0.0
 10
46.938441
 20
9.775429
 30
0.0
 10
47.546813
 20
9.907079
 30
0.0
 10
48.101469
 20
10.027919
 30
0.0
 10
48.590976
 20
10.137319
 30
0.0
 10
49.003899
 20
10.234819
 30
0.0
 10
49.328805
 20
10.319619
 30
0.0
 10
49.400974
 20
10.596699
 30
0.0
 10
49.419959
 20
10.884829
 30
0.0
 10
49.377968
 20
11.174549
 30
0.0
 10
49.267225
 20
11.456429
 30
0.0
 10
49.079958
 20
11.721009
 30
0.0
 10
48.808391
 20
11.958859
 30
0.0
 10
48.444744
 20
12.160539
 30
0.0
  0
LWPOLYLINE
  5
109
100
AcDbEntity
  8
Ebene_1
 62
7
100
AcDbPolyline
 90
32
 70
1
 10
49.629364
 20
6.076399
 30
0.0
 10
49.489329
 20
5.804249
 30
0.0
 10
49.311462
 20
5.568699
 30
0.0
 10
49.102903
 20
5.373519
 30
0.0
 10
48.870822
 20
5.222499
 30
0.0
 10
48.622365
 20
5.119469
 30
0.0
 10
48.364685
 20
5.068169
 30
0.0
 10
48.104939
 20
5.071169
 30
0.0
 10
47.850281
 20
5.134569
 30
0.0
 10
47.618918
 20
5.254759
 30
0.0
 10
47.425981
 20
5.421659
 30
0.0
 10
47.274013
 20
5.627789
 30
0.0
 10
47.165564
 20
5.865729
 30
0.0
 10
47.103164
 20
6.128009
 30
0.0
 10
47.089365
 20
6.407219
 30
0.0
 10
47.126713
 20
6.695869
 30
0.0
 10
47.217759
 20
6.986539
 30
0.0
 10
47.357795
 20
7.258689
 30
0.0
 10
47.535661
 20
7.494239
 30
0.0
 10
47.744219
 20
7.689429
 30
0.0
 10
47.976301
 20
7.840439
 30
0.0
 10
48.224758
 20
7.943469
 30
0.0
 10
48.482438
 20
7.994769
 30
0.0
 10
48.742183
 20
7.991769
 30
0.0
 10
48.996842
 20
7.928369
 30
0.0
 10
49.228205
 20
7.808169
 30
0.0
 10
49.421142
 20
7.641289
 30
0.0
 10
49.573110
 20
7.435149
 30
0.0
 10
49.681559
 20
7.197209
 30
0.0
 10
49.743958
 20
6.934919
 30
0.0
 10
49.757758
 20
6.655709
 30
0.0
 10
49.720409
 20
6.367069
 30
0.0
  0
LWPOLYLINE
  5
10a
100
AcDbEntity
  8
Ebene_1
 62
7
100
AcDbPolyline
 90
64
 70
1
 10
28.707302
 20
11.767469
 30
0.0
 10
31.440531
 20
11.388799
 30
0.0
 10
33.512970
 20
11.107819
 30
0.0
 10
35.042832
 20
10.900839
 30
0.0
 10
36.148331
 20
10.744249
 30
0.0
 10
36.947680
 20
10.614399
 30
0.0
 10
37.559091
 20
10.487579
 30
0.0
 10
38.100780
 20
10.340179
 30
0.0
 10
38.690956
 20
10.148509
 30
0.0
 10
39.540185
 20
9.890459
 30
0.0
 10
40.612365
 20
9.610809
 30
0.0
 10
41.837540
 20
9.324569
 30
0.0
 10
43.145754
 20
9.046789
 30
0.0
 10
44.467050
 20
8.792469
 30
0.0
 10
45.731473
 20
8.576679
 30
0.0
 10
46.869067
 20
8.414429
 30
0.0
 10
47.809873
 20
8.320729
 30
0.0
 10
47.112651
 20
7.967409
 30
0.0
 10
46.656761
 20
7.591409
 30
0.0
 10
46.397158
 20
7.201619
 30
0.0
 10
46.288799
 20
6.806939
 30
0.0
 10
46.286626
 20
6.416249
 30
0.0
 10
46.345618
 20
6.038429
 30
0.0
 10
46.420720
 20
5.682369
 30
0.0
 10
46.466890
 20
5.356989
 30
0.0
 10
45.445972
 20
5.676779
 30
0.0
 10
44.502028
 20
5.928459
 30
0.0
 10
43.609547
 20
6.125749
 30
0.0
 10
42.743015
 20
6.282509
 30
0.0
 10
41.876924
 20
6.412479
 30
0.0
 10
40.985760
 20
6.529479
 30
0.0
 10
40.044010
 20
6.647299
 30
0.0
 10
39.026164
 20
6.779719
 30
0.0
 10
38.680288
 20
6.828219
 30
0.0
 10
38.267528
 20
6.889019
 30
0.0
 10
37.805325
 20
6.963719
 30
0.0
 10
37.311120
 20
7.053619
 30
0.0
 10
36.802346
 20
7.160409
 30
0.0
 10
36.296451
 20
7.285619
 30
0.0
 10
35.810868
 20
7.430739
 30
0.0
 10
35.363039
 20
7.597339
 30
0.0
 10
34.892533
 20
7.780219
 30
0.0
 10
34.340195
 20
7.968879
 30
0.0
 10
33.725383
 20
8.156729
 30
0.0
 10
33.067453
 20
8.337329
 30
0.0
 10
32.385759
 20
8.504119
 30
0.0
 10
31.699657
 20
8.650589
 30
0.0
 10
31.028504
 20
8.770239
 30
0.0
 10
30.391655
 20
8.856539
 30
0.0
 10
29.851727
 20
8.918439
 30
0.0
 10
29.436547
 20
8.970139
 30
0.0
 10
29.113278
 20
9.012939
 30
0.0
 10
28.849069
 20
9.048039
 30
0.0
 10
28.611085
 20
9.076539
 30
0.0
 10
28.366485
 20
9.099639
 30
0.0
 10
28.082429
 20
9.118639
 30
0.0
 10
27.726078
 20
9.134739
 30
0.0
 10
27.603019
 20
9.626519
 30
0.0
 10
27.572891
 20
10.066209
 30
0.0
 10
27.624375
 20
10.456609
 30
0.0
 10
27.746052
 20
10.800549
 30
0.0
 10
27.926560
 20
11.100819
 30
0.0
 10
28.154514
 20
11.360209
 30
0.0
 10
28.418535
 20
11.581529
 30
0.0
  0
LWPOLYLINE
  5
10b
100
AcDbEntity
  8
Ebene_1
 62
7
100
AcDbPolyline
 90
64
 70
1
 10
31.149958
 20
24.278319
 30
0.0
 10
30.382061
 20
23.695909
 30
0.0
 10
29.710506
 20
23.117109
 30
0.0
 10
29.131393
 20
22.542959
 30
0.0
 10
28.640842
 20
21.974559
 30
0.0
 10
28.234959
 20
21.413049
 30
0.0
 10
27.909864
 20
20.859499
 30
0.0
 10
27.661650
 20
20.314919
 30
0.0
 10
27.486444
 20
19.780469
 30
0.0
 10
27.380345
 20
19.257269
 30
0.0
 10
27.339460
 20
18.746329
 30
0.0
 10
27.359927
 20
18.248809
 30
0.0
 10
27.437835
 20
17.765699
 30
0.0
 10
27.569309
 20
17.298159
 30
0.0
 10
27.750439
 20
16.847329
 30
0.0
 10
27.977338
 20
16.414209
 30
0.0
 10
28.246137
 20
15.999879
 30
0.0
 10
28.552931
 20
15.605489
 30
0.0
 10
28.893836
 20
15.232099
 30
0.0
 10
29.264957
 20
14.880799
 30
0.0
 10
29.662416
 20
14.552669
 30
0.0
 10
30.082314
 20
14.248849
 30
0.0
 10
30.520763
 20
13.970389
 30
0.0
 10
30.973877
 20
13.718339
 30
0.0
 10
31.437761
 20
13.493809
 30
0.0
 10
31.908533
 20
13.297969
 30
0.0
 10
32.382297
 20
13.131809
 30
0.0
 10
32.855173
 20
12.996399
 30
0.0
 10
33.323261
 20
12.892919
 30
0.0
 10
33.782678
 20
12.822419
 30
0.0
 10
34.229536
 20
12.785919
 30
0.0
 10
34.659938
 20
12.785919
 30
0.0
 10
35.070002
 20
12.820619
 30
0.0
 10
34.564079
 20
13.123679
 30
0.0
 10
34.092626
 20
13.433609
 30
0.0
 10
33.654669
 20
13.750079
 30
0.0
 10
33.249237
 20
14.072819
 30
0.0
 10
32.875357
 20
14.401429
 30
0.0
 10
32.532057
 20
14.735549
 30
0.0
 10
32.218362
 20
15.074939
 30
0.0
 10
31.933296
 20
15.419229
 30
0.0
 10
31.675883
 20
15.768009
 30
0.0
 10
31.445159
 20
16.121039
 30
0.0
 10
31.240143
 20
16.477969
 30
0.0
 10
31.059868
 20
16.838419
 30
0.0
 10
30.903352
 20
17.202109
 30
0.0
 10
30.769628
 20
17.568679
 30
0.0
 10
30.657715
 20
17.937809
 30
0.0
 10
30.566649
 20
18.309159
 30
0.0
 10
30.495449
 20
18.682359
 30
0.0
 10
30.443144
 20
19.057119
 30
0.0
 10
30.408769
 20
19.433079
 30
0.0
 10
30.391334
 20
19.809939
 30
0.0
 10
30.390248
 20
20.187329
 30
0.0
 10
30.403761
 20
20.564959
 30
0.0
 10
30.431350
 20
20.942479
 30
0.0
 10
30.472008
 20
21.319509
 30
0.0
 10
30.524757
 20
21.695709
 30
0.0
 10
30.588588
 20
22.070829
 30
0.0
 10
30.662545
 20
22.444509
 30
0.0
 10
30.745669
 20
22.816339
 30
0.0
 10
30.836981
 20
23.186129
 30
0.0
 10
30.935505
 20
23.553409
 30
0.0
 10
31.040277
 20
23.917879
 30
0.0
  0
LWPOLYLINE
  5
10c
100
AcDbEntity
  8
Ebene_1
 62
7
100
AcDbPolyline
 90
128
 70
1
 10
45.973012
 20
27.688689
 30
0.0
 10
46.360264
 20
27.268259
 30
0.0
 10
46.720742
 20
26.845249
 30
0.0
 10
47.055124
 20
26.420339
 30
0.0
 10
47.364079
 20
25.994159
 30
0.0
 10
47.648289
 20
25.567259
 30
0.0
 10
47.908426
 20
25.140309
 30
0.0
 10
48.145169
 20
24.713879
 30
0.0
 10
48.359192
 20
24.288679
 30
0.0
 10
48.551168
 20
23.865189
 30
0.0
 10
48.721776
 20
23.444089
 30
0.0
 10
48.871693
 20
23.025999
 30
0.0
 10
49.001593
 20
22.611549
 30
0.0
 10
49.112156
 20
22.201299
 30
0.0
 10
49.204051
 20
21.795889
 30
0.0
 10
49.277959
 20
21.395989
 30
0.0
 10
49.334520
 20
21.002079
 30
0.0
 10
49.374506
 20
20.614929
 30
0.0
 10
49.398500
 20
20.235019
 30
0.0
 10
49.407193
 20
19.863059
 30
0.0
 10
49.401266
 20
19.499629
 30
0.0
 10
49.381451
 20
19.145329
 30
0.0
 10
49.348359
 20
18.800749
 30
0.0
 10
49.302693
 20
18.466619
 30
0.0
 10
49.245104
 20
18.143389
 30
0.0
 10
49.176284
 20
17.831839
 30
0.0
 10
49.096904
 20
17.532439
 30
0.0
 10
49.007646
 20
17.245909
 30
0.0
 10
48.909182
 20
16.972789
 30
0.0
 10
48.802184
 20
16.713719
 30
0.0
 10
48.687338
 20
16.469339
 30
0.0
 10
48.565321
 20
16.240269
 30
0.0
 10
48.436797
 20
16.027059
 30
0.0
 10
48.245765
 20
15.750759
 30
0.0
 10
48.041044
 20
15.494449
 30
0.0
 10
47.823521
 20
15.257369
 30
0.0
 10
47.594085
 20
15.038469
 30
0.0
 10
47.353606
 20
14.836979
 30
0.0
 10
47.102981
 20
14.652039
 30
0.0
 10
46.843092
 20
14.482639
 30
0.0
 10
46.574815
 20
14.327909
 30
0.0
 10
46.299045
 20
14.187009
 30
0.0
 10
46.016654
 20
14.059039
 30
0.0
 10
45.728536
 20
13.943089
 30
0.0
 10
45.435569
 20
13.838249
 30
0.0
 10
45.138634
 20
13.743649
 30
0.0
 10
44.838628
 20
13.658349
 30
0.0
 10
44.536420
 20
13.581549
 30
0.0
 10
44.232900
 20
13.512349
 30
0.0
 10
43.928949
 20
13.449849
 30
0.0
 10
43.625459
 20
13.393049
 30
0.0
 10
43.323304
 20
13.341049
 30
0.0
 10
43.023376
 20
13.293249
 30
0.0
 10
42.726553
 20
13.248249
 30
0.0
 10
42.433725
 20
13.205749
 30
0.0
 10
42.145767
 20
13.164449
 30
0.0
 10
41.863569
 20
13.123749
 30
0.0
 10
41.588013
 20
13.082449
 30
0.0
 10
41.319989
 20
13.039949
 30
0.0
 10
41.060368
 20
12.994949
 30
0.0
 10
40.810044
 20
12.947149
 30
0.0
 10
40.569900
 20
12.895149
 30
0.0
 10
40.340811
 20
12.838349
 30
0.0
 10
40.123671
 20
12.775749
 30
0.0
 10
39.919363
 20
12.706449
 30
0.0
 10
39.862258
 20
13.004409
 30
0.0
 10
39.834175
 20
13.292019
 30
0.0
 10
39.833768
 20
13.569939
 30
0.0
 10
39.859569
 20
13.838869
 30
0.0
 10
39.910154
 20
14.099429
 30
0.0
 10
39.984082
 20
14.352199
 30
0.0
 10
40.079928
 20
14.597969
 30
0.0
 10
40.196247
 20
14.837279
 30
0.0
 10
40.331611
 20
15.070829
 30
0.0
 10
40.484598
 20
15.299239
 30
0.0
 10
40.653764
 20
15.523169
 30
0.0
 10
40.837679
 20
15.743309
 30
0.0
 10
41.034912
 20
15.960239
 30
0.0
 10
41.244032
 20
16.174699
 30
0.0
 10
41.463603
 20
16.387249
 30
0.0
 10
41.692195
 20
16.598599
 30
0.0
 10
41.928369
 20
16.809369
 30
0.0
 10
42.170705
 20
17.020229
 30
0.0
 10
42.417761
 20
17.231829
 30
0.0
 10
42.668111
 20
17.444789
 30
0.0
 10
42.920316
 20
17.659859
 30
0.0
 10
43.172946
 20
17.877559
 30
0.0
 10
43.424569
 20
18.098599
 30
0.0
 10
43.673758
 20
18.323609
 30
0.0
 10
43.919067
 20
18.553269
 30
0.0
 10
44.159079
 20
18.788219
 30
0.0
 10
44.392352
 20
19.029139
 30
0.0
 10
44.617453
 20
19.276579
 30
0.0
 10
44.832947
 20
19.531329
 30
0.0
 10
45.037417
 20
19.793919
 30
0.0
 10
45.229412
 20
20.065069
 30
0.0
 10
45.407515
 20
20.345439
 30
0.0
 10
45.540822
 20
20.582099
 30
0.0
 10
45.661253
 20
20.824169
 30
0.0
 10
45.769353
 20
21.071069
 30
0.0
 10
45.865654
 20
21.322169
 30
0.0
 10
45.950714
 20
21.576849
 30
0.0
 10
46.025056
 20
21.834659
 30
0.0
 10
46.089233
 20
22.094869
 30
0.0
 10
46.143760
 20
22.356969
 30
0.0
 10
46.189258
 20
22.620399
 30
0.0
 10
46.226182
 20
22.884479
 30
0.0
 10
46.255095
 20
23.148689
 30
0.0
 10
46.276531
 20
23.412469
 30
0.0
 10
46.291071
 20
23.675179
 30
0.0
 10
46.299171
 20
23.936219
 30
0.0
 10
46.301542
 20
24.195089
 30
0.0
 10
46.298578
 20
24.451099
 30
0.0
 10
46.290775
 20
24.703759
 30
0.0
 10
46.278862
 20
24.952399
 30
0.0
 10
46.263245
 20
25.196499
 30
0.0
 10
46.244506
 20
25.435439
 30
0.0
 10
46.223199
 20
25.668639
 30
0.0
 10
46.199857
 20
25.895559
 30
0.0
 10
46.175014
 20
26.115469
 30
0.0
 10
46.149213
 20
26.327959
 30
0.0
 10
46.122947
 20
26.532359
 30
0.0
 10
46.096790
 20
26.728099
 30
0.0
 10
46.071295
 20
26.914619
 30
0.0
 10
46.047054
 20
27.091249
 30
0.0
 10
46.024552
 20
27.257469
 30
0.0
 10
46.004322
 20
27.412679
 30
0.0
 10
45.986907
 20
27.556269
 30
0.0
  0
LWPOLYLINE
  5
10d
100
AcDbEntity
  8
Ebene_1
 62
7
100
AcDbPolyline
 90
96
 70
1
 10
39.850322
 20
35.763729
 30
0.0
 10
40.907822
 20
34.237749
 30
0.0
 10
41.822218
 20
32.804859
 30
0.0
 10
42.600501
 20
31.460839
 30
0.0
 10
43.249654
 20
30.201579
 30
0.0
 10
43.776678
 20
29.022829
 30
0.0
 10
44.188555
 20
27.920509
 30
0.0
 10
44.492279
 20
26.890509
 30
0.0
 10
44.694850
 20
25.928559
 30
0.0
 10
44.803255
 20
25.030529
 30
0.0
 10
44.824512
 20
24.192299
 30
0.0
 10
44.765550
 20
23.409729
 30
0.0
 10
44.633394
 20
22.678589
 30
0.0
 10
44.435031
 20
21.994789
 30
0.0
 10
44.177463
 20
21.354149
 30
0.0
 10
43.867669
 20
20.752539
 30
0.0
 10
43.512649
 20
20.185759
 30
0.0
 10
43.119393
 20
19.649619
 30
0.0
 10
42.694886
 20
19.140069
 30
0.0
 10
42.246131
 20
18.652899
 30
0.0
 10
41.780107
 20
18.183859
 30
0.0
 10
41.303811
 20
17.728939
 30
0.0
 10
40.824237
 20
17.283919
 30
0.0
 10
40.348366
 20
16.844699
 30
0.0
 10
39.883205
 20
16.406969
 30
0.0
 10
39.435737
 20
15.966719
 30
0.0
 10
39.012947
 20
15.519779
 30
0.0
 10
38.621840
 20
15.061869
 30
0.0
 10
38.269400
 20
14.589009
 30
0.0
 10
37.962611
 20
14.096869
 30
0.0
 10
37.708480
 20
13.581439
 30
0.0
 10
37.513983
 20
13.038489
 30
0.0
 10
37.386124
 20
12.463869
 30
0.0
 10
37.386124
 20
12.463869
 30
0.0
 10
37.386124
 20
12.463869
 30
0.0
 10
37.386124
 20
12.463869
 30
0.0
 10
37.386124
 20
12.463869
 30
0.0
 10
37.386124
 20
12.463869
 30
0.0
 10
37.386124
 20
12.463869
 30
0.0
 10
37.386124
 20
12.463869
 30
0.0
 10
37.386124
 20
12.463869
 30
0.0
 10
37.386124
 20
12.463869
 30
0.0
 10
37.386124
 20
12.463869
 30
0.0
 10
37.386124
 20
12.463869
 30
0.0
 10
37.386124
 20
12.463869
 30
0.0
 10
37.386124
 20
12.463869
 30
0.0
 10
37.386124
 20
12.463869
 30
0.0
 10
37.386124
 20
12.463869
 30
0.0
 10
37.386124
 20
12.463869
 30
0.0
 10
37.386124
 20
12.463869
 30
0.0
 10
37.386124
 20
12.463869
 30
0.0
 10
37.386124
 20
12.463869
 30
0.0
 10
37.386124
 20
12.463869
 30
0.0
 10
37.386124
 20
12.463869
 30
0.0
 10
37.386124
 20
12.463869
 30
0.0
 10
37.386124
 20
12.463869
 30
0.0
 10
37.386124
 20
12.463869
 30
0.0
 10
37.386124
 20
12.463869
 30
0.0
 10
37.386124
 20
12.463869
 30
0.0
 10
37.386124
 20
12.463869
 30
0.0
 10
37.386124
 20
12.463869
 30
0.0
 10
37.386124
 20
12.463869
 30
0.0
 10
37.386124
 20
12.463869
 30
0.0
 10
37.386124
 20
12.463869
 30
0.0
 10
37.386124
 20
12.463869
 30
0.0
 10
36.128667
 20
13.486459
 30
0.0
 10
35.054628
 20
14.474499
 30
0.0
 10
34.154274
 20
15.429519
 30
0.0
 10
33.417874
 20
16.352969
 30
0.0
 10
32.835693
 20
17.246569
 30
0.0
 10
32.398005
 20
18.111859
 30
0.0
 10
32.095073
 20
18.950259
 30
0.0
 10
31.917161
 20
19.763459
 30
0.0
 10
31.854544
 20
20.553029
 30
0.0
 10
31.897454
 20
21.320399
 30
0.0
 10
32.036225
 20
22.067289
 30
0.0
 10
32.261087
 20
22.795129
 30
0.0
 10
32.562316
 20
23.505509
 30
0.0
 10
32.930168
 20
24.200089
 30
0.0
 10
33.354920
 20
24.880299
 30
0.0
 10
33.826840
 20
25.547749
 30
0.0
 10
34.336188
 20
26.203949
 30
0.0
 10
34.873237
 20
26.850579
 30
0.0
 10
35.428256
 20
27.489079
 30
0.0
 10
35.991509
 20
28.121099
 30
0.0
 10
36.553268
 20
28.748089
 30
0.0
 10
37.103797
 20
29.371729
 30
0.0
 10
37.633358
 20
29.993519
 30
0.0
 10
38.132231
 20
30.615009
 30
0.0
 10
38.590677
 20
31.237759
 30
0.0
 10
38.998962
 20
31.863369
 30
0.0
 10
39.347357
 20
32.493369
 30
0.0
 10
39.626132
 20
33.129279
 30
0.0
 10
39.825543
 20
33.772729
 30
0.0
 10
39.935871
 20
34.425219
 30
0.0
 10
39.947359
 20
35.088369
 30
0.0
  0
ENDSEC
  0
SECTION
  2
OBJECTS
  0
DICTIONARY
  5
C
330
0
100
AcDbDictionary
  3
ACAD_GROUP
350
D
  3
ACAD_MLINESTYLE
350
17
  0
DICTIONARY
  5
D
330
C
100
AcDbDictionary
  0
DICTIONARY
  5
1A
330
C
100
AcDbDictionary
  0
DICTIONARY
  5
17
330
C
100
AcDbDictionary
  3
STANDARD
350
18
  0
DICTIONARY
  5
19
330
C
100
AcDbDictionary
  0
ENDSEC
  0
EOF
