<?xml version="1.0" encoding="UTF-8" standalone="no"?>
<!-- Created with Inkscape (http://www.inkscape.org/) -->

<svg
   xmlns:dc="http://purl.org/dc/elements/1.1/"
   xmlns:cc="http://creativecommons.org/ns#"
   xmlns:rdf="http://www.w3.org/1999/02/22-rdf-syntax-ns#"
   xmlns:svg="http://www.w3.org/2000/svg"
   xmlns="http://www.w3.org/2000/svg"
   xmlns:sodipodi="http://sodipodi.sourceforge.net/DTD/sodipodi-0.dtd"
   xmlns:inkscape="http://www.inkscape.org/namespaces/inkscape"
   width="42cm"
   height="30cm"
   viewBox="0 0 420.00001 299.99997"
   id="svg_ffbsee"
   version="1.1"
   inkscape:version="0.91 r13725"
   sodipodi:docname="FreifunkCamp_black.svg"
   inkscape:export-filename="../../Bilder/FreifunkCamp_black.svg.png"
   inkscape:export-xdpi="230"
   inkscape:export-ydpi="230">
  <defs
     id="defs4941" />
  <sodipodi:namedview
     id="base"
     pagecolor="#ffffff"
     bordercolor="#666666"
     borderopacity="1.0"
     inkscape:pageopacity="0.0"
     inkscape:pageshadow="2"
     inkscape:zoom="0.4683832"
     inkscape:cx="729.49899"
     inkscape:cy="560.13381"
     inkscape:document-units="px"
     inkscape:current-layer="layer1"
     showgrid="false"
     showguides="true"
     inkscape:guide-bbox="true"
     fit-margin-top="0"
     fit-margin-left="0"
     fit-margin-right="0"
     fit-margin-bottom="0"
     inkscape:window-width="1920"
     inkscape:window-height="1017"
     inkscape:window-x="-8"
     inkscape:window-y="-8"
     inkscape:window-maximized="1"
     units="cm">
    <sodipodi:guide
       position="-0.60254559,-0.60254554"
       orientation="1,0"
       id="guide5871"
       inkscape:locked="false" />
    <sodipodi:guide
       position="-3.9165463,299.99236"
       orientation="0,1"
       id="guide5877"
       inkscape:locked="false" />
    <sodipodi:guide
       position="26.512006,-0.60254554"
       orientation="0,1"
       id="guide5990"
       inkscape:locked="false" />
    <sodipodi:guide
       position="421.17937,-0.60254554"
       orientation="1,0"
       id="guide4175"
       inkscape:locked="false" />
  </sodipodi:namedview>
  <metadata
     id="metadata4944">
    <rdf:RDF>
      <cc:Work
         rdf:about="">
        <dc:format>image/svg+xml</dc:format>
        <dc:type
           rdf:resource="http://purl.org/dc/dcmitype/StillImage" />
        <dc:title></dc:title>
      </cc:Work>
    </rdf:RDF>
  </metadata>
  <g
     inkscape:label="Ebene 1"
     inkscape:groupmode="layer"
     id="layer1"
     transform="translate(671.24032,-1046.8553)"
     style="opacity:1">
    <rect
       y="965.51685"
       x="-780.64569"
       height="431.33902"
       width="609.93384"
       id="rect4177"
       style="opacity:1;fill:#000000;fill-opacity:1;stroke:none;stroke-width:0.03465098;stroke-miterlimit:3.5999999;stroke-dasharray:none;stroke-opacity:1"
       inkscape:export-filename="../../Bilder/FFCamp_Black.png"
       inkscape:export-xdpi="230"
       inkscape:export-ydpi="230" />
    <g
       id="g4242"
       transform="translate(-0.50979021,-0.02673748)">
      <rect
         y="1047.5479"
         x="-670.73053"
         height="299.33417"
         width="419.62659"
         id="rect4173"
         style="opacity:1;fill:#000000;fill-opacity:1;stroke:none;stroke-width:0.035549;stroke-miterlimit:3.5999999;stroke-dasharray:none;stroke-opacity:1" />
      <g
         id="g4207">
        <path
           style="color:#000000;font-style:normal;font-variant:normal;font-weight:normal;font-stretch:normal;font-size:medium;line-height:normal;font-family:sans-serif;text-indent:0;text-align:start;text-decoration:none;text-decoration-line:none;text-decoration-style:solid;text-decoration-color:#000000;letter-spacing:normal;word-spacing:normal;text-transform:none;direction:ltr;writing-mode:lr-tb;baseline-shift:baseline;text-anchor:start;white-space:normal;clip-rule:nonzero;display:inline;overflow:visible;visibility:visible;opacity:1;isolation:auto;mix-blend-mode:normal;color-interpolation:sRGB;color-interpolation-filters:linearRGB;solid-color:#000000;solid-opacity:1;fill:#de2c68;fill-opacity:1;fill-rule:nonzero;stroke:#000000;stroke-width:0.28343076;stroke-linecap:butt;stroke-linejoin:miter;stroke-miterlimit:4;stroke-dasharray:none;stroke-dashoffset:0;stroke-opacity:1;color-rendering:auto;image-rendering:auto;shape-rendering:auto;text-rendering:auto;enable-background:accumulate"
           d="m -366.31125,1076.421 c -38.73874,0 -70.15068,31.9666 -70.15068,71.3217 0,39.355 31.41194,71.3216 70.15068,71.3216 38.73876,0 70.15067,-31.9666 70.15067,-71.3216 0,-39.3551 -31.41191,-71.3217 -70.15067,-71.3217 z m 0,3.3352 c 36.90543,0 66.81537,30.4037 66.81537,67.9865 0,37.5827 -29.90994,67.9868 -66.81537,67.9868 -36.90542,0 -66.81536,-30.4041 -66.81536,-67.9868 0,-37.5828 29.90994,-67.9865 66.81536,-67.9865 z"
           id="circle3878"
           inkscape:connector-curvature="0" />
        <path
           style="color:#000000;font-style:normal;font-variant:normal;font-weight:normal;font-stretch:normal;font-size:medium;line-height:normal;font-family:sans-serif;text-indent:0;text-align:start;text-decoration:none;text-decoration-line:none;text-decoration-style:solid;text-decoration-color:#000000;letter-spacing:normal;word-spacing:normal;text-transform:none;direction:ltr;writing-mode:lr-tb;baseline-shift:baseline;text-anchor:start;white-space:normal;clip-rule:nonzero;display:inline;overflow:visible;visibility:visible;opacity:1;isolation:auto;mix-blend-mode:normal;color-interpolation:sRGB;color-interpolation-filters:linearRGB;solid-color:#000000;solid-opacity:1;fill:#de2c68;fill-opacity:1;fill-rule:nonzero;stroke:#000000;stroke-width:0.28343076;stroke-linecap:butt;stroke-linejoin:miter;stroke-miterlimit:4;stroke-dasharray:none;stroke-dashoffset:0;stroke-opacity:1;color-rendering:auto;image-rendering:auto;shape-rendering:auto;text-rendering:auto;enable-background:accumulate"
           d="m -463.18996,1082.5322 c -33.6761,0 -60.97993,27.8565 -60.97993,62.1415 0,34.2851 27.30383,62.1412 60.97993,62.1412 33.67612,0 60.97955,-27.8561 60.97955,-62.1412 0,-34.285 -27.30343,-62.1415 -60.97955,-62.1415 z m 0,3.1239 c 31.95493,0 57.85569,26.3884 57.85569,59.0176 0,32.6293 -25.90076,59.0176 -57.85569,59.0176 -31.95491,0 -57.85607,-26.3883 -57.85607,-59.0176 0,-32.6292 25.90116,-59.0176 57.85607,-59.0176 z"
           id="ellipse5364"
           inkscape:connector-curvature="0" />
        <path
           inkscape:connector-curvature="0"
           id="path3338"
           d="m -366.54792,1290.2802 c -1.54935,-0.2124 -3.03268,-0.5469 -3.2965,-0.7436 -0.26371,-0.1966 -1.93881,-1.4569 -3.72237,-2.8006 -3.78454,-2.8512 -6.88604,-4.2238 -9.98555,-4.419 -1.39204,-0.088 -2.6295,-0.5582 -3.32292,-1.2632 -0.60765,-0.6182 -2.37395,-1.4069 -3.92516,-1.7529 -3.16484,-0.7061 -3.93276,-1.4116 -5.04995,-4.6403 -0.69937,-2.0213 -1.03086,-2.3388 -3.33401,-3.1941 -4.11582,-1.5282 -6.18136,-2.4833 -8.3095,-3.8418 -1.09869,-0.7014 -2.19016,-1.2369 -2.42543,-1.19 -0.23525,0.047 -2.663,-1.3379 -5.395,-3.0777 -2.73207,-1.7396 -5.90136,-3.5375 -7.04286,-3.9953 -2.5006,-1.0028 -3.9274,-3.4732 -4.1514,-7.188 -0.0818,-1.356 -0.47925,-3.3323 -0.88296,-4.3919 -0.62891,-1.6494 -1.1591,-2.1004 -3.68747,-3.1369 -1.62405,-0.6659 -3.30672,-1.1401 -3.73921,-1.0538 -0.43241,0.087 -0.93775,0 -1.12288,-0.2041 -0.18513,-0.1986 -2.64753,-0.9852 -5.47211,-1.7481 -2.82453,-0.7628 -5.4765,-1.6634 -5.89328,-2.0012 -0.41675,-0.3379 -1.12123,-0.5452 -1.56537,-0.4607 -0.44417,0.084 -1.34975,-0.024 -2.01241,-0.2424 -5.23003,-1.7182 -7.836,-2.7853 -10.98462,-4.4977 -7.8325,-4.2599 -8.00311,-4.3257 -15.19354,-5.8696 -2.43926,-0.5236 -11.4237,-2.9407 -16.05464,-4.3192 -2.2586,-0.6723 -5.13697,-1.1599 -6.3964,-1.0837 -2.33848,0.1411 -7.64552,-0.8785 -8.31715,-1.5988 -0.47783,-0.5124 -7.81278,-2.5366 -8.61316,-2.3769 -0.33317,0.067 -2.30912,-0.3179 -4.39093,-0.8541 -4.12702,-1.0632 -7.33663,-3.2939 -8.73421,-6.0706 -0.44089,-0.8758 -1.21164,-1.8662 -1.71279,-2.2006 -1.37155,-0.9154 -6.53089,0.2773 -9.05407,2.093 -5.00835,3.6037 -7.14132,4.5275 -10.55852,4.5726 -1.75935,0.023 -5.45608,0.3445 -8.21494,0.7142 -4.64752,0.6225 -5.20393,0.5841 -7.57208,-0.5232 -2.24293,-1.0487 -2.79055,-1.1057 -4.47039,-0.4651 -1.05294,0.4016 -8.16261,1.9384 -15.79923,3.4151 -13.81274,2.6711 -13.8952,2.6937 -15.87705,4.328 -1.09575,0.9035 -3.09903,2.1535 -4.45189,2.7778 -2.77643,1.2813 -5.47708,3.2754 -6.11497,4.5152 -1.31918,2.5639 -5.79088,7.6875 -7.20595,8.2567 -0.87751,0.3528 -2.21372,1.3211 -2.96933,2.1515 -0.75565,0.8305 -1.65952,1.5669 -2.00862,1.6366 -0.34912,0.07 -1.27577,0.7172 -2.05922,1.439 -0.78343,0.7217 -2.24304,1.4764 -3.24349,1.677 -1.2395,0.2487 -2.22908,0.8778 -3.10628,1.9752 -0.84716,1.0597 -2.06704,1.8531 -3.56793,2.3207 -1.38074,0.43 -2.65323,1.2167 -3.2249,1.9936 -1.35016,1.8348 -5.94145,2.735 -8.17344,1.6023 -0.87378,-0.4435 -2.25161,-0.8191 -3.06186,-0.8346 -0.81018,-0.016 -1.93112,-0.3682 -2.4909,-0.7836 -0.58005,-0.4304 -2.08362,-0.6908 -3.49591,-0.6058 -3.06625,0.185 -4.41616,-0.673 -3.20412,-2.0364 0.64198,-0.7222 1.69124,-1.031 4.72243,-1.3896 2.14336,-0.2535 4.51317,-0.3576 5.26631,-0.231 2.3692,0.398 4.89868,-0.4255 8.67569,-2.8243 2.01126,-1.2772 4.9918,-3.0064 6.62354,-3.8426 1.63162,-0.8362 3.16299,-1.8146 3.40304,-2.1742 0.24011,-0.3598 0.80367,-0.7273 1.2525,-0.8168 0.44879,-0.09 1.70587,-1.3976 2.79347,-2.9068 1.08761,-1.5092 2.81765,-3.3416 3.8446,-4.072 1.02693,-0.7304 1.96819,-1.5991 2.09159,-1.9304 0.1234,-0.3313 0.81237,-0.7198 1.53099,-0.8631 2.17567,-0.4341 13.07185,-17.717 12.61465,-20.0088 -0.11885,-0.5957 -0.89342,-1.452 -1.72124,-1.9027 -0.82781,-0.4508 -1.96864,-1.101 -2.53521,-1.4448 -0.56661,-0.3439 -1.91666,-0.615 -3.00014,-0.6026 -1.08349,0.014 -2.57598,-0.285 -3.31669,-0.6608 -0.74067,-0.3759 -2.09082,-0.6927 -3.00038,-0.7039 -0.90956,-0.014 -2.04416,-0.2353 -2.5214,-0.4976 -0.47725,-0.2624 -1.8151,-0.5793 -2.97308,-0.7042 -1.15796,-0.1254 -2.4636,-0.4153 -2.9014,-0.6451 -0.82266,-0.4318 -3.61846,-1.3116 -7.59178,-2.3889 -1.25752,-0.3408 -2.89759,-1.1952 -3.6447,-1.8983 l -1.35837,-1.2785 1.75977,-2.387 c 1.91262,-2.5941 7.14478,-5.875 9.21476,-5.7779 6.24489,0.2927 6.73602,0.3831 12.94458,2.3828 4.2836,1.3797 6.70185,1.3242 6.40835,-0.1469 -0.15105,-0.7571 -4.57711,-3.2943 -5.44493,-3.1211 -0.4423,0.088 -5.16715,-1.981 -5.92374,-2.5943 -0.5474,-0.4438 -0.53352,-0.9133 0.0617,-2.0862 0.42244,-0.8325 1.05309,-1.5705 1.40135,-1.64 0.67792,-0.1354 4.74755,1.0029 7.2735,2.0339 3.69833,1.5097 8.52229,2.9592 15.19828,4.5666 1.48777,0.3582 4.04897,0.9819 5.69154,1.386 1.6426,0.4042 3.26277,0.6796 3.60037,0.6124 0.33762,-0.067 1.53447,0.1573 2.65973,0.4994 1.12518,0.342 2.38677,0.5539 2.80353,0.4707 0.41666,-0.083 1.64168,0.1168 2.72219,0.446 1.08056,0.3286 2.95632,0.6629 4.16832,0.7431 4.79806,0.3178 14.01823,5.5187 14.55519,8.2101 0.42347,2.1227 -1.097,2.955 -6.79286,3.7184 l -5.08123,0.681 -2.94274,-1.7307 c -5.22197,-3.0708 -6.15046,-3.3709 -9.8222,-3.1748 -4.99852,0.2669 -4.79005,0.1396 -4.29535,2.6194 0.67491,3.3831 1.65094,4.3865 4.44839,4.5727 1.33025,0.088 2.83917,0.3964 3.35316,0.6841 0.51394,0.2879 2.28934,0.4744 3.94533,0.4147 1.65596,-0.06 3.66886,0.021 4.47314,0.18 0.8284,0.1634 2.24392,-0.016 3.2654,-0.4121 0.99168,-0.3853 3.65789,-1.3265 5.9249,-2.0916 5.68832,-1.9199 6.49341,-1.6718 10.19447,3.1409 2.33208,3.0326 3.29479,3.8781 5.17542,4.545 l 2.3104,0.8193 2.60362,-1.6937 c 1.43198,-0.9315 3.03304,-2.2543 3.55785,-2.9396 0.85124,-1.1113 1.51709,-1.344 6.16738,-2.1544 3.67924,-0.6414 5.72628,-0.7598 6.95711,-0.4028 1.70966,0.4957 13.03528,-0.7099 14.3426,-1.527 0.90536,-0.5657 0.20833,-2.7287 -1.50793,-4.6799 -0.86647,-0.9851 -1.88541,-2.5759 -2.26431,-3.5352 -0.88732,-2.2465 -4.56042,-5.3336 -9.05763,-7.6124 -2.02174,-1.0245 -3.98886,-2.4464 -4.56205,-3.2975 -0.55424,-0.8229 -1.63487,-1.9032 -2.40134,-2.4006 -1.38572,-0.8992 -1.64484,-1.4491 -4.96705,-10.5434 -1.35225,-3.7019 -3.00924,-5.5035 -6.43546,-6.9971 -8.79259,-3.833 -8.48297,-3.7512 -12.29778,-3.245 -3.9174,0.5198 -5.94827,-0.014 -10.4222,-2.7054 -3.11902,-1.8809 -6.27375,-2.878 -12.36759,-3.9085 -2.7849,-0.471 -5.34334,-0.9698 -5.68539,-1.1088 -0.34209,-0.1396 -1.35347,-0.5617 -2.24749,-0.9395 -1.86102,-0.7865 -20.35527,-13.2751 -20.4669,-13.8206 -0.0395,-0.1981 -0.67671,-0.6029 -1.41388,-0.9 -1.57841,-0.6361 -3.07309,-4.1129 -2.53328,-5.8927 0.18483,-0.6093 1.44575,-1.932 2.80206,-2.9393 1.98838,-1.4767 2.88454,-1.8471 4.6265,-1.9123 2.4875,-0.093 3.60537,0.2868 8.52336,2.8959 5.33932,2.8328 6.89298,3.5501 7.44813,3.4394 0.27653,-0.056 1.23797,0.3008 2.13641,0.7908 0.89846,0.4902 2.22521,0.9526 2.94837,1.0277 0.72314,0.076 1.9065,0.4342 2.62966,0.7979 0.72323,0.3636 1.9727,0.674 2.7767,0.6895 0.80402,0.016 2.08331,0.4715 2.84286,1.0134 0.75958,0.542 1.59353,0.9429 1.85323,0.8912 0.25967,-0.051 2.36694,1.1294 4.68279,2.6251 7.33226,4.7353 7.07216,4.6332 10.80921,4.244 2.22291,-0.2317 3.93986,-0.1012 4.95226,0.3745 0.85239,0.401 1.8254,0.6741 2.16225,0.6069 0.33695,-0.067 1.50915,0.2435 2.60496,0.6905 5.38218,2.1956 7.54497,2.9498 8.12618,2.8339 0.34986,-0.07 1.56832,0.2664 2.70774,0.7474 1.13945,0.4807 2.61846,0.765 3.28654,0.6318 0.66822,-0.1325 1.87051,0.09 2.67183,0.497 0.80136,0.4067 1.78809,0.6733 2.1927,0.5927 0.96273,-0.1921 5.12913,1.3582 7.96529,2.964 1.60345,0.9079 2.43009,1.7757 2.88577,3.0294 0.35123,0.9664 1.14884,2.6983 1.77248,3.8486 0.6236,1.1502 1.44716,2.9189 1.83018,3.9302 0.5551,1.4661 1.57674,2.411 5.03823,4.6601 2.38807,1.5516 5.43541,3.249 6.77185,3.772 1.33652,0.523 3.58621,1.5186 4.99927,2.2126 1.4131,0.6938 3.4406,1.5631 4.50555,1.9318 1.06491,0.3686 3.0698,1.1246 4.45523,1.68 1.3855,0.5555 4.48717,1.5816 6.89265,2.2803 2.40546,0.6988 4.98822,1.5808 5.73944,1.9603 0.75125,0.3795 1.72606,0.619 2.16624,0.5322 0.44015,-0.087 2.27075,0.2426 4.06787,0.7316 1.79712,0.4892 3.51176,0.8415 3.81028,0.783 0.29841,-0.058 1.01073,0.2409 1.58266,0.6652 0.57194,0.4244 1.87201,0.7621 2.88898,0.7504 1.01698,-0.014 3.05319,0.3314 4.52493,0.7625 3.28818,0.9629 6.42845,0.1593 10.18228,-2.6057 1.35835,-1.0005 2.86818,-1.9009 3.35524,-2.0008 0.48718,-0.1 1.62944,-0.7632 2.53857,-1.4739 1.98051,-1.548 4.76901,-2.5863 9.81479,-3.654 4.20407,-0.8898 7.97351,-0.305 9.76243,1.5145 1.0186,1.0359 2.77404,1.3401 10.06565,1.7447 9.09418,0.5046 9.51747,0.4822 11.74761,-0.6177 1.15512,-0.5699 2.74305,-1.1644 3.52874,-1.3211 2.5785,-0.5144 7.57294,1.39 12.3133,4.6953 4.26454,2.9733 4.62159,3.3646 7.16304,7.8506 1.87152,3.3035 3.05844,4.8759 3.95251,5.2362 1.42892,0.5759 2.26137,1.72 4.16204,5.7202 1.10147,2.3183 1.83277,3.0817 4.7633,4.9725 3.13097,2.0201 4.34911,2.5861 8.52632,3.9618 3.49192,1.15 10.07485,-0.6824 13.04385,-3.631 1.57225,-1.5614 2.31046,-1.9596 3.66177,-1.9751 1.96667,-0.023 5.15732,2.0126 6.01132,3.8343 0.32498,0.6932 1.0935,1.5609 1.70776,1.928 0.61427,0.3671 1.1751,0.9594 1.24631,1.3162 0.24733,1.2398 2.38131,1.4038 5.55144,0.4265 2.83881,-0.8749 3.10956,-0.8703 3.86989,0.067 1.05425,1.2993 1.76447,1.5736 3.30335,1.2763 0.78686,-0.1517 2.3291,0.4136 4.15924,1.525 l 2.90874,1.7667 6.34669,-0.8809 c 5.88226,-0.8165 6.49933,-0.8064 8.43143,0.1382 1.14656,0.5606 2.05266,1.2942 2.01346,1.6302 -0.0392,0.336 -0.82618,1.1762 -1.74882,1.867 -2.2483,1.6833 -1.78118,2.9752 0.96091,2.6577 1.75753,-0.2035 2.11167,-0.4708 3.1627,-2.3878 0.77356,-1.4112 1.89742,-2.5373 3.24483,-3.2517 4.78323,-2.5355 8.47324,-1.7819 12.95235,2.6454 1.66746,1.6481 3.9435,3.51 5.05778,4.1374 1.11425,0.6275 3.72575,2.0764 5.80316,3.22 3.9632,2.1813 5.1103,3.5111 5.73644,6.6496 0.27943,1.4008 0.0834,2.3999 -0.74709,3.8061 l -1.1261,1.9065 -8.57699,1.7327 c -4.71728,0.9532 -8.85591,1.8365 -9.19675,1.9635 -0.34097,0.1268 -1.47562,1.4096 -2.5215,2.8504 -2.08893,2.8771 -5.47688,6.0627 -6.71002,6.3086 -0.43301,0.087 -1.33681,-0.3126 -2.00839,-0.8869 -0.67153,-0.5741 -1.59401,-0.9695 -2.04976,-0.8786 -1.03007,0.2055 -3.40882,3.935 -4.14015,6.4912 -0.30085,1.0513 -1.11918,2.7211 -1.81856,3.7103 l -1.27169,1.7989 -2.41058,-1.8368 c -2.34086,-1.7836 -2.41933,-1.9204 -2.71718,-4.7368 l -0.30659,-2.9002 -1.4783,0.295 c -0.81307,0.1621 -1.43996,0.4875 -1.39297,0.723 0.14797,0.7416 -3.84816,6.4711 -5.33074,7.6431 -0.78016,0.6167 -2.17662,2.1542 -3.10321,3.4165 -2.62239,3.5726 -4.62235,4.1175 -11.64507,3.1722 -3.00871,-0.405 -3.99744,-0.7942 -5.26355,-2.0718 -1.52077,-1.5348 -3.54414,-1.8401 -4.00465,-0.6043 -0.10645,0.286 -0.9833,0.5483 -1.94847,0.5831 -1.60407,0.058 -1.76002,0.1913 -1.81554,1.5549 -0.0333,0.8204 -0.33184,2.1251 -0.66335,2.8994 -0.33141,0.7743 -0.70602,2.2901 -0.83245,3.3686 -0.31773,2.7099 -3.60641,6.5282 -6.84027,7.942 -1.35837,0.5937 -4.55113,1.6826 -7.0951,2.4194 -2.54394,0.737 -4.93316,1.5394 -5.30946,1.7832 -0.3762,0.244 -1.95165,0.2698 -3.50092,0.057 z"
           style="fill:#009ee0;fill-opacity:1;stroke:#000000;stroke-width:1.12108028;stroke-linecap:square;stroke-linejoin:miter;stroke-miterlimit:4;stroke-dasharray:none"
           inkscape:export-filename="/home/kr0l/pixelflutffbsee.png"
           inkscape:export-xdpi="7.1930156"
           inkscape:export-ydpi="7.1930156" />
        <path
           style="color:#000000;font-style:normal;font-variant:normal;font-weight:normal;font-stretch:normal;font-size:medium;line-height:normal;font-family:sans-serif;text-indent:0;text-align:start;text-decoration:none;text-decoration-line:none;text-decoration-style:solid;text-decoration-color:#000000;letter-spacing:normal;word-spacing:normal;text-transform:none;direction:ltr;writing-mode:lr-tb;baseline-shift:baseline;text-anchor:start;white-space:normal;clip-rule:nonzero;display:inline;overflow:visible;visibility:visible;opacity:1;isolation:auto;mix-blend-mode:normal;color-interpolation:sRGB;color-interpolation-filters:linearRGB;solid-color:#000000;solid-opacity:1;fill:#de2c68;fill-opacity:1;fill-rule:nonzero;stroke:#000000;stroke-width:1.39447939;stroke-linecap:butt;stroke-linejoin:miter;stroke-miterlimit:4;stroke-dasharray:none;stroke-dashoffset:0;stroke-opacity:1;color-rendering:auto;image-rendering:auto;shape-rendering:auto;text-rendering:auto;enable-background:accumulate"
           d="m -366.60351,1048.2438 c -26.17572,0 -51.28209,10.5084 -69.76623,29.1736 -18.48413,18.6653 -28.85428,43.9633 -28.85428,70.3253 0,26.3619 10.37015,51.6595 28.85428,70.3249 18.48414,18.6653 43.59051,29.1736 69.76623,29.1736 26.17574,0 51.2821,-10.5083 69.76624,-29.1736 18.48412,-18.6654 28.85427,-43.9633 28.85427,-70.3254 0,-26.362 -10.37015,-51.6595 -28.85427,-70.3248 -18.48414,-18.6652 -43.5905,-29.1736 -69.76624,-29.1736 z m 0,18.0442 c 21.35018,0 41.82341,8.5565 56.94517,23.8265 15.12173,15.27 23.63121,35.9985 23.63121,57.6282 0,21.6296 -8.50948,42.3578 -23.63121,57.6277 -15.12176,15.27 -35.59499,23.8266 -56.94517,23.8266 -21.35017,0 -41.823,-8.5566 -56.94476,-23.8266 -15.12175,-15.2699 -23.63123,-35.9981 -23.63123,-57.6277 0,-21.6297 8.50948,-42.3582 23.63123,-57.6282 15.12176,-15.27 35.59459,-23.8265 56.94476,-23.8265 z"
           id="ellipse5485"
           inkscape:connector-curvature="0" />
        <polygon
           style="fill:#ffcc33;fill-opacity:1"
           points="73,41 64,50 73,59 81,59 75,53 88,53 88,47 75,47 81,41 "
           transform="matrix(-1.4588838,0,0,1.5098558,-382.55366,1085.5577)"
           id="polygon5366"
           inkscape:transform-center-x="-735.76717"
           inkscape:transform-center-y="6.0807202" />
        <g
           id="g4685"
           transform="matrix(1.4249719,0,0,1.4249719,314.71497,-430.73335)">
          <path
             d="m -679.3221,1211.1346 0,9.3993 11.9028,0 0,4.7216 -11.9028,0 0,12.9349 -5.92943,0 0,-31.7554 20.02831,0 0,4.6996 z"
             style="font-style:normal;font-variant:normal;font-weight:bold;font-stretch:normal;font-size:medium;line-height:1.25;font-family:Lato;-inkscape-font-specification:'Lato Bold';letter-spacing:0px;word-spacing:0px;fill:#de2c68;fill-opacity:1;stroke:none;stroke-width:1.09804356"
             id="path4616"
             inkscape:connector-curvature="0" />
          <path
             d="m -657.91505,1219.5676 q 1.05412,-2.0204 2.50354,-3.1624 1.44942,-1.1639 3.4259,-1.1639 1.55922,0 2.50354,0.6808 l -0.35138,4.0628 q -0.1098,0.3953 -0.32941,0.5709 -0.19765,0.1538 -0.54902,0.1538 -0.32942,0 -0.98824,-0.1098 -0.63687,-0.1098 -1.25177,-0.1098 -0.9004,0 -1.60315,0.2635 -0.70274,0.2635 -1.27373,0.7686 -0.54902,0.4832 -0.98824,1.1859 -0.41725,0.7028 -0.79059,1.6032 l 0,13.8792 -5.42433,0 0,-22.5318 3.18432,0 q 0.83452,0 1.16393,0.3074 0.32941,0.2855 0.43922,1.0541 z"
             style="font-style:normal;font-variant:normal;font-weight:bold;font-stretch:normal;font-size:medium;line-height:1.25;font-family:Lato;-inkscape-font-specification:'Lato Bold';letter-spacing:0px;word-spacing:0px;fill:#de2c68;fill-opacity:1;stroke:none;stroke-width:1.09804356"
             id="path4618"
             inkscape:connector-curvature="0" />
          <path
             d="m -632.73142,1224.3331 q 0,-1.0541 -0.30745,-1.9765 -0.28549,-0.9443 -0.87843,-1.647 -0.59295,-0.7028 -1.5153,-1.0981 -0.9004,-0.4172 -2.10825,-0.4172 -2.34981,0 -3.71139,1.3396 -1.33961,1.3396 -1.71294,3.7992 z m -10.34357,3.2722 q 0.13177,1.7349 0.61491,3.0086 0.48314,1.2518 1.27373,2.0863 0.79059,0.8126 1.86667,1.2298 1.09804,0.3953 2.4157,0.3953 1.31765,0 2.26197,-0.3074 0.96628,-0.3075 1.66902,-0.6808 0.72471,-0.3734 1.25177,-0.6808 0.54902,-0.3075 1.05412,-0.3075 0.68079,0 1.0102,0.5051 l 1.55923,1.9765 q -0.9004,1.0541 -2.0204,1.7788 -1.12001,0.7028 -2.34982,1.142 -1.20784,0.4173 -2.48158,0.593 -1.25177,0.1756 -2.43765,0.1756 -2.34982,0 -4.37022,-0.7686 -2.0204,-0.7906 -3.51374,-2.3059 -1.49334,-1.5372 -2.34981,-3.7772 -0.85647,-2.262 -0.85647,-5.2267 0,-2.3059 0.74667,-4.3263 0.74667,-2.0424 2.1302,-3.5357 1.4055,-1.5153 3.40394,-2.3938 2.0204,-0.8784 4.5459,-0.8784 2.1302,0 3.93099,0.6808 1.80079,0.6808 3.09649,1.9984 1.29569,1.2957 2.0204,3.2063 0.74667,1.8886 0.74667,4.3263 0,1.2298 -0.26353,1.669 -0.26353,0.4173 -1.0102,0.4173 z"
             style="font-style:normal;font-variant:normal;font-weight:bold;font-stretch:normal;font-size:medium;line-height:1.25;font-family:Lato;-inkscape-font-specification:'Lato Bold';letter-spacing:0px;word-spacing:0px;fill:#de2c68;fill-opacity:1;stroke:none;stroke-width:1.09804356"
             id="path4620"
             inkscape:connector-curvature="0" />
          <path
             d="m -618.20636,1215.6586 0,22.5318 -5.44629,0 0,-22.5318 z m 0.74667,-6.5663 q 0,0.7027 -0.28549,1.3176 -0.28549,0.6149 -0.76863,1.0761 -0.46118,0.4612 -1.09804,0.7467 -0.63687,0.2635 -1.36158,0.2635 -0.70275,0 -1.33961,-0.2635 -0.61491,-0.2855 -1.07608,-0.7467 -0.46118,-0.4612 -0.74667,-1.0761 -0.26353,-0.6149 -0.26353,-1.3176 0,-0.7247 0.26353,-1.3616 0.28549,-0.6369 0.74667,-1.098 0.46117,-0.4612 1.07608,-0.7248 0.63686,-0.2854 1.33961,-0.2854 0.72471,0 1.36158,0.2854 0.63686,0.2636 1.09804,0.7248 0.48314,0.4611 0.76863,1.098 0.28549,0.6369 0.28549,1.3616 z"
             style="font-style:normal;font-variant:normal;font-weight:bold;font-stretch:normal;font-size:medium;line-height:1.25;font-family:Lato;-inkscape-font-specification:'Lato Bold';letter-spacing:0px;word-spacing:0px;fill:#de2c68;fill-opacity:1;stroke:none;stroke-width:1.09804356"
             id="path4622"
             inkscape:connector-curvature="0" />
          <path
             d="m -611.09515,1238.1904 0,-18.4471 -1.95452,-0.3075 q -0.63686,-0.1317 -1.03216,-0.4392 -0.37333,-0.3294 -0.37333,-0.9223 l 0,-2.2181 3.36001,0 0,-1.669 q 0,-1.9326 0.57098,-3.4698 0.59295,-1.5373 1.66903,-2.6134 1.09804,-1.076 2.65726,-1.647 1.55923,-0.571 3.51374,-0.571 1.55923,0 2.89884,0.4172 l -0.10981,2.7232 q -0.022,0.3074 -0.17568,0.5051 -0.15373,0.1757 -0.41726,0.2855 -0.24157,0.088 -0.57098,0.1317 -0.32942,0.022 -0.70275,0.022 -0.96628,0 -1.73491,0.2196 -0.74667,0.1977 -1.27373,0.7247 -0.52706,0.5051 -0.81255,1.3616 -0.26353,0.8345 -0.26353,2.0863 l 0,1.4933 5.86355,0 0,3.8651 -5.68787,0 0,18.4691 z"
             style="font-style:normal;font-variant:normal;font-weight:bold;font-stretch:normal;font-size:medium;line-height:1.25;font-family:Lato;-inkscape-font-specification:'Lato Bold';letter-spacing:0px;word-spacing:0px;fill:#de2c68;fill-opacity:1;stroke:none;stroke-width:1.09804356"
             id="path4624"
             inkscape:connector-curvature="0" />
          <path
             d="m -577.47855,1215.6586 0,22.5318 -3.31609,0 q -1.07609,0 -1.36158,-0.9882 l -0.37333,-1.8008 q -1.38354,1.4055 -3.05256,2.2839 -1.66903,0.8565 -3.931,0.8565 -1.84471,0 -3.27217,-0.6149 -1.4055,-0.6369 -2.37177,-1.7788 -0.96628,-1.142 -1.47138,-2.7012 -0.48314,-1.5812 -0.48314,-3.4698 l 0,-14.3185 5.42433,0 0,14.3185 q 0,2.0643 0.94432,3.2063 0.96628,1.12 2.87688,1.12 1.40549,0 2.6353,-0.6149 1.22981,-0.6369 2.32785,-1.735 l 0,-16.2949 z"
             style="font-style:normal;font-variant:normal;font-weight:bold;font-stretch:normal;font-size:medium;line-height:1.25;font-family:Lato;-inkscape-font-specification:'Lato Bold';letter-spacing:0px;word-spacing:0px;fill:#de2c68;fill-opacity:1;stroke:none;stroke-width:1.09804356"
             id="path4626"
             inkscape:connector-curvature="0" />
          <path
             d="m -567.02723,1218.4256 q 0.68079,-0.6807 1.42746,-1.2517 0.76863,-0.593 1.60314,-0.9883 0.85647,-0.4172 1.82275,-0.6368 0.96628,-0.2416 2.10825,-0.2416 1.84471,0 3.27217,0.6369 1.42745,0.6149 2.37177,1.7568 0.96628,1.12 1.44942,2.7012 0.5051,1.5592 0.5051,3.4479 l 0,14.3404 -5.42434,0 0,-14.3404 q 0,-2.0643 -0.94432,-3.1843 -0.94431,-1.142 -2.87687,-1.142 -1.4055,0 -2.6353,0.6369 -1.22981,0.6368 -2.32786,1.7349 l 0,16.2949 -5.42433,0 0,-22.5318 3.31609,0 q 1.05412,0 1.38353,0.9882 z"
             style="font-style:normal;font-variant:normal;font-weight:bold;font-stretch:normal;font-size:medium;line-height:1.25;font-family:Lato;-inkscape-font-specification:'Lato Bold';letter-spacing:0px;word-spacing:0px;fill:#de2c68;fill-opacity:1;stroke:none;stroke-width:1.09804356"
             id="path4628"
             inkscape:connector-curvature="0" />
          <path
             d="m -541.88409,1205.5566 0,18.6887 1.0102,0 q 0.54902,0 0.85647,-0.1318 0.32941,-0.1537 0.65883,-0.5929 l 5.60002,-6.9177 q 0.35137,-0.4612 0.76863,-0.7028 0.43922,-0.2415 1.12,-0.2415 l 4.96316,0 -7.00552,8.3671 q -0.74667,0.9882 -1.6251,1.5153 0.46118,0.3294 0.81255,0.7686 0.37334,0.4392 0.70275,0.9443 l 7.51062,10.9365 -4.89728,0 q -0.63686,0 -1.09804,-0.1976 -0.46118,-0.2196 -0.76863,-0.7686 l -5.75375,-8.5428 q -0.30745,-0.5051 -0.63687,-0.6589 -0.32941,-0.1537 -0.98823,-0.1537 l -1.22981,0 0,10.3216 -5.42434,0 0,-32.6338 z"
             style="font-style:normal;font-variant:normal;font-weight:bold;font-stretch:normal;font-size:medium;line-height:1.25;font-family:Lato;-inkscape-font-specification:'Lato Bold';letter-spacing:0px;word-spacing:0px;fill:#de2c68;fill-opacity:1;stroke:none;stroke-width:1.09804356"
             id="path4630"
             inkscape:connector-curvature="0" />
        </g>
        <g
           id="g4657"
           style="fill:#ffffff"
           transform="matrix(1.4249719,0,0,1.4249719,314.71497,-430.73335)">
          <path
             d="m -490.50251,1230.7018 q 0.48314,0 0.85648,0.3733 l 2.32785,2.5255 q -1.93256,2.3937 -4.76551,3.6675 -2.81099,1.2737 -6.76395,1.2737 -3.5357,0 -6.36865,-1.2078 -2.81099,-1.2079 -4.80943,-3.3601 -1.99844,-2.1521 -3.07452,-5.1388 -1.05412,-2.9867 -1.05412,-6.5224 0,-3.5796 1.14196,-6.5443 1.14197,-2.9867 3.20629,-5.1389 2.08628,-2.1521 4.96316,-3.338 2.87687,-1.2079 6.36865,-1.2079 3.46982,0 6.14904,1.142 2.70119,1.142 4.58982,2.9867 l -1.97647,2.7451 q -0.17569,0.2635 -0.46118,0.4612 -0.26353,0.1976 -0.74667,0.1976 -0.32941,0 -0.68079,-0.1757 -0.35137,-0.1976 -0.76863,-0.4612 -0.41726,-0.2854 -0.96628,-0.6149 -0.54902,-0.3294 -1.27373,-0.5929 -0.72471,-0.2855 -1.69099,-0.4612 -0.94431,-0.1976 -2.19608,-0.1976 -2.13021,0 -3.90904,0.7686 -1.75687,0.7467 -3.0306,2.1961 -1.27373,1.4274 -1.97648,3.5137 -0.70274,2.0644 -0.70274,4.7216 0,2.6792 0.74666,4.7655 0.76864,2.0863 2.06433,3.5138 1.29569,1.4274 3.05256,2.1961 1.75687,0.7466 3.77727,0.7466 1.20785,0 2.17412,-0.1317 0.98824,-0.1318 1.8008,-0.4173 0.83451,-0.2855 1.55922,-0.7247 0.74667,-0.4612 1.47138,-1.12 0.21961,-0.1977 0.46117,-0.3075 0.24157,-0.1317 0.5051,-0.1317 z"
             style="font-style:normal;font-variant:normal;font-weight:bold;font-stretch:normal;font-size:medium;line-height:1.25;font-family:Lato;-inkscape-font-specification:'Lato Bold';letter-spacing:0px;word-spacing:0px;fill:#ffffff;fill-opacity:1;stroke:none;stroke-width:1.09804356"
             id="path4632"
             inkscape:connector-curvature="0" />
          <path
             d="m -472.18234,1228.5716 q -2.34981,0.1098 -3.95296,0.4172 -1.60314,0.2855 -2.56942,0.7467 -0.96628,0.4612 -1.38353,1.0761 -0.41726,0.6149 -0.41726,1.3396 0,1.4274 0.83451,2.0424 0.85648,0.6149 2.21805,0.6149 1.66903,0 2.87688,-0.593 1.2298,-0.6149 2.39373,-1.8447 z m -12.42985,-9.7726 q 3.88707,-3.5577 9.35533,-3.5577 1.97648,0 3.5357,0.6588 1.55922,0.6369 2.6353,1.8008 1.07609,1.142 1.62511,2.7451 0.57098,1.6032 0.57098,3.5138 l 0,14.2306 -2.45962,0 q -0.76863,0 -1.18588,-0.2196 -0.41726,-0.2415 -0.65883,-0.9443 l -0.48314,-1.6251 q -0.85647,0.7686 -1.66903,1.3616 -0.81255,0.571 -1.69098,0.9663 -0.87844,0.3952 -1.88864,0.5929 -0.98824,0.2196 -2.19608,0.2196 -1.42746,0 -2.63531,-0.3733 -1.20785,-0.3953 -2.08628,-1.164 -0.87844,-0.7686 -1.36158,-1.9106 -0.48314,-1.1419 -0.48314,-2.6572 0,-0.8565 0.2855,-1.691 0.28549,-0.8565 0.92235,-1.6251 0.65883,-0.7686 1.69099,-1.4494 1.03216,-0.6808 2.5255,-1.1859 1.5153,-0.5051 3.51374,-0.8126 1.99844,-0.3294 4.56786,-0.3953 l 0,-1.3176 q 0,-2.262 -0.96628,-3.3381 -0.96628,-1.098 -2.78903,-1.098 -1.31765,0 -2.19609,0.3074 -0.85647,0.3075 -1.5153,0.7028 -0.65882,0.3733 -1.20784,0.6808 -0.52706,0.3074 -1.18589,0.3074 -0.57098,0 -0.96628,-0.2855 -0.3953,-0.3074 -0.63686,-0.7027 z"
             style="font-style:normal;font-variant:normal;font-weight:bold;font-stretch:normal;font-size:medium;line-height:1.25;font-family:Lato;-inkscape-font-specification:'Lato Bold';letter-spacing:0px;word-spacing:0px;fill:#ffffff;fill-opacity:1;stroke:none;stroke-width:1.09804356"
             id="path4634"
             inkscape:connector-curvature="0" />
          <path
             d="m -461.78112,1238.1904 0,-22.5318 3.3161,0 q 1.05412,0 1.38353,0.9882 l 0.35137,1.669 q 0.59295,-0.6588 1.22981,-1.2078 0.65883,-0.549 1.38354,-0.9443 0.74667,-0.3953 1.58118,-0.6149 0.85648,-0.2416 1.86668,-0.2416 2.1302,0 3.49177,1.1639 1.38354,1.142 2.06433,3.0526 0.52706,-1.12 1.31765,-1.9106 0.79059,-0.8126 1.73491,-1.3177 0.94432,-0.5051 1.99844,-0.7466 1.07608,-0.2416 2.15216,-0.2416 1.86668,0 3.31609,0.571 1.44942,0.571 2.43766,1.669 0.98824,1.0981 1.49334,2.6792 0.52706,1.5812 0.52706,3.6236 l 0,14.3404 -5.42433,0 0,-14.3404 q 0,-2.1522 -0.94432,-3.2283 -0.94432,-1.098 -2.76707,-1.098 -0.83451,0 -1.55922,0.2855 -0.70275,0.2855 -1.25177,0.8345 -0.52706,0.5271 -0.83452,1.3396 -0.30745,0.8126 -0.30745,1.8667 l 0,14.3404 -5.44629,0 0,-14.3404 q 0,-2.262 -0.92236,-3.2942 -0.9004,-1.0321 -2.65727,-1.0321 -1.18588,0 -2.21805,0.5929 -1.0102,0.571 -1.88863,1.5812 l 0,16.4926 z"
             style="font-style:normal;font-variant:normal;font-weight:bold;font-stretch:normal;font-size:medium;line-height:1.25;font-family:Lato;-inkscape-font-specification:'Lato Bold';letter-spacing:0px;word-spacing:0px;fill:#ffffff;fill-opacity:1;stroke:none;stroke-width:1.09804356"
             id="path4636"
             inkscape:connector-curvature="0" />
          <path
             d="m -419.55516,1232.3488 q 0.92236,1.12 1.99844,1.5812 1.09804,0.4612 2.37177,0.4612 1.22981,0 2.21805,-0.4612 0.98824,-0.4612 1.66903,-1.4055 0.70275,-0.9443 1.07608,-2.3717 0.37334,-1.4495 0.37334,-3.404 0,-1.9765 -0.32942,-3.338 -0.30745,-1.3836 -0.90039,-2.24 -0.59295,-0.8565 -1.44942,-1.2518 -0.83451,-0.3953 -1.9106,-0.3953 -1.69098,0 -2.87687,0.7247 -1.18589,0.7027 -2.24001,1.9984 z m -0.28549,-13.6157 q 1.38353,-1.5592 3.1404,-2.5255 1.75687,-0.9663 4.12865,-0.9663 1.84471,0 3.36001,0.7686 1.53726,0.7687 2.63531,2.2401 1.12,1.4494 1.71294,3.6015 0.61491,2.1302 0.61491,4.8973 0,2.5255 -0.68079,4.6777 -0.68079,2.1521 -1.95452,3.7333 -1.25177,1.5812 -3.05256,2.4816 -1.77883,0.8784 -3.99688,0.8784 -1.88863,0 -3.22824,-0.5709 -1.33962,-0.593 -2.39374,-1.6251 l 0,9.2235 -5.42434,0 0,-29.8887 3.3161,0 q 1.05412,0 1.38353,0.9882 z"
             style="font-style:normal;font-variant:normal;font-weight:bold;font-stretch:normal;font-size:medium;line-height:1.25;font-family:Lato;-inkscape-font-specification:'Lato Bold';letter-spacing:0px;word-spacing:0px;fill:#ffffff;fill-opacity:1;stroke:none;stroke-width:1.09804356"
             id="path4638"
             inkscape:connector-curvature="0" />
        </g>
        <flowRoot
           xml:space="preserve"
           id="flowRoot5900"
           style="font-style:normal;font-weight:normal;line-height:0.01%;font-family:sans-serif;letter-spacing:0px;word-spacing:0px;fill:#ffcc33;fill-opacity:1;stroke:#ffffff;stroke-width:1px;stroke-linecap:butt;stroke-linejoin:miter;stroke-opacity:1"
           transform="matrix(0.37829611,0,0,0.37829611,-318.25988,646.39036)"><flowRegion
             id="flowRegion5902"
             style="fill:#ffcc33;fill-opacity:1;stroke:#ffffff"><rect
               id="rect5904"
               width="1999.4039"
               height="179.43582"
               x="-4.5352678"
               y="1220.6235"
               style="fill:#ffcc33;fill-opacity:1;stroke:#ffffff" /></flowRegion><flowPara
             id="flowPara5906"
             style="font-style:normal;font-variant:normal;font-weight:normal;font-stretch:normal;font-size:40px;line-height:1.25;font-family:Lato;-inkscape-font-specification:Lato;fill:#ffcc33;fill-opacity:1;stroke:#ffffff"> </flowPara></flowRoot>        <g
           id="g4602"
           transform="matrix(1.5269989,0,0,1.5269989,364.6675,-541.89769)">
          <path
             sodipodi:nodetypes="cccc"
             inkscape:connector-curvature="0"
             id="path4610"
             d="m -467.11071,1081.0719 c 20.16182,28.0468 -2.47362,28.3794 -4.11692,38.9263 l 0,0 c -24.10056,-18.5409 6.87139,-26.7737 4.11692,-38.9263 z"
             style="fill:#ffcc33;fill-opacity:1;stroke:#ffffff;stroke-width:0.07024057px;stroke-linecap:butt;stroke-linejoin:miter;stroke-opacity:1" />
          <path
             sodipodi:nodetypes="cscsc"
             inkscape:connector-curvature="0"
             id="path4612"
             d="m -456.88174,1094.5626 c 7.1436,7.4666 6.46036,15.8287 4.11612,19.4827 -3.27706,5.1081 -10.70846,4.2458 -14.22979,5.546 -1.28551,-5.4054 6.12744,-7.6805 9.1689,-12.7622 2.49357,-4.1662 1.1616,-10.0362 0.94477,-12.2665 z"
             style="fill:#ffcc33;fill-opacity:1;stroke:#ffffff;stroke-width:0.07024057px;stroke-linecap:butt;stroke-linejoin:miter;stroke-opacity:1" />
          <path
             sodipodi:nodetypes="ccc"
             inkscape:connector-curvature="0"
             id="path4614"
             d="m -481.64611,1100.2602 c -14.56574,10.4041 -0.55409,20.0961 6.5491,19.1435 -9.32873,-5.337 -8.55115,-12.7338 -6.5491,-19.1435 z"
             style="fill:#ffcc33;fill-opacity:1;stroke:#ffffff;stroke-width:0.07024057px;stroke-linecap:butt;stroke-linejoin:miter;stroke-opacity:1" />
        </g>
        <g
           style="fill:#ffffff;stroke:#ffffff"
           id="g4526"
           transform="matrix(0.40538185,0,0,0.40538185,-37.49894,688.35088)">
          <path
             sodipodi:nodetypes="csccccccc"
             inkscape:connector-curvature="0"
             id="path4505"
             d="m -837.57604,1188.4203 c 52.07371,7.3068 51.85581,6.4682 62.82806,10.1883 11.9893,4.065 43.64049,10.5896 57.38618,11.5023 -13.9774,5.6894 -8.73152,13.4974 -8.45131,18.6511 -17.92121,-6.0157 -28.9629,-6.5315 -46.82517,-8.9534 -5.14562,-0.7204 -15.95143,-2.1612 -23.05239,-5.1456 -7.10096,-2.9845 -20.99414,-6.7922 -31.28539,-7.9243 -10.29124,-1.132 -10.00423,-1.4978 -16.77472,-1.7495 -2.90878,-8.7055 1.18617,-13.7265 6.17474,-16.5689 z"
             style="fill:#ffffff;fill-opacity:0.984975;stroke:#ffffff;stroke-width:0.26458332px;stroke-linecap:butt;stroke-linejoin:miter;stroke-opacity:1" />
          <ellipse
             transform="matrix(0.93544233,0.35347935,-0.37979925,0.92506893,0,0)"
             ry="9.4990005"
             rx="8.1119089"
             cy="1395.2845"
             cx="-196.24063"
             id="path4507"
             style="opacity:1;fill:#ffffff;fill-opacity:0.984975;stroke:#ffffff;stroke-width:0.03670848;stroke-miterlimit:3.5999999;stroke-dasharray:none" />
          <path
             sodipodi:nodetypes="ccccc"
             inkscape:connector-curvature="0"
             id="path4513"
             d="m -716.28332,1184.9644 c -43.22544,6.1854 -50.6046,9.4255 -54.18875,10.7265 12.48007,3.6022 23.6617,6.3745 34.8319,8.1209 11.86153,-2.7652 23.18718,-4.966 27.83715,-6.2803 1.61406,-4.5045 0.17934,-10.384 -8.4803,-12.5671 z"
             style="opacity:1;fill:#ffffff;fill-opacity:0.984975;stroke:#ffffff;stroke-width:0.26458332px;stroke-linecap:butt;stroke-linejoin:miter;stroke-opacity:1" />
          <path
             sodipodi:nodetypes="ccccc"
             inkscape:connector-curvature="0"
             id="path4515"
             d="m -837.16439,1214.3028 c 9.31358,-2.5214 8.07863,-2.5214 12.40095,-3.6019 10.86744,0.8716 19.61843,5.516 30.30772,8.5931 -8.28445,3.602 -29.94752,12.1952 -35.5048,14.2534 4.20587,-11.7558 -1.47384,-15.9838 -7.20387,-19.2446 z"
             style="opacity:1;fill:#ffffff;fill-opacity:0.984975;stroke:#ffffff;stroke-width:0.26458332px;stroke-linecap:butt;stroke-linejoin:miter;stroke-opacity:1" />
          <ellipse
             transform="matrix(0.82039547,-0.57179652,0.59377557,0.8046307,0,0)"
             ry="10.252341"
             rx="9.1488924"
             cy="524.77802"
             cx="-1406.7489"
             id="path4517"
             style="opacity:1;fill:#ffffff;fill-opacity:0.984975;stroke:#ffffff;stroke-width:0.02759779;stroke-miterlimit:3.5999999;stroke-dasharray:none" />
        </g>
      </g>
    </g>
  </g>
</svg>
