<?xml version="1.0" encoding="UTF-8" standalone="no"?>
<!-- Created with Inkscape (http://www.inkscape.org/) -->

<svg
   xmlns:dc="http://purl.org/dc/elements/1.1/"
   xmlns:cc="http://creativecommons.org/ns#"
   xmlns:rdf="http://www.w3.org/1999/02/22-rdf-syntax-ns#"
   xmlns:svg="http://www.w3.org/2000/svg"
   xmlns="http://www.w3.org/2000/svg"
   xmlns:sodipodi="http://sodipodi.sourceforge.net/DTD/sodipodi-0.dtd"
   xmlns:inkscape="http://www.inkscape.org/namespaces/inkscape"
   width="297mm"
   height="210mm"
   viewBox="0 0 297 210"
   id="svg_ffbsee"
   version="1.1"
   inkscape:version="0.92.1 r15371"
   sodipodi:docname="shirt_FreifunkCamp_big.svg"
   inkscape:export-filename="../../Bilder/FreifunkCamp.svg.png"
   inkscape:export-xdpi="230"
   inkscape:export-ydpi="230">
  <defs
     id="defs4941" />
  <sodipodi:namedview
     id="base"
     pagecolor="#ffffff"
     bordercolor="#666666"
     borderopacity="1.0"
     inkscape:pageopacity="0.0"
     inkscape:pageshadow="2"
     inkscape:zoom="0.41311318"
     inkscape:cx="201.28042"
     inkscape:cy="680.75391"
     inkscape:document-units="px"
     inkscape:current-layer="layer1"
     showgrid="false"
     showguides="true"
     inkscape:guide-bbox="true"
     fit-margin-top="0"
     fit-margin-left="0"
     fit-margin-right="0"
     fit-margin-bottom="0"
     inkscape:window-width="1280"
     inkscape:window-height="961"
     inkscape:window-x="1272"
     inkscape:window-y="-8"
     inkscape:window-maximized="1">
    <sodipodi:guide
       position="8.2031263e-07,10.478978"
       orientation="1,0"
       id="guide5871"
       inkscape:locked="false" />
    <sodipodi:guide
       position="282.42396,210.06443"
       orientation="0,1"
       id="guide5877"
       inkscape:locked="false" />
    <sodipodi:guide
       position="282.22169,-3.0517578e-05"
       orientation="0,1"
       id="guide5990"
       inkscape:locked="false" />
    <sodipodi:guide
       position="282.22224,10.477875"
       orientation="1,0"
       id="guide4175"
       inkscape:locked="false" />
  </sodipodi:namedview>
  <metadata
     id="metadata4944">
    <rdf:RDF>
      <cc:Work
         rdf:about="">
        <dc:format>image/svg+xml</dc:format>
        <dc:type
           rdf:resource="http://purl.org/dc/dcmitype/StillImage" />
        <dc:title></dc:title>
      </cc:Work>
    </rdf:RDF>
  </metadata>
  <g
     inkscape:label="Ebene 1"
     inkscape:groupmode="layer"
     id="layer1"
     transform="translate(685.57434,-1037.474)"
     style="opacity:1">
    <rect
       y="1042.1071"
       x="-1161.2629"
       height="279.00967"
       width="394.53293"
       id="rect4177"
       style="opacity:1;fill:#ffffff;fill-opacity:1;stroke:none;stroke-width:0.03465098;stroke-miterlimit:3.5999999;stroke-dasharray:none;stroke-opacity:1"
       inkscape:export-filename="../../Bilder/FFCamp_white.png"
       inkscape:export-xdpi="400"
       inkscape:export-ydpi="400" />
    <rect
       style="opacity:1;fill:#ffffff;fill-opacity:1;stroke:none;stroke-width:0.03117312;stroke-miterlimit:3.5999999;stroke-dasharray:none;stroke-opacity:1"
       id="rect4173"
       width="247.4819"
       height="184.20567"
       x="-668.85364"
       y="1048.3943" />
    <path
       inkscape:export-ydpi="7.1930156"
       inkscape:export-xdpi="7.1930156"
       inkscape:export-filename="/home/kr0l/pixelflutffbsee.png"
       style="fill:#ffffff;fill-opacity:1;stroke:#ffffff;stroke-width:0.28174707;stroke-linecap:square;stroke-linejoin:miter;stroke-miterlimit:4;stroke-dasharray:none;paint-order:stroke fill markers"
       d="m -486.90807,1195.515 c -0.95343,-0.1307 -1.86626,-0.3366 -2.02863,-0.4576 -0.16226,-0.1211 -1.19309,-0.8965 -2.29067,-1.7235 -2.32895,-1.7546 -4.23757,-2.5993 -6.14496,-2.7193 -0.85663,-0.054 -1.61817,-0.3436 -2.04488,-0.7773 -0.37394,-0.3807 -1.46089,-0.866 -2.41547,-1.0787 -1.9476,-0.4345 -2.42017,-0.8688 -3.10767,-2.8556 -0.43037,-1.2439 -0.63437,-1.4394 -2.05171,-1.9655 -2.53281,-0.9406 -3.8039,-1.5283 -5.11351,-2.3644 -0.67613,-0.4318 -1.3478,-0.7612 -1.49259,-0.7323 -0.14478,0.029 -1.63878,-0.8232 -3.32,-1.894 -1.68127,-1.0705 -3.63161,-2.1768 -4.33407,-2.4587 -1.53883,-0.6171 -2.41687,-2.1372 -2.55471,-4.4232 -0.0503,-0.8345 -0.29492,-2.0507 -0.54336,-2.7028 -0.38701,-1.015 -0.71329,-1.2926 -2.26921,-1.9305 -0.99943,-0.4097 -2.03491,-0.7015 -2.30106,-0.6483 -0.26608,0.053 -0.57707,0 -0.69099,-0.1256 -0.11385,-0.1224 -1.62925,-0.6064 -3.36746,-1.0759 -1.73817,-0.4693 -3.37015,-1.0236 -3.62664,-1.2314 -0.25646,-0.2079 -0.68999,-0.3355 -0.9633,-0.2835 -0.27333,0.052 -0.83063,-0.015 -1.2384,-0.1493 -3.21849,-1.0573 -4.82217,-1.7139 -6.75978,-2.7677 -4.82,-2.6215 -4.92499,-2.662 -9.34987,-3.612 -1.50109,-0.3225 -7.02998,-1.8095 -9.87976,-2.658 -1.38993,-0.4138 -3.16124,-0.7139 -3.93627,-0.6669 -1.43907,0.086 -4.70493,-0.5406 -5.11826,-0.984 -0.29405,-0.3151 -4.80784,-1.5608 -5.30041,-1.4626 -0.20502,0.043 -1.42098,-0.1957 -2.70209,-0.5258 -2.53972,-0.6542 -4.51486,-2.0268 -5.37491,-3.7356 -0.27131,-0.5389 -0.74562,-1.1485 -1.05402,-1.3543 -0.84403,-0.5633 -4.019,0.1708 -5.57174,1.2881 -3.08206,2.2175 -4.39465,2.7863 -6.49755,2.8139 -1.08268,0.014 -3.3576,0.212 -5.05534,0.4396 -2.86003,0.383 -3.20242,0.3593 -4.65975,-0.322 -1.38026,-0.6453 -1.71725,-0.6806 -2.75102,-0.2862 -0.64796,0.247 -5.02315,1.1929 -9.72259,2.1015 -8.50016,1.6439 -8.55092,1.6577 -9.77051,2.6634 -0.6743,0.5561 -1.90709,1.3254 -2.73961,1.7094 -1.70858,0.7885 -3.37051,2.0157 -3.76305,2.7786 -0.81183,1.5778 -3.56364,4.7308 -4.43444,5.0809 -0.54002,0.2172 -1.3623,0.8131 -1.82729,1.3242 -0.465,0.5111 -1.02124,0.9642 -1.23607,1.0071 -0.21484,0.043 -0.7851,0.4414 -1.26722,0.8856 -0.48211,0.4441 -1.38033,0.9086 -1.99599,1.032 -0.76277,0.1529 -1.37175,0.5402 -1.91156,1.2155 -0.52133,0.6521 -1.27203,1.1404 -2.19564,1.4279 -0.84969,0.2648 -1.63276,0.749 -1.98454,1.2271 -0.8309,1.129 -3.65628,1.6829 -5.02983,0.986 -0.53771,-0.273 -1.38561,-0.5042 -1.88422,-0.5137 -0.49858,-0.011 -1.18839,-0.2266 -1.53287,-0.4822 -0.35695,-0.2649 -1.28223,-0.425 -2.15132,-0.3728 -1.88692,0.1139 -2.71764,-0.4141 -1.97176,-1.2532 0.39504,-0.4444 1.04076,-0.6345 2.9061,-0.8552 1.31899,-0.156 2.77733,-0.22 3.24081,-0.1421 1.45797,0.245 3.01457,-0.2619 5.33887,-1.738 1.23773,-0.7859 3.0719,-1.8501 4.07602,-2.3647 1.00409,-0.5144 1.94648,-1.1165 2.09418,-1.338 0.14777,-0.2213 0.49458,-0.4475 0.77078,-0.5026 0.27619,-0.055 1.04977,-0.8601 1.71906,-1.7887 0.6693,-0.9288 1.73394,-2.0563 2.36591,-2.5059 0.63197,-0.4496 1.2112,-0.9841 1.28713,-1.1878 0.0759,-0.2041 0.49993,-0.4432 0.94215,-0.5314 1.33887,-0.267 8.04422,-10.9027 7.76287,-12.313 -0.0731,-0.3667 -0.5498,-0.8936 -1.05923,-1.1711 -0.50941,-0.2771 -1.21147,-0.6774 -1.56013,-0.889 -0.34868,-0.2114 -1.17947,-0.3784 -1.84624,-0.3708 -0.66676,0.011 -1.58522,-0.1754 -2.04104,-0.4065 -0.4558,-0.2313 -1.28665,-0.4263 -1.84638,-0.4333 -0.55973,-0.011 -1.25795,-0.1447 -1.55163,-0.3062 -0.2937,-0.1614 -1.11699,-0.3565 -1.82959,-0.4332 -0.71258,-0.076 -1.51607,-0.2556 -1.78548,-0.3971 -0.50625,-0.2656 -2.22675,-0.8072 -4.67186,-1.4702 -0.77386,-0.2096 -1.78314,-0.7354 -2.2429,-1.168 l -0.83593,-0.787 1.08296,-1.4687 c 1.17699,-1.5964 4.39678,-3.6155 5.67061,-3.5559 3.843,0.1803 4.14524,0.2359 7.96589,1.4666 2.63608,0.8489 4.12423,0.8148 3.94361,-0.091 -0.0929,-0.4657 -2.81669,-2.0271 -3.35073,-1.9206 -0.27219,0.054 -3.17978,-1.219 -3.64538,-1.5964 -0.33686,-0.2731 -0.32833,-0.5622 0.038,-1.2838 0.25998,-0.5123 0.64807,-0.9664 0.86238,-1.0093 0.41718,-0.083 2.92158,0.6172 4.476,1.2515 2.27588,0.9293 5.24447,1.8213 9.35279,2.8104 0.91555,0.2203 2.49166,0.6041 3.50247,0.853 1.01084,0.2485 2.00786,0.4181 2.21563,0.3768 0.20777,-0.042 0.94429,0.097 1.63675,0.3073 0.69244,0.2104 1.46878,0.3409 1.72526,0.2896 0.2564,-0.051 1.01027,0.072 1.67519,0.2746 0.66496,0.2022 1.81929,0.4078 2.5651,0.4574 2.95268,0.1953 8.62663,3.3959 8.95705,5.0523 0.2606,1.3062 -0.67508,1.8183 -4.18022,2.2882 l -3.1269,0.419 -1.81092,-1.065 c -3.21351,-1.8897 -3.78491,-2.0745 -6.04444,-1.9539 -3.076,0.1642 -2.94772,0.085 -2.64329,1.6121 0.41533,2.0818 1.01597,2.6992 2.73747,2.8137 0.81862,0.054 1.74717,0.2441 2.06349,0.4212 0.31628,0.1771 1.40881,0.2919 2.42789,0.2552 1.01905,-0.038 2.25775,0.013 2.75272,0.1116 0.50977,0.1014 1.38087,-0.011 2.00946,-0.2536 0.61026,-0.2371 2.25101,-0.8162 3.6461,-1.2871 3.50051,-1.1814 3.99595,-1.0287 6.27351,1.9329 1.43514,1.8661 2.02756,2.3865 3.18489,2.7969 l 1.42178,0.5043 1.60223,-1.0423 c 0.88122,-0.5733 1.86647,-1.3873 2.18944,-1.809 0.52385,-0.6839 0.93359,-0.8271 3.79531,-1.326 2.26415,-0.3945 3.52387,-0.4674 4.28131,-0.2477 1.0521,0.3051 8.02171,-0.4369 8.82622,-0.9396 0.55714,-0.3482 0.12819,-1.6794 -0.92797,-2.8801 -0.5332,-0.6061 -1.16025,-1.5851 -1.39342,-2.1755 -0.54603,-1.3824 -2.80641,-3.282 -5.57394,-4.6844 -1.24414,-0.6304 -2.45466,-1.5056 -2.80739,-2.0292 -0.34109,-0.5065 -1.00608,-1.1713 -1.47775,-1.4774 -0.85275,-0.5535 -1.01221,-0.8918 -3.05666,-6.4882 -0.83215,-2.2782 -1.85183,-3.3868 -3.96027,-4.3058 -5.41083,-2.3589 -5.2203,-2.3086 -7.56788,-1.9972 -2.41071,0.3201 -3.66046,-0.011 -6.41365,-1.6648 -1.9194,-1.1574 -3.86078,-1.771 -7.61085,-2.4053 -1.71377,-0.2897 -3.28819,-0.5967 -3.49868,-0.6823 -0.21053,-0.087 -0.83292,-0.3456 -1.38308,-0.5781 -1.14524,-0.484 -12.52633,-8.1693 -12.59501,-8.5051 -0.0243,-0.1217 -0.41645,-0.3709 -0.87007,-0.5537 -0.97135,-0.3915 -1.89114,-2.5311 -1.55896,-3.6262 0.11374,-0.3752 0.88968,-1.189 1.72434,-1.8089 1.22363,-0.9087 1.77511,-1.1367 2.84709,-1.1769 1.53077,-0.057 2.21868,0.1767 5.24514,1.7823 3.28574,1.743 4.24183,2.1846 4.58347,2.1164 0.17017,-0.034 0.76182,0.1851 1.31471,0.4867 0.55291,0.3017 1.36935,0.5861 1.81438,0.6324 0.44501,0.048 1.17324,0.2674 1.61825,0.4912 0.44507,0.2237 1.21398,0.4146 1.70875,0.4242 0.49478,0.011 1.28202,0.2901 1.74945,0.6235 0.46743,0.3336 0.98062,0.5803 1.14045,0.5485 0.1598,-0.034 1.45657,0.695 2.88171,1.6154 4.51217,2.9141 4.35209,2.8511 6.65181,2.6116 1.36797,-0.1425 2.42455,-0.061 3.04757,0.2306 0.52454,0.2467 1.12331,0.4148 1.3306,0.3735 0.20737,-0.042 0.92872,0.15 1.60306,0.4248 3.3121,1.3513 4.64306,1.8154 5.00073,1.744 0.21529,-0.043 0.96511,0.1639 1.66628,0.4599 0.70123,0.296 1.61138,0.471 2.0225,0.3889 0.41123,-0.082 1.1511,0.055 1.64421,0.3059 0.49314,0.2502 1.10037,0.4143 1.34935,0.3647 0.59246,-0.1182 3.1564,0.8359 4.90172,1.8239 0.98674,0.5588 1.49544,1.0927 1.77586,1.8643 0.21614,0.5948 0.70699,1.6606 1.09076,2.3684 0.38374,0.7078 0.89056,1.7964 1.12626,2.4185 0.3416,0.9022 0.97031,1.4838 3.10043,2.8677 1.46961,0.955 3.3449,1.9996 4.16732,2.3214 0.82247,0.3218 2.20691,0.9345 3.07647,1.3614 0.8696,0.4271 2.1173,0.9621 2.77265,1.1889 0.65532,0.2269 1.8891,0.6921 2.74168,1.0339 0.85261,0.3419 2.76133,0.9733 4.24163,1.4032 1.48028,0.4301 3.06968,0.9728 3.53196,1.2063 0.4623,0.2337 1.06219,0.381 1.33308,0.3276 0.27086,-0.053 1.39738,0.1493 2.5033,0.4504 1.10593,0.3009 2.16108,0.5177 2.34479,0.4817 0.18364,-0.036 0.62198,0.1481 0.97394,0.4094 0.35196,0.2611 1.15201,0.4689 1.77784,0.4618 0.62583,-0.011 1.87888,0.204 2.78457,0.4693 2.02351,0.5924 3.95597,0.099 6.26601,-1.6037 0.83594,-0.6156 1.76506,-1.1697 2.06477,-1.2311 0.29982,-0.061 1.00274,-0.4698 1.5622,-0.9071 1.21878,-0.9527 2.93477,-1.5916 6.03988,-2.2487 2.58711,-0.5475 4.90677,-0.1876 6.00765,0.932 0.62682,0.6375 1.70709,0.8248 6.19425,1.0737 5.59641,0.3105 5.8569,0.2967 7.22929,-0.3801 0.71085,-0.3507 1.68805,-0.7166 2.17153,-0.813 1.58679,-0.3166 4.66028,0.8554 7.57742,2.8894 2.62434,1.8298 2.84407,2.0705 4.40803,4.8311 1.15172,2.033 1.88211,3.0006 2.43232,3.2223 0.87933,0.3545 1.3916,1.0586 2.56125,3.5201 0.67784,1.4268 1.12785,1.8965 2.93126,3.06 1.92675,1.2433 2.67639,1.5914 5.24697,2.4381 2.14886,0.7077 6.19989,-0.4199 8.02699,-2.2344 0.96754,-0.9611 1.42182,-1.2061 2.25339,-1.2155 1.21026,-0.014 3.17374,1.2386 3.69928,2.3595 0.19999,0.4267 0.67292,0.9607 1.05095,1.1865 0.378,0.2258 0.72311,0.5904 0.76694,0.8101 0.1522,0.7628 1.46543,0.8639 3.41627,0.2624 1.74696,-0.5385 1.91359,-0.5356 2.38148,0.042 0.64876,0.7996 1.08581,0.9684 2.03282,0.7854 0.48422,-0.094 1.43331,0.2545 2.55955,0.9385 l 1.78998,1.0873 3.90567,-0.5422 c 3.61985,-0.5025 3.99958,-0.4963 5.18858,0.085 0.70556,0.3449 1.26317,0.7963 1.23904,1.003 -0.024,0.2068 -0.50842,0.7238 -1.07621,1.1491 -1.38355,1.0357 -1.0961,1.8307 0.59135,1.6354 1.08155,-0.1254 1.29948,-0.2897 1.94627,-1.4694 0.47603,-0.8685 1.16763,-1.5614 1.99682,-2.001 2.94352,-1.5604 5.2143,-1.0967 7.97067,1.6278 1.02614,1.0143 2.42677,2.16 3.11248,2.546 0.6857,0.3865 2.29277,1.2779 3.57119,1.9818 2.43889,1.3422 3.14479,2.1606 3.5301,4.092 0.17198,0.8619 0.0513,1.4769 -0.45972,2.3422 l -0.69301,1.1733 -5.27815,1.0663 c -2.90294,0.5865 -5.44979,1.13 -5.65953,1.2082 -0.20983,0.077 -0.90807,0.8675 -1.5517,1.754 -1.2855,1.7705 -3.37038,3.731 -4.12924,3.8823 -0.26648,0.053 -0.82265,-0.1924 -1.23593,-0.5457 -0.41325,-0.3535 -0.98093,-0.5966 -1.26139,-0.5408 -0.63389,0.1265 -2.09775,2.4216 -2.54778,3.9945 -0.18514,0.6471 -0.68873,1.6746 -1.11911,2.2834 l -0.78259,1.107 -1.48344,-1.1304 c -1.44052,-1.0976 -1.48882,-1.1818 -1.67212,-2.9148 l -0.18865,-1.7849 -0.90973,0.1816 c -0.50035,0.1004 -0.88614,0.3 -0.85721,0.4449 0.091,0.4564 -2.36811,3.9821 -3.28045,4.7035 -0.48011,0.3795 -1.33948,1.3255 -1.90967,2.1026 -1.61379,2.1983 -2.84454,2.5338 -7.16621,1.9519 -1.85151,-0.2493 -2.45995,-0.4887 -3.2391,-1.2749 -0.93586,-0.9444 -2.18102,-1.1323 -2.46441,-0.3719 -0.0656,0.176 -0.60511,0.3375 -1.19905,0.359 -0.98714,0.037 -1.08309,0.1177 -1.11725,0.9568 -0.0206,0.5047 -0.20421,1.3076 -0.40822,1.7842 -0.20395,0.4765 -0.43447,1.4092 -0.51229,2.0729 -0.19552,1.6677 -2.21932,4.0174 -4.20938,4.8875 -0.83593,0.3653 -2.80071,1.0353 -4.36623,1.4889 -1.5655,0.4535 -3.03579,0.9473 -3.26736,1.0973 -0.23151,0.15 -1.20102,0.1659 -2.15441,0.035 z"
       id="path853"
       inkscape:connector-curvature="0" />
    <polygon
       style="fill:#000000;fill-opacity:1"
       points="73,59 81,59 75,53 88,53 88,47 75,47 81,41 73,41 64,50 "
       transform="matrix(-0.89777488,0,0,0.92914225,-496.75775,1071.786)"
       id="polygon5366"
       inkscape:transform-center-x="-645.19866"
       inkscape:transform-center-y="5.3322018" />
    <flowRoot
       xml:space="preserve"
       id="flowRoot5900"
       style="font-style:normal;font-weight:normal;line-height:0.01%;font-family:sans-serif;letter-spacing:0px;word-spacing:0px;fill:#ffcc33;fill-opacity:1;stroke:#ffffff;stroke-width:1px;stroke-linecap:butt;stroke-linejoin:miter;stroke-opacity:1"
       transform="matrix(0.23279767,0,0,0.23279767,-457.19234,801.52775)"><flowRegion
         id="flowRegion5902"
         style="fill:#ffcc33;fill-opacity:1;stroke:#ffffff"><rect
           id="rect5904"
           width="1999.4039"
           height="179.43582"
           x="-4.5352678"
           y="1220.6235"
           style="fill:#ffcc33;fill-opacity:1;stroke:#ffffff" /></flowRegion><flowPara
         id="flowPara5906"
         style="font-style:normal;font-variant:normal;font-weight:normal;font-stretch:normal;font-size:40px;line-height:1.25;font-family:Lato;-inkscape-font-specification:Lato;fill:#ffcc33;fill-opacity:1;stroke:#ffffff"> </flowPara></flowRoot>    <g
       style="fill:#000000"
       id="g4602"
       transform="matrix(0.93969188,0,0,0.93969188,-35.802146,68.582805)">
      <path
         sodipodi:nodetypes="cccc"
         inkscape:connector-curvature="0"
         id="path4610"
         d="m -467.11071,1081.0719 c 20.16182,28.0468 -2.47362,28.3794 -4.11692,38.9263 v 0 c -24.10056,-18.5409 6.87139,-26.7737 4.11692,-38.9263 z"
         style="fill:#000000;fill-opacity:1;stroke:#ffffff;stroke-width:0.07024057px;stroke-linecap:butt;stroke-linejoin:miter;stroke-opacity:1" />
      <path
         sodipodi:nodetypes="cscsc"
         inkscape:connector-curvature="0"
         id="path4612"
         d="m -456.88174,1094.5626 c 7.1436,7.4666 6.46036,15.8287 4.11612,19.4827 -3.27706,5.1081 -10.70846,4.2458 -14.22979,5.546 -1.28551,-5.4054 6.12744,-7.6805 9.1689,-12.7622 2.49357,-4.1662 1.1616,-10.0362 0.94477,-12.2665 z"
         style="fill:#000000;fill-opacity:1;stroke:#ffffff;stroke-width:0.07024057px;stroke-linecap:butt;stroke-linejoin:miter;stroke-opacity:1" />
      <path
         sodipodi:nodetypes="ccc"
         inkscape:connector-curvature="0"
         id="path4614"
         d="m -481.64611,1100.2602 c -14.56574,10.4041 -0.55409,20.0961 6.5491,19.1435 -9.32873,-5.337 -8.55115,-12.7338 -6.5491,-19.1435 z"
         style="fill:#000000;fill-opacity:1;stroke:#ffffff;stroke-width:0.07024057px;stroke-linecap:butt;stroke-linejoin:miter;stroke-opacity:1" />
    </g>
  </g>
</svg>
