<?xml version="1.0" encoding="UTF-8" standalone="no"?>
<!-- Created with Inkscape (http://www.inkscape.org/) -->

<svg
   xmlns:dc="http://purl.org/dc/elements/1.1/"
   xmlns:cc="http://creativecommons.org/ns#"
   xmlns:rdf="http://www.w3.org/1999/02/22-rdf-syntax-ns#"
   xmlns:svg="http://www.w3.org/2000/svg"
   xmlns="http://www.w3.org/2000/svg"
   xmlns:sodipodi="http://sodipodi.sourceforge.net/DTD/sodipodi-0.dtd"
   xmlns:inkscape="http://www.inkscape.org/namespaces/inkscape"
   width="297mm"
   height="210mm"
   viewBox="0 0 297 210"
   id="svg_ffbsee"
   version="1.1"
   inkscape:version="0.92.1 r15371"
   sodipodi:docname="shirt_FreifunkCamp_small.svg"
   inkscape:export-filename="../../Bilder/FreifunkCamp.svg.png"
   inkscape:export-xdpi="230"
   inkscape:export-ydpi="230">
  <defs
     id="defs4941" />
  <sodipodi:namedview
     id="base"
     pagecolor="#ffffff"
     bordercolor="#666666"
     borderopacity="1.0"
     inkscape:pageopacity="0.0"
     inkscape:pageshadow="2"
     inkscape:zoom="1.6524527"
     inkscape:cx="570.82348"
     inkscape:cy="463.87503"
     inkscape:document-units="px"
     inkscape:current-layer="layer1"
     showgrid="false"
     showguides="true"
     inkscape:guide-bbox="true"
     fit-margin-top="0"
     fit-margin-left="0"
     fit-margin-right="0"
     fit-margin-bottom="0"
     inkscape:window-width="1280"
     inkscape:window-height="961"
     inkscape:window-x="1272"
     inkscape:window-y="-8"
     inkscape:window-maximized="1">
    <sodipodi:guide
       position="8.2031263e-07,10.478978"
       orientation="1,0"
       id="guide5871"
       inkscape:locked="false" />
    <sodipodi:guide
       position="282.42396,210.06443"
       orientation="0,1"
       id="guide5877"
       inkscape:locked="false" />
    <sodipodi:guide
       position="282.22169,-3.0517578e-05"
       orientation="0,1"
       id="guide5990"
       inkscape:locked="false" />
    <sodipodi:guide
       position="282.22224,10.477875"
       orientation="1,0"
       id="guide4175"
       inkscape:locked="false" />
    <sodipodi:guide
       position="140.58143,101.51324"
       orientation="0,1"
       id="guide1075"
       inkscape:locked="false" />
    <sodipodi:guide
       position="104.71556,109.51902"
       orientation="1,0"
       id="guide1077"
       inkscape:locked="false" />
    <sodipodi:guide
       position="213.59412,101.51324"
       orientation="1,0"
       id="guide1079"
       inkscape:locked="false" />
  </sodipodi:namedview>
  <metadata
     id="metadata4944">
    <rdf:RDF>
      <cc:Work
         rdf:about="">
        <dc:format>image/svg+xml</dc:format>
        <dc:type
           rdf:resource="http://purl.org/dc/dcmitype/StillImage" />
        <dc:title></dc:title>
      </cc:Work>
    </rdf:RDF>
  </metadata>
  <g
     inkscape:label="Ebene 1"
     inkscape:groupmode="layer"
     id="layer1"
     transform="translate(685.57434,-1037.474)"
     style="opacity:1">
    <rect
       y="1042.1071"
       x="-1161.2629"
       height="279.00967"
       width="394.53293"
       id="rect4177"
       style="opacity:1;fill:#ffffff;fill-opacity:1;stroke:none;stroke-width:0.03465098;stroke-miterlimit:3.5999999;stroke-dasharray:none;stroke-opacity:1"
       inkscape:export-filename="../../Bilder/FFCamp_white.png"
       inkscape:export-xdpi="400"
       inkscape:export-ydpi="400" />
    <path
       inkscape:export-ydpi="7.1930156"
       inkscape:export-xdpi="7.1930156"
       inkscape:export-filename="/home/kr0l/pixelflutffbsee.png"
       style="fill:#ffffff;fill-opacity:1;stroke:#ffffff;stroke-width:0.2729063;stroke-linecap:square;stroke-linejoin:miter;stroke-miterlimit:4;stroke-dasharray:none;paint-order:stroke fill markers"
       d="m -480.39918,1193.2572 c -0.92352,-0.1266 -1.8077,-0.3261 -1.96497,-0.4432 -0.15718,-0.1173 -1.15566,-0.8684 -2.2188,-1.6694 -2.25587,-1.6996 -4.1046,-2.5178 -5.95214,-2.634 -0.82975,-0.052 -1.56739,-0.3329 -1.98071,-0.753 -0.36221,-0.3687 -1.41505,-0.8387 -2.33968,-1.0448 -1.88649,-0.4209 -2.34423,-0.8415 -3.01016,-2.766 -0.41686,-1.2049 -0.61446,-1.3942 -1.98732,-1.9038 -2.45334,-0.9111 -3.68455,-1.4803 -4.95307,-2.2902 -0.65491,-0.4182 -1.3055,-0.7373 -1.44575,-0.7093 -0.14023,0.028 -1.58736,-0.7974 -3.21582,-1.8346 -1.62852,-1.0369 -3.51765,-2.1085 -4.19807,-2.3816 -1.49055,-0.5977 -2.34104,-2.0701 -2.47455,-4.2844 -0.0487,-0.8083 -0.28567,-1.9863 -0.52631,-2.618 -0.37487,-0.9831 -0.69091,-1.252 -2.19801,-1.8699 -0.96806,-0.3968 -1.97105,-0.6795 -2.22886,-0.628 -0.25773,0.051 -0.55896,0 -0.6693,-0.1216 -0.11028,-0.1185 -1.57813,-0.5873 -3.26179,-1.0421 -1.68364,-0.4546 -3.26441,-0.9915 -3.51285,-1.1928 -0.24841,-0.2014 -0.66833,-0.325 -0.93307,-0.2746 -0.26476,0.05 -0.80456,-0.015 -1.19954,-0.1446 -3.1175,-1.0241 -4.67086,-1.6601 -6.54767,-2.6808 -4.66875,-2.5394 -4.77045,-2.5785 -9.05648,-3.4988 -1.45399,-0.3123 -6.80939,-1.7527 -9.56976,-2.5746 -1.34631,-0.4007 -3.06204,-0.6914 -3.81275,-0.6459 -1.39391,0.084 -4.5573,-0.5237 -4.95765,-0.9531 -0.28483,-0.3053 -4.65699,-1.5119 -5.13409,-1.4168 -0.19859,0.041 -1.3764,-0.1894 -2.61731,-0.5092 -2.46002,-0.6337 -4.37319,-1.9632 -5.20625,-3.6184 -0.2628,-0.522 -0.72222,-1.1124 -1.02095,-1.3118 -0.81754,-0.5456 -3.89289,0.1654 -5.3969,1.2476 -2.98536,2.148 -4.25676,2.6989 -6.29367,2.7256 -1.04871,0.014 -3.25225,0.2054 -4.89672,0.4258 -2.77028,0.3711 -3.10193,0.3481 -4.51353,-0.3118 -1.33695,-0.6251 -1.66337,-0.6593 -2.6647,-0.2773 -0.62762,0.2393 -4.86552,1.1555 -9.41751,2.0356 -8.23343,1.5923 -8.2826,1.6057 -9.46392,2.5798 -0.65315,0.5387 -1.84726,1.2838 -2.65365,1.6558 -1.65496,0.7638 -3.26475,1.9524 -3.64497,2.6914 -0.78635,1.5283 -3.45182,4.5824 -4.29529,4.9215 -0.52308,0.2104 -1.31956,0.7876 -1.76996,1.2826 -0.45041,0.4951 -0.98919,0.934 -1.19728,0.9755 -0.2081,0.041 -0.76046,0.4276 -1.22745,0.8578 -0.46699,0.4302 -1.33702,0.8801 -1.93337,0.9996 -0.73883,0.1482 -1.3287,0.5233 -1.85157,1.1774 -0.50498,0.6317 -1.23212,1.1046 -2.12675,1.3832 -0.82302,0.2564 -1.58153,0.7254 -1.92227,1.1885 -0.80482,1.0936 -3.54155,1.6301 -4.872,0.955 -0.52083,-0.2644 -1.34213,-0.4883 -1.8251,-0.4975 -0.48293,-0.011 -1.15109,-0.2195 -1.48477,-0.4671 -0.34575,-0.2565 -1.24199,-0.4117 -2.08381,-0.3611 -1.82772,0.1104 -2.63236,-0.4011 -1.90989,-1.2139 0.38265,-0.4304 1.0081,-0.6145 2.81491,-0.8283 1.2776,-0.1511 2.69018,-0.2131 3.13912,-0.1377 1.41222,0.2373 2.91998,-0.2537 5.17135,-1.6834 1.19888,-0.7613 2.9755,-1.7921 3.94812,-2.2905 0.97258,-0.4983 1.8854,-1.0815 2.02847,-1.296 0.14313,-0.2144 0.47906,-0.4335 0.74659,-0.4869 0.26752,-0.053 1.01683,-0.833 1.66512,-1.7326 0.64829,-0.8996 1.67953,-1.9918 2.29167,-2.4272 0.61213,-0.4355 1.17319,-0.9532 1.24674,-1.1506 0.0735,-0.1976 0.48425,-0.4292 0.91259,-0.5146 1.29686,-0.2587 7.7918,-10.5607 7.51928,-11.9267 -0.0708,-0.3552 -0.53255,-0.8656 -1.02599,-1.1343 -0.49343,-0.2685 -1.17346,-0.6562 -1.51118,-0.8612 -0.33774,-0.2048 -1.14246,-0.3665 -1.7883,-0.3591 -0.64584,0.011 -1.53548,-0.17 -1.977,-0.3938 -0.4415,-0.2241 -1.24628,-0.4129 -1.78845,-0.4196 -0.54216,-0.011 -1.21847,-0.1402 -1.50294,-0.2966 -0.28448,-0.1564 -1.08194,-0.3453 -1.77217,-0.4197 -0.69023,-0.074 -1.4685,-0.2476 -1.72946,-0.3846 -0.49037,-0.2573 -2.15688,-0.7818 -4.52527,-1.424 -0.74958,-0.2031 -1.72719,-0.7124 -2.17252,-1.1315 l -0.80969,-0.7622 1.04897,-1.4227 c 1.14006,-1.5463 4.25881,-3.502 5.49267,-3.4442 3.72242,0.1745 4.01517,0.2284 7.71594,1.4205 2.55336,0.8223 3.99481,0.7892 3.81987,-0.088 -0.09,-0.4512 -2.72831,-1.9635 -3.2456,-1.8603 -0.26364,0.052 -3.08,-1.1809 -3.53099,-1.5464 -0.32629,-0.2645 -0.31802,-0.5445 0.0368,-1.2435 0.25182,-0.4962 0.62773,-0.9361 0.83532,-0.9776 0.40409,-0.081 2.8299,0.5978 4.33555,1.2122 2.20447,0.9001 5.07991,1.7641 9.05931,2.7223 0.88682,0.2133 2.41347,0.585 3.39257,0.8261 0.97912,0.2408 1.94486,0.405 2.14611,0.365 0.20125,-0.04 0.91465,0.094 1.58539,0.2977 0.67071,0.2038 1.42269,0.3301 1.67112,0.2805 0.24835,-0.049 0.97857,0.07 1.62263,0.2659 0.64409,0.1959 1.7622,0.3951 2.48461,0.4431 2.86003,0.1892 8.35594,3.2894 8.67599,4.8938 0.25242,1.2652 -0.65389,1.7613 -4.04905,2.2164 l -3.02878,0.4058 -1.7541,-1.0316 c -3.11268,-1.8303 -3.66615,-2.0093 -5.85477,-1.8925 -2.97949,0.1591 -2.85523,0.083 -2.56035,1.5615 0.4023,2.0165 0.98409,2.6145 2.65157,2.7255 0.79293,0.052 1.69235,0.2364 1.99874,0.4079 0.30635,0.1715 1.36461,0.2827 2.35171,0.2472 0.98708,-0.036 2.18691,0.013 2.66634,0.1081 0.49378,0.098 1.33754,-0.011 1.9464,-0.2456 0.59112,-0.2297 2.18039,-0.7907 3.5317,-1.2467 3.39067,-1.1444 3.87056,-0.9965 6.07666,1.8722 1.3901,1.8076 1.96394,2.3116 3.08495,2.7091 l 1.37716,0.4885 1.55196,-1.0096 c 0.85357,-0.5553 1.80791,-1.3438 2.12074,-1.7522 0.50741,-0.6625 0.9043,-0.8012 3.67622,-1.2844 2.1931,-0.3821 3.41329,-0.4528 4.14696,-0.24 1.01909,0.2956 7.77,-0.4231 8.54927,-0.9101 0.53966,-0.3372 0.12417,-1.6266 -0.89885,-2.7897 -0.51647,-0.5871 -1.12384,-1.5353 -1.34969,-2.1072 -0.5289,-1.3391 -2.71836,-3.1791 -5.39904,-4.5374 -1.2051,-0.6107 -2.37764,-1.4584 -2.71931,-1.9656 -0.33038,-0.4906 -0.9745,-1.1346 -1.43138,-1.4311 -0.82599,-0.536 -0.98044,-0.8638 -2.96074,-6.2846 -0.80604,-2.2067 -1.79372,-3.2805 -3.83601,-4.1707 -5.24104,-2.2848 -5.05648,-2.2361 -7.3304,-1.9344 -2.33507,0.31 -3.54561,-0.011 -6.21241,-1.6126 -1.85917,-1.1211 -3.73963,-1.7154 -7.37202,-2.3298 -1.66,-0.2806 -3.18502,-0.578 -3.3889,-0.6609 -0.20393,-0.084 -0.80679,-0.3348 -1.33969,-0.56 -1.1093,-0.4688 -12.13326,-7.9129 -12.19979,-8.2382 -0.0236,-0.1179 -0.40338,-0.3593 -0.84277,-0.5364 -0.94087,-0.3791 -1.8318,-2.4516 -1.51004,-3.5124 0.11017,-0.3633 0.86177,-1.1516 1.67023,-1.7521 1.18523,-0.8802 1.71941,-1.101 2.75775,-1.14 1.48274,-0.055 2.14906,0.1712 5.08056,1.7264 3.18263,1.6883 4.10873,2.116 4.43965,2.05 0.16483,-0.033 0.73791,0.1793 1.27345,0.4714 0.53556,0.2923 1.32639,0.5678 1.75745,0.6125 0.43105,0.046 1.13642,0.259 1.56747,0.4758 0.4311,0.2167 1.17589,0.4017 1.65513,0.4109 0.47926,0.011 1.2418,0.2811 1.69456,0.604 0.45276,0.3231 0.94985,0.5621 1.10466,0.5313 0.15479,-0.032 1.41087,0.6732 2.79129,1.5647 4.37058,2.8226 4.21553,2.7617 6.44309,2.5297 1.32504,-0.1381 2.34847,-0.059 2.95193,0.2233 0.50809,0.239 1.08807,0.4018 1.28885,0.3618 0.20087,-0.04 0.89958,0.1452 1.55276,0.4115 3.20818,1.3088 4.49737,1.7584 4.84382,1.6892 0.20854,-0.041 0.93483,0.1588 1.614,0.4455 0.67922,0.2867 1.56081,0.4562 1.95904,0.3767 0.39831,-0.08 1.11497,0.053 1.59261,0.2963 0.47766,0.2424 1.06584,0.4013 1.30701,0.3532 0.57386,-0.1145 3.05735,0.8097 4.74791,1.7668 0.95578,0.5412 1.44852,1.0584 1.72013,1.8057 0.20936,0.5761 0.68481,1.6085 1.05654,2.2941 0.3717,0.6856 0.86261,1.74 1.09092,2.3427 0.33088,0.8739 0.93986,1.4371 3.00315,2.7777 1.42349,0.9249 3.23993,1.9368 4.03655,2.2485 0.79666,0.3117 2.13765,0.9052 2.97993,1.3187 0.84232,0.4137 2.05087,0.9319 2.68565,1.1516 0.63476,0.2197 1.82983,0.6704 2.65565,1.0014 0.82586,0.3312 2.67468,0.9428 4.10854,1.3592 1.43383,0.4166 2.97336,0.9423 3.42113,1.1685 0.4478,0.2263 1.02886,0.369 1.29125,0.3173 0.26236,-0.051 1.35353,0.1446 2.42475,0.4362 1.07122,0.2915 2.09327,0.5015 2.27121,0.4666 0.17788,-0.035 0.60246,0.1435 0.94339,0.3965 0.34091,0.2529 1.11585,0.4543 1.72205,0.4473 0.60619,-0.011 1.81992,0.1977 2.69719,0.4546 1.96001,0.5739 3.83184,0.096 6.0694,-1.5533 0.8097,-0.5963 1.70967,-1.133 1.99998,-1.1925 0.2904,-0.059 0.97127,-0.4551 1.51318,-0.8786 1.18053,-0.9228 2.84268,-1.5417 5.85035,-2.1781 2.50593,-0.5304 4.75281,-0.1818 5.81914,0.9027 0.60715,0.6175 1.65352,0.7989 5.99988,1.04 5.42081,0.3008 5.67313,0.2874 7.00245,-0.3682 0.68855,-0.3396 1.63508,-0.6941 2.10339,-0.7874 1.537,-0.3067 4.51405,0.8285 7.33965,2.7987 2.54199,1.7723 2.75483,2.0055 4.26972,4.6795 1.11557,1.9692 1.82305,2.9064 2.35599,3.1212 0.85174,0.3433 1.34794,1.0253 2.48089,3.4096 0.65657,1.382 1.09246,1.837 2.83928,2.964 1.86629,1.2043 2.59241,1.5415 5.08233,2.3616 2.08143,0.6855 6.00535,-0.4068 7.77511,-2.1643 0.93718,-0.9309 1.37721,-1.1682 2.18269,-1.1774 1.17228,-0.014 3.07415,1.1998 3.58319,2.2855 0.19372,0.4133 0.65181,0.9305 1.01797,1.1493 0.36615,0.2187 0.70043,0.5719 0.74288,0.7846 0.14743,0.7389 1.41945,0.8368 3.30908,0.2542 1.69214,-0.5216 1.85354,-0.5188 2.30674,0.04 0.62842,0.7745 1.05175,0.938 1.96904,0.7608 0.46902,-0.091 1.38833,0.2465 2.47923,0.909 l 1.73382,1.0532 3.78312,-0.5252 c 3.50626,-0.4867 3.87408,-0.4807 5.02576,0.083 0.68342,0.3341 1.22354,0.7713 1.20017,0.9716 -0.0233,0.2003 -0.49247,0.7011 -1.04244,1.113 -1.34014,1.0032 -1.06171,1.7733 0.57279,1.5841 1.04761,-0.1214 1.2587,-0.2806 1.8852,-1.4233 0.46109,-0.8412 1.131,-1.5124 1.93416,-1.9382 2.85116,-1.5115 5.05068,-1.0623 7.72057,1.5767 0.99393,0.9825 2.35062,2.0922 3.01482,2.4661 0.66417,0.3744 2.22082,1.2378 3.45912,1.9196 2.36236,1.3001 3.04611,2.0928 3.41933,3.9636 0.16658,0.8349 0.0497,1.4306 -0.4453,2.2688 l -0.67125,1.1364 -5.11253,1.0329 c -2.81185,0.568 -5.27879,1.0945 -5.48195,1.1703 -0.20324,0.075 -0.87958,0.8402 -1.50301,1.6989 -1.24516,1.715 -3.26462,3.6139 -3.99967,3.7605 -0.25811,0.051 -0.79684,-0.1864 -1.19715,-0.5286 -0.40028,-0.3424 -0.95015,-0.5779 -1.22181,-0.5238 -0.614,0.1225 -2.03192,2.3456 -2.46783,3.8692 -0.17934,0.6268 -0.66712,1.622 -1.084,2.2117 l -0.75803,1.0723 -1.43689,-1.095 c -1.39532,-1.0631 -1.4421,-1.1447 -1.61965,-2.8233 l -0.18274,-1.7289 -0.88117,0.1759 c -0.48466,0.097 -0.85834,0.2906 -0.83032,0.4309 0.0882,0.4421 -2.2938,3.8572 -3.17752,4.556 -0.46504,0.3676 -1.29744,1.2839 -1.84974,2.0365 -1.56315,2.1294 -2.75528,2.4543 -6.94134,1.8907 -1.79342,-0.2414 -2.38277,-0.4733 -3.13747,-1.2348 -0.9065,-0.9149 -2.11258,-1.0968 -2.38708,-0.3603 -0.0635,0.1705 -0.58612,0.3269 -1.16143,0.3477 -0.95616,0.035 -1.0491,0.114 -1.08219,0.9268 -0.0199,0.4889 -0.1978,1.2666 -0.39541,1.7282 -0.19755,0.4615 -0.42084,1.365 -0.49621,2.0079 -0.18939,1.6153 -2.14969,3.8914 -4.0773,4.7341 -0.8097,0.3539 -2.71282,1.0028 -4.22923,1.4422 -1.51637,0.4393 -2.94052,0.9176 -3.16483,1.0629 -0.22424,0.1453 -1.16333,0.1606 -2.08681,0.034 z"
       id="path853"
       inkscape:connector-curvature="0" />
    <g
       id="g978"
       transform="matrix(0.63154393,0,0,0.63154393,-589.57108,1075.5538)">
      <rect
         style="fill:#ffffff;fill-opacity:1;stroke:none"
         x="0"
         y="0"
         width="170"
         height="165"
         id="rect976" />
    </g>
    <ellipse
       id="circle980"
       stroke-miterlimit="4"
       cy="1151.8818"
       cx="-555.63477"
       style="fill:none;stroke:#000000;stroke-width:1.32874954;stroke-miterlimit:4;stroke-dasharray:none;stroke-opacity:1"
       rx="25.27466"
       ry="25.768835" />
    <ellipse
       id="circle982"
       stroke-miterlimit="4"
       cy="1138.8883"
       cx="-510.62573"
       style="fill:none;stroke:#000000;stroke-width:1.32874966;stroke-miterlimit:4;stroke-dasharray:none;stroke-opacity:1"
       rx="27.283335"
       ry="27.74992" />
    <ellipse
       id="circle984"
       stroke-miterlimit="4"
       cy="1138.8882"
       cx="-510.74213"
       style="fill:none;stroke:#000000;stroke-width:7.18877649;stroke-miterlimit:4;stroke-dasharray:none;stroke-opacity:1"
       rx="35.69561"
       ry="36.045486" />
    <ellipse
       ry="32.551609"
       rx="32.004292"
       style="fill:none;stroke:#ffffff;stroke-width:0.2121263;stroke-miterlimit:4;stroke-dasharray:none;stroke-opacity:1"
       cx="-510.69296"
       cy="1138.8199"
       stroke-miterlimit="4"
       id="ellipse4539" />
    <ellipse
       id="ellipse4541"
       stroke-miterlimit="4"
       cy="1138.8652"
       cx="-510.64853"
       style="fill:none;stroke:#ffffff;stroke-width:0.26097897;stroke-miterlimit:4;stroke-dasharray:none;stroke-opacity:1"
       rx="39.374882"
       ry="40.048244" />
  </g>
</svg>
