<?xml version="1.0" encoding="UTF-8" standalone="no"?>
<!-- Created with Inkscape (http://www.inkscape.org/) -->

<svg
   xmlns:dc="http://purl.org/dc/elements/1.1/"
   xmlns:cc="http://creativecommons.org/ns#"
   xmlns:rdf="http://www.w3.org/1999/02/22-rdf-syntax-ns#"
   xmlns:svg="http://www.w3.org/2000/svg"
   xmlns="http://www.w3.org/2000/svg"
   xmlns:sodipodi="http://sodipodi.sourceforge.net/DTD/sodipodi-0.dtd"
   xmlns:inkscape="http://www.inkscape.org/namespaces/inkscape"
   width="297mm"
   height="210mm"
   viewBox="0 0 297 210"
   id="svg_ffbsee"
   version="1.1"
   inkscape:version="0.92.2 2405546, 2018-03-11"
   sodipodi:docname="shirt_FreifunkCamp_big.svg"
   inkscape:export-filename="../../Bilder/FreifunkCamp.svg.png"
   inkscape:export-xdpi="230"
   inkscape:export-ydpi="230">
  <defs
     id="defs4941" />
  <sodipodi:namedview
     id="base"
     pagecolor="#ffffff"
     bordercolor="#666666"
     borderopacity="1.0"
     inkscape:pageopacity="0.0"
     inkscape:pageshadow="2"
     inkscape:zoom="0.41311318"
     inkscape:cx="1003.8181"
     inkscape:cy="-61.357578"
     inkscape:document-units="px"
     inkscape:current-layer="layer1"
     showgrid="false"
     showguides="true"
     inkscape:guide-bbox="true"
     fit-margin-top="0"
     fit-margin-left="0"
     fit-margin-right="0"
     fit-margin-bottom="0"
     inkscape:window-width="2560"
     inkscape:window-height="1353"
     inkscape:window-x="0"
     inkscape:window-y="0"
     inkscape:window-maximized="1">
    <sodipodi:guide
       position="8.2031263e-07,10.478978"
       orientation="1,0"
       id="guide5871"
       inkscape:locked="false" />
    <sodipodi:guide
       position="282.42396,210.06443"
       orientation="0,1"
       id="guide5877"
       inkscape:locked="false" />
    <sodipodi:guide
       position="282.22169,-3.0517578e-05"
       orientation="0,1"
       id="guide5990"
       inkscape:locked="false" />
    <sodipodi:guide
       position="282.22224,10.477875"
       orientation="1,0"
       id="guide4175"
       inkscape:locked="false" />
  </sodipodi:namedview>
  <metadata
     id="metadata4944">
    <rdf:RDF>
      <cc:Work
         rdf:about="">
        <dc:format>image/svg+xml</dc:format>
        <dc:type
           rdf:resource="http://purl.org/dc/dcmitype/StillImage" />
        <dc:title></dc:title>
      </cc:Work>
    </rdf:RDF>
  </metadata>
  <g
     inkscape:label="Ebene 1"
     inkscape:groupmode="layer"
     id="layer1"
     transform="translate(685.57434,-1037.474)"
     style="opacity:1">
    <rect
       y="1042.1071"
       x="-1161.2629"
       height="279.00967"
       width="394.53293"
       id="rect4177"
       style="opacity:1;fill:#ffffff;fill-opacity:1;stroke:none;stroke-width:0.03465098;stroke-miterlimit:3.5999999;stroke-dasharray:none;stroke-opacity:1"
       inkscape:export-filename="../../Bilder/FFCamp_white.png"
       inkscape:export-xdpi="400"
       inkscape:export-ydpi="400" />
    <rect
       style="opacity:1;fill:#ffffff;fill-opacity:1;stroke:none;stroke-width:0.03019496;stroke-miterlimit:3.5999999;stroke-dasharray:none;stroke-opacity:1"
       id="rect4173"
       width="239.71629"
       height="178.42558"
       x="-661.61725"
       y="1050.7531" />
    <path
       style="color:#000000;font-style:normal;font-variant:normal;font-weight:normal;font-stretch:normal;font-size:medium;line-height:normal;font-family:sans-serif;text-indent:0;text-align:start;text-decoration:none;text-decoration-line:none;text-decoration-style:solid;text-decoration-color:#000000;letter-spacing:normal;word-spacing:normal;text-transform:none;writing-mode:lr-tb;direction:ltr;baseline-shift:baseline;text-anchor:start;white-space:normal;clip-rule:nonzero;display:inline;overflow:visible;visibility:visible;opacity:1;isolation:auto;mix-blend-mode:normal;color-interpolation:sRGB;color-interpolation-filters:linearRGB;solid-color:#000000;solid-opacity:1;fill:#000000;fill-opacity:1;fill-rule:nonzero;stroke:#ffffff;stroke-width:0.168946;stroke-linecap:butt;stroke-linejoin:miter;stroke-miterlimit:4;stroke-dasharray:none;stroke-dashoffset:0;stroke-opacity:1;color-rendering:auto;image-rendering:auto;shape-rendering:auto;text-rendering:auto;enable-background:accumulate"
       d="m -485.23973,1067.9645 c -23.09119,0 -41.81507,19.0545 -41.81507,42.513 0,23.4585 18.72388,42.5131 41.81507,42.5131 23.09121,0 41.81505,-19.0546 41.81505,-42.5131 0,-23.4585 -18.72384,-42.513 -41.81505,-42.513 z m 0,1.9879 c 21.9984,0 39.82696,18.1229 39.82696,40.5251 0,22.4021 -17.82856,40.5252 -39.82696,40.5252 -21.9984,0 -39.82697,-18.1231 -39.82697,-40.5252 0,-22.4022 17.82857,-40.5251 39.82697,-40.5251 z"
       id="circle3878"
       inkscape:connector-curvature="0" />
    <path
       style="color:#000000;font-style:normal;font-variant:normal;font-weight:normal;font-stretch:normal;font-size:medium;line-height:normal;font-family:sans-serif;text-indent:0;text-align:start;text-decoration:none;text-decoration-line:none;text-decoration-style:solid;text-decoration-color:#000000;letter-spacing:normal;word-spacing:normal;text-transform:none;writing-mode:lr-tb;direction:ltr;baseline-shift:baseline;text-anchor:start;white-space:normal;clip-rule:nonzero;display:inline;overflow:visible;visibility:visible;opacity:1;isolation:auto;mix-blend-mode:normal;color-interpolation:sRGB;color-interpolation-filters:linearRGB;solid-color:#000000;solid-opacity:1;fill:#000000;fill-opacity:1;fill-rule:nonzero;stroke:#ffffff;stroke-width:0.168946;stroke-linecap:butt;stroke-linejoin:miter;stroke-miterlimit:4;stroke-dasharray:none;stroke-dashoffset:0;stroke-opacity:1;color-rendering:auto;image-rendering:auto;shape-rendering:auto;text-rendering:auto;enable-background:accumulate"
       d="m -542.98672,1071.6072 c -20.07347,0 -36.34859,16.6046 -36.34859,37.041 0,20.4365 16.27512,37.0408 36.34859,37.0408 20.0735,0 36.34839,-16.6043 36.34839,-37.0408 0,-20.4364 -16.27489,-37.041 -36.34839,-37.041 z m 0,1.862 c 19.04754,0 34.48635,15.7295 34.48635,35.179 0,19.4495 -15.43881,35.179 -34.48635,35.179 -19.04752,0 -34.48653,-15.7295 -34.48653,-35.179 0,-19.4495 15.43901,-35.179 34.48653,-35.179 z"
       id="ellipse5364"
       inkscape:connector-curvature="0" />
    <path
       inkscape:export-ydpi="7.1930156"
       inkscape:export-xdpi="7.1930156"
       inkscape:export-filename="/home/kr0l/pixelflutffbsee.png"
       style="fill:#ffffff;fill-opacity:1;stroke:#ffffff;stroke-width:0.2729063;stroke-linecap:square;stroke-linejoin:miter;stroke-miterlimit:4;stroke-dasharray:none;paint-order:stroke fill markers"
       d="m -485.38081,1193.2572 c -0.92352,-0.1266 -1.8077,-0.3261 -1.96497,-0.4432 -0.15718,-0.1173 -1.15566,-0.8684 -2.2188,-1.6694 -2.25587,-1.6996 -4.1046,-2.5178 -5.95214,-2.634 -0.82975,-0.052 -1.56739,-0.3329 -1.98071,-0.753 -0.36221,-0.3687 -1.41505,-0.8387 -2.33968,-1.0448 -1.88649,-0.4209 -2.34423,-0.8415 -3.01016,-2.766 -0.41686,-1.2049 -0.61446,-1.3942 -1.98732,-1.9038 -2.45334,-0.9111 -3.68455,-1.4803 -4.95307,-2.2902 -0.65491,-0.4182 -1.3055,-0.7373 -1.44575,-0.7093 -0.14023,0.028 -1.58736,-0.7974 -3.21582,-1.8346 -1.62852,-1.0369 -3.51765,-2.1085 -4.19807,-2.3816 -1.49055,-0.5977 -2.34104,-2.0701 -2.47455,-4.2844 -0.0487,-0.8083 -0.28567,-1.9863 -0.52631,-2.618 -0.37487,-0.9831 -0.69091,-1.252 -2.19801,-1.8699 -0.96806,-0.3968 -1.97105,-0.6795 -2.22886,-0.628 -0.25773,0.051 -0.55896,0 -0.6693,-0.1216 -0.11028,-0.1185 -1.57813,-0.5873 -3.26179,-1.0421 -1.68364,-0.4546 -3.26441,-0.9915 -3.51285,-1.1928 -0.24841,-0.2014 -0.66833,-0.325 -0.93307,-0.2746 -0.26476,0.05 -0.80456,-0.015 -1.19954,-0.1446 -3.1175,-1.0241 -4.67086,-1.6601 -6.54767,-2.6808 -4.66875,-2.5394 -4.77045,-2.5785 -9.05648,-3.4988 -1.45399,-0.3123 -6.80939,-1.7527 -9.56976,-2.5746 -1.34631,-0.4007 -3.06204,-0.6914 -3.81275,-0.6459 -1.39391,0.084 -4.5573,-0.5237 -4.95765,-0.9531 -0.28483,-0.3053 -4.65699,-1.5119 -5.13409,-1.4168 -0.19859,0.041 -1.3764,-0.1894 -2.61731,-0.5092 -2.46002,-0.6337 -4.37319,-1.9632 -5.20625,-3.6184 -0.2628,-0.522 -0.72222,-1.1124 -1.02095,-1.3118 -0.81754,-0.5456 -3.89289,0.1654 -5.3969,1.2476 -2.98536,2.148 -4.25676,2.6989 -6.29367,2.7256 -1.04871,0.014 -3.25225,0.2054 -4.89672,0.4258 -2.77028,0.3711 -3.10193,0.3481 -4.51353,-0.3118 -1.33695,-0.6251 -1.66337,-0.6593 -2.6647,-0.2773 -0.62762,0.2393 -4.86552,1.1555 -9.41751,2.0356 -8.23343,1.5923 -8.2826,1.6057 -9.46392,2.5798 -0.65315,0.5387 -1.84726,1.2838 -2.65365,1.6558 -1.65496,0.7638 -3.26475,1.9524 -3.64497,2.6914 -0.78635,1.5283 -3.45182,4.5824 -4.29529,4.9215 -0.52308,0.2104 -1.31956,0.7876 -1.76996,1.2826 -0.45041,0.4951 -0.98919,0.934 -1.19728,0.9755 -0.2081,0.041 -0.76046,0.4276 -1.22745,0.8578 -0.46699,0.4302 -1.33702,0.8801 -1.93337,0.9996 -0.73883,0.1482 -1.3287,0.5233 -1.85157,1.1774 -0.50498,0.6317 -1.23212,1.1046 -2.12675,1.3832 -0.82302,0.2564 -1.58153,0.7254 -1.92227,1.1885 -0.80482,1.0936 -3.54155,1.6301 -4.872,0.955 -0.52083,-0.2644 -1.34213,-0.4883 -1.8251,-0.4975 -0.48293,-0.011 -1.15109,-0.2195 -1.48477,-0.4671 -0.34575,-0.2565 -1.24199,-0.4117 -2.08381,-0.3611 -1.82772,0.1104 -2.63236,-0.4011 -1.90989,-1.2139 0.38265,-0.4304 1.0081,-0.6145 2.81491,-0.8283 1.2776,-0.1511 2.69018,-0.2131 3.13912,-0.1377 1.41222,0.2373 2.91998,-0.2537 5.17135,-1.6834 1.19888,-0.7613 2.9755,-1.7921 3.94812,-2.2905 0.97258,-0.4983 1.8854,-1.0815 2.02847,-1.296 0.14313,-0.2144 0.47906,-0.4335 0.74659,-0.4869 0.26752,-0.053 1.01683,-0.833 1.66512,-1.7326 0.64829,-0.8996 1.67953,-1.9918 2.29167,-2.4272 0.61213,-0.4355 1.17319,-0.9532 1.24674,-1.1506 0.0735,-0.1976 0.48425,-0.4292 0.91259,-0.5146 1.29686,-0.2587 7.7918,-10.5607 7.51928,-11.9267 -0.0708,-0.3552 -0.53255,-0.8656 -1.02599,-1.1343 -0.49343,-0.2685 -1.17346,-0.6562 -1.51118,-0.8612 -0.33774,-0.2048 -1.14246,-0.3665 -1.7883,-0.3591 -0.64584,0.011 -1.53548,-0.17 -1.977,-0.3938 -0.4415,-0.2241 -1.24628,-0.4129 -1.78845,-0.4196 -0.54216,-0.011 -1.21847,-0.1402 -1.50294,-0.2966 -0.28448,-0.1564 -1.08194,-0.3453 -1.77217,-0.4197 -0.69023,-0.074 -1.4685,-0.2476 -1.72946,-0.3846 -0.49037,-0.2573 -2.15688,-0.7818 -4.52527,-1.424 -0.74958,-0.2031 -1.72719,-0.7124 -2.17252,-1.1315 l -0.80969,-0.7622 1.04897,-1.4227 c 1.14006,-1.5463 4.25881,-3.502 5.49267,-3.4442 3.72242,0.1745 4.01517,0.2284 7.71594,1.4205 2.55336,0.8223 3.99481,0.7892 3.81987,-0.088 -0.09,-0.4512 -2.72831,-1.9635 -3.2456,-1.8603 -0.26364,0.052 -3.08,-1.1809 -3.53099,-1.5464 -0.32629,-0.2645 -0.31802,-0.5445 0.0368,-1.2435 0.25182,-0.4962 0.62773,-0.9361 0.83532,-0.9776 0.40409,-0.081 2.8299,0.5978 4.33555,1.2122 2.20447,0.9001 5.07991,1.7641 9.05931,2.7223 0.88682,0.2133 2.41347,0.585 3.39257,0.8261 0.97912,0.2408 1.94486,0.405 2.14611,0.365 0.20125,-0.04 0.91465,0.094 1.58539,0.2977 0.67071,0.2038 1.42269,0.3301 1.67112,0.2805 0.24835,-0.049 0.97857,0.07 1.62263,0.2659 0.64409,0.1959 1.7622,0.3951 2.48461,0.4431 2.86003,0.1892 8.35594,3.2894 8.67599,4.8938 0.25242,1.2652 -0.65389,1.7613 -4.04905,2.2164 l -3.02878,0.4058 -1.7541,-1.0316 c -3.11268,-1.8303 -3.66615,-2.0093 -5.85477,-1.8925 -2.97949,0.1591 -2.85523,0.083 -2.56035,1.5615 0.4023,2.0165 0.98409,2.6145 2.65157,2.7255 0.79293,0.052 1.69235,0.2364 1.99874,0.4079 0.30635,0.1715 1.36461,0.2827 2.35171,0.2472 0.98708,-0.036 2.18691,0.013 2.66634,0.1081 0.49378,0.098 1.33754,-0.011 1.9464,-0.2456 0.59112,-0.2297 2.18039,-0.7907 3.5317,-1.2467 3.39067,-1.1444 3.87056,-0.9965 6.07666,1.8722 1.3901,1.8076 1.96394,2.3116 3.08495,2.7091 l 1.37716,0.4885 1.55196,-1.0096 c 0.85357,-0.5553 1.80791,-1.3438 2.12074,-1.7522 0.50741,-0.6625 0.9043,-0.8012 3.67622,-1.2844 2.1931,-0.3821 3.41329,-0.4528 4.14696,-0.24 1.01909,0.2956 7.77,-0.4231 8.54927,-0.9101 0.53966,-0.3372 0.12417,-1.6266 -0.89885,-2.7897 -0.51647,-0.5871 -1.12384,-1.5353 -1.34969,-2.1072 -0.5289,-1.3391 -2.71836,-3.1791 -5.39904,-4.5374 -1.2051,-0.6107 -2.37764,-1.4584 -2.71931,-1.9656 -0.33038,-0.4906 -0.9745,-1.1346 -1.43138,-1.4311 -0.82599,-0.536 -0.98044,-0.8638 -2.96074,-6.2846 -0.80604,-2.2067 -1.79372,-3.2805 -3.83601,-4.1707 -5.24104,-2.2848 -5.05648,-2.2361 -7.3304,-1.9344 -2.33507,0.31 -3.54561,-0.011 -6.21241,-1.6126 -1.85917,-1.1211 -3.73963,-1.7154 -7.37202,-2.3298 -1.66,-0.2806 -3.18502,-0.578 -3.3889,-0.6609 -0.20393,-0.084 -0.80679,-0.3348 -1.33969,-0.56 -1.1093,-0.4688 -12.13326,-7.9129 -12.19979,-8.2382 -0.0236,-0.1179 -0.40338,-0.3593 -0.84277,-0.5364 -0.94087,-0.3791 -1.8318,-2.4516 -1.51004,-3.5124 0.11017,-0.3633 0.86177,-1.1516 1.67023,-1.7521 1.18523,-0.8802 1.71941,-1.101 2.75775,-1.14 1.48274,-0.055 2.14906,0.1712 5.08056,1.7264 3.18263,1.6883 4.10873,2.116 4.43965,2.05 0.16483,-0.033 0.73791,0.1793 1.27345,0.4714 0.53556,0.2923 1.32639,0.5678 1.75745,0.6125 0.43105,0.046 1.13642,0.259 1.56747,0.4758 0.4311,0.2167 1.17589,0.4017 1.65513,0.4109 0.47926,0.011 1.2418,0.2811 1.69456,0.604 0.45276,0.3231 0.94985,0.5621 1.10466,0.5313 0.15479,-0.032 1.41087,0.6732 2.79129,1.5647 4.37058,2.8226 4.21553,2.7617 6.44309,2.5297 1.32504,-0.1381 2.34847,-0.059 2.95193,0.2233 0.50809,0.239 1.08807,0.4018 1.28885,0.3618 0.20087,-0.04 0.89958,0.1452 1.55276,0.4115 3.20818,1.3088 4.49737,1.7584 4.84382,1.6892 0.20854,-0.041 0.93483,0.1588 1.614,0.4455 0.67922,0.2867 1.56081,0.4562 1.95904,0.3767 0.39831,-0.08 1.11497,0.053 1.59261,0.2963 0.47766,0.2424 1.06584,0.4013 1.30701,0.3532 0.57386,-0.1145 3.05735,0.8097 4.74791,1.7668 0.95578,0.5412 1.44852,1.0584 1.72013,1.8057 0.20936,0.5761 0.68481,1.6085 1.05654,2.2941 0.3717,0.6856 0.86261,1.74 1.09092,2.3427 0.33088,0.8739 0.93986,1.4371 3.00315,2.7777 1.42349,0.9249 3.23993,1.9368 4.03655,2.2485 0.79666,0.3117 2.13765,0.9052 2.97993,1.3187 0.84232,0.4137 2.05087,0.9319 2.68565,1.1516 0.63476,0.2197 1.82983,0.6704 2.65565,1.0014 0.82586,0.3312 2.67468,0.9428 4.10854,1.3592 1.43383,0.4166 2.97336,0.9423 3.42113,1.1685 0.4478,0.2263 1.02886,0.369 1.29125,0.3173 0.26236,-0.051 1.35353,0.1446 2.42475,0.4362 1.07122,0.2915 2.09327,0.5015 2.27121,0.4666 0.17788,-0.035 0.60246,0.1435 0.94339,0.3965 0.34091,0.2529 1.11585,0.4543 1.72205,0.4473 0.60619,-0.011 1.81992,0.1977 2.69719,0.4546 1.96001,0.5739 3.83184,0.096 6.0694,-1.5533 0.8097,-0.5963 1.70967,-1.133 1.99998,-1.1925 0.2904,-0.059 0.97127,-0.4551 1.51318,-0.8786 1.18053,-0.9228 2.84268,-1.5417 5.85035,-2.1781 2.50593,-0.5304 4.75281,-0.1818 5.81914,0.9027 0.60715,0.6175 1.65352,0.7989 5.99988,1.04 5.42081,0.3008 5.67313,0.2874 7.00245,-0.3682 0.68855,-0.3396 1.63508,-0.6941 2.10339,-0.7874 1.537,-0.3067 4.51405,0.8285 7.33965,2.7987 2.54199,1.7723 2.75483,2.0055 4.26972,4.6795 1.11557,1.9692 1.82305,2.9064 2.35599,3.1212 0.85174,0.3433 1.34794,1.0253 2.48089,3.4096 0.65657,1.382 1.09246,1.837 2.83928,2.964 1.86629,1.2043 2.59241,1.5415 5.08233,2.3616 2.08143,0.6855 6.00535,-0.4068 7.77511,-2.1643 0.93718,-0.9309 1.37721,-1.1682 2.18269,-1.1774 1.17228,-0.014 3.07415,1.1998 3.58319,2.2855 0.19372,0.4133 0.65181,0.9305 1.01797,1.1493 0.36615,0.2187 0.70043,0.5719 0.74288,0.7846 0.14743,0.7389 1.41945,0.8368 3.30908,0.2542 1.69214,-0.5216 1.85354,-0.5188 2.30674,0.04 0.62842,0.7745 1.05175,0.938 1.96904,0.7608 0.46902,-0.091 1.38833,0.2465 2.47923,0.909 l 1.73382,1.0532 3.78312,-0.5252 c 3.50626,-0.4867 3.87408,-0.4807 5.02576,0.083 0.68342,0.3341 1.22354,0.7713 1.20017,0.9716 -0.0233,0.2003 -0.49247,0.7011 -1.04244,1.113 -1.34014,1.0032 -1.06171,1.7733 0.57279,1.5841 1.04761,-0.1214 1.2587,-0.2806 1.8852,-1.4233 0.46109,-0.8412 1.131,-1.5124 1.93416,-1.9382 2.85116,-1.5115 5.05068,-1.0623 7.72057,1.5767 0.99393,0.9825 2.35062,2.0922 3.01482,2.4661 0.66417,0.3744 2.22082,1.2378 3.45912,1.9196 2.36236,1.3001 3.04611,2.0928 3.41933,3.9636 0.16658,0.8349 0.0497,1.4306 -0.4453,2.2688 l -0.67125,1.1364 -5.11253,1.0329 c -2.81185,0.568 -5.27879,1.0945 -5.48195,1.1703 -0.20324,0.075 -0.87958,0.8402 -1.50301,1.6989 -1.24516,1.715 -3.26462,3.6139 -3.99967,3.7605 -0.25811,0.051 -0.79684,-0.1864 -1.19715,-0.5286 -0.40028,-0.3424 -0.95015,-0.5779 -1.22181,-0.5238 -0.614,0.1225 -2.03192,2.3456 -2.46783,3.8692 -0.17934,0.6268 -0.66712,1.622 -1.084,2.2117 l -0.75803,1.0723 -1.43689,-1.095 c -1.39532,-1.0631 -1.4421,-1.1447 -1.61965,-2.8233 l -0.18274,-1.7289 -0.88117,0.1759 c -0.48466,0.097 -0.85834,0.2906 -0.83032,0.4309 0.0882,0.4421 -2.2938,3.8572 -3.17752,4.556 -0.46504,0.3676 -1.29744,1.2839 -1.84974,2.0365 -1.56315,2.1294 -2.75528,2.4543 -6.94134,1.8907 -1.79342,-0.2414 -2.38277,-0.4733 -3.13747,-1.2348 -0.9065,-0.9149 -2.11258,-1.0968 -2.38708,-0.3603 -0.0635,0.1705 -0.58612,0.3269 -1.16143,0.3477 -0.95616,0.035 -1.0491,0.114 -1.08219,0.9268 -0.0199,0.4889 -0.1978,1.2666 -0.39541,1.7282 -0.19755,0.4615 -0.42084,1.365 -0.49621,2.0079 -0.18939,1.6153 -2.14969,3.8914 -4.0773,4.7341 -0.8097,0.3539 -2.71282,1.0028 -4.22923,1.4422 -1.51637,0.4393 -2.94052,0.9176 -3.16483,1.0629 -0.22424,0.1453 -1.16333,0.1606 -2.08681,0.034 z"
       id="path853"
       inkscape:connector-curvature="0" />
    <path
       inkscape:connector-curvature="0"
       id="path3338"
       d="m -485.38081,1195.4406 c -0.92352,-0.1266 -1.8077,-0.3261 -1.96497,-0.4433 -0.15718,-0.1172 -1.15566,-0.8684 -2.2188,-1.6693 -2.25587,-1.6996 -4.1046,-2.5177 -5.95214,-2.634 -0.82975,-0.052 -1.56739,-0.3328 -1.98071,-0.7531 -0.36221,-0.3684 -1.41505,-0.8386 -2.33968,-1.0448 -1.88649,-0.4209 -2.34423,-0.8414 -3.01016,-2.7659 -0.41686,-1.2049 -0.61446,-1.3942 -1.98732,-1.9039 -2.45334,-0.9109 -3.68455,-1.4802 -4.95307,-2.2901 -0.65491,-0.4181 -1.3055,-0.7372 -1.44575,-0.7092 -0.14023,0.028 -1.58736,-0.7976 -3.21582,-1.8347 -1.62852,-1.0369 -3.51765,-2.1086 -4.19807,-2.3814 -1.49055,-0.5977 -2.34104,-2.0703 -2.47455,-4.2847 -0.0487,-0.8082 -0.28567,-1.9862 -0.52631,-2.6178 -0.37487,-0.9832 -0.69091,-1.2521 -2.19801,-1.8699 -0.96806,-0.3969 -1.97105,-0.6797 -2.22886,-0.628 -0.25773,0.051 -0.55896,0 -0.6693,-0.1218 -0.11028,-0.1184 -1.57813,-0.5873 -3.26179,-1.0419 -1.68364,-0.4547 -3.26441,-0.9916 -3.51285,-1.193 -0.24841,-0.2014 -0.66833,-0.3249 -0.93307,-0.2746 -0.26476,0.05 -0.80456,-0.015 -1.19954,-0.1444 -3.1175,-1.0243 -4.67086,-1.6603 -6.54767,-2.6809 -4.66875,-2.5393 -4.77045,-2.5786 -9.05648,-3.4987 -1.45399,-0.3122 -6.80939,-1.7529 -9.56976,-2.5746 -1.34631,-0.4009 -3.06204,-0.6915 -3.81275,-0.6461 -1.39391,0.084 -4.5573,-0.5236 -4.95765,-0.9531 -0.28483,-0.3053 -4.65699,-1.5119 -5.13409,-1.4167 -0.19859,0.04 -1.3764,-0.1895 -2.61731,-0.509 -2.46002,-0.6338 -4.37319,-1.9635 -5.20625,-3.6187 -0.2628,-0.5219 -0.72222,-1.1123 -1.02095,-1.3117 -0.81754,-0.5457 -3.89289,0.1654 -5.3969,1.2476 -2.98536,2.1482 -4.25676,2.6988 -6.29367,2.7256 -1.04871,0.014 -3.25225,0.2053 -4.89672,0.4258 -2.77028,0.371 -3.10193,0.3481 -4.51353,-0.3118 -1.33695,-0.6252 -1.66337,-0.6592 -2.6647,-0.2773 -0.62762,0.2392 -4.86552,1.1555 -9.41751,2.0356 -8.23343,1.5923 -8.2826,1.6057 -9.46392,2.5798 -0.65315,0.5386 -1.84726,1.2837 -2.65365,1.6558 -1.65496,0.7638 -3.26475,1.9524 -3.64497,2.6914 -0.78635,1.5282 -3.45182,4.5823 -4.29529,4.9216 -0.52308,0.2103 -1.31956,0.7874 -1.76996,1.2825 -0.45041,0.4951 -0.98919,0.934 -1.19728,0.9756 -0.2081,0.041 -0.76046,0.4274 -1.22745,0.8576 -0.46699,0.4303 -1.33702,0.8801 -1.93337,0.9997 -0.73883,0.1482 -1.3287,0.5232 -1.85157,1.1774 -0.50498,0.6316 -1.23212,1.1045 -2.12675,1.3833 -0.82302,0.2563 -1.58153,0.7253 -1.92227,1.1883 -0.80482,1.0936 -3.54155,1.6302 -4.872,0.955 -0.52083,-0.2642 -1.34213,-0.4881 -1.8251,-0.4975 -0.48293,-0.011 -1.15109,-0.2195 -1.48477,-0.467 -0.34575,-0.2564 -1.24199,-0.4118 -2.08381,-0.361 -1.82772,0.1104 -2.63236,-0.4012 -1.90989,-1.2139 0.38265,-0.4306 1.0081,-0.6145 2.81491,-0.8284 1.2776,-0.1511 2.69018,-0.2131 3.13912,-0.1376 1.41222,0.2371 2.91998,-0.2537 5.17135,-1.6835 1.19888,-0.7614 2.9755,-1.792 3.94812,-2.2904 0.97258,-0.4985 1.8854,-1.0817 2.02847,-1.2961 0.14313,-0.2145 0.47906,-0.4335 0.74659,-0.4869 0.26752,-0.053 1.01683,-0.833 1.66512,-1.7326 0.64829,-0.8997 1.67953,-1.9919 2.29167,-2.4273 0.61213,-0.4353 1.17319,-0.9532 1.24674,-1.1506 0.0735,-0.1975 0.48425,-0.4291 0.91259,-0.5144 1.29686,-0.2588 7.7918,-10.5607 7.51928,-11.9268 -0.0708,-0.3551 -0.53255,-0.8655 -1.02599,-1.1342 -0.49343,-0.2686 -1.17346,-0.6562 -1.51118,-0.8611 -0.33774,-0.2051 -1.14246,-0.3666 -1.7883,-0.3593 -0.64584,0.011 -1.53548,-0.1699 -1.977,-0.3939 -0.4415,-0.224 -1.24628,-0.4128 -1.78845,-0.4196 -0.54216,-0.011 -1.21847,-0.1402 -1.50294,-0.2966 -0.28448,-0.1564 -1.08194,-0.3453 -1.77217,-0.4197 -0.69023,-0.074 -1.4685,-0.2476 -1.72946,-0.3846 -0.49037,-0.2572 -2.15688,-0.7817 -4.52527,-1.4239 -0.74958,-0.2031 -1.72719,-0.7125 -2.17252,-1.1316 l -0.80969,-0.7619 1.04897,-1.4229 c 1.14006,-1.5464 4.25881,-3.502 5.49267,-3.4441 3.72242,0.1744 4.01517,0.2283 7.71594,1.4203 2.55336,0.8224 3.99481,0.7894 3.81987,-0.088 -0.09,-0.4512 -2.72831,-1.9636 -3.2456,-1.8604 -0.26364,0.052 -3.08,-1.1809 -3.53099,-1.5463 -0.32629,-0.2645 -0.31802,-0.5445 0.0368,-1.2436 0.25182,-0.4961 0.62773,-0.9361 0.83532,-0.9775 0.40409,-0.081 2.8299,0.5978 4.33555,1.2123 2.20447,0.8999 5.07991,1.7639 9.05931,2.7221 0.88682,0.2135 2.41347,0.5853 3.39257,0.8262 0.97912,0.2407 1.94486,0.4051 2.14611,0.3649 0.20125,-0.04 0.91465,0.094 1.58539,0.2977 0.67071,0.204 1.42269,0.3302 1.67112,0.2807 0.24835,-0.049 0.97857,0.069 1.62263,0.2657 0.64409,0.1959 1.7622,0.3952 2.48461,0.4431 2.86003,0.1893 8.35594,3.2894 8.67599,4.8938 0.25242,1.2652 -0.65389,1.7613 -4.04905,2.2164 l -3.02878,0.4058 -1.7541,-1.0314 c -3.11268,-1.8305 -3.66615,-2.0095 -5.85477,-1.8927 -2.97949,0.1593 -2.85523,0.083 -2.56035,1.5615 0.4023,2.0166 0.98409,2.6147 2.65157,2.7256 0.79293,0.052 1.69235,0.2363 1.99874,0.4078 0.30635,0.1715 1.36461,0.2828 2.35171,0.2472 0.98708,-0.036 2.18691,0.013 2.66634,0.1081 0.49378,0.097 1.33754,-0.011 1.9464,-0.2456 0.59112,-0.2298 2.18039,-0.7907 3.5317,-1.2468 3.39067,-1.1443 3.87056,-0.9965 6.07666,1.8722 1.3901,1.8077 1.96394,2.3116 3.08495,2.7091 l 1.37716,0.4885 1.55196,-1.0096 c 0.85357,-0.5553 1.80791,-1.3438 2.12074,-1.7521 0.50741,-0.6626 0.9043,-0.8012 3.67622,-1.2842 2.1931,-0.3823 3.41329,-0.453 4.14696,-0.2402 1.01909,0.2955 7.77,-0.4231 8.54927,-0.9102 0.53966,-0.3372 0.12417,-1.6266 -0.89885,-2.7896 -0.51647,-0.5873 -1.12384,-1.5354 -1.34969,-2.1073 -0.5289,-1.339 -2.71836,-3.1791 -5.39904,-4.5375 -1.2051,-0.6107 -2.37764,-1.4582 -2.71931,-1.9656 -0.33038,-0.4904 -0.9745,-1.1343 -1.43138,-1.4309 -0.82599,-0.5359 -0.98044,-0.8637 -2.96074,-6.2846 -0.80604,-2.2066 -1.79372,-3.2805 -3.83601,-4.1708 -5.24104,-2.2847 -5.05648,-2.236 -7.3304,-1.9344 -2.33507,0.31 -3.54561,-0.011 -6.21241,-1.6124 -1.85917,-1.1212 -3.73963,-1.7155 -7.37202,-2.3299 -1.66,-0.2807 -3.18502,-0.578 -3.3889,-0.6609 -0.20393,-0.083 -0.80679,-0.3349 -1.33969,-0.56 -1.1093,-0.4688 -12.13326,-7.9129 -12.19979,-8.2381 -0.0236,-0.1181 -0.40338,-0.3594 -0.84277,-0.5366 -0.94087,-0.3791 -1.8318,-2.4515 -1.51004,-3.5124 0.11017,-0.3633 0.86177,-1.1516 1.67023,-1.752 1.18523,-0.8803 1.71941,-1.101 2.75775,-1.1399 1.48274,-0.055 2.14906,0.171 5.08056,1.7262 3.18263,1.6885 4.10873,2.1161 4.43965,2.0501 0.16483,-0.032 0.73791,0.1793 1.27345,0.4713 0.53556,0.2923 1.32639,0.5679 1.75745,0.6128 0.43105,0.044 1.13642,0.2586 1.56747,0.4754 0.4311,0.2167 1.17589,0.4018 1.65513,0.4111 0.47926,0.011 1.2418,0.2811 1.69456,0.604 0.45276,0.323 0.94985,0.562 1.10466,0.5312 0.15479,-0.032 1.41087,0.6733 2.79129,1.5648 4.37058,2.8226 4.21553,2.7616 6.44309,2.5297 1.32504,-0.1381 2.34847,-0.059 2.95193,0.2234 0.50809,0.239 1.08807,0.4016 1.28885,0.3616 0.20087,-0.04 0.89958,0.1452 1.55276,0.4116 3.20818,1.3088 4.49737,1.7582 4.84382,1.6893 0.20854,-0.041 0.93483,0.1587 1.614,0.4454 0.67922,0.2867 1.56081,0.4561 1.95904,0.3767 0.39831,-0.08 1.11497,0.053 1.59261,0.2962 0.47766,0.2424 1.06584,0.4014 1.30701,0.3533 0.57386,-0.1146 3.05735,0.8096 4.74791,1.7668 0.95578,0.5412 1.44852,1.0584 1.72013,1.8057 0.20936,0.576 0.68481,1.6084 1.05654,2.294 0.3717,0.6857 0.86261,1.74 1.09092,2.3427 0.33088,0.8741 0.93986,1.4371 3.00315,2.7778 1.42349,0.9249 3.23993,1.9368 4.03655,2.2485 0.79666,0.3116 2.13765,0.9051 2.97993,1.3188 0.84232,0.4136 2.05087,0.9318 2.68565,1.1515 0.63476,0.2197 1.82983,0.6703 2.65565,1.0014 0.82586,0.3311 2.67468,0.9427 4.10854,1.3593 1.43383,0.4165 2.97336,0.9422 3.42113,1.1685 0.4478,0.2261 1.02886,0.3688 1.29125,0.3171 0.26236,-0.051 1.35353,0.1446 2.42475,0.4362 1.07122,0.2915 2.09327,0.5015 2.27121,0.4668 0.17788,-0.035 0.60246,0.1434 0.94339,0.3965 0.34091,0.2529 1.11585,0.4542 1.72205,0.4472 0.60619,-0.011 1.81992,0.1975 2.69719,0.4545 1.96001,0.5739 3.83184,0.096 6.0694,-1.5532 0.8097,-0.5964 1.70967,-1.1331 1.99998,-1.1927 0.2904,-0.059 0.97127,-0.4548 1.51318,-0.8786 1.18053,-0.9226 2.84268,-1.5415 5.85035,-2.1779 2.50593,-0.5304 4.75281,-0.1818 5.81914,0.9027 0.60715,0.6175 1.65352,0.7988 5.99988,1.04 5.42081,0.3008 5.67313,0.2874 7.00245,-0.3682 0.68855,-0.3397 1.63508,-0.6941 2.10339,-0.7875 1.537,-0.3068 4.51405,0.8285 7.33965,2.7986 2.54199,1.7724 2.75483,2.0056 4.26972,4.6797 1.11557,1.9691 1.82305,2.9064 2.35599,3.1211 0.85174,0.3433 1.34794,1.0253 2.48089,3.4097 0.65657,1.382 1.09246,1.8369 2.83928,2.964 1.86629,1.2041 2.59241,1.5416 5.08233,2.3615 2.08143,0.6856 6.00535,-0.4067 7.77511,-2.1643 0.93718,-0.9308 1.37721,-1.1682 2.18269,-1.1773 1.17228,-0.014 3.07415,1.1997 3.58319,2.2855 0.19372,0.4132 0.65181,0.9305 1.01797,1.1493 0.36615,0.2188 0.70043,0.5718 0.74288,0.7845 0.14743,0.739 1.41945,0.8368 3.30908,0.2542 1.69214,-0.5215 1.85354,-0.5188 2.30674,0.04 0.62842,0.7745 1.05175,0.938 1.96904,0.7609 0.46902,-0.091 1.38833,0.2465 2.47923,0.909 l 1.73382,1.053 3.78312,-0.5251 c 3.50626,-0.4867 3.87408,-0.4806 5.02576,0.083 0.68342,0.334 1.22354,0.7714 1.20017,0.9716 -0.0233,0.2003 -0.49247,0.7012 -1.04244,1.1129 -1.34014,1.0034 -1.06171,1.7735 0.57279,1.5843 1.04761,-0.1214 1.2587,-0.2807 1.8852,-1.4235 0.46109,-0.8411 1.131,-1.5124 1.93416,-1.9381 2.85116,-1.5114 5.05068,-1.0622 7.72057,1.5768 0.99393,0.9824 2.35062,2.0922 3.01482,2.4662 0.66417,0.3741 2.22082,1.2377 3.45912,1.9193 2.36236,1.3003 3.04611,2.093 3.41933,3.9637 0.16658,0.835 0.0497,1.4307 -0.4453,2.2689 l -0.67125,1.1362 -5.11253,1.033 c -2.81185,0.5681 -5.27879,1.0947 -5.48195,1.1704 -0.20324,0.075 -0.87958,0.8401 -1.50301,1.699 -1.24516,1.715 -3.26462,3.6138 -3.99967,3.7603 -0.25811,0.051 -0.79684,-0.1864 -1.19715,-0.5285 -0.40028,-0.3423 -0.95015,-0.5781 -1.22181,-0.5239 -0.614,0.1226 -2.03192,2.3457 -2.46783,3.8693 -0.17934,0.6266 -0.66712,1.622 -1.084,2.2117 l -0.75803,1.0721 -1.43689,-1.0948 c -1.39532,-1.0631 -1.4421,-1.1447 -1.61965,-2.8234 l -0.18274,-1.7287 -0.88117,0.1757 c -0.48466,0.098 -0.85834,0.2905 -0.83032,0.431 0.0882,0.4421 -2.2938,3.8572 -3.17752,4.5559 -0.46504,0.3677 -1.29744,1.2841 -1.84974,2.0365 -1.56315,2.1296 -2.75528,2.4543 -6.94134,1.8908 -1.79342,-0.2413 -2.38277,-0.4733 -3.13747,-1.2349 -0.9065,-0.9148 -2.11258,-1.0968 -2.38708,-0.3602 -0.0635,0.1704 -0.58612,0.3268 -1.16143,0.3475 -0.95616,0.035 -1.0491,0.1142 -1.08219,0.9269 -0.0199,0.4889 -0.1978,1.2667 -0.39541,1.7282 -0.19755,0.4616 -0.42084,1.365 -0.49621,2.0079 -0.18939,1.6154 -2.14969,3.8914 -4.0773,4.7342 -0.8097,0.3539 -2.71282,1.0028 -4.22923,1.442 -1.51637,0.4393 -2.94052,0.9178 -3.16483,1.063 -0.22424,0.1455 -1.16333,0.1608 -2.08681,0.034 z"
       style="fill:#000000;fill-opacity:1;stroke:#ffffff;stroke-width:0;stroke-linecap:square;stroke-linejoin:miter;stroke-miterlimit:4;stroke-dasharray:none"
       inkscape:export-filename="/home/kr0l/pixelflutffbsee.png"
       inkscape:export-xdpi="7.1930156"
       inkscape:export-ydpi="7.1930156" />
    <path
       style="color:#000000;font-style:normal;font-variant:normal;font-weight:normal;font-stretch:normal;font-size:medium;line-height:normal;font-family:sans-serif;text-indent:0;text-align:start;text-decoration:none;text-decoration-line:none;text-decoration-style:solid;text-decoration-color:#000000;letter-spacing:normal;word-spacing:normal;text-transform:none;writing-mode:lr-tb;direction:ltr;baseline-shift:baseline;text-anchor:start;white-space:normal;clip-rule:nonzero;display:inline;overflow:visible;visibility:visible;opacity:1;isolation:auto;mix-blend-mode:normal;color-interpolation:sRGB;color-interpolation-filters:linearRGB;solid-color:#000000;solid-opacity:1;fill:#000000;fill-opacity:1;fill-rule:nonzero;stroke:#ffffff;stroke-width:1.56811976;stroke-linecap:butt;stroke-linejoin:miter;stroke-miterlimit:4;stroke-dasharray:none;stroke-dashoffset:0;stroke-opacity:1;color-rendering:auto;image-rendering:auto;shape-rendering:auto;text-rendering:auto;enable-background:accumulate"
       d="m -485.41395,1051.1688 c -15.60268,0 -30.56797,6.2637 -41.5859,17.3896 -11.01792,11.1259 -17.19931,26.2054 -17.19931,41.9191 0,15.7138 6.18139,30.7929 17.19931,41.9189 11.01793,11.126 25.98322,17.3896 41.5859,17.3896 15.6027,0 30.56798,-6.2636 41.58591,-17.3896 11.01792,-11.126 17.19932,-26.2053 17.19932,-41.9191 0,-15.7138 -6.1814,-30.793 -17.19932,-41.9189 -11.01793,-11.1259 -25.98321,-17.3896 -41.58591,-17.3896 z m 0,10.7556 c 12.72632,0 24.92989,5.1005 33.94359,14.2024 9.01369,9.1021 14.08598,21.4578 14.08598,34.3507 0,12.8929 -5.07229,25.2484 -14.08598,34.3504 -9.0137,9.1021 -21.21727,14.2026 -33.94359,14.2026 -12.72631,0 -24.92963,-5.1005 -33.94334,-14.2026 -9.0137,-9.102 -14.08598,-21.4575 -14.08598,-34.3504 0,-12.8929 5.07228,-25.2486 14.08598,-34.3507 9.01371,-9.1019 21.21703,-14.2024 33.94334,-14.2024 z"
       id="ellipse5485"
       inkscape:connector-curvature="0" />
    <polygon
       style="fill:#000000;fill-opacity:1"
       points="75,53 88,53 88,47 75,47 81,41 73,41 64,50 73,59 81,59 "
       transform="matrix(-0.86960408,0,0,0.89998719,-494.92143,1073.4106)"
       id="polygon5366"
       inkscape:transform-center-x="-624.95331"
       inkscape:transform-center-y="5.1648547" />
    <g
       id="g4701"
       transform="matrix(0.84939005,0,0,0.84939005,-79.297002,179.95693)"
       style="fill:#000000">
      <g
         id="g4685"
         style="fill:#000000">
        <path
           inkscape:connector-curvature="0"
           id="path4616"
           style="font-style:normal;font-variant:normal;font-weight:bold;font-stretch:normal;font-size:medium;line-height:1.25;font-family:Lato;-inkscape-font-specification:'Lato Bold';letter-spacing:0px;word-spacing:0px;fill:#000000;fill-opacity:1;stroke:none;stroke-width:1.09804356"
           d="m -679.3221,1211.1346 v 9.3993 h 11.9028 v 4.7216 h -11.9028 v 12.9349 h -5.92943 v -31.7554 h 20.02831 v 4.6996 z" />
        <path
           inkscape:connector-curvature="0"
           id="path4618"
           style="font-style:normal;font-variant:normal;font-weight:bold;font-stretch:normal;font-size:medium;line-height:1.25;font-family:Lato;-inkscape-font-specification:'Lato Bold';letter-spacing:0px;word-spacing:0px;fill:#000000;fill-opacity:1;stroke:none;stroke-width:1.09804356"
           d="m -657.91505,1219.5676 q 1.05412,-2.0204 2.50354,-3.1624 1.44942,-1.1639 3.4259,-1.1639 1.55922,0 2.50354,0.6808 l -0.35138,4.0628 q -0.1098,0.3953 -0.32941,0.5709 -0.19765,0.1538 -0.54902,0.1538 -0.32942,0 -0.98824,-0.1098 -0.63687,-0.1098 -1.25177,-0.1098 -0.9004,0 -1.60315,0.2635 -0.70274,0.2635 -1.27373,0.7686 -0.54902,0.4832 -0.98824,1.1859 -0.41725,0.7028 -0.79059,1.6032 v 13.8792 h -5.42433 v -22.5318 h 3.18432 q 0.83452,0 1.16393,0.3074 0.32941,0.2855 0.43922,1.0541 z" />
        <path
           inkscape:connector-curvature="0"
           id="path4620"
           style="font-style:normal;font-variant:normal;font-weight:bold;font-stretch:normal;font-size:medium;line-height:1.25;font-family:Lato;-inkscape-font-specification:'Lato Bold';letter-spacing:0px;word-spacing:0px;fill:#000000;fill-opacity:1;stroke:none;stroke-width:1.09804356"
           d="m -632.73142,1224.3331 q 0,-1.0541 -0.30745,-1.9765 -0.28549,-0.9443 -0.87843,-1.647 -0.59295,-0.7028 -1.5153,-1.0981 -0.9004,-0.4172 -2.10825,-0.4172 -2.34981,0 -3.71139,1.3396 -1.33961,1.3396 -1.71294,3.7992 z m -10.34357,3.2722 q 0.13177,1.7349 0.61491,3.0086 0.48314,1.2518 1.27373,2.0863 0.79059,0.8126 1.86667,1.2298 1.09804,0.3953 2.4157,0.3953 1.31765,0 2.26197,-0.3074 0.96628,-0.3075 1.66902,-0.6808 0.72471,-0.3734 1.25177,-0.6808 0.54902,-0.3075 1.05412,-0.3075 0.68079,0 1.0102,0.5051 l 1.55923,1.9765 q -0.9004,1.0541 -2.0204,1.7788 -1.12001,0.7028 -2.34982,1.142 -1.20784,0.4173 -2.48158,0.593 -1.25177,0.1756 -2.43765,0.1756 -2.34982,0 -4.37022,-0.7686 -2.0204,-0.7906 -3.51374,-2.3059 -1.49334,-1.5372 -2.34981,-3.7772 -0.85647,-2.262 -0.85647,-5.2267 0,-2.3059 0.74667,-4.3263 0.74667,-2.0424 2.1302,-3.5357 1.4055,-1.5153 3.40394,-2.3938 2.0204,-0.8784 4.5459,-0.8784 2.1302,0 3.93099,0.6808 1.80079,0.6808 3.09649,1.9984 1.29569,1.2957 2.0204,3.2063 0.74667,1.8886 0.74667,4.3263 0,1.2298 -0.26353,1.669 -0.26353,0.4173 -1.0102,0.4173 z" />
        <path
           inkscape:connector-curvature="0"
           id="path4622"
           style="font-style:normal;font-variant:normal;font-weight:bold;font-stretch:normal;font-size:medium;line-height:1.25;font-family:Lato;-inkscape-font-specification:'Lato Bold';letter-spacing:0px;word-spacing:0px;fill:#000000;fill-opacity:1;stroke:none;stroke-width:1.09804356"
           d="m -618.20636,1215.6586 v 22.5318 h -5.44629 v -22.5318 z m 0.74667,-6.5663 q 0,0.7027 -0.28549,1.3176 -0.28549,0.6149 -0.76863,1.0761 -0.46118,0.4612 -1.09804,0.7467 -0.63687,0.2635 -1.36158,0.2635 -0.70275,0 -1.33961,-0.2635 -0.61491,-0.2855 -1.07608,-0.7467 -0.46118,-0.4612 -0.74667,-1.0761 -0.26353,-0.6149 -0.26353,-1.3176 0,-0.7247 0.26353,-1.3616 0.28549,-0.6369 0.74667,-1.098 0.46117,-0.4612 1.07608,-0.7248 0.63686,-0.2854 1.33961,-0.2854 0.72471,0 1.36158,0.2854 0.63686,0.2636 1.09804,0.7248 0.48314,0.4611 0.76863,1.098 0.28549,0.6369 0.28549,1.3616 z" />
        <path
           inkscape:connector-curvature="0"
           id="path4624"
           style="font-style:normal;font-variant:normal;font-weight:bold;font-stretch:normal;font-size:medium;line-height:1.25;font-family:Lato;-inkscape-font-specification:'Lato Bold';letter-spacing:0px;word-spacing:0px;fill:#000000;fill-opacity:1;stroke:none;stroke-width:1.09804356"
           d="m -611.09515,1238.1904 v -18.4471 l -1.95452,-0.3075 q -0.63686,-0.1317 -1.03216,-0.4392 -0.37333,-0.3294 -0.37333,-0.9223 v -2.2181 h 3.36001 v -1.669 q 0,-1.9326 0.57098,-3.4698 0.59295,-1.5373 1.66903,-2.6134 1.09804,-1.076 2.65726,-1.647 1.55923,-0.571 3.51374,-0.571 1.55923,0 2.89884,0.4172 l -0.10981,2.7232 q -0.022,0.3074 -0.17568,0.5051 -0.15373,0.1757 -0.41726,0.2855 -0.24157,0.088 -0.57098,0.1317 -0.32942,0.022 -0.70275,0.022 -0.96628,0 -1.73491,0.2196 -0.74667,0.1977 -1.27373,0.7247 -0.52706,0.5051 -0.81255,1.3616 -0.26353,0.8345 -0.26353,2.0863 v 1.4933 h 5.86355 v 3.8651 h -5.68787 v 18.4691 z" />
        <path
           inkscape:connector-curvature="0"
           id="path4626"
           style="font-style:normal;font-variant:normal;font-weight:bold;font-stretch:normal;font-size:medium;line-height:1.25;font-family:Lato;-inkscape-font-specification:'Lato Bold';letter-spacing:0px;word-spacing:0px;fill:#000000;fill-opacity:1;stroke:none;stroke-width:1.09804356"
           d="m -577.47855,1215.6586 v 22.5318 h -3.31609 q -1.07609,0 -1.36158,-0.9882 l -0.37333,-1.8008 q -1.38354,1.4055 -3.05256,2.2839 -1.66903,0.8565 -3.931,0.8565 -1.84471,0 -3.27217,-0.6149 -1.4055,-0.6369 -2.37177,-1.7788 -0.96628,-1.142 -1.47138,-2.7012 -0.48314,-1.5812 -0.48314,-3.4698 v -14.3185 h 5.42433 v 14.3185 q 0,2.0643 0.94432,3.2063 0.96628,1.12 2.87688,1.12 1.40549,0 2.6353,-0.6149 1.22981,-0.6369 2.32785,-1.735 v -16.2949 z" />
        <path
           inkscape:connector-curvature="0"
           id="path4628"
           style="font-style:normal;font-variant:normal;font-weight:bold;font-stretch:normal;font-size:medium;line-height:1.25;font-family:Lato;-inkscape-font-specification:'Lato Bold';letter-spacing:0px;word-spacing:0px;fill:#000000;fill-opacity:1;stroke:none;stroke-width:1.09804356"
           d="m -567.02723,1218.4256 q 0.68079,-0.6807 1.42746,-1.2517 0.76863,-0.593 1.60314,-0.9883 0.85647,-0.4172 1.82275,-0.6368 0.96628,-0.2416 2.10825,-0.2416 1.84471,0 3.27217,0.6369 1.42745,0.6149 2.37177,1.7568 0.96628,1.12 1.44942,2.7012 0.5051,1.5592 0.5051,3.4479 v 14.3404 h -5.42434 V 1223.85 q 0,-2.0643 -0.94432,-3.1843 -0.94431,-1.142 -2.87687,-1.142 -1.4055,0 -2.6353,0.6369 -1.22981,0.6368 -2.32786,1.7349 v 16.2949 h -5.42433 v -22.5318 h 3.31609 q 1.05412,0 1.38353,0.9882 z" />
        <path
           inkscape:connector-curvature="0"
           id="path4630"
           style="font-style:normal;font-variant:normal;font-weight:bold;font-stretch:normal;font-size:medium;line-height:1.25;font-family:Lato;-inkscape-font-specification:'Lato Bold';letter-spacing:0px;word-spacing:0px;fill:#000000;fill-opacity:1;stroke:none;stroke-width:1.09804356"
           d="m -541.88409,1205.5566 v 18.6887 h 1.0102 q 0.54902,0 0.85647,-0.1318 0.32941,-0.1537 0.65883,-0.5929 l 5.60002,-6.9177 q 0.35137,-0.4612 0.76863,-0.7028 0.43922,-0.2415 1.12,-0.2415 h 4.96316 l -7.00552,8.3671 q -0.74667,0.9882 -1.6251,1.5153 0.46118,0.3294 0.81255,0.7686 0.37334,0.4392 0.70275,0.9443 l 7.51062,10.9365 h -4.89728 q -0.63686,0 -1.09804,-0.1976 -0.46118,-0.2196 -0.76863,-0.7686 l -5.75375,-8.5428 q -0.30745,-0.5051 -0.63687,-0.6589 -0.32941,-0.1537 -0.98823,-0.1537 h -1.22981 v 10.3216 h -5.42434 v -32.6338 z" />
      </g>
      <g
         id="g4657"
         style="fill:#000000">
        <path
           inkscape:connector-curvature="0"
           id="path4632"
           style="font-style:normal;font-variant:normal;font-weight:bold;font-stretch:normal;font-size:medium;line-height:1.25;font-family:Lato;-inkscape-font-specification:'Lato Bold';letter-spacing:0px;word-spacing:0px;fill:#000000;fill-opacity:1;stroke:none;stroke-width:1.09804356"
           d="m -490.50251,1230.7018 q 0.48314,0 0.85648,0.3733 l 2.32785,2.5255 q -1.93256,2.3937 -4.76551,3.6675 -2.81099,1.2737 -6.76395,1.2737 -3.5357,0 -6.36865,-1.2078 -2.81099,-1.2079 -4.80943,-3.3601 -1.99844,-2.1521 -3.07452,-5.1388 -1.05412,-2.9867 -1.05412,-6.5224 0,-3.5796 1.14196,-6.5443 1.14197,-2.9867 3.20629,-5.1389 2.08628,-2.1521 4.96316,-3.338 2.87687,-1.2079 6.36865,-1.2079 3.46982,0 6.14904,1.142 2.70119,1.142 4.58982,2.9867 l -1.97647,2.7451 q -0.17569,0.2635 -0.46118,0.4612 -0.26353,0.1976 -0.74667,0.1976 -0.32941,0 -0.68079,-0.1757 -0.35137,-0.1976 -0.76863,-0.4612 -0.41726,-0.2854 -0.96628,-0.6149 -0.54902,-0.3294 -1.27373,-0.5929 -0.72471,-0.2855 -1.69099,-0.4612 -0.94431,-0.1976 -2.19608,-0.1976 -2.13021,0 -3.90904,0.7686 -1.75687,0.7467 -3.0306,2.1961 -1.27373,1.4274 -1.97648,3.5137 -0.70274,2.0644 -0.70274,4.7216 0,2.6792 0.74666,4.7655 0.76864,2.0863 2.06433,3.5138 1.29569,1.4274 3.05256,2.1961 1.75687,0.7466 3.77727,0.7466 1.20785,0 2.17412,-0.1317 0.98824,-0.1318 1.8008,-0.4173 0.83451,-0.2855 1.55922,-0.7247 0.74667,-0.4612 1.47138,-1.12 0.21961,-0.1977 0.46117,-0.3075 0.24157,-0.1317 0.5051,-0.1317 z" />
        <path
           inkscape:connector-curvature="0"
           id="path4634"
           style="font-style:normal;font-variant:normal;font-weight:bold;font-stretch:normal;font-size:medium;line-height:1.25;font-family:Lato;-inkscape-font-specification:'Lato Bold';letter-spacing:0px;word-spacing:0px;fill:#000000;fill-opacity:1;stroke:none;stroke-width:1.09804356"
           d="m -472.18234,1228.5716 q -2.34981,0.1098 -3.95296,0.4172 -1.60314,0.2855 -2.56942,0.7467 -0.96628,0.4612 -1.38353,1.0761 -0.41726,0.6149 -0.41726,1.3396 0,1.4274 0.83451,2.0424 0.85648,0.6149 2.21805,0.6149 1.66903,0 2.87688,-0.593 1.2298,-0.6149 2.39373,-1.8447 z m -12.42985,-9.7726 q 3.88707,-3.5577 9.35533,-3.5577 1.97648,0 3.5357,0.6588 1.55922,0.6369 2.6353,1.8008 1.07609,1.142 1.62511,2.7451 0.57098,1.6032 0.57098,3.5138 v 14.2306 h -2.45962 q -0.76863,0 -1.18588,-0.2196 -0.41726,-0.2415 -0.65883,-0.9443 l -0.48314,-1.6251 q -0.85647,0.7686 -1.66903,1.3616 -0.81255,0.571 -1.69098,0.9663 -0.87844,0.3952 -1.88864,0.5929 -0.98824,0.2196 -2.19608,0.2196 -1.42746,0 -2.63531,-0.3733 -1.20785,-0.3953 -2.08628,-1.164 -0.87844,-0.7686 -1.36158,-1.9106 -0.48314,-1.1419 -0.48314,-2.6572 0,-0.8565 0.2855,-1.691 0.28549,-0.8565 0.92235,-1.6251 0.65883,-0.7686 1.69099,-1.4494 1.03216,-0.6808 2.5255,-1.1859 1.5153,-0.5051 3.51374,-0.8126 1.99844,-0.3294 4.56786,-0.3953 v -1.3176 q 0,-2.262 -0.96628,-3.3381 -0.96628,-1.098 -2.78903,-1.098 -1.31765,0 -2.19609,0.3074 -0.85647,0.3075 -1.5153,0.7028 -0.65882,0.3733 -1.20784,0.6808 -0.52706,0.3074 -1.18589,0.3074 -0.57098,0 -0.96628,-0.2855 -0.3953,-0.3074 -0.63686,-0.7027 z" />
        <path
           inkscape:connector-curvature="0"
           id="path4636"
           style="font-style:normal;font-variant:normal;font-weight:bold;font-stretch:normal;font-size:medium;line-height:1.25;font-family:Lato;-inkscape-font-specification:'Lato Bold';letter-spacing:0px;word-spacing:0px;fill:#000000;fill-opacity:1;stroke:none;stroke-width:1.09804356"
           d="m -461.78112,1238.1904 v -22.5318 h 3.3161 q 1.05412,0 1.38353,0.9882 l 0.35137,1.669 q 0.59295,-0.6588 1.22981,-1.2078 0.65883,-0.549 1.38354,-0.9443 0.74667,-0.3953 1.58118,-0.6149 0.85648,-0.2416 1.86668,-0.2416 2.1302,0 3.49177,1.1639 1.38354,1.142 2.06433,3.0526 0.52706,-1.12 1.31765,-1.9106 0.79059,-0.8126 1.73491,-1.3177 0.94432,-0.5051 1.99844,-0.7466 1.07608,-0.2416 2.15216,-0.2416 1.86668,0 3.31609,0.571 1.44942,0.571 2.43766,1.669 0.98824,1.0981 1.49334,2.6792 0.52706,1.5812 0.52706,3.6236 v 14.3404 h -5.42433 V 1223.85 q 0,-2.1522 -0.94432,-3.2283 -0.94432,-1.098 -2.76707,-1.098 -0.83451,0 -1.55922,0.2855 -0.70275,0.2855 -1.25177,0.8345 -0.52706,0.5271 -0.83452,1.3396 -0.30745,0.8126 -0.30745,1.8667 v 14.3404 h -5.44629 V 1223.85 q 0,-2.262 -0.92236,-3.2942 -0.9004,-1.0321 -2.65727,-1.0321 -1.18588,0 -2.21805,0.5929 -1.0102,0.571 -1.88863,1.5812 v 16.4926 z" />
        <path
           inkscape:connector-curvature="0"
           id="path4638"
           style="font-style:normal;font-variant:normal;font-weight:bold;font-stretch:normal;font-size:medium;line-height:1.25;font-family:Lato;-inkscape-font-specification:'Lato Bold';letter-spacing:0px;word-spacing:0px;fill:#000000;fill-opacity:1;stroke:none;stroke-width:1.09804356"
           d="m -419.55516,1232.3488 q 0.92236,1.12 1.99844,1.5812 1.09804,0.4612 2.37177,0.4612 1.22981,0 2.21805,-0.4612 0.98824,-0.4612 1.66903,-1.4055 0.70275,-0.9443 1.07608,-2.3717 0.37334,-1.4495 0.37334,-3.404 0,-1.9765 -0.32942,-3.338 -0.30745,-1.3836 -0.90039,-2.24 -0.59295,-0.8565 -1.44942,-1.2518 -0.83451,-0.3953 -1.9106,-0.3953 -1.69098,0 -2.87687,0.7247 -1.18589,0.7027 -2.24001,1.9984 z m -0.28549,-13.6157 q 1.38353,-1.5592 3.1404,-2.5255 1.75687,-0.9663 4.12865,-0.9663 1.84471,0 3.36001,0.7686 1.53726,0.7687 2.63531,2.2401 1.12,1.4494 1.71294,3.6015 0.61491,2.1302 0.61491,4.8973 0,2.5255 -0.68079,4.6777 -0.68079,2.1521 -1.95452,3.7333 -1.25177,1.5812 -3.05256,2.4816 -1.77883,0.8784 -3.99688,0.8784 -1.88863,0 -3.22824,-0.5709 -1.33962,-0.593 -2.39374,-1.6251 v 9.2235 h -5.42434 v -29.8887 h 3.3161 q 1.05412,0 1.38353,0.9882 z" />
      </g>
    </g>
    <flowRoot
       xml:space="preserve"
       id="flowRoot5900"
       style="font-style:normal;font-weight:normal;line-height:0.01%;font-family:sans-serif;letter-spacing:0px;word-spacing:0px;fill:#ffcc33;fill-opacity:1;stroke:#ffffff;stroke-width:1px;stroke-linecap:butt;stroke-linejoin:miter;stroke-opacity:1"
       transform="matrix(0.22549284,0,0,0.22549284,-456.59752,811.63288)"><flowRegion
         id="flowRegion5902"
         style="fill:#ffcc33;fill-opacity:1;stroke:#ffffff"><rect
           id="rect5904"
           width="1999.4039"
           height="179.43582"
           x="-4.5352678"
           y="1220.6235"
           style="fill:#ffcc33;fill-opacity:1;stroke:#ffffff" /></flowRegion><flowPara
         id="flowPara5906"
         style="font-style:normal;font-variant:normal;font-weight:normal;font-stretch:normal;font-size:40px;line-height:1.25;font-family:Lato;-inkscape-font-specification:Lato;fill:#ffcc33;fill-opacity:1;stroke:#ffffff"> </flowPara></flowRoot>    <g
       id="g4614"
       transform="matrix(0.91020579,0,0,0.91020579,-48.429897,101.68664)"
       style="fill:#000000">
      <g
         id="g4602"
         style="fill:#000000">
        <path
           style="fill:#000000;fill-opacity:1;stroke:#ffffff;stroke-width:0.07024057px;stroke-linecap:butt;stroke-linejoin:miter;stroke-opacity:1"
           d="m -467.11071,1081.0719 c 20.16182,28.0468 -2.47362,28.3794 -4.11692,38.9263 v 0 c -24.10056,-18.5409 6.87139,-26.7737 4.11692,-38.9263 z"
           id="path4610"
           inkscape:connector-curvature="0"
           sodipodi:nodetypes="cccc" />
        <path
           style="fill:#000000;fill-opacity:1;stroke:#ffffff;stroke-width:0.07024057px;stroke-linecap:butt;stroke-linejoin:miter;stroke-opacity:1"
           d="m -456.88174,1094.5626 c 7.1436,7.4666 6.46036,15.8287 4.11612,19.4827 -3.27706,5.1081 -10.70846,4.2458 -14.22979,5.546 -1.28551,-5.4054 6.12744,-7.6805 9.1689,-12.7622 2.49357,-4.1662 1.1616,-10.0362 0.94477,-12.2665 z"
           id="path4612"
           inkscape:connector-curvature="0"
           sodipodi:nodetypes="cscsc" />
        <path
           style="fill:#000000;fill-opacity:1;stroke:#ffffff;stroke-width:0.07024057px;stroke-linecap:butt;stroke-linejoin:miter;stroke-opacity:1"
           d="m -481.64611,1100.2602 c -14.56574,10.4041 -0.55409,20.0961 6.5491,19.1435 -9.32873,-5.337 -8.55115,-12.7338 -6.5491,-19.1435 z"
           id="path4614"
           inkscape:connector-curvature="0"
           sodipodi:nodetypes="ccc" />
      </g>
      <g
         transform="matrix(0.26547619,0,0,0.26547619,-263.37048,805.66435)"
         id="g4526"
         style="fill:#000000;stroke:#ffffff">
        <path
           style="fill:#000000;fill-opacity:0.984975;stroke:#ffffff;stroke-width:0.26458332px;stroke-linecap:butt;stroke-linejoin:miter;stroke-opacity:1"
           d="m -837.57604,1188.4203 c 52.07371,7.3068 51.85581,6.4682 62.82806,10.1883 11.9893,4.065 43.64049,10.5896 57.38618,11.5023 -13.9774,5.6894 -8.73152,13.4974 -8.45131,18.6511 -17.92121,-6.0157 -28.9629,-6.5315 -46.82517,-8.9534 -5.14562,-0.7204 -15.95143,-2.1612 -23.05239,-5.1456 -7.10096,-2.9845 -20.99414,-6.7922 -31.28539,-7.9243 -10.29124,-1.132 -10.00423,-1.4978 -16.77472,-1.7495 -2.90878,-8.7055 1.18617,-13.7265 6.17474,-16.5689 z"
           id="path4505"
           inkscape:connector-curvature="0"
           sodipodi:nodetypes="csccccccc" />
        <ellipse
           style="opacity:1;fill:#000000;fill-opacity:0.984975;stroke:#ffffff;stroke-width:0.03670848;stroke-miterlimit:3.5999999;stroke-dasharray:none"
           id="path4507"
           cx="-196.24063"
           cy="1395.2845"
           rx="8.1119089"
           ry="9.4990005"
           transform="matrix(0.93544233,0.35347935,-0.37979925,0.92506893,0,0)" />
        <path
           style="opacity:1;fill:#000000;fill-opacity:0.984975;stroke:#ffffff;stroke-width:0.26458332px;stroke-linecap:butt;stroke-linejoin:miter;stroke-opacity:1"
           d="m -716.28332,1184.9644 c -43.22544,6.1854 -50.6046,9.4255 -54.18875,10.7265 12.48007,3.6022 23.6617,6.3745 34.8319,8.1209 11.86153,-2.7652 23.18718,-4.966 27.83715,-6.2803 1.61406,-4.5045 0.17934,-10.384 -8.4803,-12.5671 z"
           id="path4513"
           inkscape:connector-curvature="0"
           sodipodi:nodetypes="ccccc" />
        <path
           style="opacity:1;fill:#000000;fill-opacity:0.984975;stroke:#ffffff;stroke-width:0.26458332px;stroke-linecap:butt;stroke-linejoin:miter;stroke-opacity:1"
           d="m -837.16439,1214.3028 c 9.31358,-2.5214 8.07863,-2.5214 12.40095,-3.6019 10.86744,0.8716 19.61843,5.516 30.30772,8.5931 -8.28445,3.602 -29.94752,12.1952 -35.5048,14.2534 4.20587,-11.7558 -1.47384,-15.9838 -7.20387,-19.2446 z"
           id="path4515"
           inkscape:connector-curvature="0"
           sodipodi:nodetypes="ccccc" />
        <ellipse
           style="opacity:1;fill:#000000;fill-opacity:0.984975;stroke:#ffffff;stroke-width:0.02759779;stroke-miterlimit:3.5999999;stroke-dasharray:none"
           id="path4517"
           cx="-1406.7489"
           cy="524.77802"
           rx="9.1488924"
           ry="10.252341"
           transform="matrix(0.82039547,-0.57179652,0.59377557,0.8046307,0,0)" />
      </g>
    </g>
  </g>
</svg>
