<?xml version="1.0" encoding="UTF-8" standalone="no"?>
<!-- Created with Inkscape (http://www.inkscape.org/) -->

<svg
   xmlns:dc="http://purl.org/dc/elements/1.1/"
   xmlns:cc="http://creativecommons.org/ns#"
   xmlns:rdf="http://www.w3.org/1999/02/22-rdf-syntax-ns#"
   xmlns:svg="http://www.w3.org/2000/svg"
   xmlns="http://www.w3.org/2000/svg"
   xmlns:sodipodi="http://sodipodi.sourceforge.net/DTD/sodipodi-0.dtd"
   xmlns:inkscape="http://www.inkscape.org/namespaces/inkscape"
   width="87mm"
   height="37mm"
   viewBox="0 0 87 37"
   version="1.1"
   id="svg1811"
   inkscape:version="0.92.3 (2405546, 2018-03-11)"
   sodipodi:docname="technikcamp-aufkleber-rechteckig2.svg">
  <defs
     id="defs1805" />
  <sodipodi:namedview
     id="base"
     pagecolor="#ffffff"
     bordercolor="#666666"
     borderopacity="1.0"
     inkscape:pageopacity="0.0"
     inkscape:pageshadow="2"
     inkscape:zoom="2.8"
     inkscape:cx="173.90549"
     inkscape:cy="61.4032"
     inkscape:document-units="mm"
     inkscape:current-layer="layer1"
     showgrid="false"
     inkscape:window-width="1920"
     inkscape:window-height="1025"
     inkscape:window-x="0"
     inkscape:window-y="0"
     inkscape:window-maximized="1" />
  <metadata
     id="metadata1808">
    <rdf:RDF>
      <cc:Work
         rdf:about="">
        <dc:format>image/svg+xml</dc:format>
        <dc:type
           rdf:resource="http://purl.org/dc/dcmitype/StillImage" />
        <dc:title></dc:title>
      </cc:Work>
    </rdf:RDF>
  </metadata>
  <g
     inkscape:label="Layer 1"
     inkscape:groupmode="layer"
     id="layer1"
     transform="translate(0,-260)">
    <rect
       style="fill:#000000;fill-opacity:1;stroke:none;stroke-width:0.47706452;stroke-linejoin:miter;stroke-miterlimit:4;stroke-dasharray:none;stroke-opacity:1"
       id="rect169"
       width="87"
       height="37"
       x="0"
       y="260" />
    <rect
       y="261"
       x="1"
       height="35"
       width="85"
       id="rect1468"
       style="fill:#000000;fill-opacity:1;stroke:none;stroke-width:0.45862752;stroke-linejoin:miter;stroke-miterlimit:4;stroke-dasharray:none;stroke-opacity:1" />
    <g
       transform="matrix(0.61499656,0,0,0.61499656,490.80588,459.65321)"
       id="g1510"
       style="fill:#ffffff">
      <g
         transform="translate(-602.63814,-63.613965)"
         id="g1492"
         style="fill:#ffffff">
        <g
           transform="matrix(1.2162306,0,0,1.2162306,-54.285681,468.13161)"
           id="g1488"
           style="fill:#ffffff">
          <path
             inkscape:connector-curvature="0"
             id="path1476"
             style="font-style:normal;font-variant:normal;font-weight:normal;font-stretch:normal;font-size:23.01458931px;line-height:1.25;font-family:'Hit the Road';-inkscape-font-specification:'Hit the Road, Normal';font-variant-ligatures:normal;font-variant-caps:normal;font-variant-numeric:normal;font-feature-settings:normal;text-align:start;letter-spacing:0px;word-spacing:0px;writing-mode:lr-tb;text-anchor:start;fill:#ffffff;fill-opacity:1;stroke:none;stroke-width:0.57537842"
             d="m -105.11007,-590.47538 h 12.430773 v 2.84239 h -4.619866 v 11.49683 h -3.345827 v -11.49683 h -4.46508 z" />
          <path
             inkscape:connector-curvature="0"
             id="path1478"
             style="font-style:normal;font-variant:normal;font-weight:normal;font-stretch:normal;font-size:23.01458931px;line-height:1.25;font-family:'Hit the Road';-inkscape-font-specification:'Hit the Road, Normal';font-variant-ligatures:normal;font-variant-caps:normal;font-variant-numeric:normal;font-feature-settings:normal;text-align:start;letter-spacing:0px;word-spacing:0px;writing-mode:lr-tb;text-anchor:start;fill:#ffffff;fill-opacity:1;stroke:none;stroke-width:0.57537842"
             d="m -71.033591,-590.72992 q 1.714589,0 3.262482,0.69999 1.547893,0.69999 2.548071,2.48178 l -2.952904,1.31514 q -0.76204,-1.44241 -2.500443,-1.54846 -1.738403,-0.10606 -2.92909,0.91211 -1.190687,1.01817 -1.309756,3.24541 -0.119069,2.22725 1.000177,3.54239 1.119246,1.31513 2.905276,1.31513 1.786031,0 3.060066,-1.77119 l 2.70286,1.4212 q -1.119246,1.83482 -2.571884,2.55603 -1.452639,0.72119 -3.953081,0.65756 -2.500443,-0.0636 -4.453171,-1.86665 -1.952726,-1.803 -2.000353,-5.49387 -0.04763,-3.69086 2.238491,-5.57871 2.28612,-1.88786 4.953259,-1.88786 z" />
          <path
             inkscape:connector-curvature="0"
             id="path1480"
             style="font-style:normal;font-variant:normal;font-weight:normal;font-stretch:normal;font-size:23.01458931px;line-height:1.25;font-family:'Hit the Road';-inkscape-font-specification:'Hit the Road, Normal';font-variant-ligatures:normal;font-variant-caps:normal;font-variant-numeric:normal;font-feature-settings:normal;text-align:start;letter-spacing:0px;word-spacing:0px;writing-mode:lr-tb;text-anchor:start;fill:#ffffff;fill-opacity:1;stroke:none;stroke-width:0.57537842"
             d="m -63.630293,-590.47538 h 3.179135 v 5.5363 h 6.536872 v -5.5363 h 3.191041 v 14.33922 h -3.191041 v -5.96053 h -6.536872 v 5.96053 h -3.179135 z" />
          <path
             inkscape:connector-curvature="0"
             id="path1482"
             style="font-style:normal;font-variant:normal;font-weight:normal;font-stretch:normal;font-size:23.01458931px;line-height:1.25;font-family:'Hit the Road';-inkscape-font-specification:'Hit the Road, Normal';font-variant-ligatures:normal;font-variant-caps:normal;font-variant-numeric:normal;font-feature-settings:normal;text-align:start;letter-spacing:0px;word-spacing:0px;writing-mode:lr-tb;text-anchor:start;fill:#ffffff;fill-opacity:1;stroke:none;stroke-width:0.57537842"
             d="m -48.486771,-590.47538 h 3.191042 l 6.905984,8.65444 v -8.65444 h 3.191042 v 14.33922 h -3.191042 l -6.905984,-9.41807 v 9.41807 h -3.191042 z" />
          <path
             inkscape:connector-curvature="0"
             id="path1484"
             style="font-style:normal;font-variant:normal;font-weight:normal;font-stretch:normal;font-size:23.01458931px;line-height:1.25;font-family:'Hit the Road';-inkscape-font-specification:'Hit the Road, Normal';font-variant-ligatures:normal;font-variant-caps:normal;font-variant-numeric:normal;font-feature-settings:normal;text-align:start;letter-spacing:0px;word-spacing:0px;writing-mode:lr-tb;text-anchor:start;fill:#ffffff;fill-opacity:1;stroke:none;stroke-width:0.57537842"
             d="m -31.709987,-590.47538 h 3.179134 v 14.33922 h -3.179134 z" />
          <path
             inkscape:connector-curvature="0"
             id="path1486"
             style="font-style:normal;font-variant:normal;font-weight:normal;font-stretch:normal;font-size:23.01458931px;line-height:1.25;font-family:'Hit the Road';-inkscape-font-specification:'Hit the Road, Normal';font-variant-ligatures:normal;font-variant-caps:normal;font-variant-numeric:normal;font-feature-settings:normal;text-align:start;letter-spacing:0px;word-spacing:0px;writing-mode:lr-tb;text-anchor:start;fill:#ffffff;fill-opacity:1;stroke:none;stroke-width:0.57537842"
             d="m -25.196928,-590.47538 h 3.191042 l 0.02382,6.19386 5.643857,-6.19386 h 3.953081 l -4.715121,4.96358 5.85818,9.37564 h -3.845919 l -4.393636,-6.87265 -2.500442,2.58785 v 4.2848 h -3.214856 z" />
        </g>
        <path
           inkscape:connector-curvature="0"
           d="m -152.04092,-241.62207 a 1.8898809,1.8898809 0 0 1 -1.88988,1.88988 1.8898809,1.8898809 0 0 1 -1.88988,-1.88988 1.8898809,1.8898809 0 0 1 1.88988,-1.88988 1.8898809,1.8898809 0 0 1 1.88988,1.88988 z m -11.76451,0.0165 h 7.89025 m -7.98786,3.50433 v -7.78422 l 2.63929,-2.63929 h 5.7797 m -8.41899,3.83119 v 7.95127 l 2.63929,2.63929 h 5.7797 m 3.44313,-8.2e-4 a 1.8898809,1.8898809 0 0 1 -1.88988,1.88988 1.8898809,1.8898809 0 0 1 -1.88988,-1.88988 1.8898809,1.8898809 0 0 1 1.88988,-1.88988 1.8898809,1.8898809 0 0 1 1.88988,1.88988 z m 0,-14.41846 a 1.8898809,1.8898809 0 0 1 -1.88988,1.88988 1.8898809,1.8898809 0 0 1 -1.88988,-1.88988 1.8898809,1.8898809 0 0 1 1.88988,-1.88988 1.8898809,1.8898809 0 0 1 1.88988,1.88988 z"
           style="fill:none;fill-opacity:1;stroke:#71c837;stroke-width:1.32291663;stroke-miterlimit:4;stroke-dasharray:none;stroke-opacity:1"
           id="path1490" />
      </g>
      <g
         transform="translate(-603.25283,-63.613965)"
         id="g1504"
         style="fill:#ffffff">
        <path
           inkscape:connector-curvature="0"
           id="path1494"
           style="font-style:normal;font-variant:normal;font-weight:normal;font-stretch:normal;font-size:29.14043427px;line-height:1.25;font-family:'Hit the Road';-inkscape-font-specification:'Hit the Road, Normal';font-variant-ligatures:normal;font-variant-caps:normal;font-variant-numeric:normal;font-feature-settings:normal;text-align:start;letter-spacing:0px;word-spacing:0px;writing-mode:lr-tb;text-anchor:start;fill:#ffffff;fill-opacity:1;stroke:none;stroke-width:0.72853047"
           d="m -172.40184,-230.09152 q 2.17095,0 4.13086,0.88632 1.95989,0.8863 3.2263,3.14237 l -3.73889,1.66518 q -0.96488,-1.82634 -3.16599,-1.96062 -2.20113,-0.13429 -3.70874,1.15489 -1.50761,1.28918 -1.65837,4.10926 -0.15077,2.82007 1.26639,4.48526 1.41716,1.66519 3.67858,1.66519 2.26142,0 3.87458,-2.24263 l 3.42228,1.79947 q -1.41715,2.32321 -3.25645,3.23638 -1.83929,0.91316 -5.00528,0.83259 -3.16599,-0.0806 -5.63848,-2.36349 -2.47249,-2.28292 -2.5328,-6.95619 -0.0603,-4.67327 2.83433,-7.06363 2.89461,-2.39035 6.27168,-2.39035 z" />
        <path
           inkscape:connector-curvature="0"
           id="path1496"
           style="font-style:normal;font-variant:normal;font-weight:normal;font-stretch:normal;font-size:29.14043427px;line-height:1.25;font-family:'Hit the Road';-inkscape-font-specification:'Hit the Road, Normal';font-variant-ligatures:normal;font-variant-caps:normal;font-variant-numeric:normal;font-feature-settings:normal;text-align:start;letter-spacing:0px;word-spacing:0px;writing-mode:lr-tb;text-anchor:start;fill:#ffffff;fill-opacity:1;stroke:none;stroke-width:0.72853047"
           d="m -145.34282,-229.76922 h 3.82934 l 5.5631,11.11916 5.60833,-11.11916 h 3.96502 v 18.15592 h -4.0404 v -10.24628 l -5.59326,10.51486 -5.48771,-10.31342 v 10.04484 h -3.84442 z" />
        <path
           inkscape:connector-curvature="0"
           id="path1498"
           style="font-style:normal;font-variant:normal;font-weight:normal;font-stretch:normal;font-size:29.14043427px;line-height:1.25;font-family:'Hit the Road';-inkscape-font-specification:'Hit the Road, Normal';font-variant-ligatures:normal;font-variant-caps:normal;font-variant-numeric:normal;font-feature-settings:normal;text-align:start;letter-spacing:0px;word-spacing:0px;writing-mode:lr-tb;text-anchor:start;fill:#ffffff;fill-opacity:1;stroke:none;stroke-width:0.72853047"
           d="m -119.52571,-226.17026 v 4.67327 h 5.2465 q 1.14579,-0.0537 1.80914,-0.75202 0.66335,-0.69831 0.66335,-1.71891 0,-1.0206 -0.78396,-1.61148 -0.78396,-0.59086 -1.80914,-0.59086 z m -4.02533,-3.59896 h 9.27183 q 5.65356,0.53716 6.66366,4.84784 0.19599,3.23638 -1.41716,5.03585 -2.05035,1.82634 -5.54802,1.82634 h -4.94498 v 6.44589 h -4.02533 z" />
        <path
           style="fill:none;fill-opacity:1;stroke:#ffcc00;stroke-width:1.24856877;stroke-linecap:butt;stroke-linejoin:round;stroke-miterlimit:4;stroke-dasharray:none;stroke-opacity:1"
           d="m -164.53689,-212.26687 h 17.02808 l -8.51344,-16.71262 z"
           id="path1500"
           inkscape:connector-curvature="0"
           sodipodi:nodetypes="cccc" />
        <path
           sodipodi:nodetypes="cccc"
           inkscape:connector-curvature="0"
           id="path1502"
           d="m -159.11696,-212.46622 h 6.18822 l -3.09351,-6.09107 z"
           style="fill:#ffcc00;stroke:none;stroke-width:0.4543995;stroke-linecap:butt;stroke-linejoin:round;stroke-miterlimit:4;stroke-dasharray:none;stroke-opacity:1" />
      </g>
    </g>
    <g
       transform="matrix(0.06582118,0,0,0.06582118,91.032632,253.02486)"
       id="g1721"
       style="fill:#009ee0;fill-opacity:1">
      <path
         inkscape:connector-curvature="0"
         style="fill:#009ee0;fill-opacity:1;stroke:none;stroke-width:0.90685666;stroke-linecap:square;stroke-linejoin:miter;stroke-miterlimit:4;stroke-dasharray:none"
         d="m -212.91997,592.4745 c -1.18192,-0.45086 -2.28946,-0.98597 -2.46135,-1.1892 -0.17179,-0.20321 -1.26101,-1.50277 -2.42042,-2.88799 -2.46016,-2.93923 -4.65274,-4.58833 -7.05922,-5.30942 -1.08067,-0.32442 -1.96973,-0.92104 -2.38706,-1.60351 -0.36566,-0.59828 -1.61303,-1.54301 -2.77197,-2.09952 -2.36448,-1.13557 -2.84043,-1.832 -3.1298,-4.58048 -0.18111,-1.72067 -0.3842,-2.0315 -2.04241,-3.12692 -2.9633,-1.95744 -4.41603,-3.08797 -5.84423,-4.54792 -0.73733,-0.75372 -1.49933,-1.37543 -1.69329,-1.38154 -0.19396,-0.006 -1.85342,-1.54157 -3.68765,-3.41239 -1.83431,-1.87072 -4.00248,-3.86738 -4.81812,-4.43705 -1.78678,-1.24776 -2.45887,-3.45547 -1.9555,-6.42347 0.18369,-1.08342 0.23226,-2.71335 0.10809,-3.62214 -0.19368,-1.41472 -0.52888,-1.86713 -2.33138,-3.14658 -1.15779,-0.82191 -2.39682,-1.50353 -2.7534,-1.51465 -0.35661,-0.0107 -0.73889,-0.17162 -0.84741,-0.36628 -0.10953,-0.19041 -1.90577,-1.26086 -3.99173,-2.37894 -2.08595,-1.11798 -4.01072,-2.31293 -4.27728,-2.65543 -0.26653,-0.34248 -0.78367,-0.63478 -1.14911,-0.64949 -0.36535,-0.0151 -1.05907,-0.26612 -1.54128,-0.55929 -3.80646,-2.31105 -5.66453,-3.62874 -7.83203,-5.55426 -5.39187,-4.79005 -5.51425,-4.87316 -10.89732,-7.40557 -1.82613,-0.85905 -8.46294,-4.40784 -11.85954,-6.34158 -1.65659,-0.94311 1.54826,-13.33905 0.54196,-13.50949 -1.8684,-0.31683 -11.24699,9.39348 -11.64436,8.70298 -0.28272,-0.4912 10.81788,-14.91349 10.15799,-14.93412 -0.27479,-0.008 -3.50086,-0.98796 -5.04306,-1.7915 -3.05726,-1.59302 -19.94795,7.86164 -20.54097,5.41799 -0.1871,-0.77076 9.66311,-1.24541 9.32945,-1.60066 1.54676,-0.78602 8.63712,-10.34658 1.34478,-7.34833 -4.60582,1.9229 -19.65293,4.0094 -22.35372,3.41946 -1.39041,-0.30407 -1.51888,2.06756 -3.76034,1.85389 -3.7759,-0.36004 -4.20727,-0.49219 -5.87058,-1.79801 -1.57534,-1.23688 -10.78036,0.96809 -12.22123,1.16546 -0.90315,0.12369 -6.78638,0.0334 -13.07383,-0.20069 -11.37242,-0.42332 -11.44151,-0.42067 -13.3022,0.50434 -1.02874,0.51141 -2.83598,1.1297 -4.0162,1.37398 -2.42216,0.50148 -4.91506,1.57844 -5.64456,2.43852 -1.5087,1.7788 -5.96984,4.99749 -7.18899,5.18695 -0.75599,0.1174 -1.98605,0.63578 -2.73341,1.15186 -0.7474,0.51606 -1.59437,0.93089 -1.8822,0.9219 -0.28786,-0.009 -1.13648,0.33161 -1.88588,0.75691 -0.74938,0.42531 -2.03759,0.7528 -2.8626,0.72779 -1.02215,-0.0309 -1.91702,0.28367 -2.80904,0.9878 -0.86147,0.67996 -1.96786,1.08186 -3.23603,1.17557 -1.16665,0.0862 -2.31327,0.47316 -2.9059,0.98067 -1.39965,1.1986 -5.18204,1.06758 -6.7334,-0.23343 -0.60732,-0.50933 -1.62422,-1.05747 -2.25981,-1.21799 -0.6355,-0.16065 -1.45421,-0.64356 -1.81925,-1.0733 -0.37829,-0.44525 -1.51533,-0.92568 -2.6437,-1.11712 -2.44986,-0.41544 -3.35648,-1.33853 -2.15194,-2.19098 0.63801,-0.45154 1.52129,-0.50282 3.97531,-0.23066 1.73522,0.19253 3.62153,0.54429 4.19179,0.78183 1.79395,0.74721 3.93773,0.56128 7.3528,-0.63756 1.81849,-0.63825 4.48345,-1.45526 5.92219,-1.81547 1.43865,-0.36024 2.82434,-0.85087 3.07931,-1.09033 0.25504,-0.23957 0.76635,-0.42599 1.13637,-0.41435 0.37006,0.0114 1.59992,-0.78903 2.73309,-1.77912 1.13317,-0.9901 2.8317,-2.11725 3.77456,-2.50486 0.94284,-0.38758 1.84346,-0.89976 2.00133,-1.13823 0.15785,-0.23847 0.77183,-0.41844 1.36429,-0.39986 1.79373,0.0562 10.67109,-9.05514 10.73028,-10.94459 0.0154,-0.49118 8.17551,-0.76927 7.60572,-1.27591 12.80651,1.62405 22.15377,1.44404 27.35759,3.30873 -0.0548,1.75001 12.73084,-0.28332 8.13467,0.41319 -34.69885,-7.63424 -21.63626,0.12661 1.53884,-2.69434 4.83341,-0.47166 5.42237,-0.12883 7.45775,4.34063 1.28251,2.81633 1.88633,3.65868 3.2461,4.52834 l 1.67048,1.06843 2.36147,-0.85802 c 1.2988,-0.47188 2.80243,-1.22116 3.34136,-1.66505 0.87412,-0.71986 1.44135,-0.78136 5.25381,-0.5688 6.9836,-3.98467 21.3366,-6.09446 8.35206,4.72776 1.25638,0.70352 -1.17963,0.40455 0,0 0.8169,-0.28004 5.34181,-4.71161 4.34661,-6.56316 -0.50244,-0.93475 -5.6924,0.22499 -5.81538,-0.60022 -0.34272,-1.89224 -7.7656,-1.25217 -5.74364,-7.65576 -1.40549,-1.17729 -2.69523,-2.65765 -2.99109,-3.43318 -0.28611,-0.74984 -0.93987,-1.79881 -1.45274,-2.33106 -0.92731,-0.96209 -1.03084,-1.4428 -1.9841,-9.21656 -0.38797,-3.16439 -1.36384,-4.88719 -3.79015,-6.69105 -6.22648,-4.6294 -5.99749,-4.50828 -9.09596,-4.80765 -3.1818,-0.30736 -4.68426,-1.09984 -7.71691,-4.03906 -2.11334,-2.05293 -4.41658,-3.41592 -9.02954,-5.3432 -2.10814,-0.88077 -4.03272,-1.74211 -4.27681,-1.91418 -0.24398,-0.17264 -0.96364,-0.69031 -1.59893,-1.15158 -1.3224,-0.96038 -13.60907,-14.1854 -13.59719,-14.63564 0.005,-0.16329 -0.42285,-0.5989 -0.94933,-0.96792 -1.12727,-0.7901 -1.66867,-3.80314 -0.9176,-5.1067 0.25716,-0.44627 1.49276,-1.25768 2.7458,-1.80315 1.83698,-0.79963 2.61088,-0.92743 3.99538,-0.66004 1.97694,0.3823 2.7883,0.88586 6.18585,3.84178 3.68862,3.20918 4.78152,4.05874 5.2392,4.0731 0.22807,0.007 0.92039,0.4636 1.53861,1.01415 0.61822,0.55068 1.57898,1.15784 2.13505,1.34937 0.55597,0.19186 1.42273,0.69104 1.92598,1.10992 0.50331,0.4189 1.43101,0.89212 2.06167,1.0515 0.63065,0.15953 1.55522,0.75282 2.05452,1.31883 0.49931,0.56601 1.08303,1.03459 1.29712,1.04136 0.21399,0.007 1.65829,1.32313 3.2093,2.92545 4.91071,5.07307 4.72447,4.94497 7.74025,5.32228 1.79392,0.22427 3.12287,0.64139 3.83353,1.20142 0.59824,0.47197 1.31492,0.86528 1.59265,0.87394 0.27776,0.009 1.14454,0.46808 1.92617,1.02086 3.83896,2.71502 5.40508,3.70515 5.88425,3.72013 0.28846,0.009 1.18698,0.49699 1.99675,1.08447 0.80982,0.58736 1.92316,1.08205 2.47396,1.09934 0.55075,0.0179 1.4574,0.41306 2.01425,0.88062 0.55699,0.46711 1.2857,0.85778 1.61925,0.86827 0.79372,0.0248 3.79284,2.00897 5.73367,3.79332 1.09726,1.00879 1.58978,1.84385 1.71937,2.91508 0.0999,0.82575 0.41137,2.33637 0.69225,3.35682 0.28083,1.02044 0.60605,2.56478 0.72276,3.43172 0.16904,1.25685 0.8011,2.18834 3.11692,4.59395 1.59766,1.65966 3.68812,3.55485 4.64545,4.2115 0.95737,0.65668 2.54778,1.8529 3.53417,2.65832 0.98644,0.80531 2.42488,1.86139 3.19652,2.34678 0.77161,0.48534 2.213,1.44792 3.20296,2.13914 0.99004,0.69124 3.24615,2.06743 5.01365,3.05817 1.76746,0.99086 3.64108,2.15857 4.16355,2.59506 0.52248,0.43648 1.24671,0.80362 1.60945,0.81581 0.36272,0.0121 1.74482,0.6067 3.07132,1.32093 1.32648,0.71436 2.61304,1.30573 2.85896,1.31433 0.24584,0.009 0.75232,0.37473 1.1253,0.81378 0.37298,0.43904 1.33555,0.94307 2.13898,1.11999 0.80393,0.17493 2.34508,0.81995 3.42581,1.42896 2.41466,1.36045 5.03606,1.30206 8.4999,-0.18959 1.2534,-0.5397 2.60785,-0.97287 3.00991,-0.96243 0.40211,0.0105 1.42356,-0.30315 2.26997,-0.69671 1.84384,-0.85731 4.23103,-1.16504 8.4022,-1.08287 3.47538,0.0684 6.33843,1.21903 7.415,2.98001 0.61299,1.0027 1.94049,1.56369 7.61177,3.21696 7.0733,2.06198 7.41091,2.12183 9.36944,1.66329 1.01446,-0.23758 2.37445,-0.4154 3.02221,-0.39512 2.12584,0.0666 5.71259,2.48128 8.84278,5.95316 2.81601,3.12331 3.02574,3.49696 4.20722,7.49676 0.87003,2.94548 1.51746,4.4017 2.156,4.84918 1.02048,0.71534 1.46702,1.76919 2.23251,5.26893 0.4436,2.02827 0.88012,2.76357 2.84313,4.78974 2.09729,2.16481 2.95351,2.83371 5.99311,4.68218 2.54096,1.54517 8.06324,1.30617 10.94228,-0.47372 1.52462,-0.94259 2.17914,-1.1212 3.24674,-0.88612 1.55379,0.34191 3.69528,2.52971 4.03478,4.12137 0.12919,0.60571 0.57593,1.43005 0.99275,1.8317 0.41683,0.40164 0.75032,0.97103 0.74112,1.26522 -0.032,1.02208 1.61941,1.54188 4.29613,1.35207 2.39693,-0.16984 2.60943,-0.1167 3.03695,0.76105 0.5929,1.2167 1.10231,1.56282 2.36925,1.61025 0.64777,0.0244 1.7595,0.75211 2.99811,1.96283 l 1.96857,1.92439 5.16202,0.46746 c 4.78428,0.4332 5.26865,0.55411 6.61814,1.65202 0.80082,0.65154 1.3805,1.39538 1.28812,1.65296 -0.0924,0.25758 -0.86624,0.77554 -1.71965,1.15101 -2.0796,0.91487 -1.94798,2.01828 0.27072,2.26998 1.42207,0.16133 1.75003,0.0155 2.92903,-1.30262 0.86778,-0.97033 1.95942,-1.65197 3.15183,-1.96823 4.23295,-1.12247 7.0025,0.14672 9.7215,4.45487 1.01222,1.60379 2.46482,3.48738 3.22798,4.18567 0.76311,0.69841 2.55563,2.31802 3.9832,3.59926 2.72353,2.4441 3.38402,3.70183 3.30295,6.28937 -0.0362,1.15484 -0.37358,1.90625 -1.28523,2.86224 l -1.23622,1.29608 -7.07527,-0.20444 c -3.89138,-0.11233 -7.31402,-0.17376 -7.60581,-0.1361 -0.29188,0.0375 -1.42066,0.8406 -2.50845,1.78444 -2.17253,1.88471 -5.42502,3.77464 -6.44168,3.74274 -0.35708,-0.0108 -0.9961,-0.49099 -1.42016,-1.06639 -0.42405,-0.57528 -1.07854,-1.05568 -1.45428,-1.06745 -0.84924,-0.0266 -3.40612,2.4767 -4.45017,4.35691 -0.42947,0.77333 -1.37987,1.93924 -2.11198,2.59069 l -1.33124,1.18466 -1.56322,-1.88845 c -1.51801,-1.83382 -1.5548,-1.95597 -1.27405,-4.22956 l 0.28922,-2.34133 -1.21878,-0.0381 c -0.67034,-0.021 -1.22383,0.12057 -1.2299,0.31477 -0.0191,0.61138 -4.21645,4.39452 -5.59914,5.04667 -0.72758,0.34315 -2.10928,1.29896 -3.07041,2.12405 -2.72013,2.335 -4.39569,2.39832 -9.75614,0.36818 -2.29656,-0.86976 -3.0044,-1.35734 -3.76817,-2.59575 -0.91737,-1.48769 -2.4558,-2.09851 -3.04481,-1.20911 -0.13621,0.20588 -0.87514,0.25209 -1.64199,0.10284 -1.27461,-0.2475 -1.42182,-0.17132 -1.71512,0.89291 -0.17644,0.64028 -0.65039,1.61368 -1.05331,2.16313 -0.40285,0.54947 -0.97543,1.67522 -1.27246,2.50192 -0.7463,2.07705 -4.0364,4.48379 -6.84322,5.00585 -1.17898,0.21926 -3.89395,0.49284 -6.0333,0.60784 -2.13935,0.11512 -4.16875,0.31009 -4.50988,0.43332 -0.34107,0.12337 -1.58714,-0.14463 -2.76893,-0.59582 z"
         id="path3338-3"
         sodipodi:nodetypes="ccccccccscccccccccccccccccccccccccccccccccccccccccccccccccccccccccccccccccccccccccccccccccccccccccccccccccccccccccccccccccccccccccccsccccccccccccccccccccccccccccccccccccccccccccccccccccccccccc" />
      <path
         inkscape:connector-curvature="0"
         id="path884"
         d="m -299.44942,609.72314 c -7.40312,-0.98235 -14.45353,-3.55731 -15.0579,-13.48113 -0.45036,-7.39523 -1.034,-7.29855 2.1468,-20.48604 2.84075,-11.7776 3.22049,-14.13466 3.4015,-21.11245 l 0.15734,-6.06623 -0.87914,-1.61527 c -0.48353,-0.88841 -0.96341,-1.60604 -1.06638,-1.59473 -0.31909,0.035 -4.19217,4.62993 -6.54532,7.76516 -5.13125,6.8366 -8.04344,13.5801 -8.57373,19.85338 l -0.20518,2.42731 -1.65576,0.34374 c -3.33554,0.69245 -3.41529,0.66968 -3.8856,-1.10957 -0.62854,-2.37778 -0.3317,-8.31692 0.54617,-10.92833 1.19061,-3.54166 3.86287,-8.50245 7.68252,-14.26187 4.2403,-6.39365 7.00472,-11.4429 8.0226,-14.65338 0.83314,-2.62771 0.93331,-2.68859 4.88614,-2.96917 l 2.7434,-0.19473 0.98083,2.49796 c 2.33592,5.94913 3.19573,10.13273 3.47545,16.91067 0.31958,7.74342 -0.68295,14.6216 -3.72418,31.51792 -1.47396,8.18899 -1.43969,9.1778 -0.60834,13.72302 1.43575,7.84971 9.74107,2.94743 13.4452,6.93619 0.89265,0.96125 0.92028,1.08043 0.69747,3.00925 -0.12759,1.1046 -0.35337,2.32909 -0.50173,2.72109 -0.42442,1.12146 -1.74242,1.26345 -5.48216,0.76721 z"
         style="fill:#009ee0;fill-opacity:1;stroke-width:0.31417665" />
      <path
         inkscape:connector-curvature="0"
         id="path882"
         d="m -334.17633,591.36029 -1.38526,-0.12316 0.1703,-1.26958 c 0.26127,-1.94796 1.51291,-3.56727 3.51408,-4.54635 1.55226,-0.75945 2.27367,-0.88004 6.74737,-1.12782 2.7551,-0.1526 5.54382,-0.28288 6.19714,-0.28951 l 1.18786,-0.012 v 3.00321 c 0,3.5498 0.90881,3.05769 -7.30591,3.95604 -5.77653,0.63169 -6.3394,0.65694 -9.12558,0.40922 z"
         style="fill:#009ee0;fill-opacity:1;stroke-width:0.31417665" />
      <path
         inkscape:connector-curvature="0"
         id="path880"
         d="m -305.58117,587.30421 c -0.26199,-1.04379 0.074,-3.11921 0.70117,-4.33215 0.7509,-1.45209 2.87341,-3.62334 5.50742,-5.63391 2.71464,-2.0721 5.07032,-4.48956 5.85678,-6.01037 1.69334,-3.27459 2.84041,-14.1053 2.09008,-19.73474 -1.02208,-7.66814 -4.99043,-16.20484 -10.16477,-21.8664 -0.87078,-0.95277 -1.58325,-1.87292 -1.58325,-2.04478 0,-0.17186 1.52025,-1.71985 3.37833,-3.43999 2.38173,-2.20491 3.42288,-2.98733 3.52938,-2.65236 0.41922,1.31864 5.70548,11.18015 6.89294,12.85877 2.56923,3.63192 5.97929,6.22056 9.32836,7.08131 0.78107,0.20075 1.95755,0.57155 2.61441,0.82401 1.729,0.66455 4.10301,0.56686 8.0888,-0.33289 5.96284,-1.34603 7.86107,-0.96351 9.22767,1.85951 1.13324,2.34094 0.9061,2.75404 -2.06165,3.74968 -5.20412,1.74592 -12.06137,1.82132 -18.93395,0.20817 -2.11714,-0.49694 -2.89104,-0.56829 -3.16762,-0.29206 -0.41551,0.41496 -0.43797,3.14508 -0.0627,7.62037 0.21053,2.51056 0.13832,3.60389 -0.43572,6.59739 -1.74492,9.09938 -5.15448,15.75883 -10.74749,20.99171 -2.20617,2.0641 -3.00827,2.60861 -4.45779,3.02615 -0.97216,0.28005 -2.58431,0.91904 -3.58257,1.41999 l -1.81502,0.9108 z"
         style="fill:#009ee0;fill-opacity:1;stroke:none;stroke-width:0.31417665" />
      <path
         inkscape:connector-curvature="0"
         id="path878"
         d="m -323.52132,531.41053 c -0.47665,-0.14353 -1.36755,-0.57053 -1.97976,-0.94891 -0.91336,-0.56448 -1.11313,-0.87773 -1.11313,-1.74556 v -1.05763 l 2.13817,-0.20932 c 5.34128,-0.5229 9.65416,-2.28673 13.90213,-5.68553 4.53178,-3.62587 8.45692,-8.85212 14.84411,-19.76462 2.05563,-3.51205 3.35235,-5.41573 3.69381,-5.42281 0.64029,-0.0133 2.09475,1.65267 2.35776,2.70062 0.42385,1.68874 -2.01012,9.82136 -4.33322,14.47861 -4.48719,8.99571 -12.01963,15.11758 -21.35766,17.3581 -2.59813,0.62337 -6.58586,0.76867 -8.15221,0.29705 z"
         style="fill:#009ee0;fill-opacity:1;stroke:none;stroke-width:0.31417665" />
      <path
         inkscape:connector-curvature="0"
         id="path876"
         d="m -481.35294,526.97713 -51.31561,-0.16103 -1.0316,-0.73579 c -1.29754,-0.92549 -3.27894,-4.95019 -4.16015,-8.45034 -1.52098,-6.04121 -2.40205,-12.65411 -2.89099,-21.69827 -0.18366,-3.39727 -0.63047,-10.73826 -0.99291,-16.31329 -0.71952,-11.06754 -0.66775,-17.99449 0.21183,-28.35028 1.32735,-15.62757 3.74016,-25.00053 6.98257,-27.12503 0.89187,-0.58438 10.24305,-1.15336 40.59298,-2.4699 28.5494,-1.23844 59.39388,-0.22023 76.73259,2.533 3.91022,0.62091 4.6288,1.17056 6.5062,4.97672 1.89765,3.8472 2.9852,8.22006 3.26818,13.14068 0.30788,5.35375 0.18194,6.62047 -0.68122,6.85202 -1.10361,0.29608 -4.63477,0.21844 -5.25893,-0.11565 -0.90224,-0.48286 -1.54961,-2.53382 -2.0753,-6.57484 -1.11526,-8.57313 -2.63032,-10.58871 -9.11011,-12.11978 -7.23779,-1.71017 -18.24475,-2.34867 -40.14746,-2.32891 -21.28584,0.0192 -37.72635,0.67423 -54.2223,2.16033 -4.07649,0.36725 -5.24153,0.58715 -6.50636,1.22809 -3.27757,1.66086 -5.72592,5.54095 -7.22605,11.45169 -1.14946,4.52902 -1.38181,7.50235 -1.72239,22.04048 -0.48965,20.90183 0.30595,31.02328 3.28956,41.84938 1.80304,6.54233 3.30139,8.76321 7.19294,10.66141 4.32729,2.11076 2.63263,2.03556 45.57378,2.0224 37.21846,-0.0119 49.50846,-0.2445 54.33862,-1.03062 4.49491,-0.73157 7.07114,-5.39326 8.55019,-15.47162 0.68995,-4.70132 0.77262,-4.98538 1.68928,-5.80441 1.85908,-1.66108 4.29554,-1.46117 5.33217,0.43749 0.93151,1.70612 0.73671,7.22264 -0.4563,12.9217 -1.53813,7.34778 -2.94774,12.3218 -3.76825,13.29692 -1.60135,1.9031 -6.32268,3.04003 -13.41981,3.23157 -2.17774,0.0588 -27.05155,0.0344 -55.27515,-0.0541 z"
         style="fill:#009ee0;fill-opacity:1;stroke-width:0.31417665" />
      <path
         inkscape:connector-curvature="0"
         id="path874"
         d="m -336.909,521.77776 c -2.06387,-0.51005 -3.30487,-1.17915 -4.79699,-2.58641 l -1.2159,-1.14675 0.7414,-0.60034 c 1.14779,-0.92942 3.6272,-1.55194 8.12236,-2.03934 2.26486,-0.24556 4.75936,-0.65477 5.54336,-0.90936 8.61583,-2.79786 13.98835,-6.24132 20.95258,-13.42941 3.40808,-3.51762 10.42307,-12.21824 10.94251,-13.57187 0.10533,-0.27443 0.67538,-0.43194 1.56333,-0.43194 1.6341,0 1.6314,-0.18835 0.066,4.58274 -3.53449,10.77293 -10.82764,19.68888 -21.24746,25.97521 -2.34302,1.41356 -2.78677,1.54926 -9.94463,3.04116 -8.05417,1.67873 -8.33327,1.70777 -10.72661,1.11631 z"
         style="fill:#009ee0;fill-opacity:1;stroke:none;stroke-width:0.31417665" />
      <path
         inkscape:connector-curvature="0"
         id="path2161"
         d="m -489.95161,515.1017 c 0.30522,-0.79539 11.92811,-16.92973 14.51374,-20.14728 5.3233,-6.62431 13.10065,-14.77974 16.04216,-16.82205 2.18903,-1.51984 6.05898,-2.76922 9.84032,-3.17684 4.50333,-0.48544 41.52741,-0.46782 70.20015,0.0334 24.32517,0.42525 23.65835,0.3693 30.59854,2.56766 2.14933,0.68082 3.96806,1.17768 4.04161,1.10412 0.0735,-0.0735 -0.25493,-0.64333 -0.72999,-1.26617 -1.11759,-1.4652 -3.60039,-3.09513 -6.19662,-4.06796 -4.33634,-1.62487 -5.80623,-1.72545 -30.56441,-2.09136 -22.32539,-0.32995 -32.36802,-0.56686 -59.0763,-1.3936 l -12.51214,-0.38729 -1.85738,-0.92629 c -3.27163,-1.63159 -5.88647,-4.50853 -18.78734,-20.67047 -6.85136,-8.58324 -12.45702,-15.68243 -12.45702,-15.77597 0,-0.31892 7.1255,0.26235 7.5777,0.61815 0.24779,0.19497 3.57605,4.53588 7.39614,9.64647 8.22717,11.00647 10.68379,13.98614 14.46819,17.54861 3.74769,3.52792 5.0628,4.39637 7.40345,4.88898 4.51043,0.94923 16.7742,1.17105 44.19337,0.79932 31.7879,-0.43096 42.44274,-0.20181 47.40855,1.01961 3.96535,0.97534 8.8346,2.66619 11.87768,4.12456 1.28435,0.61549 2.39065,1.06362 2.45847,0.99581 0.29558,-0.29558 -0.94477,-2.06251 -2.40985,-3.43293 -4.59543,-4.29847 -11.43936,-6.97635 -20.00375,-7.82698 -3.43121,-0.34079 -23.11897,-0.498 -35.95261,-0.28708 -4.00705,0.0659 -11.98947,0.11637 -17.73873,0.11234 -9.39031,-0.007 -10.84997,-0.0787 -14.35566,-0.70974 -4.64343,-0.83574 -9.83528,-2.5022 -12.89025,-4.13746 -1.83185,-0.98055 -2.33359,-1.42835 -2.91295,-2.59971 -1.66663,-3.36963 -1.84176,-12.54416 -0.37924,-19.86655 l 0.33216,-1.66301 h 2.51165 c 1.3814,0 2.53428,0.0356 2.56194,0.0792 0.0277,0.0436 0.14042,3.57151 0.25056,7.83989 0.21921,8.49524 0.32474,9.02303 2.24065,11.20511 1.39681,1.59089 2.27608,1.99217 5.23725,2.39015 6.27178,0.84294 11.07587,0.98111 33.92385,0.97567 14.10014,-0.004 25.74729,0.13162 28.03353,0.32486 10.72317,0.90642 19.30428,3.04836 26.77509,6.68337 3.62247,1.76254 4.02609,2.05563 6.60954,4.7993 4.86049,5.16194 9.56703,12.06048 12.25896,17.96836 l 1.22683,2.69249 -0.11471,-1.93017 c -0.25581,-4.30472 -6.59509,-14.79895 -16.51769,-27.34393 -1.8488,-2.3374 -3.36145,-4.36056 -3.36145,-4.49592 0,-0.45564 1.4011,-1.2323 2.22308,-1.2323 3.99782,0.35609 -7.04269,-1.578 12.20189,-0.63356 1.11025,0 1.78685,0.29038 3.68317,1.58074 1.27769,0.86941 2.54924,1.76031 2.82566,1.97976 0.80974,0.64291 7.15419,11.40096 9.35509,15.86311 1.9297,3.02302 3.87356,13.96847 6.62242,11.5693 1.15348,-1.01278 1.17294,-1.06766 0.98861,-2.78816 -0.42991,-4.01298 -2.73603,-11.21518 -5.47059,-17.08513 -0.76261,-1.63698 -1.38656,-3.16706 -1.38656,-3.40021 0,-0.23313 0.41274,-0.8858 0.9172,-1.45039 0.88305,-0.9883 0.95088,-1.00913 1.82139,-0.55934 1.47271,0.76095 3.99848,3.52202 5.07517,5.54802 0.55184,1.03838 1.8197,4.63193 2.81744,7.98565 0.99775,3.35373 1.92799,6.09769 2.0672,6.09769 0.13922,0 0.72444,-0.5917 1.30049,-1.3149 2.65825,-3.33728 3.62215,-3.80186 4.95168,-2.38665 0.85979,0.91521 0.8745,2.11216 0.0552,4.49345 -0.84655,2.46057 -0.81367,3.14225 0.17328,3.59193 0.44375,0.20219 1.01393,0.36761 1.26706,0.36761 0.62238,0 0.57884,0.82317 -0.15662,2.96082 -2.17564,6.32362 -6.86704,11.90285 -14.27101,16.97179 -7.03328,4.81515 -16.15861,7.82489 -24.81272,8.18381 -4.29277,0.17803 -6.79036,-0.32025 -8.92254,-1.78008 -1.63826,-1.12167 -1.69698,-2.10576 -0.18638,-3.12376 1.65029,-1.11212 3.83152,-1.63165 8.38537,-1.99722 14.14217,-1.13528 24.84419,-6.27432 32.6127,-15.66041 1.21923,-1.47309 1.24672,-1.54555 0.36751,-0.96865 -9.64689,6.32983 -20.15783,10.95117 -28.12133,12.36409 -2.38912,0.42388 -4.16309,0.51261 -7.76069,0.38812 -4.94148,-0.171 -7.89144,-0.76447 -11.30599,-2.27454 -1.88823,-0.83507 -2.1291,-1.26774 -1.99067,-3.57578 l 0.0804,-1.3407 -25.97457,-0.15972 c -14.28602,-0.0879 -29.31837,-0.15925 -33.40524,-0.15866 -9.45157,10e-4 -18.64332,0.60929 -26.46298,1.75024 -3.69087,0.53852 -4.337,1.01919 -5.57108,4.14439 -0.83144,2.10553 -0.99447,6.1839 -0.48213,12.06042 0.31902,3.65906 -0.0693,5.81368 -1.18938,6.59816 -0.408,0.28576 -1.41954,0.46162 -2.65537,0.46162 -2.37258,0 -2.37167,10e-4 -2.89827,-4.29257 -0.7713,-6.28914 -0.29536,-13.12555 1.23365,-17.72022 0.61311,-1.84239 0.87559,-2.19915 2.44483,-3.32285 3.3076,-2.36852 8.8333,-3.95101 16.55808,-4.74202 1.89293,-0.19384 9.79766,-0.33365 18.37225,-0.32496 8.27742,0.008 23.10355,-0.0778 32.94696,-0.19158 11.45973,-0.13245 21.07735,-0.079 26.73876,0.14876 4.8629,0.19557 8.90304,0.2942 8.97808,0.21916 0.31527,-0.31528 -3.38811,-2.0945 -5.60304,-2.69187 -4.3611,-1.17619 -6.36004,-1.30116 -25.52074,-1.59536 -10.45317,-0.16049 -27.41584,-0.45903 -37.69479,-0.66341 -28.39515,-0.56457 -30.98516,-0.55584 -33.41849,0.11257 -4.29932,1.1811 -8.05959,2.99058 -11.24508,5.41128 -3.21843,2.44571 -6.92939,6.61303 -15.75744,17.69521 l -9.52554,11.9578 h -3.30975 c -2.79358,0 -3.28166,-0.0731 -3.12965,-0.46931 z"
         style="fill:#009ee0;fill-opacity:1;stroke:none;stroke-width:0.31417665" />
    </g>
  </g>
</svg>
