<?xml version="1.0" encoding="UTF-8" standalone="no"?>
<!-- Created with Inkscape (http://www.inkscape.org/) -->

<svg
   xmlns:dc="http://purl.org/dc/elements/1.1/"
   xmlns:cc="http://creativecommons.org/ns#"
   xmlns:rdf="http://www.w3.org/1999/02/22-rdf-syntax-ns#"
   xmlns:svg="http://www.w3.org/2000/svg"
   xmlns="http://www.w3.org/2000/svg"
   xmlns:sodipodi="http://sodipodi.sourceforge.net/DTD/sodipodi-0.dtd"
   xmlns:inkscape="http://www.inkscape.org/namespaces/inkscape"
   width="240.13025mm"
   height="203.87856mm"
   viewBox="0 0 850.85522 722.40435"
   id="svg3407"
   version="1.1"
   inkscape:version="0.91 r"
   sodipodi:docname="vorschlag_07_(kr0l).svg">
  <defs
     id="defs3409" />
  <sodipodi:namedview
     id="base"
     pagecolor="#ffffff"
     bordercolor="#666666"
     borderopacity="1.0"
     inkscape:pageopacity="0.0"
     inkscape:pageshadow="2"
     inkscape:zoom="0.70000002"
     inkscape:cx="449.03593"
     inkscape:cy="542.34287"
     inkscape:document-units="px"
     inkscape:current-layer="layer1"
     showgrid="false"
     inkscape:window-width="1920"
     inkscape:window-height="1025"
     inkscape:window-x="-2"
     inkscape:window-y="-3"
     inkscape:window-maximized="1"
     fit-margin-top="0"
     fit-margin-left="0"
     fit-margin-right="0"
     fit-margin-bottom="0">
    <inkscape:grid
       type="xygrid"
       id="grid3498"
       originx="2402.1821"
       originy="-181.88423" />
  </sodipodi:namedview>
  <metadata
     id="metadata3412">
    <rdf:RDF>
      <cc:Work
         rdf:about="">
        <dc:format>image/svg+xml</dc:format>
        <dc:type
           rdf:resource="http://purl.org/dc/dcmitype/StillImage" />
        <dc:title></dc:title>
      </cc:Work>
    </rdf:RDF>
  </metadata>
  <g
     inkscape:label="Ebene 1"
     inkscape:groupmode="layer"
     id="layer1"
     transform="translate(2402.1822,-148.07371)">
    <g
       id="g8"
       transform="matrix(5.4369748,0,0,5.4502165,-2453.5715,181.29078)">
      <ellipse
         style="fill:none;stroke:#de2c68;stroke-width:1.70899987;stroke-miterlimit:4;stroke-dasharray:none;stroke-opacity:1"
         cx="51.911308"
         cy="78.654236"
         stroke-miterlimit="4"
         id="circle10"
         rx="32.507553"
         ry="33.143147" />
      <circle
         style="fill:none;stroke:#de2c68;stroke-width:5.81192684;stroke-miterlimit:4;stroke-dasharray:none;stroke-opacity:1"
         cx="74"
         cy="44"
         r="29"
         transform="matrix(1.5831269,0,0,1.5986441,-9.3397104,-8.1360194)"
         stroke-miterlimit="4"
         id="circle14" />
      <g
         id="layer2"
         transform="matrix(0.0787574,0.0035823,-0.00318599,0.07191048,-2.1669767,-6.3196237)">
        <path
           id="path4165"
           d="m 744.20042,622.64755 c -3.01685,-1.03447 -5.85166,-2.28727 -6.30239,-2.78238 -0.4478,-0.49479 -3.29916,-3.66199 -6.33256,-7.03747 -6.43672,-7.16283 -12.09757,-11.117 -18.22473,-12.7325 -2.75206,-0.71814 -5.04074,-2.15132 -6.14857,-3.82603 -0.97349,-1.46888 -4.1899,-3.73573 -7.15711,-5.03672 -6.05414,-2.65616 -7.30799,-4.36282 -8.2552,-11.21691 -0.59383,-4.29208 -1.1312,-5.05414 -5.39898,-7.66563 -7.62926,-4.6659 -11.38304,-7.38127 -15.1008,-10.92282 -1.91973,-1.82816 -3.89007,-3.32418 -4.38071,-3.32418 -0.48675,0 -4.79542,-3.71244 -9.56942,-8.25106 -4.77497,-4.53669 -10.40078,-9.36363 -12.50352,-10.72575 -4.60559,-2.98243 -6.47469,-8.45399 -5.43987,-15.9216 0.37966,-2.7251 0.36993,-6.80846 0,-9.07242 -0.60357,-3.52414 -1.48165,-4.63084 -6.1291,-7.69086 -2.9857,-1.96602 -6.16415,-3.57468 -7.06463,-3.57468 -0.90534,0 -1.87494,-0.38793 -2.16602,-0.84425 -0.29204,-0.47555 -4.90736,-3.00572 -10.2567,-5.64051 -5.34933,-2.63394 -10.29954,-5.47359 -10.9985,-6.3095 -0.70092,-0.83463 -2.02681,-1.52712 -2.94968,-1.53578 -0.92482,-0.008 -2.69268,-0.58242 -3.93096,-1.27865 -9.78456,-5.48417 -14.57511,-8.63652 -20.1941,-13.28574 -13.97934,-11.56359 -14.29377,-11.76257 -28.0716,-17.67689 -4.67373,-2.00673 -21.69425,-10.36657 -30.41381,-14.94013 -4.25318,-2.22998 -9.81961,-4.33867 -12.3721,-4.6862 -4.73798,-0.65081 -14.9538,-4.77554 -16.01101,-6.47151 -0.74959,-1.2077 -14.62768,-8.1336 -16.29332,-8.1336 -0.69118,0 -4.49559,-1.54657 -8.44893,-3.43682 -7.83661,-3.74642 -13.37188,-9.44871 -15.05991,-15.51765 -0.53542,-1.91387 -1.68025,-4.18585 -2.55055,-5.04944 -2.38019,-2.36057 -13.18497,-2.03612 -18.96069,0.56746 -11.46481,5.17373 -16.10446,6.16331 -22.96271,4.89833 -3.53085,-0.65402 -11.05983,-1.47678 -16.73139,-1.83586 -9.55093,-0.607 -10.64903,-0.90516 -14.94796,-4.03955 -4.07114,-2.97206 -5.1449,-3.30121 -8.76337,-2.69474 -2.26824,0.37617 -17.11495,0.61662 -32.99162,0.52044 -28.71799,-0.16351 -28.89225,-0.15389 -33.51244,2.30479 -2.55444,1.3603 -7.06365,3.04901 -10.02111,3.75271 -6.06972,1.44505 -12.27281,4.33611 -14.04456,6.54557 -3.6652,4.56897 -14.6637,12.97316 -17.72338,13.54308 -1.89734,0.35907 -4.95897,1.74652 -6.80373,3.09592 -1.8438,1.35144 -3.94751,2.45525 -4.67374,2.45525 -0.73011,0 -2.84064,0.91264 -4.69612,2.04169 -1.85742,1.12424 -5.08065,2.04456 -7.16295,2.04649 -2.58072,0.003 -4.81294,0.85386 -7.00719,2.69111 -2.11929,1.76981 -4.87816,2.86295 -8.06927,3.19702 -2.93605,0.31098 -5.79811,1.36489 -7.25251,2.68042 -3.43545,3.1096 -12.98637,3.07849 -17.00105,-0.0962 -1.57316,-1.22608 -4.18114,-2.51831 -5.79714,-2.87064 -1.61599,-0.35908 -3.71873,-1.49614 -4.67275,-2.54364 -0.99005,-1.08342 -3.89494,-2.19792 -6.75701,-2.58724 -6.21185,-0.84424 -8.57159,-3.08726 -5.60049,-5.31435 1.57413,-1.18056 3.79661,-1.37762 10.00749,-0.88379 4.39336,0.34945 9.17807,1.0786 10.63539,1.62714 4.58417,1.73007 9.97634,1.09699 18.49633,-2.17078 4.53647,-1.74074 11.19223,-3.99306 14.79318,-5.00754 3.59997,-1.01416 7.05683,-2.35042 7.68084,-2.97078 0.62304,-0.61555 1.90026,-1.12488 2.83286,-1.12488 0.93455,0 3.97379,-2.10067 6.75311,-4.66642 2.78029,-2.5665 6.97506,-5.52104 9.32215,-6.5647 2.34806,-1.04408 4.57931,-2.39616 4.95799,-3.00465 0.37966,-0.60701 1.91389,-1.1081 3.40917,-1.1081 4.52965,0 33.24473,-30.00916 33.24473,-34.74185 0,-1.23035 -1.20908,-3.23772 -2.68587,-4.46135 -1.47776,-1.22265 -3.50164,-2.96608 -4.4985,-3.87401 -0.99685,-0.90516 -3.59121,-1.9812 -5.76501,-2.38558 -2.17381,-0.40502 -5.04366,-1.58654 -6.3754,-2.62624 -1.33368,-1.04088 -3.90954,-2.20477 -5.72607,-2.58691 -1.81557,-0.38579 -3.99813,-1.27749 -4.84896,-1.98793 -0.85668,-0.71281 -3.40236,-1.86964 -5.66962,-2.57634 -2.26921,-0.70319 -4.76621,-1.80123 -5.55084,-2.4309 -1.47484,-1.18321 -6.72001,-4.03858 -14.24218,-7.75283 -2.38116,-1.17553 -5.32403,-3.52157 -6.53894,-5.21412 l -2.20788,-3.07786 4.47514,-4.0434 c 4.86551,-4.39488 16.64865,-8.83784 20.75386,-7.82507 12.38475,3.05573 13.33196,3.43019 24.96129,9.86216 8.02449,4.4372 12.88707,5.2854 12.88707,2.24697 0,-1.56335 -7.84633,-8.35641 -9.65313,-8.35641 -0.92482,0 -9.55287,-5.98131 -10.82231,-7.49967 -0.92481,-1.09849 -0.70091,-2.02555 0.96376,-4.11852 1.17792,-1.48641 2.73551,-2.70234 3.45979,-2.70234 1.41156,0 9.10311,3.87305 13.74861,6.92195 6.80081,4.46317 15.87862,9.25378 28.60118,15.09178 2.8348,1.30057 7.71297,3.55438 10.8408,5.00808 3.12588,1.45274 6.25954,2.64259 6.96143,2.64259 0.70092,0 3.00906,0.9244 5.12543,2.04585 2.11637,1.12446 4.55692,2.04585 5.4243,2.04585 0.8664,0 3.24075,0.88592 5.27243,1.9639 2.03167,1.08116 5.65306,2.48774 8.04687,3.12786 9.47791,2.53209 25.85788,16.5146 25.85788,22.07337 0,4.38334 -3.3751,5.43469 -15.0823,4.69335 l -10.44362,-0.66364 -5.20039,-4.60284 c -9.22675,-8.16876 -10.9654,-9.13237 -18.39509,-10.19815 -10.11262,-1.44986 -9.64437,-1.6202 -9.64437,3.50137 0,6.9866 1.55271,9.36545 7.07922,10.84416 2.62746,0.70318 5.52554,1.91195 6.43868,2.68801 0.91508,0.77906 4.39433,1.84847 7.73341,2.38655 3.3381,0.5386 7.33526,1.49602 8.88213,2.12952 1.59361,0.65402 4.49753,0.85707 6.70152,0.47128 2.13973,-0.37617 7.85218,-1.18515 12.69627,-1.80711 12.15307,-1.55865 13.6649,-0.75127 19.15247,10.27809 3.45784,6.94707 5.04658,9.0082 8.54628,11.07809 l 4.29699,2.54257 5.88865,-2.33268 c 3.2388,-1.2824 6.97214,-3.27524 8.29609,-4.42854 2.14849,-1.8706 3.57368,-2.06787 13.20638,-1.83597 7.62244,0.18381 11.76756,0.75982 14.08837,1.95725 3.22517,1.66168 26.37869,3.75465 29.32253,2.6504 2.03751,-0.76944 1.50696,-5.33733 -1.1497,-9.89294 -1.34147,-2.29998 -2.74622,-5.86301 -3.12101,-7.91848 -0.88588,-4.81358 -7.00038,-12.39982 -15.09301,-18.70857 -3.63794,-2.83527 -7.00719,-6.4387 -7.81519,-8.35653 -0.78852,-1.85413 -2.51258,-4.42758 -3.84821,-5.71949 -2.41523,-2.3346 -2.71409,-3.52937 -5.73289,-22.90905 -1.22854,-7.8876 -3.82582,-12.12261 -10.08829,-16.44621 -16.07136,-11.09712 -15.48435,-10.8121 -23.3229,-11.31822 -8.0498,-0.51938 -11.90482,-2.37148 -19.78329,-9.50289 -5.49341,-4.97164 -11.40932,-8.20178 -23.19635,-12.66314 -5.3873,-2.03879 -10.31024,-4.0436 -10.93815,-4.45493 -0.63277,-0.41144 -2.48532,-1.65184 -4.12468,-2.75662 -3.41111,-2.29934 -35.44676,-34.4314 -35.4526,-35.55926 0,-0.40823 -1.11368,-1.46547 -2.4717,-2.34753 -2.9049,-1.88898 -4.50921,-9.38651 -2.71799,-12.70738 0.6133,-1.13718 3.66617,-3.26467 6.78427,-4.72788 4.57054,-2.14503 6.51168,-2.52558 10.02501,-1.96485 5.01737,0.80043 7.10259,1.99819 15.90685,9.12885 9.55676,7.74161 12.37988,9.78223 13.53639,9.78223 0.57436,0 2.3578,1.08779 3.96016,2.41742 1.60334,1.32931 4.07504,2.77362 5.49244,3.2092 1.41643,0.43602 3.64281,1.61764 4.94534,2.62657 1.30253,1.00882 3.67979,2.12023 5.28313,2.46957 1.60334,0.34946 3.98256,1.76212 5.28703,3.13942 1.30254,1.3774 2.81145,2.5042 3.35173,2.5042 0.54516,0 4.28823,3.1812 8.32725,7.06943 12.78681,12.31015 12.30688,12.0043 19.94294,12.71186 4.54231,0.41998 7.92811,1.35913 9.76412,2.70618 1.54688,1.13418 3.3858,2.06199 4.08574,2.06199 0.70091,0 2.92534,1.08159 4.9395,2.40364 9.89748,6.4932 13.92676,8.84821 15.13681,8.84821 0.73012,0 3.03243,1.15085 5.12154,2.55731 2.08911,1.40647 4.9356,2.55722 6.32769,2.55722 1.39015,0 3.70706,0.92011 5.1488,2.04585 1.44271,1.12519 3.31084,2.04574 4.15388,2.04574 2.00345,0 9.72421,4.73022 14.76105,9.04367 2.84746,2.43763 4.15584,4.48914 4.56665,7.15974 0.32125,2.05835 1.2227,5.81395 2.01221,8.34584 0.78852,2.53198 1.73086,6.37137 2.09397,8.53178 0.52569,3.13172 2.19328,5.41332 8.22406,11.25133 4.1607,4.028 9.58305,8.6068 12.04987,10.17506 2.46683,1.56827 6.57302,4.4372 9.12551,6.37512 2.55055,1.93802 6.2615,4.46798 8.24644,5.62225 1.98495,1.15436 5.69688,3.45049 8.2484,5.10254 2.55152,1.65205 8.3506,4.91853 12.88707,7.25986 4.53647,2.34038 9.35428,5.11602 10.70743,6.16727 1.35121,1.05156 3.20766,1.9129 4.12371,1.91579 0.91508,0.002 4.44886,1.38061 7.85121,3.06439 3.40138,1.68379 6.69275,3.06237 7.31384,3.06525 0.62303,0.002 1.92751,0.87524 2.90392,1.94764 0.97544,1.06953 3.44227,2.25564 5.48368,2.63501 2.04044,0.37617 5.97918,1.86866 8.75266,3.30794 6.19822,3.2155 12.80628,2.86306 21.42459,-1.1408 3.11907,-1.449 6.50195,-2.63895 7.51536,-2.64473 1.01535,-0.005 3.56687,-0.86561 5.67058,-1.92156 4.5832,-2.2894 10.57991,-3.24725 21.10724,-3.36854 8.77213,-0.0962 16.08402,2.55411 18.9383,6.87664 1.62476,2.46081 5.01737,3.76041 19.4523,7.45351 18.00472,4.60476 18.86139,4.72894 23.7639,3.42731 2.54081,-0.67326 5.95679,-1.22555 7.59225,-1.22555 5.36686,0 14.60529,5.76192 22.77386,14.20394 7.34986,7.59617 7.90864,8.51458 11.20488,18.43167 2.42692,7.30155 4.17531,10.89557 5.82148,11.96541 2.63037,1.71061 3.83945,4.31153 6.04733,13.01013 1.27819,5.04057 2.43859,6.84726 7.5504,11.76354 5.45934,5.25227 7.67305,6.85889 15.48532,11.24705 6.53115,3.66786 20.4404,2.63682 27.56149,-2.0435 3.7713,-2.47759 5.40774,-2.97667 8.11891,-2.47086 3.94556,0.72776 9.52075,6.03955 10.503,9.99671 0.36993,1.50575 1.56537,3.53279 2.64887,4.5056 1.08252,0.97141 1.96937,2.37071 1.96937,3.10863 0,2.56009 4.20646,3.73082 10.94302,3.04548 6.03272,-0.61128 6.57204,-0.48518 7.71978,1.6669 1.59166,2.99793 2.90393,3.82411 6.10379,3.84356 1.63547,0 4.49753,1.74448 7.71687,4.67648 l 5.11764,4.66193 13.05744,0.75769 c 12.1005,0.70852 13.33196,0.97355 16.8229,3.6154 2.07159,1.56698 3.59219,3.38242 3.37996,4.03581 -0.21416,0.65081 -2.12415,2.00759 -4.24636,3.01438 -5.17314,2.45236 -4.75551,5.20268 0.8664,5.65996 3.59997,0.29068 4.41479,-0.0962 7.28561,-3.49015 2.1115,-2.49597 4.81197,-4.28716 7.79377,-5.17158 10.58769,-3.14167 17.67374,-0.18489 24.8727,10.38591 2.67905,3.93279 6.49124,8.53361 8.47132,10.22092 1.98009,1.68731 6.62948,5.5997 10.33069,8.69572 7.06371,5.9017 8.82861,8.99762 8.82861,15.47885 0,2.89309 -0.7983,4.7998 -3.0159,7.26286 l -3.0149,3.34054 -17.86258,0 c -9.8235,0 -18.46032,0.13571 -19.19433,0.26182 -0.73012,0.11648 -3.51625,2.21544 -6.18556,4.6629 -5.32987,4.88625 -13.38551,9.87051 -15.95163,9.87051 -0.90535,0 -2.55152,-1.15054 -3.66714,-2.55721 -1.11465,-1.40679 -2.80366,-2.55722 -3.75184,-2.55722 -2.14363,0 -8.39539,6.46479 -10.88071,11.25197 -1.02217,1.96977 -3.32739,4.96192 -5.12251,6.64923 l -3.26314,3.06877 -4.09256,-4.60273 c -3.97477,-4.47064 -4.07601,-4.7735 -3.54838,-10.48595 l 0.54516,-5.88129 -3.07623,0 c -1.6929,0 -3.07721,0.39755 -3.07721,0.88379 0,1.53108 -10.28785,11.3287 -13.72428,13.06741 -1.80875,0.91264 -5.21694,3.41728 -7.57571,5.55706 -6.67717,6.05697 -10.89823,6.34626 -24.57968,1.68635 -5.86139,-1.99605 -7.68474,-3.16111 -9.70863,-6.20071 -2.43178,-3.65034 -6.36079,-5.05905 -7.77722,-2.78633 -0.33099,0.53434 -2.18549,0.69891 -4.1315,0.38793 -3.23393,-0.51403 -3.59997,-0.3206 -4.2561,2.3688 -0.39913,1.61646 -1.5128,4.08914 -2.48435,5.49593 -0.97349,1.40667 -2.32956,4.26867 -3.01198,6.36079 -1.71919,5.25611 -9.82739,11.53741 -16.86574,13.06357 -2.95552,0.64013 -9.78261,1.5378 -15.16991,1.99402 -5.3873,0.45632 -10.49034,1.10286 -11.3402,1.43884 -0.85667,0.33984 -4.01565,-0.24258 -7.0325,-1.27373 z"
           style="fill:#009ee0;fill-opacity:1;stroke:#000000;stroke-width:2.43039942;stroke-miterlimit:4;stroke-dasharray:none;stroke-opacity:1"
           inkscape:connector-curvature="0" />
      </g>
      <circle
         style="fill:none;stroke:#de2c68;stroke-width:1.06239557;stroke-miterlimit:4;stroke-dasharray:none;stroke-opacity:1"
         cx="74"
         cy="44"
         r="22"
         transform="matrix(1.5950476,0,0,1.6223254,-10.072136,-9.1778182)"
         stroke-miterlimit="4"
         id="circle12" />
      <polygon
         style="fill:#ffcc33;fill-opacity:1"
         points="26,56 31,56 37,50 31,44 26,44 30,48 22,48 22,52 30,52 "
         transform="matrix(1.4493674,0,0,1.3737988,-3.2256623,23.735403)"
         id="polygon16" />
      <polygon
         style="fill:#ffcc33;fill-opacity:1"
         points="73,41 64,50 73,59 81,59 75,53 88,53 88,47 75,47 81,41 "
         transform="matrix(1.5159598,0,0,1.568926,3.9178592,-18.504484)"
         id="polygon18" />
      <ellipse
         ry="32.616936"
         rx="32.271915"
         style="fill:none;stroke:#de2c68;stroke-width:1.56674218;stroke-miterlimit:4;stroke-dasharray:none;stroke-opacity:1"
         cx="42.507092"
         cy="27.305674"
         stroke-miterlimit="4"
         id="circle12-5" />
    </g>
    <g
       style="font-style:normal;font-weight:normal;font-size:40px;line-height:125%;font-family:sans-serif;letter-spacing:0px;word-spacing:0px;fill:#000000;fill-opacity:1;stroke:none;stroke-width:1px;stroke-linecap:butt;stroke-linejoin:miter;stroke-opacity:1"
       id="text3490">
      <path
         d="m -2390.8116,858.14064 q 1.8375,2.23125 3.9813,3.15 2.1875,0.91875 4.5937,0.91875 2.4938,0 4.4625,-0.875 2.0125,-0.91875 3.4125,-2.8 1.4,-1.925 2.1438,-4.85625 0.7437,-2.975 0.7437,-7.0875 0,-7.39375 -2.45,-10.675 -2.45,-3.325 -7.0437,-3.325 -3.1063,0 -5.425,1.44375 -2.3188,1.4 -4.4188,3.98125 l 0,20.125 z m 0,-27.7375 q 2.7125,-2.84375 5.9938,-4.50625 3.325,-1.70625 7.5687,-1.70625 3.8938,0 7,1.53125 3.15,1.53125 5.3375,4.41875 2.2313,2.84375 3.4125,6.9125 1.1813,4.06875 1.1813,9.14375 0,5.46875 -1.3563,9.93125 -1.3562,4.4625 -3.8937,7.65625 -2.4938,3.15 -6.0375,4.9 -3.5438,1.75 -7.875,1.75 -2.1,0 -3.8063,-0.4375 -1.7062,-0.39375 -3.15,-1.1375 -1.4437,-0.74375 -2.6687,-1.79375 -1.1813,-1.09375 -2.275,-2.40625 l -0.4813,3.01875 q -0.2625,1.1375 -0.9187,1.61875 -0.6125,0.48125 -1.7063,0.48125 l -7.1312,0 0,-65.0125 10.8062,0 0,25.6375 z"
         style="font-style:normal;font-variant:normal;font-weight:bold;font-stretch:normal;font-size:87.5px;font-family:Lato;-inkscape-font-specification:'Lato Bold'"
         id="path4155"
         inkscape:connector-curvature="0" />
      <path
         d="m -2332.0239,824.19064 q 4.9875,0 9.0563,1.61875 4.1125,1.61875 7,4.59375 2.9312,2.975 4.5062,7.2625 1.575,4.2875 1.575,9.58125 0,5.3375 -1.575,9.625 -1.575,4.2875 -4.5062,7.30625 -2.8875,3.01875 -7,4.6375 -4.0688,1.61875 -9.0563,1.61875 -5.0312,0 -9.1437,-1.61875 -4.1125,-1.61875 -7.0438,-4.6375 -2.8875,-3.01875 -4.5062,-7.30625 -1.575,-4.2875 -1.575,-9.625 0,-5.29375 1.575,-9.58125 1.6187,-4.2875 4.5062,-7.2625 2.9313,-2.975 7.0438,-4.59375 4.1125,-1.61875 9.1437,-1.61875 z m 0,37.93125 q 5.6,0 8.2688,-3.7625 2.7125,-3.7625 2.7125,-11.025 0,-7.2625 -2.7125,-11.06875 -2.6688,-3.80625 -8.2688,-3.80625 -5.6875,0 -8.4437,3.85 -2.7125,3.80625 -2.7125,11.025 0,7.21875 2.7125,11.025 2.7562,3.7625 8.4437,3.7625 z"
         style="font-style:normal;font-variant:normal;font-weight:bold;font-stretch:normal;font-size:87.5px;font-family:Lato;-inkscape-font-specification:'Lato Bold'"
         id="path4157"
         inkscape:connector-curvature="0" />
      <path
         d="m -2273.4672,836.35314 q -1.8375,-2.23125 -4.025,-3.15 -2.1438,-0.91875 -4.6375,-0.91875 -2.45,0 -4.4188,0.91875 -1.9687,0.91875 -3.3687,2.8 -1.4,1.8375 -2.1438,4.725 -0.7437,2.84375 -0.7437,6.7375 0,3.9375 0.6125,6.69375 0.6562,2.7125 1.8375,4.4625 1.1812,1.70625 2.8875,2.49375 1.7062,0.74375 3.8062,0.74375 3.3688,0 5.7313,-1.4 2.3625,-1.4 4.4625,-3.98125 l 0,-20.125 z m 10.8062,-31.5875 0,65.0125 -6.6062,0 q -2.1438,0 -2.7125,-1.96875 l -0.9188,-4.33125 q -2.7125,3.10625 -6.2562,5.03125 -3.5,1.925 -8.1813,1.925 -3.675,0 -6.7375,-1.53125 -3.0625,-1.53125 -5.2937,-4.41875 -2.1875,-2.93125 -3.4125,-7.21875 -1.1813,-4.2875 -1.1813,-9.8 0,-4.9875 1.3563,-9.275 1.3562,-4.2875 3.8937,-7.4375 2.5375,-3.15 6.0813,-4.9 3.5437,-1.79375 7.9625,-1.79375 3.7625,0 6.4312,1.18125 2.6688,1.18125 4.7688,3.19375 l 0,-23.66875 10.8062,0 z"
         style="font-style:normal;font-variant:normal;font-weight:bold;font-stretch:normal;font-size:87.5px;font-family:Lato;-inkscape-font-specification:'Lato Bold'"
         id="path4159"
         inkscape:connector-curvature="0" />
      <path
         d="m -2222.992,842.17189 q 0,-2.1 -0.6125,-3.9375 -0.5688,-1.88125 -1.75,-3.28125 -1.1813,-1.4 -3.0188,-2.1875 -1.7937,-0.83125 -4.2,-0.83125 -4.6812,0 -7.3937,2.66875 -2.6688,2.66875 -3.4125,7.56875 l 20.3875,0 z m -20.6063,6.51875 q 0.2625,3.45625 1.225,5.99375 0.9625,2.49375 2.5375,4.15625 1.575,1.61875 3.7188,2.45 2.1875,0.7875 4.8125,0.7875 2.625,0 4.5062,-0.6125 1.925,-0.6125 3.325,-1.35625 1.4438,-0.74375 2.4938,-1.35625 1.0937,-0.6125 2.1,-0.6125 1.3562,0 2.0125,1.00625 l 3.1062,3.9375 q -1.7937,2.1 -4.025,3.54375 -2.2312,1.4 -4.6812,2.275 -2.4063,0.83125 -4.9438,1.18125 -2.4937,0.35 -4.8562,0.35 -4.6813,0 -8.7063,-1.53125 -4.025,-1.575 -7,-4.59375 -2.975,-3.0625 -4.6812,-7.525 -1.7063,-4.50625 -1.7063,-10.4125 0,-4.59375 1.4875,-8.61875 1.4875,-4.06875 4.2438,-7.04375 2.8,-3.01875 6.7812,-4.76875 4.025,-1.75 9.0563,-1.75 4.2437,0 7.8312,1.35625 3.5875,1.35625 6.1688,3.98125 2.5812,2.58125 4.025,6.3875 1.4875,3.7625 1.4875,8.61875 0,2.45 -0.525,3.325 -0.525,0.83125 -2.0125,0.83125 l -27.7813,0 z"
         style="font-style:normal;font-variant:normal;font-weight:bold;font-stretch:normal;font-size:87.5px;font-family:Lato;-inkscape-font-specification:'Lato Bold'"
         id="path4161"
         inkscape:connector-curvature="0" />
      <path
         d="m -2195.1493,830.40314 q 1.3563,-1.35625 2.8438,-2.49375 1.5312,-1.18125 3.1937,-1.96875 1.7063,-0.83125 3.6313,-1.26875 1.925,-0.48125 4.2,-0.48125 3.675,0 6.5187,1.26875 2.8438,1.225 4.725,3.5 1.925,2.23125 2.8875,5.38125 1.0063,3.10625 1.0063,6.86875 l 0,28.56875 -10.8063,0 0,-28.56875 q 0,-4.1125 -1.8812,-6.34375 -1.8813,-2.275 -5.7313,-2.275 -2.8,0 -5.25,1.26875 -2.45,1.26875 -4.6375,3.45625 l 0,32.4625 -10.8062,0 0,-44.8875 6.6062,0 q 2.1,0 2.7563,1.96875 l 0.7437,3.54375 z"
         style="font-style:normal;font-variant:normal;font-weight:bold;font-stretch:normal;font-size:87.5px;font-family:Lato;-inkscape-font-specification:'Lato Bold'"
         id="path4163"
         inkscape:connector-curvature="0" />
      <path
         d="m -2128.4784,833.64064 q -0.4375,0.7 -0.9187,1.00625 -0.4813,0.2625 -1.225,0.2625 -0.7875,0 -1.7063,-0.4375 -0.875,-0.4375 -2.0562,-0.9625 -1.1813,-0.56875 -2.7125,-1.00625 -1.4875,-0.4375 -3.5438,-0.4375 -3.1937,0 -5.0312,1.35625 -1.7938,1.35625 -1.7938,3.54375 0,1.44375 0.9188,2.45 0.9625,0.9625 2.4937,1.70625 1.575,0.74375 3.5438,1.35625 1.9687,0.56875 3.9812,1.26875 2.0563,0.7 4.025,1.61875 1.9688,0.875 3.5,2.275 1.575,1.35625 2.4938,3.28125 0.9625,1.925 0.9625,4.6375 0,3.2375 -1.1813,5.99375 -1.1375,2.7125 -3.4125,4.725 -2.275,1.96875 -5.6437,3.10625 -3.325,1.09375 -7.7,1.09375 -2.3188,0 -4.55,-0.4375 -2.1875,-0.39375 -4.2438,-1.1375 -2.0125,-0.74375 -3.7625,-1.75 -1.7062,-1.00625 -3.0187,-2.1875 l 2.4937,-4.1125 q 0.4813,-0.74375 1.1375,-1.1375 0.6563,-0.39375 1.6625,-0.39375 1.0063,0 1.8813,0.56875 0.9187,0.56875 2.1,1.225 1.1812,0.65625 2.7562,1.225 1.6188,0.56875 4.0688,0.56875 1.925,0 3.2812,-0.4375 1.4,-0.48125 2.275,-1.225 0.9188,-0.74375 1.3125,-1.70625 0.4375,-1.00625 0.4375,-2.05625 0,-1.575 -0.9625,-2.58125 -0.9187,-1.00625 -2.4937,-1.75 -1.5313,-0.74375 -3.5438,-1.3125 -1.9687,-0.6125 -4.0687,-1.3125 -2.0563,-0.7 -4.0688,-1.61875 -1.9687,-0.9625 -3.5437,-2.40625 -1.5313,-1.44375 -2.4938,-3.54375 -0.9187,-2.1 -0.9187,-5.075 0,-2.75625 1.0937,-5.25 1.0938,-2.49375 3.1938,-4.33125 2.1437,-1.88125 5.2937,-2.975 3.1938,-1.1375 7.35,-1.1375 4.6375,0 8.4438,1.53125 3.8062,1.53125 6.3437,4.025 l -2.45,3.89375 z"
         style="font-style:normal;font-variant:normal;font-weight:bold;font-stretch:normal;font-size:87.5px;font-family:Lato;-inkscape-font-specification:'Lato Bold'"
         id="path4166"
         inkscape:connector-curvature="0" />
      <path
         d="m -2088.495,842.17189 q 0,-2.1 -0.6125,-3.9375 -0.5687,-1.88125 -1.75,-3.28125 -1.1812,-1.4 -3.0187,-2.1875 -1.7938,-0.83125 -4.2,-0.83125 -4.6813,0 -7.3938,2.66875 -2.6687,2.66875 -3.4125,7.56875 l 20.3875,0 z m -20.6062,6.51875 q 0.2625,3.45625 1.225,5.99375 0.9625,2.49375 2.5375,4.15625 1.575,1.61875 3.7187,2.45 2.1875,0.7875 4.8125,0.7875 2.625,0 4.5063,-0.6125 1.925,-0.6125 3.325,-1.35625 1.4437,-0.74375 2.4937,-1.35625 1.0938,-0.6125 2.1,-0.6125 1.3563,0 2.0125,1.00625 l 3.1063,3.9375 q -1.7938,2.1 -4.025,3.54375 -2.2313,1.4 -4.6813,2.275 -2.4062,0.83125 -4.9437,1.18125 -2.4938,0.35 -4.8563,0.35 -4.6812,0 -8.7062,-1.53125 -4.025,-1.575 -7,-4.59375 -2.975,-3.0625 -4.6813,-7.525 -1.7062,-4.50625 -1.7062,-10.4125 0,-4.59375 1.4875,-8.61875 1.4875,-4.06875 4.2437,-7.04375 2.8,-3.01875 6.7813,-4.76875 4.025,-1.75 9.0562,-1.75 4.2438,0 7.8313,1.35625 3.5875,1.35625 6.1687,3.98125 2.5813,2.58125 4.025,6.3875 1.4875,3.7625 1.4875,8.61875 0,2.45 -0.525,3.325 -0.525,0.83125 -2.0125,0.83125 l -27.7812,0 z"
         style="font-style:normal;font-variant:normal;font-weight:bold;font-stretch:normal;font-size:87.5px;font-family:Lato;-inkscape-font-specification:'Lato Bold'"
         id="path4168"
         inkscape:connector-curvature="0" />
      <path
         d="m -2041.8397,842.17189 q 0,-2.1 -0.6125,-3.9375 -0.5687,-1.88125 -1.75,-3.28125 -1.1812,-1.4 -3.0187,-2.1875 -1.7938,-0.83125 -4.2,-0.83125 -4.6813,0 -7.3938,2.66875 -2.6687,2.66875 -3.4125,7.56875 l 20.3875,0 z m -20.6062,6.51875 q 0.2625,3.45625 1.225,5.99375 0.9625,2.49375 2.5375,4.15625 1.575,1.61875 3.7187,2.45 2.1875,0.7875 4.8125,0.7875 2.625,0 4.5063,-0.6125 1.925,-0.6125 3.325,-1.35625 1.4437,-0.74375 2.4937,-1.35625 1.0938,-0.6125 2.1,-0.6125 1.3563,0 2.0125,1.00625 l 3.1063,3.9375 q -1.7938,2.1 -4.025,3.54375 -2.2313,1.4 -4.6813,2.275 -2.4062,0.83125 -4.9437,1.18125 -2.4938,0.35 -4.8563,0.35 -4.6812,0 -8.7062,-1.53125 -4.025,-1.575 -7,-4.59375 -2.975,-3.0625 -4.6813,-7.525 -1.7062,-4.50625 -1.7062,-10.4125 0,-4.59375 1.4875,-8.61875 1.4875,-4.06875 4.2437,-7.04375 2.8,-3.01875 6.7813,-4.76875 4.025,-1.75 9.0562,-1.75 4.2438,0 7.8313,1.35625 3.5875,1.35625 6.1687,3.98125 2.5813,2.58125 4.025,6.3875 1.4875,3.7625 1.4875,8.61875 0,2.45 -0.525,3.325 -0.525,0.83125 -2.0125,0.83125 l -27.7812,0 z"
         style="font-style:normal;font-variant:normal;font-weight:bold;font-stretch:normal;font-size:87.5px;font-family:Lato;-inkscape-font-specification:'Lato Bold'"
         id="path4170"
         inkscape:connector-curvature="0" />
      <path
         d="m -2025.6782,863.82814 q 0,-1.35625 0.4813,-2.58125 0.525,-1.225 1.4,-2.1 0.875,-0.875 2.1,-1.4 1.225,-0.525 2.625,-0.525 1.4,0 2.5812,0.525 1.225,0.525 2.1,1.4 0.9188,0.875 1.4438,2.1 0.525,1.225 0.525,2.58125 0,1.4 -0.525,2.625 -0.525,1.18125 -1.4438,2.05625 -0.875,0.875 -2.1,1.35625 -1.1812,0.525 -2.5812,0.525 -1.4,0 -2.625,-0.525 -1.225,-0.48125 -2.1,-1.35625 -0.875,-0.875 -1.4,-2.05625 -0.4813,-1.225 -0.4813,-2.625 z"
         style="font-style:normal;font-variant:normal;font-weight:bold;font-stretch:normal;font-size:87.5px;font-family:Lato;-inkscape-font-specification:'Lato Bold'"
         id="path4172"
         inkscape:connector-curvature="0" />
      <path
         d="m -2000.1036,869.77814 0,-36.75 -3.8937,-0.6125 q -1.2688,-0.2625 -2.0563,-0.875 -0.7437,-0.65625 -0.7437,-1.8375 l 0,-4.41875 6.6937,0 0,-3.325 q 0,-3.85 1.1375,-6.9125 1.1813,-3.0625 3.325,-5.20625 2.1875,-2.14375 5.2938,-3.28125 3.1062,-1.1375 7,-1.1375 3.1062,0 5.775,0.83125 l -0.2188,5.425 q -0.044,0.6125 -0.35,1.00625 -0.3062,0.35 -0.8312,0.56875 -0.4813,0.175 -1.1375,0.2625 -0.6563,0.0438 -1.4,0.0438 -1.925,0 -3.4563,0.4375 -1.4875,0.39375 -2.5375,1.44375 -1.05,1.00625 -1.6187,2.7125 -0.525,1.6625 -0.525,4.15625 l 0,2.975 11.6812,0 0,7.7 -11.3312,0 0,36.79375 -10.8063,0 z"
         style="font-style:normal;font-variant:normal;font-weight:bold;font-stretch:normal;font-size:87.5px;font-family:Lato;-inkscape-font-specification:'Lato Bold';fill:#dc0067;fill-opacity:1"
         id="path4174"
         inkscape:connector-curvature="0" />
      <path
         d="m -1961.6145,832.67814 q 2.1,-4.025 4.9875,-6.3 2.8875,-2.31875 6.825,-2.31875 3.1062,0 4.9875,1.35625 l -0.7,8.09375 q -0.2188,0.7875 -0.6563,1.1375 -0.3937,0.30625 -1.0937,0.30625 -0.6563,0 -1.9688,-0.21875 -1.2687,-0.21875 -2.4937,-0.21875 -1.7938,0 -3.1938,0.525 -1.4,0.525 -2.5375,1.53125 -1.0937,0.9625 -1.9687,2.3625 -0.8313,1.4 -1.575,3.19375 l 0,27.65 -10.8063,0 0,-44.8875 6.3438,0 q 1.6625,0 2.3187,0.6125 0.6563,0.56875 0.875,2.1 l 0.6563,5.075 z"
         style="font-style:normal;font-variant:normal;font-weight:bold;font-stretch:normal;font-size:87.5px;font-family:Lato;-inkscape-font-specification:'Lato Bold';fill:#dc0067;fill-opacity:1"
         id="path4176"
         inkscape:connector-curvature="0" />
      <path
         d="m -1911.4442,842.17189 q 0,-2.1 -0.6125,-3.9375 -0.5687,-1.88125 -1.75,-3.28125 -1.1812,-1.4 -3.0187,-2.1875 -1.7938,-0.83125 -4.2,-0.83125 -4.6813,0 -7.3938,2.66875 -2.6687,2.66875 -3.4125,7.56875 l 20.3875,0 z m -20.6062,6.51875 q 0.2625,3.45625 1.225,5.99375 0.9625,2.49375 2.5375,4.15625 1.575,1.61875 3.7187,2.45 2.1875,0.7875 4.8125,0.7875 2.625,0 4.5063,-0.6125 1.925,-0.6125 3.325,-1.35625 1.4437,-0.74375 2.4937,-1.35625 1.0938,-0.6125 2.1,-0.6125 1.3563,0 2.0125,1.00625 l 3.1063,3.9375 q -1.7938,2.1 -4.025,3.54375 -2.2313,1.4 -4.6813,2.275 -2.4062,0.83125 -4.9437,1.18125 -2.4938,0.35 -4.8563,0.35 -4.6812,0 -8.7062,-1.53125 -4.025,-1.575 -7,-4.59375 -2.975,-3.0625 -4.6813,-7.525 -1.7062,-4.50625 -1.7062,-10.4125 0,-4.59375 1.4875,-8.61875 1.4875,-4.06875 4.2437,-7.04375 2.8,-3.01875 6.7813,-4.76875 4.025,-1.75 9.0562,-1.75 4.2438,0 7.8313,1.35625 3.5875,1.35625 6.1687,3.98125 2.5813,2.58125 4.025,6.3875 1.4875,3.7625 1.4875,8.61875 0,2.45 -0.525,3.325 -0.525,0.83125 -2.0125,0.83125 l -27.7812,0 z"
         style="font-style:normal;font-variant:normal;font-weight:bold;font-stretch:normal;font-size:87.5px;font-family:Lato;-inkscape-font-specification:'Lato Bold';fill:#dc0067;fill-opacity:1"
         id="path4178"
         inkscape:connector-curvature="0" />
      <path
         d="m -1882.5077,824.89064 0,44.8875 -10.85,0 0,-44.8875 10.85,0 z m 1.4875,-13.08125 q 0,1.4 -0.5687,2.625 -0.5688,1.225 -1.5313,2.14375 -0.9187,0.91875 -2.1875,1.4875 -1.2687,0.525 -2.7125,0.525 -1.4,0 -2.6687,-0.525 -1.225,-0.56875 -2.1438,-1.4875 -0.9187,-0.91875 -1.4875,-2.14375 -0.525,-1.225 -0.525,-2.625 0,-1.44375 0.525,-2.7125 0.5688,-1.26875 1.4875,-2.1875 0.9188,-0.91875 2.1438,-1.44375 1.2687,-0.56875 2.6687,-0.56875 1.4438,0 2.7125,0.56875 1.2688,0.525 2.1875,1.44375 0.9625,0.91875 1.5313,2.1875 0.5687,1.26875 0.5687,2.7125 z"
         style="font-style:normal;font-variant:normal;font-weight:bold;font-stretch:normal;font-size:87.5px;font-family:Lato;-inkscape-font-specification:'Lato Bold';fill:#dc0067;fill-opacity:1"
         id="path4180"
         inkscape:connector-curvature="0" />
      <path
         d="m -1868.3409,869.77814 0,-36.75 -3.8937,-0.6125 q -1.2688,-0.2625 -2.0563,-0.875 -0.7437,-0.65625 -0.7437,-1.8375 l 0,-4.41875 6.6937,0 0,-3.325 q 0,-3.85 1.1375,-6.9125 1.1813,-3.0625 3.325,-5.20625 2.1875,-2.14375 5.2938,-3.28125 3.1062,-1.1375 7,-1.1375 3.1062,0 5.775,0.83125 l -0.2188,5.425 q -0.044,0.6125 -0.35,1.00625 -0.3062,0.35 -0.8312,0.56875 -0.4813,0.175 -1.1375,0.2625 -0.6563,0.0438 -1.4,0.0438 -1.925,0 -3.4563,0.4375 -1.4875,0.39375 -2.5375,1.44375 -1.05,1.00625 -1.6187,2.7125 -0.525,1.6625 -0.525,4.15625 l 0,2.975 11.6812,0 0,7.7 -11.3312,0 0,36.79375 -10.8063,0 z"
         style="font-style:normal;font-variant:normal;font-weight:bold;font-stretch:normal;font-size:87.5px;font-family:Lato;-inkscape-font-specification:'Lato Bold';fill:#dc0067;fill-opacity:1"
         id="path4182"
         inkscape:connector-curvature="0" />
      <path
         d="m -1801.3706,824.89064 0,44.8875 -6.6062,0 q -2.1438,0 -2.7125,-1.96875 l -0.7438,-3.5875 q -2.7562,2.8 -6.0812,4.55 -3.325,1.70625 -7.8313,1.70625 -3.675,0 -6.5187,-1.225 -2.8,-1.26875 -4.725,-3.54375 -1.925,-2.275 -2.9313,-5.38125 -0.9625,-3.15 -0.9625,-6.9125 l 0,-28.525 10.8063,0 0,28.525 q 0,4.1125 1.8812,6.3875 1.925,2.23125 5.7313,2.23125 2.8,0 5.25,-1.225 2.45,-1.26875 4.6375,-3.45625 l 0,-32.4625 10.8062,0 z"
         style="font-style:normal;font-variant:normal;font-weight:bold;font-stretch:normal;font-size:87.5px;font-family:Lato;-inkscape-font-specification:'Lato Bold';fill:#dc0067;fill-opacity:1"
         id="path4184"
         inkscape:connector-curvature="0" />
      <path
         d="m -1780.5497,830.40314 q 1.3563,-1.35625 2.8438,-2.49375 1.5312,-1.18125 3.1937,-1.96875 1.7063,-0.83125 3.6313,-1.26875 1.925,-0.48125 4.2,-0.48125 3.675,0 6.5187,1.26875 2.8438,1.225 4.725,3.5 1.925,2.23125 2.8875,5.38125 1.0063,3.10625 1.0063,6.86875 l 0,28.56875 -10.8063,0 0,-28.56875 q 0,-4.1125 -1.8812,-6.34375 -1.8813,-2.275 -5.7313,-2.275 -2.8,0 -5.25,1.26875 -2.45,1.26875 -4.6375,3.45625 l 0,32.4625 -10.8062,0 0,-44.8875 6.6062,0 q 2.1,0 2.7563,1.96875 l 0.7437,3.54375 z"
         style="font-style:normal;font-variant:normal;font-weight:bold;font-stretch:normal;font-size:87.5px;font-family:Lato;-inkscape-font-specification:'Lato Bold';fill:#dc0067;fill-opacity:1"
         id="path4186"
         inkscape:connector-curvature="0" />
      <path
         d="m -1730.46,804.76564 0,37.23125 2.0125,0 q 1.0937,0 1.7062,-0.2625 0.6563,-0.30625 1.3125,-1.18125 l 11.1563,-13.78125 q 0.7,-0.91875 1.5312,-1.4 0.875,-0.48125 2.2313,-0.48125 l 9.8875,0 -13.9563,16.66875 q -1.4875,1.96875 -3.2375,3.01875 0.9188,0.65625 1.6188,1.53125 0.7437,0.875 1.4,1.88125 l 14.9625,21.7875 -9.7563,0 q -1.2687,0 -2.1875,-0.39375 -0.9187,-0.4375 -1.5312,-1.53125 l -11.4625,-17.01875 q -0.6125,-1.00625 -1.2688,-1.3125 -0.6562,-0.30625 -1.9687,-0.30625 l -2.45,0 0,20.5625 -10.8063,0 0,-65.0125 10.8063,0 z"
         style="font-style:normal;font-variant:normal;font-weight:bold;font-stretch:normal;font-size:87.5px;font-family:Lato;-inkscape-font-specification:'Lato Bold';fill:#dc0067;fill-opacity:1"
         id="path4188"
         inkscape:connector-curvature="0" />
      <path
         d="m -1696.0151,863.82814 q 0,-1.35625 0.4813,-2.58125 0.525,-1.225 1.4,-2.1 0.875,-0.875 2.1,-1.4 1.225,-0.525 2.625,-0.525 1.4,0 2.5812,0.525 1.225,0.525 2.1,1.4 0.9188,0.875 1.4438,2.1 0.525,1.225 0.525,2.58125 0,1.4 -0.525,2.625 -0.525,1.18125 -1.4438,2.05625 -0.875,0.875 -2.1,1.35625 -1.1812,0.525 -2.5812,0.525 -1.4,0 -2.625,-0.525 -1.225,-0.48125 -2.1,-1.35625 -0.875,-0.875 -1.4,-2.05625 -0.4813,-1.225 -0.4813,-2.625 z"
         style="font-style:normal;font-variant:normal;font-weight:bold;font-stretch:normal;font-size:87.5px;font-family:Lato;-inkscape-font-specification:'Lato Bold'"
         id="path4190"
         inkscape:connector-curvature="0" />
      <path
         d="m -1663.4842,830.40314 q 1.3562,-1.35625 2.8437,-2.49375 1.5313,-1.18125 3.1938,-1.96875 1.7062,-0.83125 3.6312,-1.26875 1.925,-0.48125 4.2,-0.48125 3.675,0 6.5188,1.26875 2.8437,1.225 4.725,3.5 1.925,2.23125 2.8875,5.38125 1.0062,3.10625 1.0062,6.86875 l 0,28.56875 -10.8062,0 0,-28.56875 q 0,-4.1125 -1.8813,-6.34375 -1.8812,-2.275 -5.7312,-2.275 -2.8,0 -5.25,1.26875 -2.45,1.26875 -4.6375,3.45625 l 0,32.4625 -10.8063,0 0,-44.8875 6.6063,0 q 2.1,0 2.7562,1.96875 l 0.7438,3.54375 z"
         style="font-style:normal;font-variant:normal;font-weight:bold;font-stretch:normal;font-size:87.5px;font-family:Lato;-inkscape-font-specification:'Lato Bold'"
         id="path4192"
         inkscape:connector-curvature="0" />
      <path
         d="m -1595.2821,842.17189 q 0,-2.1 -0.6125,-3.9375 -0.5687,-1.88125 -1.75,-3.28125 -1.1812,-1.4 -3.0187,-2.1875 -1.7938,-0.83125 -4.2,-0.83125 -4.6813,0 -7.3938,2.66875 -2.6687,2.66875 -3.4125,7.56875 l 20.3875,0 z m -20.6062,6.51875 q 0.2625,3.45625 1.225,5.99375 0.9625,2.49375 2.5375,4.15625 1.575,1.61875 3.7187,2.45 2.1875,0.7875 4.8125,0.7875 2.625,0 4.5063,-0.6125 1.925,-0.6125 3.325,-1.35625 1.4437,-0.74375 2.4937,-1.35625 1.0938,-0.6125 2.1,-0.6125 1.3563,0 2.0125,1.00625 l 3.1063,3.9375 q -1.7938,2.1 -4.025,3.54375 -2.2313,1.4 -4.6813,2.275 -2.4062,0.83125 -4.9437,1.18125 -2.4938,0.35 -4.8563,0.35 -4.6812,0 -8.7062,-1.53125 -4.025,-1.575 -7,-4.59375 -2.975,-3.0625 -4.6813,-7.525 -1.7062,-4.50625 -1.7062,-10.4125 0,-4.59375 1.4875,-8.61875 1.4875,-4.06875 4.2437,-7.04375 2.8,-3.01875 6.7813,-4.76875 4.025,-1.75 9.0562,-1.75 4.2438,0 7.8313,1.35625 3.5875,1.35625 6.1687,3.98125 2.5813,2.58125 4.025,6.3875 1.4875,3.7625 1.4875,8.61875 0,2.45 -0.525,3.325 -0.525,0.83125 -2.0125,0.83125 l -27.7812,0 z"
         style="font-style:normal;font-variant:normal;font-weight:bold;font-stretch:normal;font-size:87.5px;font-family:Lato;-inkscape-font-specification:'Lato Bold'"
         id="path4194"
         inkscape:connector-curvature="0" />
      <path
         d="m -1563.0958,870.47814 q -5.8625,0 -9.0125,-3.28125 -3.1062,-3.325 -3.1062,-9.14375 l 0,-25.06875 -4.5938,0 q -0.875,0 -1.4875,-0.56875 -0.6125,-0.56875 -0.6125,-1.70625 l 0,-4.2875 7.2188,-1.18125 2.275,-12.25 q 0.2187,-0.875 0.8312,-1.35625 0.6125,-0.48125 1.575,-0.48125 l 5.6,0 0,14.13125 11.9875,0 0,7.7 -11.9875,0 0,24.325 q 0,2.1 1.0063,3.28125 1.05,1.18125 2.8437,1.18125 1.0063,0 1.6625,-0.21875 0.7,-0.2625 1.1813,-0.525 0.525,-0.2625 0.9187,-0.48125 0.3938,-0.2625 0.7875,-0.2625 0.4813,0 0.7875,0.2625 0.3063,0.21875 0.6563,0.7 l 3.2375,5.25 q -2.3625,1.96875 -5.425,2.975 -3.0625,1.00625 -6.3438,1.00625 z"
         style="font-style:normal;font-variant:normal;font-weight:bold;font-stretch:normal;font-size:87.5px;font-family:Lato;-inkscape-font-specification:'Lato Bold'"
         id="path4196"
         inkscape:connector-curvature="0" />
    </g>
    <text
       xml:space="preserve"
       style="font-style:normal;font-weight:normal;font-size:40px;line-height:125%;font-family:sans-serif;letter-spacing:0px;word-spacing:0px;fill:#000000;fill-opacity:1;stroke:none;stroke-width:1px;stroke-linecap:butt;stroke-linejoin:miter;stroke-opacity:1"
       x="-2335.7144"
       y="802.36218"
       id="text3494"
       sodipodi:linespacing="125%"><tspan
         sodipodi:role="line"
         id="tspan3496"
         x="-2335.7144"
         y="802.36218" /></text>
  </g>
</svg>
