<?xml version="1.0" encoding="UTF-8" standalone="no"?>
<svg
   xmlns:osb="http://www.openswatchbook.org/uri/2009/osb"
   xmlns:dc="http://purl.org/dc/elements/1.1/"
   xmlns:cc="http://creativecommons.org/ns#"
   xmlns:rdf="http://www.w3.org/1999/02/22-rdf-syntax-ns#"
   xmlns:svg="http://www.w3.org/2000/svg"
   xmlns="http://www.w3.org/2000/svg"
   xmlns:sodipodi="http://sodipodi.sourceforge.net/DTD/sodipodi-0.dtd"
   xmlns:inkscape="http://www.inkscape.org/namespaces/inkscape"
   version="1.1"
   id="svg2"
   viewBox="0 0 744.09448819 1052.3622047"
   height="297mm"
   width="210mm"
   inkscape:version="0.91 r13725"
   sodipodi:docname="vorschlag 03.svg">
  <sodipodi:namedview
     pagecolor="#ffffff"
     bordercolor="#666666"
     borderopacity="1"
     objecttolerance="10"
     gridtolerance="10"
     guidetolerance="10"
     inkscape:pageopacity="0"
     inkscape:pageshadow="2"
     inkscape:window-width="1680"
     inkscape:window-height="987"
     id="namedview4162"
     showgrid="false"
     inkscape:zoom="0.31714784"
     inkscape:cx="-375.29526"
     inkscape:cy="438.11599"
     inkscape:window-x="-8"
     inkscape:window-y="-8"
     inkscape:window-maximized="1"
     inkscape:current-layer="g4846" />
  <defs
     id="defs4">
    <linearGradient
       osb:paint="solid"
       id="linearGradient5754">
      <stop
         id="stop5756"
         offset="0"
         style="stop-color:#000000;stop-opacity:1;" />
    </linearGradient>
    <style
       type="text/css"
       id="style3858"><![CDATA[
    .fil0 {fill:#495677}
   ]]></style>
  </defs>
  <metadata
     id="metadata7">
    <rdf:RDF>
      <cc:Work
         rdf:about="">
        <dc:format>image/svg+xml</dc:format>
        <dc:type
           rdf:resource="http://purl.org/dc/dcmitype/StillImage" />
        <dc:title></dc:title>
      </cc:Work>
    </rdf:RDF>
  </metadata>
  <g
     id="g4846"
     transform="translate(1273.8539,879.71591)"
     inkscape:export-xdpi="52.298561"
     inkscape:export-ydpi="52.298561">
    <g
       transform="matrix(1.2012595,0,0,1.0334517,-1685.7872,-737.80785)"
       id="layer4" />
    <g
       id="g4168"
       inkscape:export-xdpi="52"
       inkscape:export-ydpi="52">
      <g
         id="layer5"
         transform="translate(-1355.5852,-856.15908)">
        <rect
           y="-207.53676"
           x="-39.899006"
           height="1299.798"
           width="1299.7981"
           id="rect4195"
           style="fill:#ffffff;fill-opacity:1;stroke:none;stroke-width:0.20198619;stroke-miterlimit:4;stroke-dasharray:none;stroke-opacity:1" />
      </g>
      <g
         id="layer1"
         transform="translate(-1342.2077,-838.32243)">
        <ellipse
           ry="450.00021"
           rx="450.00043"
           cy="402.36288"
           cx="617.99939"
           id="path4136"
           style="fill:#000000;fill-opacity:0;stroke:#dc0067;stroke-width:100;stroke-miterlimit:4;stroke-dasharray:none;stroke-opacity:1" />
        <ellipse
           ry="349.99994"
           rx="349.99985"
           cy="402.36288"
           cx="617.99939"
           id="circle4140"
           style="fill:#000000;fill-opacity:0;stroke:#dc0067;stroke-width:20;stroke-miterlimit:4;stroke-dasharray:none;stroke-opacity:1" />
        <ellipse
           ry="369.75211"
           rx="382.36441"
           cy="687.77563"
           cx="63.624191"
           id="circle4140-7"
           style="fill:#000000;fill-opacity:0;stroke:#dc0067;stroke-width:21.48602867;stroke-miterlimit:4;stroke-dasharray:none;stroke-opacity:1" />
      </g>
      <text
         transform="matrix(1.062945,0,0,1.1679285,-1685.7872,-737.80785)"
         id="text4186"
         y="949.77924"
         x="62.798134"
         style="font-style:normal;font-variant:normal;font-weight:normal;font-stretch:condensed;font-size:154.41674805px;line-height:125%;font-family:Impact;-inkscape-font-specification:'Impact Condensed';letter-spacing:0px;word-spacing:0px;fill:#000000;fill-opacity:1;stroke:none;stroke-width:1px;stroke-linecap:butt;stroke-linejoin:miter;stroke-opacity:1"
         xml:space="preserve"
         sodipodi:linespacing="125%"><tspan
           style="font-style:normal;font-variant:normal;font-weight:normal;font-stretch:condensed;font-size:194.08528137px;font-family:'AlternateGothic2 BT';-inkscape-font-specification:'AlternateGothic2 BT Condensed'"
           y="949.77924"
           x="62.798134"
           id="tspan4188">bodensee.<tspan
   id="tspan4151"
   style="font-size:194.08528137px;fill:#dc0060;fill-opacity:1">freifunk</tspan>.net</tspan></text>
      <g
         transform="translate(184.20553,1046.567)"
         id="g5858">
        <g
           id="g5827"
           transform="translate(642.11931,-1627.5941)">
          <polygon
             style="fill:#ffcc33;fill-opacity:1"
             points="81,59 75,53 88,53 88,47 75,47 81,41 73,41 64,50 73,59 "
             transform="matrix(9.0595579,0,0,9.4712128,-2120.0262,-500.06567)"
             id="polygon5366"
             inkscape:transform-center-x="917.72494"
             inkscape:transform-center-y="7.661459" />
          <polygon
             style="fill:#ffcc33;fill-opacity:1"
             points="73,41 64,50 73,59 81,59 75,53 88,53 88,47 75,47 81,41 "
             transform="matrix(-12.864655,0,0,13.187181,-1144.6971,-77.249912)"
             id="polygon5366-7"
             inkscape:transform-center-x="-1303.1777"
             inkscape:transform-center-y="10.667374" />
        </g>
      </g>
      <g
         id="layer2"
         transform="translate(-1339.8197,-834.08735)">
        <path
           id="path4165"
           d="m 778.8155,591.04276 c -3.099,-1.06555 -6.011,-2.35599 -6.474,-2.86598 -0.46,-0.50965 -3.389,-3.77202 -6.505,-7.24892 -6.612,-7.37804 -12.427,-11.45102 -18.721,-13.11506 -2.827,-0.73972 -5.178,-2.21596 -6.316,-3.94099 -1,-1.51301 -4.304,-3.84797 -7.352,-5.18805 -6.219,-2.73597 -7.507,-4.49391 -8.48,-11.55394 -0.61,-4.42104 -1.162,-5.206 -5.546,-7.89596 -7.837,-4.80609 -11.693,-7.60304 -15.512,-11.25101 -1.972,-1.88309 -3.996,-3.42406 -4.5,-3.42406 -0.5,0 -4.926,-3.82398 -9.83,-8.49897 -4.905,-4.673 -10.684,-9.64497 -12.844,-11.04802 -4.731,-3.07204 -6.651,-8.708 -5.588,-16.39998 0.39,-2.80698 0.38,-7.01303 0,-9.34502 -0.62,-3.63002 -1.522,-4.76998 -6.296,-7.92194 -3.067,-2.02509 -6.332,-3.68209 -7.257,-3.68209 -0.93,0 -1.926,-0.39958 -2.225,-0.86961 -0.3,-0.48984 -5.041,-3.09603 -10.536,-5.80999 -5.495,-2.71308 -10.58,-5.63805 -11.298,-6.49908 -0.72,-0.8597 -2.082,-1.573 -3.03,-1.58192 -0.95,-0.008 -2.766,-0.59992 -4.038,-1.31707 -10.051,-5.64895 -14.972,-8.89602 -20.744,-13.68493 -14.36,-11.91103 -14.683,-12.11599 -28.836,-18.20801 -4.801,-2.06703 -22.285,-10.67805 -31.242,-15.38903 -4.369,-2.29698 -10.087,-4.46903 -12.709,-4.827 -4.867,-0.67037 -15.361,-4.91903 -16.447,-6.66596 -0.77,-1.24398 -15.026,-8.37798 -16.737,-8.37798 -0.71,0 -4.618,-1.59304 -8.679,-3.54009 -8.05,-3.85898 -13.736,-9.7326 -15.47,-15.98389 -0.55,-1.97138 -1.726,-4.31162 -2.62,-5.20116 -2.445,-2.4315 -13.544,-2.0973 -19.477,0.58451 -11.777,5.32918 -16.543,6.34849 -23.588,5.04551 -3.627,-0.67368 -11.361,-1.52116 -17.187,-1.89102 -9.811,-0.62524 -10.939,-0.93236 -15.355,-4.16093 -4.182,-3.06136 -5.285,-3.4004 -9.002,-2.77571 -2.33,0.38748 -17.581,0.63515 -33.89,0.53608 -29.5,-0.16842 -29.679,-0.15851 -34.425,2.37404 -2.624,1.40117 -7.256,3.14062 -10.294,3.86547 -6.235,1.48847 -12.607,4.46639 -14.427,6.74224 -3.765,4.70625 -15.063,13.36295 -18.206,13.95 -1.949,0.36986 -5.094,1.79899 -6.989,3.18894 -1.894,1.39204 -4.055,2.52902 -4.801,2.52902 -0.75,0 -2.918,0.94006 -4.824,2.10303 -1.908,1.15802 -5.219,2.106 -7.358,2.10798 -2.651,0.003 -4.944,0.87952 -7.198,2.77197 -2.177,1.82299 -5.011,2.94897 -8.289,3.29308 -3.016,0.32032 -5.956,1.4059 -7.45,2.76096 -3.529,3.20303 -13.34,3.17099 -17.464,-0.0991 -1.616,-1.26292 -4.295,-2.59398 -5.955,-2.9569 -1.66,-0.36986 -3.82,-1.54109 -4.8,-2.62006 -1.017,-1.11597 -4.001,-2.26396 -6.941,-2.66498 -6.381,-0.86961 -8.805,-3.18002 -5.753,-5.47403 1.617,-1.21603 3.9,-1.41901 10.28,-0.91034 4.513,0.35995 9.428,1.11101 10.925,1.67603 4.709,1.78205 10.248,1.12995 19,-2.236 4.66,-1.79305 11.497,-4.11304 15.196,-5.158 3.698,-1.04464 7.249,-2.42104 7.89,-3.06004 0.64,-0.63405 1.952,-1.15868 2.91,-1.15868 0.96,0 4.082,-2.16379 6.937,-4.80663 2.856,-2.64362 7.165,-5.68693 9.576,-6.76195 2.412,-1.07545 4.704,-2.46815 5.093,-3.09493 0.39,-0.62524 1.966,-1.14139 3.502,-1.14139 4.653,0 34.15,-30.91082 34.15,-35.78571 0,-1.26732 -1.242,-3.33501 -2.759,-4.5954 -1.518,-1.25939 -3.597,-3.0552 -4.621,-3.99041 -1.024,-0.93236 -3.689,-2.04073 -5.922,-2.45726 -2.233,-0.41719 -5.181,-1.63421 -6.549,-2.70515 -1.37,-1.07215 -4.016,-2.27101 -5.882,-2.66464 -1.865,-0.39738 -4.107,-1.31587 -4.981,-2.04766 -0.88,-0.73422 -3.495,-1.92581 -5.824,-2.65375 -2.331,-0.72431 -4.896,-1.85535 -5.702,-2.50393 -1.515,-1.21877 -6.903,-4.15993 -14.63,-7.98578 -2.446,-1.21085 -5.469,-3.62738 -6.717,-5.37078 l -2.268,-3.17034 4.597,-4.16489 c 4.998,-4.52693 17.102,-9.10339 21.319,-8.06019 12.722,3.14755 13.695,3.53326 25.641,10.15849 8.243,4.57052 13.238,5.4442 13.238,2.31448 0,-1.61032 -8.06,-8.60749 -9.916,-8.60749 -0.95,0 -9.813,-6.16103 -11.117,-7.72501 -0.95,-1.13149 -0.72,-2.08641 0.99,-4.24227 1.21,-1.53107 2.81,-2.78353 3.554,-2.78353 1.45,0 9.351,3.98942 14.123,7.12993 6.986,4.59727 16.311,9.53182 29.38,15.54523 2.912,1.33965 7.923,3.66118 11.136,5.15856 3.211,1.49639 6.43,2.72199 7.151,2.72199 0.72,0 3.091,0.95217 5.265,2.10732 2.174,1.15824 4.681,2.10732 5.572,2.10732 0.89,0 3.329,0.91254 5.416,2.0229 2.087,1.11365 5.807,2.56249 8.266,3.22185 9.736,2.60817 26.562,17.0108 26.562,22.73659 0,4.51504 -3.467,5.59798 -15.493,4.83437 l -10.728,-0.68358 -5.342,-4.74114 c -9.478,-8.4142 -11.264,-9.40677 -18.896,-10.50457 -10.388,-1.49342 -9.907,-1.66888 -9.907,3.60657 0,7.19653 1.595,9.64685 7.272,11.16999 2.699,0.72431 5.676,1.9694 6.614,2.76878 0.94,0.80246 4.514,1.90401 7.944,2.45825 3.429,0.55479 7.535,1.54097 9.124,2.19351 1.637,0.67367 4.62,0.88282 6.884,0.48544 2.198,-0.38747 8.066,-1.22076 13.042,-1.86141 12.484,-1.60548 14.037,-0.77384 19.674,10.58691 3.552,7.1558 5.184,9.27886 8.779,11.41095 l 4.414,2.61896 6.049,-2.40277 c 3.327,-1.32093 7.162,-3.37365 8.522,-4.5616 2.207,-1.9268 3.671,-2.13 13.566,-1.89113 7.83,0.18933 12.088,0.78265 14.472,2.01606 3.313,1.7116 27.097,3.86746 30.121,2.73003 2.093,-0.79256 1.548,-5.4977 -1.181,-10.19019 -1.378,-2.36908 -2.821,-6.03917 -3.206,-8.1564 -0.91,-4.95821 -7.191,-12.77239 -15.504,-19.27069 -3.737,-2.92046 -7.198,-6.63216 -8.028,-8.60761 -0.81,-1.90984 -2.581,-4.56062 -3.953,-5.89134 -2.481,-2.40475 -2.788,-3.63542 -5.889,-23.59739 -1.262,-8.12459 -3.93,-12.48685 -10.363,-16.94036 -16.509,-11.43054 -15.906,-11.13696 -23.958,-11.65829 -8.269,-0.53498 -12.229,-2.44273 -20.322,-9.78841 -5.643,-5.12102 -11.72,-8.44822 -23.828,-13.04362 -5.534,-2.10005 -10.591,-4.1651 -11.236,-4.58879 -0.65,-0.4238 -2.553,-1.70147 -4.237,-2.83945 -3.504,-2.36842 -36.412,-35.46593 -36.418,-36.62768 0,-0.4205 -1.144,-1.5095 -2.539,-2.41807 -2.984,-1.94573 -4.632,-9.66854 -2.792,-13.08919 0.63,-1.17134 3.766,-3.36276 6.969,-4.86993 4.695,-2.20948 6.689,-2.60146 10.298,-2.02389 5.154,0.82448 7.296,2.05823 16.34,9.40314 9.817,7.97422 12.717,10.07615 13.905,10.07615 0.59,0 2.422,1.12048 4.068,2.49006 1.647,1.36925 4.186,2.85695 5.642,3.30562 1.455,0.44912 3.742,1.66625 5.08,2.70549 1.338,1.03913 3.78,2.18393 5.427,2.54377 1.647,0.35996 4.091,1.81507 5.431,3.23375 1.338,1.41878 2.888,2.57944 3.443,2.57944 0.56,0 4.405,3.27678 8.554,7.28184 13.135,12.68003 12.642,12.36499 20.486,13.09381 4.666,0.4326 8.144,1.39996 10.03,2.78749 1.589,1.16825 3.478,2.12394 4.197,2.12394 0.72,0 3.005,1.11409 5.074,2.47586 10.167,6.6883 14.306,9.11407 15.549,9.11407 0.75,0 3.115,1.18543 5.261,2.63415 2.146,1.44873 5.07,2.63405 6.5,2.63405 1.428,0 3.808,0.94776 5.289,2.10732 1.482,1.159 3.401,2.10721 4.267,2.10721 2.058,0 9.989,4.87235 15.163,9.3154 2.925,2.51087 4.269,4.62402 4.691,7.37486 0.33,2.1202 1.256,5.98864 2.067,8.5966 0.81,2.60806 1.778,6.56281 2.151,8.78813 0.54,3.22582 2.253,5.57597 8.448,11.58939 4.274,4.14903 9.844,8.86541 12.378,10.48079 2.534,1.61539 6.752,4.57052 9.374,6.56667 2.62,1.99625 6.432,4.60222 8.471,5.79117 2.039,1.18905 5.852,3.55417 8.473,5.25586 2.621,1.70169 8.578,5.06631 13.238,7.47799 4.66,2.4107 9.609,5.26974 10.999,6.35257 1.388,1.08316 3.295,1.97038 4.236,1.97336 0.94,0.002 4.57,1.42209 8.065,3.15646 3.494,1.73438 6.875,3.15438 7.513,3.15735 0.64,0.002 1.98,0.90154 2.983,2.00616 1.002,1.10166 3.536,2.32341 5.633,2.71418 2.096,0.38747 6.142,1.92481 8.991,3.40733 6.367,3.31212 13.155,2.94909 22.008,-1.17507 3.204,-1.49254 6.679,-2.71825 7.72,-2.7242 1.043,-0.005 3.664,-0.89162 5.825,-1.9793 4.708,-2.35818 10.868,-3.34481 21.682,-3.46975 9.011,-0.0991 16.522,2.63085 19.454,7.08326 1.669,2.53475 5.154,3.8734 19.982,7.67746 18.495,4.74312 19.375,4.87103 24.411,3.53029 2.61,-0.69349 6.119,-1.26237 7.799,-1.26237 5.513,0 15.003,5.93504 23.394,14.63071 7.55,7.82441 8.124,8.77041 11.51,18.98548 2.493,7.52093 4.289,11.22294 5.98,12.32492 2.702,1.76201 3.944,4.44108 6.212,13.40104 1.313,5.19202 2.505,7.05299 7.756,12.11699 5.608,5.41008 7.882,7.06498 15.907,11.58498 6.709,3.77807 20.997,2.71605 28.312,-2.1049 3.874,-2.55203 5.555,-3.0661 8.34,-2.5451 4.053,0.74963 9.78,6.22102 10.789,10.29708 0.38,1.55099 1.608,3.63893 2.721,4.64097 1.112,1.0006 2.023,2.44195 2.023,3.20204 0,2.63701 4.321,3.84291 11.241,3.13698 6.197,-0.62964 6.751,-0.49975 7.93,1.71699 1.635,3.088 2.983,3.93901 6.27,3.95904 1.68,0 4.62,1.7969 7.927,4.81699 l 5.257,4.80201 13.413,0.78045 c 12.43,0.72981 13.695,1.0028 17.281,3.72403 2.128,1.61406 3.69,3.48405 3.472,4.15707 -0.22,0.67037 -2.182,2.06791 -4.362,3.10495 -5.314,2.52605 -4.885,5.35901 0.89,5.83003 3.698,0.29941 4.535,-0.0991 7.484,-3.59502 2.169,-2.57097 4.943,-4.41597 8.006,-5.32697 10.876,-3.23606 18.155,-0.19044 25.55,10.69797 2.752,4.05096 6.668,8.79001 8.702,10.52802 2.034,1.73801 6.81,5.76795 10.612,8.957 7.256,6.07902 9.069,9.26796 9.069,15.94393 0,2.98002 -0.82,4.94402 -3.098,7.48108 l -3.097,3.44091 -18.349,0 c -10.091,0 -18.963,0.13979 -19.717,0.26969 -0.75,0.11998 -3.612,2.28201 -6.354,4.803 -5.475,5.03307 -13.75,10.16708 -16.386,10.16708 -0.93,0 -2.621,-1.1851 -3.767,-2.63404 -1.145,-1.44906 -2.88,-2.63405 -3.854,-2.63405 -2.202,0 -8.624,6.65903 -11.177,11.59005 -1.05,2.02895 -3.418,5.111 -5.262,6.84901 l -3.352,3.16098 -4.204,-4.74103 c -4.083,-4.60497 -4.187,-4.91693 -3.645,-10.80101 l 0.56,-6.058 -3.16,0 c -1.739,0 -3.161,0.40949 -3.161,0.91034 0,1.57708 -10.568,11.66909 -14.098,13.46004 -1.858,0.94006 -5.359,3.51995 -7.782,5.72403 -6.859,6.23896 -11.195,6.53694 -25.249,1.73702 -6.021,-2.05603 -7.894,-3.25609 -9.973,-6.38702 -2.498,-3.76002 -6.534,-5.21106 -7.989,-2.87005 -0.34,0.55039 -2.245,0.71991 -4.244,0.39958 -3.322,-0.52947 -3.698,-0.33023 -4.372,2.43998 -0.41,1.66503 -1.554,4.212 -2.552,5.66106 -1,1.44894 -2.393,4.39693 -3.094,6.55191 -1.766,5.41404 -10.095,11.88406 -17.325,13.45608 -3.036,0.65936 -10.049,1.58401 -15.583,2.05393 -5.534,0.47003 -10.776,1.136 -11.649,1.48208 -0.88,0.35005 -4.125,-0.24987 -7.224,-1.31201 z"
           style="fill:#009ee0;fill-opacity:1;stroke:#000000;stroke-width:2.5;stroke-miterlimit:4;stroke-dasharray:none;stroke-opacity:1"
           inkscape:connector-curvature="0" />
      </g>
    </g>
  </g>
</svg>
