<?xml version="1.0" encoding="UTF-8" standalone="no"?>
<!-- Created with Inkscape (http://www.inkscape.org/) -->

<svg
   xmlns:dc="http://purl.org/dc/elements/1.1/"
   xmlns:cc="http://creativecommons.org/ns#"
   xmlns:rdf="http://www.w3.org/1999/02/22-rdf-syntax-ns#"
   xmlns:svg="http://www.w3.org/2000/svg"
   xmlns="http://www.w3.org/2000/svg"
   xmlns:sodipodi="http://sodipodi.sourceforge.net/DTD/sodipodi-0.dtd"
   xmlns:inkscape="http://www.inkscape.org/namespaces/inkscape"
   width="563.74219mm"
   height="430.05322mm"
   viewBox="0 0 1997.5116 1523.8107"
   id="svg4939"
   version="1.1"
   inkscape:version="0.91 r13725"
   sodipodi:docname="vorschlag_10_(byt3)_.svg"
   inkscape:export-filename="/home/falko/Schreibtisch/vorschlag_10_(byt3)_.png"
   inkscape:export-xdpi="90"
   inkscape:export-ydpi="90">
  <defs
     id="defs4941" />
  <sodipodi:namedview
     id="base"
     pagecolor="#ffffff"
     bordercolor="#666666"
     borderopacity="1.0"
     inkscape:pageopacity="0.0"
     inkscape:pageshadow="2"
     inkscape:zoom="0.31209301"
     inkscape:cx="550.35904"
     inkscape:cy="711.58964"
     inkscape:document-units="px"
     inkscape:current-layer="g5889"
     showgrid="false"
     showguides="true"
     inkscape:guide-bbox="true"
     fit-margin-top="0"
     fit-margin-left="0"
     fit-margin-right="0"
     fit-margin-bottom="0"
     inkscape:window-width="1680"
     inkscape:window-height="987"
     inkscape:window-x="-8"
     inkscape:window-y="-8"
     inkscape:window-maximized="1">
    <sodipodi:guide
       position="612.80077,944.7937"
       orientation="0,1"
       id="guide5869" />
    <sodipodi:guide
       position="-5.73712,1475.9145"
       orientation="1,0"
       id="guide5871" />
    <sodipodi:guide
       position="264.7445,1528.3905"
       orientation="0,1"
       id="guide5873" />
    <sodipodi:guide
       position="1991.7937,-185.84212"
       orientation="1,0"
       id="guide5875" />
    <sodipodi:guide
       position="-340.84417,535.09682"
       orientation="0,1"
       id="guide5877" />
    <sodipodi:guide
       position="895.96653,-3.204256"
       orientation="0,1"
       id="guide5990" />
  </sodipodi:namedview>
  <metadata
     id="metadata4944">
    <rdf:RDF>
      <cc:Work
         rdf:about="">
        <dc:format>image/svg+xml</dc:format>
        <dc:type
           rdf:resource="http://purl.org/dc/dcmitype/StillImage" />
        <dc:title></dc:title>
      </cc:Work>
    </rdf:RDF>
  </metadata>
  <g
     inkscape:label="Ebene 1"
     inkscape:groupmode="layer"
     id="layer1"
     transform="translate(679.9559,286.81571)">
    <flowRoot
       xml:space="preserve"
       id="flowRoot5900"
       style="font-style:normal;font-weight:normal;font-size:40px;line-height:125%;font-family:sans-serif;letter-spacing:0px;word-spacing:0px;fill:#000000;fill-opacity:1;stroke:none;stroke-width:1px;stroke-linecap:butt;stroke-linejoin:miter;stroke-opacity:1"
       transform="translate(-681.15775,-187.48634)"><flowRegion
         id="flowRegion5902"><rect
           id="rect5904"
           width="1999.4039"
           height="179.43582"
           x="-4.5352678"
           y="1220.6235" /></flowRegion><flowPara
         id="flowPara5906"
         style="font-style:normal;font-variant:normal;font-weight:normal;font-stretch:normal;font-family:Lato;-inkscape-font-specification:Lato" /></flowRoot>    <g
       id="g5956">
      <g
         id="g5889">
        <g
           id="g3400">
          <g
             transform="matrix(1.0244945,0,0,1.2211683,-720.53809,-572.92978)"
             style="font-style:normal;font-variant:normal;font-weight:normal;font-stretch:normal;font-size:333.26159668px;line-height:100%;font-family:'Abyssinica SIL';-inkscape-font-specification:'Abyssinica SIL';letter-spacing:0px;word-spacing:0px;fill:#000000;fill-opacity:1;stroke:none;stroke-width:1px;stroke-linecap:butt;stroke-linejoin:miter;stroke-opacity:1"
             id="g4190">
            <path
               inkscape:connector-curvature="0"
               id="path3419"
               style="font-style:normal;font-variant:normal;font-weight:bold;font-stretch:normal;font-size:200px;font-family:Lato;-inkscape-font-specification:'Lato Bold';fill:#009ee0;fill-opacity:1"
               d="m 68.66045,1453.9256 q 4.2,5.1 9.1,7.2 5,2.1 10.5,2.1 5.7,0 10.2,-2 4.6,-2.1 7.8,-6.4 3.2,-4.4 4.9,-11.1 1.7,-6.8 1.7,-16.2 0,-16.9 -5.6,-24.4 -5.6,-7.6 -16.1,-7.6 -7.1,0 -12.4,3.3 -5.3,3.2 -10.1,9.1 l 0,46 z m 0,-63.4 q 6.2,-6.5 13.7,-10.3 7.6,-3.9 17.3,-3.9 8.9,0 16,3.5 7.2,3.5 12.2,10.1 5.1,6.5 7.8,15.8 2.7,9.3 2.7,20.9 0,12.5 -3.1,22.7 -3.1,10.2 -8.9,17.5 -5.7,7.2 -13.8,11.2 -8.1,4 -18,4 -4.8,0 -8.7,-1 -3.9,-0.9 -7.2,-2.6 -3.3,-1.7 -6.1,-4.1 -2.7,-2.5 -5.2,-5.5 l -1.1,6.9 q -0.6,2.6 -2.1,3.7 -1.4,1.1 -3.9,1.1 l -16.3,0 0,-148.6 24.7,0 0,58.6 z" />
            <path
               inkscape:connector-curvature="0"
               id="path3421"
               style="font-style:normal;font-variant:normal;font-weight:bold;font-stretch:normal;font-size:200px;font-family:Lato;-inkscape-font-specification:'Lato Bold';fill:#009ee0;fill-opacity:1"
               d="m 203.03233,1376.3256 q 11.4,0 20.7,3.7 9.4,3.7 16,10.5 6.7,6.8 10.3,16.6 3.6,9.8 3.6,21.9 0,12.2 -3.6,22 -3.6,9.8 -10.3,16.7 -6.6,6.9 -16,10.6 -9.3,3.7 -20.7,3.7 -11.5,0 -20.9,-3.7 -9.4,-3.7 -16.1,-10.6 -6.6,-6.9 -10.3,-16.7 -3.6,-9.8 -3.6,-22 0,-12.1 3.6,-21.9 3.7,-9.8 10.3,-16.6 6.7,-6.8 16.1,-10.5 9.4,-3.7 20.9,-3.7 z m 0,86.7 q 12.8,0 18.9,-8.6 6.2,-8.6 6.2,-25.2 0,-16.6 -6.2,-25.3 -6.1,-8.7 -18.9,-8.7 -13,0 -19.3,8.8 -6.2,8.7 -6.2,25.2 0,16.5 6.2,25.2 6.3,8.6 19.3,8.6 z" />
            <path
               inkscape:connector-curvature="0"
               id="path3423"
               style="font-style:normal;font-variant:normal;font-weight:bold;font-stretch:normal;font-size:200px;font-family:Lato;-inkscape-font-specification:'Lato Bold';fill:#009ee0;fill-opacity:1"
               d="m 336.87608,1404.1256 q -4.2,-5.1 -9.2,-7.2 -4.9,-2.1 -10.6,-2.1 -5.6,0 -10.1,2.1 -4.5,2.1 -7.7,6.4 -3.2,4.2 -4.9,10.8 -1.7,6.5 -1.7,15.4 0,9 1.4,15.3 1.5,6.2 4.2,10.2 2.7,3.9 6.6,5.7 3.9,1.7 8.7,1.7 7.7,0 13.1,-3.2 5.4,-3.2 10.2,-9.1 l 0,-46 z m 24.7,-72.2 0,148.6 -15.1,0 q -4.9,0 -6.2,-4.5 l -2.1,-9.9 q -6.2,7.1 -14.3,11.5 -8,4.4 -18.7,4.4 -8.4,0 -15.4,-3.5 -7,-3.5 -12.1,-10.1 -5,-6.7 -7.8,-16.5 -2.7,-9.8 -2.7,-22.4 0,-11.4 3.1,-21.2 3.1,-9.8 8.9,-17 5.8,-7.2 13.9,-11.2 8.1,-4.1 18.2,-4.1 8.6,0 14.7,2.7 6.1,2.7 10.9,7.3 l 0,-54.1 24.7,0 z" />
            <path
               inkscape:connector-curvature="0"
               id="path3425"
               style="font-style:normal;font-variant:normal;font-weight:bold;font-stretch:normal;font-size:200px;font-family:Lato;-inkscape-font-specification:'Lato Bold';fill:#009ee0;fill-opacity:1"
               d="m 452.24795,1417.4256 q 0,-4.8 -1.4,-9 -1.3,-4.3 -4,-7.5 -2.7,-3.2 -6.9,-5 -4.1,-1.9 -9.6,-1.9 -10.7,0 -16.9,6.1 -6.1,6.1 -7.8,17.3 l 46.6,0 z m -47.1,14.9 q 0.6,7.9 2.8,13.7 2.2,5.7 5.8,9.5 3.6,3.7 8.5,5.6 5,1.8 11,1.8 6,0 10.3,-1.4 4.4,-1.4 7.6,-3.1 3.3,-1.7 5.7,-3.1 2.5,-1.4 4.8,-1.4 3.1,0 4.6,2.3 l 7.1,9 q -4.1,4.8 -9.2,8.1 -5.1,3.2 -10.7,5.2 -5.5,1.9 -11.3,2.7 -5.7,0.8 -11.1,0.8 -10.7,0 -19.9,-3.5 -9.2,-3.6 -16,-10.5 -6.8,-7 -10.7,-17.2 -3.9,-10.3 -3.9,-23.8 0,-10.5 3.4,-19.7 3.4,-9.3 9.7,-16.1 6.4,-6.9 15.5,-10.9 9.2,-4 20.7,-4 9.7,0 17.9,3.1 8.2,3.1 14.1,9.1 5.9,5.9 9.2,14.6 3.4,8.6 3.4,19.7 0,5.6 -1.2,7.6 -1.2,1.9 -4.6,1.9 l -63.5,0 z" />
            <path
               inkscape:connector-curvature="0"
               id="path3427"
               style="font-style:normal;font-variant:normal;font-weight:bold;font-stretch:normal;font-size:200px;font-family:Lato;-inkscape-font-specification:'Lato Bold';fill:#009ee0;fill-opacity:1"
               d="m 515.88858,1390.5256 q 3.1,-3.1 6.5,-5.7 3.5,-2.7 7.3,-4.5 3.9,-1.9 8.3,-2.9 4.4,-1.1 9.6,-1.1 8.4,0 14.9,2.9 6.5,2.8 10.8,8 4.4,5.1 6.6,12.3 2.3,7.1 2.3,15.7 l 0,65.3 -24.7,0 0,-65.3 q 0,-9.4 -4.3,-14.5 -4.3,-5.2 -13.1,-5.2 -6.4,0 -12,2.9 -5.6,2.9 -10.6,7.9 l 0,74.2 -24.7,0 0,-102.6 15.1,0 q 4.8,0 6.3,4.5 l 1.7,8.1 z" />
            <path
               inkscape:connector-curvature="0"
               id="path3429"
               style="font-style:normal;font-variant:normal;font-weight:bold;font-stretch:normal;font-size:200px;font-family:Lato;-inkscape-font-specification:'Lato Bold';fill:#009ee0;fill-opacity:1"
               d="m 668.2792,1397.9256 q -1,1.6 -2.1,2.3 -1.1,0.6 -2.8,0.6 -1.8,0 -3.9,-1 -2,-1 -4.7,-2.2 -2.7,-1.3 -6.2,-2.3 -3.4,-1 -8.1,-1 -7.3,0 -11.5,3.1 -4.1,3.1 -4.1,8.1 0,3.3 2.1,5.6 2.2,2.2 5.7,3.9 3.6,1.7 8.1,3.1 4.5,1.3 9.1,2.9 4.7,1.6 9.2,3.7 4.5,2 8,5.2 3.6,3.1 5.7,7.5 2.2,4.4 2.2,10.6 0,7.4 -2.7,13.7 -2.6,6.2 -7.8,10.8 -5.2,4.5 -12.9,7.1 -7.6,2.5 -17.6,2.5 -5.3,0 -10.4,-1 -5,-0.9 -9.7,-2.6 -4.6,-1.7 -8.6,-4 -3.9,-2.3 -6.9,-5 l 5.7,-9.4 q 1.1,-1.7 2.6,-2.6 1.5,-0.9 3.8,-0.9 2.3,0 4.3,1.3 2.1,1.3 4.8,2.8 2.7,1.5 6.3,2.8 3.7,1.3 9.3,1.3 4.4,0 7.5,-1 3.2,-1.1 5.2,-2.8 2.1,-1.7 3,-3.9 1,-2.3 1,-4.7 0,-3.6 -2.2,-5.9 -2.1,-2.3 -5.7,-4 -3.5,-1.7 -8.1,-3 -4.5,-1.4 -9.3,-3 -4.7,-1.6 -9.3,-3.7 -4.5,-2.2 -8.1,-5.5 -3.5,-3.3 -5.7,-8.1 -2.1,-4.8 -2.1,-11.6 0,-6.3 2.5,-12 2.5,-5.7 7.3,-9.9 4.9,-4.3 12.1,-6.8 7.3,-2.6 16.8,-2.6 10.6,0 19.3,3.5 8.7,3.5 14.5,9.2 l -5.6,8.9 z" />
            <path
               inkscape:connector-curvature="0"
               id="path3431"
               style="font-style:normal;font-variant:normal;font-weight:bold;font-stretch:normal;font-size:200px;font-family:Lato;-inkscape-font-specification:'Lato Bold';fill:#009ee0;fill-opacity:1"
               d="m 759.66983,1417.4256 q 0,-4.8 -1.4,-9 -1.3,-4.3 -4,-7.5 -2.7,-3.2 -6.9,-5 -4.1,-1.9 -9.6,-1.9 -10.7,0 -16.9,6.1 -6.1,6.1 -7.8,17.3 l 46.6,0 z m -47.1,14.9 q 0.6,7.9 2.8,13.7 2.2,5.7 5.8,9.5 3.6,3.7 8.5,5.6 5,1.8 11,1.8 6,0 10.3,-1.4 4.4,-1.4 7.6,-3.1 3.3,-1.7 5.7,-3.1 2.5,-1.4 4.8,-1.4 3.1,0 4.6,2.3 l 7.1,9 q -4.1,4.8 -9.2,8.1 -5.1,3.2 -10.7,5.2 -5.5,1.9 -11.3,2.7 -5.7,0.8 -11.1,0.8 -10.7,0 -19.9,-3.5 -9.2,-3.6 -16,-10.5 -6.8,-7 -10.7,-17.2 -3.9,-10.3 -3.9,-23.8 0,-10.5 3.4,-19.7 3.4,-9.3 9.7,-16.1 6.4,-6.9 15.5,-10.9 9.2,-4 20.7,-4 9.7,0 17.9,3.1 8.2,3.1 14.1,9.1 5.9,5.9 9.2,14.6 3.4,8.6 3.4,19.7 0,5.6 -1.2,7.6 -1.2,1.9 -4.6,1.9 l -63.5,0 z" />
            <path
               inkscape:connector-curvature="0"
               id="path3433"
               style="font-style:normal;font-variant:normal;font-weight:bold;font-stretch:normal;font-size:200px;font-family:Lato;-inkscape-font-specification:'Lato Bold';fill:#009ee0;fill-opacity:1"
               d="m 866.31045,1417.4256 q 0,-4.8 -1.4,-9 -1.3,-4.3 -4,-7.5 -2.7,-3.2 -6.9,-5 -4.1,-1.9 -9.6,-1.9 -10.7,0 -16.9,6.1 -6.1,6.1 -7.8,17.3 l 46.6,0 z m -47.1,14.9 q 0.6,7.9 2.8,13.7 2.2,5.7 5.8,9.5 3.6,3.7 8.5,5.6 5,1.8 11,1.8 6,0 10.3,-1.4 4.4,-1.4 7.6,-3.1 3.3,-1.7 5.7,-3.1 2.5,-1.4 4.8,-1.4 3.1,0 4.6,2.3 l 7.1,9 q -4.1,4.8 -9.2,8.1 -5.1,3.2 -10.7,5.2 -5.5,1.9 -11.3,2.7 -5.7,0.8 -11.1,0.8 -10.7,0 -19.9,-3.5 -9.2,-3.6 -16,-10.5 -6.8,-7 -10.7,-17.2 -3.9,-10.3 -3.9,-23.8 0,-10.5 3.4,-19.7 3.4,-9.3 9.7,-16.1 6.4,-6.9 15.5,-10.9 9.2,-4 20.7,-4 9.7,0 17.9,3.1 8.2,3.1 14.1,9.1 5.9,5.9 9.2,14.6 3.4,8.6 3.4,19.7 0,5.6 -1.2,7.6 -1.2,1.9 -4.6,1.9 l -63.5,0 z" />
            <path
               inkscape:connector-curvature="0"
               id="path3435"
               style="font-style:normal;font-variant:normal;font-weight:bold;font-stretch:normal;font-size:200px;line-height:100%;font-family:Lato;-inkscape-font-specification:'Lato Bold';text-align:start;writing-mode:lr-tb;text-anchor:start"
               d="m 903.25108,1466.9256 q 0,-3.1 1.1,-5.9 1.2,-2.8 3.2,-4.8 2,-2 4.8,-3.2 2.8,-1.2 6,-1.2 3.2,0 5.9,1.2 2.8,1.2 4.8,3.2 2.1,2 3.3,4.8 1.2,2.8 1.2,5.9 0,3.2 -1.2,6 -1.2,2.7 -3.3,4.7 -2,2 -4.8,3.1 -2.7,1.2 -5.9,1.2 -3.2,0 -6,-1.2 -2.8,-1.1 -4.8,-3.1 -2,-2 -3.2,-4.7 -1.1,-2.8 -1.1,-6 z" />
            <path
               inkscape:connector-curvature="0"
               id="path3437"
               style="font-style:normal;font-variant:normal;font-weight:bold;font-stretch:normal;font-size:200px;font-family:Lato;-inkscape-font-specification:'Lato Bold';fill:#dc0067;fill-opacity:1"
               d="m 961.70733,1480.5256 0,-84 -8.9,-1.4 q -2.9,-0.6 -4.7,-2 -1.7,-1.5 -1.7,-4.2 l 0,-10.1 15.3,0 0,-7.6 q 0,-8.8 2.6,-15.8 2.7,-7 7.6,-11.9 5,-4.9 12.1,-7.5 7.1,-2.6 15.99997,-2.6 7.1,0 13.2,1.9 l -0.5,12.4 q -0.1,1.4 -0.8,2.3 -0.7,0.8 -1.9,1.3 -1.1,0.4 -2.6,0.6 -1.5,0.1 -3.2,0.1 -4.39997,0 -7.89997,1 -3.4,0.9 -5.8,3.3 -2.4,2.3 -3.7,6.2 -1.2,3.8 -1.2,9.5 l 0,6.8 26.69997,0 0,17.6 -25.89997,0 0,84.1 -24.7,0 z" />
            <path
               inkscape:connector-curvature="0"
               id="path3439"
               style="font-style:normal;font-variant:normal;font-weight:bold;font-stretch:normal;font-size:200px;font-family:Lato;-inkscape-font-specification:'Lato Bold';fill:#dc0067;fill-opacity:1"
               d="m 1049.6823,1395.7256 q 4.8,-9.2 11.4,-14.4 6.6,-5.3 15.6,-5.3 7.1,0 11.4,3.1 l -1.6,18.5 q -0.5,1.8 -1.5,2.6 -0.9,0.7 -2.5,0.7 -1.5,0 -4.5,-0.5 -2.9,-0.5 -5.7,-0.5 -4.1,0 -7.3,1.2 -3.2,1.2 -5.8,3.5 -2.5,2.2 -4.5,5.4 -1.9,3.2 -3.6,7.3 l 0,63.2 -24.7,0 0,-102.6 14.5,0 q 3.8,0 5.3,1.4 1.5,1.3 2,4.8 l 1.5,11.6 z" />
            <path
               inkscape:connector-curvature="0"
               id="path3441"
               style="font-style:normal;font-variant:normal;font-weight:bold;font-stretch:normal;font-size:200px;font-family:Lato;-inkscape-font-specification:'Lato Bold';fill:#dc0067;fill-opacity:1"
               d="m 1164.3573,1417.4256 q 0,-4.8 -1.4,-9 -1.3,-4.3 -4,-7.5 -2.7,-3.2 -6.9,-5 -4.1,-1.9 -9.6,-1.9 -10.7,0 -16.9,6.1 -6.1,6.1 -7.8,17.3 l 46.6,0 z m -47.1,14.9 q 0.6,7.9 2.8,13.7 2.2,5.7 5.8,9.5 3.6,3.7 8.5,5.6 5,1.8 11,1.8 6,0 10.3,-1.4 4.4,-1.4 7.6,-3.1 3.3,-1.7 5.7,-3.1 2.5,-1.4 4.8,-1.4 3.1,0 4.6,2.3 l 7.1,9 q -4.1,4.8 -9.2,8.1 -5.1,3.2 -10.7,5.2 -5.5,1.9 -11.3,2.7 -5.7,0.8 -11.1,0.8 -10.7,0 -19.9,-3.5 -9.2,-3.6 -16,-10.5 -6.8,-7 -10.7,-17.2 -3.9,-10.3 -3.9,-23.8 0,-10.5 3.4,-19.7 3.4,-9.3 9.7,-16.1 6.4,-6.9 15.5,-10.9 9.2,-4 20.7,-4 9.7,0 17.9,3.1 8.2,3.1 14.1,9.1 5.9,5.9 9.2,14.6 3.4,8.6 3.4,19.7 0,5.6 -1.2,7.6 -1.2,1.9 -4.6,1.9 l -63.5,0 z" />
            <path
               inkscape:connector-curvature="0"
               id="path3443"
               style="font-style:normal;font-variant:normal;font-weight:bold;font-stretch:normal;font-size:200px;font-family:Lato;-inkscape-font-specification:'Lato Bold';fill:#dc0067;fill-opacity:1"
               d="m 1230.498,1377.9256 0,102.6 -24.8,0 0,-102.6 24.8,0 z m 3.4,-29.9 q 0,3.2 -1.3,6 -1.3,2.8 -3.5,4.9 -2.1,2.1 -5,3.4 -2.9,1.2 -6.2,1.2 -3.2,0 -6.1,-1.2 -2.8,-1.3 -4.9,-3.4 -2.1,-2.1 -3.4,-4.9 -1.2,-2.8 -1.2,-6 0,-3.3 1.2,-6.2 1.3,-2.9 3.4,-5 2.1,-2.1 4.9,-3.3 2.9,-1.3 6.1,-1.3 3.3,0 6.2,1.3 2.9,1.2 5,3.3 2.2,2.1 3.5,5 1.3,2.9 1.3,6.2 z" />
            <path
               inkscape:connector-curvature="0"
               id="path3445"
               style="font-style:normal;font-variant:normal;font-weight:bold;font-stretch:normal;font-size:200px;font-family:Lato;-inkscape-font-specification:'Lato Bold';fill:#dc0067;fill-opacity:1"
               d="m 1262.8792,1480.5256 0,-84 -8.9,-1.4 q -2.9,-0.6 -4.7,-2 -1.7,-1.5 -1.7,-4.2 l 0,-10.1 15.3,0 0,-7.6 q 0,-8.8 2.6,-15.8 2.7,-7 7.6,-11.9 5,-4.9 12.1,-7.5 7.1,-2.6 16,-2.6 7.1,0 13.2,1.9 l -0.5,12.4 q -0.1,1.4 -0.8,2.3 -0.7,0.8 -1.9,1.3 -1.1,0.4 -2.6,0.6 -1.5,0.1 -3.2,0.1 -4.4,0 -7.9,1 -3.4,0.9 -5.8,3.3 -2.4,2.3 -3.7,6.2 -1.2,3.8 -1.2,9.5 l 0,6.8 26.7,0 0,17.6 -25.9,0 0,84.1 -24.7,0 z" />
            <path
               inkscape:connector-curvature="0"
               id="path3447"
               style="font-style:normal;font-variant:normal;font-weight:bold;font-stretch:normal;font-size:200px;font-family:Lato;-inkscape-font-specification:'Lato Bold';fill:#dc0067;fill-opacity:1"
               d="m 1415.9542,1377.9256 0,102.6 -15.1,0 q -4.9,0 -6.2,-4.5 l -1.7,-8.2 q -6.3,6.4 -13.9,10.4 -7.6,3.9 -17.9,3.9 -8.4,0 -14.9,-2.8 -6.4,-2.9 -10.8,-8.1 -4.4,-5.2 -6.7,-12.3 -2.2,-7.2 -2.2,-15.8 l 0,-65.2 24.7,0 0,65.2 q 0,9.4 4.3,14.6 4.4,5.1 13.1,5.1 6.4,0 12,-2.8 5.6,-2.9 10.6,-7.9 l 0,-74.2 24.7,0 z" />
            <path
               inkscape:connector-curvature="0"
               id="path3449"
               style="font-style:normal;font-variant:normal;font-weight:bold;font-stretch:normal;font-size:200px;font-family:Lato;-inkscape-font-specification:'Lato Bold';fill:#dc0067;fill-opacity:1"
               d="m 1463.5448,1390.5256 q 3.1,-3.1 6.5,-5.7 3.5,-2.7 7.3,-4.5 3.9,-1.9 8.3,-2.9 4.4,-1.1 9.6,-1.1 8.4,0 14.9,2.9 6.5,2.8 10.8,8 4.4,5.1 6.6,12.3 2.3,7.1 2.3,15.7 l 0,65.3 -24.7,0 0,-65.3 q 0,-9.4 -4.3,-14.5 -4.3,-5.2 -13.1,-5.2 -6.4,0 -12,2.9 -5.6,2.9 -10.6,7.9 l 0,74.2 -24.7,0 0,-102.6 15.1,0 q 4.8,0 6.3,4.5 l 1.7,8.1 z" />
            <path
               inkscape:connector-curvature="0"
               id="path3451"
               style="font-style:normal;font-variant:normal;font-weight:bold;font-stretch:normal;font-size:200px;font-family:Lato;-inkscape-font-specification:'Lato Bold';fill:#dc0067;fill-opacity:1"
               d="m 1578.0355,1331.9256 0,85.1 4.6,0 q 2.5,0 3.9,-0.6 1.5,-0.7 3,-2.7 l 25.5,-31.5 q 1.6,-2.1 3.5,-3.2 2,-1.1 5.1,-1.1 l 22.6,0 -31.9,38.1 q -3.4,4.5 -7.4,6.9 2.1,1.5 3.7,3.5 1.7,2 3.2,4.3 l 34.2,49.8 -22.3,0 q -2.9,0 -5,-0.9 -2.1,-1 -3.5,-3.5 l -26.2,-38.9 q -1.4,-2.3 -2.9,-3 -1.5,-0.7 -4.5,-0.7 l -5.6,0 0,47 -24.7,0 0,-148.6 24.7,0 z" />
            <path
               inkscape:connector-curvature="0"
               id="path3453"
               style="font-style:normal;font-variant:normal;font-weight:bold;font-stretch:normal;font-size:200px;line-height:100%;font-family:Lato;-inkscape-font-specification:'Lato Bold';text-align:start;writing-mode:lr-tb;text-anchor:start"
               d="m 1656.7667,1466.9256 q 0,-3.1 1.1,-5.9 1.2,-2.8 3.2,-4.8 2,-2 4.8,-3.2 2.8,-1.2 6,-1.2 3.2,0 5.9,1.2 2.8,1.2 4.8,3.2 2.1,2 3.3,4.8 1.2,2.8 1.2,5.9 0,3.2 -1.2,6 -1.2,2.7 -3.3,4.7 -2,2 -4.8,3.1 -2.7,1.2 -5.9,1.2 -3.2,0 -6,-1.2 -2.8,-1.1 -4.8,-3.1 -2,-2 -3.2,-4.7 -1.1,-2.8 -1.1,-6 z" />
            <path
               inkscape:connector-curvature="0"
               id="path3455"
               style="font-style:normal;font-variant:normal;font-weight:bold;font-stretch:normal;font-size:200px;line-height:100%;font-family:Lato;-inkscape-font-specification:'Lato Bold';text-align:start;writing-mode:lr-tb;text-anchor:start;fill:#ffb400;fill-opacity:1"
               d="m 1731.123,1390.5256 q 3.1,-3.1 6.5,-5.7 3.5,-2.7 7.3,-4.5 3.9,-1.9 8.3,-2.9 4.4,-1.1 9.6,-1.1 8.4,0 14.9,2.9 6.5,2.8 10.8,8 4.4,5.1 6.6,12.3 2.3,7.1 2.3,15.7 l 0,65.3 -24.7,0 0,-65.3 q 0,-9.4 -4.3,-14.5 -4.3,-5.2 -13.1,-5.2 -6.4,0 -12,2.9 -5.6,2.9 -10.6,7.9 l 0,74.2 -24.7,0 0,-102.6 15.1,0 q 4.8,0 6.3,4.5 l 1.7,8.1 z" />
            <path
               inkscape:connector-curvature="0"
               id="path3457"
               style="font-style:normal;font-variant:normal;font-weight:bold;font-stretch:normal;font-size:200px;line-height:100%;font-family:Lato;-inkscape-font-specification:'Lato Bold';text-align:start;writing-mode:lr-tb;text-anchor:start;fill:#ffb400;fill-opacity:1"
               d="m 1887.0136,1417.4256 q 0,-4.8 -1.4,-9 -1.3,-4.3 -4,-7.5 -2.7,-3.2 -6.9,-5 -4.1,-1.9 -9.6,-1.9 -10.7,0 -16.9,6.1 -6.1,6.1 -7.8,17.3 l 46.6,0 z m -47.1,14.9 q 0.6,7.9 2.8,13.7 2.2,5.7 5.8,9.5 3.6,3.7 8.5,5.6 5,1.8 11,1.8 6,0 10.3,-1.4 4.4,-1.4 7.6,-3.1 3.3,-1.7 5.7,-3.1 2.5,-1.4 4.8,-1.4 3.1,0 4.6,2.3 l 7.1,9 q -4.1,4.8 -9.2,8.1 -5.1,3.2 -10.7,5.2 -5.5,1.9 -11.3,2.7 -5.7,0.8 -11.1,0.8 -10.7,0 -19.9,-3.5 -9.2,-3.6 -16,-10.5 -6.8,-7 -10.7,-17.2 -3.9,-10.3 -3.9,-23.8 0,-10.5 3.4,-19.7 3.4,-9.3 9.7,-16.1 6.4,-6.9 15.5,-10.9 9.2,-4 20.7,-4 9.7,0 17.9,3.1 8.2,3.1 14.1,9.1 5.9,5.9 9.2,14.6 3.4,8.6 3.4,19.7 0,5.6 -1.2,7.6 -1.2,1.9 -4.6,1.9 l -63.5,0 z" />
            <path
               inkscape:connector-curvature="0"
               id="path3459"
               style="font-style:normal;font-variant:normal;font-weight:bold;font-stretch:normal;font-size:200px;line-height:100%;font-family:Lato;-inkscape-font-specification:'Lato Bold';text-align:start;writing-mode:lr-tb;text-anchor:start;fill:#ffb400;fill-opacity:1"
               d="m 1960.5823,1482.1256 q -13.4,0 -20.6,-7.5 -7.1,-7.6 -7.1,-20.9 l 0,-57.3 -10.5,0 q -2,0 -3.4,-1.3 -1.4,-1.3 -1.4,-3.9 l 0,-9.8 16.5,-2.7 5.2,-28 q 0.5,-2 1.9,-3.1 1.4,-1.1 3.6,-1.1 l 12.8,0 0,32.3 27.4,0 0,17.6 -27.4,0 0,55.6 q 0,4.8 2.3,7.5 2.4,2.7 6.5,2.7 2.3,0 3.8,-0.5 1.6,-0.6 2.7,-1.2 1.2,-0.6 2.1,-1.1 0.9,-0.6 1.8,-0.6 1.1,0 1.8,0.6 0.7,0.5 1.5,1.6 l 7.4,12 q -5.4,4.5 -12.4,6.8 -7,2.3 -14.5,2.3 z" />
          </g>
          <g
             transform="translate(2018.6292,861.92259)"
             id="g5885">
            <polygon
               style="fill:#ffb400;fill-opacity:1"
               points="73,59 81,59 75,53 88,53 88,47 75,47 81,41 73,41 64,50 "
               transform="matrix(-7.2633158,0,0,7.5170891,-1287.5814,-945.25903)"
               id="polygon5366"
               inkscape:transform-center-x="-735.76717"
               inkscape:transform-center-y="6.0807202" />
            <ellipse
               style="fill:none;stroke:#dc0067;stroke-width:15.55206966;stroke-miterlimit:4;stroke-dasharray:none;stroke-opacity:1"
               cx="-1741.8058"
               cy="-469.91196"
               stroke-miterlimit="4"
               id="ellipse5364"
               rx="295.82196"
               ry="301.60593" />
          </g>
          <g
             id="Ebene_x0020_1"
             style="clip-rule:evenodd;fill:#009ee0;fill-opacity:1;fill-rule:evenodd;stroke:#000068;stroke-width:36.50410461;stroke-miterlimit:4;stroke-dasharray:none;stroke-opacity:1;image-rendering:optimizeQuality;shape-rendering:geometricPrecision;text-rendering:geometricPrecision"
             transform="matrix(0.07040303,0,0,0.07040306,-678.68117,291.47227)">
            <metadata
               id="CorelCorpID_0Corel-Layer" />
            <path
               style="fill:#009ee0;fill-opacity:1;stroke:#000068;stroke-width:36.50410461;stroke-miterlimit:4;stroke-dasharray:none;stroke-opacity:1"
               id="path10"
               d="m 21007.6,10541.3 c -62.809,-28.981 -256.051,-57.972 -449.294,-125.607 -154.588,-86.953 -154.588,-86.953 -386.475,-256.041 -415.476,-149.761 -782.634,-227.06 -1159.46,-483.101 -492.765,-198.079 -951.722,-502.429 -1449.31,-676.354 -289.869,-159.425 -594.218,-304.349 -734.316,-396.139 -125.617,-164.262 -173.925,-173.925 -207.743,-400.986 -154.588,-357.494 -275.368,-386.475 -618.372,-541.073 -531.42,-125.607 -531.42,-125.607 -1227.08,-256.041 -719.835,-227.06 -1439.66,-454.121 -2154.65,-676.354 -937.232,-115.944 -1855.13,-386.485 -2802.01,-449.284 -227.06,-67.6354 -454.121,-130.444 -676.344,-193.243 -125.607,-106.28 -125.607,-106.28 -241.561,-236.724 -251.214,-125.607 -550.737,-72.4622 -806.778,24.1541 -304.359,193.243 -304.359,193.243 -628.036,357.504 -188.416,53.1349 -376.821,106.28 -565.237,159.425 -434.793,9.6536 -869.586,4.8268 -1304.38,-33.8177 -241.551,33.8177 -463.784,130.434 -690.844,212.56 -521.746,115.944 -1062.83,217.397 -1545.93,449.294 -371.995,285.032 -719.825,560.4 -966.213,975.866 -227.06,72.4722 -507.255,299.532 -647.363,487.938 -323.677,217.397 -594.218,507.255 -898.577,743.979 -91.7895,28.9909 -183.579,62.8086 -275.368,96.6263 -188.406,-4.8368 -681.171,77.289 -550.737,-256.051 246.388,-72.4622 405.812,-48.3081 584.554,-251.214 222.233,-120.77 367.158,-169.088 526.583,-381.648 125.607,-96.6263 294.696,-202.906 410.639,-309.186 173.925,-357.504 352.667,-594.218 681.181,-811.615 91.7895,-106.29 154.598,-183.589 280.205,-236.724 0,-19.3273 0,-33.8177 0,-48.3081 9.6636,-9.6636 24.1541,-14.5005 38.6445,-19.3273 0,-173.915 115.944,-362.331 270.542,-449.294 9.6636,-38.6445 9.6636,-38.6445 101.453,-173.915 48.3081,-357.494 67.6354,-458.947 -280.205,-608.709 -478.275,-53.145 -840.606,-144.934 -1289.89,-318.85 -256.041,-38.6445 -584.554,-120.78 -734.316,-347.841 0,-777.797 1227.08,-458.947 1719.86,-458.947 91.7895,24.1541 381.648,135.271 497.592,77.299 4.8368,-28.9909 9.6636,-57.9718 14.4904,-82.1258 -183.579,-82.1258 -367.158,-159.425 -545.9,-236.724 -212.57,-24.1541 -589.391,14.4904 -589.391,-265.705 140.098,-149.761 386.485,-125.607 574.891,-72.4722 589.391,347.841 1222.25,367.168 1898.61,400.986 371.985,130.434 371.985,130.434 628.036,193.233 468.611,53.145 942.049,19.3273 1202.93,454.121 0,53.145 0,111.117 4.8368,169.088 -420.303,251.214 -632.873,193.243 -1029.02,-57.9718 -251.214,-62.8086 -632.863,-130.434 -874.413,-28.9909 0,405.812 429.956,492.775 758.47,545.91 420.303,-82.1258 420.303,-82.1258 628.036,-96.6163 318.85,-106.28 710.172,-280.205 1048.34,-212.57 410.639,309.186 628.036,623.209 1135.3,328.513 72.4622,-67.6354 144.924,-130.434 222.223,-193.243 541.083,-289.859 1135.3,-77.299 1719.86,-246.388 86.9627,-86.9526 115.944,-144.924 115.944,-280.195 -222.223,-294.696 -425.13,-618.372 -743.979,-816.452 -202.906,-67.6354 -367.158,-144.924 -536.246,-275.368 0,-28.9809 0,-53.1349 0,-77.299 111.117,-72.4622 367.158,-24.1541 231.887,-251.214 -149.761,-72.4622 -246.377,-57.9718 -270.532,115.954 -217.397,289.859 -545.91,-454.121 -603.882,-589.391 -241.561,-289.869 -241.561,-289.869 -289.869,-371.995 -236.724,-207.733 -352.667,-236.714 -676.344,-318.85 -280.205,-149.761 -555.574,-164.252 -869.586,-212.56 -207.743,-62.8086 -207.743,-62.8086 -531.42,-207.743 -241.551,-62.7986 -241.551,-62.7986 -821.278,-159.425 -212.57,-67.6254 -420.303,-130.434 -628.036,-193.233 -371.995,-207.743 -748.816,-381.658 -1120.8,-608.719 -304.359,-125.607 -565.237,-222.223 -772.97,-478.275 0,-270.532 9.6637,-347.831 236.724,-492.765 222.223,-28.9809 439.62,-111.117 661.854,-111.117 608.709,304.359 608.709,304.359 946.886,449.294 434.793,154.588 898.577,241.551 1338.2,386.485 198.069,111.107 396.149,222.223 594.218,338.167 135.271,28.9909 270.542,62.8086 405.812,96.6263 207.733,-14.5005 415.466,-24.1541 628.036,-33.8177 304.359,67.6354 690.834,193.243 1478.3,386.485 9.6637,24.1541 19.3273,48.3081 33.8177,77.289 144.934,4.8368 144.934,4.8368 227.06,-9.6536 169.088,38.6445 328.513,101.443 487.938,164.252 53.145,72.4622 53.145,72.4622 91.7895,86.9627 135.271,304.349 135.271,304.349 251.214,502.429 507.265,458.947 1115.9701,724.652 1744.0101,985.53 289.859,62.8086 594.218,86.9627 869.586,193.243 299.532,62.7986 599.055,125.607 903.404,193.243 714.998,86.9627 1347.87,352.667 1937.25,-173.915 265.715,-164.262 502.429,-362.331 782.634,-487.938 173.915,-19.3273 343.004,-33.8177 516.919,-33.8177 415.476,130.434 415.476,130.434 739.153,260.878 352.667,0 599.055,-57.9718 966.213,14.4904 130.434,-14.4904 130.434,-14.4904 531.41,-111.117 256.051,-19.3172 256.051,-19.3172 642.536,-19.3172 434.793,183.579 816.442,599.045 1125.63,951.712 193.243,371.995 400.986,642.526 792.297,821.278 159.425,43.4813 318.85,86.9627 483.101,130.434 512.092,0 903.404,-396.139 1415.5,-212.56 144.934,120.77 285.032,251.214 454.121,323.677 367.158,14.5005 714.998,106.29 1077.33,144.934 159.415,62.7986 159.415,62.7986 304.349,96.6163 207.733,-19.3172 966.213,-159.425 1096.65,38.6545 -4.827,43.4813 -9.664,86.9526 -14.49,135.271 -38.645,14.4904 -77.299,28.9809 -115.944,43.4713 0,38.6545 0,77.299 0,120.78 106.28,77.299 217.397,62.8086 338.177,24.1541 -9.664,-86.9526 -86.963,-202.906 -67.636,-280.195 396.139,-251.214 1014.52,-91.7895 1357.52,178.742 4.827,9.6636 9.654,24.1541 14.491,38.6545 497.602,246.377 1212.59,458.947 855.096,1173.95 -285.032,169.078 -521.756,246.378 -855.096,280.195 -227.06,82.1258 -410.639,96.6263 -603.882,251.214 -38.645,48.3081 -77.299,96.6263 -111.117,144.934 0,135.271 0,270.542 0,405.802 -193.243,642.536 -1000.02,758.48 -1555.59,512.092 0,-9.6637 0,-19.3172 0,-28.9809 -115.944,-67.6354 -207.733,-28.9909 -318.85,19.3172 -314.023,275.378 -570.064,512.092 -937.222,695.671 -396.149,24.1641 -816.452,-86.9526 -1169.12,115.954 -217.397,285.032 -217.397,285.032 -550.737,777.7965 -386.485,212.56 -686.008,347.831 -1130.46,371.985 z"
               class="fil0"
               inkscape:connector-curvature="0" />
          </g>
          <g
             transform="translate(-9.6125208,-105.73772)"
             id="g5879">
            <g
               style="stroke:#dc0067;stroke-opacity:1"
               id="g5616"
               transform="matrix(1.0819582,0,0,1.0819582,-149.82009,-309.23325)">
              <ellipse
                 style="fill:none;stroke:#dc0067;stroke-width:15.34729862;stroke-miterlimit:4;stroke-dasharray:none;stroke-opacity:1"
                 cx="907.87805"
                 cy="576.29681"
                 stroke-miterlimit="4"
                 id="circle3878"
                 rx="315.12744"
                 ry="320.5166" />
              <ellipse
                 ry="416.33188"
                 rx="412.2908"
                 id="ellipse5485"
                 stroke-miterlimit="4"
                 cy="576.29523"
                 cx="906.53369"
                 style="fill:none;stroke:#dc0067;stroke-width:83.03166962;stroke-miterlimit:4;stroke-dasharray:none;stroke-opacity:1" />
            </g>
            <polygon
               inkscape:transform-center-y="12.473066"
               inkscape:transform-center-x="1509.2428"
               id="polygon5867"
               transform="matrix(14.898881,0,0,15.419433,-269.78515,-373.91936)"
               points="75,53 88,53 88,47 75,47 81,41 73,41 64,50 73,59 81,59 "
               style="fill:#ffb400;fill-opacity:1" />
          </g>
        </g>
      </g>
    </g>
  </g>
</svg>
