<?xml version="1.0" encoding="UTF-8" standalone="no"?>
<!-- Created with Inkscape (http://www.inkscape.org/) -->

<svg
   xmlns:dc="http://purl.org/dc/elements/1.1/"
   xmlns:cc="http://creativecommons.org/ns#"
   xmlns:rdf="http://www.w3.org/1999/02/22-rdf-syntax-ns#"
   xmlns:svg="http://www.w3.org/2000/svg"
   xmlns="http://www.w3.org/2000/svg"
   xmlns:sodipodi="http://sodipodi.sourceforge.net/DTD/sodipodi-0.dtd"
   xmlns:inkscape="http://www.inkscape.org/namespaces/inkscape"
   width="564.59528mm"
   height="402.02029mm"
   viewBox="0 0 2000.5344 1424.4814"
   id="svg4939"
   version="1.1"
   inkscape:version="0.91 r13725"
   sodipodi:docname="vorschlag_09_(yasemin)_ .svg">
  <defs
     id="defs4941" />
  <sodipodi:namedview
     id="base"
     pagecolor="#ffffff"
     bordercolor="#666666"
     borderopacity="1.0"
     inkscape:pageopacity="0.0"
     inkscape:pageshadow="2"
     inkscape:zoom="0.2630237"
     inkscape:cx="1713.5608"
     inkscape:cy="383.99962"
     inkscape:document-units="px"
     inkscape:current-layer="layer1"
     showgrid="false"
     showguides="true"
     inkscape:guide-bbox="true"
     fit-margin-top="0"
     fit-margin-left="0"
     fit-margin-right="0"
     fit-margin-bottom="0"
     inkscape:window-width="1920"
     inkscape:window-height="1016"
     inkscape:window-x="0"
     inkscape:window-y="27"
     inkscape:window-maximized="1">
    <sodipodi:guide
       position="2182.3128,577.89472"
       orientation="0,1"
       id="guide5869" />
    <sodipodi:guide
       position="-4.5352708,1475.9146"
       orientation="1,0"
       id="guide5871" />
    <sodipodi:guide
       position="1355.3652,1422.6529"
       orientation="0,1"
       id="guide5873" />
    <sodipodi:guide
       position="1994.8686,857.50922"
       orientation="1,0"
       id="guide5875" />
    <sodipodi:guide
       position="1280.3381,203.8579"
       orientation="0,1"
       id="guide5877" />
    <sodipodi:guide
       position="897.16842,-3.2041732"
       orientation="0,1"
       id="guide5990" />
    <sodipodi:guide
       position="1528.3794,1273.6496"
       orientation="0,1"
       id="guide4246" />
  </sodipodi:namedview>
  <metadata
     id="metadata4944">
    <rdf:RDF>
      <cc:Work
         rdf:about="">
        <dc:format>image/svg+xml</dc:format>
        <dc:type
           rdf:resource="http://purl.org/dc/dcmitype/StillImage" />
        <dc:title />
      </cc:Work>
    </rdf:RDF>
  </metadata>
  <g
     inkscape:label="Ebene 1"
     inkscape:groupmode="layer"
     id="layer1"
     transform="translate(681.15775,187.48634)">
    <flowRoot
       xml:space="preserve"
       id="flowRoot5900"
       style="font-style:normal;font-weight:normal;font-size:40px;line-height:125%;font-family:sans-serif;letter-spacing:0px;word-spacing:0px;fill:#000000;fill-opacity:1;stroke:none;stroke-width:1px;stroke-linecap:butt;stroke-linejoin:miter;stroke-opacity:1"
       transform="translate(-681.15775,-187.48634)"><flowRegion
         id="flowRegion5902"><rect
           id="rect5904"
           width="1999.4039"
           height="179.43582"
           x="-4.5352678"
           y="1220.6235" /></flowRegion><flowPara
         id="flowPara5906"
         style="font-style:normal;font-variant:normal;font-weight:normal;font-stretch:normal;font-family:Lato;-inkscape-font-specification:Lato" /></flowRoot>    <polygon
       style="fill:#ffcc33;fill-opacity:1"
       points="73,41 64,50 73,59 81,59 75,53 88,53 88,47 75,47 81,41 "
       transform="matrix(-10.273184,0,0,10.63212,439.33857,32.097617)"
       id="polygon5366"
       inkscape:transform-center-x="-1040.6641"
       inkscape:transform-center-y="8.6005502" />
    <ellipse
       style="fill:none;stroke:#de2c68;stroke-width:24.51091957;stroke-miterlimit:4;stroke-dasharray:none;stroke-opacity:1"
       cx="-203.7466"
       cy="353.43777"
       stroke-miterlimit="4"
       id="ellipse5364"
       rx="466.23172"
       ry="475.34756" />
    <ellipse
       ry="508.99438"
       rx="500.43616"
       id="circle3878"
       stroke-miterlimit="4"
       cy="305.96786"
       cx="592.70343"
       style="fill:none;stroke:#de2c68;stroke-width:24.37218094;stroke-miterlimit:4;stroke-dasharray:none;stroke-opacity:1" />
    <path
       inkscape:connector-curvature="0"
       id="path3338"
       d="m 603.38818,660.4042 c -6.4859,-1.05968 -12.68126,-2.6258 -13.76829,-3.48054 -1.08652,-0.8546 -7.98713,-6.33065 -15.33441,-12.16908 -15.59015,-12.3883 -28.47096,-18.49035 -41.47112,-19.64625 -5.83853,-0.51922 -10.98621,-2.6297 -13.8229,-5.66731 -2.48582,-2.66247 -9.82067,-6.16737 -16.29988,-7.78913 -13.21923,-3.30881 -16.36883,-6.35615 -20.71237,-20.04104 -2.71909,-8.56753 -4.0773,-9.93743 -13.66032,-13.77976 -17.12519,-6.86654 -25.69918,-11.10223 -34.49239,-17.04035 -4.53968,-3.0656 -9.06702,-5.43344 -10.06049,-5.26173 -0.99335,0.17162 -11.04247,-5.9097 -22.33124,-13.51412 -11.28909,-7.60437 -24.40866,-15.50089 -29.15458,-17.54768 -10.39654,-4.48376 -16.12291,-15.01674 -16.66145,-30.64746 -0.19676,-5.70531 -1.65231,-14.05102 -3.2335,-18.54592 -2.46339,-6.99742 -4.64187,-8.9496 -15.15137,-13.57828 -6.75061,-2.97312 -13.76819,-5.14762 -15.59451,-4.83199 -1.8259,0.31552 -3.9389,-0.12508 -4.69512,-0.97915 -0.75627,-0.85407 -11.01569,-4.42547 -22.79925,-7.93649 -11.7834,-3.51103 -22.82695,-7.58182 -24.54124,-9.0462 -1.71415,-1.46442 -4.65123,-2.41177 -6.52631,-2.10511 -1.87505,0.30668 -5.66769,-0.24968 -8.42795,-1.23596 -21.7855,-7.78523 -32.61779,-12.55018 -45.65976,-20.08542 -32.44324,-18.7449 -33.15285,-19.0401 -63.193,-26.30447 -10.19075,-2.46424 -47.673016,-13.59222 -66.978483,-19.88496 -9.415674,-3.06898 -21.455086,-5.42947 -26.754249,-5.24554 -9.839471,0.34152 -32.024082,-4.51957 -34.767656,-7.61835 -1.951885,-2.20435 -32.547093,-11.50255 -35.926828,-10.9185 -1.406879,0.24315 -9.666333,-1.5857 -18.354057,-4.06413 -17.222654,-4.91333 -30.464699,-14.63266 -36.035163,-26.44916 -1.757288,-3.72753 -4.887966,-7.97136 -6.957122,-9.4308 -5.662759,-3.99387 -27.466682,0.45752 -38.263432,7.81167 -21.43088,14.59726 -30.49173,18.24693 -44.85241,18.06612 -7.39369,-0.0934 -22.95875,0.85646 -34.58892,2.11008 -19.59199,2.11192 -21.92531,1.89017 -31.75403,-3.01824 -9.30908,-4.64862 -11.60352,-4.94726 -18.73003,-2.43792 -4.46695,1.57282 -34.50163,7.25869 -66.74358,12.63523 -58.3176,9.72483 -58.66645,9.81036 -67.1694,16.46124 -4.7012,3.67711 -13.25257,8.7115 -19.00361,11.18759 -11.8028,5.08187 -23.36445,13.16657 -26.1786,18.30595 -5.81976,10.62821 -25.16079,31.66872 -31.1673,33.90612 -3.72464,1.38741 -9.44309,5.31004 -12.70745,8.71696 -3.26451,3.40698 -7.14152,6.40293 -8.61563,6.65769 -1.47426,0.25476 -5.43729,2.87459 -8.80683,5.82187 -3.36944,2.94721 -9.58316,5.9596 -13.80784,6.69409 -5.23414,0.91057 -9.45963,3.44617 -13.26368,7.96106 -3.67379,4.3603 -8.88454,7.56148 -15.24053,9.36294 -5.84717,1.65724 -11.27819,4.82428 -13.76398,8.02615 -5.87092,7.56207 -25.25678,10.8458 -34.51074,5.84565 -3.62278,-1.95759 -9.37045,-3.68476 -12.7727,-3.8382 -3.40184,-0.15428 -8.07281,-1.75623 -10.37946,-3.56173 -2.39017,-1.87077 -8.67858,-3.1281 -14.62091,-2.92337 -12.90156,0.44468 -18.47965,-3.30615 -13.24002,-8.90264 2.77522,-2.96429 7.21667,-4.14765 19.98972,-5.32582 9.03188,-0.83315 18.99888,-1.01313 22.14914,-0.40015 9.91008,1.92851 20.62576,-1.25667 36.75308,-10.92462 8.58783,-5.14816 21.2967,-12.08964 28.24228,-15.42556 6.94513,-3.33586 13.48455,-7.28032 14.53197,-8.76542 1.04775,-1.4853 3.45511,-2.96833 5.3503,-3.29582 1.89516,-0.32754 7.31795,-5.6865 12.05054,-11.90887 4.73262,-6.22232 12.1992,-13.73281 16.5926,-16.69 4.39339,-2.95714 8.44176,-6.5046 8.99607,-7.8831 0.55456,-1.37859 3.49078,-2.93549 6.52529,-3.45989 9.18717,-1.58767 56.83535,-73.01404 55.16294,-82.69145 -0.43476,-2.51567 -3.59602,-6.1966 -7.02487,-8.17995 -3.42882,-1.98338 -8.15111,-4.83828 -10.49407,-6.34429 -2.34307,-1.50601 -7.98535,-2.79153 -12.5384,-2.85677 -4.5532,-0.0652 -10.79102,-1.4762 -13.86208,-3.13551 -3.07087,-1.65934 -8.70858,-3.13642 -12.52848,-3.28238 -3.81986,-0.14594 -8.56218,-1.2095 -10.53867,-2.36332 -1.97652,-1.15383 -7.56259,-2.63013 -12.41373,-3.28065 -4.85119,-0.65047 -10.30478,-2.01148 -12.11906,-3.0244 -3.40933,-1.90332 -15.0593,-5.90203 -31.63471,-10.85822 -5.246,-1.56851 -12.04347,-5.33508 -15.10592,-8.37005 l -5.56812,-5.51812 7.65153,-9.83693 c 8.31614,-10.69138 30.65227,-23.90708 39.33785,-23.27524 26.20341,1.90621 28.25693,2.33907 54.12276,11.41277 17.84623,6.26042 28.01143,6.28965 26.93785,0.0774 -0.55255,-3.19735 -18.87182,-14.33561 -22.53629,-13.70232 -1.86774,0.32276 -21.49291,-8.88211 -24.6049,-11.54047 -2.25162,-1.92351 -2.14246,-3.89431 0.4853,-8.7575 1.86482,-3.45145 4.59421,-6.48337 6.0648,-6.73748 2.86259,-0.49472 19.8361,4.72703 30.336,9.33241 15.37335,6.74297 35.48207,13.35494 63.3541,20.8314 6.21144,1.66612 16.90364,4.56393 23.76036,6.43953 6.85688,1.87556 13.63344,3.20858 15.05905,2.96222 1.42562,-0.24637 6.42929,0.82749 11.11954,2.38629 4.68992,1.55892 9.96697,2.58552 11.72678,2.28142 1.75949,-0.30408 6.8841,0.67194 11.38784,2.16883 4.50389,1.497 12.34784,3.10504 17.43077,3.57358 20.12253,1.85459 58.29355,24.70244 60.25768,36.06806 1.549,8.96327 -4.92875,12.2949 -28.9401,14.88468 l -21.42035,2.31024 -12.17511,-7.58883 c -21.60506,-13.46663 -25.47323,-14.82804 -40.91965,-14.4023 -21.028,0.57954 -20.13844,0.0681 -18.32887,10.53916 2.46879,14.28577 6.46041,18.60631 18.1925,19.69176 5.57887,0.51611 11.88458,1.97313 14.01268,3.23771 2.12795,1.26462 9.56628,2.24085 16.52966,2.16949 6.96325,-0.0714 15.41084,0.48687 18.77244,1.24062 3.46244,0.77628 9.42849,0.17928 13.76278,-1.37727 4.2079,-1.51119 15.51075,-5.17648 25.11754,-8.14517 24.10498,-7.44893 27.46037,-6.31961 42.48719,14.30014 9.46864,12.99263 13.42147,16.64882 21.24985,19.65446 l 9.61733,3.69252 11.1215,-6.83335 c 6.11678,-3.75833 12.98622,-9.14215 15.26529,-11.96401 3.69647,-4.57674 6.51897,-5.48176 26.14295,-8.38282 15.526174,-2.2953 24.138799,-2.57143 29.270889,-0.93846 7.128676,2.26821 54.838905,-1.56989 60.419604,-4.86055 3.864706,-2.27866 1.170888,-11.44104 -5.827875,-19.82392 -3.533362,-4.2322 -7.641577,-11.02588 -9.129425,-15.09708 -3.484277,-9.53378 -18.580739,-22.90062 -37.22685,-32.9616 -8.38243,-4.52288 -16.492381,-10.70923 -18.808178,-14.34693 -2.239219,-3.51756 -6.661969,-8.17307 -9.828041,-10.34566 -5.724064,-3.9278 -6.753064,-6.26602 -19.724484,-44.83177 -5.27981,-15.69825 -12.04569,-23.4463 -26.27758,-30.09219 -36.52288,-17.05521 -35.23101,-16.67841 -51.31211,-14.96518 -16.51359,1.75932 -24.98825,-0.67534 -43.49115,-12.494791 -12.89939,-8.239809 -26.04462,-12.770079 -51.53354,-17.759656 -11.64851,-2.280351 -22.34263,-4.653775 -23.76452,-5.274356 -1.42209,-0.620556 -5.62513,-2.506285 -9.34009,-4.190489 -7.73301,-3.505705 -84.0753,-57.9749352 -84.48517,-60.2790083 -0.14448,-0.836245 -2.77756,-2.60576 -5.84225,-3.93384912 -6.56207,-2.84357708 -12.46464,-17.61163358 -10.004,-25.02991658 0.84253,-2.539999 6.28303,-7.960235 12.09013,-12.044904 8.51331,-5.988198 12.31826,-7.447184 19.64338,-7.532123 10.46025,-0.121302 15.11531,1.595282 35.49337,13.089325 22.12394,12.47879 28.5732,15.661154 30.91736,15.256067 1.16772,-0.201811 5.1682,1.397459 8.88955,3.553947 3.72135,2.1564981 9.24499,4.2431092 12.27491,4.6369382 3.02985,0.393813 7.96225,2.0302671 10.96088,3.6365372 2.99895,1.6062011 8.21447,3.04504908 11.59041,3.19738008 3.37606,0.153053 8.70101,2.20690012 11.83323,4.56586322 3.13236,2.3589341 6.59237,4.1339472 7.68899,3.9444242 1.09649,-0.189482 9.82126,5.0015911 19.38821,11.5357641 30.2902,20.687889 29.20857,20.230657 44.95035,19.000132 9.36368,-0.731978 16.5626,-3.22e-4 20.76416,2.11028 3.53748,1.776848 7.59557,3.029506 9.01794,2.783712 1.42284,-0.245905 6.31367,1.186607 10.86882,3.183281 22.37293,9.806726 31.37726,13.209661 33.83151,12.785519 1.47733,-0.255289 6.55973,1.289578 11.2944,3.433105 4.73482,2.143466 10.917416,3.498217 13.738529,3.010693 2.821593,-0.487612 7.848296,0.582294 11.170631,2.377494 3.322484,1.795213 7.438915,3.022387 9.147433,2.727143 4.065316,-0.702532 21.400614,6.262406 33.141509,13.315532 6.637865,3.98752 10.016608,7.722822 11.79508,13.039446 1.370781,4.09806 4.53394,11.46003 7.029271,16.35987 2.495181,4.89987 5.763338,12.41926 7.262836,16.70968 2.173135,6.219 6.362765,10.29952 20.6609957,20.12317 9.8643043,6.77727 22.4824343,14.2384 28.0402503,16.58024 5.558122,2.34181 14.901344,6.76818 20.762531,9.83638 5.861345,3.0682 14.284762,6.94003 18.718737,8.60407 4.433804,1.66406 12.774538,5.05743 18.534681,7.54084 5.760402,2.4833 18.679496,7.13016 28.709296,10.32622 10.02984,3.19608 20.78458,7.18194 23.89937,8.85751 3.11495,1.67555 7.18423,2.78726 9.04284,2.47053 1.85856,-0.31817 9.51331,1.26466 17.01013,3.51424 7.4968,2.24957 14.66194,3.91556 15.92235,3.70218 1.26004,-0.21473 4.22005,1.12142 6.57678,2.96615 2.35676,1.84481 7.78187,3.40418 12.05552,3.46539 4.2736,0.0613 12.79069,1.72316 18.92689,3.69326 13.70948,4.4015 26.98898,1.3658 43.05869,-9.84322 5.81489,-4.05601 12.25534,-7.67482 14.31236,-8.0419 2.05747,-0.3646 6.92803,-3.02954 10.82435,-5.91656 8.48802,-6.28915 20.31516,-10.34851 41.62849,-14.28783 17.75798,-3.28232 33.53024,-0.41707 40.84848,7.42056 4.16695,4.46214 11.50866,5.93066 42.09731,8.42016 38.15053,3.10499 39.93124,3.05732 49.41937,-1.32244 4.91449,-2.2686 11.64991,-4.59383 14.96759,-5.16718 10.8882,-1.8816 31.66381,6.66014 51.22015,21.05898 17.59344,12.95364 19.05106,14.63633 29.24177,33.75727 7.50445,14.08096 12.32038,20.81533 16.03736,22.42603 5.94061,2.57431 9.31383,7.47094 16.86521,24.4821 4.37616,9.85838 7.36566,13.14477 19.47215,21.40561 12.93452,8.82596 17.99067,11.33577 35.3903,17.5678 14.54516,5.20941 42.39902,-1.77568 55.19143,-13.84095 6.77429,-6.38906 9.91874,-7.98192 15.59735,-7.90056 8.2645,0.11832 21.44809,9.01369 24.83843,16.75944 1.29019,2.94771 4.42471,6.6757 6.96552,8.28452 2.54086,1.60865 4.83274,4.15763 5.09319,5.66444 0.90472,5.23528 9.85196,6.15546 23.27578,2.3937 12.02079,-3.36852 13.15775,-3.31964 16.25037,0.6994 4.28822,5.57213 7.24215,6.80172 13.7393,5.71955 3.32213,-0.55205 9.73989,1.98952 17.30797,6.8576 l 12.02841,7.73697 26.75835,-3.0133 c 24.80007,-2.79282 27.39134,-2.68335 35.40586,1.49404 4.75609,2.47898 8.4831,5.65879 8.28206,7.06636 -0.20104,1.40747 -3.59827,4.85174 -7.54916,7.65369 -9.62764,6.82812 -7.80532,12.30642 3.74883,11.26959 7.40557,-0.66436 8.92224,-1.7493 13.54543,-9.689 3.40266,-5.84439 8.24618,-10.4536 13.98406,-13.30829 20.36936,-10.13396 35.78954,-6.56836 54.12689,12.51608 6.82669,7.10469 16.1866,15.1733 20.7999,17.9301 4.613,2.75679 15.4269,9.12703 24.0306,14.15591 16.4132,9.59372 21.0883,15.30449 23.3785,28.55693 1.0222,5.9152 0.09,10.09164 -3.5511,15.90859 l -4.9373,7.88759 -36.2202,6.34999 c -19.92081,3.49309 -37.40319,6.75578 -38.84887,7.25218 -1.44616,0.4963 -6.35182,5.76179 -10.90173,11.70112 -9.08743,11.86123 -23.66576,24.87631 -28.87281,25.77613 -1.82837,0.31604 -5.58214,-1.45844 -8.34133,-3.94341 -2.75885,-2.48491 -6.59141,-4.24591 -8.51594,-3.91323 -4.34963,0.75161 -14.74699,16.16184 -18.0963,26.82095 -1.3778,4.38452 -4.99662,11.31031 -8.04192,15.39053 l -5.53731,7.41906 -9.92801,-7.97717 c -9.64081,-7.74681 -9.95571,-8.33035 -10.9018,-20.19432 l -0.97381,-12.21714 -6.2424,1.07884 c -3.43338,0.59349 -6.10211,1.89238 -5.93016,2.88659 0.54121,3.13167 -16.86758,26.76844 -23.22303,31.53159 -3.34432,2.5064 -9.37751,8.81411 -13.40695,14.01688 -11.40385,14.72473 -19.86488,16.79685 -49.26531,12.06481 -12.59593,-2.02725 -16.70747,-3.76948 -21.88799,-9.27434 -6.22257,-6.61218 -14.68983,-8.11388 -16.75834,-2.97222 -0.4784,1.18945 -4.19034,2.19675 -8.24881,2.23814 -6.74507,0.0693 -7.41473,0.61343 -7.79566,6.33565 -0.22925,3.44275 -1.62439,8.89168 -3.10093,12.10849 -1.47614,3.21706 -3.2142,9.54463 -3.86218,14.06173 -1.62842,11.34993 -15.8581,27.03506 -29.59694,32.62339 -5.77094,2.34726 -19.3019,6.57552 -30.0691,9.3956 -10.76704,2.82049 -20.89131,5.93287 -22.49858,6.91638 -1.60685,0.98361 -8.22823,0.92151 -14.71382,-0.13782 z"
       style="fill:#009ee0;fill-opacity:1;stroke:#ffffff;stroke-width:4.71129274;stroke-linecap:square;stroke-linejoin:miter;stroke-miterlimit:4;stroke-dasharray:none" />
    <ellipse
       style="fill:none;stroke:#de2c68;stroke-width:131.85792542;stroke-miterlimit:4;stroke-dasharray:none;stroke-opacity:1"
       cx="590.56854"
       cy="305.96536"
       stroke-miterlimit="4"
       id="ellipse5485"
       rx="654.73584"
       ry="661.1532" />
    <polygon
       inkscape:transform-center-y="15.548524"
       inkscape:transform-center-x="1881.3738"
       id="polygon5867"
       transform="matrix(18.572468,0,0,19.221372,-702.31127,-937.51277)"
       points="81,59 75,53 88,53 88,47 75,47 81,41 73,41 64,50 73,59 "
       style="fill:#ffcc33;fill-opacity:1" />
    <path
       d="m -650.19584,1202.5581 q 4.30288,6.2279 9.3229,8.7924 5.12248,2.5644 10.7572,2.5644 5.83961,0 10.44984,-2.4423 4.71267,-2.5645 7.99106,-7.8155 3.27838,-5.3731 5.02002,-13.5549 1.74164,-8.304 1.74164,-19.783 0,-20.6377 -5.73717,-29.7965 -5.73717,-9.2809 -16.49436,-9.2809 -7.27391,0 -12.70373,4.0299 -5.42982,3.9077 -10.3474,11.1126 l 0,56.1738 z m 0,-77.4221 q 6.35187,-7.9376 14.03558,-12.578 7.78616,-4.7626 17.72375,-4.7626 9.118,0 16.39191,4.2741 7.37637,4.2741 12.49884,12.3338 5.22492,7.9376 7.99105,19.2945 2.76614,11.3568 2.76614,25.5224 0,15.2646 -3.17593,27.7205 -3.17594,12.4559 -9.118,21.3704 -5.83962,8.7925 -14.13803,13.6771 -8.2984,4.8847 -18.4409,4.8847 -4.91757,0 -8.9131,-1.2212 -3.99553,-1.099 -7.37636,-3.175 -3.38083,-2.076 -6.24942,-5.0068 -2.76613,-3.0529 -5.32737,-6.7164 l -1.12694,8.426 q -0.6147,3.1751 -2.15144,4.5184 -1.43429,1.3433 -3.99553,1.3433 l -16.69926,0 0,-181.4657 25.30501,0 0,71.5605 z"
       style="font-style:normal;font-variant:normal;font-weight:bold;font-stretch:normal;font-size:200px;line-height:100%;font-family:Lato;-inkscape-font-specification:'Lato Bold';letter-spacing:0px;word-spacing:0px;fill:#009ee0;fill-opacity:1;stroke:none;stroke-width:1px;stroke-linecap:butt;stroke-linejoin:miter;stroke-opacity:1"
       id="path3419"
       inkscape:connector-curvature="0" />
    <path
       d="m -512.53258,1107.7954 q 11.67923,0 21.20703,4.5183 9.63025,4.5184 16.39191,12.8223 6.86412,8.3039 10.5523,20.2714 3.68818,11.9674 3.68818,26.7436 0,14.8982 -3.68818,26.8657 -3.68818,11.9674 -10.5523,20.3935 -6.76166,8.4261 -16.39191,12.9444 -9.5278,4.5183 -21.20703,4.5183 -11.78169,0 -21.41194,-4.5183 -9.63025,-4.5183 -16.49436,-12.9444 -6.76166,-8.4261 -10.55229,-20.3935 -3.68818,-11.9675 -3.68818,-26.8657 0,-14.7762 3.68818,-26.7436 3.79063,-11.9675 10.55229,-20.2714 6.86411,-8.3039 16.49436,-12.8223 9.63025,-4.5183 21.41194,-4.5183 z m 0,105.8753 q 13.11353,0 19.36294,-10.502 6.35187,-10.5021 6.35187,-30.7735 0,-20.2714 -6.35187,-30.8955 -6.24941,-10.6242 -19.36294,-10.6242 -13.31843,0 -19.77275,10.7463 -6.35186,10.6241 -6.35186,30.7734 0,20.1493 6.35186,30.7735 6.45432,10.502 19.77275,10.502 z"
       style="font-style:normal;font-variant:normal;font-weight:bold;font-stretch:normal;font-size:200px;line-height:100%;font-family:Lato;-inkscape-font-specification:'Lato Bold';letter-spacing:0px;word-spacing:0px;fill:#009ee0;fill-opacity:1;stroke:none;stroke-width:1px;stroke-linecap:butt;stroke-linejoin:miter;stroke-opacity:1"
       id="path3421"
       inkscape:connector-curvature="0" />
    <path
       d="m -375.4104,1141.7439 q -4.30288,-6.228 -9.42535,-8.7924 -5.02002,-2.5645 -10.85964,-2.5645 -5.73717,0 -10.34739,2.5645 -4.61023,2.5644 -7.88861,7.8155 -3.27838,5.1289 -5.02003,13.1886 -1.74164,7.9376 -1.74164,18.806 0,10.9905 1.4343,18.6838 1.53674,7.5713 4.30287,12.456 2.76614,4.7625 6.76167,6.9606 3.99553,2.076 8.9131,2.076 7.88861,0 13.42088,-3.9077 5.53227,-3.9078 10.44984,-11.1127 l 0,-56.1737 z m 25.30502,-88.1684 0,181.4657 -15.46987,0 q -5.02002,0 -6.35187,-5.4953 l -2.15144,-12.0896 q -6.35186,8.6703 -14.65027,14.0435 -8.19595,5.3731 -19.15804,5.3731 -8.60576,0 -15.77722,-4.2741 -7.17146,-4.2741 -12.39638,-12.3338 -5.12248,-8.1818 -7.99106,-20.1493 -2.76614,-11.9674 -2.76614,-27.3541 0,-13.9214 3.17594,-25.8888 3.17593,-11.9675 9.118,-20.7599 5.94207,-8.7924 14.24047,-13.677 8.29841,-5.0068 18.6458,-5.0068 8.81065,0 15.06007,3.2971 6.24942,3.2972 11.16699,8.9145 l 0,-66.0652 25.30502,0 z"
       style="font-style:normal;font-variant:normal;font-weight:bold;font-stretch:normal;font-size:200px;line-height:100%;font-family:Lato;-inkscape-font-specification:'Lato Bold';letter-spacing:0px;word-spacing:0px;fill:#009ee0;fill-opacity:1;stroke:none;stroke-width:1px;stroke-linecap:butt;stroke-linejoin:miter;stroke-opacity:1"
       id="path3423"
       inkscape:connector-curvature="0" />
    <path
       d="m -257.21255,1157.9854 q 0,-5.8616 -1.43429,-10.9905 -1.33185,-5.251 -4.09798,-9.1587 -2.76614,-3.9078 -7.06901,-6.1059 -4.20043,-2.3202 -9.83515,-2.3202 -10.96209,0 -17.31396,7.4491 -6.24942,7.4491 -7.99106,21.1262 l 47.74145,0 z m -48.25369,18.1954 q 0.61469,9.6473 2.86858,16.73 2.25389,6.9607 5.94207,11.6011 3.68818,4.5184 8.7082,6.8386 5.12247,2.1981 11.26944,2.1981 6.14697,0 10.5523,-1.7096 4.50777,-1.7097 7.78615,-3.7857 3.38084,-2.076 5.83962,-3.7856 2.56124,-1.7096 4.91758,-1.7096 3.17593,0 4.71267,2.8087 l 7.27391,10.9905 q -4.20043,5.8616 -9.42535,9.8914 -5.22492,3.9078 -10.96209,6.3501 -5.63472,2.3202 -11.57679,3.2972 -5.83962,0.9769 -11.37189,0.9769 -10.96209,0 -20.38744,-4.2741 -9.42535,-4.3962 -16.39191,-12.8223 -6.96656,-8.5481 -10.96209,-21.004 -3.99553,-12.5781 -3.99553,-29.0639 0,-12.8222 3.48328,-24.057 3.48328,-11.3568 9.9376,-19.6608 6.55676,-8.426 15.87966,-13.3107 9.42535,-4.8847 21.20704,-4.8847 9.9376,0 18.33845,3.7856 8.40086,3.7857 14.44537,11.1127 6.04452,7.2049 9.42535,17.829 3.48329,10.5021 3.48329,24.057 0,6.8386 -1.2294,9.2809 -1.22939,2.3202 -4.71267,2.3202 l -65.0554,0 z"
       style="font-style:normal;font-variant:normal;font-weight:bold;font-stretch:normal;font-size:200px;line-height:100%;font-family:Lato;-inkscape-font-specification:'Lato Bold';letter-spacing:0px;word-spacing:0px;fill:#009ee0;fill-opacity:1;stroke:none;stroke-width:1px;stroke-linecap:butt;stroke-linejoin:miter;stroke-opacity:1"
       id="path3425"
       inkscape:connector-curvature="0" />
    <path
       d="m -192.01308,1125.136 q 3.17594,-3.7856 6.65922,-6.9607 3.58573,-3.2971 7.47881,-5.4952 3.99553,-2.3202 8.5033,-3.5414 4.50778,-1.3433 9.83515,-1.3433 8.60575,0 15.26497,3.5414 6.65921,3.4193 11.06454,9.7693 4.50777,6.228 6.76166,15.0204 2.35634,8.6703 2.35634,19.1724 l 0,79.7423 -25.30502,0 0,-79.7423 q 0,-11.479 -4.40532,-17.707 -4.40533,-6.3501 -13.42088,-6.3501 -6.55677,0 -12.29393,3.5414 -5.73717,3.5414 -10.85965,9.6473 l 0,90.6107 -25.30501,0 0,-125.2919 15.46987,0 q 4.91757,0 6.45431,5.4952 l 1.74164,9.8915 z"
       style="font-style:normal;font-variant:normal;font-weight:bold;font-stretch:normal;font-size:200px;line-height:100%;font-family:Lato;-inkscape-font-specification:'Lato Bold';letter-spacing:0px;word-spacing:0px;fill:#009ee0;fill-opacity:1;stroke:none;stroke-width:1px;stroke-linecap:butt;stroke-linejoin:miter;stroke-opacity:1"
       id="path3427"
       inkscape:connector-curvature="0" />
    <path
       d="m -35.889725,1134.1726 q -1.024495,1.9539 -2.151439,2.8087 -1.126944,0.7327 -2.868584,0.7327 -1.84409,0 -3.995529,-1.2211 -2.048989,-1.2212 -4.815124,-2.6866 -2.766135,-1.5875 -6.351866,-2.8087 -3.483281,-1.2212 -8.298405,-1.2212 -7.47881,0 -11.781687,3.7857 -4.200427,3.7856 -4.200427,9.8914 0,4.0299 2.151438,6.8386 2.253888,2.6865 5.839619,4.7625 3.68818,2.076 8.298405,3.7856 4.610225,1.5876 9.3229,3.5414 4.815124,1.9539 9.425349,4.5184 4.610226,2.4423 8.195956,6.35 3.688181,3.7857 5.839619,9.1588 2.253888,5.3731 2.253888,12.9444 0,9.0366 -2.766135,16.73 -2.663686,7.5712 -7.991057,13.1886 -5.327372,5.4953 -13.215979,8.6703 -7.786158,3.0529 -18.031103,3.0529 -5.429821,0 -10.654743,-1.2211 -5.122473,-1.0991 -9.937597,-3.1751 -4.712675,-2.076 -8.810654,-4.8847 -3.99553,-2.8086 -7.06901,-6.1058 l 5.83962,-11.479 q 1.12694,-2.076 2.663684,-3.175 1.536741,-1.0991 3.893079,-1.0991 2.356337,0 4.405326,1.5875 2.151439,1.5876 4.917574,3.4193 2.766135,1.8318 6.454315,3.4193 3.79063,1.5875 9.527799,1.5875 4.507776,0 7.683709,-1.2212 3.278382,-1.3432 5.327371,-3.4192 2.151439,-2.076 3.073484,-4.7626 1.024494,-2.8087 1.024494,-5.7395 0,-4.3962 -2.253888,-7.2049 -2.151438,-2.8087 -5.839618,-4.8846 -3.585731,-2.076 -8.298406,-3.6636 -4.610225,-1.7096 -9.527799,-3.6635 -4.815124,-1.9538 -9.527799,-4.5183 -4.610225,-2.6865 -8.298405,-6.7164 -3.58573,-4.0299 -5.83962,-9.8915 -2.15144,-5.8616 -2.15144,-14.1655 0,-7.6934 2.56124,-14.654 2.561235,-6.9607 7.478809,-12.0896 5.020023,-5.251 12.396383,-8.3039 7.47881,-3.1751 17.211508,-3.1751 10.859642,0 19.772744,4.2741 8.913102,4.2741 14.85517,11.2348 l -5.737169,10.8683 z"
       style="font-style:normal;font-variant:normal;font-weight:bold;font-stretch:normal;font-size:200px;line-height:100%;font-family:Lato;-inkscape-font-specification:'Lato Bold';letter-spacing:0px;word-spacing:0px;fill:#009ee0;fill-opacity:1;stroke:none;stroke-width:1px;stroke-linecap:butt;stroke-linejoin:miter;stroke-opacity:1"
       id="path3429"
       inkscape:connector-curvature="0" />
    <path
       d="m 57.739473,1157.9854 q 0,-5.8616 -1.434293,-10.9905 -1.331842,-5.251 -4.097978,-9.1587 -2.766135,-3.9078 -7.069012,-6.1059 -4.200427,-2.3202 -9.835147,-2.3202 -10.962091,0 -17.313957,7.4491 -6.249416,7.4491 -7.991057,21.1262 l 47.741444,0 z m -48.2536913,18.1954 q 0.6146963,9.6473 2.8685843,16.73 2.253888,6.9607 5.942068,11.6011 3.688181,4.5184 8.708204,6.8386 5.122472,2.1981 11.269439,2.1981 6.146967,0 10.552294,-1.7096 4.507775,-1.7097 7.786158,-3.7857 3.380832,-2.076 5.839618,-3.7856 2.561237,-1.7096 4.917574,-1.7096 3.175933,0 4.712675,2.8087 l 7.273911,10.9905 q -4.200428,5.8616 -9.42535,9.8914 -5.224922,3.9078 -10.962091,6.3501 -5.63472,2.3202 -11.576788,3.2972 -5.839618,0.9769 -11.371889,0.9769 -10.962091,0 -20.38744,-4.2741 -9.4253497,-4.3962 -16.3919123,-12.8223 -6.9665626,-8.5481 -10.9620907,-21.004 -3.995529,-12.5781 -3.995529,-29.0639 0,-12.8222 3.483281,-24.057 3.4832816,-11.3568 9.937597,-19.6608 6.5567648,-8.426 15.879665,-13.3107 9.425349,-4.8847 21.207036,-4.8847 9.937597,0 18.338451,3.7856 8.400855,3.7857 14.445373,11.1127 6.044517,7.2049 9.425349,17.829 3.483282,10.5021 3.483282,24.057 0,6.8386 -1.229394,9.2809 -1.229393,2.3202 -4.712675,2.3202 l -65.0554003,0 z"
       style="font-style:normal;font-variant:normal;font-weight:bold;font-stretch:normal;font-size:200px;line-height:100%;font-family:Lato;-inkscape-font-specification:'Lato Bold';letter-spacing:0px;word-spacing:0px;fill:#009ee0;fill-opacity:1;stroke:none;stroke-width:1px;stroke-linecap:butt;stroke-linejoin:miter;stroke-opacity:1"
       id="path3431"
       inkscape:connector-curvature="0" />
    <path
       d="m 166.9922,1157.9854 q 0,-5.8616 -1.43429,-10.9905 -1.33184,-5.251 -4.09798,-9.1587 -2.76613,-3.9078 -7.06901,-6.1059 -4.20043,-2.3202 -9.83515,-2.3202 -10.96209,0 -17.31396,7.4491 -6.24941,7.4491 -7.99105,21.1262 l 47.74144,0 z m -48.25369,18.1954 q 0.6147,9.6473 2.86858,16.73 2.25389,6.9607 5.94207,11.6011 3.68818,4.5184 8.70821,6.8386 5.12247,2.1981 11.26944,2.1981 6.14696,0 10.55229,-1.7096 4.50777,-1.7097 7.78616,-3.7857 3.38083,-2.076 5.83962,-3.7856 2.56123,-1.7096 4.91757,-1.7096 3.17593,0 4.71267,2.8087 l 7.27392,10.9905 q -4.20043,5.8616 -9.42535,9.8914 -5.22493,3.9078 -10.9621,6.3501 -5.63472,2.3202 -11.57678,3.2972 -5.83962,0.9769 -11.37189,0.9769 -10.96209,0 -20.38744,-4.2741 -9.42535,-4.3962 -16.39191,-12.8223 -6.96657,-8.5481 -10.962096,-21.004 -3.995528,-12.5781 -3.995528,-29.0639 0,-12.8222 3.483281,-24.057 3.483283,-11.3568 9.937593,-19.6608 6.55677,-8.426 15.87967,-13.3107 9.42535,-4.8847 21.20703,-4.8847 9.9376,0 18.33846,3.7856 8.40085,3.7857 14.44537,11.1127 6.04452,7.2049 9.42535,17.829 3.48328,10.5021 3.48328,24.057 0,6.8386 -1.22939,9.2809 -1.2294,2.3202 -4.71268,2.3202 l -65.0554,0 z"
       style="font-style:normal;font-variant:normal;font-weight:bold;font-stretch:normal;font-size:200px;line-height:100%;font-family:Lato;-inkscape-font-specification:'Lato Bold';letter-spacing:0px;word-spacing:0px;fill:#009ee0;fill-opacity:1;stroke:none;stroke-width:1px;stroke-linecap:butt;stroke-linejoin:miter;stroke-opacity:1"
       id="path3433"
       inkscape:connector-curvature="0" />
    <path
       d="m 204.83767,1218.4333 q 0,-3.7857 1.12695,-7.2049 1.22939,-3.4193 3.27838,-5.8616 2.04899,-2.4424 4.91757,-3.9078 2.86859,-1.4654 6.14697,-1.4654 3.27838,0 6.04452,1.4654 2.86858,1.4654 4.91757,3.9078 2.15144,2.4423 3.38083,5.8616 1.2294,3.4192 1.2294,7.2049 0,3.9077 -1.2294,7.327 -1.22939,3.2971 -3.38083,5.7395 -2.04899,2.4423 -4.91757,3.7856 -2.76614,1.4654 -6.04452,1.4654 -3.27838,0 -6.14697,-1.4654 -2.86858,-1.3433 -4.91757,-3.7856 -2.04899,-2.4424 -3.27838,-5.7395 -1.12695,-3.4193 -1.12695,-7.327 z"
       style="font-style:normal;font-variant:normal;font-weight:bold;font-stretch:normal;font-size:200px;line-height:100%;font-family:Lato;-inkscape-font-specification:'Lato Bold';text-align:start;letter-spacing:0px;word-spacing:0px;writing-mode:lr-tb;text-anchor:start;fill:#000000;fill-opacity:1;stroke:none;stroke-width:1px;stroke-linecap:butt;stroke-linejoin:miter;stroke-opacity:1"
       id="path3435"
       inkscape:connector-curvature="0" />
    <path
       d="m 264.72578,1235.0412 0,-102.5782 -9.118,-1.7096 q -2.97103,-0.7327 -4.81513,-2.4424 -1.74164,-1.8317 -1.74164,-5.1289 l 0,-12.3338 15.67477,0 0,-9.2808 q 0,-10.7463 2.66369,-19.2945 2.76613,-8.5482 7.78615,-14.5319 5.12248,-5.9837 12.39639,-9.1588 7.27391,-3.175 16.39188,-3.175 7.27391,0 13.52333,2.3202 l -0.51225,15.1425 q -0.10245,1.7096 -0.8196,2.8087 -0.71714,0.9769 -1.94654,1.5875 -1.12694,0.4885 -2.66368,0.7327 -1.53674,0.1221 -3.27838,0.1221 -4.50775,0 -8.09348,1.2212 -3.48328,1.099 -5.94207,4.0298 -2.45879,2.8087 -3.79063,7.5713 -1.22939,4.6404 -1.22939,11.6011 l 0,8.3039 27.35397,0 0,21.4926 -26.53438,0 0,102.7003 -25.30501,0 z"
       style="font-style:normal;font-variant:normal;font-weight:bold;font-stretch:normal;font-size:200px;line-height:100%;font-family:Lato;-inkscape-font-specification:'Lato Bold';letter-spacing:0px;word-spacing:0px;fill:#de2c68;fill-opacity:1;stroke:none;stroke-width:1px;stroke-linecap:butt;stroke-linejoin:miter;stroke-opacity:1"
       id="path3437"
       inkscape:connector-curvature="0" />
    <path
       d="m 354.85565,1131.4861 q 4.91758,-11.2348 11.67924,-17.5848 6.76166,-6.4722 15.98211,-6.4722 7.27392,0 11.67924,3.7856 l -1.63919,22.5916 q -0.51225,2.1981 -1.53674,3.175 -0.92205,0.8549 -2.56124,0.8549 -1.53674,0 -4.61022,-0.6106 -2.97104,-0.6106 -5.83962,-0.6106 -4.20043,0 -7.47881,1.4654 -3.27838,1.4654 -5.94207,4.2741 -2.56124,2.6865 -4.61022,6.5943 -1.94654,3.9077 -3.68818,8.9145 l 0,77.1779 -25.30502,0 0,-125.2919 14.85517,0 q 3.89308,0 5.42982,1.7096 1.53674,1.5875 2.04899,5.8616 l 1.53674,14.1656 z"
       style="font-style:normal;font-variant:normal;font-weight:bold;font-stretch:normal;font-size:200px;line-height:100%;font-family:Lato;-inkscape-font-specification:'Lato Bold';letter-spacing:0px;word-spacing:0px;fill:#de2c68;fill-opacity:1;stroke:none;stroke-width:1px;stroke-linecap:butt;stroke-linejoin:miter;stroke-opacity:1"
       id="path3439"
       inkscape:connector-curvature="0" />
    <path
       d="m 472.33956,1157.9854 q 0,-5.8616 -1.43429,-10.9905 -1.33185,-5.251 -4.09798,-9.1587 -2.76614,-3.9078 -7.06901,-6.1059 -4.20043,-2.3202 -9.83515,-2.3202 -10.96209,0 -17.31396,7.4491 -6.24941,7.4491 -7.99105,21.1262 l 47.74144,0 z m -48.25369,18.1954 q 0.6147,9.6473 2.86858,16.73 2.25389,6.9607 5.94207,11.6011 3.68818,4.5184 8.7082,6.8386 5.12248,2.1981 11.26944,2.1981 6.14697,0 10.5523,-1.7096 4.50777,-1.7097 7.78616,-3.7857 3.38083,-2.076 5.83961,-3.7856 2.56124,-1.7096 4.91758,-1.7096 3.17593,0 4.71267,2.8087 l 7.27391,10.9905 q -4.20042,5.8616 -9.42535,9.8914 -5.22492,3.9078 -10.96209,6.3501 -5.63472,2.3202 -11.57678,3.2972 -5.83962,0.9769 -11.37189,0.9769 -10.96209,0 -20.38744,-4.2741 -9.42535,-4.3962 -16.39192,-12.8223 -6.96656,-8.5481 -10.96209,-21.004 -3.99553,-12.5781 -3.99553,-29.0639 0,-12.8222 3.48329,-24.057 3.48328,-11.3568 9.93759,-19.6608 6.55677,-8.426 15.87967,-13.3107 9.42535,-4.8847 21.20703,-4.8847 9.9376,0 18.33845,3.7856 8.40086,3.7857 14.44538,11.1127 6.04451,7.2049 9.42535,17.829 3.48328,10.5021 3.48328,24.057 0,6.8386 -1.2294,9.2809 -1.22939,2.3202 -4.71267,2.3202 l -65.0554,0 z"
       style="font-style:normal;font-variant:normal;font-weight:bold;font-stretch:normal;font-size:200px;line-height:100%;font-family:Lato;-inkscape-font-specification:'Lato Bold';letter-spacing:0px;word-spacing:0px;fill:#de2c68;fill-opacity:1;stroke:none;stroke-width:1px;stroke-linecap:butt;stroke-linejoin:miter;stroke-opacity:1"
       id="path3441"
       inkscape:connector-curvature="0" />
    <path
       d="m 540.10034,1109.7493 0,125.2919 -25.40746,0 0,-125.2919 25.40746,0 z m 3.48328,-36.5129 q 0,3.9077 -1.33184,7.327 -1.33184,3.4192 -3.58573,5.9837 -2.15144,2.5644 -5.12247,4.152 -2.97104,1.4654 -6.35187,1.4654 -3.27838,0 -6.24941,-1.4654 -2.86859,-1.5876 -5.02003,-4.152 -2.15144,-2.5645 -3.48328,-5.9837 -1.22939,-3.4193 -1.22939,-7.327 0,-4.0299 1.22939,-7.5713 1.33184,-3.5414 3.48328,-6.1058 2.15144,-2.5645 5.02003,-4.0299 2.97103,-1.5875 6.24941,-1.5875 3.38083,0 6.35187,1.5875 2.97103,1.4654 5.12247,4.0299 2.25389,2.5644 3.58573,6.1058 1.33184,3.5414 1.33184,7.5713 z"
       style="font-style:normal;font-variant:normal;font-weight:bold;font-stretch:normal;font-size:200px;line-height:100%;font-family:Lato;-inkscape-font-specification:'Lato Bold';letter-spacing:0px;word-spacing:0px;fill:#de2c68;fill-opacity:1;stroke:none;stroke-width:1px;stroke-linecap:butt;stroke-linejoin:miter;stroke-opacity:1"
       id="path3443"
       inkscape:connector-curvature="0" />
    <path
       d="m 573.2747,1235.0412 0,-102.5782 -9.118,-1.7096 q -2.97103,-0.7327 -4.81512,-2.4424 -1.74164,-1.8317 -1.74164,-5.1289 l 0,-12.3338 15.67476,0 0,-9.2808 q 0,-10.7463 2.66369,-19.2945 2.76614,-8.5482 7.78616,-14.5319 5.12247,-5.9837 12.39638,-9.1588 7.27391,-3.175 16.39191,-3.175 7.27391,0 13.52333,2.3202 l -0.51225,15.1425 q -0.10245,1.7096 -0.81959,2.8087 -0.71715,0.9769 -1.94654,1.5875 -1.12695,0.4885 -2.66369,0.7327 -1.53674,0.1221 -3.27838,0.1221 -4.50777,0 -8.09351,1.2212 -3.48328,1.099 -5.94206,4.0298 -2.45879,2.8087 -3.79063,7.5713 -1.2294,4.6404 -1.2294,11.6011 l 0,8.3039 27.35401,0 0,21.4926 -26.53441,0 0,102.7003 -25.30502,0 z"
       style="font-style:normal;font-variant:normal;font-weight:bold;font-stretch:normal;font-size:200px;line-height:100%;font-family:Lato;-inkscape-font-specification:'Lato Bold';letter-spacing:0px;word-spacing:0px;fill:#de2c68;fill-opacity:1;stroke:none;stroke-width:1px;stroke-linecap:butt;stroke-linejoin:miter;stroke-opacity:1"
       id="path3445"
       inkscape:connector-curvature="0" />
    <path
       d="m 730.0992,1109.7493 0,125.2919 -15.46987,0 q -5.02002,0 -6.35186,-5.4953 l -1.74164,-10.0136 q -6.45432,7.8155 -14.24048,12.7002 -7.78616,4.7625 -18.33845,4.7625 -8.60575,0 -15.26497,-3.4193 -6.55676,-3.5413 -11.06454,-9.8914 -4.50777,-6.3501 -6.86411,-15.0204 -2.25389,-8.7924 -2.25389,-19.2944 l 0,-79.6202 25.30502,0 0,79.6202 q 0,11.4789 4.40532,17.829 4.50778,6.228 13.42088,6.228 6.55677,0 12.29393,-3.4193 5.73717,-3.5414 10.85965,-9.6472 l 0,-90.6107 25.30501,0 z"
       style="font-style:normal;font-variant:normal;font-weight:bold;font-stretch:normal;font-size:200px;line-height:100%;font-family:Lato;-inkscape-font-specification:'Lato Bold';letter-spacing:0px;word-spacing:0px;fill:#de2c68;fill-opacity:1;stroke:none;stroke-width:1px;stroke-linecap:butt;stroke-linejoin:miter;stroke-opacity:1"
       id="path3447"
       inkscape:connector-curvature="0" />
    <path
       d="m 778.85551,1125.136 q 3.17593,-3.7856 6.65921,-6.9607 3.58573,-3.2971 7.47881,-5.4952 3.99553,-2.3202 8.50331,-3.5414 4.50777,-1.3433 9.83514,-1.3433 8.60576,0 15.26497,3.5414 6.65922,3.4193 11.06454,9.7693 4.50778,6.228 6.76167,15.0204 2.35633,8.6703 2.35633,19.1724 l 0,79.7423 -25.30501,0 0,-79.7423 q 0,-11.479 -4.40533,-17.707 -4.40532,-6.3501 -13.42087,-6.3501 -6.55677,0 -12.29394,3.5414 -5.73717,3.5414 -10.85964,9.6473 l 0,90.6107 -25.30501,0 0,-125.2919 15.46986,0 q 4.91758,0 6.45432,5.4952 l 1.74164,9.8915 z"
       style="font-style:normal;font-variant:normal;font-weight:bold;font-stretch:normal;font-size:200px;line-height:100%;font-family:Lato;-inkscape-font-specification:'Lato Bold';letter-spacing:0px;word-spacing:0px;fill:#de2c68;fill-opacity:1;stroke:none;stroke-width:1px;stroke-linecap:butt;stroke-linejoin:miter;stroke-opacity:1"
       id="path3449"
       inkscape:connector-curvature="0" />
    <path
       d="m 896.1506,1053.5755 0,103.9215 4.71268,0 q 2.56123,0 3.99552,-0.7327 1.53675,-0.8549 3.07349,-3.2972 l 26.12461,-38.4668 q 1.63919,-2.5644 3.58573,-3.9077 2.04899,-1.3433 5.22492,-1.3433 l 23.15358,0 -32.68138,46.5265 q -3.48328,5.4953 -7.58126,8.4261 2.15144,1.8317 3.79063,4.274 1.74164,2.4424 3.27838,5.2511 l 35.03772,60.8142 -22.84623,0 q -2.97104,0 -5.12247,-1.0991 -2.15144,-1.2212 -3.58574,-4.2741 l -26.84175,-47.5034 q -1.43429,-2.8087 -2.97103,-3.6635 -1.53675,-0.8549 -4.61023,-0.8549 l -5.73717,0 0,57.395 -25.30501,0 0,-181.4657 25.30501,0 z"
       style="font-style:normal;font-variant:normal;font-weight:bold;font-stretch:normal;font-size:200px;line-height:100%;font-family:Lato;-inkscape-font-specification:'Lato Bold';letter-spacing:0px;word-spacing:0px;fill:#de2c68;fill-opacity:1;stroke:none;stroke-width:1px;stroke-linecap:butt;stroke-linejoin:miter;stroke-opacity:1"
       id="path3451"
       inkscape:connector-curvature="0" />
    <path
       d="m 976.81028,1218.4333 q 0,-3.7857 1.12695,-7.2049 1.22939,-3.4193 3.27838,-5.8616 2.04899,-2.4424 4.91757,-3.9078 2.86859,-1.4654 6.14697,-1.4654 3.27838,0 6.04452,1.4654 2.86863,1.4654 4.91753,3.9078 2.1515,2.4423 3.3809,5.8616 1.2294,3.4192 1.2294,7.2049 0,3.9077 -1.2294,7.327 -1.2294,3.2971 -3.3809,5.7395 -2.0489,2.4423 -4.91753,3.7856 -2.76614,1.4654 -6.04452,1.4654 -3.27838,0 -6.14697,-1.4654 -2.86858,-1.3433 -4.91757,-3.7856 -2.04899,-2.4424 -3.27838,-5.7395 -1.12695,-3.4193 -1.12695,-7.327 z"
       style="font-style:normal;font-variant:normal;font-weight:bold;font-stretch:normal;font-size:200px;line-height:100%;font-family:Lato;-inkscape-font-specification:'Lato Bold';text-align:start;letter-spacing:0px;word-spacing:0px;writing-mode:lr-tb;text-anchor:start;fill:#000000;fill-opacity:1;stroke:none;stroke-width:1px;stroke-linecap:butt;stroke-linejoin:miter;stroke-opacity:1"
       id="path3453"
       inkscape:connector-curvature="0" />
    <path
       d="m 1052.9879,1125.136 q 3.1759,-3.7856 6.6592,-6.9607 3.5857,-3.2971 7.4788,-5.4952 3.9956,-2.3202 8.5033,-3.5414 4.5078,-1.3433 9.8352,-1.3433 8.6057,0 15.2649,3.5414 6.6593,3.4193 11.0646,9.7693 4.5078,6.228 6.7617,15.0204 2.3563,8.6703 2.3563,19.1724 l 0,79.7423 -25.305,0 0,-79.7423 q 0,-11.479 -4.4054,-17.707 -4.4053,-6.3501 -13.4208,-6.3501 -6.5568,0 -12.294,3.5414 -5.7371,3.5414 -10.8596,9.6473 l 0,90.6107 -25.305,0 0,-125.2919 15.4698,0 q 4.9176,0 6.4544,5.4952 l 1.7416,9.8915 z"
       style="font-style:normal;font-variant:normal;font-weight:bold;font-stretch:normal;font-size:200px;line-height:100%;font-family:Lato;-inkscape-font-specification:'Lato Bold';text-align:start;letter-spacing:0px;word-spacing:0px;writing-mode:lr-tb;text-anchor:start;fill:#000000;fill-opacity:1;stroke:none;stroke-width:1px;stroke-linecap:butt;stroke-linejoin:miter;stroke-opacity:1"
       id="path3455"
       inkscape:connector-curvature="0" />
    <path
       d="m 1212.697,1157.9854 q 0,-5.8616 -1.4343,-10.9905 -1.3319,-5.251 -4.098,-9.1587 -2.7661,-3.9078 -7.069,-6.1059 -4.2004,-2.3202 -9.8352,-2.3202 -10.9621,0 -17.3139,7.4491 -6.2494,7.4491 -7.9911,21.1262 l 47.7415,0 z m -48.2537,18.1954 q 0.6147,9.6473 2.8686,16.73 2.2538,6.9607 5.942,11.6011 3.6882,4.5184 8.7082,6.8386 5.1225,2.1981 11.2695,2.1981 6.1469,0 10.5523,-1.7096 4.5077,-1.7097 7.7861,-3.7857 3.3809,-2.076 5.8396,-3.7856 2.5613,-1.7096 4.9176,-1.7096 3.1759,0 4.7127,2.8087 l 7.2739,10.9905 q -4.2004,5.8616 -9.4254,9.8914 -5.2249,3.9078 -10.962,6.3501 -5.6348,2.3202 -11.5768,3.2972 -5.8396,0.9769 -11.3719,0.9769 -10.9621,0 -20.3875,-4.2741 -9.4253,-4.3962 -16.3919,-12.8223 -6.9665,-8.5481 -10.9621,-21.004 -3.9955,-12.5781 -3.9955,-29.0639 0,-12.8222 3.4833,-24.057 3.4833,-11.3568 9.9376,-19.6608 6.5568,-8.426 15.8797,-13.3107 9.4253,-4.8847 21.207,-4.8847 9.9376,0 18.3384,3.7856 8.4009,3.7857 14.4454,11.1127 6.0445,7.2049 9.4254,17.829 3.4832,10.5021 3.4832,24.057 0,6.8386 -1.2294,9.2809 -1.2293,2.3202 -4.7126,2.3202 l -65.0554,0 z"
       style="font-style:normal;font-variant:normal;font-weight:bold;font-stretch:normal;font-size:200px;line-height:100%;font-family:Lato;-inkscape-font-specification:'Lato Bold';text-align:start;letter-spacing:0px;word-spacing:0px;writing-mode:lr-tb;text-anchor:start;fill:#000000;fill-opacity:1;stroke:none;stroke-width:1px;stroke-linecap:butt;stroke-linejoin:miter;stroke-opacity:1"
       id="path3457"
       inkscape:connector-curvature="0" />
    <path
       d="m 1288.0677,1236.995 q -13.7282,0 -21.1046,-9.1587 -7.2739,-9.2809 -7.2739,-25.5225 l 0,-69.9729 -10.7572,0 q -2.049,0 -3.4833,-1.5875 -1.4343,-1.5875 -1.4343,-4.7626 l 0,-11.9674 16.9042,-3.2972 5.3274,-34.1927 q 0.5122,-2.4423 1.9465,-3.7856 1.4343,-1.3433 3.6882,-1.3433 l 13.1135,0 0,39.4437 28.0712,0 0,21.4926 -28.0712,0 0,67.897 q 0,5.8616 2.3563,9.1587 2.4588,3.2972 6.6593,3.2972 2.3563,0 3.893,-0.6106 1.6392,-0.7327 2.7662,-1.4654 1.2294,-0.7327 2.1514,-1.3433 0.9221,-0.7327 1.8441,-0.7327 1.1269,0 1.8441,0.7327 0.7171,0.6106 1.5367,1.9539 l 7.5813,14.654 q -5.5323,5.4952 -12.7037,8.3039 -7.1715,2.8087 -14.8552,2.8087 z"
       style="font-style:normal;font-variant:normal;font-weight:bold;font-stretch:normal;font-size:200px;line-height:100%;font-family:Lato;-inkscape-font-specification:'Lato Bold';text-align:start;letter-spacing:0px;word-spacing:0px;writing-mode:lr-tb;text-anchor:start;fill:#000000;fill-opacity:1;stroke:none;stroke-width:1px;stroke-linecap:butt;stroke-linejoin:miter;stroke-opacity:1"
       id="path3459"
       inkscape:connector-curvature="0" />
  </g>
</svg>
