<?xml version="1.0" encoding="UTF-8" standalone="no"?>
<!-- Created with Inkscape (http://www.inkscape.org/) -->

<svg
   xmlns:dc="http://purl.org/dc/elements/1.1/"
   xmlns:cc="http://creativecommons.org/ns#"
   xmlns:rdf="http://www.w3.org/1999/02/22-rdf-syntax-ns#"
   xmlns:svg="http://www.w3.org/2000/svg"
   xmlns="http://www.w3.org/2000/svg"
   xmlns:sodipodi="http://sodipodi.sourceforge.net/DTD/sodipodi-0.dtd"
   xmlns:inkscape="http://www.inkscape.org/namespaces/inkscape"
   width="564.59528mm"
   height="402.02029mm"
   viewBox="0 0 2000.5344 1424.4814"
   id="svg4939"
   version="1.1"
   inkscape:version="0.91 r13725"
   sodipodi:docname="l3d.svg">
  <defs
     id="defs4941" />
  <sodipodi:namedview
     id="base"
     pagecolor="#ffffff"
     bordercolor="#666666"
     borderopacity="1.0"
     inkscape:pageopacity="0.0"
     inkscape:pageshadow="2"
     inkscape:zoom="0.31209301"
     inkscape:cx="1728.2933"
     inkscape:cy="383.99962"
     inkscape:document-units="px"
     inkscape:current-layer="layer1"
     showgrid="false"
     showguides="true"
     inkscape:guide-bbox="true"
     fit-margin-top="0"
     fit-margin-left="0"
     fit-margin-right="0"
     fit-margin-bottom="0"
     inkscape:window-width="1920"
     inkscape:window-height="1016"
     inkscape:window-x="0"
     inkscape:window-y="27"
     inkscape:window-maximized="1">
    <sodipodi:guide
       position="267.81943,988.88031"
       orientation="0,1"
       id="guide5869" />
    <sodipodi:guide
       position="-4.5352708,1475.9146"
       orientation="1,0"
       id="guide5871" />
    <sodipodi:guide
       position="1355.3652,1422.6529"
       orientation="0,1"
       id="guide5873" />
    <sodipodi:guide
       position="1994.8686,857.50922"
       orientation="1,0"
       id="guide5875" />
    <sodipodi:guide
       position="1280.3381,203.8579"
       orientation="0,1"
       id="guide5877" />
    <sodipodi:guide
       position="897.16842,-3.2041732"
       orientation="0,1"
       id="guide5990" />
  </sodipodi:namedview>
  <metadata
     id="metadata4944">
    <rdf:RDF>
      <cc:Work
         rdf:about="">
        <dc:format>image/svg+xml</dc:format>
        <dc:type
           rdf:resource="http://purl.org/dc/dcmitype/StillImage" />
        <dc:title></dc:title>
      </cc:Work>
    </rdf:RDF>
  </metadata>
  <g
     inkscape:label="Ebene 1"
     inkscape:groupmode="layer"
     id="layer1"
     transform="translate(681.15775,187.48634)">
    <flowRoot
       xml:space="preserve"
       id="flowRoot5900"
       style="font-style:normal;font-weight:normal;font-size:40px;line-height:125%;font-family:sans-serif;letter-spacing:0px;word-spacing:0px;fill:#000000;fill-opacity:1;stroke:none;stroke-width:1px;stroke-linecap:butt;stroke-linejoin:miter;stroke-opacity:1"
       transform="translate(-681.15775,-187.48634)"><flowRegion
         id="flowRegion5902"><rect
           id="rect5904"
           width="1999.4039"
           height="179.43582"
           x="-4.5352678"
           y="1220.6235" /></flowRegion><flowPara
         id="flowPara5906"
         style="font-style:normal;font-variant:normal;font-weight:normal;font-stretch:normal;font-family:Lato;-inkscape-font-specification:Lato" /></flowRoot>    <g
       id="g5956">
      <g
         id="g5889">
        <g
           id="g5885">
          <polygon
             inkscape:transform-center-y="6.0807202"
             inkscape:transform-center-x="-735.76717"
             id="polygon5366"
             transform="matrix(-7.2633158,0,0,7.5170891,706.74163,-127.7118)"
             points="75,47 81,41 73,41 64,50 73,59 81,59 75,53 88,53 88,47 "
             style="fill:#ffcc33;fill-opacity:1" />
          <ellipse
             ry="301.60593"
             rx="295.82196"
             id="ellipse5364"
             stroke-miterlimit="4"
             cy="310.60675"
             cx="303.27835"
             style="fill:none;stroke:#de2c68;stroke-width:15.55206966;stroke-miterlimit:4;stroke-dasharray:none;stroke-opacity:1" />
        </g>
        <path
           inkscape:connector-curvature="0"
           id="path3338"
           d="m 794.54302,1029.8265 c -7.73384,-0.8978 -15.15165,-2.4109 -16.48502,-3.3627 -1.33275,-0.9517 -9.79998,-7.0532 -18.81567,-13.559 -19.13038,-13.80436 -34.70915,-20.31822 -50.15741,-20.97206 -6.93804,-0.29373 -13.14591,-2.5086 -16.66978,-5.94761 -3.08806,-3.01431 -11.96087,-6.75922 -19.71767,-8.32256 -15.82582,-3.18964 -19.72053,-6.62297 -25.61254,-22.57952 -3.68843,-9.98974 -5.37104,-11.53633 -16.92295,-15.55709 -20.64369,-7.18541 -31.02309,-11.7271 -41.75543,-18.27145 -5.54081,-3.37858 -11.02867,-5.9321 -12.19493,-5.6743 -1.16615,0.25766 -13.39263,-6.38722 -27.16985,-14.76644 -13.77756,-8.37917 -29.73743,-17.00352 -35.46634,-19.16507 -12.54992,-4.73518 -19.90523,-16.8857 -21.40114,-35.35403 -0.54623,-6.74104 -2.72721,-16.53766 -4.84533,-21.77022 -3.29962,-8.14567 -5.98494,-10.33629 -18.67645,-15.23674 -8.1522,-3.14769 -16.5765,-5.33559 -18.72046,-4.86177 -2.14352,0.47372 -4.66831,0.0683 -5.61017,-0.90085 -0.9419,-0.96918 -13.2794,-4.63215 -27.41731,-8.13995 -14.13771,-3.50783 -27.43062,-7.71873 -29.53981,-9.35757 -2.10901,-1.63889 -5.63689,-2.59868 -7.83908,-2.13277 -2.20216,0.46594 -6.72103,0.0159 -10.04178,-0.99972 -26.20932,-8.01664 -39.29034,-13.06064 -55.13854,-21.26172 -39.42401,-20.40125 -40.28001,-20.71163 -76.22952,-27.65847 -12.19543,-2.35648 -57.16441,-13.46684 -80.35679,-19.85345 -11.31139,-3.11474 -25.68888,-5.24693 -31.94999,-4.73818 -11.62559,0.94465 -38.146596,-3.58953 -41.563624,-7.10604 -2.431009,-2.50149 -39.149135,-11.82472 -43.116745,-10.94788 -1.651581,0.36501 -11.526546,-1.34563 -21.944023,-3.80149 -20.6517296,-4.86858 -36.856669,-15.64337 -44.098004,-29.32143 -2.284381,-4.31474 -6.222432,-9.16507 -8.751304,-10.77856 -6.920878,-4.41543 -32.47985,2.05015 -44.853116,11.34634 -24.560204,18.45205 -35.082624,23.26889 -52.087474,23.84373 -8.75505,0.29562 -27.12308,2.27464 -40.81773,4.39706 -23.0698,3.57548 -25.84332,3.4412 -37.74455,-1.82768 -11.27201,-4.98999 -14.00374,-5.21738 -22.29965,-1.8563 -5.19994,2.10669 -40.43164,10.4853 -78.29248,18.61909 -68.48079,14.712 -68.88892,14.83236 -78.58627,23.1703 -5.36158,4.60983 -15.20502,11.03742 -21.87498,14.28362 -13.68869,6.66234 -26.92703,16.8651 -29.9751,23.10179 -6.30349,12.89744 -28.03657,38.85985 -35.02196,41.83759 -4.33168,1.8465 -10.88359,6.80278 -14.55961,11.01396 -3.67617,4.21124 -8.0998,7.9697 -9.83032,8.35216 -1.73069,0.38248 -6.27678,3.70055 -10.10251,7.37353 -3.82563,3.67291 -11.01368,7.57918 -15.97294,8.68047 -6.14423,1.36509 -11.00553,4.59791 -15.25938,10.14992 -4.10817,5.36191 -10.0989,9.43653 -17.52183,11.91756 -6.82872,2.28241 -13.08201,6.32872 -15.8479,10.25444 -6.53248,9.27169 -29.29395,14.22261 -40.52004,8.81358 -4.39484,-2.11767 -11.29171,-3.84596 -15.32645,-3.84068 -4.03434,0.005 -9.65011,-1.63496 -12.47904,-3.64492 -2.93136,-2.08266 -10.44234,-3.22519 -17.46345,-2.6565 -15.2437,1.2349 -22.05101,-2.89754 -16.15768,-9.80844 3.12146,-3.66046 8.31262,-5.30486 23.36395,-7.40076 10.64286,-1.48206 22.42824,-2.24253 26.19005,-1.69016 11.83382,1.73792 24.34017,-2.62013 42.89472,-14.94736 9.88033,-6.56421 24.53912,-15.47708 32.57553,-19.80643 8.03585,-4.32923 15.55814,-9.35643 16.71613,-11.17151 1.15834,-1.81529 3.92584,-3.70258 6.15068,-4.19425 2.2248,-0.4917 8.34795,-7.13157 13.60687,-14.75526 5.25895,-7.62365 13.6826,-16.92196 18.71946,-20.6629 5.03683,-3.74091 9.63297,-8.16146 10.21322,-9.82328 0.58057,-1.66192 3.96988,-3.66568 7.5322,-4.45297 10.78518,-2.38354 63.25023,-89.52909 60.73949,-100.8898 -0.65268,-2.95322 -4.59602,-7.13572 -8.76278,-9.29454 -4.16673,-2.15884 -9.91204,-5.27805 -12.76749,-6.93163 -2.85561,-1.65353 -9.60348,-2.86495 -14.99529,-2.69206 -5.39198,0.17292 -12.85152,-1.15424 -16.57706,-2.94925 -3.72531,-1.79502 -10.47832,-3.23338 -15.00692,-3.1963 -4.52856,0.0371 -10.1992,-0.96103 -12.60161,-2.21795 -2.40244,-1.25691 -9.09429,-2.69718 -14.87104,-3.20056 -5.77675,-0.50332 -12.30548,-1.81442 -14.5082,-2.91348 -4.13925,-2.06517 -18.14587,-6.15746 -38.03398,-11.11232 -6.29443,-1.56808 -14.54567,-5.65218 -18.33659,-9.07564 l -6.8926,-6.22448 8.51475,-12.06164 c 9.25433,-13.10931 34.96171,-29.97609 45.27522,-29.70545 31.11467,0.81655 33.56863,1.21622 64.67753,10.53335 21.46368,6.42851 33.4951,5.90473 31.88337,-1.38808 -0.82954,-3.7535 -23.12096,-15.92862 -27.42284,-14.97789 -2.19259,0.48456 -25.92328,-9.33079 -29.75214,-12.30585 -2.7703,-2.15265 -2.74934,-4.49098 0.0933,-10.39056 2.01734,-4.187 5.08084,-7.92498 6.80721,-8.3065 3.36052,-0.74269 23.73434,4.50456 36.41325,9.37797 18.56368,7.13542 42.7242,13.85568 76.11955,21.1726 7.44231,1.63056 20.255,4.47261 28.4725,6.31562 8.21768,1.84297 16.3105,3.04828 17.98409,2.6784 1.67358,-0.36986 7.65408,0.62614 13.29028,2.21326 5.63583,1.58724 11.93728,2.51231 14.00318,2.05576 2.06553,-0.4565 8.18378,0.417 13.59587,1.94116 5.41228,1.52419 14.78339,2.99635 20.82443,3.27163 23.91555,1.08946 70.34337,26.03169 73.2921,39.37423 2.32548,10.52234 -5.15751,14.82094 -33.43109,19.20467 l -25.22263,3.91061 -14.82526,-8.31211 c -26.30785,-14.75011 -30.96035,-16.14877 -49.21678,-14.79647 -24.85336,1.84087 -23.82871,1.18676 -21.11206,13.47917 3.70634,16.7706 8.66748,21.66443 22.61125,22.30455 6.63058,0.30438 14.17297,1.68228 16.7609,3.06191 2.58777,1.37971 11.44414,2.12645 19.68091,1.6595 8.23661,-0.46696 18.26443,-0.27032 22.28407,0.43702 4.1402,0.72852 11.16783,-0.3057 16.21166,-2.38586 4.89675,-2.01952 18.07159,-6.97799 29.27752,-11.01894 28.11746,-10.13933 32.15037,-8.98718 51.06623,14.58949 11.91915,14.85582 16.79788,18.96553 26.22735,22.0925 l 11.58428,3.84159 12.78621,-8.69771 c 7.03235,-4.78371 14.866152,-11.53243 17.408277,-14.99709 4.123121,-5.61931 7.413649,-6.84537 30.477963,-11.35649 18.248106,-3.56917 28.425392,-4.36904 34.588577,-2.71843 8.560896,2.29271 64.811921,-4.87009 71.235554,-9.0709 4.448457,-2.90893 0.757212,-13.60402 -7.985807,-23.14016 -4.413968,-4.81443 -9.648923,-12.62865 -11.633318,-17.3649 -4.647084,-11.09123 -23.2469624,-26.08073 -45.866016,-36.96301 -10.168476,-4.8921 -20.105864,-11.76774 -23.046269,-15.94555 -2.843182,-4.03978 -8.332928,-9.30632 -12.199096,-11.70352 -6.989786,-4.33388 -8.335991,-7.04448 -25.805154,-51.97195 -7.110579,-18.2878 -15.543151,-27.08546 -32.750691,-34.16868 -44.15918,-18.17753 -42.60963,-17.80259 -61.54644,-14.89178 -19.44607,2.98909 -29.609,0.57335 -52.15517,-12.39783 -15.71817,-9.04271 -31.5235,-13.68194 -61.96199,-18.18668 -13.91049,-2.0588 -26.6966,-4.28017 -28.41343,-4.93649 -1.71702,-0.65626 -6.79461,-2.65703 -11.28354,-4.44613 -9.34406,-3.72398 -102.68195,-63.99128 -103.29357,-66.69548 -0.2169,-0.9817 -3.43018,-2.93117 -7.12999,-4.33454 -7.92197,-3.00473 -15.71843,-20.15752 -13.2139,-29.07173 0.85754,-3.05219 6.99829,-9.7655 13.64624,-14.91841 9.746,-7.55426 14.16876,-9.48986 22.83287,-9.99275 12.37235,-0.71812 17.97558,1.05764 42.72299,13.54072 26.86765,13.55258 34.67471,16.96445 37.42662,16.35628 1.37084,-0.30296 6.19301,1.36992 10.71542,3.71759 4.52241,2.34765 11.1739,4.5136 14.7812,4.81324 3.60727,0.29962 9.53432,1.96532 13.17124,3.70154 3.63727,1.73609 9.88853,3.15239 13.89208,3.14722 4.00374,-0.005 10.4183,2.13379 14.25463,4.75341 3.8365,2.61959 8.02869,4.53015 9.31607,4.24562 1.28722,-0.28447 11.89753,5.37957 23.57828,12.58682 36.98278,22.81892 35.67763,22.33724 54.23937,20.01632 11.04108,-1.38057 19.6007,-0.91013 24.6889,1.35682 4.28398,1.90847 9.15525,3.16801 10.82504,2.79899 1.67033,-0.36915 7.53698,1.05748 13.03736,3.1702 27.01553,10.37667 37.858475,13.90923 40.739602,13.27248 1.734304,-0.38326 7.833846,1.16582 13.554756,3.44245 5.721081,2.27656 13.112166,3.54024 16.423989,2.80832 3.312379,-0.73204 9.319921,0.25797 13.350282,2.20002 4.030546,1.942 8.969479,3.16818 10.975169,2.72493 4.77243,-1.05472 25.670175,6.23563 39.952153,13.9376 8.0744924,4.35436 12.2781876,8.58924 14.674931,14.78343 1.847319,4.77449 5.995094,13.31313 9.217293,18.9747 3.222012,5.6616 7.502697,14.38077 9.512903,19.37583 2.913377,7.2404 8.095657,11.83929 25.556263,22.67954 12.045991,7.47861 27.388531,15.61526 34.094469,18.08138 6.706298,2.46609 18.0065,7.19118 25.11136,10.50024 7.10503,3.30904 17.28627,7.42841 22.62497,9.15413 5.33852,1.72579 15.39561,5.28345 22.34875,7.90598 6.95346,2.62242 22.49758,7.41204 34.54275,10.64344 12.04518,3.23142 24.99162,7.35768 28.76981,9.16952 3.77837,1.81179 8.65515,2.90392 10.8373,2.42699 2.18198,-0.47863 11.32784,0.97407 20.32336,3.22451 8.99553,2.25043 17.5665,3.82842 19.0464,3.50669 1.47936,-0.32335 5.05574,1.09532 7.9461,3.149 2.8904,2.05374 9.3963,3.60115 14.45723,3.43885 5.06091,-0.16226 15.23159,1.33667 22.60157,3.33109 16.46603,4.45583 32.01468,0.13389 50.41639,-14.01395 6.65875,-5.11941 14.08182,-9.75582 16.496,-10.30322 2.41483,-0.54448 8.03246,-3.96578 12.48489,-7.59641 9.69954,-7.90902 23.47319,-13.36262 48.47971,-19.19529 20.83508,-4.85982 39.65786,-2.33533 48.74901,6.53798 5.17642,5.05175 13.94551,6.38639 50.28186,7.65236 45.31914,1.57895 47.42386,1.42474 58.41186,-4.27958 5.69132,-2.95469 13.53454,-6.0764 17.42931,-6.93714 12.78208,-2.82486 37.83781,6.14257 61.77235,22.10842 21.53216,14.36337 23.34957,16.27465 36.45991,38.34324 9.65444,16.25165 15.7237,23.9568 20.21095,25.6588 7.17172,2.7202 11.43264,8.32972 21.30362,28.04651 5.7204,11.42636 9.43878,15.15137 24.21974,24.26252 15.79196,9.73445 21.91342,12.42692 42.84703,18.84637 17.49936,5.36603 50.07885,-4.43033 64.55508,-19.41142 7.66597,-7.93316 11.29972,-9.99089 18.02446,-10.20654 9.78696,-0.31393 25.87748,9.48899 30.31518,18.46933 1.68875,3.41753 5.60303,7.65721 8.69827,9.42156 3.0953,1.76415 5.9476,4.65482 6.33859,6.42373 1.35823,6.14592 11.99724,6.7434 27.6768,1.55426 14.04075,-4.64671 15.38897,-4.65131 19.26963,-0.0649 5.3809,6.35869 8.9442,7.65156 16.5737,6.01401 3.9012,-0.83578 11.6358,1.81948 20.8595,7.16482 l 14.6598,8.49546 31.5012,-5.03583 c 29.1958,-4.66735 32.2684,-4.68013 41.9825,-0.17672 5.7647,2.67246 10.35,6.23084 10.1894,7.90767 -0.1606,1.67667 -3.9918,5.93934 -8.5135,9.47227 -11.0186,8.60947 -8.5611,14.99255 5.0555,13.13089 8.7275,-1.19298 10.4628,-2.56028 15.4979,-12.21031 3.7058,-7.10336 9.1846,-12.82409 15.8182,-16.51759 23.5491,-13.11173 41.9938,-9.73908 64.7431,11.83882 8.469,8.03292 19.9892,17.06746 25.6,20.07654 5.6107,3.0091 18.7582,9.95384 29.2161,15.43258 19.951,10.45196 25.7972,16.95348 29.2356,32.51108 1.5346,6.94409 0.6607,11.93783 -3.3285,19.0218 l -5.4097,9.60564 -42.5155,9.50432 c -23.3831,5.22804 -43.893,10.0495 -45.5767,10.71638 -1.6841,0.66675 -7.2005,7.16759 -12.2588,14.4463 -10.1028,14.53612 -26.6403,30.73938 -32.7531,32.09026 -2.1464,0.47443 -6.6862,-1.41935 -10.088,-4.20858 -3.4014,-2.78919 -8.0337,-4.66269 -10.293,-4.1633 -5.1062,1.12842 -16.5643,19.9365 -19.9425,32.7348 -1.3897,5.2645 -5.2919,13.65947 -8.6717,18.65542 l -6.1455,9.0841 -12.1873,-8.89511 c -11.8348,-8.63827 -12.2395,-9.31156 -14.0108,-23.29979 l -1.8235,-14.40468 -7.3282,1.61961 c -4.0306,0.89098 -7.1175,2.5747 -6.8594,3.74183 0.8125,3.6764 -18.4913,32.60517 -25.7509,38.59112 -3.8201,3.14987 -10.6135,10.94602 -15.0963,17.32446 -12.6869,18.05215 -22.5861,20.9691 -57.63948,16.98398 -15.01778,-1.70723 -19.9792,-3.5432 -26.4124,-9.77326 -7.72718,-7.4833 -17.83009,-8.79536 -19.99562,-2.59691 -0.50081,1.43392 -4.83831,2.82987 -9.63896,3.10177 -7.97854,0.45246 -8.74114,1.13323 -8.87763,7.92602 -0.0821,4.08686 -1.43395,10.61194 -3.00465,14.49993 -1.5702,3.88825 -3.27951,11.47196 -3.79823,16.85325 -1.30369,13.52131 -17.28199,32.86523 -33.23402,40.23331 -6.70058,3.0948 -22.48132,8.8419 -35.06866,12.7707 -12.58716,3.9293 -24.39759,8.1687 -26.24565,9.4209 -1.84756,1.2523 -9.68695,1.5425 -17.4204,0.6451 z"
           style="fill:#009ee0;fill-opacity:1;stroke:#ffffff;stroke-width:5.58150053;stroke-linecap:square;stroke-linejoin:miter;stroke-miterlimit:4;stroke-dasharray:none" />
        <g
           id="g5879">
          <g
             transform="matrix(1.0819582,0,0,1.0819582,-194.67852,-315.6416)"
             id="g5616">
            <ellipse
               ry="320.5166"
               rx="315.12744"
               id="circle3878"
               stroke-miterlimit="4"
               cy="576.29681"
               cx="907.87805"
               style="fill:none;stroke:#de2c68;stroke-width:15.34729862;stroke-miterlimit:4;stroke-dasharray:none;stroke-opacity:1" />
            <ellipse
               style="fill:none;stroke:#de2c68;stroke-width:83.03166962;stroke-miterlimit:4;stroke-dasharray:none;stroke-opacity:1"
               cx="906.53369"
               cy="576.29523"
               stroke-miterlimit="4"
               id="ellipse5485"
               rx="412.2908"
               ry="416.33188" />
          </g>
          <polygon
             style="fill:#ffcc33;fill-opacity:1"
             points="64,50 73,59 81,59 75,53 88,53 88,47 75,47 81,41 73,41 "
             transform="matrix(14.898881,0,0,15.419433,-240.62554,-516.72469)"
             id="polygon5867"
             inkscape:transform-center-x="1509.2428"
             inkscape:transform-center-y="12.473066" />
        </g>
      </g>
      <g
         id="g4190"
         style="font-style:normal;font-variant:normal;font-weight:normal;font-stretch:normal;font-size:333.26159668px;line-height:100%;font-family:'Abyssinica SIL';-inkscape-font-specification:'Abyssinica SIL';letter-spacing:0px;word-spacing:0px;fill:#000000;fill-opacity:1;stroke:none;stroke-width:1px;stroke-linecap:butt;stroke-linejoin:miter;stroke-opacity:1"
         transform="matrix(1.0244945,0,0,1.2211683,-720.53809,-572.92978)">
        <path
           d="m 68.66045,1453.9256 q 4.2,5.1 9.1,7.2 5,2.1 10.5,2.1 5.7,0 10.2,-2 4.6,-2.1 7.8,-6.4 3.2,-4.4 4.9,-11.1 1.7,-6.8 1.7,-16.2 0,-16.9 -5.6,-24.4 -5.6,-7.6 -16.1,-7.6 -7.1,0 -12.4,3.3 -5.3,3.2 -10.1,9.1 l 0,46 z m 0,-63.4 q 6.2,-6.5 13.7,-10.3 7.6,-3.9 17.3,-3.9 8.9,0 16,3.5 7.2,3.5 12.2,10.1 5.1,6.5 7.8,15.8 2.7,9.3 2.7,20.9 0,12.5 -3.1,22.7 -3.1,10.2 -8.9,17.5 -5.7,7.2 -13.8,11.2 -8.1,4 -18,4 -4.8,0 -8.7,-1 -3.9,-0.9 -7.2,-2.6 -3.3,-1.7 -6.1,-4.1 -2.7,-2.5 -5.2,-5.5 l -1.1,6.9 q -0.6,2.6 -2.1,3.7 -1.4,1.1 -3.9,1.1 l -16.3,0 0,-148.6 24.7,0 0,58.6 z"
           style="font-style:normal;font-variant:normal;font-weight:bold;font-stretch:normal;font-size:200px;font-family:Lato;-inkscape-font-specification:'Lato Bold';fill:#009ee0;fill-opacity:1"
           id="path3419"
           inkscape:connector-curvature="0" />
        <path
           d="m 203.03233,1376.3256 q 11.4,0 20.7,3.7 9.4,3.7 16,10.5 6.7,6.8 10.3,16.6 3.6,9.8 3.6,21.9 0,12.2 -3.6,22 -3.6,9.8 -10.3,16.7 -6.6,6.9 -16,10.6 -9.3,3.7 -20.7,3.7 -11.5,0 -20.9,-3.7 -9.4,-3.7 -16.1,-10.6 -6.6,-6.9 -10.3,-16.7 -3.6,-9.8 -3.6,-22 0,-12.1 3.6,-21.9 3.7,-9.8 10.3,-16.6 6.7,-6.8 16.1,-10.5 9.4,-3.7 20.9,-3.7 z m 0,86.7 q 12.8,0 18.9,-8.6 6.2,-8.6 6.2,-25.2 0,-16.6 -6.2,-25.3 -6.1,-8.7 -18.9,-8.7 -13,0 -19.3,8.8 -6.2,8.7 -6.2,25.2 0,16.5 6.2,25.2 6.3,8.6 19.3,8.6 z"
           style="font-style:normal;font-variant:normal;font-weight:bold;font-stretch:normal;font-size:200px;font-family:Lato;-inkscape-font-specification:'Lato Bold';fill:#009ee0;fill-opacity:1"
           id="path3421"
           inkscape:connector-curvature="0" />
        <path
           d="m 336.87608,1404.1256 q -4.2,-5.1 -9.2,-7.2 -4.9,-2.1 -10.6,-2.1 -5.6,0 -10.1,2.1 -4.5,2.1 -7.7,6.4 -3.2,4.2 -4.9,10.8 -1.7,6.5 -1.7,15.4 0,9 1.4,15.3 1.5,6.2 4.2,10.2 2.7,3.9 6.6,5.7 3.9,1.7 8.7,1.7 7.7,0 13.1,-3.2 5.4,-3.2 10.2,-9.1 l 0,-46 z m 24.7,-72.2 0,148.6 -15.1,0 q -4.9,0 -6.2,-4.5 l -2.1,-9.9 q -6.2,7.1 -14.3,11.5 -8,4.4 -18.7,4.4 -8.4,0 -15.4,-3.5 -7,-3.5 -12.1,-10.1 -5,-6.7 -7.8,-16.5 -2.7,-9.8 -2.7,-22.4 0,-11.4 3.1,-21.2 3.1,-9.8 8.9,-17 5.8,-7.2 13.9,-11.2 8.1,-4.1 18.2,-4.1 8.6,0 14.7,2.7 6.1,2.7 10.9,7.3 l 0,-54.1 24.7,0 z"
           style="font-style:normal;font-variant:normal;font-weight:bold;font-stretch:normal;font-size:200px;font-family:Lato;-inkscape-font-specification:'Lato Bold';fill:#009ee0;fill-opacity:1"
           id="path3423"
           inkscape:connector-curvature="0" />
        <path
           d="m 452.24795,1417.4256 q 0,-4.8 -1.4,-9 -1.3,-4.3 -4,-7.5 -2.7,-3.2 -6.9,-5 -4.1,-1.9 -9.6,-1.9 -10.7,0 -16.9,6.1 -6.1,6.1 -7.8,17.3 l 46.6,0 z m -47.1,14.9 q 0.6,7.9 2.8,13.7 2.2,5.7 5.8,9.5 3.6,3.7 8.5,5.6 5,1.8 11,1.8 6,0 10.3,-1.4 4.4,-1.4 7.6,-3.1 3.3,-1.7 5.7,-3.1 2.5,-1.4 4.8,-1.4 3.1,0 4.6,2.3 l 7.1,9 q -4.1,4.8 -9.2,8.1 -5.1,3.2 -10.7,5.2 -5.5,1.9 -11.3,2.7 -5.7,0.8 -11.1,0.8 -10.7,0 -19.9,-3.5 -9.2,-3.6 -16,-10.5 -6.8,-7 -10.7,-17.2 -3.9,-10.3 -3.9,-23.8 0,-10.5 3.4,-19.7 3.4,-9.3 9.7,-16.1 6.4,-6.9 15.5,-10.9 9.2,-4 20.7,-4 9.7,0 17.9,3.1 8.2,3.1 14.1,9.1 5.9,5.9 9.2,14.6 3.4,8.6 3.4,19.7 0,5.6 -1.2,7.6 -1.2,1.9 -4.6,1.9 l -63.5,0 z"
           style="font-style:normal;font-variant:normal;font-weight:bold;font-stretch:normal;font-size:200px;font-family:Lato;-inkscape-font-specification:'Lato Bold';fill:#009ee0;fill-opacity:1"
           id="path3425"
           inkscape:connector-curvature="0" />
        <path
           d="m 515.88858,1390.5256 q 3.1,-3.1 6.5,-5.7 3.5,-2.7 7.3,-4.5 3.9,-1.9 8.3,-2.9 4.4,-1.1 9.6,-1.1 8.4,0 14.9,2.9 6.5,2.8 10.8,8 4.4,5.1 6.6,12.3 2.3,7.1 2.3,15.7 l 0,65.3 -24.7,0 0,-65.3 q 0,-9.4 -4.3,-14.5 -4.3,-5.2 -13.1,-5.2 -6.4,0 -12,2.9 -5.6,2.9 -10.6,7.9 l 0,74.2 -24.7,0 0,-102.6 15.1,0 q 4.8,0 6.3,4.5 l 1.7,8.1 z"
           style="font-style:normal;font-variant:normal;font-weight:bold;font-stretch:normal;font-size:200px;font-family:Lato;-inkscape-font-specification:'Lato Bold';fill:#009ee0;fill-opacity:1"
           id="path3427"
           inkscape:connector-curvature="0" />
        <path
           d="m 668.2792,1397.9256 q -1,1.6 -2.1,2.3 -1.1,0.6 -2.8,0.6 -1.8,0 -3.9,-1 -2,-1 -4.7,-2.2 -2.7,-1.3 -6.2,-2.3 -3.4,-1 -8.1,-1 -7.3,0 -11.5,3.1 -4.1,3.1 -4.1,8.1 0,3.3 2.1,5.6 2.2,2.2 5.7,3.9 3.6,1.7 8.1,3.1 4.5,1.3 9.1,2.9 4.7,1.6 9.2,3.7 4.5,2 8,5.2 3.6,3.1 5.7,7.5 2.2,4.4 2.2,10.6 0,7.4 -2.7,13.7 -2.6,6.2 -7.8,10.8 -5.2,4.5 -12.9,7.1 -7.6,2.5 -17.6,2.5 -5.3,0 -10.4,-1 -5,-0.9 -9.7,-2.6 -4.6,-1.7 -8.6,-4 -3.9,-2.3 -6.9,-5 l 5.7,-9.4 q 1.1,-1.7 2.6,-2.6 1.5,-0.9 3.8,-0.9 2.3,0 4.3,1.3 2.1,1.3 4.8,2.8 2.7,1.5 6.3,2.8 3.7,1.3 9.3,1.3 4.4,0 7.5,-1 3.2,-1.1 5.2,-2.8 2.1,-1.7 3,-3.9 1,-2.3 1,-4.7 0,-3.6 -2.2,-5.9 -2.1,-2.3 -5.7,-4 -3.5,-1.7 -8.1,-3 -4.5,-1.4 -9.3,-3 -4.7,-1.6 -9.3,-3.7 -4.5,-2.2 -8.1,-5.5 -3.5,-3.3 -5.7,-8.1 -2.1,-4.8 -2.1,-11.6 0,-6.3 2.5,-12 2.5,-5.7 7.3,-9.9 4.9,-4.3 12.1,-6.8 7.3,-2.6 16.8,-2.6 10.6,0 19.3,3.5 8.7,3.5 14.5,9.2 l -5.6,8.9 z"
           style="font-style:normal;font-variant:normal;font-weight:bold;font-stretch:normal;font-size:200px;font-family:Lato;-inkscape-font-specification:'Lato Bold';fill:#009ee0;fill-opacity:1"
           id="path3429"
           inkscape:connector-curvature="0" />
        <path
           d="m 759.66983,1417.4256 q 0,-4.8 -1.4,-9 -1.3,-4.3 -4,-7.5 -2.7,-3.2 -6.9,-5 -4.1,-1.9 -9.6,-1.9 -10.7,0 -16.9,6.1 -6.1,6.1 -7.8,17.3 l 46.6,0 z m -47.1,14.9 q 0.6,7.9 2.8,13.7 2.2,5.7 5.8,9.5 3.6,3.7 8.5,5.6 5,1.8 11,1.8 6,0 10.3,-1.4 4.4,-1.4 7.6,-3.1 3.3,-1.7 5.7,-3.1 2.5,-1.4 4.8,-1.4 3.1,0 4.6,2.3 l 7.1,9 q -4.1,4.8 -9.2,8.1 -5.1,3.2 -10.7,5.2 -5.5,1.9 -11.3,2.7 -5.7,0.8 -11.1,0.8 -10.7,0 -19.9,-3.5 -9.2,-3.6 -16,-10.5 -6.8,-7 -10.7,-17.2 -3.9,-10.3 -3.9,-23.8 0,-10.5 3.4,-19.7 3.4,-9.3 9.7,-16.1 6.4,-6.9 15.5,-10.9 9.2,-4 20.7,-4 9.7,0 17.9,3.1 8.2,3.1 14.1,9.1 5.9,5.9 9.2,14.6 3.4,8.6 3.4,19.7 0,5.6 -1.2,7.6 -1.2,1.9 -4.6,1.9 l -63.5,0 z"
           style="font-style:normal;font-variant:normal;font-weight:bold;font-stretch:normal;font-size:200px;font-family:Lato;-inkscape-font-specification:'Lato Bold';fill:#009ee0;fill-opacity:1"
           id="path3431"
           inkscape:connector-curvature="0" />
        <path
           d="m 866.31045,1417.4256 q 0,-4.8 -1.4,-9 -1.3,-4.3 -4,-7.5 -2.7,-3.2 -6.9,-5 -4.1,-1.9 -9.6,-1.9 -10.7,0 -16.9,6.1 -6.1,6.1 -7.8,17.3 l 46.6,0 z m -47.1,14.9 q 0.6,7.9 2.8,13.7 2.2,5.7 5.8,9.5 3.6,3.7 8.5,5.6 5,1.8 11,1.8 6,0 10.3,-1.4 4.4,-1.4 7.6,-3.1 3.3,-1.7 5.7,-3.1 2.5,-1.4 4.8,-1.4 3.1,0 4.6,2.3 l 7.1,9 q -4.1,4.8 -9.2,8.1 -5.1,3.2 -10.7,5.2 -5.5,1.9 -11.3,2.7 -5.7,0.8 -11.1,0.8 -10.7,0 -19.9,-3.5 -9.2,-3.6 -16,-10.5 -6.8,-7 -10.7,-17.2 -3.9,-10.3 -3.9,-23.8 0,-10.5 3.4,-19.7 3.4,-9.3 9.7,-16.1 6.4,-6.9 15.5,-10.9 9.2,-4 20.7,-4 9.7,0 17.9,3.1 8.2,3.1 14.1,9.1 5.9,5.9 9.2,14.6 3.4,8.6 3.4,19.7 0,5.6 -1.2,7.6 -1.2,1.9 -4.6,1.9 l -63.5,0 z"
           style="font-style:normal;font-variant:normal;font-weight:bold;font-stretch:normal;font-size:200px;font-family:Lato;-inkscape-font-specification:'Lato Bold';fill:#009ee0;fill-opacity:1"
           id="path3433"
           inkscape:connector-curvature="0" />
        <path
           d="m 903.25108,1466.9256 q 0,-3.1 1.1,-5.9 1.2,-2.8 3.2,-4.8 2,-2 4.8,-3.2 2.8,-1.2 6,-1.2 3.2,0 5.9,1.2 2.8,1.2 4.8,3.2 2.1,2 3.3,4.8 1.2,2.8 1.2,5.9 0,3.2 -1.2,6 -1.2,2.7 -3.3,4.7 -2,2 -4.8,3.1 -2.7,1.2 -5.9,1.2 -3.2,0 -6,-1.2 -2.8,-1.1 -4.8,-3.1 -2,-2 -3.2,-4.7 -1.1,-2.8 -1.1,-6 z"
           style="font-style:normal;font-variant:normal;font-weight:bold;font-stretch:normal;font-size:200px;line-height:100%;font-family:Lato;-inkscape-font-specification:'Lato Bold';text-align:start;writing-mode:lr-tb;text-anchor:start"
           id="path3435"
           inkscape:connector-curvature="0" />
        <path
           d="m 961.70733,1480.5256 0,-84 -8.9,-1.4 q -2.9,-0.6 -4.7,-2 -1.7,-1.5 -1.7,-4.2 l 0,-10.1 15.3,0 0,-7.6 q 0,-8.8 2.6,-15.8 2.7,-7 7.6,-11.9 5,-4.9 12.1,-7.5 7.1,-2.6 15.99997,-2.6 7.1,0 13.2,1.9 l -0.5,12.4 q -0.1,1.4 -0.8,2.3 -0.7,0.8 -1.9,1.3 -1.1,0.4 -2.6,0.6 -1.5,0.1 -3.2,0.1 -4.39997,0 -7.89997,1 -3.4,0.9 -5.8,3.3 -2.4,2.3 -3.7,6.2 -1.2,3.8 -1.2,9.5 l 0,6.8 26.69997,0 0,17.6 -25.89997,0 0,84.1 -24.7,0 z"
           style="font-style:normal;font-variant:normal;font-weight:bold;font-stretch:normal;font-size:200px;font-family:Lato;-inkscape-font-specification:'Lato Bold';fill:#de2c68;fill-opacity:1"
           id="path3437"
           inkscape:connector-curvature="0" />
        <path
           d="m 1049.6823,1395.7256 q 4.8,-9.2 11.4,-14.4 6.6,-5.3 15.6,-5.3 7.1,0 11.4,3.1 l -1.6,18.5 q -0.5,1.8 -1.5,2.6 -0.9,0.7 -2.5,0.7 -1.5,0 -4.5,-0.5 -2.9,-0.5 -5.7,-0.5 -4.1,0 -7.3,1.2 -3.2,1.2 -5.8,3.5 -2.5,2.2 -4.5,5.4 -1.9,3.2 -3.6,7.3 l 0,63.2 -24.7,0 0,-102.6 14.5,0 q 3.8,0 5.3,1.4 1.5,1.3 2,4.8 l 1.5,11.6 z"
           style="font-style:normal;font-variant:normal;font-weight:bold;font-stretch:normal;font-size:200px;font-family:Lato;-inkscape-font-specification:'Lato Bold';fill:#de2c68;fill-opacity:1"
           id="path3439"
           inkscape:connector-curvature="0" />
        <path
           d="m 1164.3573,1417.4256 q 0,-4.8 -1.4,-9 -1.3,-4.3 -4,-7.5 -2.7,-3.2 -6.9,-5 -4.1,-1.9 -9.6,-1.9 -10.7,0 -16.9,6.1 -6.1,6.1 -7.8,17.3 l 46.6,0 z m -47.1,14.9 q 0.6,7.9 2.8,13.7 2.2,5.7 5.8,9.5 3.6,3.7 8.5,5.6 5,1.8 11,1.8 6,0 10.3,-1.4 4.4,-1.4 7.6,-3.1 3.3,-1.7 5.7,-3.1 2.5,-1.4 4.8,-1.4 3.1,0 4.6,2.3 l 7.1,9 q -4.1,4.8 -9.2,8.1 -5.1,3.2 -10.7,5.2 -5.5,1.9 -11.3,2.7 -5.7,0.8 -11.1,0.8 -10.7,0 -19.9,-3.5 -9.2,-3.6 -16,-10.5 -6.8,-7 -10.7,-17.2 -3.9,-10.3 -3.9,-23.8 0,-10.5 3.4,-19.7 3.4,-9.3 9.7,-16.1 6.4,-6.9 15.5,-10.9 9.2,-4 20.7,-4 9.7,0 17.9,3.1 8.2,3.1 14.1,9.1 5.9,5.9 9.2,14.6 3.4,8.6 3.4,19.7 0,5.6 -1.2,7.6 -1.2,1.9 -4.6,1.9 l -63.5,0 z"
           style="font-style:normal;font-variant:normal;font-weight:bold;font-stretch:normal;font-size:200px;font-family:Lato;-inkscape-font-specification:'Lato Bold';fill:#de2c68;fill-opacity:1"
           id="path3441"
           inkscape:connector-curvature="0" />
        <path
           d="m 1230.498,1377.9256 0,102.6 -24.8,0 0,-102.6 24.8,0 z m 3.4,-29.9 q 0,3.2 -1.3,6 -1.3,2.8 -3.5,4.9 -2.1,2.1 -5,3.4 -2.9,1.2 -6.2,1.2 -3.2,0 -6.1,-1.2 -2.8,-1.3 -4.9,-3.4 -2.1,-2.1 -3.4,-4.9 -1.2,-2.8 -1.2,-6 0,-3.3 1.2,-6.2 1.3,-2.9 3.4,-5 2.1,-2.1 4.9,-3.3 2.9,-1.3 6.1,-1.3 3.3,0 6.2,1.3 2.9,1.2 5,3.3 2.2,2.1 3.5,5 1.3,2.9 1.3,6.2 z"
           style="font-style:normal;font-variant:normal;font-weight:bold;font-stretch:normal;font-size:200px;font-family:Lato;-inkscape-font-specification:'Lato Bold';fill:#de2c68;fill-opacity:1"
           id="path3443"
           inkscape:connector-curvature="0" />
        <path
           d="m 1262.8792,1480.5256 0,-84 -8.9,-1.4 q -2.9,-0.6 -4.7,-2 -1.7,-1.5 -1.7,-4.2 l 0,-10.1 15.3,0 0,-7.6 q 0,-8.8 2.6,-15.8 2.7,-7 7.6,-11.9 5,-4.9 12.1,-7.5 7.1,-2.6 16,-2.6 7.1,0 13.2,1.9 l -0.5,12.4 q -0.1,1.4 -0.8,2.3 -0.7,0.8 -1.9,1.3 -1.1,0.4 -2.6,0.6 -1.5,0.1 -3.2,0.1 -4.4,0 -7.9,1 -3.4,0.9 -5.8,3.3 -2.4,2.3 -3.7,6.2 -1.2,3.8 -1.2,9.5 l 0,6.8 26.7,0 0,17.6 -25.9,0 0,84.1 -24.7,0 z"
           style="font-style:normal;font-variant:normal;font-weight:bold;font-stretch:normal;font-size:200px;font-family:Lato;-inkscape-font-specification:'Lato Bold';fill:#de2c68;fill-opacity:1"
           id="path3445"
           inkscape:connector-curvature="0" />
        <path
           d="m 1415.9542,1377.9256 0,102.6 -15.1,0 q -4.9,0 -6.2,-4.5 l -1.7,-8.2 q -6.3,6.4 -13.9,10.4 -7.6,3.9 -17.9,3.9 -8.4,0 -14.9,-2.8 -6.4,-2.9 -10.8,-8.1 -4.4,-5.2 -6.7,-12.3 -2.2,-7.2 -2.2,-15.8 l 0,-65.2 24.7,0 0,65.2 q 0,9.4 4.3,14.6 4.4,5.1 13.1,5.1 6.4,0 12,-2.8 5.6,-2.9 10.6,-7.9 l 0,-74.2 24.7,0 z"
           style="font-style:normal;font-variant:normal;font-weight:bold;font-stretch:normal;font-size:200px;font-family:Lato;-inkscape-font-specification:'Lato Bold';fill:#de2c68;fill-opacity:1"
           id="path3447"
           inkscape:connector-curvature="0" />
        <path
           d="m 1463.5448,1390.5256 q 3.1,-3.1 6.5,-5.7 3.5,-2.7 7.3,-4.5 3.9,-1.9 8.3,-2.9 4.4,-1.1 9.6,-1.1 8.4,0 14.9,2.9 6.5,2.8 10.8,8 4.4,5.1 6.6,12.3 2.3,7.1 2.3,15.7 l 0,65.3 -24.7,0 0,-65.3 q 0,-9.4 -4.3,-14.5 -4.3,-5.2 -13.1,-5.2 -6.4,0 -12,2.9 -5.6,2.9 -10.6,7.9 l 0,74.2 -24.7,0 0,-102.6 15.1,0 q 4.8,0 6.3,4.5 l 1.7,8.1 z"
           style="font-style:normal;font-variant:normal;font-weight:bold;font-stretch:normal;font-size:200px;font-family:Lato;-inkscape-font-specification:'Lato Bold';fill:#de2c68;fill-opacity:1"
           id="path3449"
           inkscape:connector-curvature="0" />
        <path
           d="m 1578.0355,1331.9256 0,85.1 4.6,0 q 2.5,0 3.9,-0.6 1.5,-0.7 3,-2.7 l 25.5,-31.5 q 1.6,-2.1 3.5,-3.2 2,-1.1 5.1,-1.1 l 22.6,0 -31.9,38.1 q -3.4,4.5 -7.4,6.9 2.1,1.5 3.7,3.5 1.7,2 3.2,4.3 l 34.2,49.8 -22.3,0 q -2.9,0 -5,-0.9 -2.1,-1 -3.5,-3.5 l -26.2,-38.9 q -1.4,-2.3 -2.9,-3 -1.5,-0.7 -4.5,-0.7 l -5.6,0 0,47 -24.7,0 0,-148.6 24.7,0 z"
           style="font-style:normal;font-variant:normal;font-weight:bold;font-stretch:normal;font-size:200px;font-family:Lato;-inkscape-font-specification:'Lato Bold';fill:#de2c68;fill-opacity:1"
           id="path3451"
           inkscape:connector-curvature="0" />
        <path
           d="m 1656.7667,1466.9256 q 0,-3.1 1.1,-5.9 1.2,-2.8 3.2,-4.8 2,-2 4.8,-3.2 2.8,-1.2 6,-1.2 3.2,0 5.9,1.2 2.8,1.2 4.8,3.2 2.1,2 3.3,4.8 1.2,2.8 1.2,5.9 0,3.2 -1.2,6 -1.2,2.7 -3.3,4.7 -2,2 -4.8,3.1 -2.7,1.2 -5.9,1.2 -3.2,0 -6,-1.2 -2.8,-1.1 -4.8,-3.1 -2,-2 -3.2,-4.7 -1.1,-2.8 -1.1,-6 z"
           style="font-style:normal;font-variant:normal;font-weight:bold;font-stretch:normal;font-size:200px;line-height:100%;font-family:Lato;-inkscape-font-specification:'Lato Bold';text-align:start;writing-mode:lr-tb;text-anchor:start"
           id="path3453"
           inkscape:connector-curvature="0" />
        <path
           d="m 1731.123,1390.5256 q 3.1,-3.1 6.5,-5.7 3.5,-2.7 7.3,-4.5 3.9,-1.9 8.3,-2.9 4.4,-1.1 9.6,-1.1 8.4,0 14.9,2.9 6.5,2.8 10.8,8 4.4,5.1 6.6,12.3 2.3,7.1 2.3,15.7 l 0,65.3 -24.7,0 0,-65.3 q 0,-9.4 -4.3,-14.5 -4.3,-5.2 -13.1,-5.2 -6.4,0 -12,2.9 -5.6,2.9 -10.6,7.9 l 0,74.2 -24.7,0 0,-102.6 15.1,0 q 4.8,0 6.3,4.5 l 1.7,8.1 z"
           style="font-style:normal;font-variant:normal;font-weight:bold;font-stretch:normal;font-size:200px;line-height:100%;font-family:Lato;-inkscape-font-specification:'Lato Bold';text-align:start;writing-mode:lr-tb;text-anchor:start"
           id="path3455"
           inkscape:connector-curvature="0" />
        <path
           d="m 1887.0136,1417.4256 q 0,-4.8 -1.4,-9 -1.3,-4.3 -4,-7.5 -2.7,-3.2 -6.9,-5 -4.1,-1.9 -9.6,-1.9 -10.7,0 -16.9,6.1 -6.1,6.1 -7.8,17.3 l 46.6,0 z m -47.1,14.9 q 0.6,7.9 2.8,13.7 2.2,5.7 5.8,9.5 3.6,3.7 8.5,5.6 5,1.8 11,1.8 6,0 10.3,-1.4 4.4,-1.4 7.6,-3.1 3.3,-1.7 5.7,-3.1 2.5,-1.4 4.8,-1.4 3.1,0 4.6,2.3 l 7.1,9 q -4.1,4.8 -9.2,8.1 -5.1,3.2 -10.7,5.2 -5.5,1.9 -11.3,2.7 -5.7,0.8 -11.1,0.8 -10.7,0 -19.9,-3.5 -9.2,-3.6 -16,-10.5 -6.8,-7 -10.7,-17.2 -3.9,-10.3 -3.9,-23.8 0,-10.5 3.4,-19.7 3.4,-9.3 9.7,-16.1 6.4,-6.9 15.5,-10.9 9.2,-4 20.7,-4 9.7,0 17.9,3.1 8.2,3.1 14.1,9.1 5.9,5.9 9.2,14.6 3.4,8.6 3.4,19.7 0,5.6 -1.2,7.6 -1.2,1.9 -4.6,1.9 l -63.5,0 z"
           style="font-style:normal;font-variant:normal;font-weight:bold;font-stretch:normal;font-size:200px;line-height:100%;font-family:Lato;-inkscape-font-specification:'Lato Bold';text-align:start;writing-mode:lr-tb;text-anchor:start"
           id="path3457"
           inkscape:connector-curvature="0" />
        <path
           d="m 1960.5823,1482.1256 q -13.4,0 -20.6,-7.5 -7.1,-7.6 -7.1,-20.9 l 0,-57.3 -10.5,0 q -2,0 -3.4,-1.3 -1.4,-1.3 -1.4,-3.9 l 0,-9.8 16.5,-2.7 5.2,-28 q 0.5,-2 1.9,-3.1 1.4,-1.1 3.6,-1.1 l 12.8,0 0,32.3 27.4,0 0,17.6 -27.4,0 0,55.6 q 0,4.8 2.3,7.5 2.4,2.7 6.5,2.7 2.3,0 3.8,-0.5 1.6,-0.6 2.7,-1.2 1.2,-0.6 2.1,-1.1 0.9,-0.6 1.8,-0.6 1.1,0 1.8,0.6 0.7,0.5 1.5,1.6 l 7.4,12 q -5.4,4.5 -12.4,6.8 -7,2.3 -14.5,2.3 z"
           style="font-style:normal;font-variant:normal;font-weight:bold;font-stretch:normal;font-size:200px;line-height:100%;font-family:Lato;-inkscape-font-specification:'Lato Bold';text-align:start;writing-mode:lr-tb;text-anchor:start"
           id="path3459"
           inkscape:connector-curvature="0" />
      </g>
    </g>
  </g>
</svg>
